ISO-10303-21;
HEADER;
FILE_DESCRIPTION (( 'STEP AP203' ),
    '1' );
FILE_NAME ('hopper2.STEP',
    '2026-01-13T08:41:16',
    ( '' ),
    ( '' ),
    'SwSTEP 2.0',
    'SolidWorks 2024',
    '' );
FILE_SCHEMA (( 'CONFIG_CONTROL_DESIGN' ));
ENDSEC;

DATA;
#1 = ORIENTED_EDGE ( 'NONE', *, *, #288, .F. ) ;
#2 = MECHANICAL_CONTEXT ( 'NONE', #399, 'mechanical' ) ;
#3 = DATE_AND_TIME ( #122, #361 ) ;
#4 = FACE_OUTER_BOUND ( 'NONE', #477, .T. ) ;
#5 = DIRECTION ( 'NONE',  ( 0.000000000000000000, 0.000000000000000000, 1.000000000000000000 ) ) ;
#6 = EDGE_LOOP ( 'NONE', ( #426, #325, #114, #360 ) ) ;
#7 = DATE_AND_TIME ( #341, #25 ) ;
#8 = CARTESIAN_POINT ( 'NONE',  ( 2.810564404043174806E-14, 343.0000000000000000, 229.5000000000000000 ) ) ;
#9 = DIRECTION ( 'NONE',  ( 0.000000000000000000, 1.000000000000000000, 0.000000000000000000 ) ) ;
#10 = EDGE_CURVE ( 'NONE', #173, #118, #201, .T. ) ;
#11 = APPROVAL_STATUS ( 'not_yet_approved' ) ;
#12 = CARTESIAN_POINT ( 'NONE',  ( 0.000000000000000000, 343.0000000000000000, 0.000000000000000000 ) ) ;
#13 = CARTESIAN_POINT ( 'NONE',  ( 0.000000000000000000, 330.0000000000000000, -229.5000000000000000 ) ) ;
#14 = PLANE ( 'NONE',  #300 ) ;
#15 = CIRCLE ( 'NONE', #281, 223.0000000000000000 ) ;
#16 = CARTESIAN_POINT ( 'NONE',  ( 0.000000000000000000, -0.4999496325109239470, 33.36605448151498621 ) ) ;
#17 = CARTESIAN_POINT ( 'NONE',  ( 0.000000000000000000, 330.0000000000000000, 0.000000000000000000 ) ) ;
#18 = DIRECTION ( 'NONE',  ( 0.000000000000000000, 1.000000000000000000, 0.000000000000000000 ) ) ;
#19 = ADVANCED_FACE ( 'NONE', ( #388 ), #405, .T. ) ;
#20 = VECTOR ( 'NONE', #293, 1000.000000000000227 ) ;
#21 = EDGE_LOOP ( 'NONE', ( #393, #33 ) ) ;
#22 = DIRECTION ( 'NONE',  ( 0.000000000000000000, 0.000000000000000000, -1.000000000000000000 ) ) ;
#23 = VERTEX_POINT ( 'NONE', #123 ) ;
#24 = CARTESIAN_POINT ( 'NONE',  ( 5.461924724197195181E-14, 330.0000000000000000, -223.0000000000000000 ) ) ;
#25 = LOCAL_TIME ( 0, 41, 16.00000000000000000, #462 ) ;
#26 = ORIENTED_EDGE ( 'NONE', *, *, #46, .F. ) ;
#27 = DIRECTION ( 'NONE',  ( 0.000000000000000000, 1.000000000000000000, 0.000000000000000000 ) ) ;
#28 = VERTEX_POINT ( 'NONE', #13 ) ;
#29 = CARTESIAN_POINT ( 'NONE',  ( 0.000000000000000000, 0.000000000000000000, 0.000000000000000000 ) ) ;
#30 = AXIS2_PLACEMENT_3D ( 'NONE', #470, #277, #472 ) ;
#31 = ORIENTED_EDGE ( 'NONE', *, *, #482, .F. ) ;
#32 = ADVANCED_BREP_SHAPE_REPRESENTATION ( 'hopper2', ( #77, #214 ), #249 ) ;
#33 = ORIENTED_EDGE ( 'NONE', *, *, #279, .T. ) ;
#34 = CC_DESIGN_PERSON_AND_ORGANIZATION_ASSIGNMENT ( #312, #349, ( #443 ) ) ;
#35 = AXIS2_PLACEMENT_3D ( 'NONE', #381, #235, #198 ) ;
#36 = DIRECTION ( 'NONE',  ( 0.000000000000000000, 0.000000000000000000, 1.000000000000000000 ) ) ;
#37 = ORIENTED_EDGE ( 'NONE', *, *, #147, .F. ) ;
#38 = CC_DESIGN_PERSON_AND_ORGANIZATION_ASSIGNMENT ( #260, #417, ( #431 ) ) ;
#39 =( LENGTH_UNIT ( ) NAMED_UNIT ( * ) SI_UNIT ( .MILLI., .METRE. ) );
#40 = LINE ( 'NONE', #485, #20 ) ;
#41 = DIRECTION ( 'NONE',  ( 0.000000000000000000, 0.000000000000000000, 1.000000000000000000 ) ) ;
#42 =( NAMED_UNIT ( * ) PLANE_ANGLE_UNIT ( ) SI_UNIT ( $, .RADIAN. ) );
#43 = FACE_OUTER_BOUND ( 'NONE', #284, .T. ) ;
#44 = DATE_AND_TIME ( #57, #121 ) ;
#45 = DIRECTION ( 'NONE',  ( 0.000000000000000000, 1.000000000000000000, 0.000000000000000000 ) ) ;
#46 = EDGE_CURVE ( 'NONE', #401, #280, #271, .T. ) ;
#47 = CARTESIAN_POINT ( 'NONE',  ( 2.759243418897820840E-14, 330.0000000000000000, -225.3093235387471225 ) ) ;
#48 = APPROVAL_PERSON_ORGANIZATION ( #297, #58, #422 ) ;
#49 = CARTESIAN_POINT ( 'NONE',  ( 2.752172442475105152E-14, 331.0000000000000000, -224.7319344966462893 ) ) ;
#50 = DIRECTION ( 'NONE',  ( 0.000000000000000000, 1.000000000000000000, 0.000000000000000000 ) ) ;
#51 = DIRECTION ( 'NONE',  ( 0.000000000000000000, 1.000000000000000000, 0.000000000000000000 ) ) ;
#52 = VECTOR ( 'NONE', #453, 1000.000000000000000 ) ;
#53 = PERSON_AND_ORGANIZATION_ROLE ( 'design_owner' ) ;
#54 = EDGE_LOOP ( 'NONE', ( #1, #64 ) ) ;
#55 = CARTESIAN_POINT ( 'NONE',  ( 0.000000000000000000, 331.0000000000000000, -228.5000000000000000 ) ) ;
#56 = CIRCLE ( 'NONE', #94, 229.5000000000000000 ) ;
#57 = CALENDAR_DATE ( 2026, 13, 1 ) ;
#58 = APPROVAL ( #450, 'UNSPECIFIED' ) ;
#59 = CARTESIAN_POINT ( 'NONE',  ( 0.000000000000000000, 343.0000000000000000, 0.000000000000000000 ) ) ;
#60 = AXIS2_PLACEMENT_3D ( 'NONE', #188, #424, #389 ) ;
#61 = DIRECTION ( 'NONE',  ( -0.000000000000000000, -1.000000000000000000, -0.000000000000000000 ) ) ;
#62 = AXIS2_PLACEMENT_3D ( 'NONE', #435, #245, #168 ) ;
#63 = DIRECTION ( 'NONE',  ( 0.000000000000000000, 0.000000000000000000, 1.000000000000000000 ) ) ;
#64 = ORIENTED_EDGE ( 'NONE', *, *, #135, .F. ) ;
#65 = DIRECTION ( 'NONE',  ( -0.000000000000000000, -1.000000000000000000, -0.000000000000000000 ) ) ;
#66 = ORIENTED_EDGE ( 'NONE', *, *, #468, .F. ) ;
#67 = FACE_OUTER_BOUND ( 'NONE', #441, .T. ) ;
#68 = ORIENTED_EDGE ( 'NONE', *, *, #232, .F. ) ;
#69 = ORIENTED_EDGE ( 'NONE', *, *, #207, .F. ) ;
#70 = EDGE_CURVE ( 'NONE', #72, #280, #270, .T. ) ;
#71 = DIRECTION ( 'NONE',  ( 0.000000000000000000, 0.000000000000000000, -1.000000000000000000 ) ) ;
#72 = VERTEX_POINT ( 'NONE', #459 ) ;
#73 = CIRCLE ( 'NONE', #30, 225.3093235387470941 ) ;
#74 = DIRECTION ( 'NONE',  ( 0.000000000000000000, 1.000000000000000000, 0.000000000000000000 ) ) ;
#75 = EDGE_LOOP ( 'NONE', ( #210, #322, #183, #365 ) ) ;
#76 = CARTESIAN_POINT ( 'NONE',  ( 3.980102097228898626E-15, 0.000000000000000000, -32.50000000000000000 ) ) ;
#77 = MANIFOLD_SOLID_BREP ( 'Shell2', #79 ) ;
#78 = CARTESIAN_POINT ( 'NONE',  ( 0.000000000000000000, -0.4999496325109239470, 0.000000000000000000 ) ) ;
#79 = CLOSED_SHELL ( 'NONE', ( #253, #148, #81, #448, #19, #139, #488, #273, #311, #457, #467, #174, #483, #84, #368 ) ) ;
#80 = CIRCLE ( 'NONE', #289, 32.50000000000000000 ) ;
#81 = ADVANCED_FACE ( 'NONE', ( #268 ), #423, .T. ) ;
#82 = COORDINATED_UNIVERSAL_TIME_OFFSET ( 8, 0, .BEHIND. ) ;
#83 = DIRECTION ( 'NONE',  ( 0.000000000000000000, 1.000000000000000000, 0.000000000000000000 ) ) ;
#84 = ADVANCED_FACE ( 'NONE', ( #330, #256 ), #250, .T. ) ;
#85 = LINE ( 'NONE', #308, #259 ) ;
#86 = DATE_TIME_ROLE ( 'classification_date' ) ;
#87 = DIRECTION ( 'NONE',  ( 0.000000000000000000, 1.000000000000000000, 0.000000000000000000 ) ) ;
#88 = CONICAL_SURFACE ( 'NONE', #140, 34.23210896302997241, 0.5235406172079275500 ) ;
#89 = CARTESIAN_POINT ( 'NONE',  ( 0.000000000000000000, 343.0000000000000000, 0.000000000000000000 ) ) ;
#90 = CARTESIAN_POINT ( 'NONE',  ( 0.000000000000000000, -0.4999496325109239470, 0.000000000000000000 ) ) ;
#91 = VECTOR ( 'NONE', #180, 1000.000000000000227 ) ;
#92 = EDGE_CURVE ( 'NONE', #471, #486, #40, .T. ) ;
#93 = DIRECTION ( 'NONE',  ( 6.122617171893985415E-17, 0.8660544815149864295, -0.4999496325109239470 ) ) ;
#94 = AXIS2_PLACEMENT_3D ( 'NONE', #282, #128, #321 ) ;
#95 = CARTESIAN_POINT ( 'NONE',  ( 0.000000000000000000, 330.0000000000000000, 0.000000000000000000 ) ) ;
#96 = DIRECTION ( 'NONE',  ( 0.000000000000000000, 1.000000000000000000, 0.000000000000000000 ) ) ;
#97 = EDGE_CURVE ( 'NONE', #224, #186, #287, .T. ) ;
#98 = CARTESIAN_POINT ( 'NONE',  ( 0.000000000000000000, 330.0000000000000000, 0.000000000000000000 ) ) ;
#99 = ORIENTED_EDGE ( 'NONE', *, *, #225, .T. ) ;
#100 = CARTESIAN_POINT ( 'NONE',  ( 0.000000000000000000, 343.0000000000000000, 0.000000000000000000 ) ) ;
#101 = EDGE_LOOP ( 'NONE', ( #369, #328 ) ) ;
#102 = EDGE_CURVE ( 'NONE', #367, #170, #144, .T. ) ;
#103 = AXIS2_PLACEMENT_3D ( 'NONE', #346, #309, #463 ) ;
#104 = EDGE_LOOP ( 'NONE', ( #68, #411, #481, #446 ) ) ;
#105 = AXIS2_PLACEMENT_3D ( 'NONE', #339, #18, #5 ) ;
#106 = ORIENTED_EDGE ( 'NONE', *, *, #429, .T. ) ;
#107 = CARTESIAN_POINT ( 'NONE',  ( 0.000000000000000000, 0.000000000000000000, 0.000000000000000000 ) ) ;
#108 = CIRCLE ( 'NONE', #412, 229.5000000000000000 ) ;
#109 = DIRECTION ( 'NONE',  ( 0.000000000000000000, 1.000000000000000000, 0.000000000000000000 ) ) ;
#110 = APPROVAL ( #11, 'UNSPECIFIED' ) ;
#111 = APPROVAL_DATE_TIME ( #187, #58 ) ;
#112 = CARTESIAN_POINT ( 'NONE',  ( 0.000000000000000000, 330.0000000000000000, 0.000000000000000000 ) ) ;
#113 = DIRECTION ( 'NONE',  ( 0.000000000000000000, 0.000000000000000000, 1.000000000000000000 ) ) ;
#114 = ORIENTED_EDGE ( 'NONE', *, *, #242, .T. ) ;
#115 = AXIS2_PLACEMENT_3D ( 'NONE', #324, #175, #478 ) ;
#116 = APPROVAL_ROLE ( '' ) ;
#117 = DIRECTION ( 'NONE',  ( 0.000000000000000000, 1.000000000000000000, 0.000000000000000000 ) ) ;
#118 = VERTEX_POINT ( 'NONE', #310 ) ;
#119 = FACE_OUTER_BOUND ( 'NONE', #101, .T. ) ;
#120 = PRODUCT_RELATED_PRODUCT_CATEGORY ( 'detail', '', ( #434 ) ) ;
#121 = LOCAL_TIME ( 0, 41, 16.00000000000000000, #274 ) ;
#122 = CALENDAR_DATE ( 2026, 13, 1 ) ;
#123 = CARTESIAN_POINT ( 'NONE',  ( 0.000000000000000000, 0.000000000000000000, 32.50000000000000000 ) ) ;
#124 = DIRECTION ( 'NONE',  ( 0.000000000000000000, 1.000000000000000000, 0.000000000000000000 ) ) ;
#125 = AXIS2_PLACEMENT_3D ( 'NONE', #384, #50, #197 ) ;
#126 = DIRECTION ( 'NONE',  ( 0.000000000000000000, 1.000000000000000000, 0.000000000000000000 ) ) ;
#127 = EDGE_CURVE ( 'NONE', #351, #28, #85, .T. ) ;
#128 = DIRECTION ( 'NONE',  ( 0.000000000000000000, 1.000000000000000000, 0.000000000000000000 ) ) ;
#129 = CIRCLE ( 'NONE', #410, 225.3093235387470941 ) ;
#130 = CARTESIAN_POINT ( 'NONE',  ( 2.798317936051701291E-14, 343.0000000000000000, 228.5000000000000000 ) ) ;
#131 = VERTEX_POINT ( 'NONE', #262 ) ;
#132 = DIRECTION ( 'NONE',  ( 0.000000000000000000, 1.000000000000000000, 0.000000000000000000 ) ) ;
#133 = AXIS2_PLACEMENT_3D ( 'NONE', #433, #96, #211 ) ;
#134 = ORIENTED_EDGE ( 'NONE', *, *, #242, .F. ) ;
#135 = EDGE_CURVE ( 'NONE', #246, #131, #480, .T. ) ;
#136 = EDGE_LOOP ( 'NONE', ( #406, #373, #252, #257 ) ) ;
#137 = EDGE_LOOP ( 'NONE', ( #244, #404, #479, #356 ) ) ;
#138 = AXIS2_PLACEMENT_3D ( 'NONE', #98, #243, #208 ) ;
#139 = ADVANCED_FACE ( 'NONE', ( #43, #204 ), #14, .F. ) ;
#140 = AXIS2_PLACEMENT_3D ( 'NONE', #184, #126, #303 ) ;
#141 = DIRECTION ( 'NONE',  ( 0.000000000000000000, 1.000000000000000000, 0.000000000000000000 ) ) ;
#142 = EDGE_LOOP ( 'NONE', ( #474, #454, #445, #218 ) ) ;
#143 = APPLICATION_PROTOCOL_DEFINITION ( 'international standard', 'config_control_design', 1994, #399 ) ;
#144 = LINE ( 'NONE', #409, #91 ) ;
#145 = ORIENTED_EDGE ( 'NONE', *, *, #376, .T. ) ;
#146 = PLANE ( 'NONE',  #203 ) ;
#147 = EDGE_CURVE ( 'NONE', #401, #23, #240, .T. ) ;
#148 = ADVANCED_FACE ( 'NONE', ( #354 ), #394, .F. ) ;
#149 = APPLICATION_PROTOCOL_DEFINITION ( 'international standard', 'config_control_design', 1994, #283 ) ;
#150 = FACE_OUTER_BOUND ( 'NONE', #363, .T. ) ;
#151 = LINE ( 'NONE', #299, #52 ) ;
#152 = APPROVAL_STATUS ( 'not_yet_approved' ) ;
#153 = DIRECTION ( 'NONE',  ( 0.000000000000000000, 0.000000000000000000, 1.000000000000000000 ) ) ;
#154 = DIRECTION ( 'NONE',  ( 0.000000000000000000, 0.000000000000000000, 1.000000000000000000 ) ) ;
#155 = PERSON_AND_ORGANIZATION ( #313, #332 ) ;
#156 = DIRECTION ( 'NONE',  ( -0.000000000000000000, -1.000000000000000000, -0.000000000000000000 ) ) ;
#157 = EDGE_CURVE ( 'NONE', #173, #466, #179, .T. ) ;
#158 = CARTESIAN_POINT ( 'NONE',  ( 3.980102097228898626E-15, 0.000000000000000000, -32.50000000000000000 ) ) ;
#159 = CARTESIAN_POINT ( 'NONE',  ( 0.000000000000000000, 0.000000000000000000, 0.000000000000000000 ) ) ;
#160 = AXIS2_PLACEMENT_3D ( 'NONE', #258, #45, #228 ) ;
#161 = UNCERTAINTY_MEASURE_WITH_UNIT (LENGTH_MEASURE( 1.000000000000000082E-05 ), #39, 'distance_accuracy_value', 'NONE');
#162 = COORDINATED_UNIVERSAL_TIME_OFFSET ( 8, 0, .BEHIND. ) ;
#163 = DIRECTION ( 'NONE',  ( 0.000000000000000000, 0.8660544815149864295, 0.4999496325109239470 ) ) ;
#164 = CARTESIAN_POINT ( 'NONE',  ( 4.086163182096353224E-15, -0.4999496325109239470, -33.36605448151498621 ) ) ;
#165 = PERSON_AND_ORGANIZATION ( #313, #332 ) ;
#166 = FACE_BOUND ( 'NONE', #212, .T. ) ;
#167 = ORIENTED_EDGE ( 'NONE', *, *, #286, .F. ) ;
#168 = DIRECTION ( 'NONE',  ( 0.000000000000000000, 0.000000000000000000, 1.000000000000000000 ) ) ;
#169 = APPROVAL_PERSON_ORGANIZATION ( #337, #110, #116 ) ;
#170 = VERTEX_POINT ( 'NONE', #47 ) ;
#171 = CIRCLE ( 'NONE', #444, 224.7319344966462609 ) ;
#172 = PLANE ( 'NONE',  #138 ) ;
#173 = VERTEX_POINT ( 'NONE', #347 ) ;
#174 = ADVANCED_FACE ( 'NONE', ( #119, #269 ), #343, .T. ) ;
#175 = DIRECTION ( 'NONE',  ( 0.000000000000000000, 1.000000000000000000, 0.000000000000000000 ) ) ;
#176 = CONICAL_SURFACE ( 'NONE', #305, 32.50000000000000000, 0.5235406172079275500 ) ;
#177 = ORIENTED_EDGE ( 'NONE', *, *, #199, .F. ) ;
#178 = ORIENTED_EDGE ( 'NONE', *, *, #127, .T. ) ;
#179 = CIRCLE ( 'NONE', #35, 224.1546617693735470 ) ;
#180 = DIRECTION ( 'NONE',  ( 6.122617171893985415E-17, 0.8660544815149864295, -0.4999496325109239470 ) ) ;
#181 = ORIENTED_EDGE ( 'NONE', *, *, #429, .F. ) ;
#182 = LOCAL_TIME ( 0, 41, 16.00000000000000000, #82 ) ;
#183 = ORIENTED_EDGE ( 'NONE', *, *, #408, .T. ) ;
#184 = CARTESIAN_POINT ( 'NONE',  ( 0.000000000000000000, -0.9998992650218478939, 0.000000000000000000 ) ) ;
#185 = CC_DESIGN_PERSON_AND_ORGANIZATION_ASSIGNMENT ( #194, #353, ( #382 ) ) ;
#186 = VERTEX_POINT ( 'NONE', #55 ) ;
#187 = DATE_AND_TIME ( #200, #317 ) ;
#188 = CARTESIAN_POINT ( 'NONE',  ( 0.000000000000000000, 330.0000000000000000, 0.000000000000000000 ) ) ;
#189 = CC_DESIGN_SECURITY_CLASSIFICATION ( #443, ( #382 ) ) ;
#190 = COORDINATED_UNIVERSAL_TIME_OFFSET ( 8, 0, .BEHIND. ) ;
#191 = FACE_OUTER_BOUND ( 'NONE', #104, .T. ) ;
#192 = AXIS2_PLACEMENT_3D ( 'NONE', #78, #342, #153 ) ;
#193 = CARTESIAN_POINT ( 'NONE',  ( 0.000000000000000000, 0.000000000000000000, 32.50000000000000000 ) ) ;
#194 = PERSON_AND_ORGANIZATION ( #313, #332 ) ;
#195 = DIRECTION ( 'NONE',  ( 0.000000000000000000, 1.000000000000000000, 0.000000000000000000 ) ) ;
#196 = CIRCLE ( 'NONE', #105, 34.80932353874712959 ) ;
#197 = DIRECTION ( 'NONE',  ( 0.000000000000000000, 0.000000000000000000, 1.000000000000000000 ) ) ;
#198 = DIRECTION ( 'NONE',  ( 0.000000000000000000, 0.000000000000000000, 1.000000000000000000 ) ) ;
#199 = EDGE_CURVE ( 'NONE', #471, #367, #196, .T. ) ;
#200 = CALENDAR_DATE ( 2026, 13, 1 ) ;
#201 = LINE ( 'NONE', #16, #335 ) ;
#202 = LINE ( 'NONE', #193, #251 ) ;
#203 = AXIS2_PLACEMENT_3D ( 'NONE', #12, #83, #413 ) ;
#204 = FACE_BOUND ( 'NONE', #276, .T. ) ;
#205 = AXIS2_PLACEMENT_3D ( 'NONE', #90, #117, #427 ) ;
#206 = ORIENTED_EDGE ( 'NONE', *, *, #366, .F. ) ;
#207 = EDGE_CURVE ( 'NONE', #23, #72, #202, .T. ) ;
#208 = DIRECTION ( 'NONE',  ( 0.000000000000000000, -0.000000000000000000, 1.000000000000000000 ) ) ;
#209 = CONICAL_SURFACE ( 'NONE', #62, 32.50000000000000000, 0.5235406172079275500 ) ;
#210 = ORIENTED_EDGE ( 'NONE', *, *, #279, .F. ) ;
#211 = DIRECTION ( 'NONE',  ( 0.000000000000000000, 0.000000000000000000, 1.000000000000000000 ) ) ;
#212 = EDGE_LOOP ( 'NONE', ( #145, #99 ) ) ;
#213 = CARTESIAN_POINT ( 'NONE',  ( 0.000000000000000000, 330.0000000000000000, 0.000000000000000000 ) ) ;
#214 = AXIS2_PLACEMENT_3D ( 'NONE', #107, #226, #336 ) ;
#215 = ORIENTED_EDGE ( 'NONE', *, *, #219, .F. ) ;
#216 = DIRECTION ( 'NONE',  ( 0.000000000000000000, 0.000000000000000000, -1.000000000000000000 ) ) ;
#217 = ORIENTED_EDGE ( 'NONE', *, *, #350, .T. ) ;
#218 = ORIENTED_EDGE ( 'NONE', *, *, #225, .F. ) ;
#219 = EDGE_CURVE ( 'NONE', #131, #186, #151, .T. ) ;
#220 = CC_DESIGN_DATE_AND_TIME_ASSIGNMENT ( #387, #379, ( #431 ) ) ;
#221 = CARTESIAN_POINT ( 'NONE',  ( 0.000000000000000000, 331.0000000000000000, 0.000000000000000000 ) ) ;
#222 = ORIENTED_EDGE ( 'NONE', *, *, #97, .T. ) ;
#223 = DIRECTION ( 'NONE',  ( 0.000000000000000000, 1.000000000000000000, 0.000000000000000000 ) ) ;
#224 = VERTEX_POINT ( 'NONE', #234 ) ;
#225 = EDGE_CURVE ( 'NONE', #170, #486, #129, .T. ) ;
#226 = DIRECTION ( 'NONE',  ( 0.000000000000000000, 0.000000000000000000, 1.000000000000000000 ) ) ;
#227 = AXIS2_PLACEMENT_3D ( 'NONE', #89, #333, #71 ) ;
#228 = DIRECTION ( 'NONE',  ( 0.000000000000000000, 0.000000000000000000, 1.000000000000000000 ) ) ;
#229 = CALENDAR_DATE ( 2026, 13, 1 ) ;
#230 = LINE ( 'NONE', #451, #476 ) ;
#231 = DIRECTION ( 'NONE',  ( 0.000000000000000000, -0.000000000000000000, 1.000000000000000000 ) ) ;
#232 = EDGE_CURVE ( 'NONE', #466, #420, #421, .T. ) ;
#233 = APPROVAL_PERSON_ORGANIZATION ( #155, #438, #465 ) ;
#234 = CARTESIAN_POINT ( 'NONE',  ( 2.798317936051701291E-14, 331.0000000000000000, 228.5000000000000000 ) ) ;
#235 = DIRECTION ( 'NONE',  ( 0.000000000000000000, 1.000000000000000000, 0.000000000000000000 ) ) ;
#236 = CARTESIAN_POINT ( 'NONE',  ( 2.798317936051701291E-14, 343.0000000000000000, 228.5000000000000000 ) ) ;
#237 = AXIS2_PLACEMENT_3D ( 'NONE', #100, #61, #22 ) ;
#238 = EDGE_CURVE ( 'NONE', #351, #442, #473, .T. ) ;
#239 = CARTESIAN_POINT ( 'NONE',  ( 0.000000000000000000, 343.0000000000000000, -229.5000000000000000 ) ) ;
#240 = CIRCLE ( 'NONE', #327, 32.50000000000000000 ) ;
#241 = DIRECTION ( 'NONE',  ( -0.000000000000000000, -1.000000000000000000, -0.000000000000000000 ) ) ;
#242 = EDGE_CURVE ( 'NONE', #420, #118, #171, .T. ) ;
#243 = DIRECTION ( 'NONE',  ( 0.000000000000000000, 1.000000000000000000, 0.000000000000000000 ) ) ;
#244 = ORIENTED_EDGE ( 'NONE', *, *, #378, .F. ) ;
#245 = DIRECTION ( 'NONE',  ( 0.000000000000000000, 1.000000000000000000, 0.000000000000000000 ) ) ;
#246 = VERTEX_POINT ( 'NONE', #236 ) ;
#247 = EDGE_LOOP ( 'NONE', ( #307, #398, #181, #215 ) ) ;
#248 = EDGE_LOOP ( 'NONE', ( #106, #222 ) ) ;
#249 =( GEOMETRIC_REPRESENTATION_CONTEXT ( 3 ) GLOBAL_UNCERTAINTY_ASSIGNED_CONTEXT ( ( #161 ) ) GLOBAL_UNIT_ASSIGNED_CONTEXT ( ( #39, #42, #306 ) ) REPRESENTATION_CONTEXT ( 'NONE', 'WORKASPACE' ) );
#250 = PLANE ( 'NONE',  #375 ) ;
#251 = VECTOR ( 'NONE', #352, 1000.000000000000227 ) ;
#252 = ORIENTED_EDGE ( 'NONE', *, *, #376, .F. ) ;
#253 = ADVANCED_FACE ( 'NONE', ( #364 ), #362, .F. ) ;
#254 = CIRCLE ( 'NONE', #436, 228.5000000000000000 ) ;
#255 = CARTESIAN_POINT ( 'NONE',  ( 0.000000000000000000, 0.000000000000000000, 34.80932353874712959 ) ) ;
#256 = FACE_OUTER_BOUND ( 'NONE', #248, .T. ) ;
#257 = ORIENTED_EDGE ( 'NONE', *, *, #92, .F. ) ;
#258 = CARTESIAN_POINT ( 'NONE',  ( 0.000000000000000000, 331.0000000000000000, 0.000000000000000000 ) ) ;
#259 = VECTOR ( 'NONE', #419, 1000.000000000000000 ) ;
#260 = PERSON_AND_ORGANIZATION ( #313, #332 ) ;
#261 = CARTESIAN_POINT ( 'NONE',  ( 0.000000000000000000, 330.0000000000000000, 225.3093235387471225 ) ) ;
#262 = CARTESIAN_POINT ( 'NONE',  ( 0.000000000000000000, 343.0000000000000000, -228.5000000000000000 ) ) ;
#263 = CIRCLE ( 'NONE', #329, 229.5000000000000000 ) ;
#264 = ORIENTED_EDGE ( 'NONE', *, *, #350, .F. ) ;
#265 = SECURITY_CLASSIFICATION_LEVEL ( 'unclassified' ) ;
#266 = DIRECTION ( 'NONE',  ( 0.000000000000000000, 0.000000000000000000, 1.000000000000000000 ) ) ;
#267 = CC_DESIGN_APPROVAL ( #438, ( #443 ) ) ;
#268 = FACE_OUTER_BOUND ( 'NONE', #75, .T. ) ;
#269 = FACE_BOUND ( 'NONE', #290, .T. ) ;
#270 = CIRCLE ( 'NONE', #125, 223.0000000000000000 ) ;
#271 = LINE ( 'NONE', #158, #425 ) ;
#272 = DIRECTION ( 'NONE',  ( 0.000000000000000000, 0.000000000000000000, 1.000000000000000000 ) ) ;
#273 = ADVANCED_FACE ( 'NONE', ( #318 ), #209, .F. ) ;
#274 = COORDINATED_UNIVERSAL_TIME_OFFSET ( 8, 0, .BEHIND. ) ;
#275 = ORIENTED_EDGE ( 'NONE', *, *, #408, .F. ) ;
#276 = EDGE_LOOP ( 'NONE', ( #316, #301 ) ) ;
#277 = DIRECTION ( 'NONE',  ( 0.000000000000000000, 1.000000000000000000, 0.000000000000000000 ) ) ;
#278 = DIRECTION ( 'NONE',  ( 0.000000000000000000, 0.000000000000000000, 1.000000000000000000 ) ) ;
#279 = EDGE_CURVE ( 'NONE', #442, #351, #263, .T. ) ;
#280 = VERTEX_POINT ( 'NONE', #24 ) ;
#281 = AXIS2_PLACEMENT_3D ( 'NONE', #95, #132, #359 ) ;
#282 = CARTESIAN_POINT ( 'NONE',  ( 0.000000000000000000, 330.0000000000000000, 0.000000000000000000 ) ) ;
#283 = APPLICATION_CONTEXT ( 'configuration controlled 3d designs of mechanical parts and assemblies' ) ;
#284 = EDGE_LOOP ( 'NONE', ( #177, #407 ) ) ;
#285 = EDGE_LOOP ( 'NONE', ( #26, #167, #432, #294 ) ) ;
#286 = EDGE_CURVE ( 'NONE', #23, #401, #80, .T. ) ;
#287 = CIRCLE ( 'NONE', #355, 228.5000000000000000 ) ;
#288 = EDGE_CURVE ( 'NONE', #131, #246, #416, .T. ) ;
#289 = AXIS2_PLACEMENT_3D ( 'NONE', #29, #397, #63 ) ;
#290 = EDGE_LOOP ( 'NONE', ( #319, #264 ) ) ;
#291 = CONICAL_SURFACE ( 'NONE', #192, 33.36605448151498621, 0.5235406172079275500 ) ;
#292 = ORIENTED_EDGE ( 'NONE', *, *, #366, .T. ) ;
#293 = DIRECTION ( 'NONE',  ( 0.000000000000000000, 0.8660544815149864295, 0.4999496325109239470 ) ) ;
#294 = ORIENTED_EDGE ( 'NONE', *, *, #70, .T. ) ;
#295 = VECTOR ( 'NONE', #65, 1000.000000000000000 ) ;
#296 = DIRECTION ( 'NONE',  ( 0.000000000000000000, 0.000000000000000000, 1.000000000000000000 ) ) ;
#297 = PERSON_AND_ORGANIZATION ( #313, #332 ) ;
#298 = CARTESIAN_POINT ( 'NONE',  ( 0.000000000000000000, 343.0000000000000000, 0.000000000000000000 ) ) ;
#299 = CARTESIAN_POINT ( 'NONE',  ( 0.000000000000000000, 343.0000000000000000, -228.5000000000000000 ) ) ;
#300 = AXIS2_PLACEMENT_3D ( 'NONE', #460, #51, #231 ) ;
#301 = ORIENTED_EDGE ( 'NONE', *, *, #147, .T. ) ;
#302 = PERSON_AND_ORGANIZATION ( #313, #332 ) ;
#303 = DIRECTION ( 'NONE',  ( 0.000000000000000000, 0.000000000000000000, 1.000000000000000000 ) ) ;
#304 = DIRECTION ( 'NONE',  ( 0.000000000000000000, 0.000000000000000000, 1.000000000000000000 ) ) ;
#305 = AXIS2_PLACEMENT_3D ( 'NONE', #380, #109, #345 ) ;
#306 =( NAMED_UNIT ( * ) SI_UNIT ( $, .STERADIAN. ) SOLID_ANGLE_UNIT ( ) );
#307 = ORIENTED_EDGE ( 'NONE', *, *, #288, .T. ) ;
#308 = CARTESIAN_POINT ( 'NONE',  ( 0.000000000000000000, 343.0000000000000000, -229.5000000000000000 ) ) ;
#309 = DIRECTION ( 'NONE',  ( 0.000000000000000000, 1.000000000000000000, 0.000000000000000000 ) ) ;
#310 = CARTESIAN_POINT ( 'NONE',  ( 0.000000000000000000, 331.0000000000000000, 224.7319344966462893 ) ) ;
#311 = ADVANCED_FACE ( 'NONE', ( #166, #67 ), #172, .F. ) ;
#312 = PERSON_AND_ORGANIZATION ( #313, #332 ) ;
#313 = PERSON ( 'UNSPECIFIED', 'UNSPECIFIED', 'UNSPECIFIED', ('UNSPECIFIED'), ('UNSPECIFIED'), ('UNSPECIFIED') ) ;
#314 = DESIGN_CONTEXT ( 'detailed design', #283, 'design' ) ;
#315 = CARTESIAN_POINT ( 'NONE',  ( 1.592767342709966660E-14, 0.000000000000000000, -34.80932353874712959 ) ) ;
#316 = ORIENTED_EDGE ( 'NONE', *, *, #286, .T. ) ;
#317 = LOCAL_TIME ( 0, 41, 16.00000000000000000, #190 ) ;
#318 = FACE_OUTER_BOUND ( 'NONE', #285, .T. ) ;
#319 = ORIENTED_EDGE ( 'NONE', *, *, #70, .F. ) ;
#320 = VECTOR ( 'NONE', #93, 1000.000000000000227 ) ;
#321 = DIRECTION ( 'NONE',  ( 0.000000000000000000, 0.000000000000000000, 1.000000000000000000 ) ) ;
#322 = ORIENTED_EDGE ( 'NONE', *, *, #482, .T. ) ;
#323 = AXIS2_PLACEMENT_3D ( 'NONE', #213, #415, #41 ) ;
#324 = CARTESIAN_POINT ( 'NONE',  ( 0.000000000000000000, 343.0000000000000000, 0.000000000000000000 ) ) ;
#325 = ORIENTED_EDGE ( 'NONE', *, *, #232, .T. ) ;
#326 = EDGE_CURVE ( 'NONE', #367, #471, #357, .T. ) ;
#327 = AXIS2_PLACEMENT_3D ( 'NONE', #159, #9, #266 ) ;
#328 = ORIENTED_EDGE ( 'NONE', *, *, #396, .T. ) ;
#329 = AXIS2_PLACEMENT_3D ( 'NONE', #402, #27, #278 ) ;
#330 = FACE_BOUND ( 'NONE', #331, .T. ) ;
#331 = EDGE_LOOP ( 'NONE', ( #66, #134 ) ) ;
#332 = ORGANIZATION ( 'UNSPECIFIED', 'UNSPECIFIED', '' ) ;
#333 = DIRECTION ( 'NONE',  ( -0.000000000000000000, -1.000000000000000000, -0.000000000000000000 ) ) ;
#334 = VERTEX_POINT ( 'NONE', #358 ) ;
#335 = VECTOR ( 'NONE', #163, 1000.000000000000227 ) ;
#336 = DIRECTION ( 'NONE',  ( 1.000000000000000000, 0.000000000000000000, 0.000000000000000000 ) ) ;
#337 = PERSON_AND_ORGANIZATION ( #313, #332 ) ;
#338 = CYLINDRICAL_SURFACE ( 'NONE', #370, 229.5000000000000000 ) ;
#339 = CARTESIAN_POINT ( 'NONE',  ( 0.000000000000000000, 0.000000000000000000, 0.000000000000000000 ) ) ;
#340 = CC_DESIGN_PERSON_AND_ORGANIZATION_ASSIGNMENT ( #165, #53, ( #434 ) ) ;
#341 = CALENDAR_DATE ( 2026, 13, 1 ) ;
#342 = DIRECTION ( 'NONE',  ( 0.000000000000000000, 1.000000000000000000, 0.000000000000000000 ) ) ;
#343 = PLANE ( 'NONE',  #60 ) ;
#344 = PERSON_AND_ORGANIZATION_ROLE ( 'design_supplier' ) ;
#345 = DIRECTION ( 'NONE',  ( 0.000000000000000000, 0.000000000000000000, 1.000000000000000000 ) ) ;
#346 = CARTESIAN_POINT ( 'NONE',  ( 0.000000000000000000, -0.9998992650218478939, 0.000000000000000000 ) ) ;
#347 = CARTESIAN_POINT ( 'NONE',  ( 0.000000000000000000, 330.0000000000000000, 224.1546617693735470 ) ) ;
#348 = CIRCLE ( 'NONE', #323, 224.1546617693735470 ) ;
#349 = PERSON_AND_ORGANIZATION_ROLE ( 'classification_officer' ) ;
#350 = EDGE_CURVE ( 'NONE', #280, #72, #15, .T. ) ;
#351 = VERTEX_POINT ( 'NONE', #239 ) ;
#352 = DIRECTION ( 'NONE',  ( 0.000000000000000000, 0.8660544815149864295, 0.4999496325109239470 ) ) ;
#353 = PERSON_AND_ORGANIZATION_ROLE ( 'creator' ) ;
#354 = FACE_OUTER_BOUND ( 'NONE', #6, .T. ) ;
#355 = AXIS2_PLACEMENT_3D ( 'NONE', #221, #141, #36 ) ;
#356 = ORIENTED_EDGE ( 'NONE', *, *, #97, .F. ) ;
#357 = CIRCLE ( 'NONE', #133, 34.80932353874712959 ) ;
#358 = CARTESIAN_POINT ( 'NONE',  ( 2.810564404043174806E-14, 330.0000000000000000, 229.5000000000000000 ) ) ;
#359 = DIRECTION ( 'NONE',  ( 0.000000000000000000, 0.000000000000000000, 1.000000000000000000 ) ) ;
#360 = ORIENTED_EDGE ( 'NONE', *, *, #10, .F. ) ;
#361 = LOCAL_TIME ( 0, 41, 16.00000000000000000, #162 ) ;
#362 = CYLINDRICAL_SURFACE ( 'NONE', #484, 228.5000000000000000 ) ;
#363 = EDGE_LOOP ( 'NONE', ( #31, #437, #178, #292 ) ) ;
#364 = FACE_OUTER_BOUND ( 'NONE', #247, .T. ) ;
#365 = ORIENTED_EDGE ( 'NONE', *, *, #127, .F. ) ;
#366 = EDGE_CURVE ( 'NONE', #28, #334, #56, .T. ) ;
#367 = VERTEX_POINT ( 'NONE', #315 ) ;
#368 = ADVANCED_FACE ( 'NONE', ( #395 ), #439, .F. ) ;
#369 = ORIENTED_EDGE ( 'NONE', *, *, #157, .T. ) ;
#370 = AXIS2_PLACEMENT_3D ( 'NONE', #298, #383, #377 ) ;
#371 = DIRECTION ( 'NONE',  ( 0.000000000000000000, 0.000000000000000000, 1.000000000000000000 ) ) ;
#372 = CARTESIAN_POINT ( 'NONE',  ( 0.000000000000000000, 331.0000000000000000, 0.000000000000000000 ) ) ;
#373 = ORIENTED_EDGE ( 'NONE', *, *, #102, .T. ) ;
#374 = FACE_OUTER_BOUND ( 'NONE', #142, .T. ) ;
#375 = AXIS2_PLACEMENT_3D ( 'NONE', #372, #74, #489 ) ;
#376 = EDGE_CURVE ( 'NONE', #486, #170, #73, .T. ) ;
#377 = DIRECTION ( 'NONE',  ( 0.000000000000000000, 0.000000000000000000, -1.000000000000000000 ) ) ;
#378 = EDGE_CURVE ( 'NONE', #246, #224, #400, .T. ) ;
#379 = DATE_TIME_ROLE ( 'creation_date' ) ;
#380 = CARTESIAN_POINT ( 'NONE',  ( 0.000000000000000000, 0.000000000000000000, 0.000000000000000000 ) ) ;
#381 = CARTESIAN_POINT ( 'NONE',  ( 0.000000000000000000, 330.0000000000000000, 0.000000000000000000 ) ) ;
#382 = PRODUCT_DEFINITION_FORMATION_WITH_SPECIFIED_SOURCE ( 'ANY', '', #434, .NOT_KNOWN. ) ;
#383 = DIRECTION ( 'NONE',  ( -0.000000000000000000, -1.000000000000000000, -0.000000000000000000 ) ) ;
#384 = CARTESIAN_POINT ( 'NONE',  ( 0.000000000000000000, 330.0000000000000000, 0.000000000000000000 ) ) ;
#385 = CARTESIAN_POINT ( 'NONE',  ( 0.000000000000000000, 343.0000000000000000, 0.000000000000000000 ) ) ;
#386 = AXIS2_PLACEMENT_3D ( 'NONE', #385, #464, #154 ) ;
#387 = DATE_AND_TIME ( #229, #182 ) ;
#388 = FACE_OUTER_BOUND ( 'NONE', #136, .T. ) ;
#389 = DIRECTION ( 'NONE',  ( 0.000000000000000000, -0.000000000000000000, 1.000000000000000000 ) ) ;
#390 = PRODUCT_DEFINITION_SHAPE ( 'NONE', 'NONE',  #431 ) ;
#391 = DIRECTION ( 'NONE',  ( 6.122617171893985415E-17, 0.8660544815149864295, -0.4999496325109239470 ) ) ;
#392 = DIRECTION ( 'NONE',  ( 0.000000000000000000, 1.000000000000000000, 0.000000000000000000 ) ) ;
#393 = ORIENTED_EDGE ( 'NONE', *, *, #238, .T. ) ;
#394 = CONICAL_SURFACE ( 'NONE', #205, 33.36605448151498621, 0.5235406172079275500 ) ;
#395 = FACE_OUTER_BOUND ( 'NONE', #137, .T. ) ;
#396 = EDGE_CURVE ( 'NONE', #466, #173, #348, .T. ) ;
#397 = DIRECTION ( 'NONE',  ( 0.000000000000000000, 1.000000000000000000, 0.000000000000000000 ) ) ;
#398 = ORIENTED_EDGE ( 'NONE', *, *, #378, .T. ) ;
#399 = APPLICATION_CONTEXT ( 'configuration controlled 3d designs of mechanical parts and assemblies' ) ;
#400 = LINE ( 'NONE', #130, #295 ) ;
#401 = VERTEX_POINT ( 'NONE', #76 ) ;
#402 = CARTESIAN_POINT ( 'NONE',  ( 0.000000000000000000, 343.0000000000000000, 0.000000000000000000 ) ) ;
#403 = CC_DESIGN_PERSON_AND_ORGANIZATION_ASSIGNMENT ( #302, #344, ( #382 ) ) ;
#404 = ORIENTED_EDGE ( 'NONE', *, *, #135, .T. ) ;
#405 = CONICAL_SURFACE ( 'NONE', #103, 34.23210896302997241, 0.5235406172079275500 ) ;
#406 = ORIENTED_EDGE ( 'NONE', *, *, #199, .T. ) ;
#407 = ORIENTED_EDGE ( 'NONE', *, *, #326, .F. ) ;
#408 = EDGE_CURVE ( 'NONE', #334, #28, #108, .T. ) ;
#409 = CARTESIAN_POINT ( 'NONE',  ( 4.192224266963807823E-15, -0.9998992650218478939, -34.23210896302997241 ) ) ;
#410 = AXIS2_PLACEMENT_3D ( 'NONE', #17, #87, #113 ) ;
#411 = ORIENTED_EDGE ( 'NONE', *, *, #157, .F. ) ;
#412 = AXIS2_PLACEMENT_3D ( 'NONE', #112, #195, #296 ) ;
#413 = DIRECTION ( 'NONE',  ( 0.000000000000000000, -0.000000000000000000, 1.000000000000000000 ) ) ;
#414 = CC_DESIGN_DATE_AND_TIME_ASSIGNMENT ( #7, #86, ( #443 ) ) ;
#415 = DIRECTION ( 'NONE',  ( 0.000000000000000000, 1.000000000000000000, 0.000000000000000000 ) ) ;
#416 = CIRCLE ( 'NONE', #115, 228.5000000000000000 ) ;
#417 = PERSON_AND_ORGANIZATION_ROLE ( 'creator' ) ;
#418 = FACE_OUTER_BOUND ( 'NONE', #21, .T. ) ;
#419 = DIRECTION ( 'NONE',  ( -0.000000000000000000, -1.000000000000000000, -0.000000000000000000 ) ) ;
#420 = VERTEX_POINT ( 'NONE', #49 ) ;
#421 = LINE ( 'NONE', #164, #320 ) ;
#422 = APPROVAL_ROLE ( '' ) ;
#423 = CYLINDRICAL_SURFACE ( 'NONE', #227, 229.5000000000000000 ) ;
#424 = DIRECTION ( 'NONE',  ( 0.000000000000000000, 1.000000000000000000, 0.000000000000000000 ) ) ;
#425 = VECTOR ( 'NONE', #391, 1000.000000000000227 ) ;
#426 = ORIENTED_EDGE ( 'NONE', *, *, #396, .F. ) ;
#427 = DIRECTION ( 'NONE',  ( 0.000000000000000000, 0.000000000000000000, 1.000000000000000000 ) ) ;
#428 = APPROVAL_DATE_TIME ( #44, #110 ) ;
#429 = EDGE_CURVE ( 'NONE', #186, #224, #254, .T. ) ;
#430 = CARTESIAN_POINT ( 'NONE',  ( 2.748637666486657183E-14, 330.0000000000000000, -224.1546617693735470 ) ) ;
#431 = PRODUCT_DEFINITION ( 'UNKNOWN', '', #382, #314 ) ;
#432 = ORIENTED_EDGE ( 'NONE', *, *, #207, .T. ) ;
#433 = CARTESIAN_POINT ( 'NONE',  ( 0.000000000000000000, 0.000000000000000000, 0.000000000000000000 ) ) ;
#434 = PRODUCT ( 'hopper2', 'hopper2', '', ( #2 ) ) ;
#435 = CARTESIAN_POINT ( 'NONE',  ( 0.000000000000000000, 0.000000000000000000, 0.000000000000000000 ) ) ;
#436 = AXIS2_PLACEMENT_3D ( 'NONE', #469, #223, #371 ) ;
#437 = ORIENTED_EDGE ( 'NONE', *, *, #238, .F. ) ;
#438 = APPROVAL ( #152, 'UNSPECIFIED' ) ;
#439 = CYLINDRICAL_SURFACE ( 'NONE', #237, 228.5000000000000000 ) ;
#440 = ORIENTED_EDGE ( 'NONE', *, *, #46, .T. ) ;
#441 = EDGE_LOOP ( 'NONE', ( #206, #275 ) ) ;
#442 = VERTEX_POINT ( 'NONE', #8 ) ;
#443 = SECURITY_CLASSIFICATION ( '', '', #265 ) ;
#444 = AXIS2_PLACEMENT_3D ( 'NONE', #456, #124, #272 ) ;
#445 = ORIENTED_EDGE ( 'NONE', *, *, #92, .T. ) ;
#446 = ORIENTED_EDGE ( 'NONE', *, *, #468, .T. ) ;
#447 = CIRCLE ( 'NONE', #160, 224.7319344966462609 ) ;
#448 = ADVANCED_FACE ( 'NONE', ( #4 ), #176, .F. ) ;
#449 = FACE_BOUND ( 'NONE', #54, .T. ) ;
#450 = APPROVAL_STATUS ( 'not_yet_approved' ) ;
#451 = CARTESIAN_POINT ( 'NONE',  ( 2.810564404043174806E-14, 343.0000000000000000, 229.5000000000000000 ) ) ;
#452 = AXIS2_PLACEMENT_3D ( 'NONE', #59, #392, #304 ) ;
#453 = DIRECTION ( 'NONE',  ( -0.000000000000000000, -1.000000000000000000, -0.000000000000000000 ) ) ;
#454 = ORIENTED_EDGE ( 'NONE', *, *, #326, .T. ) ;
#455 = SHAPE_DEFINITION_REPRESENTATION ( #390, #32 ) ;
#456 = CARTESIAN_POINT ( 'NONE',  ( 0.000000000000000000, 331.0000000000000000, 0.000000000000000000 ) ) ;
#457 = ADVANCED_FACE ( 'NONE', ( #449, #418 ), #146, .T. ) ;
#458 = APPROVAL_DATE_TIME ( #3, #438 ) ;
#459 = CARTESIAN_POINT ( 'NONE',  ( -2.730962362098597906E-14, 330.0000000000000000, 223.0000000000000000 ) ) ;
#460 = CARTESIAN_POINT ( 'NONE',  ( 0.000000000000000000, 0.000000000000000000, 0.000000000000000000 ) ) ;
#461 = CC_DESIGN_APPROVAL ( #110, ( #382 ) ) ;
#462 = COORDINATED_UNIVERSAL_TIME_OFFSET ( 8, 0, .BEHIND. ) ;
#463 = DIRECTION ( 'NONE',  ( 0.000000000000000000, 0.000000000000000000, 1.000000000000000000 ) ) ;
#464 = DIRECTION ( 'NONE',  ( 0.000000000000000000, 1.000000000000000000, 0.000000000000000000 ) ) ;
#465 = APPROVAL_ROLE ( '' ) ;
#466 = VERTEX_POINT ( 'NONE', #430 ) ;
#467 = ADVANCED_FACE ( 'NONE', ( #150 ), #338, .T. ) ;
#468 = EDGE_CURVE ( 'NONE', #118, #420, #447, .T. ) ;
#469 = CARTESIAN_POINT ( 'NONE',  ( 0.000000000000000000, 331.0000000000000000, 0.000000000000000000 ) ) ;
#470 = CARTESIAN_POINT ( 'NONE',  ( 0.000000000000000000, 330.0000000000000000, 0.000000000000000000 ) ) ;
#471 = VERTEX_POINT ( 'NONE', #255 ) ;
#472 = DIRECTION ( 'NONE',  ( 0.000000000000000000, 0.000000000000000000, 1.000000000000000000 ) ) ;
#473 = CIRCLE ( 'NONE', #386, 229.5000000000000000 ) ;
#474 = ORIENTED_EDGE ( 'NONE', *, *, #102, .F. ) ;
#475 = CARTESIAN_POINT ( 'NONE',  ( 0.000000000000000000, 343.0000000000000000, 0.000000000000000000 ) ) ;
#476 = VECTOR ( 'NONE', #156, 1000.000000000000000 ) ;
#477 = EDGE_LOOP ( 'NONE', ( #37, #440, #217, #69 ) ) ;
#478 = DIRECTION ( 'NONE',  ( 0.000000000000000000, 0.000000000000000000, 1.000000000000000000 ) ) ;
#479 = ORIENTED_EDGE ( 'NONE', *, *, #219, .T. ) ;
#480 = CIRCLE ( 'NONE', #452, 228.5000000000000000 ) ;
#481 = ORIENTED_EDGE ( 'NONE', *, *, #10, .T. ) ;
#482 = EDGE_CURVE ( 'NONE', #442, #334, #230, .T. ) ;
#483 = ADVANCED_FACE ( 'NONE', ( #191 ), #291, .F. ) ;
#484 = AXIS2_PLACEMENT_3D ( 'NONE', #475, #241, #216 ) ;
#485 = CARTESIAN_POINT ( 'NONE',  ( 0.000000000000000000, -0.9998992650218478939, 34.23210896302997241 ) ) ;
#486 = VERTEX_POINT ( 'NONE', #261 ) ;
#487 = CC_DESIGN_APPROVAL ( #58, ( #431 ) ) ;
#488 = ADVANCED_FACE ( 'NONE', ( #374 ), #88, .T. ) ;
#489 = DIRECTION ( 'NONE',  ( 0.000000000000000000, -0.000000000000000000, 1.000000000000000000 ) ) ;
ENDSEC;
END-ISO-10303-21;
