  0
SECTION
  2
HEADER
  9
$ACADVER
  1
AC1009
  9
$INSBASE
 10
0.0
 20
0.0
 30
0.0
  9
$EXTMIN
 10
-334.56204667566158
 20
-170.6197025093457
 30
0.0
  9
$EXTMAX
 10
335.07630000000012
 20
213.4458000000084
 30
0.0
  9
$LIMMIN
 10
0.0
 20
0.0
  9
$LIMMAX
 10
12.0
 20
9.0
  9
$ORTHOMODE
 70
     0
  9
$REGENMODE
 70
     1
  9
$FILLMODE
 70
     1
  9
$QTEXTMODE
 70
     0
  9
$MIRRTEXT
 70
     1
  9
$DRAGMODE
 70
     2
  9
$LTSCALE
 40
1.0
  9
$OSMODE
 70
   175
  9
$ATTMODE
 70
     1
  9
$TEXTSIZE
 40
0.2
  9
$TRACEWID
 40
0.05
  9
$TEXTSTYLE
  7
STANDARD
  9
$CLAYER
  8
0
  9
$CELTYPE
  6
BYLAYER
  9
$CECOLOR
 62
   256
  9
$DIMSCALE
 40
1.0
  9
$DIMASZ
 40
0.18
  9
$DIMEXO
 40
0.0625
  9
$DIMDLI
 40
0.38
  9
$DIMRND
 40
0.0
  9
$DIMDLE
 40
0.0
  9
$DIMEXE
 40
0.18
  9
$DIMTP
 40
0.0
  9
$DIMTM
 40
0.0
  9
$DIMTXT
 40
0.18
  9
$DIMCEN
 40
0.09
  9
$DIMTSZ
 40
0.0
  9
$DIMTOL
 70
     0
  9
$DIMLIM
 70
     0
  9
$DIMTIH
 70
     1
  9
$DIMTOH
 70
     1
  9
$DIMSE1
 70
     0
  9
$DIMSE2
 70
     0
  9
$DIMTAD
 70
     0
  9
$DIMZIN
 70
     0
  9
$DIMBLK
  1

  9
$DIMASO
 70
     1
  9
$DIMSHO
 70
     1
  9
$DIMPOST
  1

  9
$DIMAPOST
  1

  9
$DIMALT
 70
     0
  9
$DIMALTD
 70
     2
  9
$DIMALTF
 40
25.399999999999999
  9
$DIMLFAC
 40
1.0
  9
$DIMTOFL
 70
     0
  9
$DIMTVP
 40
0.0
  9
$DIMTIX
 70
     0
  9
$DIMSOXD
 70
     0
  9
$DIMSAH
 70
     0
  9
$DIMBLK1
  1

  9
$DIMBLK2
  1

  9
$DIMSTYLE
  2
STANDARD
  9
$DIMCLRD
 70
     0
  9
$DIMCLRE
 70
     0
  9
$DIMCLRT
 70
     0
  9
$DIMTFAC
 40
1.0
  9
$DIMGAP
 40
0.09
  9
$LUNITS
 70
     2
  9
$LUPREC
 70
     4
  9
$SKETCHINC
 40
0.1
  9
$FILLETRAD
 40
0.5
  9
$AUNITS
 70
     0
  9
$AUPREC
 70
     0
  9
$MENU
  1
.
  9
$ELEVATION
 40
0.0
  9
$PELEVATION
 40
0.0
  9
$THICKNESS
 40
0.0
  9
$LIMCHECK
 70
     0
  9
$BLIPMODE
 70
     0
  9
$CHAMFERA
 40
0.5
  9
$CHAMFERB
 40
0.5
  9
$SKPOLY
 70
     0
  9
$TDCREATE
 40
2457042.3689781022
  9
$TDUPDATE
 40
2457100.4408439929
  9
$TDINDWG
 40
0.016835787
  9
$TDUSRTIMER
 40
0.016835787
  9
$USRTIMER
 70
     1
  9
$ANGBASE
 50
0.0
  9
$ANGDIR
 70
     0
  9
$PDMODE
 70
     0
  9
$PDSIZE
 40
0.0
  9
$PLINEWID
 40
0.0
  9
$COORDS
 70
     1
  9
$SPLFRAME
 70
     0
  9
$SPLINETYPE
 70
     6
  9
$SPLINESEGS
 70
     8
  9
$ATTDIA
 70
     0
  9
$ATTREQ
 70
     1
  9
$HANDLING
 70
     1
  9
$HANDSEED
  5
B79
  9
$SURFTAB1
 70
     6
  9
$SURFTAB2
 70
     6
  9
$SURFTYPE
 70
     6
  9
$SURFU
 70
     6
  9
$SURFV
 70
     6
  9
$UCSNAME
  2

  9
$UCSORG
 10
0.0
 20
0.0
 30
0.0
  9
$UCSXDIR
 10
1.0
 20
0.0
 30
0.0
  9
$UCSYDIR
 10
0.0
 20
1.0
 30
0.0
  9
$PUCSNAME
  2

  9
$PUCSORG
 10
0.0
 20
0.0
 30
0.0
  9
$PUCSXDIR
 10
1.0
 20
0.0
 30
0.0
  9
$PUCSYDIR
 10
0.0
 20
1.0
 30
0.0
  9
$USERI1
 70
     0
  9
$USERI2
 70
     0
  9
$USERI3
 70
     0
  9
$USERI4
 70
     0
  9
$USERI5
 70
     0
  9
$USERR1
 40
18.100000000000001
  9
$USERR2
 40
0.0
  9
$USERR3
 40
0.0
  9
$USERR4
 40
0.0
  9
$USERR5
 40
0.0
  9
$WORLDVIEW
 70
     1
  9
$SHADEDGE
 70
     3
  9
$SHADEDIF
 70
    70
  9
$TILEMODE
 70
     1
  9
$MAXACTVP
 70
    64
  9
$PLIMCHECK
 70
     0
  9
$PEXTMIN
 10
1.0000000000000000E+020
 20
1.0000000000000000E+020
 30
1.0000000000000000E+020
  9
$PEXTMAX
 10
-1.0000000000000000E+020
 20
-1.0000000000000000E+020
 30
-1.0000000000000000E+020
  9
$PLIMMIN
 10
0.0
 20
0.0
  9
$PLIMMAX
 10
12.0
 20
9.0
  9
$UNITMODE
 70
     0
  9
$VISRETAIN
 70
     1
  9
$PLINEGEN
 70
     0
  9
$PSLTSCALE
 70
     1
  0
ENDSEC
  0
SECTION
  2
TABLES
  0
TABLE
  2
VPORT
 70
     1
  0
VPORT
  2
*ACTIVE
 70
     0
 10
0.0
 20
0.0
 11
1.0
 21
1.0
 12
0.2571297805109793
 22
21.413050533830361
 13
0.0
 23
0.0
 14
0.5
 24
0.5
 15
0.5
 25
0.5
 16
0.0
 26
0.0
 36
1.0
 17
0.0
 27
0.0
 37
0.0
 40
387.11084185574617
 41
2.0238693467336679
 42
50.0
 43
0.0
 44
0.0
 50
0.0
 51
0.0
 71
     0
 72
   100
 73
     1
 74
     2
 75
     0
 76
     0
 77
     0
 78
     0
  0
ENDTAB
  0
TABLE
  2
LTYPE
 70
     3
  0
LTYPE
  2
CONTINUOUS
 70
     0
  3
Solid line
 72
    65
 73
     0
 40
0.0
  0
LTYPE
  2
DASHED
 70
     0
  3
Dashed
 72
    65
 73
     2
 40
15.0
 49
7.0
 49
-8.0
  0
LTYPE
  2
DASH_CENTER
 70
     0
  3
Dash_Center
 72
    65
 73
     4
 40
14.0
 49
11.0
 49
-1.0
 49
1.0
 49
-1.0
  0
ENDTAB
  0
TABLE
  2
LAYER
 70
     1
  0
LAYER
  2
0
 70
     0
 62
     7
  6
CONTINUOUS
  0
ENDTAB
  0
TABLE
  2
STYLE
 70
     1
  0
STYLE
  2
STANDARD
 70
     0
 40
0.0
 41
1.0
 50
0.0
 71
     0
 42
0.2
  3
txt
  4

  0
ENDTAB
  0
TABLE
  2
VIEW
 70
     0
  0
ENDTAB
  0
TABLE
  2
UCS
 70
     0
  0
ENDTAB
  0
TABLE
  2
APPID
 70
     3
  0
APPID
  2
ACAD
 70
     0
  0
APPID
  2
ACAD_EXEMPT_FROM_CAD_STANDARDS
 70
     0
  0
APPID
  2
ACAD_MLEADERVER
 70
     0
  0
ENDTAB
  0
TABLE
  2
DIMSTYLE
 70
     1
  0
DIMSTYLE
  2
STANDARD
 70
     0
  3

  4

  5

  6

  7

 40
1.0
 41
0.18
 42
0.0625
 43
0.38
 44
0.18
 45
0.0
 46
0.0
 47
0.0
 48
0.0
140
0.18
141
0.09
142
0.0
143
25.399999999999999
144
1.0
145
0.0
146
1.0
147
0.09
 71
     0
 72
     0
 73
     1
 74
     1
 75
     0
 76
     0
 77
     0
 78
     0
170
     0
171
     2
172
     0
173
     0
174
     0
175
     0
176
     0
177
     0
178
     0
  0
ENDTAB
  0
ENDSEC
  0
SECTION
  2
BLOCKS
  0
BLOCK
  8
0
  2
$MODEL_SPACE
 70
     0
 10
0.0
 20
0.0
 30
0.0
  3
$MODEL_SPACE
  1

  0
ENDBLK
  5
21
  8
0
  0
BLOCK
 67
     1
  8
0
  2
$PAPER_SPACE
 70
     0
 10
0.0
 20
0.0
 30
0.0
  3
$PAPER_SPACE
  1

  0
ENDBLK
  5
1D
 67
     1
  8
0
  0
ENDSEC
  0
SECTION
  2
ENTITIES
  0
LINE
  5
5A
  8
0
  6
CONTINUOUS
 62
     7
 10
38.150012294455109
 20
-50.6197025093457
 30
0.0
 11
38.650012294455109
 21
-51.1197025093457
 31
0.0
  0
LINE
  5
5B
  8
0
  6
CONTINUOUS
 62
     7
 10
38.650012294456033
 20
-160.1197025093457
 30
0.0
 11
38.650012294456033
 21
-105.6197494290159
 31
0.0
  0
LINE
  5
5C
  8
0
  6
DASHED
 62
     2
 10
73.650012294455095
 20
-90.619721735757025
 30
0.0
 11
73.650012294455095
 21
-97.619721735757011
 31
0.0
  0
LINE
  5
5D
  8
0
  6
DASHED
 62
     7
 10
73.400012294455109
 20
-90.619721735757025
 30
0.0
 11
73.400012294455109
 21
-97.619721735757011
 31
0.0
  0
LINE
  5
5E
  8
0
  6
DASHED
 62
     7
 10
70.900012294455109
 20
-90.619721735757025
 30
0.0
 11
70.900012294455109
 21
-97.619721735757011
 31
0.0
  0
LINE
  5
5F
  8
0
  6
DASHED
 62
     2
 10
70.650012294455109
 20
-90.619721735757025
 30
0.0
 11
70.650012294455109
 21
-97.619721735757011
 31
0.0
  0
LINE
  5
60
  8
0
  6
DASH_CENTER
 62
     1
 10
72.150012294455109
 20
-99.619721735757039
 30
0.0
 11
72.150012294455109
 21
-89.119721735757011
 31
0.0
  0
LINE
  5
61
  8
0
  6
CONTINUOUS
 62
     7
 10
96.650012294455124
 20
-93.619721735757011
 30
0.0
 11
97.650012294455124
 21
-94.619721735756997
 31
0.0
  0
LINE
  5
62
  8
0
  6
CONTINUOUS
 62
     7
 10
97.650012294455124
 20
-116.61971782868051
 30
0.0
 11
96.650012294455124
 21
-117.61971782868051
 31
0.0
  0
LINE
  5
65
  8
0
  6
DASH_CENTER
 62
     1
 10
165.649946537586
 20
-88.119721735757025
 30
0.0
 11
165.649946537586
 21
-120.1236834253592
 31
0.0
  0
LINE
  5
66
  8
0
  6
DASH_CENTER
 62
     1
 10
165.649946537586
 20
-105.6197095999692
 30
0.0
 11
180.149946537586
 21
-105.6197095999692
 31
0.0
  0
LINE
  5
67
  8
0
  6
CONTINUOUS
 62
     7
 10
169.649946537586
 20
-97.619721735757011
 30
0.0
 11
169.649946537586
 21
-94.306013236773055
 31
0.0
  0
LINE
  5
68
  8
0
  6
CONTINUOUS
 62
     7
 10
161.649946537586
 20
-97.619721735757011
 30
0.0
 11
169.649946537586
 21
-97.619721735757011
 31
0.0
  0
LINE
  5
69
  8
0
  6
CONTINUOUS
 62
     7
 10
161.649946537586
 20
-90.619721735757025
 30
0.0
 11
161.649946537586
 21
-97.619721735757011
 31
0.0
  0
LINE
  5
6A
  8
0
  6
CONTINUOUS
 62
     7
 10
169.649946537586
 20
-90.619721735757025
 30
0.0
 11
161.649946537586
 21
-90.619721735757025
 31
0.0
  0
LINE
  5
6B
  8
0
  6
CONTINUOUS
 62
     7
 10
169.649946537586
 20
-94.306013236773055
 30
0.0
 11
169.649946537586
 21
-90.619721735757025
 31
0.0
  0
LINE
  5
6D
  8
0
  6
DASHED
 62
     7
 10
46.650012294455102
 20
-93.619721735757011
 30
0.0
 11
46.650012294455102
 21
-97.619721735757011
 31
0.0
  0
LINE
  5
6E
  8
0
  6
CONTINUOUS
 62
     7
 10
46.650012294455102
 20
-93.619721735757011
 30
0.0
 11
96.650012294455124
 21
-93.619721735757011
 31
0.0
  0
LINE
  5
6F
  8
0
  6
CONTINUOUS
 62
     7
 10
46.650012294455102
 20
-90.619721735757025
 30
0.0
 11
46.650012294455102
 21
-93.619721735757011
 31
0.0
  0
LINE
  5
70
  8
0
  6
CONTINUOUS
 62
     7
 10
97.650012294455124
 20
-90.619721735757025
 30
0.0
 11
46.650012294455102
 21
-90.619721735757025
 31
0.0
  0
LINE
  5
71
  8
0
  6
CONTINUOUS
 62
     7
 10
97.650012294455124
 20
-94.619721735756997
 30
0.0
 11
97.650012294455124
 21
-90.619721735757025
 31
0.0
  0
LINE
  5
72
  8
0
  6
CONTINUOUS
 62
     7
 10
97.650012294455124
 20
-97.619721735757011
 30
0.0
 11
97.650012294455124
 21
-116.61971782868051
 31
0.0
  0
LINE
  5
73
  8
0
  6
DASHED
 62
     2
 10
42.650012294455109
 20
-97.619721735757011
 30
0.0
 11
97.650012294455124
 21
-97.619721735757011
 31
0.0
  0
LINE
  5
74
  8
0
  6
CONTINUOUS
 62
     7
 10
42.650012294455109
 20
-93.619721735757011
 30
0.0
 11
46.650012294455102
 21
-93.619721735757011
 31
0.0
  0
LINE
  5
75
  8
0
  6
DASHED
 62
     2
 10
42.650012294455109
 20
-93.619721735757011
 30
0.0
 11
42.650012294455109
 21
-97.619721735757011
 31
0.0
  0
LINE
  5
76
  8
0
  6
CONTINUOUS
 62
     7
 10
46.650012294455102
 20
-71.457562090201975
 30
0.0
 11
46.650012294455102
 21
-79.457562090201989
 31
0.0
  0
LINE
  5
77
  8
0
  6
DASH_CENTER
 62
     1
 10
40.104017843696063
 20
-75.457562090201989
 30
0.0
 11
101.0942729851381
 21
-75.457562090201989
 31
0.0
  0
LINE
  5
78
  8
0
  6
CONTINUOUS
 62
     7
 10
97.650012294455124
 20
-79.457562090201989
 30
0.0
 11
97.650012294455124
 21
-71.457562090201975
 31
0.0
  0
LINE
  5
79
  8
0
  6
CONTINUOUS
 62
     7
 10
46.650012294455102
 20
-79.457562090201989
 30
0.0
 11
97.650012294455124
 21
-79.457562090201989
 31
0.0
  0
LINE
  5
7A
  8
0
  6
CONTINUOUS
 62
     7
 10
97.650012294455124
 20
-71.457562090201975
 30
0.0
 11
46.650012294455102
 21
-71.457562090201975
 31
0.0
  0
LINE
  5
7B
  8
0
  6
CONTINUOUS
 62
     7
 10
32.650012294455109
 20
-105.6197025093457
 30
0.0
 11
32.650012294455109
 21
-170.6197025093457
 31
0.0
  0
LINE
  5
7C
  8
0
  6
CONTINUOUS
 62
     7
 10
38.150012294456019
 20
-160.61970250934559
 30
0.0
 11
38.650012294456033
 21
-160.1197025093457
 31
0.0
  0
LINE
  5
7D
  8
0
  6
DASH_CENTER
 62
     1
 10
102.6500122944551
 20
-105.61970635081759
 30
0.0
 11
27.650012294455109
 21
-105.6197312195187
 31
0.0
  0
LINE
  5
7E
  8
0
  6
CONTINUOUS
 62
     7
 10
32.649912294456037
 20
-74.279702509345555
 30
0.0
 11
32.649912294456037
 21
-40.6197025093457
 31
0.0
  0
LINE
  5
7F
  8
0
  6
CONTINUOUS
 62
     7
 10
97.650012294455124
 20
-94.619721735756997
 30
0.0
 11
97.650012294455124
 21
-97.619721735757011
 31
0.0
  0
LINE
  5
80
  8
0
  6
CONTINUOUS
 62
     7
 10
38.150012294456019
 20
-160.61970250934559
 30
0.0
 11
32.650012294455109
 21
-160.61970250934559
 31
0.0
  0
LINE
  5
81
  8
0
  6
CONTINUOUS
 62
     7
 10
38.150012294455109
 20
-50.6197025093457
 30
0.0
 11
33.149912294456037
 21
-50.6197025093457
 31
0.0
  0
LINE
  5
82
  8
0
  6
CONTINUOUS
 62
     7
 10
96.650012294455124
 20
-117.61971782868051
 30
0.0
 11
38.650012294456033
 21
-117.61971782868051
 31
0.0
  0
LINE
  5
83
  8
0
  6
CONTINUOUS
 62
     7
 10
38.650012294455827
 20
-93.619721735757011
 30
0.0
 11
42.650012294455109
 21
-93.619721735757011
 31
0.0
  0
LINE
  5
84
  8
0
  6
CONTINUOUS
 62
     7
 10
38.650012294456033
 20
-105.6197494290159
 30
0.0
 11
38.650012294455109
 21
-51.1197025093457
 31
0.0
  0
LINE
  5
85
  8
0
  6
CONTINUOUS
 62
     7
 10
32.650012294455109
 20
-105.6197025093457
 30
0.0
 11
32.650012294455109
 21
-50.815518237316198
 31
0.0
  0
LINE
  5
86
  8
0
  6
DASH_CENTER
 62
     1
 10
72.150012294455109
 20
-80.502522003588254
 30
0.0
 11
72.150012294455109
 21
-70.00252200358824
 31
0.0
  0
LINE
  5
87
  8
0
  6
DASH_CENTER
 62
     1
 10
151.149946537586
 20
-105.6197095999692
 30
0.0
 11
165.649946537586
 21
-105.6197095999692
 31
0.0
  0
LINE
  5
88
  8
0
  6
CONTINUOUS
 62
     7
 10
-215.43932690723599
 20
97.894560304018924
 30
0.0
 11
-216.6226636433183
 21
97.894560304018015
 31
0.0
  0
LINE
  5
89
  8
0
  6
CONTINUOUS
 62
     7
 10
-216.6226636433183
 20
86.894560304018896
 30
0.0
 11
-215.43932690723599
 21
86.894560304018896
 31
0.0
  0
LINE
  5
8A
  8
0
  6
CONTINUOUS
 62
     7
 10
-214.43932690723511
 20
96.894560304018
 30
0.0
 11
-214.43932690723511
 21
87.894560304018896
 31
0.0
  0
LINE
  5
8B
  8
0
  6
CONTINUOUS
 62
     7
 10
-252.9404632716431
 20
49.394557259858303
 30
0.0
 11
-261.94046327164318
 21
49.394557259858303
 31
0.0
  0
LINE
  5
8C
  8
0
  6
CONTINUOUS
 62
     7
 10
-262.94046327164318
 20
51.578105861689998
 30
0.0
 11
-262.94046327164318
 21
50.394557259858288
 31
0.0
  0
LINE
  5
8D
  8
0
  6
CONTINUOUS
 62
     7
 10
-251.9404632716431
 20
50.394557259858288
 30
0.0
 11
-251.9404632716431
 21
51.577893995941501
 31
0.0
  0
LINE
  5
8E
  8
0
  6
CONTINUOUS
 62
     7
 10
-300.43932690723602
 20
87.894560304017986
 30
0.0
 11
-300.43932690723602
 21
96.894560304018
 31
0.0
  0
LINE
  5
8F
  8
0
  6
CONTINUOUS
 62
     7
 10
-299.43932690723511
 20
86.894560304018896
 30
0.0
 11
-298.25599017115178
 21
86.894560304018896
 31
0.0
  0
LINE
  5
90
  8
0
  6
CONTINUOUS
 62
     7
 10
-298.25599017115178
 20
97.894560304018015
 30
0.0
 11
-299.43932690723511
 21
97.894560304018015
 31
0.0
  0
LINE
  5
91
  8
0
  6
CONTINUOUS
 62
     7
 10
-267.27511334486269
 20
131.89583307342639
 30
0.0
 11
-247.6035404696085
 21
131.89583307342639
 31
0.0
  0
LINE
  5
92
  8
0
  6
CONTINUOUS
 62
     7
 10
-246.8964336884209
 20
132.18872629223881
 30
0.0
 11
-244.0651165005219
 21
135.02004348013969
 31
0.0
  0
LINE
  5
93
  8
0
  6
CONTINUOUS
 62
     7
 10
-270.8135373139483
 20
135.02004348013969
 30
0.0
 11
-267.98222012604941
 21
132.18872629223881
 31
0.0
  0
LINE
  5
94
  8
0
  6
CONTINUOUS
 62
     7
 10
-272.28817408309072
 20
128.2420565501649
 30
0.0
 11
-273.52561095017148
 21
129.47949341724109
 31
0.0
  0
LINE
  5
95
  8
0
  6
CONTINUOUS
 62
     7
 10
-272.28817408309072
 20
128.2420565501649
 30
0.0
 11
-271.05073721601718
 21
127.0046196830869
 31
0.0
  0
LINE
  5
96
  8
0
  6
CONTINUOUS
 62
     7
 10
-272.28817408309072
 20
128.2420565501649
 30
0.0
 11
-273.52561095017148
 21
127.0046196830869
 31
0.0
  0
LINE
  5
97
  8
0
  6
CONTINUOUS
 62
     7
 10
-272.28817408309072
 20
128.2420565501649
 30
0.0
 11
-271.05073721601718
 21
129.47949341724109
 31
0.0
  0
LINE
  5
98
  8
0
  6
CONTINUOUS
 62
     7
 10
-291.68815060349232
 20
92.395163348546333
 30
0.0
 11
-290.45071373641701
 21
93.63260021562256
 31
0.0
  0
LINE
  5
99
  8
0
  6
CONTINUOUS
 62
     7
 10
-291.68815060349232
 20
92.395163348546333
 30
0.0
 11
-292.92558747057132
 21
91.157726481468316
 31
0.0
  0
LINE
  5
9A
  8
0
  6
CONTINUOUS
 62
     7
 10
-291.68815060349232
 20
92.395163348546333
 30
0.0
 11
-290.45071373641701
 21
91.157726481468316
 31
0.0
  0
LINE
  5
9B
  8
0
  6
CONTINUOUS
 62
     7
 10
-291.68815060349232
 20
92.395163348546333
 30
0.0
 11
-292.92558747057132
 21
93.63260021562256
 31
0.0
  0
LINE
  5
9C
  8
0
  6
CONTINUOUS
 62
     7
 10
-223.18815060349229
 20
92.395163348546333
 30
0.0
 11
-224.42558747057129
 21
93.63260021562256
 31
0.0
  0
LINE
  5
9D
  8
0
  6
CONTINUOUS
 62
     7
 10
-223.18815060349229
 20
92.395163348546333
 30
0.0
 11
-221.95071373641699
 21
91.157726481468316
 31
0.0
  0
LINE
  5
9E
  8
0
  6
CONTINUOUS
 62
     7
 10
-223.18815060349229
 20
92.395163348546333
 30
0.0
 11
-224.42558747057129
 21
91.157726481468316
 31
0.0
  0
LINE
  5
9F
  8
0
  6
CONTINUOUS
 62
     7
 10
-223.18815060349229
 20
92.395163348546333
 30
0.0
 11
-221.95071373641699
 21
93.63260021562256
 31
0.0
  0
LINE
  5
A0
  8
0
  6
CONTINUOUS
 62
     7
 10
-257.44106631608332
 20
58.145740722675889
 30
0.0
 11
-256.20362944900791
 21
59.383177589750289
 31
0.0
  0
LINE
  5
A1
  8
0
  6
CONTINUOUS
 62
     7
 10
-257.44106631608332
 20
58.145740722675889
 30
0.0
 11
-258.67850318316221
 21
56.908303855596962
 31
0.0
  0
LINE
  5
A2
  8
0
  6
CONTINUOUS
 62
     7
 10
-257.44106631608332
 20
58.145740722675889
 30
0.0
 11
-256.20362944900791
 21
56.908303855596962
 31
0.0
  0
LINE
  5
A3
  8
0
  6
CONTINUOUS
 62
     7
 10
-257.44106631608332
 20
58.145740722675889
 30
0.0
 11
-258.67850318316221
 21
59.383177589750289
 31
0.0
  0
LINE
  5
A4
  8
0
  6
CONTINUOUS
 62
     7
 10
-254.19106631608329
 20
58.145740722675889
 30
0.0
 11
-254.19106631608329
 21
54.228836286045983
 31
0.0
  0
LINE
  5
A5
  8
0
  6
CONTINUOUS
 62
     7
 10
-260.69106631608332
 20
58.145740722675889
 30
0.0
 11
-260.69106631608332
 21
54.229059591738071
 31
0.0
  0
LINE
  5
A6
  8
0
  6
CONTINUOUS
 62
     7
 10
-295.6061453784132
 20
95.645163348547285
 30
0.0
 11
-294.88992995167689
 21
95.645163348547285
 31
0.0
  0
LINE
  5
A7
  8
0
  6
CONTINUOUS
 62
     7
 10
-294.88992995167229
 20
89.145163348546347
 30
0.0
 11
-295.6061453784132
 21
89.145163348545438
 31
0.0
  0
LINE
  5
A8
  8
0
  6
DASH_CENTER
 62
     1
 10
-270.66176949554108
 20
124.3155685369926
 30
0.0
 11
-273.914578670644
 21
132.168544563339
 31
0.0
  0
LINE
  5
A9
  8
0
  6
CONTINUOUS
 62
     7
 10
-219.2737145249402
 20
89.145163348545438
 30
0.0
 11
-219.98992995168089
 21
89.145163348546347
 31
0.0
  0
LINE
  5
AA
  8
0
  6
CONTINUOUS
 62
     7
 10
-219.98992995167731
 20
95.645163348547285
 30
0.0
 11
-219.2737145249402
 21
95.645163348547285
 31
0.0
  0
LINE
  5
AB
  8
0
  6
CONTINUOUS
 62
     7
 10
-215.83992995167401
 20
95.79516334854236
 30
0.0
 11
-215.83992995167401
 21
88.995163348548544
 31
0.0
  0
LINE
  5
AC
  8
0
  6
DASH_CENTER
 62
     1
 10
-223.18815060349229
 20
88.505086215961114
 30
0.0
 11
-223.18815060349229
 21
96.285240481134323
 31
0.0
  0
LINE
  5
AD
  8
0
  6
CONTINUOUS
 62
     7
 10
-217.0943911648354
 20
87.995163348549468
 30
0.0
 11
-216.83992995167401
 21
87.995163348548544
 31
0.0
  0
LINE
  5
AE
  8
0
  6
CONTINUOUS
 62
     7
 10
-216.83992995167401
 20
96.79516334854236
 30
0.0
 11
-217.09439116485001
 21
96.795163348545074
 31
0.0
  0
LINE
  5
AF
  8
0
  6
CONTINUOUS
 62
     7
 10
-253.03879358727309
 20
51.795160304385377
 30
0.0
 11
-253.03879358727309
 21
52.049804839251578
 31
0.0
  0
LINE
  5
B0
  8
0
  6
CONTINUOUS
 62
     7
 10
-297.78546873850331
 20
96.795163348545074
 30
0.0
 11
-298.03992995167931
 21
96.79516334854236
 31
0.0
  0
LINE
  5
B1
  8
0
  6
CONTINUOUS
 62
     7
 10
-298.03992995167931
 20
87.995163348548544
 30
0.0
 11
-297.78546873851872
 21
87.995163348549468
 31
0.0
  0
LINE
  5
B2
  8
0
  6
DASH_CENTER
 62
     1
 10
-291.68815060349232
 20
96.285240481134323
 30
0.0
 11
-291.68815060349232
 21
88.505086215961114
 31
0.0
  0
LINE
  5
B3
  8
0
  6
CONTINUOUS
 62
     7
 10
-299.03992995167931
 20
88.995163348548544
 30
0.0
 11
-299.03992995167931
 21
95.79516334854236
 31
0.0
  0
LINE
  5
B4
  8
0
  6
CONTINUOUS
 62
     7
 10
-261.84106631608017
 20
52.049804839251578
 30
0.0
 11
-261.84106631608017
 21
51.795160304385377
 31
0.0
  0
LINE
  5
B5
  8
0
  6
DASH_CENTER
 62
     1
 10
-261.33000708426141
 20
58.145740722675889
 30
0.0
 11
-253.54985281909089
 21
58.145740722675889
 31
0.0
  0
LINE
  5
B6
  8
0
  6
CONTINUOUS
 62
     7
 10
-254.03879358727309
 20
50.795160304385377
 30
0.0
 11
-260.84106631608017
 21
50.795160304385377
 31
0.0
  0
LINE
  5
B7
  8
0
  6
CONTINUOUS
 62
     7
 10
-237.43992995167619
 20
126.8149614304654
 30
0.0
 11
-237.43992995167619
 21
127.8919044994942
 31
0.0
  0
LINE
  5
B8
  8
0
  6
CONTINUOUS
 62
     7
 10
-277.43992995167707
 20
132.08143301451551
 30
0.0
 11
-277.43992995167707
 21
126.8149614304654
 31
0.0
  0
LINE
  5
B9
  8
0
  6
CONTINUOUS
 62
     7
 10
-271.19952037574137
 20
134.65602654201911
 30
0.0
 11
-268.37926977989707
 21
131.83577594617569
 31
0.0
  0
LINE
  5
BA
  8
0
  6
CONTINUOUS
 62
     7
 10
-267.31860960811707
 20
131.39643611795569
 30
0.0
 11
-247.56125029523619
 21
131.39643611795569
 31
0.0
  0
LINE
  5
BB
  8
0
  6
CONTINUOUS
 62
     7
 10
-246.50059012345619
 20
131.83577594617569
 30
0.0
 11
-243.68033952761189
 21
134.65602654201911
 31
0.0
  0
LINE
  5
BC
  8
0
  6
CONTINUOUS
 62
     7
 10
-222.43932695284721
 20
68.761858522884381
 30
0.0
 11
-222.43932695284721
 21
67.029807715313495
 31
0.0
  0
LINE
  5
BD
  8
0
  6
CONTINUOUS
 62
     7
 10
-220.93932695284721
 20
69.62788392666755
 30
0.0
 11
-222.43932695284721
 21
68.761858522884381
 31
0.0
  0
LINE
  5
BE
  8
0
  6
CONTINUOUS
 62
     7
 10
-219.43932695284721
 20
68.761858522884381
 30
0.0
 11
-220.93932695284721
 21
69.62788392666755
 31
0.0
  0
LINE
  5
BF
  8
0
  6
CONTINUOUS
 62
     7
 10
-219.43932695284721
 20
67.029807715313495
 30
0.0
 11
-219.43932695284721
 21
68.761858522884381
 31
0.0
  0
LINE
  5
C0
  8
0
  6
CONTINUOUS
 62
     7
 10
-220.93932695284721
 20
66.163782311529431
 30
0.0
 11
-219.43932695284721
 21
67.029807715313495
 31
0.0
  0
LINE
  5
C1
  8
0
  6
CONTINUOUS
 62
     7
 10
-222.43932695284721
 20
67.029807715313495
 30
0.0
 11
-220.93932695284721
 21
66.163782311529431
 31
0.0
  0
LINE
  5
C2
  8
0
  6
CONTINUOUS
 62
     7
 10
-252.93805413788041
 20
49.395833073373652
 30
0.0
 11
-257.4394269073145
 21
49.395833073373652
 31
0.0
  0
LINE
  5
C3
  8
0
  6
CONTINUOUS
 62
     7
 10
-214.4393269072369
 20
96.894560304017091
 30
0.0
 11
-214.4393269072369
 21
87.894560304021624
 31
0.0
  0
LINE
  5
C4
  8
0
  6
CONTINUOUS
 62
     7
 10
-220.93932695284721
 20
118.6278838353206
 30
0.0
 11
-222.43932695284721
 21
117.7618584315357
 31
0.0
  0
LINE
  5
C5
  8
0
  6
CONTINUOUS
 62
     7
 10
-219.43932695284721
 20
117.7618584315357
 30
0.0
 11
-220.93932695284721
 21
118.6278838353206
 31
0.0
  0
LINE
  5
C6
  8
0
  6
CONTINUOUS
 62
     7
 10
-219.43932695284721
 20
116.0298076239675
 30
0.0
 11
-219.43932695284721
 21
117.7618584315357
 31
0.0
  0
LINE
  5
C7
  8
0
  6
CONTINUOUS
 62
     7
 10
-220.93932695284721
 20
115.1637822201825
 30
0.0
 11
-219.43932695284721
 21
116.0298076239675
 31
0.0
  0
LINE
  5
C8
  8
0
  6
CONTINUOUS
 62
     7
 10
-222.43932695284721
 20
116.0298076239675
 30
0.0
 11
-220.93932695284721
 21
115.1637822201825
 31
0.0
  0
LINE
  5
C9
  8
0
  6
CONTINUOUS
 62
     7
 10
-222.43932695284721
 20
117.7618584315357
 30
0.0
 11
-222.43932695284721
 21
116.0298076239675
 31
0.0
  0
LINE
  5
CA
  8
0
  6
CONTINUOUS
 62
     7
 10
-215.4393102107168
 20
86.895858118436664
 30
0.0
 11
-215.93934360375701
 21
86.895849769615438
 31
0.0
  0
LINE
  5
CB
  8
0
  6
CONTINUOUS
 62
     7
 10
-215.9393102107168
 20
97.895849770175687
 30
0.0
 11
-215.43934360375701
 21
97.895858117875477
 31
0.0
  0
LINE
  5
CC
  8
0
  6
CONTINUOUS
 62
     7
 10
-251.9393269072369
 20
50.895833073373637
 30
0.0
 11
-251.9393269072369
 21
50.395833073373637
 31
0.0
  0
LINE
  5
CD
  8
0
  6
CONTINUOUS
 62
     7
 10
-214.4393269072369
 20
96.895858118014644
 30
0.0
 11
-214.4393269072369
 21
87.895858118295692
 31
0.0
  0
LINE
  5
CE
  8
0
  6
CONTINUOUS
 62
     7
 10
-214.4393269072369
 20
96.895858118014644
 30
0.0
 11
-214.4393269072369
 21
87.895858118295692
 31
0.0
  0
LINE
  5
CF
  8
0
  6
CONTINUOUS
 62
     7
 10
-216.9393269072369
 20
85.895849769756424
 30
0.0
 11
-216.9393269072369
 21
66.395833073373637
 31
0.0
  0
LINE
  5
D0
  8
0
  6
CONTINUOUS
 62
     7
 10
-216.9393269072369
 20
118.39583307337369
 30
0.0
 11
-216.9393269072369
 21
98.895849770033806
 31
0.0
  0
LINE
  5
D1
  8
0
  6
CONTINUOUS
 62
     7
 10
-224.13392194043709
 20
121.39583307337369
 30
0.0
 11
-219.9393269072369
 21
121.39583307337369
 31
0.0
  0
LINE
  5
D2
  8
0
  6
CONTINUOUS
 62
     7
 10
-219.9393269072369
 20
63.395833073373637
 30
0.0
 11
-224.13392194043709
 21
63.395833073373637
 31
0.0
  0
LINE
  5
D3
  8
0
  6
CONTINUOUS
 62
     7
 10
-228.4393269072369
 20
129.89583307337369
 30
0.0
 11
-228.4393269072369
 21
125.7012380401744
 31
0.0
  0
LINE
  5
D4
  8
0
  6
CONTINUOUS
 62
     7
 10
-228.4393269072369
 20
59.090428106676541
 30
0.0
 11
-228.4393269072369
 21
54.895833073373637
 31
0.0
  0
LINE
  5
D5
  8
0
  6
CONTINUOUS
 62
     7
 10
-231.4393269072369
 20
51.895833073373652
 30
0.0
 11
-250.9393269072369
 21
51.895833073373652
 31
0.0
  0
LINE
  5
D6
  8
0
  6
CONTINUOUS
 62
     7
 10
-237.43932690723599
 20
132.89583307337369
 30
0.0
 11
-231.4393269072369
 21
132.89583307337369
 31
0.0
  0
LINE
  5
D7
  8
0
  6
CONTINUOUS
 62
     7
 10
-283.43932690723511
 20
132.89583307337369
 30
0.0
 11
-277.43932690723602
 21
132.89583307337369
 31
0.0
  0
LINE
  5
D8
  8
0
  6
CONTINUOUS
 62
     7
 10
-263.93932690723511
 20
51.895833073373652
 30
0.0
 11
-283.43932690723511
 21
51.895833073373652
 31
0.0
  0
LINE
  5
D9
  8
0
  6
CONTINUOUS
 62
     7
 10
-286.43932690723511
 20
54.895833073373637
 30
0.0
 11
-286.43932690723511
 21
59.090428106676541
 31
0.0
  0
LINE
  5
DA
  8
0
  6
CONTINUOUS
 62
     7
 10
-286.43932690723511
 20
125.7012380401744
 30
0.0
 11
-286.43932690723511
 21
129.89583307337369
 31
0.0
  0
LINE
  5
DB
  8
0
  6
CONTINUOUS
 62
     7
 10
-290.74473187403498
 20
63.395833073373637
 30
0.0
 11
-294.93932690723511
 21
63.395833073373637
 31
0.0
  0
LINE
  5
DC
  8
0
  6
CONTINUOUS
 62
     7
 10
-294.93932690723511
 20
121.39583307337369
 30
0.0
 11
-290.74473187403498
 21
121.39583307337369
 31
0.0
  0
LINE
  5
DD
  8
0
  6
CONTINUOUS
 62
     7
 10
-297.93932690723511
 20
98.895849770033806
 30
0.0
 11
-297.93932690723511
 21
118.39583307337369
 31
0.0
  0
LINE
  5
DE
  8
0
  6
CONTINUOUS
 62
     7
 10
-297.93932690723511
 20
66.395833073373637
 30
0.0
 11
-297.93932690723511
 21
85.895849769756424
 31
0.0
  0
LINE
  5
DF
  8
0
  6
CONTINUOUS
 62
     7
 10
-300.43932690723511
 20
87.895858118295692
 30
0.0
 11
-300.43932690723511
 21
96.895858118014644
 31
0.0
  0
LINE
  5
E0
  8
0
  6
CONTINUOUS
 62
     7
 10
-300.43932690723511
 20
87.895858118295692
 30
0.0
 11
-300.43932690723511
 21
96.895858118014644
 31
0.0
  0
LINE
  5
E1
  8
0
  6
CONTINUOUS
 62
     7
 10
-262.93932690723511
 20
50.395833073373637
 30
0.0
 11
-262.93932690723511
 21
50.895833073373637
 31
0.0
  0
LINE
  5
E2
  8
0
  6
CONTINUOUS
 62
     7
 10
-299.43931021071489
 20
97.895858117875477
 30
0.0
 11
-298.93934360375522
 21
97.895849770175687
 31
0.0
  0
LINE
  5
E3
  8
0
  6
CONTINUOUS
 62
     7
 10
-298.93931021071489
 20
86.895849769615438
 30
0.0
 11
-299.43934360375511
 21
86.895858118436664
 31
0.0
  0
LINE
  5
E4
  8
0
  6
CONTINUOUS
 62
     7
 10
-292.43932686162492
 20
116.0298076239675
 30
0.0
 11
-292.43932686162492
 21
117.7618584315357
 31
0.0
  0
LINE
  5
E5
  8
0
  6
CONTINUOUS
 62
     7
 10
-293.93932686162492
 20
115.1637822201825
 30
0.0
 11
-292.43932686162492
 21
116.0298076239675
 31
0.0
  0
LINE
  5
E6
  8
0
  6
CONTINUOUS
 62
     7
 10
-295.43932686162492
 20
116.0298076239675
 30
0.0
 11
-293.93932686162492
 21
115.1637822201825
 31
0.0
  0
LINE
  5
E7
  8
0
  6
CONTINUOUS
 62
     7
 10
-295.43932686162492
 20
117.7618584315357
 30
0.0
 11
-295.43932686162492
 21
116.0298076239675
 31
0.0
  0
LINE
  5
E8
  8
0
  6
CONTINUOUS
 62
     7
 10
-293.93932686162492
 20
118.6278838353206
 30
0.0
 11
-295.43932686162492
 21
117.7618584315357
 31
0.0
  0
LINE
  5
E9
  8
0
  6
CONTINUOUS
 62
     7
 10
-292.43932686162492
 20
117.7618584315357
 30
0.0
 11
-293.93932686162492
 21
118.6278838353206
 31
0.0
  0
LINE
  5
EA
  8
0
  6
CONTINUOUS
 62
     7
 10
-300.43932690723602
 20
87.894560304017986
 30
0.0
 11
-300.43932690723602
 21
96.894560304018
 31
0.0
  0
LINE
  5
EB
  8
0
  6
CONTINUOUS
 62
     7
 10
-257.43922690715669
 20
49.395833073373652
 30
0.0
 11
-261.9405996765916
 21
49.395833073373652
 31
0.0
  0
LINE
  5
EC
  8
0
  6
CONTINUOUS
 62
     7
 10
-293.93932686162492
 20
66.163782311529431
 30
0.0
 11
-292.43932686162492
 21
67.029807715313495
 31
0.0
  0
LINE
  5
ED
  8
0
  6
CONTINUOUS
 62
     7
 10
-295.43932686162492
 20
67.029807715313495
 30
0.0
 11
-293.93932686162492
 21
66.163782311529431
 31
0.0
  0
LINE
  5
EE
  8
0
  6
CONTINUOUS
 62
     7
 10
-295.43932686162492
 20
68.761858522884381
 30
0.0
 11
-295.43932686162492
 21
67.029807715313495
 31
0.0
  0
LINE
  5
EF
  8
0
  6
CONTINUOUS
 62
     7
 10
-293.93932686162401
 20
69.62788392666755
 30
0.0
 11
-295.43932686162492
 21
68.761858522884381
 31
0.0
  0
LINE
  5
F0
  8
0
  6
CONTINUOUS
 62
     7
 10
-292.43932686162401
 20
68.761858522884381
 30
0.0
 11
-293.93932686162401
 21
69.62788392666755
 31
0.0
  0
LINE
  5
F1
  8
0
  6
CONTINUOUS
 62
     7
 10
-292.43932686162492
 20
67.029807715313495
 30
0.0
 11
-292.43932686162401
 21
68.761858522884381
 31
0.0
  0
LINE
  5
F2
  8
0
  6
CONTINUOUS
 62
     7
 10
-277.43932690723602
 20
154.3957017132995
 30
0.0
 11
-277.43932690723602
 21
127.583336923845
 31
0.0
  0
LINE
  5
F3
  8
0
  6
CONTINUOUS
 62
     7
 10
-277.43932690723602
 20
154.3957017132995
 30
0.0
 11
-237.43932690723599
 21
154.3957017132995
 31
0.0
  0
LINE
  5
F4
  8
0
  6
CONTINUOUS
 62
     7
 10
-277.43932690723602
 20
154.3957017132995
 30
0.0
 11
-237.43942690723901
 21
154.3957017132995
 31
0.0
  0
LINE
  5
F5
  8
0
  6
CONTINUOUS
 62
     7
 10
-276.43932690723602
 20
154.39570280261299
 30
0.0
 11
-276.43932690723602
 21
155.0956320873571
 31
0.0
  0
LINE
  5
F6
  8
0
  6
CONTINUOUS
 62
     7
 10
-276.4894269072355
 20
155.0956318243631
 30
0.0
 11
-238.389326920569
 21
155.09583182541661
 31
0.0
  0
LINE
  5
F7
  8
0
  6
CONTINUOUS
 62
     7
 10
-238.43932690723599
 20
154.39570280261299
 30
0.0
 11
-238.43932690723599
 21
155.0958315629465
 31
0.0
  0
LINE
  5
F8
  8
0
  6
CONTINUOUS
 62
     7
 10
-277.43932690723602
 20
154.3957017132995
 30
0.0
 11
-237.43932690723599
 21
154.3957017132995
 31
0.0
  0
LINE
  5
F9
  8
0
  6
CONTINUOUS
 62
     7
 10
-240.009426907235
 20
157.4856780635597
 30
0.0
 11
-240.08355157966969
 21
158.3329269464345
 31
0.0
  0
LINE
  5
FA
  8
0
  6
DASH_CENTER
 62
     1
 10
-242.759426907235
 20
153.3238318243645
 30
0.0
 11
-242.759426907235
 21
161.58037806355941
 31
0.0
  0
LINE
  5
FB
  8
0
  6
CONTINUOUS
 62
     7
 10
-238.3895269072363
 20
157.4856780635597
 30
0.0
 11
-238.38932690723581
 21
155.0956318243631
 31
0.0
  0
LINE
  5
FC
  8
0
  6
CONTINUOUS
 62
     7
 10
-276.4894269072355
 20
157.4856780635597
 30
0.0
 11
-276.4894269072355
 21
155.0956318243631
 31
0.0
  0
LINE
  5
FD
  8
0
  6
CONTINUOUS
 62
     7
 10
-238.3895269072363
 20
157.4856780635597
 30
0.0
 11
-276.4894269072355
 21
157.4856780635597
 31
0.0
  0
LINE
  5
FE
  8
0
  6
CONTINUOUS
 62
     7
 10
-273.31432690723511
 20
166.09567806355929
 30
0.0
 11
-273.31432690723511
 21
159.38290475187449
 31
0.0
  0
LINE
  5
FF
  8
0
  6
CONTINUOUS
 62
     7
 10
-241.56432690723599
 20
166.0956459831873
 30
0.0
 11
-241.56432690723599
 21
159.38290475187449
 31
0.0
  0
LINE
  5
100
  8
0
  6
CONTINUOUS
 62
     7
 10
-243.06432690723699
 20
176.53567806355991
 30
0.0
 11
-271.81432690723511
 21
176.53567806355991
 31
0.0
  0
LINE
  5
101
  8
0
  6
CONTINUOUS
 62
     7
 10
-245.4353022347976
 20
158.3329269464345
 30
0.0
 11
-245.509426907235
 21
157.4856780635597
 31
0.0
  0
LINE
  5
102
  8
0
  6
CONTINUOUS
 62
     7
 10
-269.36922690723611
 20
157.4856780635597
 30
0.0
 11
-269.44335157967168
 21
158.3329269464345
 31
0.0
  0
LINE
  5
103
  8
0
  6
CONTINUOUS
 62
     7
 10
-274.79510223479969
 20
158.3329269464345
 30
0.0
 11
-274.86922690723611
 21
157.4856780635597
 31
0.0
  0
LINE
  5
104
  8
0
  6
DASH_CENTER
 62
     1
 10
-272.11922690723611
 20
161.58037806355941
 30
0.0
 11
-272.11922690723611
 21
153.3238318243645
 31
0.0
  0
LINE
  5
105
  8
0
  6
CONTINUOUS
 62
     7
 10
-237.43932690723599
 20
154.3957017132995
 30
0.0
 11
-237.43932690723599
 21
127.583336923845
 31
0.0
  0
LINE
  5
106
  8
0
  6
CONTINUOUS
 62
     7
 10
-275.290782563753
 20
126.99833539497889
 30
0.0
 11
-275.87449282585737
 21
128.40753662624471
 31
0.0
  0
LINE
  5
107
  8
0
  6
CONTINUOUS
 62
     7
 10
-269.28556560243021
 20
129.4857777053509
 30
0.0
 11
-269.86940693478658
 21
130.89529536820069
 31
0.0
  0
LINE
  5
108
  8
0
  6
CONTINUOUS
 62
     7
 10
-245.0068942721972
 20
130.89529536820069
 30
0.0
 11
-245.5907356045544
 21
129.4857777053509
 31
0.0
  0
LINE
  5
109
  8
0
  6
CONTINUOUS
 62
     7
 10
-239.00180838112729
 20
128.40753662624471
 30
0.0
 11
-239.5855186432299
 21
126.99833539497889
 31
0.0
  0
LINE
  5
10A
  8
0
  6
CONTINUOUS
 62
     7
 10
-243.82556399096561
 20
129.47949341724109
 30
0.0
 11
-242.58812712389221
 21
128.2420565501649
 31
0.0
  0
LINE
  5
10B
  8
0
  6
CONTINUOUS
 62
     7
 10
-241.3506902568123
 20
127.0046196830869
 30
0.0
 11
-242.58812712389221
 21
128.2420565501649
 31
0.0
  0
LINE
  5
10C
  8
0
  6
CONTINUOUS
 62
     7
 10
-243.82556399096561
 20
127.0046196830869
 30
0.0
 11
-242.58812712389221
 21
128.2420565501649
 31
0.0
  0
LINE
  5
10D
  8
0
  6
CONTINUOUS
 62
     7
 10
-241.3506902568123
 20
129.47949341724109
 30
0.0
 11
-242.58812712389221
 21
128.2420565501649
 31
0.0
  0
LINE
  5
10E
  8
0
  6
DASH_CENTER
 62
     1
 10
-240.9617225363389
 20
132.168544563339
 30
0.0
 11
-244.2145317114427
 21
124.3155685369926
 31
0.0
  0
LINE
  5
10F
  8
0
  6
CONTINUOUS
 62
     7
 10
-294.88992995167689
 20
95.645163348547285
 30
0.0
 11
-291.68815060349328
 21
95.645163348547285
 31
0.0
  0
LINE
  5
110
  8
0
  6
CONTINUOUS
 62
     7
 10
-294.88992995167229
 20
89.145163348546347
 30
0.0
 11
-291.68815060348868
 21
89.145163348546347
 31
0.0
  0
LINE
  5
111
  8
0
  6
CONTINUOUS
 62
     7
 10
-223.18815060349601
 20
89.145163348546347
 30
0.0
 11
-219.98992995168089
 21
89.145163348546347
 31
0.0
  0
LINE
  5
112
  8
0
  6
CONTINUOUS
 62
     7
 10
-223.18815060349229
 20
95.645163348547285
 30
0.0
 11
-219.98992995167731
 21
95.645163348547285
 31
0.0
  0
LINE
  5
113
  8
0
  6
DASH_CENTER
 62
     1
 10
-225.7393269528483
 20
67.895833119099393
 30
0.0
 11
-216.139326952847
 21
67.895833119099393
 31
0.0
  0
LINE
  5
114
  8
0
  6
DASH_CENTER
 62
     1
 10
-220.93932695284721
 20
72.69583311909868
 30
0.0
 11
-220.93932695284721
 21
63.095833119097392
 31
0.0
  0
LINE
  5
115
  8
0
  6
DASH_CENTER
 62
     1
 10
-216.139326952847
 20
116.8958330277525
 30
0.0
 11
-225.7393269528483
 21
116.8958330277525
 31
0.0
  0
LINE
  5
116
  8
0
  6
DASH_CENTER
 62
     1
 10
-220.93932695284721
 20
121.69583302774809
 30
0.0
 11
-220.93932695284721
 21
112.0958330277505
 31
0.0
  0
LINE
  5
117
  8
0
  6
DASH_CENTER
 62
     1
 10
-289.13932686162201
 20
116.8958330277525
 30
0.0
 11
-298.73932686162522
 21
116.8958330277525
 31
0.0
  0
LINE
  5
118
  8
0
  6
DASH_CENTER
 62
     1
 10
-293.93932686162401
 20
112.0958330277505
 30
0.0
 11
-293.93932686162492
 21
121.69583302774809
 31
0.0
  0
LINE
  5
119
  8
0
  6
DASH_CENTER
 62
     1
 10
-298.73932686162522
 20
67.895833119099393
 30
0.0
 11
-289.13932686162201
 21
67.895833119099393
 31
0.0
  0
LINE
  5
11A
  8
0
  6
DASH_CENTER
 62
     1
 10
-293.93932686162401
 20
63.095833119097392
 30
0.0
 11
-293.93932686162401
 21
72.69583311909868
 31
0.0
  0
LINE
  5
167
  8
0
  6
CONTINUOUS
 62
     7
 10
-142.34994021754989
 20
50.62777335225622
 30
0.0
 11
-138.24988983518921
 21
50.62777335225622
 31
0.0
  0
LINE
  5
168
  8
0
  6
CONTINUOUS
 62
     7
 10
-142.84994021754989
 20
87.992188774767953
 30
0.0
 11
-138.24988983518921
 21
87.992188774767953
 31
0.0
  0
LINE
  5
169
  8
0
  6
CONTINUOUS
 62
     7
 10
-142.84994021754989
 20
96.792188774759964
 30
0.0
 11
-138.24988983518921
 21
96.792188774759964
 31
0.0
  0
LINE
  5
16A
  8
0
  6
CONTINUOUS
 62
     7
 10
-145.14990399906731
 20
133.3007627625382
 30
0.0
 11
-138.04988983518939
 21
133.3007627625382
 31
0.0
  0
LINE
  5
16B
  8
0
  6
CONTINUOUS
 62
     7
 10
-145.14990399906731
 20
133.3007627625382
 30
0.0
 11
-138.04988983518939
 21
133.3007627625382
 31
0.0
  0
LINE
  5
16C
  8
0
  6
CONTINUOUS
 62
     7
 10
-145.34990399906621
 20
131.92912070952539
 30
0.0
 11
-145.34990399906621
 21
133.5037228222225
 31
0.0
  0
LINE
  5
16D
  8
0
  6
CONTINUOUS
 62
     7
 10
-145.14990399906731
 20
131.729120498631
 30
0.0
 11
-142.9075025597518
 21
131.729120498631
 31
0.0
  0
LINE
  5
16E
  8
0
  6
CONTINUOUS
 62
     7
 10
-145.04998101145659
 20
95.642167760222222
 30
0.0
 11
-145.04998101145659
 21
89.142167760220417
 31
0.0
  0
LINE
  5
16F
  8
0
  6
CONTINUOUS
 62
     7
 10
-145.04998101145659
 20
88.941737630258288
 30
0.0
 11
-145.04998101145659
 21
55.564374840831647
 31
0.0
  0
LINE
  5
170
  8
0
  6
CONTINUOUS
 62
     7
 10
-143.088438579795
 20
89.137953695981366
 30
0.0
 11
-144.84955134402259
 21
89.141737168723196
 31
0.0
  0
LINE
  5
171
  8
0
  6
CONTINUOUS
 62
     7
 10
-143.0499402175524
 20
95.641490918901766
 30
0.0
 11
-144.85004869420351
 21
95.642100100374776
 31
0.0
  0
LINE
  5
172
  8
0
  6
CONTINUOUS
 62
     7
 10
-145.04998101145659
 20
128.34948233526629
 30
0.0
 11
-145.04998101145659
 21
126.54948233526611
 31
0.0
  0
LINE
  5
173
  8
0
  6
CONTINUOUS
 62
     7
 10
-144.8500255088907
 20
131.66910785891619
 30
0.0
 11
-143.04998101145659
 21
131.6695083457349
 31
0.0
  0
LINE
  5
174
  8
0
  6
CONTINUOUS
 62
     7
 10
-143.04998101145659
 20
128.54948233526611
 30
0.0
 11
-144.8499810114559
 21
128.54948233526611
 31
0.0
  0
LINE
  5
175
  8
0
  6
CONTINUOUS
 62
     7
 10
-142.84994992682331
 20
131.86950834573659
 30
0.0
 11
-142.84994992682331
 21
132.8007627625382
 31
0.0
  0
LINE
  5
176
  8
0
  6
CONTINUOUS
 62
     7
 10
-143.04998101145659
 20
131.6695083457349
 30
0.0
 11
-143.04994992682219
 21
131.6695083457349
 31
0.0
  0
LINE
  5
177
  8
0
  6
CONTINUOUS
 62
     7
 10
-143.04998101145659
 20
128.54948233526611
 30
0.0
 11
-143.04994992682219
 21
128.54948233526611
 31
0.0
  0
LINE
  5
178
  8
0
  6
CONTINUOUS
 62
     7
 10
-142.84994992682331
 20
130.82534397536861
 30
0.0
 11
-143.6971988096962
 21
130.75121930293119
 31
0.0
  0
LINE
  5
179
  8
0
  6
CONTINUOUS
 62
     7
 10
-142.84994992682331
 20
128.74948233526689
 30
0.0
 11
-142.84994992682331
 21
131.86950834573659
 31
0.0
  0
LINE
  5
17A
  8
0
  6
CONTINUOUS
 62
     7
 10
-145.04998101145659
 20
131.46910786386491
 30
0.0
 11
-145.04998101145659
 21
128.34948233526629
 31
0.0
  0
LINE
  5
17B
  8
0
  6
CONTINUOUS
 62
     7
 10
-143.088438579795
 20
89.137953695981366
 30
0.0
 11
-143.0499402175524
 21
89.138630537300926
 31
0.0
  0
LINE
  5
17C
  8
0
  6
DASH_CENTER
 62
     1
 10
-145.60083517277559
 20
92.395704983141698
 30
0.0
 11
-141.74119883687271
 21
92.395704983141698
 31
0.0
  0
LINE
  5
17D
  8
0
  6
CONTINUOUS
 62
     7
 10
-143.6971988096962
 20
89.722775194393961
 30
0.0
 11
-142.84994992682331
 21
89.648650521955645
 31
0.0
  0
LINE
  5
17E
  8
0
  6
CONTINUOUS
 62
     7
 10
-142.84994992682331
 20
95.148650521955645
 30
0.0
 11
-143.6971988096962
 21
95.074525849517329
 31
0.0
  0
LINE
  5
17F
  8
0
  6
CONTINUOUS
 62
     7
 10
-143.0499402175524
 20
95.641490918901766
 30
0.0
 11
-143.088438579795
 21
95.642167760222222
 31
0.0
  0
LINE
  5
180
  8
0
  6
CONTINUOUS
 62
     7
 10
-142.84994021754989
 20
96.792188774759964
 30
0.0
 11
-142.84994021754989
 21
87.992188774767953
 31
0.0
  0
LINE
  5
181
  8
0
  6
CONTINUOUS
 62
     7
 10
-143.0499402175524
 20
53.564067779837039
 30
0.0
 11
-143.088438579795
 21
53.564744621156592
 31
0.0
  0
LINE
  5
182
  8
0
  6
CONTINUOUS
 62
     7
 10
-142.84994021754989
 20
53.364067779836319
 30
0.0
 11
-142.84994021754989
 21
51.127773352256213
 31
0.0
  0
LINE
  5
183
  8
0
  6
CONTINUOUS
 62
     7
 10
-145.04998101145659
 20
126.54948233526611
 30
0.0
 11
-145.04998101145659
 21
95.842100088924965
 31
0.0
  0
LINE
  5
184
  8
0
  6
CONTINUOUS
 62
     7
 10
-100.3499026263512
 20
48.790930407107503
 30
0.0
 11
-100.3499026263512
 21
136.00054351428139
 31
0.0
  0
LINE
  5
185
  8
0
  6
CONTINUOUS
 62
     7
 10
-106.3499026263512
 20
135.40446449315669
 30
0.0
 11
-106.3499026263512
 21
49.387009428232211
 31
0.0
  0
LINE
  5
186
  8
0
  6
DASH_CENTER
 62
     1
 10
-140.02998101145519
 20
152.3956579786412
 30
0.0
 11
-140.02998101145519
 21
161.48563432890049
 31
0.0
  0
LINE
  5
187
  8
0
  6
CONTINUOUS
 62
     7
 10
-110.3499026263512
 20
71.894878958359399
 30
0.0
 11
-110.8499026263512
 21
71.894878958359399
 31
0.0
  0
LINE
  5
188
  8
0
  6
CONTINUOUS
 62
     7
 10
-110.8499026263512
 20
71.894878958359399
 30
0.0
 11
-110.8499026263512
 21
63.894878958359413
 31
0.0
  0
LINE
  5
189
  8
0
  6
CONTINUOUS
 62
     7
 10
-110.8499026263512
 20
63.894878958359413
 30
0.0
 11
-110.3499026263512
 21
63.894878958359413
 31
0.0
  0
LINE
  5
18A
  8
0
  6
DASH_CENTER
 62
     1
 10
-118.8499026263512
 20
67.894878958359385
 30
0.0
 11
-107.3499026263512
 21
67.894878958359385
 31
0.0
  0
LINE
  5
18B
  8
0
  6
CONTINUOUS
 62
     7
 10
-114.4999026263509
 20
71.394878958359399
 30
0.0
 11
-110.8499026263512
 21
71.394878958359399
 31
0.0
  0
LINE
  5
18C
  8
0
  6
CONTINUOUS
 62
     7
 10
-110.8499026263512
 20
64.394878958359399
 30
0.0
 11
-114.4999026263509
 21
64.394878958359399
 31
0.0
  0
LINE
  5
18D
  8
0
  6
CONTINUOUS
 62
     7
 10
-114.8499026263512
 20
64.744878958359791
 30
0.0
 11
-114.8499026263512
 21
71.044878958359092
 31
0.0
  0
LINE
  5
18E
  8
0
  6
CONTINUOUS
 62
     7
 10
-114.4999026263509
 20
71.394878958359399
 30
0.0
 11
-114.4999026263509
 21
64.394878958359399
 31
0.0
  0
LINE
  5
18F
  8
0
  6
CONTINUOUS
 62
     7
 10
-114.8499026263512
 20
64.744878958359791
 30
0.0
 11
-114.4999026263509
 21
64.394878958359399
 31
0.0
  0
LINE
  5
190
  8
0
  6
CONTINUOUS
 62
     7
 10
-114.4999026263509
 20
71.394878958359399
 30
0.0
 11
-114.8499026263512
 21
71.044878958359092
 31
0.0
  0
LINE
  5
191
  8
0
  6
CONTINUOUS
 62
     7
 10
-114.4999026263509
 20
120.3948788670135
 30
0.0
 11
-114.8499026263512
 21
120.0448788670121
 31
0.0
  0
LINE
  5
192
  8
0
  6
CONTINUOUS
 62
     7
 10
-114.8499026263512
 20
113.7448788670138
 30
0.0
 11
-114.4999026263509
 21
113.3948788670135
 31
0.0
  0
LINE
  5
193
  8
0
  6
CONTINUOUS
 62
     7
 10
-114.4999026263509
 20
120.3948788670135
 30
0.0
 11
-114.4999026263509
 21
113.3948788670135
 31
0.0
  0
LINE
  5
194
  8
0
  6
CONTINUOUS
 62
     7
 10
-114.8499026263512
 20
113.7448788670138
 30
0.0
 11
-114.8499026263512
 21
120.0448788670121
 31
0.0
  0
LINE
  5
195
  8
0
  6
CONTINUOUS
 62
     7
 10
-110.8499026263512
 20
113.3948788670135
 30
0.0
 11
-114.4999026263509
 21
113.3948788670135
 31
0.0
  0
LINE
  5
196
  8
0
  6
CONTINUOUS
 62
     7
 10
-114.4999026263509
 20
120.3948788670135
 30
0.0
 11
-110.8499026263512
 21
120.3948788670135
 31
0.0
  0
LINE
  5
197
  8
0
  6
DASH_CENTER
 62
     1
 10
-118.8499026263512
 20
116.8948788670135
 30
0.0
 11
-107.3499026263512
 21
116.8948788670135
 31
0.0
  0
LINE
  5
198
  8
0
  6
CONTINUOUS
 62
     7
 10
-110.8499026263512
 20
112.8948788670135
 30
0.0
 11
-110.3499026263512
 21
112.8948788670135
 31
0.0
  0
LINE
  5
199
  8
0
  6
CONTINUOUS
 62
     7
 10
-110.8499026263512
 20
120.8948788670135
 30
0.0
 11
-110.8499026263512
 21
112.8948788670135
 31
0.0
  0
LINE
  5
19A
  8
0
  6
CONTINUOUS
 62
     7
 10
-110.3499026263512
 20
120.8948788670135
 30
0.0
 11
-110.8499026263512
 21
120.8948788670135
 31
0.0
  0
LINE
  5
19B
  8
0
  6
CONTINUOUS
 62
     7
 10
-106.3499026263512
 20
135.40446449315669
 30
0.0
 11
-100.8411764231292
 21
135.50061966670759
 31
0.0
  0
LINE
  5
19C
  8
0
  6
CONTINUOUS
 62
     7
 10
-100.8411764231292
 20
133.00061966670759
 30
0.0
 11
-106.3499026263512
 21
132.90446449315669
 31
0.0
  0
LINE
  5
19D
  8
0
  6
CONTINUOUS
 62
     7
 10
-106.3499026263512
 20
51.887009428232211
 30
0.0
 11
-100.8411764231292
 21
51.790854254683211
 31
0.0
  0
LINE
  5
19E
  8
0
  6
CONTINUOUS
 62
     7
 10
-100.8411764231292
 20
49.290854254683211
 30
0.0
 11
-106.3499026263512
 21
49.387009428232211
 31
0.0
  0
LINE
  5
19F
  8
0
  6
CONTINUOUS
 62
     7
 10
-106.3499026263512
 20
97.895854352496201
 30
0.0
 11
-100.3499026263512
 21
97.895854352496201
 31
0.0
  0
LINE
  5
1A0
  8
0
  6
CONTINUOUS
 62
     7
 10
-106.3499026263512
 20
86.894556538636891
 30
0.0
 11
-100.3499026263512
 21
86.894556538636891
 31
0.0
  0
LINE
  5
1A1
  8
0
  6
CONTINUOUS
 62
     7
 10
-145.34990399906621
 20
133.46229852801409
 30
0.0
 11
-145.34988101145569
 21
154.3956579786412
 31
0.0
  0
LINE
  5
1A2
  8
0
  6
CONTINUOUS
 62
     7
 10
-145.34988101145569
 20
154.3956579786412
 30
0.0
 11
-106.1499026263505
 21
154.3956579786412
 31
0.0
  0
LINE
  5
1A3
  8
0
  6
CONTINUOUS
 62
     7
 10
-105.3499810114559
 20
146.64590119662509
 30
0.0
 11
-105.3499810114559
 21
136.09572463607239
 31
0.0
  0
LINE
  5
1A4
  8
0
  6
CONTINUOUS
 62
     7
 10
-110.04990262634919
 20
135.8957246360672
 30
0.0
 11
-105.5499810114548
 21
135.8957246360672
 31
0.0
  0
LINE
  5
1A5
  8
0
  6
CONTINUOUS
 62
     7
 10
-110.54990262634919
 20
135.3957246360672
 30
0.0
 11
-110.54990262634919
 21
132.09572463607239
 31
0.0
  0
LINE
  5
1A6
  8
0
  6
CONTINUOUS
 62
     7
 10
-110.3499026263512
 20
131.8957246360672
 30
0.0
 11
-110.3499026263512
 21
49.39595493447662
 31
0.0
  0
LINE
  5
1A7
  8
0
  6
CONTINUOUS
 62
     7
 10
-110.3499026263512
 20
49.39595493447662
 30
0.0
 11
-137.84988983518869
 21
50.794482165070072
 31
0.0
  0
LINE
  5
1A8
  8
0
  6
CONTINUOUS
 62
     7
 10
-137.84988983518869
 20
50.794482165070072
 30
0.0
 11
-137.84988983518869
 21
133.06229831711809
 31
0.0
  0
LINE
  5
1A9
  8
0
  6
CONTINUOUS
 62
     7
 10
-110.3499026263512
 20
131.8957246360672
 30
0.0
 11
-110.3499026263512
 21
135.10094879970379
 31
0.0
  0
LINE
  5
1AA
  8
0
  6
CONTINUOUS
 62
     7
 10
-108.3499026263512
 20
135.43066810849751
 30
0.0
 11
-110.04990262634919
 21
135.3957246360672
 31
0.0
  0
LINE
  5
1AB
  8
0
  6
CONTINUOUS
 62
     7
 10
-108.3499026263512
 20
135.43066810849751
 30
0.0
 11
-106.3499026263512
 21
135.39575797863949
 31
0.0
  0
LINE
  5
1AC
  8
0
  6
CONTINUOUS
 62
     7
 10
-110.0551383482812
 20
132.90090310825079
 30
0.0
 11
-108.3499026263512
 21
132.93066810849751
 31
0.0
  0
LINE
  5
1AD
  8
0
  6
CONTINUOUS
 62
     7
 10
-108.3499026263512
 20
132.93066810849751
 30
0.0
 11
-106.3499026263512
 21
132.89575797863949
 31
0.0
  0
LINE
  5
1AE
  8
0
  6
CONTINUOUS
 62
     7
 10
-106.3499026263512
 20
49.395757978638592
 30
0.0
 11
-108.3499026263512
 21
49.360847848782498
 31
0.0
  0
LINE
  5
1AF
  8
0
  6
CONTINUOUS
 62
     7
 10
-108.3499026263512
 20
49.360847848782498
 30
0.0
 11
-110.0551383482812
 21
49.39061284902921
 31
0.0
  0
LINE
  5
1B0
  8
0
  6
CONTINUOUS
 62
     7
 10
-110.0551383482812
 20
51.89061284902921
 30
0.0
 11
-108.3499026263512
 21
51.860847848782498
 31
0.0
  0
LINE
  5
1B1
  8
0
  6
CONTINUOUS
 62
     7
 10
-108.3499026263512
 20
51.860847848782498
 30
0.0
 11
-106.3499026263512
 21
51.895757978638592
 31
0.0
  0
LINE
  5
1B2
  8
0
  6
CONTINUOUS
 62
     7
 10
-110.3499026263512
 20
97.894577556580998
 30
0.0
 11
-106.3499026263512
 21
97.894577556580998
 31
0.0
  0
LINE
  5
1B3
  8
0
  6
CONTINUOUS
 62
     7
 10
-110.3499026263512
 20
86.894577556580998
 30
0.0
 11
-106.3499026263512
 21
86.894577556580998
 31
0.0
  0
LINE
  5
1B4
  8
0
  6
CONTINUOUS
 62
     7
 10
-138.24988983518921
 20
133.26229831711979
 30
0.0
 11
-138.24988983518921
 21
51.195757978639669
 31
0.0
  0
LINE
  5
1B5
  8
0
  6
CONTINUOUS
 62
     7
 10
-138.24988983518921
 20
51.195757978639669
 30
0.0
 11
-137.84988983518869
 21
51.195757978639669
 31
0.0
  0
LINE
  5
1B6
  8
0
  6
CONTINUOUS
 62
     7
 10
-138.24988983518921
 20
50.794482165070967
 30
0.0
 11
-138.24988983518921
 21
51.195757978639669
 31
0.0
  0
LINE
  5
1B7
  8
0
  6
CONTINUOUS
 62
     7
 10
-144.3499810114559
 20
154.3956590679521
 30
0.0
 11
-144.3499810114559
 21
155.0955883526961
 31
0.0
  0
LINE
  5
1B8
  8
0
  6
CONTINUOUS
 62
     7
 10
-144.4000810114554
 20
155.09558808970479
 30
0.0
 11
-106.29998102819221
 21
155.09578809075569
 31
0.0
  0
LINE
  5
1B9
  8
0
  6
CONTINUOUS
 62
     7
 10
-106.3499810114559
 20
154.3956590679521
 30
0.0
 11
-106.3499810114559
 21
155.0957878282891
 31
0.0
  0
LINE
  5
1BA
  8
0
  6
CONTINUOUS
 62
     7
 10
-106.30018101145519
 20
157.4856343288987
 30
0.0
 11
-106.29998102819221
 21
155.09578809075569
 31
0.0
  0
LINE
  5
1BB
  8
0
  6
CONTINUOUS
 62
     7
 10
-106.30018101145519
 20
157.4856343288987
 30
0.0
 11
-144.4000810114554
 21
157.4856343288987
 31
0.0
  0
LINE
  5
1BC
  8
0
  6
CONTINUOUS
 62
     7
 10
-144.4000810114554
 20
157.4856343288987
 30
0.0
 11
-144.4000810114554
 21
155.09558808970479
 31
0.0
  0
LINE
  5
1BD
  8
0
  6
CONTINUOUS
 62
     7
 10
-142.70585633901879
 20
158.3328832117752
 30
0.0
 11
-142.77998101145531
 21
157.48563432890049
 31
0.0
  0
LINE
  5
1BE
  8
0
  6
CONTINUOUS
 62
     7
 10
-137.27998101145619
 20
157.48563432890049
 30
0.0
 11
-137.3541056838927
 21
158.3328832117752
 31
0.0
  0
LINE
  5
1BF
  8
0
  6
CONTINUOUS
 62
     7
 10
-113.3459563390184
 20
158.3328832117752
 30
0.0
 11
-113.4200810114549
 21
157.48563432890049
 31
0.0
  0
LINE
  5
1C0
  8
0
  6
CONTINUOUS
 62
     7
 10
-107.9200810114549
 20
157.48563432890049
 30
0.0
 11
-107.99420568389139
 21
158.3328832117752
 31
0.0
  0
LINE
  5
1C1
  8
0
  6
DASH_CENTER
 62
     1
 10
-110.6700810114549
 20
152.3956579786412
 30
0.0
 11
-110.6700810114549
 21
161.48563432890049
 31
0.0
  0
LINE
  5
1C2
  8
0
  6
CONTINUOUS
 62
     7
 10
-141.2249810114559
 20
166.09563432889809
 30
0.0
 11
-141.2249810114559
 21
159.38287834372139
 31
0.0
  0
LINE
  5
1C3
  8
0
  6
CONTINUOUS
 62
     7
 10
-109.4749810114559
 20
166.09560224852541
 30
0.0
 11
-109.4749810114559
 21
159.38286101721519
 31
0.0
  0
LINE
  5
1C4
  8
0
  6
DASH_CENTER
 62
     1
 10
-125.3499810114559
 20
152.3956579786412
 30
0.0
 11
-125.3499810114559
 21
178.53563432889879
 31
0.0
  0
LINE
  5
1C5
  8
0
  6
CONTINUOUS
 62
     7
 10
-110.3499026263512
 20
86.894577556580998
 30
0.0
 11
-137.84988983518869
 21
88.293104787171885
 31
0.0
  0
LINE
  5
1C6
  8
0
  6
CONTINUOUS
 62
     7
 10
-137.8498884343586
 20
96.498410298156415
 30
0.0
 11
-110.3499007480018
 21
97.896928139011209
 31
0.0
  0
LINE
  5
1C7
  8
0
  6
CONTINUOUS
 62
     7
 10
-137.84988983518869
 20
126.45737429164301
 30
0.0
 11
-110.3499026263512
 21
127.8559015222347
 31
0.0
  0
LINE
  5
1C8
  8
0
  6
CONTINUOUS
 62
     7
 10
-141.22503101145509
 20
166.09563432889809
 30
0.0
 11
-140.22503101145509
 21
167.0956343288982
 31
0.0
  0
LINE
  5
1C9
  8
0
  6
CONTINUOUS
 62
     7
 10
-140.22503101145509
 20
167.0956343288982
 30
0.0
 11
-140.22503101145509
 21
176.03563432889879
 31
0.0
  0
LINE
  5
1CA
  8
0
  6
CONTINUOUS
 62
     7
 10
-140.22503101145509
 20
167.0956343288982
 30
0.0
 11
-125.3500310114551
 21
167.0956343288982
 31
0.0
  0
LINE
  5
1CB
  8
0
  6
CONTINUOUS
 62
     7
 10
-125.3500310114551
 20
166.09563432889809
 30
0.0
 11
-141.22503101145509
 21
166.09563432889809
 31
0.0
  0
LINE
  5
1CC
  8
0
  6
CONTINUOUS
 62
     7
 10
-125.3500310114551
 20
176.53563432889879
 30
0.0
 11
-139.72503101145509
 21
176.53563432889879
 31
0.0
  0
LINE
  5
1CD
  8
0
  6
CONTINUOUS
 62
     7
 10
-140.22503101145509
 20
176.03563432889879
 30
0.0
 11
-139.72503101145509
 21
176.53563432889879
 31
0.0
  0
LINE
  5
1CE
  8
0
  6
CONTINUOUS
 62
     7
 10
-137.19807742924431
 20
176.53563432889879
 30
0.0
 11
-125.3500310114551
 21
176.14981616349101
 31
0.0
  0
LINE
  5
1CF
  8
0
  6
CONTINUOUS
 62
     7
 10
-136.78755410038789
 20
171.18909304154579
 30
0.0
 11
-138.9693112796113
 21
171.18909304154579
 31
0.0
  0
LINE
  5
1D0
  8
0
  6
CONTINUOUS
 62
     7
 10
-140.22503101145509
 20
169.69258453983019
 30
0.0
 11
-138.9693112796113
 21
171.18909304154579
 31
0.0
  0
LINE
  5
1D1
  8
0
  6
CONTINUOUS
 62
     7
 10
-125.3500310114551
 20
176.14981616349101
 30
0.0
 11
-125.3500310114551
 21
175.6764768453215
 31
0.0
  0
LINE
  5
1D2
  8
0
  6
CONTINUOUS
 62
     7
 10
-125.3500310114551
 20
175.6764768453215
 30
0.0
 11
-136.78755410038789
 21
171.18909304154579
 31
0.0
  0
LINE
  5
1D3
  8
0
  6
CONTINUOUS
 62
     7
 10
-125.35003101145701
 20
175.6764768453215
 30
0.0
 11
-125.35003101145701
 21
176.14981616349101
 31
0.0
  0
LINE
  5
1D4
  8
0
  6
CONTINUOUS
 62
     7
 10
-110.97503101145701
 20
176.53563432889879
 30
0.0
 11
-110.47503101145701
 21
176.03563432889879
 31
0.0
  0
LINE
  5
1D5
  8
0
  6
CONTINUOUS
 62
     7
 10
-110.97503101145701
 20
176.53563432889879
 30
0.0
 11
-125.35003101145701
 21
176.53563432889879
 31
0.0
  0
LINE
  5
1D6
  8
0
  6
CONTINUOUS
 62
     7
 10
-109.47503101145701
 20
166.09563432889809
 30
0.0
 11
-125.35003101145701
 21
166.09563432889809
 31
0.0
  0
LINE
  5
1D7
  8
0
  6
CONTINUOUS
 62
     7
 10
-125.35003101145701
 20
167.0956343288982
 30
0.0
 11
-110.47503101145701
 21
167.0956343288982
 31
0.0
  0
LINE
  5
1D8
  8
0
  6
CONTINUOUS
 62
     7
 10
-110.47503101145701
 20
176.03563432889879
 30
0.0
 11
-110.47503101145701
 21
167.0956343288982
 31
0.0
  0
LINE
  5
1D9
  8
0
  6
CONTINUOUS
 62
     7
 10
-110.47503101145701
 20
167.0956343288982
 30
0.0
 11
-109.47503101145701
 21
166.09563432889809
 31
0.0
  0
LINE
  5
1DA
  8
0
  6
CONTINUOUS
 62
     7
 10
-114.6432933292491
 20
176.53563115966611
 30
0.0
 11
-138.70413204527279
 21
167.0956311596639
 31
0.0
  0
LINE
  5
1DB
  8
0
  6
CONTINUOUS
 62
     7
 10
-117.91253101145701
 20
168.0842268369189
 30
0.0
 11
-117.91253101145701
 21
167.8456311596639
 31
0.0
  0
LINE
  5
1DC
  8
0
  6
CONTINUOUS
 62
     7
 10
-110.4750310114587
 20
171.51365080264731
 30
0.0
 11
-117.436456734853
 21
168.7824135584053
 31
0.0
  0
LINE
  5
1DD
  8
0
  6
CONTINUOUS
 62
     7
 10
-242.56432690723881
 20
171.5136945373084
 30
0.0
 11
-249.52575263063309
 21
168.78245729306639
 31
0.0
  0
LINE
  5
1DE
  8
0
  6
CONTINUOUS
 62
     7
 10
-250.00182690723699
 20
168.08427057157999
 30
0.0
 11
-250.00182690723699
 21
167.84567489432499
 31
0.0
  0
LINE
  5
1DF
  8
0
  6
CONTINUOUS
 62
     7
 10
-246.7325892250291
 20
176.53567489432729
 30
0.0
 11
-270.79342794105281
 21
167.09567489432499
 31
0.0
  0
LINE
  5
1E0
  8
0
  6
CONTINUOUS
 62
     7
 10
-242.56432690723699
 20
167.09567806355929
 30
0.0
 11
-241.56432690723699
 21
166.09567806355929
 31
0.0
  0
LINE
  5
1E1
  8
0
  6
CONTINUOUS
 62
     7
 10
-242.56432690723699
 20
176.03567806355991
 30
0.0
 11
-242.56432690723699
 21
167.09567806355929
 31
0.0
  0
LINE
  5
1E2
  8
0
  6
CONTINUOUS
 62
     7
 10
-257.43932690723699
 20
167.09567806355929
 30
0.0
 11
-242.56432690723699
 21
167.09567806355929
 31
0.0
  0
LINE
  5
1E3
  8
0
  6
CONTINUOUS
 62
     7
 10
-241.56432690723699
 20
166.09567806355929
 30
0.0
 11
-257.43932690723699
 21
166.09567806355929
 31
0.0
  0
LINE
  5
1E4
  8
0
  6
CONTINUOUS
 62
     7
 10
-243.06432690723699
 20
176.53567806355991
 30
0.0
 11
-257.43932690723699
 21
176.53567806355991
 31
0.0
  0
LINE
  5
1E5
  8
0
  6
CONTINUOUS
 62
     7
 10
-243.06432690723699
 20
176.53567806355991
 30
0.0
 11
-242.56432690723699
 21
176.03567806355991
 31
0.0
  0
LINE
  5
1E6
  8
0
  6
CONTINUOUS
 62
     7
 10
-257.43932690723699
 20
175.67652057998251
 30
0.0
 11
-257.43932690723699
 21
176.1498598981521
 31
0.0
  0
LINE
  5
1E7
  8
0
  6
CONTINUOUS
 62
     7
 10
-257.43932690723511
 20
175.67652057998251
 30
0.0
 11
-268.87684999616789
 21
171.18913677620691
 31
0.0
  0
LINE
  5
1E8
  8
0
  6
CONTINUOUS
 62
     7
 10
-257.43932690723511
 20
176.1498598981521
 30
0.0
 11
-257.43932690723511
 21
175.67652057998251
 31
0.0
  0
LINE
  5
1E9
  8
0
  6
CONTINUOUS
 62
     7
 10
-272.31432690723511
 20
169.69262827449131
 30
0.0
 11
-271.05860717539127
 21
171.18913677620691
 31
0.0
  0
LINE
  5
1EA
  8
0
  6
CONTINUOUS
 62
     7
 10
-268.87684999616789
 20
171.18913677620691
 30
0.0
 11
-271.05860717539127
 21
171.18913677620691
 31
0.0
  0
LINE
  5
1EB
  8
0
  6
CONTINUOUS
 62
     7
 10
-269.2873733250243
 20
176.53567806355991
 30
0.0
 11
-257.43932690723511
 21
176.1498598981521
 31
0.0
  0
LINE
  5
1EC
  8
0
  6
CONTINUOUS
 62
     7
 10
-272.31432690723511
 20
176.03567806355991
 30
0.0
 11
-271.81432690723511
 21
176.53567806355991
 31
0.0
  0
LINE
  5
1ED
  8
0
  6
CONTINUOUS
 62
     7
 10
-257.43932690723511
 20
176.53567806355991
 30
0.0
 11
-271.81432690723511
 21
176.53567806355991
 31
0.0
  0
LINE
  5
1EE
  8
0
  6
CONTINUOUS
 62
     7
 10
-257.43932690723511
 20
166.09567806355929
 30
0.0
 11
-273.31432690723511
 21
166.09567806355929
 31
0.0
  0
LINE
  5
1EF
  8
0
  6
CONTINUOUS
 62
     7
 10
-272.31432690723511
 20
167.09567806355929
 30
0.0
 11
-257.43932690723511
 21
167.09567806355929
 31
0.0
  0
LINE
  5
1F0
  8
0
  6
CONTINUOUS
 62
     7
 10
-272.31432690723511
 20
167.09567806355929
 30
0.0
 11
-272.31432690723511
 21
176.03567806355991
 31
0.0
  0
LINE
  5
1F1
  8
0
  6
CONTINUOUS
 62
     7
 10
-273.31432690723511
 20
166.09567806355929
 30
0.0
 11
-272.31432690723511
 21
167.09567806355929
 31
0.0
  0
LINE
  5
1F2
  8
0
  6
CONTINUOUS
 62
     7
 10
-284.99725439476231
 20
158.69583307337379
 30
0.0
 11
-274.69190491266028
 21
158.69583307337379
 31
0.0
  0
LINE
  5
1F3
  8
0
  6
CONTINUOUS
 62
     7
 10
-257.49725439476322
 20
193.19583307337379
 30
0.0
 11
-232.4758574882415
 21
193.19583307337379
 31
0.0
  0
LINE
  5
1F4
  8
0
  6
CONTINUOUS
 62
     7
 10
-229.99725439476319
 20
158.69583307336649
 30
0.0
 11
-229.99725439476319
 21
157.69583307336649
 31
0.0
  0
LINE
  5
1F5
  8
0
  6
CONTINUOUS
 62
     7
 10
-230.49725439476319
 20
157.69583307336649
 30
0.0
 11
-229.99725439476319
 21
157.69583307336649
 31
0.0
  0
LINE
  5
1F6
  8
0
  6
CONTINUOUS
 62
     7
 10
-230.50156473959291
 20
158.69583307337379
 30
0.0
 11
-230.97601228987949
 21
191.7173825733513
 31
0.0
  0
LINE
  5
1F7
  8
0
  6
CONTINUOUS
 62
     7
 10
-282.5186513012876
 20
193.19583307337379
 30
0.0
 11
-257.49725439476322
 21
193.19583307337379
 31
0.0
  0
LINE
  5
1F8
  8
0
  6
CONTINUOUS
 62
     7
 10
-284.9972543947631
 20
157.69583307336649
 30
0.0
 11
-284.9972543947631
 21
158.69583307336649
 31
0.0
  0
LINE
  5
1F9
  8
0
  6
CONTINUOUS
 62
     7
 10
-284.9972543947668
 20
157.69583307336649
 30
0.0
 11
-284.49725439476322
 21
157.69583307336649
 31
0.0
  0
LINE
  5
1FA
  8
0
  6
CONTINUOUS
 62
     7
 10
-284.01849649964959
 20
191.7173825733513
 30
0.0
 11
-284.49294404993623
 21
158.69583307337379
 31
0.0
  0
LINE
  5
1FB
  8
0
  6
DASH_CENTER
 62
     1
 10
-278.9972543947631
 20
189.69583307337379
 30
0.0
 11
-278.9972543947631
 21
195.44053307337131
 31
0.0
  0
LINE
  5
1FC
  8
0
  6
DASH_CENTER
 62
     1
 10
-235.99725439476319
 20
189.69583307337379
 30
0.0
 11
-235.99725439476319
 21
195.44053307337131
 31
0.0
  0
LINE
  5
1FD
  8
0
  6
CONTINUOUS
 62
     7
 10
-284.35240513255729
 20
157.69583307336649
 30
0.0
 11
-277.554005580362
 21
157.69583307336649
 31
0.0
  0
LINE
  5
1FE
  8
0
  6
CONTINUOUS
 62
     7
 10
-237.554005580362
 20
157.69583307336649
 30
0.0
 11
-230.75795863202239
 21
157.69583307336649
 31
0.0
  0
LINE
  5
1FF
  8
0
  6
CONTINUOUS
 62
     7
 10
-240.18674890181109
 20
158.69583307337379
 30
0.0
 11
-229.99725439476319
 21
158.69583307337379
 31
0.0
  0
LINE
  5
200
  8
0
  6
CONTINUOUS
 62
     7
 10
-241.5574905092661
 20
208.74583307337221
 30
0.0
 11
-273.5429129461653
 21
208.74583307337309
 31
0.0
  0
LINE
  5
201
  8
0
  6
CONTINUOUS
 62
     7
 10
-240.0574905092661
 20
198.30583307337071
 30
0.0
 11
-240.02644555179339
 21
193.19583307337379
 31
0.0
  0
LINE
  5
202
  8
0
  6
CONTINUOUS
 62
     7
 10
-275.08391821278911
 20
193.19583307337379
 30
0.0
 11
-275.05287325531651
 21
198.30583307337071
 31
0.0
  0
LINE
  5
203
  8
0
  6
CONTINUOUS
 62
     7
 10
-274.05287325531651
 20
199.30583307337071
 30
0.0
 11
-274.05287325531651
 21
208.24583307337221
 31
0.0
  0
LINE
  5
204
  8
0
  6
CONTINUOUS
 62
     7
 10
-241.0574905092661
 20
208.24583307337221
 30
0.0
 11
-241.05749050926971
 21
199.30583307337071
 31
0.0
  0
LINE
  5
205
  8
0
  6
CONTINUOUS
 62
     7
 10
-241.5574905092661
 20
208.74583307337221
 30
0.0
 11
-273.55287325531651
 21
208.74583307337221
 31
0.0
  0
LINE
  5
206
  8
0
  6
CONTINUOUS
 62
     7
 10
-274.05287325531651
 20
208.24583307337221
 30
0.0
 11
-273.55287325531651
 21
208.74583307337221
 31
0.0
  0
LINE
  5
207
  8
0
  6
CONTINUOUS
 62
     7
 10
-241.0574905092661
 20
208.24583307337221
 30
0.0
 11
-241.5574905092661
 21
208.74583307337221
 31
0.0
  0
LINE
  5
208
  8
0
  6
CONTINUOUS
 62
     7
 10
-271.0259196731057
 20
208.74583307337221
 30
0.0
 11
-257.61310936981761
 21
208.3600149079644
 31
0.0
  0
LINE
  5
209
  8
0
  6
CONTINUOUS
 62
     7
 10
-270.615396344251
 20
203.39929178601921
 30
0.0
 11
-272.7971535234754
 21
203.39929178601921
 31
0.0
  0
LINE
  5
20A
  8
0
  6
CONTINUOUS
 62
     7
 10
-274.05287325531651
 20
201.90278328430361
 30
0.0
 11
-272.7971535234754
 21
203.39929178601921
 31
0.0
  0
LINE
  5
20B
  8
0
  6
CONTINUOUS
 62
     7
 10
-245.2257528270591
 20
208.74583307337221
 30
0.0
 11
-272.53197428913319
 21
199.30583307337071
 31
0.0
  0
LINE
  5
20C
  8
0
  6
CONTINUOUS
 62
     7
 10
-257.61310936981761
 20
208.3600149079644
 30
0.0
 11
-257.61310936981761
 21
207.88667558979489
 31
0.0
  0
LINE
  5
20D
  8
0
  6
CONTINUOUS
 62
     7
 10
-257.61310936981761
 20
207.88667558979489
 30
0.0
 11
-270.615396344251
 21
203.39929178601921
 31
0.0
  0
LINE
  5
20E
  8
0
  6
CONTINUOUS
 62
     7
 10
-241.0574905092688
 20
203.72385271635321
 30
0.0
 11
-248.01891623266309
 21
200.99261547211211
 31
0.0
  0
LINE
  5
20F
  8
0
  6
CONTINUOUS
 62
     7
 10
-275.05287325531651
 20
198.30583307337071
 30
0.0
 11
-274.05287325531651
 21
199.30583307337071
 31
0.0
  0
LINE
  5
210
  8
0
  6
CONTINUOUS
 62
     7
 10
-241.05749050926971
 20
199.30583307337071
 30
0.0
 11
-240.0574905092661
 21
198.30583307337071
 31
0.0
  0
LINE
  5
211
  8
0
  6
CONTINUOUS
 62
     7
 10
-274.05287325531651
 20
199.30583307337071
 30
0.0
 11
-247.7449905092661
 21
199.30583307337071
 31
0.0
  0
LINE
  5
212
  8
0
  6
CONTINUOUS
 62
     7
 10
-240.0574905092661
 20
198.30583307337071
 30
0.0
 11
-275.05287325531651
 21
198.30583307337071
 31
0.0
  0
LINE
  5
213
  8
0
  6
CONTINUOUS
 62
     7
 10
-241.05749050926971
 20
199.30583307337071
 30
0.0
 11
-240.0574905092661
 21
198.30583307337071
 31
0.0
  0
LINE
  5
214
  8
0
  6
CONTINUOUS
 62
     7
 10
-248.4949905092661
 20
200.2944287506258
 30
0.0
 11
-248.4949905092661
 21
200.05583307337071
 31
0.0
  0
LINE
  5
215
  8
0
  6
CONTINUOUS
 62
     7
 10
-247.7449905092661
 20
199.30583307337071
 30
0.0
 11
-241.05749050926971
 21
199.30583307337071
 31
0.0
  0
LINE
  5
216
  8
0
  6
DASH_CENTER
 62
     1
 10
-105.7499026263509
 20
150.89590119662509
 30
0.0
 11
-97.849902626351238
 21
150.89590119662509
 31
0.0
  0
LINE
  5
217
  8
0
  6
DASH_CENTER
 62
     1
 10
-106.1499026263505
 20
150.89590119662509
 30
0.0
 11
-105.7499026263509
 21
150.89590119662509
 31
0.0
  0
LINE
  5
218
  8
0
  6
CONTINUOUS
 62
     7
 10
-106.1499026263505
 20
147.04590119662569
 30
0.0
 11
-105.7499026263509
 21
146.64590119662509
 31
0.0
  0
LINE
  5
219
  8
0
  6
CONTINUOUS
 62
     7
 10
-106.1499026263505
 20
147.04590119662569
 30
0.0
 11
-105.7499026263509
 21
146.64590119662509
 31
0.0
  0
LINE
  5
21A
  8
0
  6
CONTINUOUS
 62
     7
 10
-106.1499026263505
 20
147.04590119662569
 30
0.0
 11
-106.1499026263505
 21
150.89590119662509
 31
0.0
  0
LINE
  5
21B
  8
0
  6
CONTINUOUS
 62
     7
 10
-105.7499026263509
 20
150.89590119662509
 30
0.0
 11
-105.7499026263509
 21
146.64590119662509
 31
0.0
  0
LINE
  5
21C
  8
0
  6
CONTINUOUS
 62
     7
 10
-49.475087705544141
 20
208.44590178840249
 30
0.0
 11
-79.225087705544141
 21
208.44590178840249
 31
0.0
  0
LINE
  5
21D
  8
0
  6
DASH_CENTER
 62
     1
 10
102.3811138405715
 20
92.395868123251276
 30
0.0
 11
-150.04998101145671
 21
92.395699824889277
 31
0.0
  0
LINE
  5
21E
  8
0
  6
CONTINUOUS
 62
     7
 10
-105.7499026263509
 20
155.14590119662509
 30
0.0
 11
-105.7499026263509
 21
150.89590119662509
 31
0.0
  0
LINE
  5
21F
  8
0
  6
CONTINUOUS
 62
     7
 10
-101.1499026263505
 20
146.64590119662509
 30
0.0
 11
-105.7499026263509
 21
146.64590119662509
 31
0.0
  0
LINE
  5
220
  8
0
  6
CONTINUOUS
 62
     7
 10
-106.1499026263505
 20
150.89590119662509
 30
0.0
 11
-106.1499026263505
 21
154.74590119662449
 31
0.0
  0
LINE
  5
221
  8
0
  6
CONTINUOUS
 62
     7
 10
-100.3499026263512
 20
148.39574073470661
 30
0.0
 11
-100.3499026263512
 21
145.94574073470599
 31
0.0
  0
LINE
  5
222
  8
0
  6
CONTINUOUS
 62
     7
 10
-101.1499026263505
 20
150.89590119662509
 30
0.0
 11
-101.1499026263505
 21
155.14590119662509
 31
0.0
  0
LINE
  5
223
  8
0
  6
CONTINUOUS
 62
     7
 10
-101.1499026263505
 20
146.64590119662509
 30
0.0
 11
-105.3499810114559
 21
146.64590119662509
 31
0.0
  0
LINE
  5
224
  8
0
  6
CONTINUOUS
 62
     7
 10
-105.7499026263509
 20
155.14590119662509
 30
0.0
 11
-101.1499026263505
 21
155.14590119662509
 31
0.0
  0
LINE
  5
225
  8
0
  6
CONTINUOUS
 62
     7
 10
-105.7499026263509
 20
155.14590119662509
 30
0.0
 11
-106.1499026263505
 21
154.74590119662449
 31
0.0
  0
LINE
  5
226
  8
0
  6
CONTINUOUS
 62
     7
 10
-101.1499026263505
 20
146.64590119662509
 30
0.0
 11
-101.1499026263505
 21
150.89590119662509
 31
0.0
  0
LINE
  5
227
  8
0
  6
CONTINUOUS
 62
     7
 10
-101.1499026263505
 20
150.89590119662509
 30
0.0
 11
-101.1499026263505
 21
155.14590119662509
 31
0.0
  0
LINE
  5
228
  8
0
  6
CONTINUOUS
 62
     7
 10
-105.7499026263509
 20
155.14590119662509
 30
0.0
 11
-101.1499026263505
 21
155.14590119662509
 31
0.0
  0
LINE
  5
229
  8
0
  6
CONTINUOUS
 62
     7
 10
-105.7499026263509
 20
155.14590119662509
 30
0.0
 11
-106.1499026263505
 21
154.74590119662449
 31
0.0
  0
LINE
  5
22A
  8
0
  6
CONTINUOUS
 62
     7
 10
-101.1499026263505
 20
146.64590119662509
 30
0.0
 11
-101.1499026263505
 21
150.89590119662509
 31
0.0
  0
LINE
  5
22B
  8
0
  6
CONTINUOUS
 62
     7
 10
-101.1499026263505
 20
145.89590119662509
 30
0.0
 11
-101.1499026263505
 21
155.89590119662509
 31
0.0
  0
LINE
  5
22C
  8
0
  6
CONTINUOUS
 62
     7
 10
-100.3499026263512
 20
145.89590119662509
 30
0.0
 11
-101.1499026263505
 21
145.89590119662509
 31
0.0
  0
LINE
  5
22D
  8
0
  6
CONTINUOUS
 62
     7
 10
-100.3499026263512
 20
155.89590119662509
 30
0.0
 11
-101.1499026263505
 21
155.89590119662509
 31
0.0
  0
LINE
  5
22E
  8
0
  6
CONTINUOUS
 62
     7
 10
-100.3499026263512
 20
62.395901196625061
 30
0.0
 11
-101.1499026263505
 21
62.395901196625061
 31
0.0
  0
LINE
  5
22F
  8
0
  6
CONTINUOUS
 62
     7
 10
-100.3499026263512
 20
52.395901196625061
 30
0.0
 11
-101.1499026263505
 21
52.395901196625061
 31
0.0
  0
LINE
  5
230
  8
0
  6
CONTINUOUS
 62
     7
 10
-101.1499026263505
 20
52.395901196625061
 30
0.0
 11
-101.1499026263505
 21
62.395901196625061
 31
0.0
  0
LINE
  5
231
  8
0
  6
CONTINUOUS
 62
     7
 10
-101.1499026263505
 20
53.145901196625061
 30
0.0
 11
-101.1499026263505
 21
57.395901196625061
 31
0.0
  0
LINE
  5
232
  8
0
  6
CONTINUOUS
 62
     7
 10
-106.1499026263505
 20
53.545901196624641
 30
0.0
 11
-105.7499026263509
 21
53.145901196625061
 31
0.0
  0
LINE
  5
233
  8
0
  6
CONTINUOUS
 62
     7
 10
-105.7499026263509
 20
61.645901196625061
 30
0.0
 11
-106.1499026263505
 21
61.245901196624459
 31
0.0
  0
LINE
  5
234
  8
0
  6
CONTINUOUS
 62
     7
 10
-105.7499026263509
 20
61.645901196625061
 30
0.0
 11
-105.7499026263509
 21
53.145901196625061
 31
0.0
  0
LINE
  5
235
  8
0
  6
CONTINUOUS
 62
     7
 10
-106.1499026263505
 20
53.545901196624641
 30
0.0
 11
-106.1499026263505
 21
61.245901196624459
 31
0.0
  0
LINE
  5
236
  8
0
  6
CONTINUOUS
 62
     7
 10
-105.7499026263509
 20
61.645901196625061
 30
0.0
 11
-101.1499026263505
 21
61.645901196625061
 31
0.0
  0
LINE
  5
237
  8
0
  6
CONTINUOUS
 62
     7
 10
-101.1499026263505
 20
53.145901196625061
 30
0.0
 11
-105.7499026263509
 21
53.145901196625061
 31
0.0
  0
LINE
  5
238
  8
0
  6
CONTINUOUS
 62
     7
 10
-101.1499026263505
 20
57.395901196625061
 30
0.0
 11
-101.1499026263505
 21
61.645901196625061
 31
0.0
  0
LINE
  5
239
  8
0
  6
CONTINUOUS
 62
     7
 10
-101.1499026263505
 20
53.145901196625061
 30
0.0
 11
-101.1499026263505
 21
57.395901196625061
 31
0.0
  0
LINE
  5
23A
  8
0
  6
CONTINUOUS
 62
     7
 10
-106.1499026263505
 20
53.545901196624641
 30
0.0
 11
-105.7499026263509
 21
53.145901196625061
 31
0.0
  0
LINE
  5
23B
  8
0
  6
CONTINUOUS
 62
     7
 10
-105.7499026263509
 20
61.645901196625061
 30
0.0
 11
-106.1499026263505
 21
61.245901196624459
 31
0.0
  0
LINE
  5
23C
  8
0
  6
CONTINUOUS
 62
     7
 10
-105.7499026263509
 20
61.645901196625061
 30
0.0
 11
-105.7499026263509
 21
53.145901196625061
 31
0.0
  0
LINE
  5
23D
  8
0
  6
CONTINUOUS
 62
     7
 10
-106.1499026263505
 20
53.545901196624641
 30
0.0
 11
-106.1499026263505
 21
61.245901196624459
 31
0.0
  0
LINE
  5
23E
  8
0
  6
CONTINUOUS
 62
     7
 10
-105.7499026263509
 20
61.645901196625061
 30
0.0
 11
-101.1499026263505
 21
61.645901196625061
 31
0.0
  0
LINE
  5
23F
  8
0
  6
CONTINUOUS
 62
     7
 10
-101.1499026263505
 20
53.145901196625061
 30
0.0
 11
-105.7499026263509
 21
53.145901196625061
 31
0.0
  0
LINE
  5
240
  8
0
  6
CONTINUOUS
 62
     7
 10
-101.1499026263505
 20
57.395901196625061
 30
0.0
 11
-101.1499026263505
 21
61.645901196625061
 31
0.0
  0
LINE
  5
241
  8
0
  6
CONTINUOUS
 62
     7
 10
-101.1499026263505
 20
33.895901196625061
 30
0.0
 11
-101.1499026263505
 21
38.145901196625061
 31
0.0
  0
LINE
  5
242
  8
0
  6
CONTINUOUS
 62
     7
 10
-101.1499026263505
 20
29.645901196625061
 30
0.0
 11
-105.7499026263509
 21
29.645901196625061
 31
0.0
  0
LINE
  5
243
  8
0
  6
CONTINUOUS
 62
     7
 10
-105.7499026263509
 20
38.145901196625061
 30
0.0
 11
-101.1499026263505
 21
38.145901196625061
 31
0.0
  0
LINE
  5
244
  8
0
  6
CONTINUOUS
 62
     7
 10
-106.1499026263505
 20
30.045901196624641
 30
0.0
 11
-106.1499026263505
 21
37.745901196624459
 31
0.0
  0
LINE
  5
245
  8
0
  6
CONTINUOUS
 62
     7
 10
-105.7499026263509
 20
38.145901196625061
 30
0.0
 11
-105.7499026263509
 21
29.645901196625061
 31
0.0
  0
LINE
  5
246
  8
0
  6
CONTINUOUS
 62
     7
 10
-105.7499026263509
 20
38.145901196625061
 30
0.0
 11
-106.1499026263505
 21
37.745901196624459
 31
0.0
  0
LINE
  5
247
  8
0
  6
CONTINUOUS
 62
     7
 10
-106.1499026263505
 20
30.045901196624641
 30
0.0
 11
-105.7499026263509
 21
29.645901196625061
 31
0.0
  0
LINE
  5
248
  8
0
  6
CONTINUOUS
 62
     7
 10
-101.1499026263505
 20
29.645901196625061
 30
0.0
 11
-101.1499026263505
 21
33.895901196625061
 31
0.0
  0
LINE
  5
249
  8
0
  6
CONTINUOUS
 62
     7
 10
-101.1499026263505
 20
33.895901196625061
 30
0.0
 11
-101.1499026263505
 21
38.145901196625061
 31
0.0
  0
LINE
  5
24A
  8
0
  6
CONTINUOUS
 62
     7
 10
-101.1499026263505
 20
29.645901196625061
 30
0.0
 11
-105.7499026263509
 21
29.645901196625061
 31
0.0
  0
LINE
  5
24B
  8
0
  6
CONTINUOUS
 62
     7
 10
-105.7499026263509
 20
38.145901196625061
 30
0.0
 11
-101.1499026263505
 21
38.145901196625061
 31
0.0
  0
LINE
  5
24C
  8
0
  6
CONTINUOUS
 62
     7
 10
-106.1499026263505
 20
30.045901196624641
 30
0.0
 11
-106.1499026263505
 21
37.745901196624459
 31
0.0
  0
LINE
  5
24D
  8
0
  6
CONTINUOUS
 62
     7
 10
-105.7499026263509
 20
38.145901196625061
 30
0.0
 11
-105.7499026263509
 21
29.645901196625061
 31
0.0
  0
LINE
  5
24E
  8
0
  6
CONTINUOUS
 62
     7
 10
-105.7499026263509
 20
38.145901196625061
 30
0.0
 11
-106.1499026263505
 21
37.745901196624459
 31
0.0
  0
LINE
  5
24F
  8
0
  6
CONTINUOUS
 62
     7
 10
-106.1499026263505
 20
30.045901196624641
 30
0.0
 11
-105.7499026263509
 21
29.645901196625061
 31
0.0
  0
LINE
  5
250
  8
0
  6
CONTINUOUS
 62
     7
 10
-101.1499026263505
 20
29.645901196625061
 30
0.0
 11
-101.1499026263505
 21
33.895901196625061
 31
0.0
  0
LINE
  5
252
  8
0
  6
DASH_CENTER
 62
     1
 10
-108.6499026263505
 20
150.89590119662509
 30
0.0
 11
-106.1499026263505
 21
150.89590119662509
 31
0.0
  0
LINE
  5
253
  8
0
  6
DASH_CENTER
 62
     1
 10
-108.6499026263505
 20
33.895901196625061
 30
0.0
 11
-97.849902626351238
 21
33.895901196625061
 31
0.0
  0
LINE
  5
254
  8
0
  6
DASH_CENTER
 62
     1
 10
-108.6499026263505
 20
57.395901196625061
 30
0.0
 11
-97.849902626351238
 21
57.395901196625061
 31
0.0
  0
LINE
  5
255
  8
0
  6
CONTINUOUS
 62
     7
 10
-101.1499026263505
 20
28.895901196625061
 30
0.0
 11
-101.1499026263505
 21
38.895901196625061
 31
0.0
  0
LINE
  5
259
  8
0
  6
CONTINUOUS
 62
     7
 10
96.650012294455152
 20
104.3958271734562
 30
0.0
 11
96.650012294455124
 21
80.395838580518841
 31
0.0
  0
LINE
  5
25A
  8
0
  6
CONTINUOUS
 62
     7
 10
97.650012294455124
 20
103.3958271734562
 30
0.0
 11
96.650012294455152
 21
104.3958271734562
 31
0.0
  0
LINE
  5
25B
  8
0
  6
CONTINUOUS
 62
     7
 10
97.650012294455124
 20
81.395838580518827
 30
0.0
 11
96.650012294455124
 21
80.395838580518841
 31
0.0
  0
LINE
  5
25C
  8
0
  6
CONTINUOUS
 62
     7
 10
38.650012294455117
 20
146.89583445810851
 30
0.0
 11
38.150012294455117
 21
147.39583445810851
 31
0.0
  0
LINE
  5
25D
  8
0
  6
CONTINUOUS
 62
     7
 10
32.150012294455117
 20
27.395901788395069
 30
0.0
 11
21.15001456719871
 21
27.395901788395069
 31
0.0
  0
LINE
  5
25E
  8
0
  6
CONTINUOUS
 62
     7
 10
32.650012294455131
 20
92.395901788395079
 30
0.0
 11
32.650012294455131
 21
27.895901788395069
 31
0.0
  0
LINE
  5
25F
  8
0
  6
CONTINUOUS
 62
     7
 10
38.150012294455117
 20
37.395901788395072
 30
0.0
 11
38.650012294455117
 21
37.895901788395072
 31
0.0
  0
LINE
  5
260
  8
0
  6
CONTINUOUS
 62
     7
 10
38.650012294455117
 20
37.895901788395072
 30
0.0
 11
38.650012294455117
 21
92.395854868724754
 31
0.0
  0
LINE
  5
261
  8
0
  6
CONTINUOUS
 62
     7
 10
20.149912294455831
 20
141.80490847262419
 30
0.0
 11
-100.34990262635129
 21
141.80490847262419
 31
0.0
  0
LINE
  5
262
  8
0
  6
CONTINUOUS
 62
     7
 10
32.649912294455831
 20
123.7359017883952
 30
0.0
 11
32.649912294455831
 21
156.89590178839509
 31
0.0
  0
LINE
  5
263
  8
0
  6
CONTINUOUS
 62
     7
 10
21.149912294455831
 20
157.39590178839509
 30
0.0
 11
32.149912294455831
 21
157.39590178839509
 31
0.0
  0
LINE
  5
264
  8
0
  6
CONTINUOUS
 62
     7
 10
-94.349902626351223
 20
157.39570178839449
 30
0.0
 11
-98.349902626351223
 21
157.39570178839449
 31
0.0
  0
LINE
  5
265
  8
0
  6
CONTINUOUS
 62
     7
 10
-94.349902626351223
 20
27.395901788395069
 30
0.0
 11
-94.349902626351223
 21
157.39570178839449
 31
0.0
  0
LINE
  5
266
  8
0
  6
CONTINUOUS
 62
     7
 10
-100.3499026263512
 20
155.39570178839449
 30
0.0
 11
-100.3499026263512
 21
28.895901196625061
 31
0.0
  0
LINE
  5
267
  8
0
  6
CONTINUOUS
 62
     7
 10
-94.349402626351136
 20
157.39590178839509
 30
0.0
 11
21.149912294455831
 21
157.39590178839509
 31
0.0
  0
LINE
  5
268
  8
0
  6
CONTINUOUS
 62
     7
 10
20.149943699029581
 20
42.986893920624937
 30
0.0
 11
-100.3499026263512
 21
42.986893920624937
 31
0.0
  0
LINE
  5
269
  8
0
  6
CONTINUOUS
 62
     7
 10
97.650012294455124
 20
103.3958271734562
 30
0.0
 11
97.650012294455124
 21
81.395838580518827
 31
0.0
  0
LINE
  5
26A
  8
0
  6
CONTINUOUS
 62
     7
 10
38.150012294455117
 20
37.395901788395072
 30
0.0
 11
32.650012294455131
 21
37.395901788395072
 31
0.0
  0
LINE
  5
26B
  8
0
  6
CONTINUOUS
 62
     7
 10
38.149912294455831
 20
147.39590178839509
 30
0.0
 11
33.149912294455831
 21
147.39590178839509
 31
0.0
  0
LINE
  5
26C
  8
0
  6
CONTINUOUS
 62
     7
 10
96.650012294455124
 20
80.395838580518841
 30
0.0
 11
38.650012294455117
 21
80.395838580518841
 31
0.0
  0
LINE
  5
26D
  8
0
  6
CONTINUOUS
 62
     7
 10
38.650012294455117
 20
104.3958271734562
 30
0.0
 11
96.650012294455152
 21
104.3958271734562
 31
0.0
  0
LINE
  5
26E
  8
0
  6
CONTINUOUS
 62
     7
 10
38.650012294455117
 20
92.395854868724754
 30
0.0
 11
38.650012294455117
 21
146.89583445810851
 31
0.0
  0
LINE
  5
26F
  8
0
  6
CONTINUOUS
 62
     7
 10
32.650012294455131
 20
92.395901788395079
 30
0.0
 11
32.650012294455131
 21
147.20008606042359
 31
0.0
  0
LINE
  5
270
  8
0
  6
CONTINUOUS
 62
     7
 10
-94.348791512751234
 20
157.39590178839509
 30
0.0
 11
2.5387937204524
 21
157.39590178839509
 31
0.0
  0
LINE
  5
271
  8
0
  6
DASH_CENTER
 62
     1
 10
-64.350087705544169
 20
152.39590178839509
 30
0.0
 11
-64.350087705544169
 21
213.4458000000084
 31
0.0
  0
LINE
  5
272
  8
0
  6
CONTINUOUS
 62
     7
 10
-100.3499026263512
 20
49.395901196625061
 30
0.0
 11
20.149914567177589
 21
49.395901196625061
 31
0.0
  0
LINE
  5
273
  8
0
  6
CONTINUOUS
 62
     7
 10
-100.3499026263512
 20
63.395740734706642
 30
0.0
 11
-100.3499026263512
 21
79.395740734706635
 31
0.0
  0
LINE
  5
274
  8
0
  6
CONTINUOUS
 62
     7
 10
-100.3499026263512
 20
52.445740734705957
 30
0.0
 11
-100.3499026263512
 21
52.095740734705537
 31
0.0
  0
LINE
  5
275
  8
0
  6
CONTINUOUS
 62
     7
 10
-100.3499026263512
 20
54.895740734706642
 30
0.0
 11
-100.3499026263512
 21
52.445740734705957
 31
0.0
  0
LINE
  5
276
  8
0
  6
CONTINUOUS
 62
     7
 10
-100.3499026263512
 20
92.395740734706649
 30
0.0
 11
-100.3499026263512
 21
54.895740734706642
 31
0.0
  0
LINE
  5
277
  8
0
  6
CONTINUOUS
 62
     7
 10
-100.3499026263512
 20
129.89574073470661
 30
0.0
 11
-100.3499026263512
 21
92.395740734706649
 31
0.0
  0
LINE
  5
278
  8
0
  6
DASH_CENTER
 62
     1
 10
18.149949863861149
 20
41.130626487227971
 30
0.0
 11
35.150012294455131
 21
41.130626487227971
 31
0.0
  0
LINE
  5
279
  8
0
  6
DASH_CENTER
 62
     1
 10
18.149483816197758
 20
143.66110975927651
 30
0.0
 11
35.150012294455131
 21
143.66110975927651
 31
0.0
  0
LINE
  5
27A
  8
0
  6
CONTINUOUS
 62
     7
 10
-100.3499026263512
 20
109.3959011966251
 30
0.0
 11
20.150097373648759
 21
109.3959011966251
 31
0.0
  0
LINE
  5
27B
  8
0
  6
CONTINUOUS
 62
     7
 10
-100.3499026263512
 20
112.1459011966251
 30
0.0
 11
20.150097373648759
 21
112.1459011966251
 31
0.0
  0
LINE
  5
27C
  8
0
  6
CONTINUOUS
 62
     7
 10
-100.3499026263512
 20
114.780063091043
 30
0.0
 11
20.150097373648759
 21
114.780063091043
 31
0.0
  0
LINE
  5
27D
  8
0
  6
CONTINUOUS
 62
     7
 10
-100.3499026263512
 20
127.6721716945474
 30
0.0
 11
20.150097373648759
 21
127.6721716945474
 31
0.0
  0
LINE
  5
27E
  8
0
  6
CONTINUOUS
 62
     7
 10
-100.3499026263512
 20
124.24736735248059
 30
0.0
 11
20.150097373648759
 21
124.24736735248059
 31
0.0
  0
LINE
  5
27F
  8
0
  6
CONTINUOUS
 62
     7
 10
-100.3499026263512
 20
117.9358392050851
 30
0.0
 11
20.150097373648759
 21
117.9358392050851
 31
0.0
  0
LINE
  5
280
  8
0
  6
CONTINUOUS
 62
     7
 10
-100.3499026263512
 20
120.93926178858391
 30
0.0
 11
20.150097373648759
 21
120.93926178858391
 31
0.0
  0
LINE
  5
281
  8
0
  6
CONTINUOUS
 62
     7
 10
-100.3499026263512
 20
130.98390833041921
 30
0.0
 11
20.150097373648759
 21
130.98390833041921
 31
0.0
  0
LINE
  5
282
  8
0
  6
CONTINUOUS
 62
     7
 10
-100.3499026263512
 20
135.00224749091981
 30
0.0
 11
20.149912294455831
 21
135.00224749091981
 31
0.0
  0
LINE
  5
283
  8
0
  6
CONTINUOUS
 62
     7
 10
-100.3499026263512
 20
105.39574073470661
 30
0.0
 11
-100.3499026263512
 21
121.39574073470661
 31
0.0
  0
LINE
  5
284
  8
0
  6
CONTINUOUS
 62
     7
 10
32.650012294455131
 20
27.895901788395069
 30
0.0
 11
32.150012294455117
 21
27.395901788395069
 31
0.0
  0
LINE
  5
285
  8
0
  6
CONTINUOUS
 62
     7
 10
32.649912294455831
 20
156.89590178839509
 30
0.0
 11
32.149912294455831
 21
157.39590178839509
 31
0.0
  0
LINE
  5
286
  8
0
  6
CONTINUOUS
 62
     7
 10
20.649914567172129
 20
48.895903469352291
 30
0.0
 11
20.650010021727908
 21
27.895901788390461
 31
0.0
  0
LINE
  5
287
  8
0
  6
CONTINUOUS
 62
     7
 10
20.650010021727908
 20
27.895901788390461
 30
0.0
 11
21.15001456719871
 21
27.395901788395069
 31
0.0
  0
LINE
  5
288
  8
0
  6
CONTINUOUS
 62
     7
 10
21.15001456719871
 20
27.395901788395069
 30
0.0
 11
-98.349902626351223
 21
27.395901788395069
 31
0.0
  0
LINE
  5
289
  8
0
  6
CONTINUOUS
 62
     7
 10
-100.3499026263512
 20
59.595740330376032
 30
0.0
 11
-100.3499026263512
 21
65.145740330374451
 31
0.0
  0
LINE
  5
28A
  8
0
  6
CONTINUOUS
 62
     7
 10
-100.3499026263512
 20
65.145740330374451
 30
0.0
 11
-100.3499026263512
 21
67.645740330374451
 31
0.0
  0
LINE
  5
28B
  8
0
  6
CONTINUOUS
 62
     7
 10
-100.3499026263512
 20
67.645740330374451
 30
0.0
 11
-100.3499026263512
 21
70.145740330374451
 31
0.0
  0
LINE
  5
28C
  8
0
  6
CONTINUOUS
 62
     7
 10
-100.3499026263512
 20
70.145740330374451
 30
0.0
 11
-100.3499026263512
 21
72.645740330374451
 31
0.0
  0
LINE
  5
28D
  8
0
  6
CONTINUOUS
 62
     7
 10
-100.3499026263512
 20
72.645740330374451
 30
0.0
 11
-100.3499026263512
 21
75.395740330374451
 31
0.0
  0
LINE
  5
28E
  8
0
  6
CONTINUOUS
 62
     7
 10
15.650097373648761
 20
59.595740330376032
 30
0.0
 11
20.150097373648759
 21
59.595740330376032
 31
0.0
  0
LINE
  5
28F
  8
0
  6
CONTINUOUS
 62
     7
 10
15.650097373648761
 20
65.145740330374451
 30
0.0
 11
20.150097373648759
 21
65.145740330374451
 31
0.0
  0
LINE
  5
290
  8
0
  6
CONTINUOUS
 62
     7
 10
15.650097373648761
 20
67.645740330374451
 30
0.0
 11
20.150097373648759
 21
67.645740330374451
 31
0.0
  0
LINE
  5
291
  8
0
  6
CONTINUOUS
 62
     7
 10
15.650097373648761
 20
70.145740330374451
 30
0.0
 11
20.150097373648759
 21
70.145740330374451
 31
0.0
  0
LINE
  5
292
  8
0
  6
CONTINUOUS
 62
     7
 10
15.650097373648761
 20
72.645740330374451
 30
0.0
 11
20.150097373648759
 21
72.645740330374451
 31
0.0
  0
LINE
  5
293
  8
0
  6
CONTINUOUS
 62
     7
 10
15.650097373648761
 20
75.395740330374451
 30
0.0
 11
20.150097373648759
 21
75.395740330374451
 31
0.0
  0
LINE
  5
294
  8
0
  6
CONTINUOUS
 62
     7
 10
20.650097373648759
 20
73.145740330374451
 30
0.0
 11
20.650097373648759
 21
74.895740330374451
 31
0.0
  0
LINE
  5
295
  8
0
  6
CONTINUOUS
 62
     7
 10
20.650097373648759
 20
68.145740330374451
 30
0.0
 11
20.650097373648759
 21
69.645740330374451
 31
0.0
  0
LINE
  5
296
  8
0
  6
CONTINUOUS
 62
     7
 10
20.650097373648759
 20
60.095740330376032
 30
0.0
 11
20.650097373648759
 21
64.645740330374451
 31
0.0
  0
LINE
  5
297
  8
0
  6
CONTINUOUS
 62
     7
 10
-100.3499026263512
 20
59.595740330376032
 30
0.0
 11
15.650097373648761
 21
59.595740330376032
 31
0.0
  0
LINE
  5
298
  8
0
  6
CONTINUOUS
 62
     7
 10
-100.3499026263512
 20
65.145740330374451
 30
0.0
 11
15.650097373648761
 21
65.145740330374451
 31
0.0
  0
LINE
  5
299
  8
0
  6
CONTINUOUS
 62
     7
 10
-100.3499026263512
 20
67.645740330374451
 30
0.0
 11
15.650097373648761
 21
67.645740330374451
 31
0.0
  0
LINE
  5
29A
  8
0
  6
CONTINUOUS
 62
     7
 10
-100.3499026263512
 20
70.145740330374451
 30
0.0
 11
15.650097373648761
 21
70.145740330374451
 31
0.0
  0
LINE
  5
29B
  8
0
  6
CONTINUOUS
 62
     7
 10
-100.3499026263512
 20
72.645740330374451
 30
0.0
 11
15.650097373648761
 21
72.645740330374451
 31
0.0
  0
LINE
  5
29C
  8
0
  6
CONTINUOUS
 62
     7
 10
-100.3499026263512
 20
75.395740330374451
 30
0.0
 11
15.650097373648761
 21
75.395740330374451
 31
0.0
  0
LINE
  5
29D
  8
0
  6
CONTINUOUS
 62
     7
 10
20.649912294455831
 20
135.50224749091981
 30
0.0
 11
20.649912294455831
 21
141.80490847262419
 31
0.0
  0
LINE
  5
29E
  8
0
  6
CONTINUOUS
 62
     7
 10
20.649912294455831
 20
156.89590178839509
 30
0.0
 11
21.149912294455831
 21
157.39590178839509
 31
0.0
  0
LINE
  5
29F
  8
0
  6
CONTINUOUS
 62
     7
 10
20.650097373648759
 20
130.48390833041921
 30
0.0
 11
20.650097373648759
 21
128.17217169454739
 31
0.0
  0
LINE
  5
2A0
  8
0
  6
CONTINUOUS
 62
     7
 10
20.650097373648759
 20
123.74736735248059
 30
0.0
 11
20.650097373648759
 21
121.43926178858391
 31
0.0
  0
LINE
  5
2A1
  8
0
  6
CONTINUOUS
 62
     7
 10
20.650097373648759
 20
117.4358392050851
 30
0.0
 11
20.650097373648759
 21
115.280063091043
 31
0.0
  0
LINE
  5
2A2
  8
0
  6
CONTINUOUS
 62
     7
 10
20.650097373648759
 20
111.6459011966251
 30
0.0
 11
20.650097373648759
 21
109.8959011966251
 31
0.0
  0
LINE
  5
2A3
  8
0
  6
CONTINUOUS
 62
     7
 10
20.649912294455831
 20
142.30490847262419
 30
0.0
 11
20.649912294455831
 21
156.89590178839509
 31
0.0
  0
LINE
  5
2A4
  8
0
  6
CONTINUOUS
 62
     7
 10
-100.3499026263512
 20
38.895901196625061
 30
0.0
 11
-101.1499026263505
 21
38.895901196625061
 31
0.0
  0
LINE
  5
2A5
  8
0
  6
CONTINUOUS
 62
     7
 10
-100.3499026263512
 20
28.895901196625061
 30
0.0
 11
-101.1499026263505
 21
28.895901196625061
 31
0.0
  0
LINE
  5
2A6
  8
0
  6
DASH_CENTER
 62
     1
 10
-198.93932690723389
 20
57.395833073374092
 30
0.0
 11
-198.9393269072348
 21
51.895833073373183
 31
0.0
  0
LINE
  5
2A7
  8
0
  6
DASH_CENTER
 62
     1
 10
-198.93932690723389
 20
57.395833073374092
 30
0.0
 11
-198.9393269072348
 21
62.895833073373183
 31
0.0
  0
LINE
  5
2A8
  8
0
  6
DASH_CENTER
 62
     1
 10
-198.93932690723389
 20
57.395833073374092
 30
0.0
 11
-193.4393269072348
 21
57.395833073373183
 31
0.0
  0
LINE
  5
2A9
  8
0
  6
CONTINUOUS
 62
     7
 10
-200.0940274456139
 20
55.395833073374092
 30
0.0
 11
-197.7846263688557
 21
55.395833073374092
 31
0.0
  0
LINE
  5
2AA
  8
0
  6
CONTINUOUS
 62
     7
 10
-201.24872798399471
 20
57.395833073374092
 30
0.0
 11
-200.0940274456139
 21
55.395833073374092
 31
0.0
  0
LINE
  5
2AB
  8
0
  6
CONTINUOUS
 62
     7
 10
-200.0940274456139
 20
59.395833073374092
 30
0.0
 11
-201.24872798399471
 21
57.395833073374092
 31
0.0
  0
LINE
  5
2AC
  8
0
  6
CONTINUOUS
 62
     7
 10
-197.7846263688559
 20
59.395833073373652
 30
0.0
 11
-200.0940274456139
 21
59.395833073374092
 31
0.0
  0
LINE
  5
2AD
  8
0
  6
CONTINUOUS
 62
     7
 10
-196.62992583047591
 20
57.395833073373637
 30
0.0
 11
-197.7846263688559
 21
59.395833073373652
 31
0.0
  0
LINE
  5
2AE
  8
0
  6
CONTINUOUS
 62
     7
 10
-197.7846263688557
 20
55.395833073374092
 30
0.0
 11
-196.62992583047591
 21
57.395833073373637
 31
0.0
  0
LINE
  5
2AF
  8
0
  6
DASH_CENTER
 62
     1
 10
-198.93932690723389
 20
57.395833073374092
 30
0.0
 11
-204.4393269072348
 21
57.395833073373183
 31
0.0
  0
LINE
  5
2B0
  8
0
  6
DASH_CENTER
 62
     1
 10
-292.43932690723568
 20
33.895833073374092
 30
0.0
 11
-286.93932690723568
 21
33.895833073374092
 31
0.0
  0
LINE
  5
2B1
  8
0
  6
DASH_CENTER
 62
     1
 10
-292.43932690723568
 20
33.895833073374092
 30
0.0
 11
-292.43932690723568
 21
28.395833073373179
 31
0.0
  0
LINE
  5
2B2
  8
0
  6
CONTINUOUS
 62
     7
 10
-293.59402744561407
 20
31.895833073373641
 30
0.0
 11
-291.2846263688557
 21
31.895833073374089
 31
0.0
  0
LINE
  5
2B3
  8
0
  6
CONTINUOUS
 62
     7
 10
-294.74872798399468
 20
33.895833073374092
 30
0.0
 11
-293.59402744561407
 21
31.895833073373641
 31
0.0
  0
LINE
  5
2B4
  8
0
  6
CONTINUOUS
 62
     7
 10
-293.5940274456139
 20
35.895833073374092
 30
0.0
 11
-294.74872798399468
 21
33.895833073374092
 31
0.0
  0
LINE
  5
2B5
  8
0
  6
CONTINUOUS
 62
     7
 10
-291.2846263688557
 20
35.895833073374092
 30
0.0
 11
-293.5940274456139
 21
35.895833073374092
 31
0.0
  0
LINE
  5
2B6
  8
0
  6
CONTINUOUS
 62
     7
 10
-290.12992583047571
 20
33.895833073374092
 30
0.0
 11
-291.2846263688557
 21
35.895833073374092
 31
0.0
  0
LINE
  5
2B7
  8
0
  6
CONTINUOUS
 62
     7
 10
-291.2846263688557
 20
31.895833073374089
 30
0.0
 11
-290.12992583047571
 21
33.895833073374092
 31
0.0
  0
LINE
  5
2B8
  8
0
  6
DASH_CENTER
 62
     1
 10
-292.43932690723568
 20
33.895833073374092
 30
0.0
 11
-297.93932690723568
 21
33.895833073374092
 31
0.0
  0
LINE
  5
2B9
  8
0
  6
DASH_CENTER
 62
     1
 10
-292.43932690723568
 20
33.895833073374092
 30
0.0
 11
-292.43932690723568
 21
39.395833073373183
 31
0.0
  0
LINE
  5
2BA
  8
0
  6
DASH_CENTER
 62
     1
 10
-315.93932690723392
 20
127.39583307337411
 30
0.0
 11
-321.43932690723477
 21
127.395833073375
 31
0.0
  0
LINE
  5
2BB
  8
0
  6
DASH_CENTER
 62
     1
 10
-315.93932690723392
 20
127.39583307337411
 30
0.0
 11
-315.93932690723477
 21
121.895833073375
 31
0.0
  0
LINE
  5
2BC
  8
0
  6
DASH_CENTER
 62
     1
 10
-315.93932690723392
 20
127.39583307337411
 30
0.0
 11
-310.43932690723477
 21
127.395833073375
 31
0.0
  0
LINE
  5
2BD
  8
0
  6
CONTINUOUS
 62
     7
 10
-317.0940274456139
 20
125.39583307337411
 30
0.0
 11
-314.7846263688557
 21
125.39583307337411
 31
0.0
  0
LINE
  5
2BE
  8
0
  6
CONTINUOUS
 62
     7
 10
-318.24872798399468
 20
127.39583307337411
 30
0.0
 11
-317.0940274456139
 21
125.39583307337411
 31
0.0
  0
LINE
  5
2BF
  8
0
  6
CONTINUOUS
 62
     7
 10
-314.7846263688557
 20
129.39583307337409
 30
0.0
 11
-317.0940274456139
 21
129.39583307337409
 31
0.0
  0
LINE
  5
2C0
  8
0
  6
CONTINUOUS
 62
     7
 10
-313.62992583047571
 20
127.39583307337411
 30
0.0
 11
-314.7846263688557
 21
129.39583307337409
 31
0.0
  0
LINE
  5
2C1
  8
0
  6
CONTINUOUS
 62
     7
 10
-314.7846263688557
 20
125.39583307337411
 30
0.0
 11
-313.62992583047571
 21
127.39583307337411
 31
0.0
  0
LINE
  5
2C2
  8
0
  6
DASH_CENTER
 62
     1
 10
-315.93932690723392
 20
127.39583307337411
 30
0.0
 11
-315.93932690723477
 21
132.895833073375
 31
0.0
  0
LINE
  5
2C3
  8
0
  6
CONTINUOUS
 62
     7
 10
-317.0940274456139
 20
129.39583307337409
 30
0.0
 11
-318.24872798399468
 21
127.39583307337411
 31
0.0
  0
LINE
  5
2C4
  8
0
  6
DASH_CENTER
 62
     1
 10
-222.43932690723389
 20
150.89583307337409
 30
0.0
 11
-227.93932690723389
 21
150.89583307337409
 31
0.0
  0
LINE
  5
2C5
  8
0
  6
DASH_CENTER
 62
     1
 10
-222.43932690723389
 20
150.89583307337409
 30
0.0
 11
-216.93932690723389
 21
150.89583307337409
 31
0.0
  0
LINE
  5
2C6
  8
0
  6
DASH_CENTER
 62
     1
 10
-222.43932690723389
 20
150.89583307337409
 30
0.0
 11
-222.43932690723389
 21
156.39583307337409
 31
0.0
  0
LINE
  5
2C7
  8
0
  6
CONTINUOUS
 62
     7
 10
-223.5940274456139
 20
148.89583307337409
 30
0.0
 11
-221.2846263688557
 21
148.89583307337409
 31
0.0
  0
LINE
  5
2C8
  8
0
  6
CONTINUOUS
 62
     7
 10
-224.74872798399471
 20
150.89583307337409
 30
0.0
 11
-223.5940274456139
 21
148.89583307337409
 31
0.0
  0
LINE
  5
2C9
  8
0
  6
CONTINUOUS
 62
     7
 10
-223.5940274456141
 20
152.8958330733735
 30
0.0
 11
-224.74872798399471
 21
150.89583307337409
 31
0.0
  0
LINE
  5
2CA
  8
0
  6
CONTINUOUS
 62
     7
 10
-221.2846263688557
 20
152.89583307337409
 30
0.0
 11
-223.5940274456141
 21
152.8958330733735
 31
0.0
  0
LINE
  5
2CB
  8
0
  6
CONTINUOUS
 62
     7
 10
-220.12992583047571
 20
150.89583307337409
 30
0.0
 11
-221.2846263688557
 21
152.89583307337409
 31
0.0
  0
LINE
  5
2CC
  8
0
  6
CONTINUOUS
 62
     7
 10
-221.2846263688557
 20
148.89583307337409
 30
0.0
 11
-220.12992583047571
 21
150.89583307337409
 31
0.0
  0
LINE
  5
2CD
  8
0
  6
DASH_CENTER
 62
     1
 10
-222.43932690723389
 20
150.89583307337409
 30
0.0
 11
-222.43932690723389
 21
145.39583307337409
 31
0.0
  0
LINE
  5
2CE
  8
0
  6
DASH_CENTER
 62
     1
 10
209.56841767685569
 20
36.887917676854663
 30
0.0
 11
218.05369905109421
 21
45.373199051093181
 31
0.0
  0
LINE
  5
2CF
  8
0
  6
DASH_CENTER
 62
     1
 10
209.56841767685469
 20
147.90368232314441
 30
0.0
 11
218.0536990510933
 21
139.4184009489058
 31
0.0
  0
LINE
  5
2D0
  8
0
  6
DASH_CENTER
 62
     1
 10
320.58418232314449
 20
147.90368232314529
 30
0.0
 11
312.09890094890591
 21
139.41840094890679
 31
0.0
  0
LINE
  5
2D1
  8
0
  6
DASH_CENTER
 62
     1
 10
265.07630000000012
 20
22.395833073373641
 30
0.0
 11
265.07630000000012
 21
213.4458000000084
 31
0.0
  0
LINE
  5
2D2
  8
0
  6
CONTINUOUS
 62
     7
 10
288.07630000000012
 20
157.39580000000089
 30
0.0
 11
214.27029641774641
 21
157.39580000000089
 31
0.0
  0
LINE
  5
2D3
  8
0
  6
CONTINUOUS
 62
     7
 10
265.07630000000012
 20
27.395800000000019
 30
0.0
 11
214.27029641774641
 21
27.395800000000019
 31
0.0
  0
LINE
  5
2D4
  8
0
  6
CONTINUOUS
 62
     7
 10
200.07630000000009
 20
41.589796417745447
 30
0.0
 11
200.07630000000009
 21
143.2018035822546
 31
0.0
  0
LINE
  5
2D5
  8
0
  6
DASH_CENTER
 62
     1
 10
195.07630000000009
 20
92.395799999999994
 30
0.0
 11
335.07630000000012
 21
92.395799999999994
 31
0.0
  0
LINE
  5
2D6
  8
0
  6
CONTINUOUS
 62
     7
 10
315.88230358225371
 20
27.395800000000019
 30
0.0
 11
265.07630000000012
 21
27.395800000000019
 31
0.0
  0
LINE
  5
2D7
  8
0
  6
CONTINUOUS
 62
     7
 10
330.07630000000012
 20
143.2018035822546
 30
0.0
 11
330.07630000000012
 21
41.589796417745447
 31
0.0
  0
LINE
  5
2D8
  8
0
  6
CONTINUOUS
 62
     7
 10
315.88230358225371
 20
157.39580000000089
 30
0.0
 11
242.07630000000009
 21
157.39580000000089
 31
0.0
  0
LINE
  5
2D9
  8
0
  6
DASH_CENTER
 62
     1
 10
320.5841823231454
 20
36.887917676855572
 30
0.0
 11
312.09890094890687
 21
45.373199051094133
 31
0.0
  0
LINE
  5
2DC
  8
0
  6
CONTINUOUS
 62
     7
 10
-322.439326907235
 20
109.35409064286939
 30
0.0
 11
-322.439326907235
 21
143.20183665562729
 31
0.0
  0
LINE
  5
2DD
  8
0
  6
CONTINUOUS
 62
     7
 10
-274.39758447673171
 20
27.395833073373641
 30
0.0
 11
-308.24533048948962
 21
27.395833073373641
 31
0.0
  0
LINE
  5
2DE
  8
0
  6
CONTINUOUS
 62
     7
 10
-192.439326907235
 20
75.437575503877838
 30
0.0
 11
-192.439326907235
 21
41.589829491119083
 31
0.0
  0
LINE
  5
2DF
  8
0
  6
CONTINUOUS
 62
     7
 10
-284.89758447673171
 20
157.39583307337361
 30
0.0
 11
-308.24533048948962
 21
157.39583307337361
 31
0.0
  0
LINE
  5
2E0
  8
0
  6
CONTINUOUS
 62
     7
 10
-192.439326907235
 20
49.895833073373637
 30
0.0
 11
-192.439326907235
 21
59.307157938780279
 31
0.0
  0
LINE
  5
2E1
  8
0
  6
CONTINUOUS
 62
     7
 10
-192.13932690723661
 20
75.895833073373623
 30
0.0
 11
-192.13932690723661
 21
108.89583307337359
 31
0.0
  0
LINE
  5
2E2
  8
0
  6
CONTINUOUS
 62
     7
 10
-225.08366447453301
 20
157.14583307337361
 30
0.0
 11
-228.07330150345089
 21
151.96762984309831
 31
0.0
  0
LINE
  5
2E3
  8
0
  6
CONTINUOUS
 62
     7
 10
-299.939326907235
 20
157.39583307337361
 30
0.0
 11
-290.22800204183
 21
157.39583307337361
 31
0.0
  0
LINE
  5
2E4
  8
0
  6
CONTINUOUS
 62
     7
 10
-286.80535231101999
 20
151.96762984309831
 30
0.0
 11
-289.79498933993801
 21
157.14583307337361
 31
0.0
  0
LINE
  5
2E5
  8
0
  6
CONTINUOUS
 62
     7
 10
-229.939326907235
 20
152.46762984309831
 30
0.0
 11
-229.939326907235
 21
157.19583307337379
 31
0.0
  0
LINE
  5
2E6
  8
0
  6
CONTINUOUS
 62
     7
 10
-284.939326907235
 20
152.46762984309831
 30
0.0
 11
-284.939326907235
 21
157.19583307337379
 31
0.0
  0
LINE
  5
2E7
  8
0
  6
CONTINUOUS
 62
     7
 10
-284.439326907235
 20
157.69583307337379
 30
0.0
 11
-274.85084072629428
 21
157.69583307337379
 31
0.0
  0
LINE
  5
2E8
  8
0
  6
DASH_CENTER
 62
     1
 10
-334.56204667566158
 20
92.395833073373637
 30
0.0
 11
-186.07298493331999
 21
92.395833073373637
 31
0.0
  0
LINE
  5
2E9
  8
0
  6
CONTINUOUS
 62
     7
 10
-224.7836644745355
 20
27.645833073373641
 30
0.0
 11
-228.06520495238399
 21
33.329627908105643
 31
0.0
  0
LINE
  5
2EA
  8
0
  6
CONTINUOUS
 62
     7
 10
-198.373121741967
 20
63.021711118522603
 30
0.0
 11
-192.689326907235
 21
59.740170640672318
 31
0.0
  0
LINE
  5
2EB
  8
0
  6
CONTINUOUS
 62
     7
 10
-286.81344886208689
 20
33.329627908104733
 30
0.0
 11
-290.09498933993808
 21
27.645833073373641
 31
0.0
  0
LINE
  5
2ED
  8
0
  6
CONTINUOUS
 62
     7
 10
-300.439326907235
 20
142.0320093966981
 30
0.0
 11
-300.439326907235
 21
156.8958330733735
 31
0.0
  0
LINE
  5
2EE
  8
0
  6
CONTINUOUS
 62
     7
 10
-214.439326907235
 20
142.03200939669631
 30
0.0
 11
-214.439326907235
 21
156.8958330733735
 31
0.0
  0
LINE
  5
2EF
  8
0
  6
CONTINUOUS
 62
     7
 10
-207.8031505839142
 20
49.395833073373652
 30
0.0
 11
-192.939326907235
 21
49.395833073373652
 31
0.0
  0
LINE
  5
2F0
  8
0
  6
CONTINUOUS
 62
     7
 10
-192.63932690723661
 20
109.39583307337359
 30
0.0
 11
-193.80168081626181
 21
109.39583307337359
 31
0.0
  0
LINE
  5
2F1
  8
0
  6
CONTINUOUS
 62
     7
 10
-300.439326907235
 20
42.759656750051917
 30
0.0
 11
-300.439326907235
 21
27.895833073373641
 31
0.0
  0
LINE
  5
2F2
  8
0
  6
CONTINUOUS
 62
     7
 10
-214.439326907235
 20
27.895833073373641
 30
0.0
 11
-214.439326907235
 21
42.759656750051917
 31
0.0
  0
LINE
  5
2F3
  8
0
  6
CONTINUOUS
 62
     7
 10
-322.439326907235
 20
134.89583307337361
 30
0.0
 11
-322.439326907235
 21
125.4845082079688
 31
0.0
  0
LINE
  5
2F4
  8
0
  6
CONTINUOUS
 62
     7
 10
-321.07697299821012
 20
109.39583307337359
 30
0.0
 11
-322.2393269072362
 21
109.39583307337359
 31
0.0
  0
LINE
  5
2F5
  8
0
  6
CONTINUOUS
 62
     7
 10
-307.07550323056029
 20
135.3958330733735
 30
0.0
 11
-321.939326907235
 21
135.3958330733735
 31
0.0
  0
LINE
  5
2F6
  8
0
  6
CONTINUOUS
 62
     7
 10
-322.2393269072362
 20
75.395833073373623
 30
0.0
 11
-321.07697299821012
 21
75.395833073373623
 31
0.0
  0
LINE
  5
2F7
  8
0
  6
CONTINUOUS
 62
     7
 10
-274.439326907235
 20
28.758186982400389
 30
0.0
 11
-274.439326907235
 21
27.595833073373459
 31
0.0
  0
LINE
  5
2F8
  8
0
  6
CONTINUOUS
 62
     7
 10
-193.80168081626181
 20
75.395833073373623
 30
0.0
 11
-192.63932690723661
 21
75.395833073373623
 31
0.0
  0
LINE
  5
2F9
  8
0
  6
CONTINUOUS
 62
     7
 10
-316.505532072503
 20
121.7699550282256
 30
0.0
 11
-322.189326907235
 21
125.0514955060759
 31
0.0
  0
LINE
  5
2FA
  8
0
  6
CONTINUOUS
 62
     7
 10
-240.439326907235
 20
27.595833073373459
 30
0.0
 11
-240.439326907235
 21
28.758186982400389
 31
0.0
  0
LINE
  5
2FB
  8
0
  6
CONTINUOUS
 62
     7
 10
-196.03031734092809
 20
67.789014182045889
 30
0.0
 11
-193.689326907235
 21
67.645833073374547
 31
0.0
  0
LINE
  5
2FC
  8
0
  6
CONTINUOUS
 62
     7
 10
-197.70103259646541
 20
64.900466642147535
 30
0.0
 11
-193.68932690723409
 21
65.145833073373637
 31
0.0
  0
LINE
  5
2FD
  8
0
  6
CONTINUOUS
 62
     7
 10
-194.32791687026361
 20
72.684890908714451
 30
0.0
 11
-193.689326907235
 21
72.645833073374547
 31
0.0
  0
LINE
  5
2FE
  8
0
  6
CONTINUOUS
 62
     7
 10
-195.55643476778349
 20
70.031635864519217
 30
0.0
 11
-193.68932690723409
 21
70.145833073373637
 31
0.0
  0
LINE
  5
2FF
  8
0
  6
CONTINUOUS
 62
     7
 10
-195.56148070003181
 20
114.7603389046659
 30
0.0
 11
-193.689326907235
 21
114.6458330733746
 31
0.0
  0
LINE
  5
300
  8
0
  6
CONTINUOUS
 62
     7
 10
-194.32791687026361
 20
112.1067752380328
 30
0.0
 11
-193.68932690723409
 21
112.14583307337359
 31
0.0
  0
LINE
  5
301
  8
0
  6
CONTINUOUS
 62
     7
 10
-198.19446145481811
 20
120.9213789064348
 30
0.0
 11
-193.689326907235
 21
120.6458330733746
 31
0.0
  0
LINE
  5
302
  8
0
  6
CONTINUOUS
 62
     7
 10
-196.42717419655651
 20
117.9783791595879
 30
0.0
 11
-193.68932690723409
 21
118.14583307337359
 31
0.0
  0
LINE
  5
303
  8
0
  6
CONTINUOUS
 62
     7
 10
-201.9952509784323
 20
127.6538451523398
 30
0.0
 11
-193.689326907235
 21
127.1458330733746
 31
0.0
  0
LINE
  5
304
  8
0
  6
CONTINUOUS
 62
     7
 10
-199.418100775564
 20
124.29544625333681
 30
0.0
 11
-193.68932690723409
 21
124.64583307337359
 31
0.0
  0
LINE
  5
305
  8
0
  6
CONTINUOUS
 62
     7
 10
-207.4794965529816
 20
134.98927598122879
 30
0.0
 11
-193.689326907235
 21
134.1458330733746
 31
0.0
  0
LINE
  5
306
  8
0
  6
CONTINUOUS
 62
     7
 10
-203.60875765555809
 20
131.03913469840481
 30
0.0
 11
-193.68932690723409
 21
131.64583307337361
 31
0.0
  0
LINE
  5
307
  8
0
  6
CONTINUOUS
 62
     7
 10
-282.04614579856462
 20
30.986823507065878
 30
0.0
 11
-282.189326907235
 21
28.645833073374561
 31
0.0
  0
LINE
  5
308
  8
0
  6
CONTINUOUS
 62
     7
 10
-284.93469333846292
 20
32.657538762604077
 30
0.0
 11
-284.689326907235
 21
28.645833073372732
 31
0.0
  0
LINE
  5
309
  8
0
  6
CONTINUOUS
 62
     7
 10
-277.15026907189508
 20
29.28442303640043
 30
0.0
 11
-277.189326907235
 21
28.645833073374561
 31
0.0
  0
LINE
  5
30A
  8
0
  6
CONTINUOUS
 62
     7
 10
-279.80352411609118
 20
30.512940933920291
 30
0.0
 11
-279.689326907235
 21
28.645833073372732
 31
0.0
  0
LINE
  5
30B
  8
0
  6
CONTINUOUS
 62
     7
 10
-232.689326907235
 20
28.645833073374561
 30
0.0
 11
-232.83250801590819
 21
30.986823507065878
 31
0.0
  0
LINE
  5
30C
  8
0
  6
CONTINUOUS
 62
     7
 10
-230.189326907235
 20
28.645833073372732
 30
0.0
 11
-229.94396047600799
 21
32.657538762604077
 31
0.0
  0
LINE
  5
30D
  8
0
  6
CONTINUOUS
 62
     7
 10
-237.689326907235
 20
28.645833073374561
 30
0.0
 11
-237.7283847425777
 21
29.28442303640043
 31
0.0
  0
LINE
  5
30E
  8
0
  6
CONTINUOUS
 62
     7
 10
-235.189326907235
 20
28.645833073372732
 30
0.0
 11
-235.0751296983824
 21
30.512940933920291
 31
0.0
  0
LINE
  5
30F
  8
0
  6
CONTINUOUS
 62
     7
 10
-319.317173114441
 20
70.03132724208136
 30
0.0
 11
-321.189326907235
 21
70.145833073373637
 31
0.0
  0
LINE
  5
310
  8
0
  6
CONTINUOUS
 62
     7
 10
-320.55073694420912
 20
72.684890908714451
 30
0.0
 11
-321.189326907235
 21
72.645833073374547
 31
0.0
  0
LINE
  5
311
  8
0
  6
CONTINUOUS
 62
     7
 10
-316.68419235965462
 20
63.87028724031245
 30
0.0
 11
-321.189326907235
 21
64.145833073373623
 31
0.0
  0
LINE
  5
312
  8
0
  6
CONTINUOUS
 62
     7
 10
-318.45147961791622
 20
66.813286987162101
 30
0.0
 11
-321.189326907235
 21
66.645833073374547
 31
0.0
  0
LINE
  5
313
  8
0
  6
CONTINUOUS
 62
     7
 10
-312.88340283604037
 20
57.137820994408337
 30
0.0
 11
-321.189326907235
 21
57.645833073373637
 31
0.0
  0
LINE
  5
314
  8
0
  6
CONTINUOUS
 62
     7
 10
-315.46055303890688
 20
60.496219893410512
 30
0.0
 11
-321.189326907235
 21
60.145833073374547
 31
0.0
  0
LINE
  5
315
  8
0
  6
CONTINUOUS
 62
     7
 10
-307.39915726149121
 20
49.802390165520251
 30
0.0
 11
-321.189326907235
 21
50.645833073373652
 31
0.0
  0
LINE
  5
316
  8
0
  6
CONTINUOUS
 62
     7
 10
-311.26989615891381
 20
53.752531448343348
 30
0.0
 11
-321.189326907235
 21
53.14583307337454
 31
0.0
  0
LINE
  5
317
  8
0
  6
CONTINUOUS
 62
     7
 10
-318.84833647354458
 20
117.0026519647014
 30
0.0
 11
-321.189326907235
 21
117.14583307337359
 31
0.0
  0
LINE
  5
318
  8
0
  6
CONTINUOUS
 62
     7
 10
-317.17762121800729
 20
119.89119950460071
 30
0.0
 11
-321.189326907235
 21
119.6458330733746
 31
0.0
  0
LINE
  5
319
  8
0
  6
CONTINUOUS
 62
     7
 10
-320.55073694420912
 20
112.1067752380328
 30
0.0
 11
-321.189326907235
 21
112.14583307337359
 31
0.0
  0
LINE
  5
31A
  8
0
  6
CONTINUOUS
 62
     7
 10
-319.32221904668933
 20
114.76003028222991
 30
0.0
 11
-321.189326907235
 21
114.6458330733746
 31
0.0
  0
LINE
  5
31B
  8
0
  6
CONTINUOUS
 62
     7
 10
-299.939326907235
 20
27.395833073373641
 30
0.0
 11
-290.52800204183018
 21
27.395833073373641
 31
0.0
  0
LINE
  5
31C
  8
0
  6
CONTINUOUS
 62
     7
 10
-224.35065177264261
 20
27.395833073373641
 30
0.0
 11
-214.939326907235
 21
27.395833073373641
 31
0.0
  0
LINE
  5
31D
  8
0
  6
CONTINUOUS
 62
     7
 10
-273.939326907235
 20
27.095833073373459
 30
0.0
 11
-240.939326907235
 21
27.095833073373459
 31
0.0
  0
LINE
  5
31E
  8
0
  6
CONTINUOUS
 62
     7
 10
-322.73932690723609
 20
75.895833073373623
 30
0.0
 11
-322.73932690723609
 21
108.89583307337359
 31
0.0
  0
LINE
  5
31F
  8
0
  6
CONTINUOUS
 62
     7
 10
-206.63332332498231
 20
27.395833073373641
 30
0.0
 11
-240.48106933774011
 21
27.395833073373641
 31
0.0
  0
LINE
  5
320
  8
0
  6
CONTINUOUS
 62
     7
 10
-192.439326907235
 20
143.20183665562729
 30
0.0
 11
-192.439326907235
 21
109.3540906428685
 31
0.0
  0
LINE
  5
321
  8
0
  6
CONTINUOUS
 62
     7
 10
-322.439326907235
 20
41.589829491119083
 30
0.0
 11
-322.439326907235
 21
75.437575503877838
 31
0.0
  0
LINE
  5
322
  8
0
  6
CONTINUOUS
 62
     7
 10
-206.63332332498231
 20
157.39583307337361
 30
0.0
 11
-229.98106933774011
 21
157.39583307337361
 31
0.0
  0
LINE
  5
323
  8
0
  6
DASH_CENTER
 62
     1
 10
-210.69956867080401
 20
139.13559130980471
 30
0.0
 11
-201.64860187161659
 21
148.1865581089929
 31
0.0
  0
LINE
  5
324
  8
0
  6
DASH_CENTER
 62
     1
 10
-313.30076262097259
 20
148.25726878711029
 30
0.0
 11
-304.10837446554768
 21
139.0648806316855
 31
0.0
  0
LINE
  5
325
  8
0
  6
DASH_CENTER
 62
     1
 10
-210.55814731456741
 20
45.514653480706897
 30
0.0
 11
-201.79002322785411
 21
36.746529393992773
 31
0.0
  0
LINE
  5
326
  8
0
  6
DASH_CENTER
 62
     1
 10
-313.15934126473508
 20
36.675818715873561
 30
0.0
 11
-304.24979582178531
 21
45.585364158824291
 31
0.0
  0
LINE
  5
327
  8
0
  6
DASH_CENTER
 62
     1
 10
-257.439326907235
 20
22.395833073373641
 30
0.0
 11
-257.43932690723511
 21
213.4458000000084
 31
0.0
  0
LINE
  5
328
  8
0
  6
CONTINUOUS
 62
     7
 10
-240.0278130881764
 20
157.69583307337379
 30
0.0
 11
-230.439326907235
 21
157.69583307337379
 31
0.0
  0
LINE
  5
35D
  8
0
  6
CONTINUOUS
 62
     7
 10
-54.53989633251998
 20
199.00590178840051
 30
0.0
 11
-47.852396332523583
 21
199.00590178840051
 31
0.0
  0
LINE
  5
35E
  8
0
  6
CONTINUOUS
 62
     7
 10
-55.28989633251998
 20
199.99449746565551
 30
0.0
 11
-55.28989633251998
 21
199.75590178840051
 31
0.0
  0
LINE
  5
35F
  8
0
  6
CONTINUOUS
 62
     7
 10
-47.852396332523583
 20
199.00590178840051
 30
0.0
 11
-46.85239633251998
 21
198.00590178840051
 31
0.0
  0
LINE
  5
360
  8
0
  6
CONTINUOUS
 62
     7
 10
-46.85239633251998
 20
198.00590178840051
 30
0.0
 11
-81.847779078571264
 21
198.00590178840051
 31
0.0
  0
LINE
  5
361
  8
0
  6
CONTINUOUS
 62
     7
 10
-80.847779078571264
 20
199.00590178840051
 30
0.0
 11
-54.53989633251998
 21
199.00590178840051
 31
0.0
  0
LINE
  5
362
  8
0
  6
CONTINUOUS
 62
     7
 10
-47.852396332523583
 20
199.00590178840051
 30
0.0
 11
-46.85239633251998
 21
198.00590178840051
 31
0.0
  0
LINE
  5
363
  8
0
  6
CONTINUOUS
 62
     7
 10
-81.847779078571264
 20
198.00590178840051
 30
0.0
 11
-80.847779078571264
 21
199.00590178840051
 31
0.0
  0
LINE
  5
364
  8
0
  6
CONTINUOUS
 62
     7
 10
-47.852396332522673
 20
203.42392143138309
 30
0.0
 11
-54.81382205591607
 21
200.6926841871427
 31
0.0
  0
LINE
  5
365
  8
0
  6
CONTINUOUS
 62
     7
 10
-64.408015193071364
 20
207.58674430482461
 30
0.0
 11
-77.410302167504867
 21
203.09936050104901
 31
0.0
  0
LINE
  5
366
  8
0
  6
CONTINUOUS
 62
     7
 10
-64.408015193071364
 20
208.0600836229942
 30
0.0
 11
-64.408015193071364
 21
207.58674430482461
 31
0.0
  0
LINE
  5
367
  8
0
  6
CONTINUOUS
 62
     7
 10
-52.020658650312079
 20
208.4459017884019
 30
0.0
 11
-79.326880112387087
 21
199.00590178840051
 31
0.0
  0
LINE
  5
368
  8
0
  6
CONTINUOUS
 62
     7
 10
-80.847779078571264
 20
201.6028519993333
 30
0.0
 11
-79.592059346729272
 21
203.09936050104901
 31
0.0
  0
LINE
  5
369
  8
0
  6
CONTINUOUS
 62
     7
 10
-77.410302167504867
 20
203.09936050104901
 30
0.0
 11
-79.592059346729272
 21
203.09936050104901
 31
0.0
  0
LINE
  5
36A
  8
0
  6
CONTINUOUS
 62
     7
 10
-77.820825496359461
 20
208.4459017884019
 30
0.0
 11
-64.408015193071364
 21
208.0600836229942
 31
0.0
  0
LINE
  5
36B
  8
0
  6
CONTINUOUS
 62
     7
 10
-47.85239633251998
 20
207.9459017884019
 30
0.0
 11
-48.35239633251998
 21
208.4459017884019
 31
0.0
  0
LINE
  5
36C
  8
0
  6
CONTINUOUS
 62
     7
 10
-80.847779078571264
 20
207.9459017884019
 30
0.0
 11
-80.347779078571264
 21
208.4459017884019
 31
0.0
  0
LINE
  5
36D
  8
0
  6
CONTINUOUS
 62
     7
 10
-48.35239633251998
 20
208.4459017884019
 30
0.0
 11
-80.347779078571264
 21
208.4459017884019
 31
0.0
  0
LINE
  5
36E
  8
0
  6
CONTINUOUS
 62
     7
 10
-47.85239633251998
 20
207.9459017884019
 30
0.0
 11
-47.852396332523583
 21
199.00590178840051
 31
0.0
  0
LINE
  5
36F
  8
0
  6
CONTINUOUS
 62
     7
 10
-80.847779078571264
 20
199.00590178840051
 30
0.0
 11
-80.847779078571264
 21
207.9459017884019
 31
0.0
  0
LINE
  5
370
  8
0
  6
CONTINUOUS
 62
     7
 10
-81.878824036042062
 20
192.89590178840351
 30
0.0
 11
-81.847779078571264
 21
198.00590178840051
 31
0.0
  0
LINE
  5
371
  8
0
  6
CONTINUOUS
 62
     7
 10
-46.85239633251998
 20
198.00590178840051
 30
0.0
 11
-46.821351375047279
 21
192.89590178840351
 31
0.0
  0
LINE
  5
372
  8
0
  6
CONTINUOUS
 62
     7
 10
-91.950048014694687
 20
158.39590178839541
 30
0.0
 11
-91.950048014694687
 21
157.39590178839711
 31
0.0
  0
LINE
  5
373
  8
0
  6
DASH_CENTER
 62
     1
 10
-85.950048014694687
 20
190.39590178840351
 30
0.0
 11
-85.950048014694687
 21
195.39590178840351
 31
0.0
  0
LINE
  5
374
  8
0
  6
CONTINUOUS
 62
     7
 10
-89.471444921219046
 20
192.89590178840351
 30
0.0
 11
-62.950048014694673
 21
192.89590178840351
 31
0.0
  0
LINE
  5
375
  8
0
  6
CONTINUOUS
 62
     7
 10
-90.971290119580175
 20
191.41745128838011
 30
0.0
 11
-91.445737669866773
 21
158.39590178839541
 31
0.0
  0
LINE
  5
376
  8
0
  6
DASH_CENTER
 62
     1
 10
-39.450048014694673
 20
195.39590178840351
 30
0.0
 11
-39.450048014694673
 21
190.39590178840351
 31
0.0
  0
LINE
  5
377
  8
0
  6
CONTINUOUS
 62
     7
 10
-62.950048014694673
 20
192.89590178840351
 30
0.0
 11
-36.450048014694673
 21
192.89590178840351
 31
0.0
  0
LINE
  5
378
  8
0
  6
CONTINUOUS
 62
     7
 10
-30.95004801470018
 20
158.39590178839541
 30
0.0
 11
-30.95004801470018
 21
157.39590178839541
 31
0.0
  0
LINE
  5
379
  8
0
  6
CONTINUOUS
 62
     7
 10
-31.45004801470018
 20
158.39590178839541
 30
0.0
 11
-31.450048014694669
 21
163.09590178839611
 31
0.0
  0
LINE
  5
37A
  8
0
  6
CONTINUOUS
 62
     7
 10
-31.450048014694669
 20
163.09590178839611
 30
0.0
 11
-34.950048014694673
 21
178.09590178839611
 31
0.0
  0
LINE
  5
37B
  8
0
  6
CONTINUOUS
 62
     7
 10
-34.950048014694673
 20
191.39590178840351
 30
0.0
 11
-34.950048014694673
 21
178.09590178839611
 31
0.0
  0
LINE
  5
37C
  8
0
  6
CONTINUOUS
 62
     7
 10
-91.950048014694687
 20
158.39590178839541
 30
0.0
 11
-30.95004801470018
 21
158.39590178839541
 31
0.0
  0
LINE
  5
37D
  8
0
  6
CONTINUOUS
 62
     7
 10
-48.35239633251998
 20
208.4459017884019
 30
0.0
 11
-80.337818769419087
 21
208.44590178840369
 31
0.0
  0
LINE
  5
3DE
  8
0
  6
CONTINUOUS
 62
     7
 10
281.07399137302798
 20
208.44580000001289
 30
0.0
 11
249.08856893612889
 21
208.44580000001471
 31
0.0
  0
LINE
  5
3DF
  8
0
  6
CONTINUOUS
 62
     7
 10
282.57399137302798
 20
198.0058000000115
 30
0.0
 11
282.6050363305007
 21
192.89580000001459
 31
0.0
  0
LINE
  5
3E0
  8
0
  6
CONTINUOUS
 62
     7
 10
247.547563669505
 20
192.89580000001459
 30
0.0
 11
247.5786086269768
 21
198.0058000000115
 31
0.0
  0
LINE
  5
3E1
  8
0
  6
CONTINUOUS
 62
     7
 10
248.5786086269768
 20
199.0058000000115
 30
0.0
 11
248.5786086269768
 21
207.94580000001289
 31
0.0
  0
LINE
  5
3E2
  8
0
  6
CONTINUOUS
 62
     7
 10
281.57399137302798
 20
207.94580000001289
 30
0.0
 11
281.5739913730244
 21
199.0058000000115
 31
0.0
  0
LINE
  5
3E3
  8
0
  6
CONTINUOUS
 62
     7
 10
281.07399137302798
 20
208.44580000001289
 30
0.0
 11
249.0786086269768
 21
208.44580000001289
 31
0.0
  0
LINE
  5
3E4
  8
0
  6
CONTINUOUS
 62
     7
 10
248.5786086269768
 20
207.94580000001289
 30
0.0
 11
249.0786086269768
 21
208.44580000001289
 31
0.0
  0
LINE
  5
3E5
  8
0
  6
CONTINUOUS
 62
     7
 10
281.57399137302798
 20
207.94580000001289
 30
0.0
 11
281.07399137302798
 21
208.44580000001289
 31
0.0
  0
LINE
  5
3E6
  8
0
  6
CONTINUOUS
 62
     7
 10
251.60556220918849
 20
208.44580000001289
 30
0.0
 11
265.01837251247662
 21
208.0599818346052
 31
0.0
  0
LINE
  5
3E7
  8
0
  6
CONTINUOUS
 62
     7
 10
252.01608553804309
 20
203.09925871266
 30
0.0
 11
249.83432835881871
 21
203.09925871266
 31
0.0
  0
LINE
  5
3E8
  8
0
  6
CONTINUOUS
 62
     7
 10
248.5786086269768
 20
201.60275021094441
 30
0.0
 11
249.83432835881871
 21
203.09925871266
 31
0.0
  0
LINE
  5
3E9
  8
0
  6
CONTINUOUS
 62
     7
 10
277.40572905523499
 20
208.44580000001289
 30
0.0
 11
250.09950759316089
 21
199.0058000000115
 31
0.0
  0
LINE
  5
3EA
  8
0
  6
CONTINUOUS
 62
     7
 10
265.01837251247662
 20
208.0599818346052
 30
0.0
 11
265.01837251247662
 21
207.5866425164356
 31
0.0
  0
LINE
  5
3EB
  8
0
  6
CONTINUOUS
 62
     7
 10
265.01837251247662
 20
207.5866425164356
 30
0.0
 11
252.01608553804309
 21
203.09925871266
 31
0.0
  0
LINE
  5
3EC
  8
0
  6
CONTINUOUS
 62
     7
 10
281.57399137302622
 20
203.423819642994
 30
0.0
 11
274.61256564963099
 21
200.6925823987529
 31
0.0
  0
LINE
  5
3ED
  8
0
  6
CONTINUOUS
 62
     7
 10
247.5786086269768
 20
198.0058000000115
 30
0.0
 11
248.5786086269768
 21
199.0058000000115
 31
0.0
  0
LINE
  5
3EE
  8
0
  6
CONTINUOUS
 62
     7
 10
281.5739913730244
 20
199.0058000000115
 30
0.0
 11
282.57399137302798
 21
198.0058000000115
 31
0.0
  0
LINE
  5
3EF
  8
0
  6
CONTINUOUS
 62
     7
 10
248.5786086269768
 20
199.0058000000115
 30
0.0
 11
274.88649137302798
 21
199.0058000000115
 31
0.0
  0
LINE
  5
3F0
  8
0
  6
CONTINUOUS
 62
     7
 10
282.57399137302798
 20
198.0058000000115
 30
0.0
 11
247.5786086269768
 21
198.0058000000115
 31
0.0
  0
LINE
  5
3F1
  8
0
  6
CONTINUOUS
 62
     7
 10
281.5739913730244
 20
199.0058000000115
 30
0.0
 11
282.57399137302798
 21
198.0058000000115
 31
0.0
  0
LINE
  5
3F2
  8
0
  6
CONTINUOUS
 62
     7
 10
274.13649137302798
 20
199.99439567726651
 30
0.0
 11
274.13649137302798
 21
199.7558000000115
 31
0.0
  0
LINE
  5
3F3
  8
0
  6
CONTINUOUS
 62
     7
 10
274.88649137302798
 20
199.0058000000115
 30
0.0
 11
281.5739913730244
 21
199.0058000000115
 31
0.0
  0
LINE
  5
3F4
  8
0
  6
DASH_CENTER
 62
     1
 10
286.57630000000381
 20
195.140500000012
 30
0.0
 11
286.57630000000381
 21
189.39580000001459
 31
0.0
  0
LINE
  5
3F5
  8
0
  6
CONTINUOUS
 62
     7
 10
292.07198965517682
 20
158.39580000001459
 30
0.0
 11
291.59754210488921
 21
191.41734949999019
 31
0.0
  0
LINE
  5
3F6
  8
0
  6
CONTINUOUS
 62
     7
 10
292.57630000000381
 20
158.3958000000064
 30
0.0
 11
292.57630000000381
 21
157.3958000000064
 31
0.0
  0
LINE
  5
3F7
  8
0
  6
CONTINUOUS
 62
     7
 10
265.07630000000381
 20
192.89580000001459
 30
0.0
 11
290.09769690652718
 21
192.89580000001459
 31
0.0
  0
LINE
  5
3F8
  8
0
  6
CONTINUOUS
 62
     7
 10
265.07630000000381
 20
163.0958000000071
 30
0.0
 11
292.0044609195441
 21
163.0958000000071
 31
0.0
  0
LINE
  5
3F9
  8
0
  6
CONTINUOUS
 62
     7
 10
265.07630000000381
 20
178.0958000000071
 30
0.0
 11
291.78894367816378
 21
178.0958000000071
 31
0.0
  0
LINE
  5
3FA
  8
0
  6
CONTINUOUS
 62
     7
 10
265.07630000000381
 20
158.39580000001459
 30
0.0
 11
292.57630000000103
 21
158.39580000001459
 31
0.0
  0
LINE
  5
3FB
  8
0
  6
CONTINUOUS
 62
     7
 10
237.57630000000651
 20
158.39580000001459
 30
0.0
 11
265.07630000000381
 21
158.39580000001459
 31
0.0
  0
LINE
  5
3FC
  8
0
  6
CONTINUOUS
 62
     7
 10
238.36365632184371
 20
178.0958000000071
 30
0.0
 11
265.07630000000381
 21
178.0958000000071
 31
0.0
  0
LINE
  5
3FD
  8
0
  6
CONTINUOUS
 62
     7
 10
238.1481390804642
 20
163.0958000000071
 30
0.0
 11
265.07630000000381
 21
163.0958000000071
 31
0.0
  0
LINE
  5
3FE
  8
0
  6
CONTINUOUS
 62
     7
 10
240.05490309348119
 20
192.89580000001459
 30
0.0
 11
265.07630000000381
 21
192.89580000001459
 31
0.0
  0
LINE
  5
3FF
  8
0
  6
CONTINUOUS
 62
     7
 10
237.57630000000381
 20
157.3958000000064
 30
0.0
 11
237.57630000000381
 21
158.3958000000064
 31
0.0
  0
LINE
  5
400
  8
0
  6
CONTINUOUS
 62
     7
 10
238.55505789511921
 20
191.41734949999019
 30
0.0
 11
238.0806103448308
 21
158.39580000001459
 31
0.0
  0
LINE
  5
401
  8
0
  6
DASH_CENTER
 62
     1
 10
243.57630000000381
 20
189.39580000001459
 30
0.0
 11
243.57630000000381
 21
195.140500000012
 31
0.0
  0
LINE
  5
402
  8
0
  6
CONTINUOUS
 62
     7
 10
265.07630000000381
 20
157.3958000000064
 30
0.0
 11
292.07630000000381
 21
157.3958000000064
 31
0.0
  0
LINE
  5
403
  8
0
  6
CONTINUOUS
 62
     7
 10
265.07630000000381
 20
157.3958000000064
 30
0.0
 11
292.07630000000381
 21
157.3958000000064
 31
0.0
  0
ARC
  5
405
  8
0
  6
CONTINUOUS
 62
     7
 10
46.650012294455102
 20
-75.457562090201989
 30
0.0
 40
4.0
 50
180.0
 51
270.0
  0
ARC
  5
406
  8
0
  6
CONTINUOUS
 62
     7
 10
46.650012294455102
 20
-75.457562090201989
 30
0.0
 40
4.0
 50
90.0
 51
180.0
  0
ARC
  5
407
  8
0
  6
CONTINUOUS
 62
     7
 10
33.149912294456037
 20
-50.1197025093457
 30
0.0
 40
0.5
 50
180.0
 51
270.0
  0
ARC
  5
408
  8
0
  6
CONTINUOUS
 62
     7
 10
165.649946537586
 20
-105.6197095999692
 30
0.0
 40
12.0
 50
0.0
 51
70.528779365509308
  0
ARC
  5
409
  8
0
  6
CONTINUOUS
 62
     7
 10
165.649946537586
 20
-105.6197095999692
 30
0.0
 40
12.0
 50
270.0
 51
0.0
  0
ARC
  5
40A
  8
0
  6
CONTINUOUS
 62
     7
 10
165.649946537586
 20
-105.6197095999692
 30
0.0
 40
12.000000000000011
 50
109.47122063449071
 51
270.0
  0
ARC
  5
40B
  8
0
  6
CONTINUOUS
 62
     7
 10
-257.43932690723699
 20
92.395833073373637
 30
0.0
 40
43.500000000001137
 50
42.946775590004393
 51
47.053224409999061
  0
ARC
  5
40C
  8
0
  6
CONTINUOUS
 62
     7
 10
-257.43932690723602
 20
92.394560304018
 30
0.0
 40
39.500000000000561
 50
10.411869016472391
 51
57.98640433295629
  0
ARC
  5
40D
  8
0
  6
CONTINUOUS
 62
     7
 10
-257.43932690723602
 20
92.394560304018
 30
0.0
 40
39.499999999999879
 50
122.0135956670435
 51
169.58813098352741
  0
ARC
  5
40E
  8
0
  6
CONTINUOUS
 62
     7
 10
-257.43932690723602
 20
92.394560304018
 30
0.0
 40
39.499999999999631
 50
280.37006459196141
 51
349.58813098353022
  0
ARC
  5
40F
  8
0
  6
CONTINUOUS
 62
     7
 10
-257.43932690723602
 20
92.394560304018
 30
0.0
 40
39.499999999999368
 50
190.41186901647001
 51
259.58653582493821
  0
ARC
  5
410
  8
0
  6
CONTINUOUS
 62
     7
 10
-257.43932690723602
 20
92.394560304018
 30
0.0
 40
45.500000000001791
 50
64.524125705381536
 51
70.848614539728743
  0
ARC
  5
411
  8
0
  6
CONTINUOUS
 62
     7
 10
-257.43932690723602
 20
92.394560304018
 30
0.0
 40
45.500000000001023
 50
109.15138546027021
 51
115.4758742946165
  0
ARC
  5
412
  8
0
  6
CONTINUOUS
 62
     7
 10
-257.44106631608332
 20
58.145740722675889
 30
0.0
 40
3.250000000000028
 50
0.0
 51
180.0
  0
ARC
  5
413
  8
0
  6
CONTINUOUS
 62
     7
 10
-291.68815060349232
 20
92.395163348546333
 30
0.0
 40
3.25
 50
270.00000000006401
 51
90.00000000001701
  0
ARC
  5
414
  8
0
  6
CONTINUOUS
 62
     7
 10
-223.18815060349229
 20
92.395163348546333
 30
0.0
 40
3.2500000000009091
 50
90.0
 51
269.99999999993429
  0
ARC
  5
415
  8
0
  6
CONTINUOUS
 62
     7
 10
-257.43992995167707
 20
92.395163348546333
 30
0.0
 40
38.850000000001657
 50
122.5853725371035
 51
174.38844705559401
  0
ARC
  5
416
  8
0
  6
CONTINUOUS
 62
     7
 10
-257.43992995167707
 20
92.395163348546333
 30
0.0
 40
38.850000000000847
 50
5.6115529444057692
 51
57.414627462895417
  0
ARC
  5
417
  8
0
  6
CONTINUOUS
 62
     7
 10
-257.43992995167707
 20
92.395163348546333
 30
0.0
 40
38.849999999999177
 50
275.60984701709208
 51
354.38844705559421
  0
ARC
  5
418
  8
0
  6
CONTINUOUS
 62
     7
 10
-257.43992995167707
 20
92.395163348546333
 30
0.0
 40
38.850000000000868
 50
185.61155294440579
 51
264.38674112329329
  0
ARC
  5
419
  8
0
  6
CONTINUOUS
 62
     7
 10
-257.43992995167707
 20
92.395163348546333
 30
0.0
 40
45.000000000000533
 50
109.19526328669841
 51
115.58300197739661
  0
ARC
  5
41A
  8
0
  6
CONTINUOUS
 62
     7
 10
-257.43992995167707
 20
92.395163348546333
 30
0.0
 40
45.000000000003183
 50
64.416998022602456
 51
70.804736713300471
  0
ARC
  5
41B
  8
0
  6
CONTINUOUS
 62
     7
 10
-257.43932690723699
 20
92.395833073373637
 30
0.0
 40
43.499999999973149
 50
312.94677559013189
 51
317.053224410057
  0
ARC
  5
41C
  8
0
  6
CONTINUOUS
 62
     7
 10
-226.4393269072369
 20
125.7012380401744
 30
0.0
 40
2.0
 50
180.0
 51
227.05322441001061
  0
ARC
  5
41D
  8
0
  6
CONTINUOUS
 62
     7
 10
-219.9393269072369
 20
66.395833073373637
 30
0.0
 40
3.0
 50
270.0
 51
0.0
  0
ARC
  5
41E
  8
0
  6
CONTINUOUS
 62
     7
 10
-219.9393269072369
 20
118.39583307337369
 30
0.0
 40
3.0
 50
0.0
 51
90.0
  0
ARC
  5
41F
  8
0
  6
CONTINUOUS
 62
     7
 10
-224.13392194043709
 20
61.395833073373637
 30
0.0
 40
2.0
 50
90.0
 51
137.05322440873539
  0
ARC
  5
420
  8
0
  6
CONTINUOUS
 62
     7
 10
-224.13392194043709
 20
123.39583307337369
 30
0.0
 40
2.0000000000268039
 50
222.94677558993061
 51
270.0
  0
ARC
  5
421
  8
0
  6
CONTINUOUS
 62
     7
 10
-226.4393269072369
 20
59.090428106676541
 30
0.0
 40
1.999999999979551
 50
132.94677558916339
 51
180.0
  0
ARC
  5
422
  8
0
  6
CONTINUOUS
 62
     7
 10
-231.4393269072369
 20
54.895833073373637
 30
0.0
 40
3.0
 50
270.0
 51
0.0
  0
ARC
  5
423
  8
0
  6
CONTINUOUS
 62
     7
 10
-231.4393269072369
 20
129.89583307337369
 30
0.0
 40
3.0
 50
0.0
 51
90.0
  0
ARC
  5
424
  8
0
  6
CONTINUOUS
 62
     7
 10
-283.43932690723511
 20
129.89583307337369
 30
0.0
 40
3.0
 50
90.0
 51
180.0
  0
ARC
  5
425
  8
0
  6
CONTINUOUS
 62
     7
 10
-283.43932690723511
 20
54.895833073373637
 30
0.0
 40
3.0
 50
180.0
 51
270.0
  0
ARC
  5
426
  8
0
  6
CONTINUOUS
 62
     7
 10
-288.43932690723511
 20
59.090428106676541
 30
0.0
 40
2.0
 50
0.0
 51
47.053224410836002
  0
ARC
  5
427
  8
0
  6
CONTINUOUS
 62
     7
 10
-290.74473187403498
 20
123.39583307337369
 30
0.0
 40
2.0
 50
270.0
 51
317.05322441006882
  0
ARC
  5
428
  8
0
  6
CONTINUOUS
 62
     7
 10
-290.74473187403498
 20
61.395833073373637
 30
0.0
 40
2.0000000000510192
 50
42.946775591243536
 51
90.0
  0
ARC
  5
429
  8
0
  6
CONTINUOUS
 62
     7
 10
-294.93932690723511
 20
118.39583307337369
 30
0.0
 40
3.0
 50
90.0
 51
180.0
  0
ARC
  5
42A
  8
0
  6
CONTINUOUS
 62
     7
 10
-294.93932690723511
 20
66.395833073373637
 30
0.0
 40
3.0
 50
180.0
 51
270.0
  0
ARC
  5
42B
  8
0
  6
CONTINUOUS
 62
     7
 10
-288.43932690723511
 20
125.7012380401744
 30
0.0
 40
2.0000000000292539
 50
312.94677559000598
 51
0.0
  0
ARC
  5
42C
  8
0
  6
CONTINUOUS
 62
     7
 10
-257.439326907235
 20
92.395833073373637
 30
0.0
 40
43.499999999999361
 50
132.94677559000019
 51
137.05322440999569
  0
ARC
  5
42D
  8
0
  6
CONTINUOUS
 62
     7
 10
-257.439326907235
 20
92.395833073373637
 30
0.0
 40
43.499999999976943
 50
222.94677558994391
 51
227.05322440986811
  0
ARC
  5
42E
  8
0
  6
CONTINUOUS
 62
     7
 10
-241.07974627775991
 20
158.2457712036927
 30
0.0
 40
0.9999999999979709
 50
4.9999999996732187
 51
73.742972103710812
  0
ARC
  5
42F
  8
0
  6
CONTINUOUS
 62
     7
 10
-242.759426907235
 20
152.48567806355959
 30
0.0
 40
6.9999999999995346
 50
73.742972103418111
 51
80.16981757052173
  0
ARC
  5
430
  8
0
  6
CONTINUOUS
 62
     7
 10
-242.759426907235
 20
152.48567806355959
 30
0.0
 40
7.0
 50
90.0
 51
106.2570278965747
  0
ARC
  5
431
  8
0
  6
CONTINUOUS
 62
     7
 10
-244.4391075367065
 20
158.2457712036927
 30
0.0
 40
0.9999999999968656
 50
106.2570278964361
 51
175.0000000003312
  0
ARC
  5
432
  8
0
  6
CONTINUOUS
 62
     7
 10
-242.759426907235
 20
152.48567806355959
 30
0.0
 40
6.9999999999999547
 50
80.16981757052173
 51
90.0
  0
ARC
  5
433
  8
0
  6
CONTINUOUS
 62
     7
 10
-272.11922690723611
 20
152.48567806355959
 30
0.0
 40
7.0
 50
90.0
 51
99.830182429478285
  0
ARC
  5
434
  8
0
  6
CONTINUOUS
 62
     7
 10
-270.43954627776191
 20
158.2457712036927
 30
0.0
 40
0.9999999999979709
 50
4.9999999996732187
 51
73.742972103710812
  0
ARC
  5
435
  8
0
  6
CONTINUOUS
 62
     7
 10
-272.11922690723611
 20
152.48567806355959
 30
0.0
 40
6.9999999999992886
 50
73.742972103425046
 51
90.0
  0
ARC
  5
436
  8
0
  6
CONTINUOUS
 62
     7
 10
-272.11922690723611
 20
152.48567806355959
 30
0.0
 40
6.9999999999999547
 50
99.830182429478285
 51
106.2570278965826
  0
ARC
  5
437
  8
0
  6
CONTINUOUS
 62
     7
 10
-273.79890753670941
 20
158.2457712036927
 30
0.0
 40
0.9999999999966428
 50
106.2570278963924
 51
175.00000000032711
  0
ARC
  5
438
  8
0
  6
CONTINUOUS
 62
     7
 10
-246.30995954655631
 20
131.33622092052849
 30
0.0
 40
0.5000000000026571
 50
74.048221431363061
 51
128.7295719057087
  0
ARC
  5
439
  8
0
  6
CONTINUOUS
 62
     7
 10
-237.93992995167619
 20
127.8919044994942
 30
0.0
 40
0.5
 50
0.0
 51
61.21687000562337
  0
ARC
  5
43A
  8
0
  6
CONTINUOUS
 62
     7
 10
-257.4381506047701
 20
92.39574072431391
 30
0.0
 40
41.000000001840853
 50
105.951778568724
 51
107.1898418199263
  0
ARC
  5
43B
  8
0
  6
CONTINUOUS
 62
     7
 10
-268.56869426791388
 20
131.33622092052849
 30
0.0
 40
0.5000000000026041
 50
51.270428094364092
 51
105.9517785684491
  0
ARC
  5
43C
  8
0
  6
CONTINUOUS
 62
     7
 10
-276.93872386279321
 20
127.8919044994942
 30
0.0
 40
0.4999999999998869
 50
118.783129994368
 51
180.0
  0
ARC
  5
43D
  8
0
  6
CONTINUOUS
 62
     7
 10
-257.4381506034922
 20
92.395740722675924
 30
0.0
 40
41.000000003852541
 50
117.8153912416184
 51
118.78312999427919
  0
ARC
  5
43E
  8
0
  6
DASH_CENTER
 62
     1
 10
-257.439326907235
 20
92.395833073373637
 30
0.0
 40
38.800000000000431
 50
106.58387830778101
 51
118.41846781383811
  0
ARC
  5
43F
  8
0
  6
CONTINUOUS
 62
     7
 10
-272.28817408309072
 20
128.2420565501649
 30
0.0
 40
3.2500000000003428
 50
202.4999999999873
 51
0.0
  0
ARC
  5
440
  8
0
  6
CONTINUOUS
 62
     7
 10
-272.28817408309072
 20
128.2420565501649
 30
0.0
 40
3.25
 50
0.0
 51
22.49999999999898
  0
ARC
  5
441
  8
0
  6
CONTINUOUS
 62
     7
 10
-242.58812712389221
 20
128.2420565501649
 30
0.0
 40
3.2500000000002589
 50
157.50000000001239
 51
180.0
  0
ARC
  5
442
  8
0
  6
CONTINUOUS
 62
     7
 10
-242.58812712389221
 20
128.2420565501649
 30
0.0
 40
3.25
 50
180.0
 51
337.50000000001279
  0
ARC
  5
443
  8
0
  6
DASH_CENTER
 62
     1
 10
-257.43697429974941
 20
92.395833073373637
 30
0.0
 40
38.799999999999642
 50
61.581532186160977
 51
73.41612169221662
  0
ARC
  5
444
  8
0
  6
CONTINUOUS
 62
     7
 10
-257.440503210977
 20
92.395740722675924
 30
0.0
 40
41.000000003852591
 50
61.216870005720878
 51
62.271532563813317
  0
ARC
  5
445
  8
0
  6
CONTINUOUS
 62
     7
 10
-257.4405032096991
 20
92.39574072431391
 30
0.0
 40
41.00000000184145
 50
72.726434720540695
 51
74.048221431275095
  0
ARC
  5
454
  8
0
  6
CONTINUOUS
 62
     7
 10
-138.04988983518851
 20
133.10076276253821
 30
0.0
 40
0.1999999999998181
 50
359.99999999973937
 51
90.000000000252399
  0
ARC
  5
455
  8
0
  6
CONTINUOUS
 62
     7
 10
-145.14990399906631
 20
131.92912049863261
 30
0.0
 40
0.2000000000000146
 50
179.9999395836692
 51
269.99999999971499
  0
ARC
  5
456
  8
0
  6
CONTINUOUS
 62
     7
 10
-145.14990399906631
 20
131.92912049863261
 30
0.0
 40
0.2000000000000146
 50
179.9999395836692
 51
269.99999999971499
  0
ARC
  5
457
  8
0
  6
CONTINUOUS
 62
     7
 10
-143.61004306694991
 20
129.7550246048402
 30
0.0
 40
0.9999999999991267
 50
94.999999999925706
 51
163.74297210338449
  0
ARC
  5
458
  8
0
  6
CONTINUOUS
 62
     7
 10
-137.84994992682331
 20
128.07534397536861
 30
0.0
 40
6.9999999999988738
 50
163.74297210338429
 51
176.11615106888891
  0
ARC
  5
459
  8
0
  6
CONTINUOUS
 62
     7
 10
-142.34994992682331
 20
132.8007627625382
 30
0.0
 40
0.5
 50
90.0
 51
180.0
  0
ARC
  5
45A
  8
0
  6
CONTINUOUS
 62
     7
 10
-143.61004306694991
 20
90.718969892483287
 30
0.0
 40
1.000000000002401
 50
196.2570278964013
 51
265.00000000006588
  0
ARC
  5
45B
  8
0
  6
CONTINUOUS
 62
     7
 10
-137.84994992682331
 20
92.398650521955645
 30
0.0
 40
7.0
 50
180.0
 51
196.2570278965913
  0
ARC
  5
45C
  8
0
  6
CONTINUOUS
 62
     7
 10
-137.84994992682331
 20
92.398650521955645
 30
0.0
 40
6.9999999999985869
 50
163.74297210339239
 51
180.0
  0
ARC
  5
45D
  8
0
  6
CONTINUOUS
 62
     7
 10
-143.61004306694991
 20
94.078331151426198
 30
0.0
 40
0.9999999999992683
 50
94.999999999925009
 51
163.74297210338449
  0
ARC
  5
45E
  8
0
  6
CONTINUOUS
 62
     7
 10
-145.14990399906631
 20
133.5007627625379
 30
0.0
 40
0.2000000000000146
 50
179.99993958292009
 51
269.99999999971499
  0
ARC
  5
45F
  8
0
  6
CONTINUOUS
 62
     7
 10
-100.8499026263421
 20
133.50054351427869
 30
0.0
 40
0.4999999999928021
 50
270.99999999935648
 51
0.0000000003094
  0
ARC
  5
460
  8
0
  6
CONTINUOUS
 62
     7
 10
-100.849902626344
 20
136.0005435142796
 30
0.0
 40
0.4999999999937447
 50
270.99999999957288
 51
0.00000000020518
  0
ARC
  5
461
  8
0
  6
CONTINUOUS
 62
     7
 10
-100.849902626344
 20
48.790930407111091
 30
0.0
 40
0.4999999999928093
 50
359.99999999958959
 51
89.000000000427306
  0
ARC
  5
462
  8
0
  6
CONTINUOUS
 62
     7
 10
-100.8499026263421
 20
51.290930407111091
 30
0.0
 40
0.4999999999909052
 50
359.99999999958959
 51
89.000000000645485
  0
ARC
  5
463
  8
0
  6
CONTINUOUS
 62
     7
 10
-105.5499810114612
 20
136.0957246360733
 30
0.0
 40
0.2000000000060993
 50
270.00000000183201
 51
359.99999999973937
  0
ARC
  5
464
  8
0
  6
CONTINUOUS
 62
     7
 10
-110.04990262634919
 20
135.3957246360672
 30
0.0
 40
0.5
 50
90.0
 51
180.0
  0
ARC
  5
465
  8
0
  6
CONTINUOUS
 62
     7
 10
-110.3499026263521
 20
132.0957246360633
 30
0.0
 40
0.1999999999970896
 50
179.9999999973945
 51
270.00000000026063
  0
ARC
  5
466
  8
0
  6
CONTINUOUS
 62
     7
 10
-138.04988983518851
 20
133.062298317119
 30
0.0
 40
0.1999999999997044
 50
359.99999999973937
 51
90.000000000284984
  0
ARC
  5
467
  8
0
  6
CONTINUOUS
 62
     7
 10
-110.04990262634919
 20
132.60094879970279
 30
0.0
 40
0.3000000000010925
 50
91.000000000153975
 51
179.99999999981
  0
ARC
  5
468
  8
0
  6
CONTINUOUS
 62
     7
 10
-110.04990262634919
 20
135.10094879970279
 30
0.0
 40
0.3000000000010925
 50
91.000000000153975
 51
179.99999999981
  0
ARC
  5
469
  8
0
  6
CONTINUOUS
 62
     7
 10
-110.04990262635199
 20
49.690567157573462
 30
0.0
 40
0.2999999999992013
 50
179.9999999993052
 51
269.00000000036817
  0
ARC
  5
46A
  8
0
  6
CONTINUOUS
 62
     7
 10
-110.0499026263529
 20
52.190567157573462
 30
0.0
 40
0.2999999999982919
 50
179.9999999993052
 51
269.00000000054189
  0
ARC
  5
46B
  8
0
  6
CONTINUOUS
 62
     7
 10
-141.7096616409286
 20
158.2457274690307
 30
0.0
 40
0.9999999999984471
 50
106.2570278963571
 51
175.00000000017249
  0
ARC
  5
46C
  8
0
  6
CONTINUOUS
 62
     7
 10
-140.02998101145519
 20
152.48563432890049
 30
0.0
 40
6.9999999999988658
 50
99.829351723034705
 51
106.25702789658391
  0
ARC
  5
46D
  8
0
  6
CONTINUOUS
 62
     7
 10
-140.02998101145519
 20
152.48563432890049
 30
0.0
 40
6.9999999999982094
 50
90.0
 51
99.829351723034705
  0
ARC
  5
46E
  8
0
  6
CONTINUOUS
 62
     7
 10
-140.02998101145519
 20
152.48563432890049
 30
0.0
 40
6.9999999999984421
 50
73.742972103423014
 51
90.0
  0
ARC
  5
46F
  8
0
  6
CONTINUOUS
 62
     7
 10
-138.3503003819838
 20
158.2457274690307
 30
0.0
 40
0.9999999999990837
 50
4.999999999822939
 51
73.742972103592834
  0
ARC
  5
470
  8
0
  6
CONTINUOUS
 62
     7
 10
-112.3497616409264
 20
158.2457274690307
 30
0.0
 40
0.9999999999989483
 50
106.2570278964556
 51
175.00000000018159
  0
ARC
  5
471
  8
0
  6
CONTINUOUS
 62
     7
 10
-110.6700810114549
 20
152.48563432890049
 30
0.0
 40
7.0
 50
90.0
 51
106.25702789658391
  0
ARC
  5
472
  8
0
  6
CONTINUOUS
 62
     7
 10
-110.6700810114549
 20
152.48563432890049
 30
0.0
 40
6.9999999999998721
 50
80.169817570521616
 51
90.0
  0
ARC
  5
473
  8
0
  6
CONTINUOUS
 62
     7
 10
-108.99040038198341
 20
158.2457274690307
 30
0.0
 40
0.99999999999999
 50
4.9999999998184004
 51
73.74297210364287
  0
ARC
  5
474
  8
0
  6
CONTINUOUS
 62
     7
 10
-110.6700810114549
 20
152.48563432890049
 30
0.0
 40
6.9999999999981828
 50
73.742972103430276
 51
80.169817570521616
  0
ARC
  5
475
  8
0
  6
CONTINUOUS
 62
     7
 10
-278.9972543947631
 20
187.0758043768852
 30
0.0
 40
6.999999999999222
 50
73.742972103401129
 51
90.0
  0
ARC
  5
476
  8
0
  6
CONTINUOUS
 62
     7
 10
-277.31757376529441
 20
192.8358975170155
 30
0.0
 40
1.0000000000022671
 50
21.096238373185759
 51
73.742972103289773
  0
ARC
  5
477
  8
0
  6
CONTINUOUS
 62
     7
 10
-278.9972543947631
 20
187.0758043768852
 30
0.0
 40
7.0
 50
90.0
 51
106.2570278966123
  0
ARC
  5
478
  8
0
  6
CONTINUOUS
 62
     7
 10
-280.67693502423651
 20
192.8358975170155
 30
0.0
 40
0.9999999999993756
 50
106.25702789655701
 51
158.90376162675801
  0
ARC
  5
479
  8
0
  6
CONTINUOUS
 62
     7
 10
-235.99725439476319
 20
187.0758043768852
 30
0.0
 40
7.0
 50
90.0
 51
106.2570278966201
  0
ARC
  5
47A
  8
0
  6
CONTINUOUS
 62
     7
 10
-237.67693502423651
 20
192.8358975170155
 30
0.0
 40
0.9999999999996461
 50
106.2570278966102
 51
158.90376162675801
  0
ARC
  5
47B
  8
0
  6
CONTINUOUS
 62
     7
 10
-235.99725439476319
 20
187.0758043768852
 30
0.0
 40
6.999999999999214
 50
73.742972103401357
 51
90.0
  0
ARC
  5
47C
  8
0
  6
CONTINUOUS
 62
     7
 10
-234.31757376529441
 20
192.8358975170155
 30
0.0
 40
1.0000000000022671
 50
21.096238373185759
 51
73.742972103289773
  0
ARC
  5
47D
  8
0
  6
CONTINUOUS
 62
     7
 10
33.149912294455831
 20
147.89590178839509
 30
0.0
 40
0.5
 50
180.0
 51
270.0
  0
ARC
  5
47E
  8
0
  6
CONTINUOUS
 62
     7
 10
-98.349902626351223
 20
155.39570178839449
 30
0.0
 40
2.0
 50
90.0
 51
180.0
  0
ARC
  5
47F
  8
0
  6
CONTINUOUS
 62
     7
 10
-98.349902626351223
 20
29.395901788395069
 30
0.0
 40
1.999999999999956
 50
180.0
 51
270.0
  0
ARC
  5
484
  8
0
  6
DASH_CENTER
 62
     1
 10
265.07630000000012
 20
92.395799999999994
 30
0.0
 40
72.500000000000071
 50
220.2569261063251
 51
229.74307389367581
  0
ARC
  5
485
  8
0
  6
DASH_CENTER
 62
     1
 10
265.07630000000012
 20
92.395799999999994
 30
0.0
 40
72.499999999999915
 50
130.25692610632521
 51
139.7430738936759
  0
ARC
  5
486
  8
0
  6
DASH_CENTER
 62
     1
 10
265.07630000000012
 20
92.395799999999994
 30
0.0
 40
72.499999999999915
 50
40.256926106325139
 51
49.74307389367592
  0
ARC
  5
487
  8
0
  6
CONTINUOUS
 62
     7
 10
265.07630000000012
 20
92.395799999999994
 30
0.0
 40
16.999999999999989
 50
90.0
 51
270.0
  0
ARC
  5
488
  8
0
  6
CONTINUOUS
 62
     7
 10
265.07630000000012
 20
92.395799999999994
 30
0.0
 40
18.999999999999989
 50
90.0
 51
270.0
  0
ARC
  5
489
  8
0
  6
CONTINUOUS
 62
     7
 10
265.07630000000012
 20
92.395799999999994
 30
0.0
 40
22.499999999999989
 50
90.0
 51
270.0
  0
ARC
  5
48A
  8
0
  6
CONTINUOUS
 62
     7
 10
265.07630000000012
 20
92.395799999999994
 30
0.0
 40
51.0
 50
90.0
 51
270.0
  0
ARC
  5
48B
  8
0
  6
CONTINUOUS
 62
     7
 10
265.07630000000012
 20
92.395799999999994
 30
0.0
 40
55.0
 50
90.0
 51
270.0
  0
ARC
  5
48C
  8
0
  6
CONTINUOUS
 62
     7
 10
265.07630000000012
 20
92.395799999999994
 30
0.0
 40
82.500000000000398
 50
218.01227954435191
 51
231.98772045564851
  0
ARC
  5
48D
  8
0
  6
CONTINUOUS
 62
     7
 10
265.07630000000012
 20
92.395799999999994
 30
0.0
 40
82.500000000000554
 50
128.01227954435109
 51
141.98772045564809
  0
ARC
  5
48E
  8
0
  6
CONTINUOUS
 62
     7
 10
265.07630000000012
 20
92.395799999999994
 30
0.0
 40
17.0
 50
270.0
 51
90.0
  0
ARC
  5
48F
  8
0
  6
CONTINUOUS
 62
     7
 10
265.07630000000012
 20
92.395799999999994
 30
0.0
 40
19.0
 50
270.0
 51
90.0
  0
ARC
  5
490
  8
0
  6
CONTINUOUS
 62
     7
 10
265.07630000000012
 20
92.395799999999994
 30
0.0
 40
22.5
 50
270.0
 51
90.0
  0
ARC
  5
491
  8
0
  6
CONTINUOUS
 62
     7
 10
265.07630000000012
 20
92.395799999999994
 30
0.0
 40
51.0
 50
270.0
 51
90.0
  0
ARC
  5
492
  8
0
  6
CONTINUOUS
 62
     7
 10
265.07630000000012
 20
92.395799999999994
 30
0.0
 40
55.0
 50
270.0
 51
90.0
  0
ARC
  5
493
  8
0
  6
CONTINUOUS
 62
     7
 10
265.07630000000012
 20
92.395799999999994
 30
0.0
 40
82.499999999999758
 50
308.01227954435137
 51
321.98772045564812
  0
ARC
  5
494
  8
0
  6
CONTINUOUS
 62
     7
 10
265.07630000000012
 20
92.395799999999994
 30
0.0
 40
82.500000000000398
 50
38.012279544351927
 51
51.987720455649011
  0
ARC
  5
495
  8
0
  6
DASH_CENTER
 62
     1
 10
265.07630000000012
 20
92.395799999999994
 30
0.0
 40
72.499999999999986
 50
310.25692610632512
 51
319.7430738936759
  0
ARC
  5
496
  8
0
  6
CONTINUOUS
 62
     7
 10
-257.439326907235
 20
92.395833073373637
 30
0.0
 40
65.499999999999986
 50
253.0768351943581
 51
254.62404395565721
  0
ARC
  5
497
  8
0
  6
CONTINUOUS
 62
     7
 10
-257.439326907235
 20
92.395833073373637
 30
0.0
 40
65.500000000001535
 50
195.37595604434159
 51
196.92316480564051
  0
ARC
  5
498
  8
0
  6
CONTINUOUS
 62
     7
 10
-257.439326907235
 20
92.395833073373637
 30
0.0
 40
65.500000000000298
 50
243.99168012464079
 51
244.90261522002999
  0
ARC
  5
499
  8
0
  6
CONTINUOUS
 62
     7
 10
-257.439326907235
 20
92.395833073373637
 30
0.0
 40
65.499999999999034
 50
333.99168012464111
 51
334.90261522003073
  0
ARC
  5
49A
  8
0
  6
CONTINUOUS
 62
     7
 10
-193.689326907235
 20
66.395833073373637
 30
0.0
 40
1.25
 50
270.00000000004172
 51
90.0
  0
ARC
  5
49B
  8
0
  6
CONTINUOUS
 62
     7
 10
-257.439326907235
 20
92.395833073373637
 30
0.0
 40
65.499999999997939
 50
338.57586398132628
 51
339.73191946136268
  0
ARC
  5
49C
  8
0
  6
CONTINUOUS
 62
     7
 10
-257.439326907235
 20
92.395833073373637
 30
0.0
 40
65.49999999999946
 50
343.07683519435977
 51
344.62404395565773
  0
ARC
  5
49D
  8
0
  6
CONTINUOUS
 62
     7
 10
-257.439326907235
 20
92.395833073373637
 30
0.0
 40
65.499999999998892
 50
32.804479885974082
 51
35.305989880948943
  0
ARC
  5
49E
  8
0
  6
CONTINUOUS
 62
     7
 10
-257.439326907235
 20
92.395833073373637
 30
0.0
 40
65.499999999999815
 50
26.089007293400421
 51
28.409225847576401
  0
ARC
  5
49F
  8
0
  6
CONTINUOUS
 62
     7
 10
-257.439326907235
 20
92.395833073373637
 30
0.0
 40
65.495373443752626
 50
20.269849444299261
 51
22.338597907693529
  0
ARC
  5
4A0
  8
0
  6
CONTINUOUS
 62
     7
 10
-257.439326907235
 20
92.395833073373637
 30
0.0
 40
65.49999999999892
 50
15.37595604434231
 51
16.923164805641019
  0
ARC
  5
4A1
  8
0
  6
CONTINUOUS
 62
     7
 10
-257.439326907235
 20
92.395833073373637
 30
0.0
 40
65.499999999998849
 50
163.07683519435881
 51
164.62404395565841
  0
ARC
  5
4A2
  8
0
  6
CONTINUOUS
 62
     7
 10
-257.439326907235
 20
92.395833073373637
 30
0.0
 40
65.499999999999957
 50
153.99168012464159
 51
154.90261522003041
  0
ARC
  5
4A3
  8
0
  6
CONTINUOUS
 62
     7
 10
-257.439326907235
 20
92.395833073373637
 30
0.0
 40
65.499999999999773
 50
285.37595604434199
 51
286.92316480563949
  0
ARC
  5
4A4
  8
0
  6
CONTINUOUS
 62
     7
 10
-193.689326907235
 20
71.395833073373637
 30
0.0
 40
1.25
 50
270.00000000004172
 51
90.0
  0
ARC
  5
4A5
  8
0
  6
CONTINUOUS
 62
     7
 10
-193.689326907235
 20
113.3958330733735
 30
0.0
 40
1.25
 50
270.00000000004172
 51
90.0
  0
ARC
  5
4A6
  8
0
  6
CONTINUOUS
 62
     7
 10
-193.689326907235
 20
119.39583307337359
 30
0.0
 40
1.25
 50
270.00000000004172
 51
90.0
  0
ARC
  5
4A7
  8
0
  6
CONTINUOUS
 62
     7
 10
-193.689326907235
 20
125.8958330733735
 30
0.0
 40
1.25
 50
270.00000000004172
 51
90.0
  0
ARC
  5
4A8
  8
0
  6
CONTINUOUS
 62
     7
 10
-193.689326907235
 20
132.89583307337361
 30
0.0
 40
1.25
 50
270.00000000004172
 51
90.0
  0
ARC
  5
4A9
  8
0
  6
CONTINUOUS
 62
     7
 10
-283.439326907235
 20
28.645833073373641
 30
0.0
 40
1.25
 50
180.00000000004169
 51
0.00000000004169
  0
ARC
  5
4AA
  8
0
  6
CONTINUOUS
 62
     7
 10
-257.439326907235
 20
92.395833073373637
 30
0.0
 40
65.499999999998963
 50
248.57586398132409
 51
249.73191946136271
  0
ARC
  5
4AB
  8
0
  6
CONTINUOUS
 62
     7
 10
-278.439326907235
 20
28.645833073373641
 30
0.0
 40
1.25
 50
180.00000000004169
 51
0.00000000004169
  0
ARC
  5
4AC
  8
0
  6
CONTINUOUS
 62
     7
 10
-231.439326907235
 20
28.645833073373641
 30
0.0
 40
1.25
 50
179.99999999995831
 51
359.99999999995828
  0
ARC
  5
4AD
  8
0
  6
CONTINUOUS
 62
     7
 10
-257.439326907235
 20
92.395833073373637
 30
0.0
 40
65.499999999999147
 50
290.2680805386367
 51
291.42413601867281
  0
ARC
  5
4AE
  8
0
  6
CONTINUOUS
 62
     7
 10
-236.439326907235
 20
28.645833073373641
 30
0.0
 40
1.25
 50
179.99999999995831
 51
359.99999999995828
  0
ARC
  5
4AF
  8
0
  6
CONTINUOUS
 62
     7
 10
-257.439326907235
 20
92.395833073373637
 30
0.0
 40
65.500000000000711
 50
212.80447988597211
 51
215.30598988094761
  0
ARC
  5
4B0
  8
0
  6
CONTINUOUS
 62
     7
 10
-257.439326907235
 20
92.395833073373637
 30
0.0
 40
65.499999999999005
 50
206.08900729340081
 51
208.40922584757601
  0
ARC
  5
4B1
  8
0
  6
CONTINUOUS
 62
     7
 10
-257.439326907235
 20
92.395833073373637
 30
0.0
 40
65.495373443755796
 50
200.26984944429739
 51
202.33859790769171
  0
ARC
  5
4B2
  8
0
  6
CONTINUOUS
 62
     7
 10
-321.189326907235
 20
71.395833073373637
 30
0.0
 40
1.2500000000009091
 50
90.0
 51
270.0
  0
ARC
  5
4B3
  8
0
  6
CONTINUOUS
 62
     7
 10
-321.189326907235
 20
65.395833073373623
 30
0.0
 40
1.2500000000009091
 50
90.0
 51
270.0
  0
ARC
  5
4B4
  8
0
  6
CONTINUOUS
 62
     7
 10
-321.189326907235
 20
58.895833073373637
 30
0.0
 40
1.2500000000009091
 50
90.0
 51
270.0
  0
ARC
  5
4B5
  8
0
  6
CONTINUOUS
 62
     7
 10
-321.189326907235
 20
51.895833073373652
 30
0.0
 40
1.2500000000009091
 50
90.0
 51
270.0
  0
ARC
  5
4B6
  8
0
  6
CONTINUOUS
 62
     7
 10
-321.189326907235
 20
118.39583307337359
 30
0.0
 40
1.250000000001009
 50
90.0
 51
270.0
  0
ARC
  5
4B7
  8
0
  6
CONTINUOUS
 62
     7
 10
-257.439326907235
 20
92.395833073373637
 30
0.0
 40
65.500000000001535
 50
158.57586398132489
 51
159.73191946136251
  0
ARC
  5
4B8
  8
0
  6
CONTINUOUS
 62
     7
 10
-321.189326907235
 20
113.3958330733735
 30
0.0
 40
1.250000000001009
 50
90.0
 51
270.0
  0
ARC
  5
4B9
  8
0
  6
CONTINUOUS
 62
     7
 10
-300.939326907235
 20
142.03200939669631
 30
0.0
 40
0.4999999999992902
 50
311.230577154868
 51
0.00000000020518
  0
ARC
  5
4BA
  8
0
  6
CONTINUOUS
 62
     7
 10
-307.07550323056029
 20
135.89583307337361
 30
0.0
 40
0.5
 50
270.0
 51
318.76942284519612
  0
ARC
  5
4BB
  8
0
  6
CONTINUOUS
 62
     7
 10
-316.755532072503
 20
121.3369423263326
 30
0.0
 40
0.5
 50
0.0
 51
60.000000000044238
  0
ARC
  5
4BC
  8
0
  6
CONTINUOUS
 62
     7
 10
-316.755532072503
 20
121.3369423263326
 30
0.0
 40
0.4999999999990933
 50
333.9916801245945
 51
0.0
  0
ARC
  5
4BD
  8
0
  6
CONTINUOUS
 62
     7
 10
-213.939326907235
 20
142.0320093966981
 30
0.0
 40
0.5
 50
180.0000000002052
 51
228.76942284502479
  0
ARC
  5
4BE
  8
0
  6
CONTINUOUS
 62
     7
 10
-198.123121741967
 20
63.454723820414642
 30
0.0
 40
0.5000000000000222
 50
153.99168012464381
 51
239.9999999999896
  0
ARC
  5
4BF
  8
0
  6
CONTINUOUS
 62
     7
 10
-207.8031505839142
 20
48.895833073373637
 30
0.0
 40
0.5
 50
90.0
 51
138.76942284504659
  0
ARC
  5
4C0
  8
0
  6
CONTINUOUS
 62
     7
 10
-213.939326907235
 20
42.759656750051917
 30
0.0
 40
0.5000000000011232
 50
131.2305771551126
 51
180.0
  0
ARC
  5
4C1
  8
0
  6
CONTINUOUS
 62
     7
 10
-228.49821765427691
 20
33.079627908104733
 30
0.0
 40
0.5000000000010619
 50
30.00000000005009
 51
116.0083198752632
  0
ARC
  5
4C2
  8
0
  6
CONTINUOUS
 62
     7
 10
-286.38043616019399
 20
33.079627908104733
 30
0.0
 40
0.4999999999995754
 50
63.991680124733797
 51
150.0000000000386
  0
ARC
  5
4C3
  8
0
  6
CONTINUOUS
 62
     7
 10
-300.939326907235
 20
42.759656750051917
 30
0.0
 40
0.5
 50
0.0
 51
48.769422845281753
  0
ARC
  5
4C4
  8
0
  6
CONTINUOUS
 62
     7
 10
-257.439326907235
 20
92.395833073373637
 30
0.0
 40
65.499999999999105
 50
40.761880529934743
 51
48.769422845133391
  0
ARC
  5
4C5
  8
0
  6
CONTINUOUS
 62
     7
 10
-257.439326907235
 20
92.395833073373637
 30
0.0
 40
65.50000000000054
 50
131.23057715486851
 51
138.7694228451326
  0
ARC
  5
4C6
  8
0
  6
CONTINUOUS
 62
     7
 10
-257.439326907235
 20
92.395833073373637
 30
0.0
 40
65.500000000000625
 50
220.76188052993251
 51
228.76942284512981
  0
ARC
  5
4C7
  8
0
  6
CONTINUOUS
 62
     7
 10
-257.439326907235
 20
92.395833073373637
 30
0.0
 40
65.500000000000213
 50
295.09738477997081
 51
296.0083198753585
  0
ARC
  5
4C8
  8
0
  6
CONTINUOUS
 62
     7
 10
-257.439326907235
 20
92.395833073373637
 30
0.0
 40
65.499999999997982
 50
311.23057715486721
 51
318.76942284513109
  0
ARC
  5
4C9
  8
0
  6
CONTINUOUS
 62
     7
 10
-257.439326907235
 20
92.395833073373637
 30
0.0
 40
82.499999999999233
 50
308.01227954435092
 51
321.98772045564812
  0
ARC
  5
4CA
  8
0
  6
CONTINUOUS
 62
     7
 10
-257.439326907235
 20
92.395833073373637
 30
0.0
 40
82.500000000000369
 50
218.01227954435191
 51
231.98772045564809
  0
ARC
  5
4CB
  8
0
  6
CONTINUOUS
 62
     7
 10
-257.439326907235
 20
92.395833073373637
 30
0.0
 40
82.500000000000398
 50
128.012279544352
 51
141.9877204556486
  0
ARC
  5
4CC
  8
0
  6
CONTINUOUS
 62
     7
 10
-257.439326907235
 20
92.395833073373637
 30
0.0
 40
82.499999999999844
 50
38.012279544351408
 51
51.987720455649111
  0
ARC
  5
4CD
  8
0
  6
DASH_CENTER
 62
     1
 10
-257.439326907235
 20
92.395833073373637
 30
0.0
 40
72.499999999999829
 50
39.940521986670241
 51
50.059478013330377
  0
ARC
  5
4CE
  8
0
  6
DASH_CENTER
 62
     1
 10
-257.439326907235
 20
92.395833073373637
 30
0.0
 40
72.499999999999559
 50
129.8614150198365
 51
140.13858498016401
  0
ARC
  5
4CF
  8
0
  6
DASH_CENTER
 62
     1
 10
-257.439326907235
 20
92.395833073373637
 30
0.0
 40
72.499999999998764
 50
310.09872872022129
 51
319.90127127977809
  0
ARC
  5
4D0
  8
0
  6
DASH_CENTER
 62
     1
 10
-257.439326907235
 20
92.395833073373637
 30
0.0
 40
72.499999999999986
 50
220.0196265408276
 51
229.98037345917339
  0
ARC
  5
4D1
  8
0
  6
CONTINUOUS
 62
     7
 10
-87.629728644167074
 20
192.53596623204609
 30
0.0
 40
0.9999999999981222
 50
106.2570278966365
 51
158.90376162682381
  0
ARC
  5
4D2
  8
0
  6
CONTINUOUS
 62
     7
 10
-85.950048014694687
 20
186.77587309191509
 30
0.0
 40
7.0
 50
90.0
 51
106.257027896615
  0
ARC
  5
4D3
  8
0
  6
CONTINUOUS
 62
     7
 10
-84.270367385225853
 20
192.53596623204609
 30
0.0
 40
1.000000000001102
 50
21.096238373157419
 51
73.742972103215763
  0
ARC
  5
4D4
  8
0
  6
CONTINUOUS
 62
     7
 10
-85.950048014694687
 20
186.77587309191509
 30
0.0
 40
6.9999999999986207
 50
73.742972103392191
 51
90.0
  0
ARC
  5
4D5
  8
0
  6
CONTINUOUS
 62
     7
 10
-37.770367385227772
 20
192.53596623204609
 30
0.0
 40
1.000000000002877
 50
21.09623837311814
 51
73.742972103159914
  0
ARC
  5
4D6
  8
0
  6
CONTINUOUS
 62
     7
 10
-39.450048014694673
 20
186.77587309191509
 30
0.0
 40
6.9999999999983729
 50
73.742972103399168
 51
90.0
  0
ARC
  5
4D7
  8
0
  6
CONTINUOUS
 62
     7
 10
-41.129728644168878
 20
192.53596623204609
 30
0.0
 40
0.9999999999976127
 50
106.2570278965364
 51
158.90376162682369
  0
ARC
  5
4D8
  8
0
  6
CONTINUOUS
 62
     7
 10
-39.450048014694673
 20
186.77587309191509
 30
0.0
 40
7.0
 50
90.0
 51
106.2570278966149
  0
ARC
  5
4D9
  8
0
  6
CONTINUOUS
 62
     7
 10
288.25598062947608
 20
192.53586444365811
 30
0.0
 40
0.9999999999982716
 50
21.096238373162379
 51
73.74297210344298
  0
ARC
  5
4DA
  8
0
  6
CONTINUOUS
 62
     7
 10
286.57630000000381
 20
186.77577130352509
 30
0.0
 40
6.99999999999919
 50
73.74297210340201
 51
90.0
  0
ARC
  5
4DB
  8
0
  6
CONTINUOUS
 62
     7
 10
284.89661937053319
 20
192.53586444365811
 30
0.0
 40
0.999999999997536
 50
106.257027896754
 51
158.90376162692911
  0
ARC
  5
4DC
  8
0
  6
CONTINUOUS
 62
     7
 10
286.57630000000381
 20
186.77577130352509
 30
0.0
 40
7.0
 50
90.0
 51
106.2570278966132
  0
ARC
  5
4DD
  8
0
  6
CONTINUOUS
 62
     7
 10
243.57630000000381
 20
186.77577130352509
 30
0.0
 40
6.9999999999996918
 50
73.742972103387956
 51
90.0
  0
ARC
  5
4DE
  8
0
  6
CONTINUOUS
 62
     7
 10
245.2559806294752
 20
192.53586444365811
 30
0.0
 40
1.0000000000016911
 50
21.096238373086759
 51
73.742972103296026
  0
ARC
  5
4DF
  8
0
  6
CONTINUOUS
 62
     7
 10
243.57630000000381
 20
186.77577130352509
 30
0.0
 40
7.0
 50
90.0
 51
106.2570278965989
  0
ARC
  5
4E0
  8
0
  6
CONTINUOUS
 62
     7
 10
241.8966193705314
 20
192.53586444365811
 30
0.0
 40
0.9999999999965256
 50
106.2570278965555
 51
158.90376162681829
  0
CIRCLE
  5
4E1
  8
0
  6
CONTINUOUS
 62
     7
 10
72.150012294455109
 20
-75.457562090201989
 30
0.0
 40
1.25
  0
CIRCLE
  5
4E2
  8
0
  6
CONTINUOUS
 62
     2
 10
72.150012294455109
 20
-75.457562090201989
 30
0.0
 40
1.5
  0
CIRCLE
  5
4E3
  8
0
  6
CONTINUOUS
 62
     7
 10
-272.28817408309072
 20
128.2420565501649
 30
0.0
 40
2.7499999999998712
  0
CIRCLE
  5
4E4
  8
0
  6
CONTINUOUS
 62
     7
 10
-291.68815060349232
 20
92.395163348546333
 30
0.0
 40
2.7499999999997802
  0
CIRCLE
  5
4E5
  8
0
  6
CONTINUOUS
 62
     7
 10
-223.18815060349229
 20
92.395163348546333
 30
0.0
 40
2.7500000000004641
  0
CIRCLE
  5
4E6
  8
0
  6
CONTINUOUS
 62
     7
 10
-257.44106631608332
 20
58.145740722675889
 30
0.0
 40
2.7500000000011529
  0
CIRCLE
  5
4E7
  8
0
  6
CONTINUOUS
 62
     7
 10
-220.93932695284721
 20
67.895833119099393
 30
0.0
 40
3.5
  0
CIRCLE
  5
4E8
  8
0
  6
CONTINUOUS
 62
     7
 10
-220.93932695284721
 20
67.895833119099393
 30
0.0
 40
3.1499999999977879
  0
CIRCLE
  5
4E9
  8
0
  6
CONTINUOUS
 62
     7
 10
-220.93932695284721
 20
67.895833119099393
 30
0.0
 40
4.0
  0
CIRCLE
  5
4EA
  8
0
  6
CONTINUOUS
 62
     7
 10
-220.93932695284721
 20
116.8958330277525
 30
0.0
 40
4.0
  0
CIRCLE
  5
4EB
  8
0
  6
CONTINUOUS
 62
     7
 10
-220.93932695284721
 20
116.8958330277525
 30
0.0
 40
3.1499999999977879
  0
CIRCLE
  5
4EC
  8
0
  6
CONTINUOUS
 62
     7
 10
-220.93932695284721
 20
116.8958330277525
 30
0.0
 40
3.5
  0
CIRCLE
  5
4ED
  8
0
  6
CONTINUOUS
 62
     7
 10
-293.93932686162492
 20
116.8958330277525
 30
0.0
 40
3.5000000000009091
  0
CIRCLE
  5
4EE
  8
0
  6
CONTINUOUS
 62
     7
 10
-293.93932686162492
 20
116.8958330277525
 30
0.0
 40
3.1499999999978159
  0
CIRCLE
  5
4EF
  8
0
  6
CONTINUOUS
 62
     7
 10
-293.93932686162492
 20
116.8958330277525
 30
0.0
 40
4.0
  0
CIRCLE
  5
4F0
  8
0
  6
CONTINUOUS
 62
     7
 10
-293.93932686162492
 20
67.895833119099393
 30
0.0
 40
3.9999999999990901
  0
CIRCLE
  5
4F1
  8
0
  6
CONTINUOUS
 62
     7
 10
-293.93932686162492
 20
67.895833119099393
 30
0.0
 40
3.1499999999978159
  0
CIRCLE
  5
4F2
  8
0
  6
CONTINUOUS
 62
     7
 10
-293.93932686162492
 20
67.895833119099393
 30
0.0
 40
3.5000000000009091
  0
CIRCLE
  5
4F3
  8
0
  6
CONTINUOUS
 62
     7
 10
-242.58812712389221
 20
128.2420565501649
 30
0.0
 40
2.7499999999997708
  0
CIRCLE
  5
511
  8
0
  6
CONTINUOUS
 62
     7
 10
-198.93932690723389
 20
57.395833073374092
 30
0.0
 40
4.25
  0
CIRCLE
  5
512
  8
0
  6
CONTINUOUS
 62
     7
 10
-198.93932690723389
 20
57.395833073374092
 30
0.0
 40
3.8500000000008261
  0
CIRCLE
  5
513
  8
0
  6
CONTINUOUS
 62
     7
 10
-198.93932690723389
 20
57.395833073374092
 30
0.0
 40
5.0000000000009077
  0
CIRCLE
  5
514
  8
0
  6
CONTINUOUS
 62
     7
 10
-292.43932690723392
 20
33.895833073374092
 30
0.0
 40
3.8500000000003922
  0
CIRCLE
  5
515
  8
0
  6
CONTINUOUS
 62
     7
 10
-292.43932690723392
 20
33.895833073374092
 30
0.0
 40
4.2500000000004512
  0
CIRCLE
  5
516
  8
0
  6
CONTINUOUS
 62
     7
 10
-292.43932690723568
 20
33.895833073374092
 30
0.0
 40
5.0
  0
CIRCLE
  5
517
  8
0
  6
CONTINUOUS
 62
     7
 10
-315.93932690723392
 20
127.39583307337411
 30
0.0
 40
5.0000000000008944
  0
CIRCLE
  5
518
  8
0
  6
CONTINUOUS
 62
     7
 10
-315.93932690723392
 20
127.39583307337411
 30
0.0
 40
3.850000000000803
  0
CIRCLE
  5
519
  8
0
  6
CONTINUOUS
 62
     7
 10
-315.93932690723392
 20
127.39583307337411
 30
0.0
 40
4.2500000000005107
  0
CIRCLE
  5
51A
  8
0
  6
CONTINUOUS
 62
     7
 10
-222.43932690723389
 20
150.89583307337409
 30
0.0
 40
3.8500000000007888
  0
CIRCLE
  5
51B
  8
0
  6
CONTINUOUS
 62
     7
 10
-222.43932690723389
 20
150.89583307337409
 30
0.0
 40
4.25
  0
CIRCLE
  5
51C
  8
0
  6
CONTINUOUS
 62
     7
 10
-222.43932690723389
 20
150.89583307337409
 30
0.0
 40
5.0
  0
CIRCLE
  5
51F
  8
0
  6
CONTINUOUS
 62
     7
 10
213.81105836397489
 20
41.130558363976697
 30
0.0
 40
4.5000000000001972
  0
CIRCLE
  5
520
  8
0
  6
CONTINUOUS
 62
     7
 10
213.8110583639768
 20
143.66104163602509
 30
0.0
 40
4.5000000000000977
  0
CIRCLE
  5
521
  8
0
  6
CONTINUOUS
 62
     7
 10
316.34154163602528
 20
143.6610416360233
 30
0.0
 40
4.5000000000001217
  0
CIRCLE
  5
522
  8
0
  6
CONTINUOUS
 62
     7
 10
265.07630000000012
 20
92.395799999999994
 30
0.0
 40
12.00000000000003
  0
CIRCLE
  5
523
  8
0
  6
CONTINUOUS
 62
     7
 10
265.07630000000012
 20
92.395799999999994
 30
0.0
 40
11.00000000000003
  0
CIRCLE
  5
524
  8
0
  6
CONTINUOUS
 62
     7
 10
316.34154163602329
 20
41.130558363974842
 30
0.0
 40
4.5000000000001599
  0
CIRCLE
  5
525
  8
0
  6
CONTINUOUS
 62
     7
 10
-206.17408527121259
 20
143.66107470939789
 30
0.0
 40
4.5000000000008811
  0
CIRCLE
  5
526
  8
0
  6
CONTINUOUS
 62
     7
 10
-206.17408527121259
 20
143.66107470939789
 30
0.0
 40
4.5000000000008811
  0
CIRCLE
  5
527
  8
0
  6
CONTINUOUS
 62
     7
 10
-308.70456854326022
 20
143.66107470939789
 30
0.0
 40
4.5
  0
CIRCLE
  5
528
  8
0
  6
CONTINUOUS
 62
     7
 10
-206.17408527121259
 20
41.130591437348457
 30
0.0
 40
4.5
  0
CIRCLE
  5
529
  8
0
  6
CONTINUOUS
 62
     7
 10
-308.70456854326022
 20
41.130591437348457
 30
0.0
 40
4.5
  0
ARC
  5
52C
  8
0
  6
CONTINUOUS
 62
     7
 10
-267.27511334486269
 20
132.89583307342639
 30
0.0
 40
1.0000000000008511
 50
225.0000000000345
 51
270.0
  0
ARC
  5
52D
  8
0
  6
CONTINUOUS
 62
     7
 10
-247.6035404696085
 20
132.89583307342639
 30
0.0
 40
1.0
 50
270.0
 51
315.00000000000108
  0
ARC
  5
52E
  8
0
  6
CONTINUOUS
 62
     7
 10
-299.43932690723591
 20
87.894560304017986
 30
0.0
 40
1.0
 50
180.0
 51
270.00000000005213
  0
ARC
  5
52F
  8
0
  6
CONTINUOUS
 62
     7
 10
-215.43932690723511
 20
87.894560304018896
 30
0.0
 40
1.0
 50
269.99999999994952
 51
0.0
  0
ARC
  5
530
  8
0
  6
CONTINUOUS
 62
     7
 10
-215.43932690723511
 20
96.894560304018
 30
0.0
 40
1.0
 50
0.0
 51
90.000000000050505
  0
ARC
  5
531
  8
0
  6
CONTINUOUS
 62
     7
 10
-216.6226636433183
 20
99.894560304018
 30
0.0
 40
2.0000000000000431
 50
190.41186901642149
 51
270.0
  0
ARC
  5
532
  8
0
  6
CONTINUOUS
 62
     7
 10
-249.9404632716431
 20
51.577893995941501
 30
0.0
 40
2.0000000000008429
 50
101.2054975416934
 51
180.0
  0
ARC
  5
533
  8
0
  6
CONTINUOUS
 62
     7
 10
-252.9404632716431
 20
50.394557259858288
 30
0.0
 40
1.0
 50
270.0
 51
0.0
  0
ARC
  5
534
  8
0
  6
CONTINUOUS
 62
     7
 10
-261.94046327164318
 20
50.394557259858288
 30
0.0
 40
1.0
 50
180.0
 51
270.0
  0
ARC
  5
535
  8
0
  6
CONTINUOUS
 62
     7
 10
-298.25599017115178
 20
84.894560304018
 30
0.0
 40
1.9999999999993101
 50
10.411869016478519
 51
90.0
  0
ARC
  5
536
  8
0
  6
CONTINUOUS
 62
     7
 10
-298.25599017115178
 20
99.894560304018
 30
0.0
 40
2.0
 50
270.0
 51
349.58813098357268
  0
ARC
  5
537
  8
0
  6
CONTINUOUS
 62
     7
 10
-299.43932690723591
 20
96.894560304018
 30
0.0
 40
1.0
 50
89.999999999947889
 51
180.0
  0
ARC
  5
538
  8
0
  6
CONTINUOUS
 62
     7
 10
-235.43932690723599
 20
127.583336923845
 30
0.0
 40
2.0
 50
180.0
 51
237.9864043329305
  0
ARC
  5
539
  8
0
  6
CONTINUOUS
 62
     7
 10
-279.43932690723602
 20
127.583336923845
 30
0.0
 40
2.0000000000011231
 50
302.01359566707259
 51
0.0
  0
ARC
  5
53A
  8
0
  6
CONTINUOUS
 62
     7
 10
-237.7393269072353
 20
133.7412651304027
 30
0.0
 40
0.3000000000005233
 50
244.52412570552281
 51
0.0
  0
ARC
  5
53B
  8
0
  6
CONTINUOUS
 62
     7
 10
-243.0044563287419
 20
133.95938330835969
 30
0.0
 40
1.4999999999998459
 50
70.848614539757349
 51
135.0
  0
ARC
  5
53C
  8
0
  6
CONTINUOUS
 62
     7
 10
-277.13932690723499
 20
133.7412651304027
 30
0.0
 40
0.3000000000010346
 50
180.0
 51
295.47587429447719
  0
ARC
  5
53D
  8
0
  6
CONTINUOUS
 62
     7
 10
-271.8741974857283
 20
133.95938330835969
 30
0.0
 40
1.5000000000002529
 50
45.0
 51
109.1513854602786
  0
ARC
  5
53E
  8
0
  6
CONTINUOUS
 62
     7
 10
-216.6226636433183
 20
84.894560304018
 30
0.0
 40
2.0000000000009091
 50
90.0
 51
169.58813098352709
  0
ARC
  5
53F
  8
0
  6
CONTINUOUS
 62
     7
 10
-267.31860960811707
 20
132.89643611795569
 30
0.0
 40
1.5000000000002529
 50
225.0
 51
270.0
  0
ARC
  5
540
  8
0
  6
CONTINUOUS
 62
     7
 10
-247.56125029523619
 20
132.89643611795569
 30
0.0
 40
1.5
 50
270.0
 51
308.72957190573231
  0
ARC
  5
541
  8
0
  6
CONTINUOUS
 62
     7
 10
-261.19106631608332
 20
54.229059591738071
 30
0.0
 40
0.500000000000759
 50
264.38674112320763
 51
0.0
  0
ARC
  5
542
  8
0
  6
CONTINUOUS
 62
     7
 10
-253.69106631608329
 20
54.228836286045983
 30
0.0
 40
0.5
 50
180.0
 51
275.60984701700079
  0
ARC
  5
543
  8
0
  6
CONTINUOUS
 62
     7
 10
-295.6061453784132
 20
96.145163348547285
 30
0.0
 40
0.4999999999986219
 50
174.3884470555347
 51
270.0
  0
ARC
  5
544
  8
0
  6
CONTINUOUS
 62
     7
 10
-295.6061453784132
 20
88.645163348545452
 30
0.0
 40
0.5
 50
90.0
 51
185.6115529444443
  0
ARC
  5
545
  8
0
  6
CONTINUOUS
 62
     7
 10
-219.2737145249402
 20
88.645163348545452
 30
0.0
 40
0.499999999999612
 50
354.38844705554578
 51
90.0
  0
ARC
  5
546
  8
0
  6
CONTINUOUS
 62
     7
 10
-219.2737145249402
 20
96.145163348547285
 30
0.0
 40
0.5
 50
270.0
 51
5.6115529444541989
  0
ARC
  5
547
  8
0
  6
CONTINUOUS
 62
     7
 10
-217.09439116484091
 20
85.995163348549454
 30
0.0
 40
2.0
 50
89.999999999842018
 51
170.98629305001481
  0
ARC
  5
548
  8
0
  6
CONTINUOUS
 62
     7
 10
-217.09439116484091
 20
98.795163348545074
 30
0.0
 40
2.0000000000014948
 50
189.01370695003669
 51
269.99999999973937
  0
ARC
  5
549
  8
0
  6
CONTINUOUS
 62
     7
 10
-216.83992995167401
 20
95.79516334854236
 30
0.0
 40
1.0
 50
0.0
 51
90.0
  0
ARC
  5
54A
  8
0
  6
CONTINUOUS
 62
     7
 10
-216.83992995167401
 20
88.995163348548544
 30
0.0
 40
1.0
 50
270.0
 51
0.0
  0
ARC
  5
54B
  8
0
  6
CONTINUOUS
 62
     7
 10
-251.03879358727309
 20
52.049804839242491
 30
0.0
 40
1.9999999999999349
 50
99.015320735109626
 51
179.99999999973971
  0
ARC
  5
54C
  8
0
  6
CONTINUOUS
 62
     7
 10
-298.03992995167931
 20
88.995163348548544
 30
0.0
 40
1.0
 50
180.0
 51
270.0
  0
ARC
  5
54D
  8
0
  6
CONTINUOUS
 62
     7
 10
-298.03992995167931
 20
95.79516334854236
 30
0.0
 40
1.0
 50
90.0
 51
180.0
  0
ARC
  5
54E
  8
0
  6
CONTINUOUS
 62
     7
 10
-297.78546873851138
 20
98.795163348545074
 30
0.0
 40
2.0
 50
270.00000000023118
 51
350.98629304995922
  0
ARC
  5
54F
  8
0
  6
CONTINUOUS
 62
     7
 10
-297.78546873851138
 20
85.995163348549454
 30
0.0
 40
2.0000000000003131
 50
9.0137069499893396
 51
90.000000000210051
  0
ARC
  5
550
  8
0
  6
CONTINUOUS
 62
     7
 10
-263.84106631608017
 20
52.049804839242491
 30
0.0
 40
2.0
 50
0.00000000026035
 51
80.984679264916906
  0
ARC
  5
551
  8
0
  6
CONTINUOUS
 62
     7
 10
-235.43992995167619
 20
126.8149614304654
 30
0.0
 40
2.0
 50
180.0
 51
237.41462746285461
  0
ARC
  5
552
  8
0
  6
CONTINUOUS
 62
     7
 10
-279.43992995167707
 20
126.8149614304654
 30
0.0
 40
1.9999999999992839
 50
302.58537253714542
 51
0.0
  0
ARC
  5
553
  8
0
  6
CONTINUOUS
 62
     7
 10
-276.43992995167707
 20
132.08143301451551
 30
0.0
 40
1.0000000000025631
 50
115.58300197731771
 51
180.0
  0
ARC
  5
554
  8
0
  6
CONTINUOUS
 62
     7
 10
-271.9066271569281
 20
133.94891976083241
 30
0.0
 40
1.000000000000228
 50
44.999999999998849
 51
109.1952632867044
  0
ARC
  5
555
  8
0
  6
CONTINUOUS
 62
     7
 10
-242.9732327464252
 20
133.94891976083241
 30
0.0
 40
1.000000000000302
 50
70.804736713290993
 51
135.0
  0
ARC
  5
556
  8
0
  6
CONTINUOUS
 62
     7
 10
-238.4399299516771
 20
132.08143301451551
 30
0.0
 40
1.0
 50
0.0
 51
64.416998022636761
  0
ARC
  5
557
  8
0
  6
CONTINUOUS
 62
     7
 10
-252.93805413788041
 20
50.395833073373637
 30
0.0
 40
1.0
 50
270.0
 51
0.00000000010422
  0
ARC
  5
558
  8
0
  6
CONTINUOUS
 62
     7
 10
-215.4393269072369
 20
87.894560304021624
 30
0.0
 40
1.000000000002728
 50
270.00000000005213
 51
0.0
  0
ARC
  5
559
  8
0
  6
CONTINUOUS
 62
     7
 10
-215.4393269072369
 20
96.894560304017091
 30
0.0
 40
1.0
 50
0.0
 51
89.999999999947889
  0
ARC
  5
55A
  8
0
  6
CONTINUOUS
 62
     7
 10
-215.9393269072369
 20
98.895849770033806
 30
0.0
 40
1.0
 50
180.0
 51
270.00095664013469
  0
ARC
  5
55B
  8
0
  6
CONTINUOUS
 62
     7
 10
-215.4393269072369
 20
96.895858118014644
 30
0.0
 40
1.0
 50
0.0
 51
90.000956640134689
  0
ARC
  5
55C
  8
0
  6
CONTINUOUS
 62
     7
 10
-215.4393269072369
 20
87.895858118295692
 30
0.0
 40
0.9999999999984151
 50
270.00095664013469
 51
0.0
  0
ARC
  5
55D
  8
0
  6
CONTINUOUS
 62
     7
 10
-215.9393269072369
 20
85.895849769756424
 30
0.0
 40
0.9999999999984151
 50
90.000956640134689
 51
180.0
  0
ARC
  5
55E
  8
0
  6
CONTINUOUS
 62
     7
 10
-252.9393269072369
 20
50.395833073373637
 30
0.0
 40
1.0
 50
270.0
 51
0.0
  0
ARC
  5
55F
  8
0
  6
CONTINUOUS
 62
     7
 10
-250.9393269072369
 20
50.895833073373637
 30
0.0
 40
1.0
 50
90.0
 51
180.0
  0
ARC
  5
560
  8
0
  6
CONTINUOUS
 62
     7
 10
-263.93932690723511
 20
50.895833073373637
 30
0.0
 40
1.0
 50
0.0
 51
90.0
  0
ARC
  5
561
  8
0
  6
CONTINUOUS
 62
     7
 10
-261.93932690723511
 20
50.395833073373637
 30
0.0
 40
1.0
 50
180.0
 51
270.0
  0
ARC
  5
562
  8
0
  6
CONTINUOUS
 62
     7
 10
-298.93932690723511
 20
85.895849769756424
 30
0.0
 40
1.0
 50
0.0
 51
89.999043359858817
  0
ARC
  5
563
  8
0
  6
CONTINUOUS
 62
     7
 10
-299.43932690723511
 20
87.895858118295692
 30
0.0
 40
1.0
 50
180.0
 51
269.99904335986531
  0
ARC
  5
564
  8
0
  6
CONTINUOUS
 62
     7
 10
-299.43932690723511
 20
96.895858118014644
 30
0.0
 40
1.000000000000234
 50
89.999043359858817
 51
180.0
  0
ARC
  5
565
  8
0
  6
CONTINUOUS
 62
     7
 10
-298.93932690723511
 20
98.895849770033806
 30
0.0
 40
0.9999999999975056
 50
269.99904335986531
 51
0.0
  0
ARC
  5
566
  8
0
  6
CONTINUOUS
 62
     7
 10
-299.43932690723591
 20
96.894560304018
 30
0.0
 40
1.0
 50
89.999999999947889
 51
180.0
  0
ARC
  5
567
  8
0
  6
CONTINUOUS
 62
     7
 10
-299.43932690723591
 20
87.894560304017986
 30
0.0
 40
1.0
 50
180.0
 51
270.00000000005213
  0
ARC
  5
568
  8
0
  6
CONTINUOUS
 62
     7
 10
-261.9405996765916
 20
50.395833073373637
 30
0.0
 40
1.0
 50
179.99999999989581
 51
270.0
  0
ARC
  5
569
  8
0
  6
CONTINUOUS
 62
     7
 10
-254.03879358727309
 20
51.795160304385377
 30
0.0
 40
1.0
 50
270.0
 51
0.0
  0
ARC
  5
56A
  8
0
  6
CONTINUOUS
 62
     7
 10
-260.84106631608017
 20
51.795160304385377
 30
0.0
 40
1.0
 50
180.0
 51
270.0
  0
ARC
  5
56B
  8
0
  6
CONTINUOUS
 62
     7
 10
-264.940463271645
 20
51.578105861689998
 30
0.0
 40
2.0000000000018181
 50
0.0
 51
79.586535824904544
  0
ARC
  5
56C
  8
0
  6
CONTINUOUS
 62
     7
 10
-276.33643259211181
 20
128.2161949100624
 30
0.0
 40
0.4999999999987896
 50
22.500000000028031
 51
117.815391241748
  0
ARC
  5
56D
  8
0
  6
CONTINUOUS
 62
     7
 10
-269.40746716853113
 20
131.08663708438289
 30
0.0
 40
0.4999999999999138
 50
107.18984181993611
 51
202.4999999999711
  0
ARC
  5
56E
  8
0
  6
CONTINUOUS
 62
     7
 10
-245.46883403845271
 20
131.08663708438289
 30
0.0
 40
0.499999999999744
 50
337.50000000003138
 51
72.81015818006081
  0
ARC
  5
56F
  8
0
  6
CONTINUOUS
 62
     7
 10
-238.5398686148709
 20
128.2161949100624
 30
0.0
 40
0.4999999999992613
 50
62.184608758456463
 51
157.50000000005801
  0
ARC
  5
570
  8
0
  6
CONTINUOUS
 62
     7
 10
-144.8499810114559
 20
95.842100088924965
 30
0.0
 40
0.2000000000006992
 50
180.0
 51
269.98061032070979
  0
ARC
  5
571
  8
0
  6
CONTINUOUS
 62
     7
 10
-144.8499810114559
 20
88.941737630258288
 30
0.0
 40
0.2000000000006989
 50
89.876909252701651
 51
180.0
  0
ARC
  5
572
  8
0
  6
CONTINUOUS
 62
     7
 10
-144.8499810114559
 20
128.34948233526629
 30
0.0
 40
0.1999999999998181
 50
90.0
 51
180.0
  0
ARC
  5
573
  8
0
  6
CONTINUOUS
 62
     7
 10
-144.8499810114559
 20
131.46910786386491
 30
0.0
 40
0.2000000000013402
 50
90.012747576171051
 51
180.0
  0
ARC
  5
574
  8
0
  6
CONTINUOUS
 62
     7
 10
-143.04994992682219
 20
128.74948233526689
 30
0.0
 40
0.2000000000007844
 50
270.0
 51
0.0
  0
ARC
  5
575
  8
0
  6
CONTINUOUS
 62
     7
 10
-143.04994992682219
 20
131.86950834573659
 30
0.0
 40
0.2000000000016939
 50
270.0
 51
0.0
  0
ARC
  5
576
  8
0
  6
CONTINUOUS
 62
     7
 10
-143.0499402175524
 20
89.338630537298926
 30
0.0
 40
0.1999999999979991
 50
270.0
 51
0.0
  0
ARC
  5
577
  8
0
  6
CONTINUOUS
 62
     7
 10
-143.0499402175524
 20
95.441490918901948
 30
0.0
 40
0.2000000000025182
 50
0.0
 51
90.0
  0
ARC
  5
578
  8
0
  6
CONTINUOUS
 62
     7
 10
-142.34994021754989
 20
51.127773352256213
 30
0.0
 40
0.5
 50
180.0
 51
270.0
  0
ARC
  5
579
  8
0
  6
CONTINUOUS
 62
     7
 10
-143.0499402175524
 20
53.364067779836319
 30
0.0
 40
0.2000000000025182
 50
0.0
 51
90.0
  0
ARC
  5
57A
  8
0
  6
CONTINUOUS
 62
     7
 10
-143.04998101145659
 20
55.564374840831647
 30
0.0
 40
2.0
 50
180.0
 51
268.89820391734759
  0
ARC
  5
57B
  8
0
  6
CONTINUOUS
 62
     7
 10
-117.16253101145701
 20
168.0842268369189
 30
0.0
 40
0.7499999999986242
 50
111.422002502642
 51
180.0
  0
ARC
  5
57C
  8
0
  6
CONTINUOUS
 62
     7
 10
-117.16253101145701
 20
167.8456311596639
 30
0.0
 40
0.75
 50
180.0
 51
270.0
  0
ARC
  5
57D
  8
0
  6
CONTINUOUS
 62
     7
 10
-249.25182690723699
 20
167.84567489432499
 30
0.0
 40
0.75
 50
180.0
 51
270.0
  0
ARC
  5
57E
  8
0
  6
CONTINUOUS
 62
     7
 10
-249.25182690723699
 20
168.08427057157999
 30
0.0
 40
0.7499999999986656
 50
111.42200250265
 51
180.0
  0
ARC
  5
57F
  8
0
  6
CONTINUOUS
 62
     7
 10
-232.4758574882415
 20
191.69583307337379
 30
0.0
 40
1.499999999999619
 50
0.8231585833689301
 51
90.0
  0
ARC
  5
580
  8
0
  6
CONTINUOUS
 62
     7
 10
-282.5186513012876
 20
191.69583307337379
 30
0.0
 40
1.5
 50
90.0
 51
179.17684141663111
  0
ARC
  5
581
  8
0
  6
CONTINUOUS
 62
     7
 10
-247.7449905092661
 20
200.2944287506258
 30
0.0
 40
0.7499999999989079
 50
111.4220025027151
 51
180.0
  0
ARC
  5
582
  8
0
  6
CONTINUOUS
 62
     7
 10
-247.7449905092661
 20
200.05583307337071
 30
0.0
 40
0.75
 50
180.0
 51
270.0
  0
ARC
  5
583
  8
0
  6
CONTINUOUS
 62
     7
 10
20.150097373648759
 20
74.895740330374451
 30
0.0
 40
0.5
 50
0.0
 51
90.0
  0
ARC
  5
584
  8
0
  6
CONTINUOUS
 62
     7
 10
20.150097373648759
 20
73.145740330374451
 30
0.0
 40
0.5
 50
270.0
 51
0.0
  0
ARC
  5
585
  8
0
  6
CONTINUOUS
 62
     7
 10
20.150097373648759
 20
69.645740330374451
 30
0.0
 40
0.5
 50
0.0
 51
90.0
  0
ARC
  5
586
  8
0
  6
CONTINUOUS
 62
     7
 10
20.150097373648759
 20
68.145740330374451
 30
0.0
 40
0.5
 50
270.0
 51
0.0
  0
ARC
  5
587
  8
0
  6
CONTINUOUS
 62
     7
 10
20.150097373648759
 20
64.645740330374451
 30
0.0
 40
0.5
 50
0.0
 51
90.0
  0
ARC
  5
588
  8
0
  6
CONTINUOUS
 62
     7
 10
20.150097373648759
 20
60.095740330376032
 30
0.0
 40
0.5
 50
270.0
 51
0.0
  0
ARC
  5
589
  8
0
  6
CONTINUOUS
 62
     7
 10
20.150097373648759
 20
109.8959011966251
 30
0.0
 40
0.5
 50
270.0
 51
0.0
  0
ARC
  5
58A
  8
0
  6
CONTINUOUS
 62
     7
 10
20.150097373648759
 20
111.6459011966251
 30
0.0
 40
0.5
 50
0.0
 51
90.0
  0
ARC
  5
58B
  8
0
  6
CONTINUOUS
 62
     7
 10
20.150097373648759
 20
115.280063091043
 30
0.0
 40
0.5
 50
270.0
 51
0.0
  0
ARC
  5
58C
  8
0
  6
CONTINUOUS
 62
     7
 10
20.150097373648759
 20
117.4358392050851
 30
0.0
 40
0.5
 50
0.0
 51
90.0
  0
ARC
  5
58D
  8
0
  6
CONTINUOUS
 62
     7
 10
20.150097373648759
 20
121.43926178858391
 30
0.0
 40
0.5
 50
270.0
 51
0.0
  0
ARC
  5
58E
  8
0
  6
CONTINUOUS
 62
     7
 10
20.150097373648759
 20
123.74736735248059
 30
0.0
 40
0.5
 50
0.0
 51
90.0
  0
ARC
  5
58F
  8
0
  6
CONTINUOUS
 62
     7
 10
20.150097373648759
 20
128.17217169454739
 30
0.0
 40
0.4999999999999858
 50
270.0
 51
0.0
  0
ARC
  5
590
  8
0
  6
CONTINUOUS
 62
     7
 10
20.150097373648759
 20
130.48390833041921
 30
0.0
 40
0.5
 50
0.0
 51
90.0
  0
ARC
  5
591
  8
0
  6
CONTINUOUS
 62
     7
 10
20.149912294455831
 20
135.50224749091981
 30
0.0
 40
0.5
 50
270.0
 51
0.0
  0
ARC
  5
592
  8
0
  6
CONTINUOUS
 62
     7
 10
20.149912294455831
 20
142.30490847262419
 30
0.0
 40
0.5
 50
270.0
 51
0.0
  0
ARC
  5
593
  8
0
  6
CONTINUOUS
 62
     7
 10
20.149914567177589
 20
48.895901196625061
 30
0.0
 40
0.4999999999997047
 50
0.00026043535485
 51
90.0
  0
ARC
  5
594
  8
0
  6
CONTINUOUS
 62
     7
 10
20.149943699029581
 20
42.486893920624937
 30
0.0
 40
0.4999999999997047
 50
0.00026043536869
 51
90.0
  0
ARC
  5
595
  8
0
  6
CONTINUOUS
 62
     7
 10
-192.939326907235
 20
59.307157938780279
 30
0.0
 40
0.5
 50
0.0
 51
59.999999999989697
  0
ARC
  5
596
  8
0
  6
CONTINUOUS
 62
     7
 10
-192.939326907235
 20
49.895833073373637
 30
0.0
 40
0.5
 50
270.0
 51
0.0
  0
ARC
  5
597
  8
0
  6
CONTINUOUS
 62
     7
 10
-192.63932690723661
 20
75.895833073373623
 30
0.0
 40
0.5
 50
270.0
 51
0.0
  0
ARC
  5
598
  8
0
  6
CONTINUOUS
 62
     7
 10
-192.63932690723661
 20
108.89583307337359
 30
0.0
 40
0.5
 50
0.0
 51
90.0
  0
ARC
  5
599
  8
0
  6
CONTINUOUS
 62
     7
 10
-214.939326907235
 20
156.8958330733735
 30
0.0
 40
0.5
 50
0.0
 51
90.0
  0
ARC
  5
59A
  8
0
  6
CONTINUOUS
 62
     7
 10
-224.65065177264
 20
156.8958330733735
 30
0.0
 40
0.5
 50
90.0
 51
150.00000000004511
  0
ARC
  5
59B
  8
0
  6
CONTINUOUS
 62
     7
 10
-228.939326907235
 20
152.46762984309831
 30
0.0
 40
1.0
 50
180.0
 51
329.99999999999051
  0
ARC
  5
59C
  8
0
  6
CONTINUOUS
 62
     7
 10
-290.22800204183
 20
156.8958330733735
 30
0.0
 40
0.499999999999795
 50
30.000000000013571
 51
90.0
  0
ARC
  5
59D
  8
0
  6
CONTINUOUS
 62
     7
 10
-299.939326907235
 20
156.8958330733735
 30
0.0
 40
0.5
 50
90.0
 51
180.0
  0
ARC
  5
59E
  8
0
  6
CONTINUOUS
 62
     7
 10
-285.939326907235
 20
152.46762984309831
 30
0.0
 40
1.000000000000475
 50
209.99999999998411
 51
0.0
  0
ARC
  5
59F
  8
0
  6
CONTINUOUS
 62
     7
 10
-230.439326907235
 20
157.19583307337379
 30
0.0
 40
0.5
 50
0.0
 51
90.0
  0
ARC
  5
5A0
  8
0
  6
CONTINUOUS
 62
     7
 10
-284.439326907235
 20
157.19583307337379
 30
0.0
 40
0.5
 50
90.0
 51
180.0
  0
ARC
  5
5A1
  8
0
  6
CONTINUOUS
 62
     7
 10
-321.939326907235
 20
125.4845082079688
 30
0.0
 40
0.5
 50
180.0
 51
240.00000000003931
  0
ARC
  5
5A2
  8
0
  6
CONTINUOUS
 62
     7
 10
-321.939326907235
 20
134.89583307337361
 30
0.0
 40
0.5
 50
90.0
 51
180.0
  0
ARC
  5
5A3
  8
0
  6
CONTINUOUS
 62
     7
 10
-239.939326907235
 20
28.758186982400389
 30
0.0
 40
0.4999999999999411
 50
105.37595604437369
 51
180.0
  0
ARC
  5
5A4
  8
0
  6
CONTINUOUS
 62
     7
 10
-274.939326907235
 20
28.758186982400389
 30
0.0
 40
0.5
 50
0.0
 51
74.624043955723693
  0
ARC
  5
5A5
  8
0
  6
CONTINUOUS
 62
     7
 10
-321.07697299821012
 20
74.895833073373637
 30
0.0
 40
0.4999999999999849
 50
15.375956044368889
 51
90.0
  0
ARC
  5
5A6
  8
0
  6
CONTINUOUS
 62
     7
 10
-321.07697299821012
 20
109.89583307337359
 30
0.0
 40
0.5
 50
270.0
 51
344.6240439556405
  0
ARC
  5
5A7
  8
0
  6
CONTINUOUS
 62
     7
 10
-193.80168081626181
 20
74.895833073373637
 30
0.0
 40
0.5
 50
90.0
 51
164.62404395565531
  0
ARC
  5
5A8
  8
0
  6
CONTINUOUS
 62
     7
 10
-193.80168081626181
 20
109.89583307337359
 30
0.0
 40
0.5000000000007298
 50
195.37595604433531
 51
270.0
  0
ARC
  5
5A9
  8
0
  6
CONTINUOUS
 62
     7
 10
-207.4489722832129
 20
135.48834338043861
 30
0.0
 40
0.5000000000008058
 50
220.76188052980109
 51
266.49999999984618
  0
ARC
  5
5AA
  8
0
  6
CONTINUOUS
 62
     7
 10
-203.5782333857922
 20
130.54006729919419
 30
0.0
 40
0.4999999999995899
 50
93.499999999826414
 51
215.30598988098669
  0
ARC
  5
5AB
  8
0
  6
CONTINUOUS
 62
     7
 10
-201.96472670866461
 20
128.15291255155049
 30
0.0
 40
0.5000000000001909
 50
212.80447988593491
 51
266.4999999999693
  0
ARC
  5
5AC
  8
0
  6
CONTINUOUS
 62
     7
 10
-199.387576505797
 20
123.7963788541271
 30
0.0
 40
0.4999999999987429
 50
93.499999999946525
 51
208.4092258476847
  0
ARC
  5
5AD
  8
0
  6
CONTINUOUS
 62
     7
 10
-198.1639371850504
 20
121.4204463056454
 30
0.0
 40
0.4999999999989205
 50
206.08900729344501
 51
266.4999999999655
  0
ARC
  5
5AE
  8
0
  6
CONTINUOUS
 62
     7
 10
-196.3966499267888
 20
117.4793117603755
 30
0.0
 40
0.5000000000014883
 50
93.500000000021913
 51
202.3385979075191
  0
ARC
  5
5AF
  8
0
  6
CONTINUOUS
 62
     7
 10
-195.53095643026501
 20
115.2594063038774
 30
0.0
 40
0.5000000000000657
 50
200.26984944427059
 51
266.50000000007577
  0
ARC
  5
5B0
  8
0
  6
CONTINUOUS
 62
     7
 10
-194.29739260049499
 20
111.6077078388231
 30
0.0
 40
0.4999999999988346
 50
93.500000000144937
 51
196.92316480577321
  0
ARC
  5
5B1
  8
0
  6
CONTINUOUS
 62
     7
 10
-194.29739260049499
 20
73.1839583079269
 30
0.0
 40
0.4999999999996332
 50
163.07683519442779
 51
266.49999999987432
  0
ARC
  5
5B2
  8
0
  6
CONTINUOUS
 62
     7
 10
-195.52591049801299
 20
69.532568465307691
 30
0.0
 40
0.5000000000007789
 50
93.500000000346674
 51
159.73191946145451
  0
ARC
  5
5B3
  8
0
  6
CONTINUOUS
 62
     7
 10
-195.99979307116041
 20
68.288081581256506
 30
0.0
 40
0.5000000000007776
 50
158.57586398117141
 51
266.49999999995578
  0
ARC
  5
5B4
  8
0
  6
CONTINUOUS
 62
     7
 10
-197.67050832669861
 20
64.401399242936932
 30
0.0
 40
0.4999999999996456
 50
93.499999999930424
 51
154.90261522002561
  0
ARC
  5
5B5
  8
0
  6
CONTINUOUS
 62
     7
 10
-229.4448930768001
 20
32.627014492835428
 30
0.0
 40
0.4999999999989215
 50
115.0973847795114
 51
176.4999999998391
  0
ARC
  5
5B6
  8
0
  6
CONTINUOUS
 62
     7
 10
-233.33157541511881
 20
30.95629923729906
 30
0.0
 40
0.4999999999996473
 50
3.4999999999336602
 51
111.42413601882799
  0
ARC
  5
5B7
  8
0
  6
CONTINUOUS
 62
     7
 10
-234.5760622991701
 20
30.482416664153451
 30
0.0
 40
0.5000000000000388
 50
110.2680805386116
 51
176.5000000000789
  0
ARC
  5
5B8
  8
0
  6
CONTINUOUS
 62
     7
 10
-238.22745214178829
 20
29.253898766633601
 30
0.0
 40
0.4999999999996189
 50
3.4999999999338591
 51
106.9231648056648
  0
ARC
  5
5B9
  8
0
  6
CONTINUOUS
 62
     7
 10
-276.65120167268452
 20
29.253898766633601
 30
0.0
 40
0.4999999999999418
 50
73.076835194322754
 51
176.50000000006591
  0
ARC
  5
5BA
  8
0
  6
CONTINUOUS
 62
     7
 10
-280.30259151530282
 20
30.482416664153451
 30
0.0
 40
0.5000000000006685
 50
3.499999999926509
 51
69.731919461180667
  0
ARC
  5
5BB
  8
0
  6
CONTINUOUS
 62
     7
 10
-281.54707839935219
 20
30.95629923729906
 30
0.0
 40
0.4999999999997281
 50
68.575863981460031
 51
176.50000000007989
  0
ARC
  5
5BC
  8
0
  6
CONTINUOUS
 62
     7
 10
-285.43376073767348
 20
32.627014492835428
 30
0.0
 40
0.4999999999997015
 50
3.500000000142109
 51
64.902615220025567
  0
ARC
  5
5BD
  8
0
  6
CONTINUOUS
 62
     7
 10
-307.42968153125798
 20
49.303322766308717
 30
0.0
 40
0.4999999999999202
 50
40.761880530017557
 51
86.500000000079154
  0
ARC
  5
5BE
  8
0
  6
CONTINUOUS
 62
     7
 10
-311.30042042868149
 20
54.251598847554867
 30
0.0
 40
0.5000000000006
 50
273.5000000000249
 51
35.305989880756627
  0
ARC
  5
5BF
  8
0
  6
CONTINUOUS
 62
     7
 10
-312.91392710580823
 20
56.638753595196818
 30
0.0
 40
0.50000000000076
 50
32.804479886011968
 51
86.499999999955634
  0
ARC
  5
5C0
  8
0
  6
CONTINUOUS
 62
     7
 10
-315.49107730867382
 20
60.995287292623857
 30
0.0
 40
0.5000000000023777
 50
273.49999999992758
 51
28.409225847312719
  0
ARC
  5
5C1
  8
0
  6
CONTINUOUS
 62
     7
 10
-316.71471662942241
 20
63.371219841101833
 30
0.0
 40
0.5000000000022706
 50
26.089007293258788
 51
86.499999999955804
  0
ARC
  5
5C2
  8
0
  6
CONTINUOUS
 62
     7
 10
-318.48200388768402
 20
67.312354386371794
 30
0.0
 40
0.4999999999987984
 50
273.50000000005059
 51
22.338597907632259
  0
ARC
  5
5C3
  8
0
  6
CONTINUOUS
 62
     7
 10
-319.34769738420778
 20
69.532259842870758
 30
0.0
 40
0.4999999999992006
 50
20.269849444312442
 51
86.500000000072816
  0
ARC
  5
5C4
  8
0
  6
CONTINUOUS
 62
     7
 10
-320.58126121397601
 20
73.1839583079269
 30
0.0
 40
0.5000000000014663
 50
273.49999999992741
 51
16.92316480550873
  0
ARC
  5
5C5
  8
0
  6
CONTINUOUS
 62
     7
 10
-320.58126121397601
 20
111.6077078388231
 30
0.0
 40
0.5000000000019886
 50
343.07683519429031
 51
86.500000000053362
  0
ARC
  5
5C6
  8
0
  6
CONTINUOUS
 62
     7
 10
-319.3527433164561
 20
115.2590976814396
 30
0.0
 40
0.4999999999987218
 50
273.49999999993372
 51
339.73191946145153
  0
ARC
  5
5C7
  8
0
  6
CONTINUOUS
 62
     7
 10
-318.87886074331232
 20
116.5035845654908
 30
0.0
 40
0.4999999999997281
 50
338.57586398145997
 51
86.499999999962199
  0
ARC
  5
5C8
  8
0
  6
CONTINUOUS
 62
     7
 10
-317.20814548777412
 20
120.39026690381129
 30
0.0
 40
0.4999999999996189
 50
273.49999999993378
 51
334.90261522010059
  0
ARC
  5
5C9
  8
0
  6
CONTINUOUS
 62
     7
 10
-299.939326907235
 20
27.895833073373641
 30
0.0
 40
0.5
 50
180.0
 51
270.0
  0
ARC
  5
5CA
  8
0
  6
CONTINUOUS
 62
     7
 10
-290.52800204183018
 20
27.895833073373641
 30
0.0
 40
0.5
 50
270.0
 51
329.99999999999301
  0
ARC
  5
5CB
  8
0
  6
CONTINUOUS
 62
     7
 10
-214.939326907235
 20
27.895833073373641
 30
0.0
 40
0.5
 50
270.0
 51
0.0
  0
ARC
  5
5CC
  8
0
  6
CONTINUOUS
 62
     7
 10
-224.35065177264261
 20
27.895833073373641
 30
0.0
 40
0.5000000000005827
 50
209.9999999999614
 51
270.0
  0
ARC
  5
5CD
  8
0
  6
CONTINUOUS
 62
     7
 10
-240.939326907235
 20
27.595833073373459
 30
0.0
 40
0.5
 50
270.0
 51
0.0
  0
ARC
  5
5CE
  8
0
  6
CONTINUOUS
 62
     7
 10
-273.939326907235
 20
27.595833073373459
 30
0.0
 40
0.5
 50
180.0
 51
270.0
  0
ARC
  5
5CF
  8
0
  6
CONTINUOUS
 62
     7
 10
-322.2393269072362
 20
75.895833073373623
 30
0.0
 40
0.5
 50
180.0
 51
270.0
  0
ARC
  5
5D0
  8
0
  6
CONTINUOUS
 62
     7
 10
-322.2393269072362
 20
108.89583307337359
 30
0.0
 40
0.5
 50
90.0
 51
180.0
  0
ARC
  5
5D1
  8
0
  6
CONTINUOUS
 62
     7
 10
-54.53989633251998
 20
199.75590178840051
 30
0.0
 40
0.75
 50
180.0
 51
270.0
  0
ARC
  5
5D2
  8
0
  6
CONTINUOUS
 62
     7
 10
-54.53989633251998
 20
199.99449746565551
 30
0.0
 40
0.7499999999994039
 50
111.42200250262729
 51
180.0
  0
ARC
  5
5D3
  8
0
  6
CONTINUOUS
 62
     7
 10
-89.471444921219046
 20
191.39590178840351
 30
0.0
 40
1.5
 50
90.0
 51
179.1768414166653
  0
ARC
  5
5D4
  8
0
  6
CONTINUOUS
 62
     7
 10
-36.450048014694673
 20
191.39590178840351
 30
0.0
 40
1.5
 50
0.0
 51
90.0
  0
ARC
  5
5D5
  8
0
  6
CONTINUOUS
 62
     7
 10
274.88649137302798
 20
199.99439567726651
 30
0.0
 40
0.7499999999989874
 50
111.4220025027127
 51
180.0
  0
ARC
  5
5D6
  8
0
  6
CONTINUOUS
 62
     7
 10
274.88649137302798
 20
199.7558000000115
 30
0.0
 40
0.75
 50
180.0
 51
270.0
  0
ARC
  5
5D7
  8
0
  6
CONTINUOUS
 62
     7
 10
290.09769690652718
 20
191.39580000001459
 30
0.0
 40
1.4999999999996201
 50
0.8231585832961897
 51
90.0
  0
ARC
  5
5D8
  8
0
  6
CONTINUOUS
 62
     7
 10
240.05490309348119
 20
191.39580000001459
 30
0.0
 40
1.5
 50
90.0
 51
179.17684141670381
  0
ENDSEC
  0
EOF
