  0
SECTION
  2
HEADER
  9
$ACADVER
  1
AC1009
  9
$INSBASE
 10
0.0
 20
0.0
 30
0.0
  9
$EXTMIN
 10
-212.95118227620901
 20
-140.00882176889681
 30
-0.0015258207003583
  9
$EXTMAX
 10
248.3286377191564
 20
188.22817286810559
 30
0.0000000349246037
  9
$LIMMIN
 10
0.0
 20
0.0
  9
$LIMMAX
 10
12.0
 20
9.0
  9
$ORTHOMODE
 70
     0
  9
$REGENMODE
 70
     1
  9
$FILLMODE
 70
     1
  9
$QTEXTMODE
 70
     0
  9
$MIRRTEXT
 70
     1
  9
$DRAGMODE
 70
     2
  9
$LTSCALE
 40
1.0
  9
$OSMODE
 70
    37
  9
$ATTMODE
 70
     1
  9
$TEXTSIZE
 40
0.2
  9
$TRACEWID
 40
0.05
  9
$TEXTSTYLE
  7
STANDARD
  9
$CLAYER
  8
0
  9
$CELTYPE
  6
BYLAYER
  9
$CECOLOR
 62
   256
  9
$DIMSCALE
 40
1.0
  9
$DIMASZ
 40
0.18
  9
$DIMEXO
 40
0.0625
  9
$DIMDLI
 40
0.38
  9
$DIMRND
 40
0.0
  9
$DIMDLE
 40
0.0
  9
$DIMEXE
 40
0.18
  9
$DIMTP
 40
0.0
  9
$DIMTM
 40
0.0
  9
$DIMTXT
 40
0.18
  9
$DIMCEN
 40
0.09
  9
$DIMTSZ
 40
0.0
  9
$DIMTOL
 70
     0
  9
$DIMLIM
 70
     0
  9
$DIMTIH
 70
     1
  9
$DIMTOH
 70
     1
  9
$DIMSE1
 70
     0
  9
$DIMSE2
 70
     0
  9
$DIMTAD
 70
     0
  9
$DIMZIN
 70
     0
  9
$DIMBLK
  1

  9
$DIMASO
 70
     1
  9
$DIMSHO
 70
     1
  9
$DIMPOST
  1

  9
$DIMAPOST
  1

  9
$DIMALT
 70
     0
  9
$DIMALTD
 70
     2
  9
$DIMALTF
 40
25.399999999999999
  9
$DIMLFAC
 40
1.0
  9
$DIMTOFL
 70
     0
  9
$DIMTVP
 40
0.0
  9
$DIMTIX
 70
     0
  9
$DIMSOXD
 70
     0
  9
$DIMSAH
 70
     0
  9
$DIMBLK1
  1

  9
$DIMBLK2
  1

  9
$DIMSTYLE
  2
STANDARD
  9
$DIMCLRD
 70
     0
  9
$DIMCLRE
 70
     0
  9
$DIMCLRT
 70
     0
  9
$DIMTFAC
 40
1.0
  9
$DIMGAP
 40
0.09
  9
$LUNITS
 70
     2
  9
$LUPREC
 70
     4
  9
$SKETCHINC
 40
0.1
  9
$FILLETRAD
 40
0.5
  9
$AUNITS
 70
     0
  9
$AUPREC
 70
     0
  9
$MENU
  1
.
  9
$ELEVATION
 40
0.0
  9
$PELEVATION
 40
0.0
  9
$THICKNESS
 40
0.0
  9
$LIMCHECK
 70
     0
  9
$BLIPMODE
 70
     0
  9
$CHAMFERA
 40
0.5
  9
$CHAMFERB
 40
0.5
  9
$SKPOLY
 70
     0
  9
$TDCREATE
 40
2457042.4722301969
  9
$TDUPDATE
 40
2457291.4128397568
  9
$TDINDWG
 40
0.0282952778
  9
$TDUSRTIMER
 40
0.0282952315
  9
$USRTIMER
 70
     1
  9
$ANGBASE
 50
0.0
  9
$ANGDIR
 70
     0
  9
$PDMODE
 70
     0
  9
$PDSIZE
 40
0.0
  9
$PLINEWID
 40
0.0
  9
$COORDS
 70
     1
  9
$SPLFRAME
 70
     0
  9
$SPLINETYPE
 70
     6
  9
$SPLINESEGS
 70
     8
  9
$ATTDIA
 70
     1
  9
$ATTREQ
 70
     1
  9
$HANDLING
 70
     1
  9
$HANDSEED
  5
383D
  9
$SURFTAB1
 70
     6
  9
$SURFTAB2
 70
     6
  9
$SURFTYPE
 70
     6
  9
$SURFU
 70
     6
  9
$SURFV
 70
     6
  9
$UCSNAME
  2

  9
$UCSORG
 10
0.0
 20
0.0
 30
0.0
  9
$UCSXDIR
 10
1.0
 20
0.0
 30
0.0
  9
$UCSYDIR
 10
0.0
 20
1.0
 30
0.0
  9
$PUCSNAME
  2

  9
$PUCSORG
 10
0.0
 20
0.0
 30
0.0
  9
$PUCSXDIR
 10
1.0
 20
0.0
 30
0.0
  9
$PUCSYDIR
 10
0.0
 20
1.0
 30
0.0
  9
$USERI1
 70
     0
  9
$USERI2
 70
     0
  9
$USERI3
 70
     0
  9
$USERI4
 70
     0
  9
$USERI5
 70
     0
  9
$USERR1
 40
18.100000000000001
  9
$USERR2
 40
0.0
  9
$USERR3
 40
0.0
  9
$USERR4
 40
0.0
  9
$USERR5
 40
0.0
  9
$WORLDVIEW
 70
     1
  9
$SHADEDGE
 70
     3
  9
$SHADEDIF
 70
    70
  9
$TILEMODE
 70
     1
  9
$MAXACTVP
 70
    64
  9
$PLIMCHECK
 70
     0
  9
$PEXTMIN
 10
1.0000000000000000E+020
 20
1.0000000000000000E+020
 30
1.0000000000000000E+020
  9
$PEXTMAX
 10
-1.0000000000000000E+020
 20
-1.0000000000000000E+020
 30
-1.0000000000000000E+020
  9
$PLIMMIN
 10
0.0
 20
0.0
  9
$PLIMMAX
 10
12.0
 20
9.0
  9
$UNITMODE
 70
     0
  9
$VISRETAIN
 70
     1
  9
$PLINEGEN
 70
     0
  9
$PSLTSCALE
 70
     1
  0
ENDSEC
  0
SECTION
  2
TABLES
  0
TABLE
  2
VPORT
 70
     1
  0
VPORT
  2
*ACTIVE
 70
     0
 10
0.0
 20
0.0
 11
1.0
 21
1.0
 12
17.6887277214737
 22
24.10967554960439
 13
0.0
 23
0.0
 14
0.5
 24
0.5
 15
0.5
 25
0.5
 16
0.0
 26
0.0
 36
1.0
 17
0.0
 27
0.0
 37
0.0
 40
330.50069804829212
 41
2.0195627157652472
 42
50.0
 43
0.0
 44
0.0
 50
0.0
 51
0.0
 71
     0
 72
   100
 73
     1
 74
     2
 75
     0
 76
     0
 77
     0
 78
     0
  0
ENDTAB
  0
TABLE
  2
LTYPE
 70
     2
  0
LTYPE
  2
CONTINUOUS
 70
     0
  3
Solid line
 72
    65
 73
     0
 40
0.0
  0
LTYPE
  2
DASH_CENTER
 70
     0
  3
Dash_Center
 72
    65
 73
     4
 40
14.0
 49
11.0
 49
-1.0
 49
1.0
 49
-1.0
  0
ENDTAB
  0
TABLE
  2
LAYER
 70
     1
  0
LAYER
  2
0
 70
     0
 62
     7
  6
CONTINUOUS
  0
ENDTAB
  0
TABLE
  2
STYLE
 70
     2
  0
STYLE
  2
STANDARD
 70
     0
 40
0.0
 41
1.0
 50
0.0
 71
     0
 42
0.2
  3
txt
  4

  0
ENDTAB
  0
TABLE
  2
VIEW
 70
     0
  0
ENDTAB
  0
TABLE
  2
UCS
 70
     0
  0
ENDTAB
  0
TABLE
  2
APPID
 70
     6
  0
APPID
  2
ACAD
 70
     0
  0
APPID
  2
ACADANNOTATIVE
 70
     0
  0
APPID
  2
ACAD_EXEMPT_FROM_CAD_STANDARDS
 70
     0
  0
APPID
  2
ACAD_MLEADERVER
 70
     0
  0
APPID
  2
ACAD_NAV_VCDISPLAY
 70
     0
  0
APPID
  2
ACAD_DSTYLE_DIMRADIAL_EXTENSION
 70
     0
  0
ENDTAB
  0
TABLE
  2
DIMSTYLE
 70
     2
  0
DIMSTYLE
  2
STANDARD
 70
     0
  3

  4

  5

  6

  7

 40
1.0
 41
0.18
 42
0.0625
 43
0.38
 44
0.18
 45
0.0
 46
0.0
 47
0.0
 48
0.0
140
0.18
141
0.09
142
0.0
143
25.399999999999999
144
1.0
145
0.0
146
1.0
147
0.09
 71
     0
 72
     0
 73
     1
 74
     1
 75
     0
 76
     0
 77
     0
 78
     0
170
     0
171
     2
172
     0
173
     0
174
     0
175
     0
176
     0
177
     0
178
     0
  0
ENDTAB
  0
ENDSEC
  0
SECTION
  2
BLOCKS
  0
BLOCK
  8
0
  2
$MODEL_SPACE
 70
     0
 10
0.0
 20
0.0
 30
0.0
  3
$MODEL_SPACE
  1

  0
ENDBLK
  5
376D
  8
0
  0
BLOCK
 67
     1
  8
0
  2
$PAPER_SPACE
 70
     0
 10
0.0
 20
0.0
 30
0.0
  3
$PAPER_SPACE
  1

  0
ENDBLK
  5
3769
 67
     1
  8
0
  0
ENDSEC
  0
SECTION
  2
ENTITIES
  0
LINE
  5
2E04
  8
0
  6
CONTINUOUS
 62
     7
 10
-84.604893142868704
 20
-64.710565539709805
 30
0.0
 11
-84.604893142868704
 21
-61.49979999999946
 31
0.0
  0
LINE
  5
2E05
  8
0
  6
CONTINUOUS
 62
     7
 10
-84.224893142870442
 20
-62.989814699459991
 30
0.0
 11
-86.840761078289802
 21
-74.835227720150073
 31
0.0
  0
LINE
  5
2E06
  8
0
  6
CONTINUOUS
 62
     7
 10
-87.224893142870428
 20
-99.999799999999496
 30
0.0
 11
-87.224893142870428
 21
-78.208120320628822
 31
0.0
  0
LINE
  5
2E07
  8
0
  6
CONTINUOUS
 62
     7
 10
-87.224893142870428
 20
-121.7914796793701
 30
0.0
 11
-87.224893142870428
 21
-99.999799999999496
 31
0.0
  0
LINE
  5
2E08
  8
0
  6
CONTINUOUS
 62
     7
 10
-67.220683409040362
 20
-82.835859346379806
 30
0.0
 11
-61.722788275959033
 21
-82.835859346379806
 31
0.0
  0
LINE
  5
2E09
  8
0
  6
CONTINUOUS
 62
     7
 10
-67.220683409040362
 20
-82.835859346379806
 30
0.0
 11
-67.222788275949938
 21
-73.999799999999482
 31
0.0
  0
LINE
  5
2E0A
  8
0
  6
CONTINUOUS
 62
     7
 10
-62.36278827596027
 20
-82.499799999999496
 30
0.0
 11
-62.36278827596027
 21
-75.756198753318941
 31
0.0
  0
LINE
  5
2E0B
  8
0
  6
CONTINUOUS
 62
     7
 10
-61.722788275959033
 20
-82.999799999999482
 30
0.0
 11
-60.724893142870428
 21
-82.999799999999482
 31
0.0
  0
LINE
  5
2E0C
  8
0
  6
CONTINUOUS
 62
     7
 10
-65.962788275959724
 20
-81.999799999999482
 30
0.0
 11
-62.36278827596027
 21
-81.999799999999482
 31
0.0
  0
LINE
  5
2E0D
  8
0
  6
CONTINUOUS
 62
     7
 10
-66.36278827596027
 20
-81.599799999999846
 30
0.0
 11
-65.962788275959724
 21
-81.999799999999482
 31
0.0
  0
LINE
  5
2E0E
  8
0
  6
CONTINUOUS
 62
     7
 10
-62.36278827596027
 20
-82.499799999999496
 30
0.0
 11
-61.722788275959033
 21
-82.499799999999496
 31
0.0
  0
LINE
  5
2E0F
  8
0
  6
CONTINUOUS
 62
     7
 10
-65.962788275959724
 20
-75.756198753318941
 30
0.0
 11
-65.962788275959724
 21
-81.999799999999482
 31
0.0
  0
LINE
  5
2E10
  8
0
  6
CONTINUOUS
 62
     7
 10
-67.224893142870414
 20
-131.1637406536301
 30
0.0
 11
-61.724893142870428
 21
-131.1637406536301
 31
0.0
  0
LINE
  5
2E11
  8
0
  6
CONTINUOUS
 62
     7
 10
-67.222788275949938
 20
-139.99979999999951
 30
0.0
 11
-67.224893142870414
 21
-131.1637406536301
 31
0.0
  0
LINE
  5
2E12
  8
0
  6
CONTINUOUS
 62
     7
 10
-62.36278827594937
 20
-138.24340124668001
 30
0.0
 11
-62.36278827594937
 21
-131.49979999999951
 31
0.0
  0
LINE
  5
2E13
  8
0
  6
CONTINUOUS
 62
     7
 10
-62.36278827594937
 20
-131.99979999999951
 30
0.0
 11
-65.962788275949706
 21
-131.99979999999951
 31
0.0
  0
LINE
  5
2E14
  8
0
  6
CONTINUOUS
 62
     7
 10
-65.962788275949706
 20
-131.99979999999951
 30
0.0
 11
-66.36278827594937
 21
-132.39979999999909
 31
0.0
  0
LINE
  5
2E15
  8
0
  6
CONTINUOUS
 62
     7
 10
-61.722788275959033
 20
-131.49979999999951
 30
0.0
 11
-62.36278827594937
 21
-131.49979999999951
 31
0.0
  0
LINE
  5
2E16
  8
0
  6
CONTINUOUS
 62
     7
 10
-65.962788275949706
 20
-131.99979999999951
 30
0.0
 11
-66.36278827594937
 21
-132.39979999999909
 31
0.0
  0
LINE
  5
2E17
  8
0
  6
CONTINUOUS
 62
     7
 10
-66.36278827594937
 20
-132.39979999999909
 30
0.0
 11
-66.36278827594937
 21
-138.24340124668001
 31
0.0
  0
LINE
  5
2E18
  8
0
  6
CONTINUOUS
 62
     7
 10
-65.962788275949706
 20
-131.99979999999951
 30
0.0
 11
-65.962788275949706
 21
-138.24340124668001
 31
0.0
  0
LINE
  5
2E19
  8
0
  6
CONTINUOUS
 62
     7
 10
-56.22477783058013
 20
-73.999799999999482
 30
0.0
 11
-67.222788275949938
 21
-73.999799999999482
 31
0.0
  0
LINE
  5
2E1A
  8
0
  6
CONTINUOUS
 62
     7
 10
-57.224893142870421
 20
-99.999799999999496
 30
0.0
 11
-57.224893142879523
 21
-139.99979999999951
 31
0.0
  0
LINE
  5
2E1B
  8
0
  6
CONTINUOUS
 62
     7
 10
31.475106857126381
 20
-125.9997999999995
 30
0.0
 11
-61.724893142870428
 21
-125.9997999999995
 31
0.0
  0
LINE
  5
2E1C
  8
0
  6
CONTINUOUS
 62
     7
 10
-84.224893142870442
 20
-125.9997999999995
 30
0.0
 11
-61.724893142870428
 21
-125.9997999999995
 31
0.0
  0
LINE
  5
2E1D
  8
0
  6
CONTINUOUS
 62
     7
 10
-84.224893142870442
 20
-73.999799999999482
 30
0.0
 11
-61.724893142870428
 21
-73.999799999999482
 31
0.0
  0
LINE
  5
2E1E
  8
0
  6
CONTINUOUS
 62
     7
 10
-85.452142025739818
 20
-138.17567532756851
 30
0.0
 11
-84.604893142868704
 21
-138.24979999999951
 31
0.0
  0
LINE
  5
2E1F
  8
0
  6
CONTINUOUS
 62
     7
 10
-84.604893142868704
 20
-138.49979999999951
 30
0.0
 11
-84.604893142868704
 21
-135.28903446028909
 31
0.0
  0
LINE
  5
2E20
  8
0
  6
CONTINUOUS
 62
     7
 10
-85.15501344075993
 20
-132.79792928963971
 30
0.0
 11
-85.452142025739818
 21
-132.82392467243861
 31
0.0
  0
LINE
  5
2E21
  8
0
  6
CONTINUOUS
 62
     7
 10
-84.604893142868704
 20
-138.49979999999951
 30
0.0
 11
-84.224893142870442
 21
-138.49979999999951
 31
0.0
  0
LINE
  5
2E22
  8
0
  6
CONTINUOUS
 62
     7
 10
-84.224893142870442
 20
-132.49979999999951
 30
0.0
 11
-84.224893142870442
 21
-138.49979999999951
 31
0.0
  0
LINE
  5
2E23
  8
0
  6
CONTINUOUS
 62
     7
 10
-85.452142025739818
 20
-124.1756753275685
 30
0.0
 11
-84.604893142868704
 21
-124.2497999999995
 31
0.0
  0
LINE
  5
2E24
  8
0
  6
CONTINUOUS
 62
     7
 10
-84.604893142868704
 20
-124.2497999999995
 30
0.0
 11
-84.604893142868704
 21
-121.4997999999995
 31
0.0
  0
LINE
  5
2E25
  8
0
  6
CONTINUOUS
 62
     7
 10
-84.604893142868704
 20
-121.4997999999995
 30
0.0
 11
-84.604893142868704
 21
-118.7497999999995
 31
0.0
  0
LINE
  5
2E26
  8
0
  6
CONTINUOUS
 62
     7
 10
-84.604893142868704
 20
-118.7497999999995
 30
0.0
 11
-85.452142025739818
 21
-118.82392467243859
 31
0.0
  0
LINE
  5
2E27
  8
0
  6
CONTINUOUS
 62
     7
 10
-84.604893142868704
 20
-118.4997999999995
 30
0.0
 11
-84.224893142870442
 21
-118.4997999999995
 31
0.0
  0
LINE
  5
2E28
  8
0
  6
CONTINUOUS
 62
     7
 10
-84.604893142868704
 20
-124.4997999999995
 30
0.0
 11
-84.224893142870442
 21
-124.4997999999995
 31
0.0
  0
LINE
  5
2E29
  8
0
  6
CONTINUOUS
 62
     7
 10
-84.224893142870442
 20
-118.4997999999995
 30
0.0
 11
-84.224893142870442
 21
-124.4997999999995
 31
0.0
  0
LINE
  5
2E2A
  8
0
  6
CONTINUOUS
 62
     7
 10
-84.604893142868704
 20
-124.4997999999995
 30
0.0
 11
-84.604893142868704
 21
-118.4997999999995
 31
0.0
  0
LINE
  5
2E2B
  8
0
  6
CONTINUOUS
 62
     7
 10
-85.452142025739818
 20
-67.17567532756847
 30
0.0
 11
-85.15501344075993
 21
-67.201670710359281
 31
0.0
  0
LINE
  5
2E2C
  8
0
  6
CONTINUOUS
 62
     7
 10
-84.604893142868704
 20
-64.499799999999482
 30
0.0
 11
-84.604893142868704
 21
-61.749799999999482
 31
0.0
  0
LINE
  5
2E2D
  8
0
  6
CONTINUOUS
 62
     7
 10
-84.604893142868704
 20
-61.749799999999482
 30
0.0
 11
-85.452142025739818
 21
-61.823924672438679
 31
0.0
  0
LINE
  5
2E2E
  8
0
  6
CONTINUOUS
 62
     7
 10
-84.604893142868704
 20
-61.49979999999946
 30
0.0
 11
-84.224893142870442
 21
-61.49979999999946
 31
0.0
  0
LINE
  5
2E2F
  8
0
  6
CONTINUOUS
 62
     7
 10
-84.224893142870442
 20
-61.49979999999946
 30
0.0
 11
-84.224893142870442
 21
-67.499799999999482
 31
0.0
  0
LINE
  5
2E30
  8
0
  6
CONTINUOUS
 62
     7
 10
31.475106857126381
 20
-139.49979999999951
 30
0.0
 11
31.975106857126381
 21
-139.99979999999951
 31
0.0
  0
LINE
  5
2E31
  8
0
  6
CONTINUOUS
 62
     7
 10
31.475106857126381
 20
-125.9997999999995
 30
0.0
 11
31.475106857126381
 21
-139.49979999999951
 31
0.0
  0
LINE
  5
2E32
  8
0
  6
CONTINUOUS
 62
     7
 10
29.675106857126199
 20
-99.999799999999496
 30
0.0
 11
29.675106857126199
 21
-139.99979999999951
 31
0.0
  0
LINE
  5
2E33
  8
0
  6
CONTINUOUS
 62
     7
 10
39.475106857126377
 20
-99.999799999999496
 30
0.0
 11
39.475106857126377
 21
-139.49979999999951
 31
0.0
  0
LINE
  5
2E34
  8
0
  6
CONTINUOUS
 62
     7
 10
41.975106857126377
 20
-134.99979999999951
 30
0.0
 11
39.77510685712474
 21
-134.99979999999951
 31
0.0
  0
LINE
  5
2E35
  8
0
  6
CONTINUOUS
 62
     7
 10
42.47510685712637
 20
-99.999799999999496
 30
0.0
 11
42.47510685712637
 21
-134.49979999999951
 31
0.0
  0
LINE
  5
2E36
  8
0
  6
CONTINUOUS
 62
     7
 10
42.47510685712637
 20
-134.49979999999951
 30
0.0
 11
41.975106857126377
 21
-134.99979999999951
 31
0.0
  0
LINE
  5
2E37
  8
0
  6
CONTINUOUS
 62
     7
 10
39.475106857126377
 20
-139.49979999999951
 30
0.0
 11
38.975106857126391
 21
-139.99979999999951
 31
0.0
  0
LINE
  5
2E38
  8
0
  6
CONTINUOUS
 62
     7
 10
29.675106857126199
 20
-59.999799999999453
 30
0.0
 11
31.975106857126381
 21
-59.999799999999453
 31
0.0
  0
LINE
  5
2E39
  8
0
  6
CONTINUOUS
 62
     7
 10
31.975106857126381
 20
-59.999799999999453
 30
0.0
 11
31.475106857126381
 21
-60.499799999999482
 31
0.0
  0
LINE
  5
2E3A
  8
0
  6
CONTINUOUS
 62
     7
 10
-60.624893142870057
 20
-59.999799999999453
 30
0.0
 11
38.975106857126391
 21
-59.999799999999453
 31
0.0
  0
LINE
  5
2E3B
  8
0
  6
CONTINUOUS
 62
     7
 10
31.475106857126381
 20
-60.499799999999482
 30
0.0
 11
31.475106857126381
 21
-73.999799999999482
 31
0.0
  0
LINE
  5
2E3C
  8
0
  6
CONTINUOUS
 62
     7
 10
42.473117302506168
 20
-109.4997999999995
 30
0.0
 11
46.473117302506182
 21
-109.4997999999995
 31
0.0
  0
LINE
  5
2E3D
  8
0
  6
CONTINUOUS
 62
     7
 10
73.973117302506196
 20
-90.499799999999482
 30
0.0
 11
42.473117302506168
 21
-90.499799999999482
 31
0.0
  0
LINE
  5
2E3E
  8
0
  6
CONTINUOUS
 62
     7
 10
74.473117302506196
 20
-108.9997999999995
 30
0.0
 11
74.473117302506196
 21
-90.999799999999482
 31
0.0
  0
LINE
  5
2E3F
  8
0
  6
CONTINUOUS
 62
     7
 10
46.473117302506182
 20
-109.4997999999995
 30
0.0
 11
73.973117302506196
 21
-109.4997999999995
 31
0.0
  0
LINE
  5
2E40
  8
0
  6
CONTINUOUS
 62
     7
 10
74.473117302506196
 20
-90.999799999999482
 30
0.0
 11
73.973117302506196
 21
-90.499799999999482
 31
0.0
  0
LINE
  5
2E41
  8
0
  6
CONTINUOUS
 62
     7
 10
73.973117302506196
 20
-109.4997999999995
 30
0.0
 11
74.473117302506196
 21
-108.9997999999995
 31
0.0
  0
LINE
  5
2E42
  8
0
  6
CONTINUOUS
 62
     7
 10
-60.724893142870428
 20
-99.999799999999496
 30
0.0
 11
-60.724893142870428
 21
-139.99979999999951
 31
0.0
  0
LINE
  5
2E43
  8
0
  6
CONTINUOUS
 62
     7
 10
-57.224893142879523
 20
-59.999799999999453
 30
0.0
 11
-57.224893142870421
 21
-99.999799999999496
 31
0.0
  0
LINE
  5
2E44
  8
0
  6
CONTINUOUS
 62
     7
 10
-60.724893142870428
 20
-60.099799999999838
 30
0.0
 11
-60.724893142870428
 21
-99.999799999999496
 31
0.0
  0
LINE
  5
2E45
  8
0
  6
CONTINUOUS
 62
     7
 10
-60.624893142870057
 20
-59.999799999999453
 30
0.0
 11
-60.724893142870428
 21
-60.099799999999838
 31
0.0
  0
LINE
  5
2E46
  8
0
  6
CONTINUOUS
 62
     7
 10
29.675106857126199
 20
-59.999799999999453
 30
0.0
 11
29.675106857126199
 21
-99.999799999999496
 31
0.0
  0
LINE
  5
2E47
  8
0
  6
CONTINUOUS
 62
     7
 10
73.973117302506196
 20
-109.4997999999995
 30
0.0
 11
74.473117302506196
 21
-108.9997999999995
 31
0.0
  0
LINE
  5
2E48
  8
0
  6
CONTINUOUS
 62
     7
 10
74.473117302506196
 20
-90.999799999999482
 30
0.0
 11
73.973117302506196
 21
-90.499799999999482
 31
0.0
  0
LINE
  5
2E49
  8
0
  6
CONTINUOUS
 62
     7
 10
46.473117302506182
 20
-109.4997999999995
 30
0.0
 11
73.973117302506196
 21
-109.4997999999995
 31
0.0
  0
LINE
  5
2E4A
  8
0
  6
CONTINUOUS
 62
     7
 10
74.473117302506196
 20
-108.9997999999995
 30
0.0
 11
74.473117302506196
 21
-90.999799999999482
 31
0.0
  0
LINE
  5
2E4B
  8
0
  6
CONTINUOUS
 62
     7
 10
73.973117302506196
 20
-90.499799999999482
 30
0.0
 11
42.473117302506168
 21
-90.499799999999482
 31
0.0
  0
LINE
  5
2E4C
  8
0
  6
CONTINUOUS
 62
     7
 10
42.473117302506168
 20
-109.4997999999995
 30
0.0
 11
46.473117302506182
 21
-109.4997999999995
 31
0.0
  0
LINE
  5
2E4D
  8
0
  6
CONTINUOUS
 62
     7
 10
31.975106857126381
 20
-59.999799999999453
 30
0.0
 11
38.975106857126391
 21
-59.999799999999453
 31
0.0
  0
LINE
  5
2E4E
  8
0
  6
CONTINUOUS
 62
     7
 10
29.675106857126199
 20
-59.999799999999453
 30
0.0
 11
29.675106857126199
 21
-62.649799999999111
 31
0.0
  0
LINE
  5
2E4F
  8
0
  6
CONTINUOUS
 62
     7
 10
39.475106857126377
 20
-60.499799999999482
 30
0.0
 11
39.475106857126377
 21
-99.999799999999496
 31
0.0
  0
LINE
  5
2E50
  8
0
  6
CONTINUOUS
 62
     7
 10
39.77510685712474
 20
-64.999799999999482
 30
0.0
 11
41.975106857126377
 21
-64.999799999999482
 31
0.0
  0
LINE
  5
2E51
  8
0
  6
CONTINUOUS
 62
     7
 10
42.47510685712637
 20
-65.499799999999482
 30
0.0
 11
42.47510685712637
 21
-99.999799999999496
 31
0.0
  0
LINE
  5
2E52
  8
0
  6
CONTINUOUS
 62
     7
 10
41.975106857126377
 20
-64.999799999999482
 30
0.0
 11
42.47510685712637
 21
-65.499799999999482
 31
0.0
  0
LINE
  5
2E53
  8
0
  6
CONTINUOUS
 62
     7
 10
38.975106857126391
 20
-59.999799999999453
 30
0.0
 11
39.475106857126377
 21
-60.499799999999482
 31
0.0
  0
LINE
  5
2E54
  8
0
  6
CONTINUOUS
 62
     7
 10
-56.224777830569217
 20
-73.999799999999482
 30
0.0
 11
31.475106857126381
 21
-73.999799999999482
 31
0.0
  0
LINE
  5
2E55
  8
0
  6
CONTINUOUS
 62
     7
 10
-84.224893142870442
 20
-137.22757604274909
 30
0.0
 11
-84.224893142870442
 21
-137.99979999999951
 31
0.0
  0
LINE
  5
2E56
  8
0
  6
CONTINUOUS
 62
     7
 10
-86.840761078289802
 20
-125.16437227984891
 30
0.0
 11
-84.276110751478996
 21
-136.7778570293593
 31
0.0
  0
LINE
  5
2E57
  8
0
  6
CONTINUOUS
 62
     7
 10
-61.724893142870428
 20
-59.999799999999453
 30
0.0
 11
-61.724893142870428
 21
-139.99979999999951
 31
0.0
  0
LINE
  5
2E58
  8
0
  6
CONTINUOUS
 62
     7
 10
-82.224893142870428
 20
-139.99979999999951
 30
0.0
 11
38.975106857126391
 21
-139.99979999999951
 31
0.0
  0
LINE
  5
2E59
  8
0
  6
CONTINUOUS
 62
     7
 10
-60.624893142870057
 20
-59.999799999999453
 30
0.0
 11
-84.224893142870442
 21
-59.999799999999453
 31
0.0
  0
LINE
  5
2E5A
  8
0
  6
CONTINUOUS
 62
     7
 10
-84.224893142870442
 20
-60.025153885349802
 30
0.0
 11
-84.224893142870442
 21
-137.22757604274909
 31
0.0
  0
LINE
  5
2E5B
  8
0
  6
CONTINUOUS
 62
     7
 10
-65.962788275949706
 20
-138.99979999999951
 30
0.0
 11
-62.36278827594937
 21
-138.99979999999951
 31
0.0
  0
LINE
  5
2E5C
  8
0
  6
CONTINUOUS
 62
     7
 10
-66.36278827594937
 20
-138.5997999999999
 30
0.0
 11
-65.962788275949706
 21
-138.99979999999951
 31
0.0
  0
LINE
  5
2E5D
  8
0
  6
CONTINUOUS
 62
     7
 10
-66.36278827594937
 20
-132.7561987533189
 30
0.0
 11
-66.36278827594937
 21
-138.5997999999999
 31
0.0
  0
LINE
  5
2E5E
  8
0
  6
CONTINUOUS
 62
     7
 10
-65.962788275949706
 20
-132.7561987533189
 30
0.0
 11
-65.962788275949706
 21
-138.99979999999951
 31
0.0
  0
LINE
  5
2E5F
  8
0
  6
CONTINUOUS
 62
     7
 10
-62.36278827594937
 20
-139.49979999999951
 30
0.0
 11
-61.722788275959033
 21
-139.49979999999951
 31
0.0
  0
LINE
  5
2E60
  8
0
  6
CONTINUOUS
 62
     7
 10
-62.36278827594937
 20
-139.49979999999951
 30
0.0
 11
-62.36278827594937
 21
-132.7561987533189
 31
0.0
  0
LINE
  5
2E61
  8
0
  6
CONTINUOUS
 62
     7
 10
-65.962788275959724
 20
-74.999799999999482
 30
0.0
 11
-62.36278827596027
 21
-74.999799999999482
 31
0.0
  0
LINE
  5
2E62
  8
0
  6
CONTINUOUS
 62
     7
 10
-65.962788275959724
 20
-74.999799999999482
 30
0.0
 11
-66.36278827596027
 21
-75.39979999999909
 31
0.0
  0
LINE
  5
2E63
  8
0
  6
CONTINUOUS
 62
     7
 10
-66.36278827596027
 20
-75.39979999999909
 30
0.0
 11
-66.36278827596027
 21
-81.599799999999846
 31
0.0
  0
LINE
  5
2E64
  8
0
  6
CONTINUOUS
 62
     7
 10
-65.962788275959724
 20
-74.999799999999482
 30
0.0
 11
-65.962788275959724
 21
-81.412918960630023
 31
0.0
  0
LINE
  5
2E65
  8
0
  6
CONTINUOUS
 62
     7
 10
-62.36278827596027
 20
-74.499799999999482
 30
0.0
 11
-61.722788275959033
 21
-74.499799999999482
 31
0.0
  0
LINE
  5
2E66
  8
0
  6
CONTINUOUS
 62
     7
 10
-62.36278827596027
 20
-81.412918960630023
 30
0.0
 11
-62.36278827596027
 21
-74.499799999999482
 31
0.0
  0
LINE
  5
2E67
  8
0
  6
CONTINUOUS
 62
     7
 10
-61.722788275959033
 20
-73.999799999999482
 30
0.0
 11
-61.722788275959033
 21
-81.412918960630023
 31
0.0
  0
LINE
  5
2E68
  8
0
  6
CONTINUOUS
 62
     7
 10
42.473117302506168
 20
-134.49979999999951
 30
0.0
 11
42.473117302506168
 21
-115.9208713416791
 31
0.0
  0
LINE
  5
2E69
  8
0
  6
DASH_CENTER
 62
     1
 10
79.473117302506196
 20
-99.999799999999496
 30
0.0
 11
-92.224893142870428
 21
-99.999799999999496
 31
0.0
  0
ARC
  5
2E6A
  8
0
  6
CONTINUOUS
 62
     7
 10
-79.604893142868704
 20
-135.49979999999951
 30
0.0
 40
6.9999999999953637
 50
163.74297210337639
 51
180.0
  0
ARC
  5
2E6B
  8
0
  6
CONTINUOUS
 62
     7
 10
-85.364986282999908
 20
-133.8201193705298
 30
0.0
 40
0.9999999999986851
 50
94.999999999561794
 51
163.74297210315271
  0
ARC
  5
2E6C
  8
0
  6
CONTINUOUS
 62
     7
 10
-79.604893142868704
 20
-135.49979999999951
 30
0.0
 40
7.0
 50
180.0
 51
196.25702789660821
  0
ARC
  5
2E6D
  8
0
  6
CONTINUOUS
 62
     7
 10
-85.364986282999908
 20
-137.1794806294692
 30
0.0
 40
0.9999999999946654
 50
196.25702789674261
 51
265.00000000047919
  0
ARC
  5
2E6E
  8
0
  6
CONTINUOUS
 62
     7
 10
-79.604893142868704
 20
-121.4997999999995
 30
0.0
 40
6.9999999999953584
 50
163.74297210337659
 51
180.0
  0
ARC
  5
2E6F
  8
0
  6
CONTINUOUS
 62
     7
 10
-85.364986282999908
 20
-119.8201193705298
 30
0.0
 40
0.9999999999986851
 50
94.999999999561794
 51
163.74297210315339
  0
ARC
  5
2E70
  8
0
  6
CONTINUOUS
 62
     7
 10
-79.604893142868704
 20
-121.4997999999995
 30
0.0
 40
7.0
 50
180.0
 51
196.25702789660849
  0
ARC
  5
2E71
  8
0
  6
CONTINUOUS
 62
     7
 10
-85.364986282999908
 20
-123.1794806294691
 30
0.0
 40
0.9999999999946932
 50
196.2570278967481
 51
265.0000000004797
  0
ARC
  5
2E72
  8
0
  6
CONTINUOUS
 62
     7
 10
-79.604893142868704
 20
-64.499799999999482
 30
0.0
 40
6.9999999999953451
 50
163.7429721033769
 51
180.0
  0
ARC
  5
2E73
  8
0
  6
CONTINUOUS
 62
     7
 10
-85.364986282999908
 20
-62.820119370529817
 30
0.0
 40
0.9999999999987064
 50
94.999999999561638
 51
163.74297210315339
  0
ARC
  5
2E74
  8
0
  6
CONTINUOUS
 62
     7
 10
-79.604893142868704
 20
-64.499799999999482
 30
0.0
 40
7.0
 50
180.0
 51
196.2570278966088
  0
ARC
  5
2E75
  8
0
  6
CONTINUOUS
 62
     7
 10
-85.364986282999908
 20
-66.17948062946914
 30
0.0
 40
0.9999999999946893
 50
196.25702789674739
 51
265.00000000047919
  0
ARC
  5
2E7E
  8
0
  6
CONTINUOUS
 62
     7
 10
-72.224893142870442
 20
-78.208120320628822
 30
0.0
 40
14.99999999999948
 50
167.00538320809341
 51
180.0
  0
ARC
  5
2E7F
  8
0
  6
CONTINUOUS
 62
     7
 10
39.77510685712474
 20
-135.29979999999881
 30
0.0
 40
0.2999999999993008
 50
90.0
 51
180.0
  0
ARC
  5
2E80
  8
0
  6
CONTINUOUS
 62
     7
 10
39.77510685712474
 20
-64.699799999997467
 30
0.0
 40
0.2999999999983629
 50
180.0
 51
270.0
  0
ARC
  5
2E81
  8
0
  6
CONTINUOUS
 62
     7
 10
-86.224893142870442
 20
-137.22757604274909
 30
0.0
 40
2.0
 50
0.0
 51
12.99461679168685
  0
ARC
  5
2E82
  8
0
  6
CONTINUOUS
 62
     7
 10
-82.224893142870428
 20
-137.99979999999951
 30
0.0
 40
2.0
 50
180.0
 51
270.0
  0
ARC
  5
2E83
  8
0
  6
CONTINUOUS
 62
     7
 10
-72.224893142870442
 20
-121.7914796793701
 30
0.0
 40
15.0
 50
180.0
 51
192.99461679190691
  0
LINE
  5
2FAE
  8
0
  6
CONTINUOUS
 62
     7
 10
34.37510685712698
 20
-2.49979999999944
 30
0.0
 11
35.015106857126398
 21
-2.49979999999944
 31
0.0
  0
LINE
  5
2FAF
  8
0
  6
CONTINUOUS
 62
     7
 10
35.015106857126398
 20
-2.49979999999944
 30
0.0
 11
35.015106857126398
 21
-10.4997999999995
 31
0.0
  0
LINE
  5
2FB0
  8
0
  6
CONTINUOUS
 62
     7
 10
35.015106857126398
 20
-10.4997999999995
 30
0.0
 11
34.37510685712698
 21
-10.4997999999995
 31
0.0
  0
LINE
  5
2FB1
  8
0
  6
CONTINUOUS
 62
     7
 10
39.475106857127287
 20
-2.2497999999985279
 30
0.0
 11
34.37510685712698
 21
-2.2497999999985279
 31
0.0
  0
LINE
  5
2FB2
  8
0
  6
CONTINUOUS
 62
     7
 10
34.37510685712698
 20
-2.2497999999985279
 30
0.0
 11
34.37510685712698
 21
-10.749799999998491
 31
0.0
  0
LINE
  5
2FB3
  8
0
  6
CONTINUOUS
 62
     7
 10
34.37510685712698
 20
-10.749799999998491
 30
0.0
 11
39.475106857127287
 21
-10.749799999998491
 31
0.0
  0
LINE
  5
2FB4
  8
0
  6
CONTINUOUS
 62
     7
 10
35.015106857126398
 20
-2.9997999999994391
 30
0.0
 11
38.665106857125977
 21
-2.9997999999994391
 31
0.0
  0
LINE
  5
2FB5
  8
0
  6
CONTINUOUS
 62
     7
 10
38.665106857125977
 20
-9.9997999999995013
 30
0.0
 11
38.665106857125977
 21
-2.9997999999994391
 31
0.0
  0
LINE
  5
2FB6
  8
0
  6
CONTINUOUS
 62
     7
 10
39.015106857126398
 20
-3.349799999998889
 30
0.0
 11
39.015106857126398
 21
-9.6497999999990878
 31
0.0
  0
LINE
  5
2FB7
  8
0
  6
CONTINUOUS
 62
     7
 10
39.015106857126398
 20
-3.349799999998889
 30
0.0
 11
38.665106857125977
 21
-2.9997999999994391
 31
0.0
  0
LINE
  5
2FB8
  8
0
  6
CONTINUOUS
 62
     7
 10
38.665106857125977
 20
-9.9997999999995013
 30
0.0
 11
35.015106857126398
 21
-9.9997999999995013
 31
0.0
  0
LINE
  5
2FB9
  8
0
  6
CONTINUOUS
 62
     7
 10
38.665106857125977
 20
-9.9997999999995013
 30
0.0
 11
39.015106857126398
 21
-9.6497999999990878
 31
0.0
  0
LINE
  5
2FBA
  8
0
  6
DASH_CENTER
 62
     1
 10
41.515106857126391
 20
-6.49979999999944
 30
0.0
 11
31.875106857130589
 21
-6.49979999999944
 31
0.0
  0
LINE
  5
2FBB
  8
0
  6
CONTINUOUS
 62
     7
 10
-62.224893142877143
 20
33.000200000001051
 30
0.0
 11
-62.224893142881101
 21
-16.99979999999999
 31
0.0
  0
LINE
  5
2FBC
  8
0
  6
CONTINUOUS
 62
     7
 10
-62.224893142881101
 20
-23.9997999999995
 30
0.0
 11
-62.224893142881101
 21
-24.9997999999995
 31
0.0
  0
LINE
  5
2FBD
  8
0
  6
CONTINUOUS
 62
     7
 10
31.475106857126381
 20
-10.9997999999995
 30
0.0
 11
31.475106857126381
 21
-24.9997999999995
 31
0.0
  0
LINE
  5
2FBE
  8
0
  6
CONTINUOUS
 62
     7
 10
-27.724893142873611
 20
64.200199999996798
 30
0.0
 11
-27.724893142873611
 21
66.700199999997608
 31
0.0
  0
LINE
  5
2FBF
  8
0
  6
CONTINUOUS
 62
     7
 10
-67.720683409055582
 20
32.164140653627271
 30
0.0
 11
-62.222788275973812
 21
32.164140653627271
 31
0.0
  0
LINE
  5
2FC0
  8
0
  6
CONTINUOUS
 62
     7
 10
-67.720683409055582
 20
32.164140653627271
 30
0.0
 11
-67.722788275968341
 21
41.000200000000561
 31
0.0
  0
LINE
  5
2FC1
  8
0
  6
CONTINUOUS
 62
     7
 10
-61.86489314288049
 20
32.500200000001072
 30
0.0
 11
-61.86489314288049
 21
39.243801246682601
 31
0.0
  0
LINE
  5
2FC2
  8
0
  6
CONTINUOUS
 62
     7
 10
-65.464893142880868
 20
33.000200000001051
 30
0.0
 11
-61.86489314288049
 21
33.000200000001051
 31
0.0
  0
LINE
  5
2FC3
  8
0
  6
CONTINUOUS
 62
     7
 10
-65.86489314288049
 20
33.400200000000773
 30
0.0
 11
-65.464893142880868
 21
33.000200000001051
 31
0.0
  0
LINE
  5
2FC4
  8
0
  6
CONTINUOUS
 62
     7
 10
-61.86489314288049
 20
32.500200000001072
 30
0.0
 11
-61.224893142881101
 21
32.500200000001072
 31
0.0
  0
LINE
  5
2FC5
  8
0
  6
CONTINUOUS
 62
     7
 10
-65.464893142880868
 20
39.243801246682601
 30
0.0
 11
-65.464893142880868
 21
33.000200000001051
 31
0.0
  0
LINE
  5
2FC6
  8
0
  6
CONTINUOUS
 62
     7
 10
-67.724893142881101
 20
-16.163740653626189
 30
0.0
 11
-62.224893142881101
 21
-16.163740653626189
 31
0.0
  0
LINE
  5
2FC7
  8
0
  6
CONTINUOUS
 62
     7
 10
-67.722788275968341
 20
-24.9997999999995
 30
0.0
 11
-67.724893142881101
 21
-16.163740653626189
 31
0.0
  0
LINE
  5
2FC8
  8
0
  6
CONTINUOUS
 62
     7
 10
-61.86489314287595
 20
-23.24340124668149
 30
0.0
 11
-61.86489314287595
 21
-16.49979999999999
 31
0.0
  0
LINE
  5
2FC9
  8
0
  6
CONTINUOUS
 62
     7
 10
-61.86489314287595
 20
-16.99979999999999
 30
0.0
 11
-65.464893142876349
 21
-16.99979999999999
 31
0.0
  0
LINE
  5
2FCA
  8
0
  6
CONTINUOUS
 62
     7
 10
-65.464893142876349
 20
-16.99979999999999
 30
0.0
 11
-65.864893142875971
 21
-17.39979999999969
 31
0.0
  0
LINE
  5
2FCB
  8
0
  6
CONTINUOUS
 62
     7
 10
-61.224893142876553
 20
-16.49979999999999
 30
0.0
 11
-61.86489314287595
 21
-16.49979999999999
 31
0.0
  0
LINE
  5
2FCC
  8
0
  6
CONTINUOUS
 62
     7
 10
-65.464893142876349
 20
-16.99979999999999
 30
0.0
 11
-65.864893142875971
 21
-17.39979999999969
 31
0.0
  0
LINE
  5
2FCD
  8
0
  6
CONTINUOUS
 62
     7
 10
-65.864893142875971
 20
-17.39979999999969
 30
0.0
 11
-65.864893142875971
 21
-23.24340124668149
 31
0.0
  0
LINE
  5
2FCE
  8
0
  6
CONTINUOUS
 62
     7
 10
-65.464893142876349
 20
-16.99979999999999
 30
0.0
 11
-65.464893142876349
 21
-23.24340124668149
 31
0.0
  0
LINE
  5
2FD0
  8
0
  6
CONTINUOUS
 62
     7
 10
-14.12572352171868
 20
69.650199999997412
 30
0.0
 11
-14.12572352171868
 21
85.262312314850632
 31
0.0
  0
LINE
  5
2FD1
  8
0
  6
CONTINUOUS
 62
     7
 10
-20.924893142873451
 20
67.722953767748422
 30
0.0
 11
-20.924893142873451
 21
85.262312314850632
 31
0.0
  0
LINE
  5
2FD2
  8
0
  6
DASH_CENTER
 62
     1
 10
-17.39963027702937
 20
143.59548455382381
 30
0.0
 11
-17.39963027702937
 21
67.450199999997608
 31
0.0
  0
LINE
  5
2FD3
  8
0
  6
CONTINUOUS
 62
     7
 10
-23.509627908141411
 20
136.89515194348141
 30
0.0
 11
-24.509627908141411
 21
136.89515194348141
 31
0.0
  0
LINE
  5
2FD4
  8
0
  6
CONTINUOUS
 62
     7
 10
-21.174586027114518
 20
131.89515194348141
 30
0.0
 11
-22.425051554730668
 21
131.89515194348141
 31
0.0
  0
LINE
  5
2FD5
  8
0
  6
CONTINUOUS
 62
     7
 10
-17.67426877709261
 20
131.89515194348141
 30
0.0
 11
-17.67426877709261
 21
141.0951519434814
 31
0.0
  0
LINE
  5
2FD6
  8
0
  6
CONTINUOUS
 62
     7
 10
-21.174586027114518
 20
141.0951519434814
 30
0.0
 11
-21.174586027114518
 21
131.89515194348141
 31
0.0
  0
LINE
  5
2FD7
  8
0
  6
CONTINUOUS
 62
     7
 10
-17.67426877709261
 20
141.0951519434814
 30
0.0
 11
-21.174586027114518
 21
141.0951519434814
 31
0.0
  0
LINE
  5
2FD8
  8
0
  6
CONTINUOUS
 62
     7
 10
-13.6246745269424
 20
131.89515194348141
 30
0.0
 11
-13.6246745269424
 21
141.0951519434814
 31
0.0
  0
LINE
  5
2FD9
  8
0
  6
CONTINUOUS
 62
     7
 10
-17.12499177696612
 20
141.0951519434814
 30
0.0
 11
-17.12499177696612
 21
131.89515194348141
 31
0.0
  0
LINE
  5
2FDA
  8
0
  6
CONTINUOUS
 62
     7
 10
-13.6246745269424
 20
141.0951519434814
 30
0.0
 11
-17.12499177696612
 21
141.0951519434814
 31
0.0
  0
LINE
  5
2FDB
  8
0
  6
CONTINUOUS
 62
     7
 10
-23.299119289673069
 20
129.39515194348141
 30
0.0
 11
-23.175051554730668
 21
129.39515194348141
 31
0.0
  0
LINE
  5
2FDC
  8
0
  6
CONTINUOUS
 62
     7
 10
-24.668718817232389
 20
130.89515194348141
 30
0.0
 11
-25.509627908141411
 21
126.27015194348139
 31
0.0
  0
LINE
  5
2FDD
  8
0
  6
CONTINUOUS
 62
     7
 10
-23.925051554730661
 20
130.89515194348141
 30
0.0
 11
-24.668718817232389
 21
130.89515194348141
 31
0.0
  0
LINE
  5
2FDE
  8
0
  6
CONTINUOUS
 62
     7
 10
-24.509627908141411
 20
136.89515194348141
 30
0.0
 11
-25.509627908141411
 21
136.39515194348141
 31
0.0
  0
LINE
  5
2FDF
  8
0
  6
CONTINUOUS
 62
     7
 10
-23.509627908159601
 20
136.89515194348141
 30
0.0
 11
-23.509627908141411
 21
136.89515194348141
 31
0.0
  0
LINE
  5
2FE0
  8
0
  6
CONTINUOUS
 62
     7
 10
-23.759627908141411
 20
130.8985959941775
 30
0.0
 11
-23.759627908141411
 21
134.89515194348141
 31
0.0
  0
LINE
  5
2FE1
  8
0
  6
CONTINUOUS
 62
     7
 10
-23.759627908141411
 20
134.89515194348141
 30
0.0
 11
-22.759627908141411
 21
134.89515194348141
 31
0.0
  0
LINE
  5
2FE2
  8
0
  6
CONTINUOUS
 62
     7
 10
-22.759627908141411
 20
135.64515194348141
 30
0.0
 11
-22.759627908141411
 21
134.89515194348141
 31
0.0
  0
LINE
  5
2FE3
  8
0
  6
CONTINUOUS
 62
     7
 10
-25.509627908141411
 20
126.27015194348139
 30
0.0
 11
-25.509627908141411
 21
136.39515194348141
 31
0.0
  0
LINE
  5
2FE4
  8
0
  6
CONTINUOUS
 62
     7
 10
-23.509627908141411
 20
136.89515194348141
 30
0.0
 11
-22.759627908141411
 21
135.64515194348141
 31
0.0
  0
LINE
  5
2FE5
  8
0
  6
CONTINUOUS
 62
     7
 10
-12.6246745269424
 20
131.89515194348141
 30
0.0
 11
-22.425051554730668
 21
131.89515194348141
 31
0.0
  0
LINE
  5
2FE6
  8
0
  6
CONTINUOUS
 62
     7
 10
-19.525582580146541
 20
117.39515194348139
 30
0.0
 11
-19.525582580146541
 21
110.6493526153246
 31
0.0
  0
LINE
  5
2FE7
  8
0
  6
CONTINUOUS
 62
     7
 10
-18.275582580146541
 20
117.3951297803616
 30
0.0
 11
-18.275582580146541
 21
110.6493526153246
 31
0.0
  0
LINE
  5
2FE8
  8
0
  6
CONTINUOUS
 62
     7
 10
-16.7756325801471
 20
117.3951031855032
 30
0.0
 11
-16.7756325801471
 21
110.6493526153246
 31
0.0
  0
LINE
  5
2FE9
  8
0
  6
CONTINUOUS
 62
     7
 10
-15.525582580146541
 20
117.39508102149669
 30
0.0
 11
-15.525582580146541
 21
110.6493526153246
 31
0.0
  0
LINE
  5
2FEA
  8
0
  6
CONTINUOUS
 62
     7
 10
-14.12572352171868
 20
86.775940570288427
 30
0.0
 11
-14.12572352171868
 21
103.3993526153246
 31
0.0
  0
LINE
  5
2FEB
  8
0
  6
CONTINUOUS
 62
     7
 10
-11.62464004287507
 20
117.39515194348139
 30
0.0
 11
-23.425086038797101
 21
117.39515194348139
 31
0.0
  0
LINE
  5
2FEC
  8
0
  6
CONTINUOUS
 62
     7
 10
-20.924268779024381
 20
131.89515194348141
 30
0.0
 11
-20.925086037310049
 21
117.39515194348139
 31
0.0
  0
LINE
  5
2FED
  8
0
  6
CONTINUOUS
 62
     7
 10
-12.6246745269424
 20
131.89515194348141
 30
0.0
 11
-12.6246745269424
 21
118.39515194348139
 31
0.0
  0
LINE
  5
2FEE
  8
0
  6
CONTINUOUS
 62
     7
 10
-11.62464004287507
 20
117.39515194348139
 30
0.0
 11
-11.62464004287507
 21
118.39515194348139
 31
0.0
  0
LINE
  5
2FEF
  8
0
  6
CONTINUOUS
 62
     7
 10
-11.62464004287507
 20
118.39515194348139
 30
0.0
 11
-12.6246745269424
 21
118.39515194348139
 31
0.0
  0
LINE
  5
2FF0
  8
0
  6
CONTINUOUS
 62
     7
 10
-23.425086038797101
 20
118.39515194348139
 30
0.0
 11
-23.425086038797101
 21
117.39515194348139
 31
0.0
  0
LINE
  5
2FF1
  8
0
  6
CONTINUOUS
 62
     7
 10
-22.425051554730668
 20
118.39515194348139
 30
0.0
 11
-23.425086038797101
 21
118.39515194348139
 31
0.0
  0
LINE
  5
2FF2
  8
0
  6
CONTINUOUS
 62
     7
 10
-22.425051554730668
 20
118.39515194348139
 30
0.0
 11
-22.425051554730668
 21
128.64515194348141
 31
0.0
  0
LINE
  5
2FF3
  8
0
  6
CONTINUOUS
 62
     7
 10
-24.037021722249499
 20
128.77931602213181
 30
0.0
 11
-24.925051554730661
 21
123.89515194348139
 31
0.0
  0
LINE
  5
2FF4
  8
0
  6
CONTINUOUS
 62
     7
 10
-26.175051554730661
 20
123.89515194348139
 30
0.0
 11
-24.925051554730661
 21
123.89515194348139
 31
0.0
  0
LINE
  5
2FF5
  8
0
  6
CONTINUOUS
 62
     7
 10
-25.759627908141411
 20
124.89515194348139
 30
0.0
 11
-26.175051554730661
 21
124.89515194348139
 31
0.0
  0
LINE
  5
2FF6
  8
0
  6
CONTINUOUS
 62
     7
 10
-26.175051554730661
 20
124.89515194348139
 30
0.0
 11
-26.175051554730661
 21
123.89515194348139
 31
0.0
  0
LINE
  5
2FF7
  8
0
  6
CONTINUOUS
 62
     7
 10
-25.509627908141411
 20
126.27015194348139
 30
0.0
 11
-25.759627908141411
 21
124.89515194348139
 31
0.0
  0
LINE
  5
2FF8
  8
0
  6
CONTINUOUS
 62
     7
 10
-21.425086037608381
 20
117.39515194348139
 30
0.0
 11
-21.424586044504061
 21
131.89465194348219
 31
0.0
  0
LINE
  5
2FF9
  8
0
  6
CONTINUOUS
 62
     7
 10
-19.925577208647731
 20
110.6493526153246
 30
0.0
 11
-19.925577208647731
 21
108.1493526153246
 31
0.0
  0
LINE
  5
2FFA
  8
0
  6
CONTINUOUS
 62
     7
 10
-15.125563364537481
 20
108.1493526153246
 30
0.0
 11
-13.62555692188984
 21
106.6493526153246
 31
0.0
  0
LINE
  5
2FFB
  8
0
  6
CONTINUOUS
 62
     7
 10
-15.125563364537481
 20
108.1493526153246
 30
0.0
 11
-15.125563364537481
 21
110.6493526153246
 31
0.0
  0
LINE
  5
2FFC
  8
0
  6
CONTINUOUS
 62
     7
 10
-19.925577208647731
 20
108.1493526153246
 30
0.0
 11
-21.425556921942761
 21
106.6493526153246
 31
0.0
  0
LINE
  5
2FFD
  8
0
  6
CONTINUOUS
 62
     7
 10
-19.925577208647731
 20
110.6493526153246
 30
0.0
 11
-15.125563364537481
 21
110.6493526153246
 31
0.0
  0
LINE
  5
2FFE
  8
0
  6
CONTINUOUS
 62
     7
 10
-13.62555692188984
 20
106.6493526153246
 30
0.0
 11
-13.62555692188984
 21
103.3993526153246
 31
0.0
  0
LINE
  5
2FFF
  8
0
  6
CONTINUOUS
 62
     7
 10
-21.425556921942761
 20
106.6493526153246
 30
0.0
 11
-21.425556921942761
 21
103.3993526153246
 31
0.0
  0
LINE
  5
3000
  8
0
  6
CONTINUOUS
 62
     7
 10
-21.425556921942761
 20
103.3993526153246
 30
0.0
 11
-13.62555692188984
 21
103.3993526153246
 31
0.0
  0
LINE
  5
3001
  8
0
  6
CONTINUOUS
 62
     7
 10
-20.924893142873451
 20
103.3993526153246
 30
0.0
 11
-20.924893142873451
 21
86.775940570288427
 31
0.0
  0
LINE
  5
3002
  8
0
  6
CONTINUOUS
 62
     7
 10
-27.724893142873611
 20
55.000200000000561
 30
0.0
 11
-27.724893142873611
 21
66.700199999997608
 31
0.0
  0
LINE
  5
3003
  8
0
  6
CONTINUOUS
 62
     7
 10
-27.724893142873611
 20
62.850199999997287
 30
0.0
 11
-25.724893142873611
 21
62.850199999997287
 31
0.0
  0
LINE
  5
3005
  8
0
  6
CONTINUOUS
 62
     7
 10
-62.224893142882003
 20
55.936768003550149
 30
0.0
 11
-62.224893142881101
 21
55.936768003541061
 31
0.0
  0
LINE
  5
3006
  8
0
  6
CONTINUOUS
 62
     7
 10
-56.224777830579022
 20
41.000200000000561
 30
0.0
 11
-67.722788275968341
 21
41.000200000000561
 31
0.0
  0
LINE
  5
3007
  8
0
  6
CONTINUOUS
 62
     7
 10
-57.224893142868389
 20
15.000200000000561
 30
0.0
 11
-57.224893142882969
 21
-24.9997999999995
 31
0.0
  0
LINE
  5
3008
  8
0
  6
CONTINUOUS
 62
     7
 10
31.475106857126381
 20
-10.9997999999995
 30
0.0
 11
-62.224893142881101
 21
-10.9997999999995
 31
0.0
  0
LINE
  5
3009
  8
0
  6
CONTINUOUS
 62
     7
 10
-84.724893142881058
 20
-10.9997999999995
 30
0.0
 11
-62.224893142881101
 21
-10.9997999999995
 31
0.0
  0
LINE
  5
300A
  8
0
  6
CONTINUOUS
 62
     7
 10
-84.724893142881058
 20
41.000200000000561
 30
0.0
 11
-62.224893142881101
 21
41.000200000000561
 31
0.0
  0
LINE
  5
300B
  8
0
  6
CONTINUOUS
 62
     7
 10
-85.952142025759585
 20
-23.175675327562889
 30
0.0
 11
-85.104893142881181
 21
-23.2497999999995
 31
0.0
  0
LINE
  5
300C
  8
0
  6
CONTINUOUS
 62
     7
 10
-85.104893142881181
 20
-23.4997999999995
 30
0.0
 11
-85.104893142881181
 21
-20.289034460289091
 31
0.0
  0
LINE
  5
300D
  8
0
  6
CONTINUOUS
 62
     7
 10
-85.655013440777935
 20
-17.797929289640489
 30
0.0
 11
-85.952142025759585
 21
-17.82392467243589
 31
0.0
  0
LINE
  5
300E
  8
0
  6
CONTINUOUS
 62
     7
 10
-85.104893142881181
 20
-23.4997999999995
 30
0.0
 11
-84.724893142881058
 21
-23.4997999999995
 31
0.0
  0
LINE
  5
300F
  8
0
  6
CONTINUOUS
 62
     7
 10
-84.724893142881058
 20
-17.4997999999995
 30
0.0
 11
-84.724893142881058
 21
-23.4997999999995
 31
0.0
  0
LINE
  5
3010
  8
0
  6
CONTINUOUS
 62
     7
 10
-85.952142025759585
 20
-9.1756753275628888
 30
0.0
 11
-85.104893142881181
 21
-9.2497999999995013
 31
0.0
  0
LINE
  5
3011
  8
0
  6
CONTINUOUS
 62
     7
 10
-85.104893142881181
 20
-9.2497999999995013
 30
0.0
 11
-85.104893142881181
 21
-6.49979999999944
 31
0.0
  0
LINE
  5
3012
  8
0
  6
CONTINUOUS
 62
     7
 10
-85.104893142881181
 20
-6.49979999999944
 30
0.0
 11
-85.104893142881181
 21
-3.7497999999994391
 31
0.0
  0
LINE
  5
3013
  8
0
  6
CONTINUOUS
 62
     7
 10
-85.104893142881181
 20
-3.7497999999994391
 30
0.0
 11
-85.952142025759585
 21
-3.8239246724359188
 31
0.0
  0
LINE
  5
3014
  8
0
  6
CONTINUOUS
 62
     7
 10
-85.104893142881181
 20
-3.4997999999994391
 30
0.0
 11
-84.724893142881058
 21
-3.4997999999994391
 31
0.0
  0
LINE
  5
3015
  8
0
  6
CONTINUOUS
 62
     7
 10
-85.104893142881181
 20
-9.4997999999995013
 30
0.0
 11
-84.724893142881058
 21
-9.4997999999995013
 31
0.0
  0
LINE
  5
3016
  8
0
  6
CONTINUOUS
 62
     7
 10
-84.724893142881058
 20
-3.4997999999994391
 30
0.0
 11
-84.724893142881058
 21
-9.4997999999995013
 31
0.0
  0
LINE
  5
3017
  8
0
  6
CONTINUOUS
 62
     7
 10
-85.104893142881181
 20
-9.4997999999995013
 30
0.0
 11
-85.104893142881181
 21
-3.4997999999994391
 31
0.0
  0
LINE
  5
3018
  8
0
  6
CONTINUOUS
 62
     7
 10
-85.952142025759585
 20
47.824324672437108
 30
0.0
 11
-85.104893142881181
 21
47.750200000000561
 31
0.0
  0
LINE
  5
3019
  8
0
  6
CONTINUOUS
 62
     7
 10
-85.104893142881181
 20
47.750200000000561
 30
0.0
 11
-85.104893142881181
 21
50.500200000000561
 31
0.0
  0
LINE
  5
301A
  8
0
  6
CONTINUOUS
 62
     7
 10
-85.104893142881181
 20
50.500200000000561
 30
0.0
 11
-85.104893142881181
 21
53.250200000000561
 31
0.0
  0
LINE
  5
301B
  8
0
  6
CONTINUOUS
 62
     7
 10
-85.104893142881181
 20
53.250200000000561
 30
0.0
 11
-85.952142025759585
 21
53.176075327564078
 31
0.0
  0
LINE
  5
301C
  8
0
  6
CONTINUOUS
 62
     7
 10
-85.104893142881181
 20
53.500200000000561
 30
0.0
 11
-84.724893142881058
 21
53.500200000000561
 31
0.0
  0
LINE
  5
301D
  8
0
  6
CONTINUOUS
 62
     7
 10
-85.104893142881181
 20
47.500200000000561
 30
0.0
 11
-84.724893142881058
 21
47.500200000000561
 31
0.0
  0
LINE
  5
301E
  8
0
  6
CONTINUOUS
 62
     7
 10
-84.724893142881058
 20
53.500200000000561
 30
0.0
 11
-84.724893142881058
 21
47.500200000000561
 31
0.0
  0
LINE
  5
301F
  8
0
  6
CONTINUOUS
 62
     7
 10
-85.104893142881181
 20
47.500200000000561
 30
0.0
 11
-85.104893142881181
 21
53.500200000000561
 31
0.0
  0
LINE
  5
3020
  8
0
  6
CONTINUOUS
 62
     7
 10
29.675106857127108
 20
15.000200000000561
 30
0.0
 11
29.675106857127119
 21
-24.9997999999995
 31
0.0
  0
LINE
  5
3021
  8
0
  6
CONTINUOUS
 62
     7
 10
39.475106857126377
 20
15.000200000000561
 30
0.0
 11
39.475106857126377
 21
-24.4997999999995
 31
0.0
  0
LINE
  5
3022
  8
0
  6
CONTINUOUS
 62
     7
 10
41.975106857126377
 20
-19.9997999999995
 30
0.0
 11
39.775106857126559
 21
-19.9997999999995
 31
0.0
  0
LINE
  5
3023
  8
0
  6
CONTINUOUS
 62
     7
 10
42.47510685712637
 20
15.000200000000561
 30
0.0
 11
42.47510685712637
 21
-19.4997999999995
 31
0.0
  0
LINE
  5
3024
  8
0
  6
CONTINUOUS
 62
     7
 10
42.47510685712637
 20
-19.4997999999995
 30
0.0
 11
41.975106857126377
 21
-19.9997999999995
 31
0.0
  0
LINE
  5
3025
  8
0
  6
CONTINUOUS
 62
     7
 10
39.475106857126377
 20
-24.4997999999995
 30
0.0
 11
38.975106857126391
 21
-24.9997999999995
 31
0.0
  0
LINE
  5
3026
  8
0
  6
CONTINUOUS
 62
     7
 10
29.675106857127119
 20
55.000200000000561
 30
0.0
 11
31.975106857126381
 21
55.000200000000561
 31
0.0
  0
LINE
  5
3027
  8
0
  6
CONTINUOUS
 62
     7
 10
-61.124893142880723
 20
55.000200000000561
 30
0.0
 11
38.97510685712637
 21
55.000200000000561
 31
0.0
  0
LINE
  5
3028
  8
0
  6
CONTINUOUS
 62
     7
 10
31.475106857126381
 20
55.000200000000561
 30
0.0
 11
31.475106857126399
 21
41.000200000000561
 31
0.0
  0
LINE
  5
3029
  8
0
  6
CONTINUOUS
 62
     7
 10
42.473117302503447
 20
5.5002000000005591
 30
0.0
 11
46.473117302503447
 21
5.5002000000005591
 31
0.0
  0
LINE
  5
302A
  8
0
  6
CONTINUOUS
 62
     7
 10
73.973117302503425
 20
24.500200000000561
 30
0.0
 11
42.473117302503447
 21
24.500200000000561
 31
0.0
  0
LINE
  5
302B
  8
0
  6
CONTINUOUS
 62
     7
 10
74.473117302503439
 20
6.0002000000005591
 30
0.0
 11
74.473117302503439
 21
24.000200000000561
 31
0.0
  0
LINE
  5
302C
  8
0
  6
CONTINUOUS
 62
     7
 10
46.473117302503447
 20
5.5002000000005591
 30
0.0
 11
73.973117302503425
 21
5.5002000000005591
 31
0.0
  0
LINE
  5
302D
  8
0
  6
CONTINUOUS
 62
     7
 10
74.473117302503439
 20
24.000200000000561
 30
0.0
 11
73.973117302503425
 21
24.500200000000561
 31
0.0
  0
LINE
  5
302E
  8
0
  6
CONTINUOUS
 62
     7
 10
73.973117302503425
 20
5.5002000000005591
 30
0.0
 11
74.473117302503439
 21
6.0002000000005591
 31
0.0
  0
LINE
  5
302F
  8
0
  6
CONTINUOUS
 62
     7
 10
-61.224893142881101
 20
15.000200000000561
 30
0.0
 11
-61.224893142881101
 21
-24.9997999999995
 31
0.0
  0
LINE
  5
3030
  8
0
  6
CONTINUOUS
 62
     7
 10
-57.224893142882969
 20
55.000200000000561
 30
0.0
 11
-57.224893142868389
 21
15.000200000000561
 31
0.0
  0
LINE
  5
3031
  8
0
  6
CONTINUOUS
 62
     7
 10
-61.224893142881101
 20
54.900200000001959
 30
0.0
 11
-61.224893142881101
 21
15.000200000000561
 31
0.0
  0
LINE
  5
3032
  8
0
  6
CONTINUOUS
 62
     7
 10
-61.124893142880723
 20
55.000200000000561
 30
0.0
 11
-61.224893142881101
 21
54.900200000001959
 31
0.0
  0
LINE
  5
3033
  8
0
  6
CONTINUOUS
 62
     7
 10
29.675106857127119
 20
55.000200000000561
 30
0.0
 11
29.675106857127108
 21
15.000200000000561
 31
0.0
  0
LINE
  5
3034
  8
0
  6
CONTINUOUS
 62
     7
 10
73.973117302503425
 20
5.5002000000005591
 30
0.0
 11
74.473117302503439
 21
6.0002000000005591
 31
0.0
  0
LINE
  5
3035
  8
0
  6
CONTINUOUS
 62
     7
 10
74.473117302503439
 20
24.000200000000561
 30
0.0
 11
73.973117302503425
 21
24.500200000000561
 31
0.0
  0
LINE
  5
3036
  8
0
  6
CONTINUOUS
 62
     7
 10
46.473117302503447
 20
5.5002000000005591
 30
0.0
 11
73.973117302503425
 21
5.5002000000005591
 31
0.0
  0
LINE
  5
3037
  8
0
  6
CONTINUOUS
 62
     7
 10
74.473117302503439
 20
6.0002000000005591
 30
0.0
 11
74.473117302503439
 21
24.000200000000561
 31
0.0
  0
LINE
  5
3038
  8
0
  6
CONTINUOUS
 62
     7
 10
73.973117302503425
 20
24.500200000000561
 30
0.0
 11
42.473117302503447
 21
24.500200000000561
 31
0.0
  0
LINE
  5
3039
  8
0
  6
CONTINUOUS
 62
     7
 10
42.473117302503447
 20
5.5002000000005591
 30
0.0
 11
46.473117302503447
 21
5.5002000000005591
 31
0.0
  0
LINE
  5
303A
  8
0
  6
CONTINUOUS
 62
     7
 10
31.975106857126381
 20
55.000200000000561
 30
0.0
 11
38.97510685712637
 21
55.000200000000561
 31
0.0
  0
LINE
  5
303B
  8
0
  6
CONTINUOUS
 62
     7
 10
39.475106857126377
 20
54.500200000000561
 30
0.0
 11
39.475106857126377
 21
15.000200000000561
 31
0.0
  0
LINE
  5
303C
  8
0
  6
CONTINUOUS
 62
     7
 10
39.775106857126559
 20
50.000200000000561
 30
0.0
 11
41.975106857126377
 21
50.000200000000561
 31
0.0
  0
LINE
  5
303D
  8
0
  6
CONTINUOUS
 62
     7
 10
42.47510685712637
 20
49.500200000000561
 30
0.0
 11
42.47510685712637
 21
15.000200000000561
 31
0.0
  0
LINE
  5
303E
  8
0
  6
CONTINUOUS
 62
     7
 10
41.975106857126377
 20
50.000200000000561
 30
0.0
 11
42.47510685712637
 21
49.500200000000561
 31
0.0
  0
LINE
  5
303F
  8
0
  6
CONTINUOUS
 62
     7
 10
38.97510685712637
 20
55.000200000000561
 30
0.0
 11
39.475106857126377
 21
54.500200000000561
 31
0.0
  0
LINE
  5
3040
  8
0
  6
CONTINUOUS
 62
     7
 10
-56.224777830575057
 20
41.000200000000561
 30
0.0
 11
31.475106857126399
 21
41.000200000000561
 31
0.0
  0
LINE
  5
3041
  8
0
  6
CONTINUOUS
 62
     7
 10
-84.724893142881058
 20
-22.227576042749892
 30
0.0
 11
-84.724893142881058
 21
-22.9997999999995
 31
0.0
  0
LINE
  5
3042
  8
0
  6
CONTINUOUS
 62
     7
 10
-87.340761078300517
 20
-10.16437227984969
 30
0.0
 11
-84.776110751491487
 21
-21.777857029352891
 31
0.0
  0
LINE
  5
3043
  8
0
  6
CONTINUOUS
 62
     7
 10
-62.224893142881101
 20
55.500200000000561
 30
0.0
 11
-62.224893142881101
 21
40.000200000000561
 31
0.0
  0
LINE
  5
3044
  8
0
  6
CONTINUOUS
 62
     7
 10
-87.724893142881086
 20
-6.7914796793682681
 30
0.0
 11
-87.724893142881086
 21
57.626811994264351
 31
0.0
  0
LINE
  5
3045
  8
0
  6
CONTINUOUS
 62
     7
 10
-82.724893142881058
 20
-24.9997999999995
 30
0.0
 11
38.975106857126391
 21
-24.9997999999995
 31
0.0
  0
LINE
  5
3046
  8
0
  6
CONTINUOUS
 62
     7
 10
-61.124893142880723
 20
55.000200000000561
 30
0.0
 11
-84.724893142881058
 21
55.000200000000561
 31
0.0
  0
LINE
  5
3047
  8
0
  6
CONTINUOUS
 62
     7
 10
-84.724893142881058
 20
55.000200000000561
 30
0.0
 11
-84.724893142881058
 21
-22.227576042749892
 31
0.0
  0
LINE
  5
3048
  8
0
  6
CONTINUOUS
 62
     7
 10
-85.022133729556899
 20
47.500200000000561
 30
0.0
 11
-87.724893142881086
 21
33.493442008907707
 31
0.0
  0
LINE
  5
3049
  8
0
  6
CONTINUOUS
 62
     7
 10
-65.464893142876349
 20
-23.9997999999995
 30
0.0
 11
-61.86489314287595
 21
-23.9997999999995
 31
0.0
  0
LINE
  5
304A
  8
0
  6
CONTINUOUS
 62
     7
 10
-65.864893142875971
 20
-23.599799999999789
 30
0.0
 11
-65.464893142876349
 21
-23.9997999999995
 31
0.0
  0
LINE
  5
304B
  8
0
  6
CONTINUOUS
 62
     7
 10
-65.864893142875971
 20
-17.756198753317989
 30
0.0
 11
-65.864893142875971
 21
-23.599799999999789
 31
0.0
  0
LINE
  5
304C
  8
0
  6
CONTINUOUS
 62
     7
 10
-65.464893142876349
 20
-17.756198753317989
 30
0.0
 11
-65.464893142876349
 21
-23.9997999999995
 31
0.0
  0
LINE
  5
304D
  8
0
  6
CONTINUOUS
 62
     7
 10
-61.86489314287595
 20
-24.4997999999995
 30
0.0
 11
-61.224893142876553
 21
-24.4997999999995
 31
0.0
  0
LINE
  5
304E
  8
0
  6
CONTINUOUS
 62
     7
 10
-61.86489314287595
 20
-24.4997999999995
 30
0.0
 11
-61.86489314287595
 21
-17.756198753317989
 31
0.0
  0
LINE
  5
304F
  8
0
  6
CONTINUOUS
 62
     7
 10
-65.464893142880868
 20
40.000200000000561
 30
0.0
 11
-61.86489314288049
 21
40.000200000000561
 31
0.0
  0
LINE
  5
3050
  8
0
  6
CONTINUOUS
 62
     7
 10
-65.464893142880868
 20
40.000200000000561
 30
0.0
 11
-65.86489314288049
 21
39.600200000000022
 31
0.0
  0
LINE
  5
3051
  8
0
  6
CONTINUOUS
 62
     7
 10
-65.86489314288049
 20
39.600200000000022
 30
0.0
 11
-65.86489314288049
 21
33.400200000000773
 31
0.0
  0
LINE
  5
3052
  8
0
  6
CONTINUOUS
 62
     7
 10
-65.464893142880868
 20
40.000200000000561
 30
0.0
 11
-65.464893142880868
 21
33.5870810393764
 31
0.0
  0
LINE
  5
3053
  8
0
  6
CONTINUOUS
 62
     7
 10
-61.86489314288049
 20
40.500200000000547
 30
0.0
 11
-61.224893142880191
 21
40.500200000000547
 31
0.0
  0
LINE
  5
3054
  8
0
  6
CONTINUOUS
 62
     7
 10
-61.86489314288049
 20
33.5870810393764
 30
0.0
 11
-61.86489314288049
 21
40.500200000000547
 31
0.0
  0
LINE
  5
3055
  8
0
  6
CONTINUOUS
 62
     7
 10
-59.724893142873633
 20
55.700199999997722
 30
0.0
 11
-59.724893142873633
 21
55.000199999997889
 31
0.0
  0
LINE
  5
3056
  8
0
  6
CONTINUOUS
 62
     7
 10
-43.224893142873633
 20
60.700199999998603
 30
0.0
 11
-59.616012885968892
 21
60.700199999998603
 31
0.0
  0
LINE
  5
3057
  8
0
  6
CONTINUOUS
 62
     7
 10
-27.724893142873611
 20
60.700199999998603
 30
0.0
 11
-37.224893142873611
 21
60.700199999998603
 31
0.0
  0
LINE
  5
3058
  8
0
  6
DASH_CENTER
 62
     1
 10
-40.224893142873633
 20
68.969391180657325
 30
0.0
 11
-40.224893142873633
 21
53.56939118065678
 31
0.0
  0
LINE
  5
3059
  8
0
  6
CONTINUOUS
 62
     7
 10
-27.724893142873611
 20
55.700199999997722
 30
0.0
 11
-59.724893142873633
 21
55.700199999997722
 31
0.0
  0
LINE
  5
305A
  8
0
  6
CONTINUOUS
 62
     7
 10
-37.224893142873611
 20
57.900199999997533
 30
0.0
 11
-37.224893142873611
 21
67.700199999997707
 31
0.0
  0
LINE
  5
305B
  8
0
  6
CONTINUOUS
 62
     7
 10
-43.024893142873829
 20
57.7001999999977
 30
0.0
 11
-37.424893142873422
 21
57.7001999999977
 31
0.0
  0
LINE
  5
305C
  8
0
  6
CONTINUOUS
 62
     7
 10
-43.224893142873633
 20
67.700199999997707
 30
0.0
 11
-43.224893142873803
 21
57.900199999997533
 31
0.0
  0
LINE
  5
305D
  8
0
  6
CONTINUOUS
 62
     7
 10
-59.383397750742581
 20
60.999008468112372
 30
0.0
 11
-52.007662634636873
 21
67.452776694705094
 31
0.0
  0
LINE
  5
305E
  8
0
  6
CONTINUOUS
 62
     7
 10
-59.724893142873633
 20
55.700199999997722
 30
0.0
 11
-59.724893142873633
 21
60.246431773404979
 31
0.0
  0
LINE
  5
305F
  8
0
  6
CONTINUOUS
 62
     7
 10
-28.724893142873611
 20
67.700199999997707
 30
0.0
 11
-51.349158026768819
 21
67.700199999997707
 31
0.0
  0
LINE
  5
3060
  8
0
  6
CONTINUOUS
 62
     7
 10
-37.724893142855422
 20
57.7001999999977
 30
0.0
 11
-37.724893142855422
 21
58.340200000001651
 31
0.0
  0
LINE
  5
3061
  8
0
  6
CONTINUOUS
 62
     7
 10
-37.724893142855422
 20
58.340200000001651
 30
0.0
 11
-42.724893142873633
 21
58.340200000001651
 31
0.0
  0
LINE
  5
3062
  8
0
  6
CONTINUOUS
 62
     7
 10
-42.724893142873633
 20
58.340200000001651
 30
0.0
 11
-42.724893142873633
 21
57.7001999999977
 31
0.0
  0
LINE
  5
3063
  8
0
  6
CONTINUOUS
 62
     7
 10
-42.406477899989689
 20
59.122189804268807
 30
0.0
 11
-42.474893142855443
 21
58.340200000001651
 31
0.0
  0
LINE
  5
3064
  8
0
  6
CONTINUOUS
 62
     7
 10
-42.474893142855443
 20
58.340200000001651
 30
0.0
 11
-41.524893142855632
 21
58.340200000001651
 31
0.0
  0
LINE
  5
3065
  8
0
  6
CONTINUOUS
 62
     7
 10
-38.924893142854323
 20
58.340200000001651
 30
0.0
 11
-37.974893142855422
 21
58.340200000001651
 31
0.0
  0
LINE
  5
3066
  8
0
  6
CONTINUOUS
 62
     7
 10
-41.524893142855632
 20
58.340200000001651
 30
0.0
 11
-38.924893142854323
 21
58.340200000001651
 31
0.0
  0
LINE
  5
3067
  8
0
  6
CONTINUOUS
 62
     7
 10
-37.974893142855422
 20
58.340200000001651
 30
0.0
 11
-38.043308385722092
 21
59.122189804268807
 31
0.0
  0
LINE
  5
3068
  8
0
  6
CONTINUOUS
 62
     7
 10
42.473117302503447
 20
-19.4997999999995
 30
0.0
 11
42.473117302503447
 21
-0.9208713416754401
 31
0.0
  0
LINE
  5
306A
  8
0
  6
DASH_CENTER
 62
     1
 10
-30.224893142873611
 20
59.450199999997587
 30
0.0
 11
-25.39963027702937
 21
59.450199999997587
 31
0.0
  0
LINE
  5
306B
  8
0
  6
CONTINUOUS
 62
     7
 10
-25.725723521719029
 20
56.050199999997957
 30
0.0
 11
-27.724893142873611
 21
56.050199999997957
 31
0.0
  0
LINE
  5
306C
  8
0
  6
CONTINUOUS
 62
     7
 10
-63.42221952419083
 20
60.356913180831938
 30
0.0
 11
-74.992729063144779
 21
65.75233038759346
 31
0.0
  0
LINE
  5
306D
  8
0
  6
CONTINUOUS
 62
     7
 10
-62.876734814917533
 20
59.623163064589988
 30
0.0
 11
-62.298285221601752
 21
56.143728233805838
 31
0.0
  0
LINE
  5
306E
  8
0
  6
CONTINUOUS
 62
     7
 10
-78.961024843645546
 20
63.913691325398972
 30
0.0
 11
-75.923802894919262
 21
65.707110826756633
 31
0.0
  0
LINE
  5
306F
  8
0
  6
CONTINUOUS
 62
     7
 10
-78.961024843645546
 20
63.913691325398972
 30
0.0
 11
-75.923802894919262
 21
65.707110826756633
 31
0.0
  0
LINE
  5
3070
  8
0
  6
CONTINUOUS
 62
     7
 10
-78.9524411128167
 20
63.73695172407519
 30
0.0
 11
-62.439193126894573
 21
56.036697727237168
 31
0.0
  0
LINE
  5
3071
  8
0
  6
CONTINUOUS
 62
     7
 10
-67.177460550264982
 20
62.10801117588403
 30
0.0
 11
-66.908982743644501
 21
62.845648191485672
 31
0.0
  0
LINE
  5
3072
  8
0
  6
CONTINUOUS
 62
     7
 10
-70.863357495063497
 20
64.68960278300095
 30
0.0
 11
-71.255845844074315
 21
64.009792812990995
 31
0.0
  0
LINE
  5
3073
  8
0
  6
DASH_CENTER
 62
     1
 10
-58.71657531574543
 20
85.576388641685625
 30
0.0
 11
-71.752362876749061
 21
57.621055305876531
 31
0.0
  0
LINE
  5
3074
  8
0
  6
CONTINUOUS
 62
     7
 10
-61.500021307904831
 20
85.538071810123569
 30
0.0
 11
-71.52773791715309
 21
64.136578480780713
 31
0.0
  0
LINE
  5
3075
  8
0
  6
CONTINUOUS
 62
     7
 10
-60.985498619477461
 20
87.849685115216957
 30
0.0
 11
-60.985498619477482
 21
93.684932825746955
 31
0.0
  0
LINE
  5
3076
  8
0
  6
CONTINUOUS
 62
     7
 10
-55.88549861947746
 20
93.684932825746955
 30
0.0
 11
-55.88549861947746
 21
87.848414908952009
 31
0.0
  0
LINE
  5
3077
  8
0
  6
CONTINUOUS
 62
     7
 10
-66.90556820326492
 20
61.981225345905827
 30
0.0
 11
-56.882640241953588
 21
83.371204388790815
 31
0.0
  0
LINE
  5
3078
  8
0
  6
DASH_CENTER
 62
     1
 10
-58.435498619477471
 20
86.844243549955024
 30
0.0
 11
-58.435498619477471
 21
143.59548455382381
 31
0.0
  0
LINE
  5
3079
  8
0
  6
CONTINUOUS
 62
     7
 10
-60.985498619477482
 20
102.07247611400661
 30
0.0
 11
-60.985498619477482
 21
94.962261001211317
 31
0.0
  0
LINE
  5
307A
  8
0
  6
CONTINUOUS
 62
     7
 10
-61.435498619477471
 20
102.07247611400661
 30
0.0
 11
-55.435498619477471
 21
102.07247611400661
 31
0.0
  0
LINE
  5
307B
  8
0
  6
CONTINUOUS
 62
     7
 10
-61.435498619477499
 20
105.32247611400661
 30
0.0
 11
-61.435498619477471
 21
102.07247611400661
 31
0.0
  0
LINE
  5
307C
  8
0
  6
CONTINUOUS
 62
     7
 10
-55.435498619477471
 20
105.32247611400661
 30
0.0
 11
-55.435498619477471
 21
102.07247611400661
 31
0.0
  0
LINE
  5
307D
  8
0
  6
CONTINUOUS
 62
     7
 10
-55.88549861947746
 20
94.962261001211317
 30
0.0
 11
-55.88549861947746
 21
102.07247611400661
 31
0.0
  0
LINE
  5
307E
  8
0
  6
CONTINUOUS
 62
     7
 10
-60.185498619477471
 20
109.32247611400661
 30
0.0
 11
-60.185498619477471
 21
117.3954845538258
 31
0.0
  0
LINE
  5
307F
  8
0
  6
CONTINUOUS
 62
     7
 10
-59.435498619477471
 20
109.32247611400661
 30
0.0
 11
-59.435498619477471
 21
117.3954845538258
 31
0.0
  0
LINE
  5
3080
  8
0
  6
CONTINUOUS
 62
     7
 10
-58.685498619477471
 20
109.32247611400661
 30
0.0
 11
-58.685498619477471
 21
117.3954845538258
 31
0.0
  0
LINE
  5
3081
  8
0
  6
CONTINUOUS
 62
     7
 10
-58.185498619477471
 20
109.32247611400661
 30
0.0
 11
-58.185498619477471
 21
117.3954845538258
 31
0.0
  0
LINE
  5
3082
  8
0
  6
CONTINUOUS
 62
     7
 10
-57.435498619477471
 20
109.32247611400661
 30
0.0
 11
-57.435498619477471
 21
117.3954845538258
 31
0.0
  0
LINE
  5
3083
  8
0
  6
CONTINUOUS
 62
     7
 10
-56.685498619477471
 20
109.32247611400661
 30
0.0
 11
-56.685498619477471
 21
117.3954845538258
 31
0.0
  0
LINE
  5
3084
  8
0
  6
CONTINUOUS
 62
     7
 10
-60.685498619477471
 20
109.32247611400661
 30
0.0
 11
-56.185498619477471
 21
109.32247611400661
 31
0.0
  0
LINE
  5
3085
  8
0
  6
CONTINUOUS
 62
     7
 10
-60.685498619477471
 20
106.82247611400661
 30
0.0
 11
-61.435498619477499
 21
105.32247611400661
 31
0.0
  0
LINE
  5
3086
  8
0
  6
CONTINUOUS
 62
     7
 10
-56.185498619477471
 20
106.82247611400661
 30
0.0
 11
-56.185498619477471
 21
109.32247611400661
 31
0.0
  0
LINE
  5
3087
  8
0
  6
CONTINUOUS
 62
     7
 10
-56.185498619477471
 20
106.82247611400661
 30
0.0
 11
-55.435498619477471
 21
105.32247611400661
 31
0.0
  0
LINE
  5
3088
  8
0
  6
CONTINUOUS
 62
     7
 10
-60.685498619477471
 20
109.32247611400661
 30
0.0
 11
-60.685498619477471
 21
106.82247611400661
 31
0.0
  0
LINE
  5
308D
  8
0
  6
CONTINUOUS
 62
     7
 10
-79.535547956892401
 20
63.5304347882889
 30
0.0
 11
-86.739981881273579
 21
59.350063239204353
 31
0.0
  0
LINE
  5
308E
  8
0
  6
CONTINUOUS
 62
     7
 10
-78.605385325956263
 20
63.575116952855339
 30
0.0
 11
-62.224893142881101
 21
55.936768003541061
 31
0.0
  0
LINE
  5
308F
  8
0
  6
DASH_CENTER
 62
     1
 10
79.473117302503439
 20
15.000200000000531
 30
0.0
 11
-92.724893142881129
 21
15.000200000000531
 31
0.0
  0
LINE
  5
3090
  8
0
  6
CONTINUOUS
 62
     7
 10
-51.060988328791552
 20
131.89548455382581
 30
0.0
 11
-51.060988328791552
 21
118.3954845538258
 31
0.0
  0
LINE
  5
3091
  8
0
  6
CONTINUOUS
 62
     7
 10
-60.310919360655063
 20
131.89548455382581
 30
0.0
 11
-60.310919360655063
 21
141.09548455382381
 31
0.0
  0
LINE
  5
3092
  8
0
  6
CONTINUOUS
 62
     7
 10
-59.560919360655063
 20
131.89548455382581
 30
0.0
 11
-59.560919360655063
 21
141.09548455382381
 31
0.0
  0
LINE
  5
3093
  8
0
  6
CONTINUOUS
 62
     7
 10
-56.06091936065507
 20
131.89548455382581
 30
0.0
 11
-59.560919360655063
 21
131.89548455382581
 31
0.0
  0
LINE
  5
3094
  8
0
  6
CONTINUOUS
 62
     7
 10
-51.060988328791552
 20
131.89548455382581
 30
0.0
 11
-56.06091936065507
 21
131.89548455382581
 31
0.0
  0
LINE
  5
3095
  8
0
  6
CONTINUOUS
 62
     7
 10
-64.06045385042755
 20
131.8949845538248
 30
0.0
 11
-64.060953850428561
 21
117.3952845538235
 31
0.0
  0
LINE
  5
3096
  8
0
  6
CONTINUOUS
 62
     7
 10
-65.060919360655063
 20
118.3954845538258
 30
0.0
 11
-65.060919360655063
 21
128.64548455382581
 31
0.0
  0
LINE
  5
3097
  8
0
  6
CONTINUOUS
 62
     7
 10
-66.67288952817573
 20
128.77964863247439
 30
0.0
 11
-67.560919360655063
 21
123.8954845538258
 31
0.0
  0
LINE
  5
3098
  8
0
  6
CONTINUOUS
 62
     7
 10
-65.93498709559654
 20
129.39548455382581
 30
0.0
 11
-65.810919360655063
 21
129.39548455382581
 31
0.0
  0
LINE
  5
3099
  8
0
  6
CONTINUOUS
 62
     7
 10
-66.560919360655063
 20
130.89548455382581
 30
0.0
 11
-67.304586623154975
 21
130.89548455382581
 31
0.0
  0
LINE
  5
309A
  8
0
  6
CONTINUOUS
 62
     7
 10
-68.395495714066712
 20
124.8954845538258
 30
0.0
 11
-68.810919360655063
 21
124.8954845538258
 31
0.0
  0
LINE
  5
309B
  8
0
  6
CONTINUOUS
 62
     7
 10
-67.145495714067621
 20
136.89548455382581
 30
0.0
 11
-66.145495714066712
 21
136.89548455382581
 31
0.0
  0
LINE
  5
309C
  8
0
  6
CONTINUOUS
 62
     7
 10
-66.395495714066712
 20
130.89892860452011
 30
0.0
 11
-66.395495714067621
 21
134.89548455382581
 31
0.0
  0
LINE
  5
309D
  8
0
  6
CONTINUOUS
 62
     7
 10
-50.060953844720572
 20
118.3954845538258
 30
0.0
 11
-51.060988328791552
 21
118.3954845538258
 31
0.0
  0
LINE
  5
309E
  8
0
  6
CONTINUOUS
 62
     7
 10
-64.060953850428561
 20
117.3954845538258
 30
0.0
 11
-64.060919360062073
 21
117.3954845538258
 31
0.0
  0
LINE
  5
309F
  8
0
  6
CONTINUOUS
 62
     7
 10
-61.560308551065582
 20
131.89548455382581
 30
0.0
 11
-60.310919360655063
 21
131.89548455382581
 31
0.0
  0
LINE
  5
30A0
  8
0
  6
CONTINUOUS
 62
     7
 10
-60.310919360655063
 20
141.09548455382381
 30
0.0
 11
-63.810453833040739
 21
141.09548455382381
 31
0.0
  0
LINE
  5
30A1
  8
0
  6
CONTINUOUS
 62
     7
 10
-56.06091936065507
 20
141.09548455382381
 30
0.0
 11
-56.06091936065507
 21
131.89548455382581
 31
0.0
  0
LINE
  5
30A2
  8
0
  6
CONTINUOUS
 62
     7
 10
-59.560919360655063
 20
141.09548455382381
 30
0.0
 11
-56.06091936065507
 21
141.09548455382381
 31
0.0
  0
LINE
  5
30A3
  8
0
  6
CONTINUOUS
 62
     7
 10
-51.810919360655063
 20
131.89548455382581
 30
0.0
 11
-51.810919360655063
 21
141.09548455382381
 31
0.0
  0
LINE
  5
30A4
  8
0
  6
CONTINUOUS
 62
     7
 10
-55.310919360655063
 20
141.09548455382381
 30
0.0
 11
-55.310919360655063
 21
131.89548455382581
 31
0.0
  0
LINE
  5
30A5
  8
0
  6
CONTINUOUS
 62
     7
 10
-51.810919360655063
 20
141.09548455382381
 30
0.0
 11
-55.310919360655063
 21
141.09548455382381
 31
0.0
  0
LINE
  5
30A6
  8
0
  6
CONTINUOUS
 62
     7
 10
-65.060919360655063
 20
131.89548455382581
 30
0.0
 11
-61.560308551065582
 21
131.89548455382581
 31
0.0
  0
LINE
  5
30A7
  8
0
  6
CONTINUOUS
 62
     7
 10
-63.810453833040739
 20
141.09548455382381
 30
0.0
 11
-63.810453833040739
 21
131.89548455382581
 31
0.0
  0
LINE
  5
30A8
  8
0
  6
CONTINUOUS
 62
     7
 10
-68.810919360655063
 20
123.8954845538258
 30
0.0
 11
-67.560919360655063
 21
123.8954845538258
 31
0.0
  0
LINE
  5
30A9
  8
0
  6
CONTINUOUS
 62
     7
 10
-68.810919360655063
 20
124.8954845538258
 30
0.0
 11
-68.810919360655063
 21
123.8954845538258
 31
0.0
  0
LINE
  5
30AA
  8
0
  6
CONTINUOUS
 62
     7
 10
-67.145495714067621
 20
136.89548455382581
 30
0.0
 11
-68.145495714066712
 21
136.39548455382581
 31
0.0
  0
LINE
  5
30AB
  8
0
  6
CONTINUOUS
 62
     7
 10
-66.395495714067621
 20
134.89548455382581
 30
0.0
 11
-65.395495714066712
 21
134.89548455382581
 31
0.0
  0
LINE
  5
30AC
  8
0
  6
CONTINUOUS
 62
     7
 10
-65.395495714066712
 20
135.64548455382581
 30
0.0
 11
-65.395495714066712
 21
134.89548455382581
 31
0.0
  0
LINE
  5
30AD
  8
0
  6
CONTINUOUS
 62
     7
 10
-68.145495714066712
 20
126.2704845538258
 30
0.0
 11
-68.145495714066712
 21
136.39548455382581
 31
0.0
  0
LINE
  5
30AE
  8
0
  6
CONTINUOUS
 62
     7
 10
-68.395495714066712
 20
124.8954845538258
 30
0.0
 11
-67.304586623154975
 21
130.89548455382581
 31
0.0
  0
LINE
  5
30AF
  8
0
  6
CONTINUOUS
 62
     7
 10
-66.145495714066712
 20
136.89548455382581
 30
0.0
 11
-65.395495714066712
 21
135.64548455382581
 31
0.0
  0
LINE
  5
30B0
  8
0
  6
CONTINUOUS
 62
     7
 10
-63.560953843233563
 20
117.3954845538258
 30
0.0
 11
-63.560453850729502
 21
131.894967312088
 31
0.0
  0
LINE
  5
30B1
  8
0
  6
CONTINUOUS
 62
     7
 10
-50.060953844720572
 20
117.3954845538258
 30
0.0
 11
-50.060953844720572
 21
118.3954845538258
 31
0.0
  0
LINE
  5
30B2
  8
0
  6
CONTINUOUS
 62
     7
 10
-66.060953844720572
 20
117.3954845538258
 30
0.0
 11
-65.35966325170277
 21
117.3954845538258
 31
0.0
  0
LINE
  5
30B3
  8
0
  6
CONTINUOUS
 62
     7
 10
-64.060919360062073
 20
117.3954845538258
 30
0.0
 11
-64.060919360062073
 21
118.3954845538258
 31
0.0
  0
LINE
  5
30B4
  8
0
  6
CONTINUOUS
 62
     7
 10
-66.060953844720572
 20
118.3954845538258
 30
0.0
 11
-66.060953844720572
 21
117.3954845538258
 31
0.0
  0
LINE
  5
30B5
  8
0
  6
CONTINUOUS
 62
     7
 10
-65.060919360655063
 20
118.3954845538258
 30
0.0
 11
-66.060953844720572
 21
118.3954845538258
 31
0.0
  0
LINE
  5
30B6
  8
0
  6
CONTINUOUS
 62
     7
 10
-50.060953844720572
 20
117.3954845538258
 30
0.0
 11
-64.060919360062073
 21
117.3954845538258
 31
0.0
  0
LINE
  5
30B7
  8
0
  6
CONTINUOUS
 62
     7
 10
-65.35966325170277
 20
117.3954845538258
 30
0.0
 11
-64.060953850428561
 21
117.3954845538258
 31
0.0
  0
LINE
  5
30B8
  8
0
  6
CONTINUOUS
 62
     7
 10
-59.560919360655063
 20
131.89548455382581
 30
0.0
 11
-60.310919360655063
 21
131.89548455382581
 31
0.0
  0
LINE
  5
30B9
  8
0
  6
DASH_CENTER
 62
     1
 10
31.875106857130589
 20
36.500200000000561
 30
0.0
 11
41.515106857126391
 21
36.500200000000561
 31
0.0
  0
LINE
  5
30BA
  8
0
  6
CONTINUOUS
 62
     7
 10
39.015106857126398
 20
39.650200000000197
 30
0.0
 11
38.665106857125977
 21
40.000200000000561
 31
0.0
  0
LINE
  5
30BB
  8
0
  6
CONTINUOUS
 62
     7
 10
35.015106857126398
 20
40.000200000000561
 30
0.0
 11
38.665106857125977
 21
40.000200000000561
 31
0.0
  0
LINE
  5
30BC
  8
0
  6
CONTINUOUS
 62
     7
 10
38.665106857125977
 20
33.000200000000561
 30
0.0
 11
39.015106857126398
 21
33.350200000000022
 31
0.0
  0
LINE
  5
30BD
  8
0
  6
CONTINUOUS
 62
     7
 10
39.015106857126398
 20
39.650200000000197
 30
0.0
 11
39.015106857126398
 21
33.350200000000022
 31
0.0
  0
LINE
  5
30BE
  8
0
  6
CONTINUOUS
 62
     7
 10
38.665106857125977
 20
33.000200000000561
 30
0.0
 11
38.665106857125977
 21
40.000200000000561
 31
0.0
  0
LINE
  5
30BF
  8
0
  6
CONTINUOUS
 62
     7
 10
38.665106857125977
 20
33.000200000000561
 30
0.0
 11
35.015106857126398
 21
33.000200000000561
 31
0.0
  0
LINE
  5
30C0
  8
0
  6
CONTINUOUS
 62
     7
 10
39.475106857127287
 20
40.750199999999637
 30
0.0
 11
34.37510685712698
 21
40.750199999999637
 31
0.0
  0
LINE
  5
30C1
  8
0
  6
CONTINUOUS
 62
     7
 10
34.37510685712698
 20
40.750199999999637
 30
0.0
 11
34.37510685712698
 21
32.250199999999651
 31
0.0
  0
LINE
  5
30C2
  8
0
  6
CONTINUOUS
 62
     7
 10
34.37510685712698
 20
32.250199999999651
 30
0.0
 11
39.475106857127287
 21
32.250199999999651
 31
0.0
  0
LINE
  5
30C3
  8
0
  6
CONTINUOUS
 62
     7
 10
34.37510685712698
 20
40.500200000000547
 30
0.0
 11
35.015106857126398
 21
40.500200000000547
 31
0.0
  0
LINE
  5
30C4
  8
0
  6
CONTINUOUS
 62
     7
 10
35.015106857126398
 20
40.500200000000547
 30
0.0
 11
35.015106857126398
 21
32.500200000000561
 31
0.0
  0
LINE
  5
30C5
  8
0
  6
CONTINUOUS
 62
     7
 10
35.015106857126398
 20
32.500200000000561
 30
0.0
 11
34.37510685712698
 21
32.500200000000561
 31
0.0
  0
ARC
  5
30C6
  8
0
  6
CONTINUOUS
 62
     7
 10
-26.725723521719029
 20
68.650199999997412
 30
0.0
 40
12.639620247459421
 50
274.53777250790699
 51
4.5377725079065288
  0
ARC
  5
30C7
  8
0
  6
CONTINUOUS
 62
     7
 10
-26.724893142873611
 20
68.635812404043691
 30
0.0
 40
5.8713976947448758
 50
279.80626208769348
 51
351.0556238509829
  0
ARC
  5
30C8
  8
0
  6
CONTINUOUS
 62
     7
 10
-23.874558840032151
 20
132.44441287143329
 30
0.0
 40
1.5500835258508181
 50
274.2520972159885
 51
339.24682885547992
  0
ARC
  5
30C9
  8
0
  6
CONTINUOUS
 62
     7
 10
-23.874558840032151
 20
132.44441287143329
 30
0.0
 40
1.550083525851409
 50
268.13330619649139
 51
274.2520972159885
  0
ARC
  5
30CA
  8
0
  6
CONTINUOUS
 62
     2
 10
-19.225100737584061
 20
83.831813762010015
 30
0.0
 40
3.3995848105761119
 50
59.999999999991971
 51
120.0000000000213
  0
ARC
  5
30CB
  8
0
  6
CONTINUOUS
 62
     2
 10
-15.82551592700805
 20
89.720067378567549
 30
0.0
 40
3.3995848105763362
 50
240.00000000001219
 51
300.0000000000145
  0
ARC
  5
30CC
  8
0
  6
CONTINUOUS
 62
     2
 10
-19.225100737584061
 20
82.318185506571453
 30
0.0
 40
3.3995848105768021
 50
59.999999999998643
 51
120.00000000001459
  0
ARC
  5
30CD
  8
0
  6
CONTINUOUS
 62
     2
 10
-15.82551592700805
 20
88.206439123130707
 30
0.0
 40
3.3995848105771231
 50
240.0000000000199
 51
300.00000000000682
  0
ARC
  5
30CE
  8
0
  6
CONTINUOUS
 62
     7
 10
-80.104893142881181
 20
-20.4997999999995
 30
0.0
 40
6.999999999999444
 50
163.74297210339481
 51
180.0
  0
ARC
  5
30CF
  8
0
  6
CONTINUOUS
 62
     7
 10
-85.864986283010566
 20
-18.820119370527891
 30
0.0
 40
1.000000000000373
 50
95.000000000076412
 51
163.74297210341521
  0
ARC
  5
30D0
  8
0
  6
CONTINUOUS
 62
     7
 10
-80.104893142881181
 20
-20.4997999999995
 30
0.0
 40
7.0
 50
180.0
 51
196.25702789660511
  0
ARC
  5
30D1
  8
0
  6
CONTINUOUS
 62
     7
 10
-85.864986283010566
 20
-22.179480629470891
 30
0.0
 40
1.000000000000554
 50
196.25702789659661
 51
264.99999999992349
  0
ARC
  5
30D2
  8
0
  6
CONTINUOUS
 62
     7
 10
-80.104893142881181
 20
-6.49979999999944
 30
0.0
 40
6.9999999999994431
 50
163.74297210339481
 51
180.0
  0
ARC
  5
30D3
  8
0
  6
CONTINUOUS
 62
     7
 10
-85.864986283010566
 20
-4.8201193705279604
 30
0.0
 40
1.000000000000411
 50
95.000000000076156
 51
163.74297210340799
  0
ARC
  5
30D4
  8
0
  6
CONTINUOUS
 62
     7
 10
-80.104893142881181
 20
-6.49979999999944
 30
0.0
 40
7.0
 50
180.0
 51
196.25702789660599
  0
ARC
  5
30D5
  8
0
  6
CONTINUOUS
 62
     7
 10
-85.864986283010566
 20
-8.1794806294709161
 30
0.0
 40
1.0000000000005611
 50
196.25702789659829
 51
264.99999999992349
  0
ARC
  5
30D6
  8
0
  6
CONTINUOUS
 62
     7
 10
-80.104893142881181
 20
50.500200000000561
 30
0.0
 40
6.999999999999444
 50
163.74297210339481
 51
180.0
  0
ARC
  5
30D7
  8
0
  6
CONTINUOUS
 62
     7
 10
-85.864986283010566
 20
52.179880629472102
 30
0.0
 40
1.0000000000003471
 50
95.000000000076483
 51
163.7429721034114
  0
ARC
  5
30D8
  8
0
  6
CONTINUOUS
 62
     7
 10
-80.104893142881181
 20
50.500200000000561
 30
0.0
 40
7.0
 50
180.0
 51
196.25702789660599
  0
ARC
  5
30D9
  8
0
  6
CONTINUOUS
 62
     7
 10
-85.864986283010566
 20
48.820519370529098
 30
0.0
 40
1.000000000000564
 50
196.25702789659869
 51
264.99999999992349
  0
ARC
  5
30DA
  8
0
  6
CONTINUOUS
 62
     7
 10
-40.224893142855422
 20
54.040200000002393
 30
0.0
 40
5.9999999999994067
 50
74.557284172423067
 51
90.0
  0
ARC
  5
30DB
  8
0
  6
CONTINUOUS
 62
     7
 10
-38.840264144194073
 20
59.052465210071418
 30
0.0
 40
0.7999999999985255
 50
4.9999999999562093
 51
74.557284172512936
  0
ARC
  5
30DC
  8
0
  6
CONTINUOUS
 62
     7
 10
-40.224893142855422
 20
54.040200000002393
 30
0.0
 40
6.0
 50
90.0
 51
105.44271582757681
  0
ARC
  5
30DD
  8
0
  6
CONTINUOUS
 62
     7
 10
-41.609522141515882
 20
59.052465210071418
 30
0.0
 40
0.7999999999994411
 50
105.4427158275503
 51
175.00000000005531
  0
ARC
  5
30DE
  8
0
  6
CONTINUOUS
 62
     7
 10
-62.396931300722713
 20
56.127328505940781
 30
0.0
 40
0.0999999999990056
 50
245.00000000113161
 51
9.4389893087453416
  0
ARC
  5
30DF
  8
0
  6
CONTINUOUS
 62
     7
 10
-63.863195606126169
 20
59.459165785938453
 30
0.0
 40
0.9999999999985336
 50
9.4389893088012702
 51
65.000000000071452
  0
ARC
  5
30E0
  8
0
  6
CONTINUOUS
 62
     7
 10
-75.415347324885161
 20
64.846022600557475
 30
0.0
 40
0.9999999999992507
 50
65.000000000001833
 51
120.56101069127649
  0
ARC
  5
30E1
  8
0
  6
CONTINUOUS
 62
     7
 10
-78.910179286642091
 20
63.827582502776963
 30
0.0
 40
0.1000000000016797
 50
120.5610106906672
 51
244.999999999278
  0
ARC
  5
30E2
  8
0
  6
CONTINUOUS
 62
     7
 10
-70.170537119002688
 20
64.28960287485846
 30
0.0
 40
0.800000000000382
 50
80.442723424066941
 51
150.0000075965298
  0
ARC
  5
30E3
  8
0
  6
CONTINUOUS
 62
     7
 10
-71.033911205960862
 20
59.161778269240337
 30
0.0
 40
6.0000000000012799
 50
49.557291768867742
 51
80.442723424029793
  0
ARC
  5
30E4
  8
0
  6
CONTINUOUS
 62
     7
 10
-67.660736876550686
 20
63.119264206476373
 30
0.0
 40
0.8000000000005583
 50
340.00000759646338
 51
49.55729176880979
  0
ARC
  5
30E5
  8
0
  6
CONTINUOUS
 62
     2
 10
-57.160498619477472
 20
95.893297605397876
 30
0.0
 40
2.5500000000005341
 50
240.00000000000691
 51
299.99999999999312
  0
ARC
  5
30E6
  8
0
  6
CONTINUOUS
 62
     2
 10
-59.71049861947747
 20
91.476568046096787
 30
0.0
 40
2.549999999999879
 50
59.999999999998501
 51
120.00000000000151
  0
ARC
  5
30E7
  8
0
  6
CONTINUOUS
 62
     2
 10
-57.160498619477472
 20
97.170625780860703
 30
0.0
 40
2.549999999999204
 50
239.99999999998971
 51
300.00000000001052
  0
ARC
  5
30E8
  8
0
  6
CONTINUOUS
 62
     2
 10
-59.71049861947747
 20
92.753896221559614
 30
0.0
 40
2.5500000000012082
 50
60.00000000001576
 51
119.9999999999843
  0
ARC
  5
30E9
  8
0
  6
CONTINUOUS
 62
     7
 10
-66.510426645956542
 20
132.44474548177661
 30
0.0
 40
1.55008352585033
 50
268.1333061964898
 51
339.24682885551721
  0
ARC
  5
30EE
  8
0
  6
CONTINUOUS
 62
     7
 10
-23.299119289673069
 20
128.64515194348141
 30
0.0
 40
0.75
 50
90.0
 51
169.69515353122361
  0
ARC
  5
30EF
  8
0
  6
CONTINUOUS
 62
     7
 10
-23.175051554730668
 20
128.64515194348141
 30
0.0
 40
0.75
 50
0.0
 51
90.0
  0
ARC
  5
30F0
  8
0
  6
CONTINUOUS
 62
     7
 10
39.775106857126559
 20
-20.299799999997791
 30
0.0
 40
0.2999999999982919
 50
90.0
 51
180.0
  0
ARC
  5
30F1
  8
0
  6
CONTINUOUS
 62
     7
 10
39.775106857126559
 20
50.30019999999989
 30
0.0
 40
0.3000000000001819
 50
180.0
 51
270.0
  0
ARC
  5
30F2
  8
0
  6
CONTINUOUS
 62
     7
 10
-86.724893142881086
 20
-22.227576042749892
 30
0.0
 40
2.0000000000000431
 50
0.0
 51
12.994616791899601
  0
ARC
  5
30F3
  8
0
  6
CONTINUOUS
 62
     7
 10
-82.724893142881058
 20
-22.9997999999995
 30
0.0
 40
2.0
 50
180.0
 51
270.0
  0
ARC
  5
30F4
  8
0
  6
CONTINUOUS
 62
     7
 10
-72.724893142881101
 20
-6.7914796793682681
 30
0.0
 40
15.00000000000003
 50
180.0
 51
192.9946167919164
  0
ARC
  5
30F5
  8
0
  6
CONTINUOUS
 62
     7
 10
-37.424893142873607
 20
57.900199999997533
 30
0.0
 40
0.1999999999998252
 50
270.00000000005701
 51
0.0
  0
ARC
  5
30F6
  8
0
  6
CONTINUOUS
 62
     7
 10
-43.024893142873829
 20
57.900199999997533
 30
0.0
 40
0.1999999999999815
 50
180.0
 51
270.0
  0
ARC
  5
30F7
  8
0
  6
CONTINUOUS
 62
     7
 10
-58.724893142873633
 20
60.246431773404979
 30
0.0
 40
1.000000000000685
 50
131.1859251657097
 51
180.0
  0
ARC
  5
30F8
  8
0
  6
CONTINUOUS
 62
     7
 10
-51.349158026768819
 20
66.700199999997693
 30
0.0
 40
1.0
 50
90.0
 51
131.18592516567051
  0
ARC
  5
30F9
  8
0
  6
CONTINUOUS
 62
     7
 10
-28.724893142873611
 20
66.700199999997693
 30
0.0
 40
1.0
 50
359.99999999999352
 51
90.0
  0
ARC
  5
30FA
  8
0
  6
DASH_CENTER
 62
     1
 10
-25.39963027702937
 20
67.450199999997608
 30
0.0
 40
8.0000000000000089
 50
270.0
 51
0.0
  0
ARC
  5
30FB
  8
0
  6
CONTINUOUS
 62
     7
 10
-66.437383806018573
 20
87.848832844746994
 30
0.0
 40
10.55188519481851
 50
334.89085647295371
 51
359.99773064654067
  0
ARC
  5
30FC
  8
0
  6
CONTINUOUS
 62
     7
 10
-66.433636829323802
 20
87.849272366277688
 30
0.0
 40
5.448138225481542
 50
334.89879842107689
 51
0.00434070709326
  0
ARC
  5
30FE
  8
0
  6
CONTINUOUS
 62
     7
 10
-79.028003587696574
 20
62.668809165817542
 30
0.0
 40
1.0000000000008991
 50
65.000000000045887
 51
120.5003993975847
  0
ARC
  5
30FF
  8
0
  6
CONTINUOUS
 62
     7
 10
-85.724893142881115
 20
57.626811994264351
 30
0.0
 40
1.999999999999625
 50
120.5003993976466
 51
180.0
  0
ARC
  5
3100
  8
0
  6
CONTINUOUS
 62
     7
 10
-65.810919360655063
 20
128.64548455382581
 30
0.0
 40
0.75
 50
0.0
 51
90.0
  0
ARC
  5
3101
  8
0
  6
CONTINUOUS
 62
     7
 10
-65.93498709559654
 20
128.64548455382581
 30
0.0
 40
0.75
 50
90.0
 51
169.69515353139769
  0
ARC
  5
3102
  8
0
  6
DASH_CENTER
 62
     1
 10
-61.435498619477471
 20
86.844243549955024
 30
0.0
 40
3.0
 50
334.9999974070281
 51
0.0
  0
LINE
  5
3213
  8
0
  6
DASH_CENTER
 62
     1
 10
219.3553197156248
 20
31.18020000000087
 30
0.0
 11
219.3553197156248
 21
36.500200000000603
 31
0.0
  0
LINE
  5
3214
  8
0
  6
DASH_CENTER
 62
     1
 10
214.03531971561961
 20
36.500200000001492
 30
0.0
 11
219.3553197156248
 21
36.500200000000603
 31
0.0
  0
LINE
  5
3215
  8
0
  6
CONTINUOUS
 62
     7
 10
220.22134511940891
 20
35.000200000000589
 30
0.0
 11
221.08737052319481
 21
36.500200000001492
 31
0.0
  0
LINE
  5
3216
  8
0
  6
CONTINUOUS
 62
     7
 10
221.08737052319481
 20
36.500200000001492
 30
0.0
 11
220.22134511940891
 21
38.000200000000603
 31
0.0
  0
LINE
  5
3217
  8
0
  6
CONTINUOUS
 62
     7
 10
220.22134511940891
 20
38.000200000000603
 30
0.0
 11
218.4892943118362
 21
38.000200000001492
 31
0.0
  0
LINE
  5
3218
  8
0
  6
CONTINUOUS
 62
     7
 10
218.4892943118362
 20
38.000200000001492
 30
0.0
 11
217.62326890805571
 21
36.500200000000603
 31
0.0
  0
LINE
  5
3219
  8
0
  6
CONTINUOUS
 62
     7
 10
217.62326890805571
 20
36.500200000000603
 30
0.0
 11
218.4892943118362
 21
35.000200000001499
 31
0.0
  0
LINE
  5
321A
  8
0
  6
CONTINUOUS
 62
     7
 10
218.4892943118362
 20
35.000200000001499
 30
0.0
 11
220.22134511940891
 21
35.000200000000589
 31
0.0
  0
LINE
  5
321B
  8
0
  6
DASH_CENTER
 62
     1
 10
219.3553197156248
 20
36.500200000000603
 30
0.0
 11
219.3553197156248
 21
41.820200000001243
 31
0.0
  0
LINE
  5
321C
  8
0
  6
DASH_CENTER
 62
     1
 10
219.3553197156248
 20
36.500200000000603
 30
0.0
 11
224.67531971562181
 21
36.500200000001492
 31
0.0
  0
LINE
  5
321D
  8
0
  6
CONTINUOUS
 62
     7
 10
223.3553197156248
 20
40.750200000000653
 30
0.0
 11
219.3553197156248
 21
40.750200000000653
 31
0.0
  0
LINE
  5
321E
  8
0
  6
CONTINUOUS
 62
     7
 10
223.3553197156248
 20
32.250200000000589
 30
0.0
 11
219.3553197156248
 21
32.250200000000589
 31
0.0
  0
LINE
  5
321F
  8
0
  6
DASH_CENTER
 62
     1
 10
153.67531971562181
 20
-6.4997999999985003
 30
0.0
 11
148.3553197156248
 21
-6.4997999999994081
 31
0.0
  0
LINE
  5
3220
  8
0
  6
DASH_CENTER
 62
     1
 10
148.3553197156248
 20
-11.819799999999161
 30
0.0
 11
148.3553197156248
 21
-6.4997999999994081
 31
0.0
  0
LINE
  5
3221
  8
0
  6
CONTINUOUS
 62
     7
 10
149.8553197156248
 20
-5.6337745962144181
 30
0.0
 11
148.3553197156248
 21
-4.7677491924303403
 31
0.0
  0
LINE
  5
3222
  8
0
  6
CONTINUOUS
 62
     7
 10
148.3553197156248
 20
-4.7677491924303403
 30
0.0
 11
146.8553197156248
 21
-5.6337745962144181
 31
0.0
  0
LINE
  5
3223
  8
0
  6
CONTINUOUS
 62
     7
 10
146.8553197156248
 20
-5.6337745962144181
 30
0.0
 11
146.8553197156248
 21
-7.3658254037834894
 31
0.0
  0
LINE
  5
3224
  8
0
  6
CONTINUOUS
 62
     7
 10
146.8553197156248
 20
-7.3658254037834894
 30
0.0
 11
148.3553197156248
 21
-8.2318508075684811
 31
0.0
  0
LINE
  5
3225
  8
0
  6
CONTINUOUS
 62
     7
 10
148.3553197156248
 20
-8.2318508075684811
 30
0.0
 11
149.8553197156248
 21
-7.3658254037834894
 31
0.0
  0
LINE
  5
3226
  8
0
  6
CONTINUOUS
 62
     7
 10
149.8553197156248
 20
-7.3658254037834894
 30
0.0
 11
149.8553197156248
 21
-5.6337745962144181
 31
0.0
  0
LINE
  5
3227
  8
0
  6
DASH_CENTER
 62
     1
 10
148.3553197156248
 20
-6.4997999999994081
 30
0.0
 11
143.03531971561961
 21
-6.4997999999994081
 31
0.0
  0
LINE
  5
3228
  8
0
  6
DASH_CENTER
 62
     1
 10
148.3553197156248
 20
-6.4997999999994081
 30
0.0
 11
148.3553197156248
 21
-1.17979999999879
 31
0.0
  0
LINE
  5
3229
  8
0
  6
CONTINUOUS
 62
     7
 10
144.3553197156248
 20
-10.74979999999946
 30
0.0
 11
148.3553197156248
 21
-10.74979999999946
 31
0.0
  0
LINE
  5
322A
  8
0
  6
CONTINUOUS
 62
     7
 10
144.3553197156248
 20
-2.2497999999994089
 30
0.0
 11
148.3553197156248
 21
-2.2497999999994089
 31
0.0
  0
LINE
  5
322B
  8
0
  6
DASH_CENTER
 62
     1
 10
200.03531971562771
 20
-20.499800000000359
 30
0.0
 11
205.35531971562469
 21
-20.499799999999482
 31
0.0
  0
LINE
  5
322C
  8
0
  6
DASH_CENTER
 62
     1
 10
205.35531971562469
 20
-15.179799999999659
 30
0.0
 11
205.35531971562469
 21
-20.499799999999482
 31
0.0
  0
LINE
  5
322D
  8
0
  6
CONTINUOUS
 62
     7
 10
203.85531971562469
 20
-21.36582540378437
 30
0.0
 11
205.35531971562469
 21
-22.23185080756846
 31
0.0
  0
LINE
  5
322E
  8
0
  6
CONTINUOUS
 62
     7
 10
205.35531971562469
 20
-22.23185080756846
 30
0.0
 11
206.85531971562469
 21
-21.36582540378437
 31
0.0
  0
LINE
  5
322F
  8
0
  6
CONTINUOUS
 62
     7
 10
206.85531971562469
 20
-21.36582540378437
 30
0.0
 11
206.85531971562469
 21
-19.63377459621536
 31
0.0
  0
LINE
  5
3230
  8
0
  6
CONTINUOUS
 62
     7
 10
206.85531971562469
 20
-19.63377459621536
 30
0.0
 11
205.35531971562469
 21
-18.767749192430362
 31
0.0
  0
LINE
  5
3231
  8
0
  6
CONTINUOUS
 62
     7
 10
205.35531971562469
 20
-18.767749192430362
 30
0.0
 11
203.85531971562469
 21
-19.63377459621536
 31
0.0
  0
LINE
  5
3232
  8
0
  6
CONTINUOUS
 62
     7
 10
203.85531971562469
 20
-19.63377459621536
 30
0.0
 11
203.85531971562469
 21
-21.36582540378437
 31
0.0
  0
LINE
  5
3233
  8
0
  6
DASH_CENTER
 62
     1
 10
205.35531971562469
 20
-20.499799999999482
 30
0.0
 11
210.67531971562991
 21
-20.499800000000359
 31
0.0
  0
LINE
  5
3234
  8
0
  6
DASH_CENTER
 62
     1
 10
205.35531971562469
 20
-20.499799999999482
 30
0.0
 11
205.35531971562469
 21
-25.819800000000061
 31
0.0
  0
LINE
  5
3235
  8
0
  6
CONTINUOUS
 62
     7
 10
209.60531971562469
 20
-24.499799999999471
 30
0.0
 11
209.60531971562469
 21
-20.499800000000359
 31
0.0
  0
LINE
  5
3236
  8
0
  6
CONTINUOUS
 62
     7
 10
201.10531971562469
 20
-24.499799999999471
 30
0.0
 11
201.10531971562469
 21
-20.499799999999482
 31
0.0
  0
LINE
  5
3237
  8
0
  6
DASH_CENTER
 62
     1
 10
162.35531971562469
 20
50.500200000000582
 30
0.0
 11
162.35531971562469
 21
55.820200000000298
 31
0.0
  0
LINE
  5
3238
  8
0
  6
DASH_CENTER
 62
     1
 10
162.35531971562469
 20
50.500200000000582
 30
0.0
 11
157.03531971562759
 21
50.500200000000582
 31
0.0
  0
LINE
  5
3239
  8
0
  6
CONTINUOUS
 62
     7
 10
163.8553197156246
 20
49.634174596215601
 30
0.0
 11
163.8553197156246
 21
51.366225403784682
 31
0.0
  0
LINE
  5
323A
  8
0
  6
CONTINUOUS
 62
     7
 10
162.35531971562469
 20
48.768149192431537
 30
0.0
 11
163.8553197156246
 21
49.634174596215601
 31
0.0
  0
LINE
  5
323B
  8
0
  6
CONTINUOUS
 62
     7
 10
160.85531971562469
 20
49.634174596215601
 30
0.0
 11
162.35531971562469
 21
48.768149192431537
 31
0.0
  0
LINE
  5
323C
  8
0
  6
CONTINUOUS
 62
     7
 10
160.85531971562469
 20
51.366225403784682
 30
0.0
 11
160.85531971562469
 21
49.634174596215601
 31
0.0
  0
LINE
  5
323D
  8
0
  6
CONTINUOUS
 62
     7
 10
162.35531971562469
 20
52.232250807569642
 30
0.0
 11
160.85531971562469
 21
51.366225403784682
 31
0.0
  0
LINE
  5
323E
  8
0
  6
CONTINUOUS
 62
     7
 10
163.8553197156246
 20
51.366225403784682
 30
0.0
 11
162.35531971562469
 21
52.232250807569642
 31
0.0
  0
LINE
  5
323F
  8
0
  6
DASH_CENTER
 62
     1
 10
162.35531971562469
 20
45.180199999999957
 30
0.0
 11
162.35531971562469
 21
50.500200000000582
 31
0.0
  0
LINE
  5
3240
  8
0
  6
DASH_CENTER
 62
     1
 10
167.67531971562801
 20
50.500200000000582
 30
0.0
 11
162.35531971562469
 21
50.500200000000582
 31
0.0
  0
LINE
  5
3241
  8
0
  6
CONTINUOUS
 62
     7
 10
158.10531971562469
 20
54.500200000000582
 30
0.0
 11
158.10531971562469
 21
50.500200000000582
 31
0.0
  0
LINE
  5
3242
  8
0
  6
CONTINUOUS
 62
     7
 10
166.60531971562469
 20
54.500200000000582
 30
0.0
 11
166.60531971562469
 21
50.500200000000582
 31
0.0
  0
LINE
  5
3245
  8
0
  6
CONTINUOUS
 62
     7
 10
201.8553197156248
 20
55.000199999998763
 30
0.0
 11
165.8553197156248
 21
55.000199999998763
 31
0.0
  0
LINE
  5
3246
  8
0
  6
CONTINUOUS
 62
     7
 10
201.8553197156248
 20
60.494942298045501
 30
0.0
 11
201.8553197156248
 21
55.70020000000131
 31
0.0
  0
LINE
  5
3248
  8
0
  6
CONTINUOUS
 62
     7
 10
180.2553197156208
 20
59.600199999999127
 30
0.0
 11
180.2553197156208
 21
55.900200000001142
 31
0.0
  0
LINE
  5
3249
  8
0
  6
CONTINUOUS
 62
     7
 10
187.45531971561971
 20
59.600199999999127
 30
0.0
 11
187.4553197156205
 21
55.900200000001142
 31
0.0
  0
LINE
  5
324A
  8
0
  6
CONTINUOUS
 62
     7
 10
199.1150685876587
 20
67.094119298578519
 30
0.0
 11
201.77446474563979
 21
60.88886159662453
 31
0.0
  0
LINE
  5
324B
  8
0
  6
CONTINUOUS
 62
     7
 10
169.51471587360129
 20
67.700199999999484
 30
0.0
 11
198.8553197156248
 21
67.700199999999484
 31
0.0
  0
LINE
  5
324C
  8
0
  6
CONTINUOUS
 62
     7
 10
165.9361746856035
 20
60.88886159662453
 30
0.0
 11
168.59557084358451
 21
67.094119298578519
 31
0.0
  0
LINE
  5
324D
  8
0
  6
CONTINUOUS
 62
     7
 10
165.8553197156248
 20
55.70020000000131
 30
0.0
 11
165.8553197156248
 21
60.494942298045501
 31
0.0
  0
LINE
  5
324E
  8
0
  6
CONTINUOUS
 62
     7
 10
176.28924172212879
 20
55.70020000000131
 30
0.0
 11
183.8553197156248
 21
55.70020000000131
 31
0.0
  0
LINE
  5
324F
  8
0
  6
CONTINUOUS
 62
     7
 10
165.8553197156248
 20
55.70020000000131
 30
0.0
 11
176.28924172212879
 21
55.70020000000131
 31
0.0
  0
LINE
  5
3250
  8
0
  6
DASH_CENTER
 62
     1
 10
195.5177718457667
 20
59.700199999999512
 30
0.0
 11
172.74641903394379
 21
59.700199999999512
 31
0.0
  0
LINE
  5
3251
  8
0
  6
CONTINUOUS
 62
     7
 10
201.8553197156248
 20
55.70020000000131
 30
0.0
 11
183.8553197156248
 21
55.70020000000131
 31
0.0
  0
LINE
  5
3253
  8
0
  6
CONTINUOUS
 62
     7
 10
219.3553197156248
 20
-2.2497999999994089
 30
0.0
 11
223.3553197156248
 21
-2.2497999999994089
 31
0.0
  0
LINE
  5
3254
  8
0
  6
CONTINUOUS
 62
     7
 10
219.3553197156248
 20
-10.74979999999946
 30
0.0
 11
223.3553197156248
 21
-10.74979999999946
 31
0.0
  0
LINE
  5
3255
  8
0
  6
DASH_CENTER
 62
     1
 10
210.12856736455569
 20
-11.27304764893486
 30
0.0
 11
221.22168237347481
 21
-22.366162657854861
 31
0.0
  0
LINE
  5
3256
  8
0
  6
CONTINUOUS
 62
     7
 10
166.6053197156248
 20
-20.499799999999482
 30
0.0
 11
166.6053197156248
 21
-24.499799999999471
 31
0.0
  0
LINE
  5
3257
  8
0
  6
CONTINUOUS
 62
     7
 10
158.1053197156248
 20
-20.499800000000359
 30
0.0
 11
158.1053197156248
 21
-24.499799999999471
 31
0.0
  0
LINE
  5
3258
  8
0
  6
DASH_CENTER
 62
     1
 10
157.5820720666857
 20
-11.27304764893486
 30
0.0
 11
146.48895705776661
 21
-22.366162657854861
 31
0.0
  0
LINE
  5
3259
  8
0
  6
CONTINUOUS
 62
     7
 10
148.3553197156248
 20
32.250200000000589
 30
0.0
 11
144.3553197156248
 21
32.250200000000589
 31
0.0
  0
LINE
  5
325A
  8
0
  6
CONTINUOUS
 62
     7
 10
148.3553197156248
 20
40.750200000000582
 30
0.0
 11
144.3553197156248
 21
40.750200000000582
 31
0.0
  0
LINE
  5
325B
  8
0
  6
DASH_CENTER
 62
     1
 10
157.58207206668641
 20
41.273447648935132
 30
0.0
 11
146.48895705776661
 21
52.366562657853301
 31
0.0
  0
LINE
  5
325C
  8
0
  6
CONTINUOUS
 62
     7
 10
201.1053197156248
 20
50.500200000000582
 30
0.0
 11
201.1053197156248
 21
54.500200000000582
 31
0.0
  0
LINE
  5
325D
  8
0
  6
CONTINUOUS
 62
     7
 10
209.6053197156248
 20
50.500200000000582
 30
0.0
 11
209.6053197156248
 21
54.500200000000582
 31
0.0
  0
LINE
  5
325E
  8
0
  6
DASH_CENTER
 62
     1
 10
210.12856736455569
 20
41.273447648935132
 30
0.0
 11
221.22168237347569
 21
52.366562657853301
 31
0.0
  0
LINE
  5
325F
  8
0
  6
CONTINUOUS
 62
     7
 10
217.8553197156248
 20
-24.999799999999471
 30
0.0
 11
149.8553197156248
 21
-24.999799999999471
 31
0.0
  0
LINE
  5
3260
  8
0
  6
CONTINUOUS
 62
     7
 10
217.8553197156248
 20
55.000200000000582
 30
0.0
 11
149.8553197156248
 21
55.000200000000582
 31
0.0
  0
LINE
  5
3261
  8
0
  6
CONTINUOUS
 62
     7
 10
143.8553197156248
 20
49.000200000000582
 30
0.0
 11
143.8553197156248
 21
-18.999799999999471
 31
0.0
  0
LINE
  5
3262
  8
0
  6
CONTINUOUS
 62
     7
 10
223.8553197156248
 20
49.000200000000582
 30
0.0
 11
223.8553197156248
 21
-18.999799999999471
 31
0.0
  0
LINE
  5
3263
  8
0
  6
DASH_CENTER
 62
     1
 10
183.8553197156248
 20
70.700199999999484
 30
0.0
 11
183.8553197156248
 21
-30.499800000000359
 31
0.0
  0
LINE
  5
3264
  8
0
  6
DASH_CENTER
 62
     1
 10
205.3553197156248
 20
50.500200000000582
 30
0.0
 11
200.03531971562151
 21
50.500200000000582
 31
0.0
  0
LINE
  5
3265
  8
0
  6
DASH_CENTER
 62
     1
 10
205.3553197156248
 20
50.500200000000582
 30
0.0
 11
205.3553197156248
 21
45.180199999999957
 31
0.0
  0
LINE
  5
3266
  8
0
  6
CONTINUOUS
 62
     7
 10
205.3553197156248
 20
52.232250807569642
 30
0.0
 11
203.8553197156248
 21
51.366225403784682
 31
0.0
  0
LINE
  5
3267
  8
0
  6
CONTINUOUS
 62
     7
 10
206.8553197156248
 20
51.366225403784682
 30
0.0
 11
205.3553197156248
 21
52.232250807569642
 31
0.0
  0
LINE
  5
3268
  8
0
  6
CONTINUOUS
 62
     7
 10
206.8553197156248
 20
49.634174596215601
 30
0.0
 11
206.8553197156248
 21
51.366225403784682
 31
0.0
  0
LINE
  5
3269
  8
0
  6
CONTINUOUS
 62
     7
 10
205.3553197156248
 20
48.768149192431537
 30
0.0
 11
206.8553197156248
 21
49.634174596215601
 31
0.0
  0
LINE
  5
326A
  8
0
  6
CONTINUOUS
 62
     7
 10
203.8553197156248
 20
49.634174596215601
 30
0.0
 11
205.3553197156248
 21
48.768149192431537
 31
0.0
  0
LINE
  5
326B
  8
0
  6
CONTINUOUS
 62
     7
 10
203.8553197156248
 20
51.366225403784682
 30
0.0
 11
203.8553197156248
 21
49.634174596215601
 31
0.0
  0
LINE
  5
326C
  8
0
  6
DASH_CENTER
 62
     1
 10
210.67531971562181
 20
50.500200000000582
 30
0.0
 11
205.3553197156248
 21
50.500200000000582
 31
0.0
  0
LINE
  5
326D
  8
0
  6
DASH_CENTER
 62
     1
 10
205.3553197156248
 20
55.820200000000298
 30
0.0
 11
205.3553197156248
 21
50.500200000000582
 31
0.0
  0
LINE
  5
326E
  8
0
  6
DASH_CENTER
 62
     1
 10
162.3553197156248
 20
-25.819800000000061
 30
0.0
 11
162.3553197156248
 21
-20.499799999999482
 31
0.0
  0
LINE
  5
326F
  8
0
  6
DASH_CENTER
 62
     1
 10
157.03531971561961
 20
-20.499800000000359
 30
0.0
 11
162.3553197156248
 21
-20.499799999999482
 31
0.0
  0
LINE
  5
3270
  8
0
  6
CONTINUOUS
 62
     7
 10
163.8553197156248
 20
-21.36582540378437
 30
0.0
 11
163.8553197156248
 21
-19.63377459621536
 31
0.0
  0
LINE
  5
3271
  8
0
  6
CONTINUOUS
 62
     7
 10
163.8553197156248
 20
-19.63377459621536
 30
0.0
 11
162.3553197156248
 21
-18.767749192430362
 31
0.0
  0
LINE
  5
3272
  8
0
  6
CONTINUOUS
 62
     7
 10
162.3553197156248
 20
-18.767749192430362
 30
0.0
 11
160.8553197156248
 21
-19.63377459621536
 31
0.0
  0
LINE
  5
3273
  8
0
  6
CONTINUOUS
 62
     7
 10
160.8553197156248
 20
-19.63377459621536
 30
0.0
 11
160.8553197156248
 21
-21.36582540378437
 31
0.0
  0
LINE
  5
3274
  8
0
  6
CONTINUOUS
 62
     7
 10
160.8553197156248
 20
-21.36582540378437
 30
0.0
 11
162.3553197156248
 21
-22.23185080756846
 31
0.0
  0
LINE
  5
3275
  8
0
  6
CONTINUOUS
 62
     7
 10
162.3553197156248
 20
-22.23185080756846
 30
0.0
 11
163.8553197156248
 21
-21.36582540378437
 31
0.0
  0
LINE
  5
3276
  8
0
  6
DASH_CENTER
 62
     1
 10
162.3553197156248
 20
-20.499799999999482
 30
0.0
 11
162.3553197156248
 21
-15.179799999999659
 31
0.0
  0
LINE
  5
3277
  8
0
  6
DASH_CENTER
 62
     1
 10
162.3553197156248
 20
-20.499799999999482
 30
0.0
 11
167.67531971562181
 21
-20.499800000000359
 31
0.0
  0
LINE
  5
3278
  8
0
  6
DASH_CENTER
 62
     1
 10
224.67531971562181
 20
-6.4998000000003211
 30
0.0
 11
219.3553197156248
 21
-6.4997999999994081
 31
0.0
  0
LINE
  5
3279
  8
0
  6
DASH_CENTER
 62
     1
 10
219.3553197156248
 20
-11.819800000000059
 30
0.0
 11
219.3553197156248
 21
-6.4997999999994081
 31
0.0
  0
LINE
  5
327A
  8
0
  6
CONTINUOUS
 62
     7
 10
220.22134511940891
 20
-4.9997999999994081
 30
0.0
 11
218.4892943118362
 21
-4.9998000000003202
 31
0.0
  0
LINE
  5
327B
  8
0
  6
CONTINUOUS
 62
     7
 10
218.4892943118362
 20
-4.9998000000003202
 30
0.0
 11
217.62326890805571
 21
-6.4997999999994081
 31
0.0
  0
LINE
  5
327C
  8
0
  6
CONTINUOUS
 62
     7
 10
217.62326890805571
 20
-6.4997999999994081
 30
0.0
 11
218.4892943118362
 21
-7.9998000000003211
 31
0.0
  0
LINE
  5
327D
  8
0
  6
CONTINUOUS
 62
     7
 10
218.4892943118362
 20
-7.9998000000003211
 30
0.0
 11
220.22134511940891
 21
-7.9997999999994089
 31
0.0
  0
LINE
  5
327E
  8
0
  6
CONTINUOUS
 62
     7
 10
220.22134511940891
 20
-7.9997999999994089
 30
0.0
 11
221.08737052319481
 21
-6.4998000000003211
 31
0.0
  0
LINE
  5
327F
  8
0
  6
CONTINUOUS
 62
     7
 10
221.08737052319481
 20
-6.4998000000003211
 30
0.0
 11
220.22134511940891
 21
-4.9997999999994081
 31
0.0
  0
LINE
  5
3280
  8
0
  6
DASH_CENTER
 62
     1
 10
219.3553197156248
 20
-6.4997999999994081
 30
0.0
 11
214.03531971561961
 21
-6.4998000000003211
 31
0.0
  0
LINE
  5
3281
  8
0
  6
DASH_CENTER
 62
     1
 10
219.3553197156248
 20
-6.4997999999994081
 30
0.0
 11
219.3553197156248
 21
-1.1797999999996991
 31
0.0
  0
LINE
  5
3282
  8
0
  6
DASH_CENTER
 62
     1
 10
229.3553197156248
 20
15.000200000000589
 30
0.0
 11
138.3553197156248
 21
15.000200000000589
 31
0.0
  0
LINE
  5
3283
  8
0
  6
DASH_CENTER
 62
     1
 10
148.3553197156248
 20
31.18019999999996
 30
0.0
 11
148.3553197156248
 21
36.500200000000603
 31
0.0
  0
LINE
  5
3284
  8
0
  6
DASH_CENTER
 62
     1
 10
143.03531971561961
 20
36.500200000000603
 30
0.0
 11
148.3553197156248
 21
36.500200000000603
 31
0.0
  0
LINE
  5
3285
  8
0
  6
CONTINUOUS
 62
     7
 10
149.8553197156248
 20
35.634174596215601
 30
0.0
 11
149.8553197156248
 21
37.366225403784668
 31
0.0
  0
LINE
  5
3286
  8
0
  6
CONTINUOUS
 62
     7
 10
149.8553197156248
 20
37.366225403784668
 30
0.0
 11
148.3553197156248
 21
38.232250807569663
 31
0.0
  0
LINE
  5
3287
  8
0
  6
CONTINUOUS
 62
     7
 10
148.3553197156248
 20
38.232250807569663
 30
0.0
 11
146.8553197156248
 21
37.366225403784668
 31
0.0
  0
LINE
  5
3288
  8
0
  6
CONTINUOUS
 62
     7
 10
146.8553197156248
 20
37.366225403784668
 30
0.0
 11
146.8553197156248
 21
35.634174596215601
 31
0.0
  0
LINE
  5
3289
  8
0
  6
CONTINUOUS
 62
     7
 10
146.8553197156248
 20
35.634174596215601
 30
0.0
 11
148.3553197156248
 21
34.768149192431522
 31
0.0
  0
LINE
  5
328A
  8
0
  6
CONTINUOUS
 62
     7
 10
148.3553197156248
 20
34.768149192431522
 30
0.0
 11
149.8553197156248
 21
35.634174596215601
 31
0.0
  0
LINE
  5
328B
  8
0
  6
DASH_CENTER
 62
     1
 10
148.3553197156248
 20
36.500200000000603
 30
0.0
 11
148.3553197156248
 21
41.820200000000277
 31
0.0
  0
LINE
  5
328C
  8
0
  6
DASH_CENTER
 62
     1
 10
148.3553197156248
 20
36.500200000000603
 30
0.0
 11
153.67531971562181
 21
36.50019999999968
 31
0.0
  0
ARC
  5
328D
  8
0
  6
CONTINUOUS
 62
     7
 10
219.3553197156248
 20
36.500200000000603
 30
0.0
 40
4.2500000000000631
 50
90.0
 51
270.0
  0
ARC
  5
328E
  8
0
  6
CONTINUOUS
 62
     7
 10
219.3553197156248
 20
36.500200000000603
 30
0.0
 40
4.2500000000000631
 50
90.0
 51
270.0
  0
ARC
  5
328F
  8
0
  6
CONTINUOUS
 62
     7
 10
223.3553197156248
 20
41.250200000000639
 30
0.0
 40
0.5
 50
270.0
 51
0.0
  0
ARC
  5
3290
  8
0
  6
CONTINUOUS
 62
     7
 10
223.3553197156248
 20
31.750200000000589
 30
0.0
 40
0.5
 50
0.0
 51
90.0
  0
ARC
  5
3291
  8
0
  6
CONTINUOUS
 62
     7
 10
148.3553197156248
 20
-6.4997999999994081
 30
0.0
 40
4.2500000000000568
 50
270.0
 51
90.0
  0
ARC
  5
3292
  8
0
  6
CONTINUOUS
 62
     7
 10
148.3553197156248
 20
-6.4997999999994081
 30
0.0
 40
4.2500000000000568
 50
270.0
 51
90.0
  0
ARC
  5
3293
  8
0
  6
CONTINUOUS
 62
     7
 10
144.3553197156248
 20
-11.24979999999946
 30
0.0
 40
0.5
 50
90.0
 51
180.0
  0
ARC
  5
3294
  8
0
  6
CONTINUOUS
 62
     7
 10
144.3553197156248
 20
-1.7497999999994081
 30
0.0
 40
0.5
 50
180.0
 51
270.0
  0
ARC
  5
3295
  8
0
  6
CONTINUOUS
 62
     7
 10
205.35531971562469
 20
-20.499799999999482
 30
0.0
 40
4.25
 50
359.99999999998812
 51
180.0
  0
ARC
  5
3296
  8
0
  6
CONTINUOUS
 62
     7
 10
205.35531971562469
 20
-20.499799999999482
 30
0.0
 40
4.25
 50
359.99999999998812
 51
180.0
  0
ARC
  5
3297
  8
0
  6
CONTINUOUS
 62
     7
 10
210.10531971562469
 20
-24.499799999999471
 30
0.0
 40
0.5
 50
180.0
 51
270.0
  0
ARC
  5
3298
  8
0
  6
CONTINUOUS
 62
     7
 10
200.60531971562469
 20
-24.499799999999471
 30
0.0
 40
0.5
 50
270.0
 51
0.0
  0
ARC
  5
3299
  8
0
  6
CONTINUOUS
 62
     7
 10
162.35531971562469
 20
50.500200000000582
 30
0.0
 40
4.25
 50
180.0
 51
0.0
  0
ARC
  5
329A
  8
0
  6
CONTINUOUS
 62
     7
 10
162.35531971562469
 20
50.500200000000582
 30
0.0
 40
4.25
 50
180.0
 51
0.0
  0
ARC
  5
329B
  8
0
  6
CONTINUOUS
 62
     7
 10
157.6053197156246
 20
54.500200000000582
 30
0.0
 40
0.5
 50
0.0
 51
90.0
  0
ARC
  5
329C
  8
0
  6
CONTINUOUS
 62
     7
 10
167.10531971562469
 20
54.500200000000582
 30
0.0
 40
0.5
 50
90.0
 51
180.0
  0
ARC
  5
329D
  8
0
  6
CONTINUOUS
 62
     7
 10
183.8553197156248
 20
15.00019999999968
 30
0.0
 40
10.25
 50
90.0
 51
0.00000000000508
  0
ARC
  5
329E
  8
0
  6
CONTINUOUS
 62
     7
 10
183.8553197156248
 20
15.00019999999968
 30
0.0
 40
10.25
 50
0.00000000000508
 51
90.0
  0
ARC
  5
329F
  8
0
  6
CONTINUOUS
 62
     7
 10
183.8553197156248
 20
15.00019999999968
 30
0.0
 40
9.899999999997787
 50
0.00000000000526
 51
90.0
  0
ARC
  5
32A0
  8
0
  6
CONTINUOUS
 62
     7
 10
183.8553197156248
 20
15.00019999999968
 30
0.0
 40
9.899999999997787
 50
90.0
 51
0.00000000000526
  0
ARC
  5
32A1
  8
0
  6
CONTINUOUS
 62
     7
 10
201.50531971562171
 20
55.350199999999141
 30
0.0
 40
0.3500000000003638
 50
270.0
 51
90.0
  0
ARC
  5
32A2
  8
0
  6
CONTINUOUS
 62
     7
 10
166.20531971561971
 20
55.350199999999141
 30
0.0
 40
0.3500000000021899
 50
90.0
 51
270.00000000014421
  0
ARC
  5
32A3
  8
0
  6
CONTINUOUS
 62
     7
 10
183.8553197156248
 20
59.600200000000022
 30
0.0
 40
3.5999999999949051
 50
359.9999999999855
 51
180.0000000000145
  0
ARC
  5
32A4
  8
0
  6
CONTINUOUS
 62
     7
 10
183.8553197156248
 20
59.700199999999512
 30
0.0
 40
3.200000000000748
 50
270.64740571525329
 51
270.0
  0
ARC
  5
32A5
  8
0
  6
CONTINUOUS
 62
     7
 10
223.3553197156248
 20
-1.7497999999994081
 30
0.0
 40
0.5000000000000002
 50
270.0
 51
0.0
  0
ARC
  5
32A6
  8
0
  6
CONTINUOUS
 62
     7
 10
223.3553197156248
 20
-11.24979999999946
 30
0.0
 40
0.5
 50
0.0
 51
90.0
  0
ARC
  5
32A7
  8
0
  6
CONTINUOUS
 62
     7
 10
219.3553197156248
 20
-6.4997999999994081
 30
0.0
 40
4.25
 50
90.0
 51
270.0
  0
ARC
  5
32A8
  8
0
  6
DASH_CENTER
 62
     1
 10
183.8553197156248
 20
15.00019999999968
 30
0.0
 40
44.999999999999361
 50
304.99999999999733
 51
324.99999999999648
  0
ARC
  5
32A9
  8
0
  6
CONTINUOUS
 62
     7
 10
167.1053197156248
 20
-24.499799999999471
 30
0.0
 40
0.5
 50
180.0
 51
270.0
  0
ARC
  5
32AA
  8
0
  6
CONTINUOUS
 62
     7
 10
157.6053197156248
 20
-24.499799999999471
 30
0.0
 40
0.5
 50
270.0
 51
0.0
  0
ARC
  5
32AB
  8
0
  6
CONTINUOUS
 62
     7
 10
162.3553197156248
 20
-20.499799999999482
 30
0.0
 40
4.25
 50
0.0
 51
180.00000000001191
  0
ARC
  5
32AC
  8
0
  6
DASH_CENTER
 62
     1
 10
183.8553197156248
 20
15.00019999999968
 30
0.0
 40
45.000000000002949
 50
195.61144245087721
 51
234.9999999999971
  0
ARC
  5
32AD
  8
0
  6
CONTINUOUS
 62
     7
 10
144.3553197156248
 20
31.750200000000589
 30
0.0
 40
0.5
 50
90.0
 51
180.0
  0
ARC
  5
32AE
  8
0
  6
CONTINUOUS
 62
     7
 10
144.3553197156248
 20
41.250200000000582
 30
0.0
 40
0.5
 50
180.0
 51
270.0
  0
ARC
  5
32AF
  8
0
  6
CONTINUOUS
 62
     7
 10
148.3553197156248
 20
36.500200000000603
 30
0.0
 40
4.25
 50
270.0
 51
90.0
  0
ARC
  5
32B0
  8
0
  6
DASH_CENTER
 62
     1
 10
183.8553197156248
 20
15.00019999999968
 30
0.0
 40
45.000000000002252
 50
125.0000000000046
 51
145.00000000000179
  0
ARC
  5
32B1
  8
0
  6
CONTINUOUS
 62
     7
 10
200.6053197156248
 20
54.500200000000582
 30
0.0
 40
0.5
 50
0.0
 51
90.0
  0
ARC
  5
32B2
  8
0
  6
CONTINUOUS
 62
     7
 10
210.1053197156248
 20
54.500200000000582
 30
0.0
 40
0.5
 50
90.0
 51
180.0
  0
ARC
  5
32B3
  8
0
  6
CONTINUOUS
 62
     7
 10
205.3553197156248
 20
50.500200000000582
 30
0.0
 40
4.25
 50
180.0
 51
0.0
  0
ARC
  5
32B4
  8
0
  6
DASH_CENTER
 62
     1
 10
183.8553197156248
 20
15.00019999999968
 30
0.0
 40
44.999999999996149
 50
15.61144245088094
 51
55.000000000002032
  0
ARC
  5
32B5
  8
0
  6
CONTINUOUS
 62
     7
 10
219.3553197156248
 20
-6.4997999999994081
 30
0.0
 40
4.25
 50
90.0
 51
270.0
  0
ARC
  5
32B6
  8
0
  6
CONTINUOUS
 62
     7
 10
162.3553197156248
 20
-20.499799999999482
 30
0.0
 40
4.25
 50
0.0
 51
180.00000000001191
  0
ARC
  5
32B7
  8
0
  6
CONTINUOUS
 62
     7
 10
148.3553197156248
 20
36.500200000000603
 30
0.0
 40
4.25
 50
270.0
 51
90.0
  0
ARC
  5
32B8
  8
0
  6
CONTINUOUS
 62
     7
 10
205.3553197156248
 20
50.500200000000582
 30
0.0
 40
4.25
 50
180.0
 51
0.0
  0
CIRCLE
  5
32B9
  8
0
  6
CONTINUOUS
 62
     7
 10
219.3553197156248
 20
36.500200000000603
 30
0.0
 40
3.7999999999965999
  0
CIRCLE
  5
32BA
  8
0
  6
CONTINUOUS
 62
     7
 10
219.3553197156248
 20
36.500200000000603
 30
0.0
 40
3.5
  0
CIRCLE
  5
32BB
  8
0
  6
CONTINUOUS
 62
     7
 10
148.3553197156248
 20
-6.4997999999994081
 30
0.0
 40
3.799999999999272
  0
CIRCLE
  5
32BC
  8
0
  6
CONTINUOUS
 62
     7
 10
148.3553197156248
 20
-6.4997999999994081
 30
0.0
 40
3.5
  0
CIRCLE
  5
32BE
  8
0
  6
CONTINUOUS
 62
     7
 10
205.35531971562469
 20
-20.499799999999482
 30
0.0
 40
3.8000000000000882
  0
CIRCLE
  5
32BF
  8
0
  6
CONTINUOUS
 62
     7
 10
205.35531971562469
 20
-20.499799999999482
 30
0.0
 40
3.5
  0
CIRCLE
  5
32C0
  8
0
  6
CONTINUOUS
 62
     7
 10
162.35531971562469
 20
50.500200000000582
 30
0.0
 40
3.5
  0
CIRCLE
  5
32C1
  8
0
  6
CONTINUOUS
 62
     7
 10
162.35531971562469
 20
50.500200000000582
 30
0.0
 40
3.8000000000001681
  0
CIRCLE
  5
32C3
  8
0
  6
CONTINUOUS
 62
     7
 10
152.03551456222559
 20
-16.819605153394861
 30
0.0
 40
3.0
  0
CIRCLE
  5
32C4
  8
0
  6
CONTINUOUS
 62
     7
 10
215.67512486901569
 20
-16.819605153394861
 30
0.0
 40
3.0
  0
CIRCLE
  5
32C5
  8
0
  6
CONTINUOUS
 62
     7
 10
152.03551456222661
 20
46.820005153395122
 30
0.0
 40
3.0
  0
CIRCLE
  5
32C6
  8
0
  6
CONTINUOUS
 62
     7
 10
215.67512486901751
 20
46.820005153395122
 30
0.0
 40
3.0
  0
CIRCLE
  5
32C7
  8
0
  6
CONTINUOUS
 62
     7
 10
183.8553197156248
 20
15.00019999999968
 30
0.0
 40
35.0
  0
CIRCLE
  5
32C8
  8
0
  6
CONTINUOUS
 62
     7
 10
183.8553197156248
 20
15.00019999999968
 30
0.0
 40
15.566025403782991
  0
CIRCLE
  5
32C9
  8
0
  6
CONTINUOUS
 62
     7
 10
183.8553197156248
 20
15.00019999999968
 30
0.0
 40
14.699999999998001
  0
CIRCLE
  5
32CA
  8
0
  6
CONTINUOUS
 62
     7
 10
183.8553197156248
 20
15.00019999999968
 30
0.0
 40
15.566025403782991
  0
CIRCLE
  5
32CB
  8
0
  6
CONTINUOUS
 62
     7
 10
183.8553197156248
 20
15.00019999999968
 30
0.0
 40
14.699999999998001
  0
CIRCLE
  5
32CC
  8
0
  6
CONTINUOUS
 62
     7
 10
205.3553197156248
 20
50.500200000000582
 30
0.0
 40
3.8000000000001681
  0
CIRCLE
  5
32CD
  8
0
  6
CONTINUOUS
 62
     7
 10
205.3553197156248
 20
50.500200000000582
 30
0.0
 40
3.5
  0
CIRCLE
  5
32CE
  8
0
  6
CONTINUOUS
 62
     7
 10
162.3553197156248
 20
-20.499799999999482
 30
0.0
 40
3.5
  0
CIRCLE
  5
32CF
  8
0
  6
CONTINUOUS
 62
     7
 10
162.3553197156248
 20
-20.499799999999482
 30
0.0
 40
3.8000000000000882
  0
CIRCLE
  5
32D0
  8
0
  6
CONTINUOUS
 62
     7
 10
219.3553197156248
 20
-6.4997999999994081
 30
0.0
 40
3.5
  0
CIRCLE
  5
32D1
  8
0
  6
CONTINUOUS
 62
     7
 10
219.3553197156248
 20
-6.4997999999994081
 30
0.0
 40
3.7999999999965999
  0
CIRCLE
  5
32D2
  8
0
  6
CONTINUOUS
 62
     7
 10
148.3553197156248
 20
36.500200000000603
 30
0.0
 40
3.5
  0
CIRCLE
  5
32D3
  8
0
  6
CONTINUOUS
 62
     7
 10
148.3553197156248
 20
36.500200000000603
 30
0.0
 40
3.799999999999272
  0
ARC
  5
32D4
  8
0
  6
CONTINUOUS
 62
     7
 10
200.8553197156248
 20
60.494942298045501
 30
0.0
 40
1.0
 50
0.0
 51
23.198590513709771
  0
ARC
  5
32D5
  8
0
  6
CONTINUOUS
 62
     7
 10
166.8553197156248
 20
60.494942298045501
 30
0.0
 40
1.0000000000029201
 50
156.80140948643259
 51
180.0
  0
ARC
  5
32D6
  8
0
  6
CONTINUOUS
 62
     7
 10
198.19592355764371
 20
66.700199999999498
 30
0.0
 40
0.9999999999971208
 50
23.198590513709771
 51
90.0
  0
ARC
  5
32D7
  8
0
  6
CONTINUOUS
 62
     7
 10
169.51471587360129
 20
66.700199999999498
 30
0.0
 40
1.0
 50
90.0
 51
156.80140948633061
  0
ARC
  5
32D8
  8
0
  6
CONTINUOUS
 62
     7
 10
180.0553197156228
 20
55.900200000001142
 30
0.0
 40
0.1999999999998252
 50
270.0
 51
0.0
  0
ARC
  5
32D9
  8
0
  6
CONTINUOUS
 62
     7
 10
187.6553197156195
 20
55.900200000001142
 30
0.0
 40
0.1999999999989086
 50
180.0
 51
270.00000000026063
  0
ARC
  5
32DA
  8
0
  6
CONTINUOUS
 62
     7
 10
217.8553197156248
 20
-18.999799999999471
 30
0.0
 40
6.0
 50
270.0
 51
0.0
  0
ARC
  5
32DB
  8
0
  6
CONTINUOUS
 62
     7
 10
149.8553197156248
 20
-18.999799999999471
 30
0.0
 40
6.0
 50
180.0
 51
270.0
  0
ARC
  5
32DC
  8
0
  6
CONTINUOUS
 62
     7
 10
149.8553197156248
 20
49.000200000000582
 30
0.0
 40
6.0
 50
90.0
 51
180.0
  0
ARC
  5
32DD
  8
0
  6
CONTINUOUS
 62
     7
 10
217.8553197156248
 20
49.000200000000582
 30
0.0
 40
6.0
 50
0.0
 51
90.0
  0
LINE
  5
3344
  8
0
  6
CONTINUOUS
 62
     7
 10
-179.38736635206121
 20
62.860901053808753
 30
0.0
 11
-179.38736635206121
 21
35.522078568980866
 31
0.0
  0
LINE
  5
3345
  8
0
  6
CONTINUOUS
 62
     7
 10
-179.38736635206121
 20
58.769896921083863
 30
0.0
 11
-156.4873663520616
 21
58.769896921083863
 31
0.0
  0
LINE
  5
3346
  8
0
  6
CONTINUOUS
 62
     7
 10
-156.4873663520616
 20
62.860901053808753
 30
0.0
 11
-156.4873663520616
 21
35.522078568980866
 31
0.0
  0
LINE
  5
3347
  8
0
  6
CONTINUOUS
 62
     7
 10
-185.93736635206139
 20
55.700199999998517
 30
0.0
 11
-179.38736635206121
 21
55.700199999998517
 31
0.0
  0
LINE
  5
3349
  8
0
  6
CONTINUOUS
 62
     7
 10
-149.93736635206139
 20
60.494942298044521
 30
0.0
 11
-149.93736635206139
 21
55.700199999998517
 31
0.0
  0
LINE
  5
334A
  8
0
  6
CONTINUOUS
 62
     7
 10
-201.9373663520623
 20
55.000199999996873
 30
0.0
 11
-179.38736635206121
 21
55.000199999999609
 31
0.0
  0
LINE
  5
334B
  8
0
  6
CONTINUOUS
 62
     7
 10
-152.6776174800238
 20
67.094119298577482
 30
0.0
 11
-150.01822132204279
 21
60.888861596623542
 31
0.0
  0
LINE
  5
334C
  8
0
  6
CONTINUOUS
 62
     7
 10
-185.85651138207999
 20
60.888861596623542
 30
0.0
 11
-183.19711522409901
 21
67.094119298577482
 31
0.0
  0
LINE
  5
334D
  8
0
  6
CONTINUOUS
 62
     7
 10
-185.93736635206139
 20
55.700199999998517
 30
0.0
 11
-185.93736635206139
 21
60.494942298044521
 31
0.0
  0
LINE
  5
334E
  8
0
  6
CONTINUOUS
 62
     7
 10
-185.91607431452439
 20
60.700200000000351
 30
0.0
 11
-179.38736635206121
 21
60.700200000000351
 31
0.0
  0
LINE
  5
334F
  8
0
  6
CONTINUOUS
 62
     7
 10
-207.93736635206139
 20
-6.9998000000012972
 30
0.0
 11
-207.93736635206139
 21
37.000199999998692
 31
0.0
  0
LINE
  5
3350
  8
0
  6
CONTINUOUS
 62
     7
 10
-127.9373663520614
 20
37.000199999998692
 30
0.0
 11
-127.9373663520614
 21
-6.9998000000012972
 31
0.0
  0
LINE
  5
3351
  8
0
  6
CONTINUOUS
 62
     7
 10
-193.93736635206139
 20
48.500199999998692
 30
0.0
 11
-193.93736635206139
 21
51.000199999998692
 31
0.0
  0
LINE
  5
3352
  8
0
  6
CONTINUOUS
 62
     7
 10
-201.43736635206139
 20
41.000199999998692
 30
0.0
 11
-203.93736635206139
 21
41.000199999998692
 31
0.0
  0
LINE
  5
3353
  8
0
  6
CONTINUOUS
 62
     7
 10
-193.93736635206139
 20
-20.999800000001329
 30
0.0
 11
-193.93736635206139
 21
-18.499800000001329
 31
0.0
  0
LINE
  5
3354
  8
0
  6
CONTINUOUS
 62
     7
 10
-131.93736635206139
 20
-10.99980000000132
 30
0.0
 11
-134.43736635206139
 21
-10.99980000000132
 31
0.0
  0
LINE
  5
3355
  8
0
  6
DASH_CENTER
 62
     1
 10
-122.9373663520614
 20
15.00020000000052
 30
0.0
 11
-212.93736635206139
 21
15.00020000000052
 31
0.0
  0
LINE
  5
3356
  8
0
  6
DASH_CENTER
 62
     1
 10
-167.93736635206139
 20
-29.999800000001329
 30
0.0
 11
-167.93736635206139
 21
79.09411123859546
 31
0.0
  0
LINE
  5
3357
  8
0
  6
CONTINUOUS
 62
     7
 10
-165.38736635206141
 20
67.70019999999846
 30
0.0
 11
-153.59676251004251
 21
67.70019999999846
 31
0.0
  0
LINE
  5
3358
  8
0
  6
CONTINUOUS
 62
     7
 10
-156.4873663520616
 20
60.700200000000351
 30
0.0
 11
-149.95865838959929
 21
60.700200000000351
 31
0.0
  0
LINE
  5
3359
  8
0
  6
CONTINUOUS
 62
     7
 10
-156.4873663520616
 20
55.700199999998517
 30
0.0
 11
-149.93736635206139
 21
55.700199999998517
 31
0.0
  0
LINE
  5
335A
  8
0
  6
CONTINUOUS
 62
     7
 10
-156.4873663520616
 20
55.000199999999609
 30
0.0
 11
-133.93736635206139
 21
55.000199999998678
 31
0.0
  0
LINE
  5
335B
  8
0
  6
CONTINUOUS
 62
     7
 10
-131.93736635206139
 20
41.000199999998692
 30
0.0
 11
-134.43736635206139
 21
41.000199999998692
 31
0.0
  0
LINE
  5
335C
  8
0
  6
CONTINUOUS
 62
     7
 10
-141.93736635206139
 20
48.500199999998692
 30
0.0
 11
-141.93736635206139
 21
51.000199999998692
 31
0.0
  0
LINE
  5
335D
  8
0
  6
CONTINUOUS
 62
     7
 10
-127.9373663520614
 20
37.000199999998692
 30
0.0
 11
-127.9373663520614
 21
-6.9998000000012972
 31
0.0
  0
LINE
  5
335E
  8
0
  6
CONTINUOUS
 62
     7
 10
-127.9373663520614
 20
37.000199999998692
 30
0.0
 11
-127.9373663520614
 21
-6.9998000000012972
 31
0.0
  0
LINE
  5
335F
  8
0
  6
CONTINUOUS
 62
     7
 10
-131.93736635206139
 20
41.000199999998692
 30
0.0
 11
-134.43736635206139
 21
41.000199999998692
 31
0.0
  0
LINE
  5
3360
  8
0
  6
CONTINUOUS
 62
     7
 10
-146.43736635206139
 20
50.500199999998678
 30
0.0
 11
-146.43736635206139
 21
51.800199999998888
 31
0.0
  0
LINE
  5
3361
  8
0
  6
CONTINUOUS
 62
     7
 10
-146.43736635206139
 20
50.500199999998678
 30
0.0
 11
-146.43736635206139
 21
49.200199999999427
 31
0.0
  0
LINE
  5
3362
  8
0
  6
CONTINUOUS
 62
     7
 10
-146.43736635206139
 20
50.500199999998678
 30
0.0
 11
-145.1373663520603
 21
50.500199999998678
 31
0.0
  0
LINE
  5
3363
  8
0
  6
CONTINUOUS
 62
     7
 10
-146.43736635206139
 20
50.500199999998678
 30
0.0
 11
-147.7373663520616
 21
50.500199999998678
 31
0.0
  0
LINE
  5
3364
  8
0
  6
CONTINUOUS
 62
     7
 10
-131.93736635206139
 20
-10.99980000000132
 30
0.0
 11
-134.43736635206139
 21
-10.99980000000132
 31
0.0
  0
LINE
  5
3365
  8
0
  6
CONTINUOUS
 62
     7
 10
-141.93736635206139
 20
-20.999800000001329
 30
0.0
 11
-141.93736635206139
 21
-18.499800000001329
 31
0.0
  0
LINE
  5
3366
  8
0
  6
CONTINUOUS
 62
     7
 10
-141.93736635206139
 20
-20.999800000001329
 30
0.0
 11
-141.93736635206139
 21
-18.499800000001329
 31
0.0
  0
LINE
  5
3367
  8
0
  6
CONTINUOUS
 62
     7
 10
-131.93736635206139
 20
-10.99980000000132
 30
0.0
 11
-134.43736635206139
 21
-10.99980000000132
 31
0.0
  0
LINE
  5
3368
  8
0
  6
CONTINUOUS
 62
     7
 10
-132.43736635206139
 20
-6.4998000000012972
 30
0.0
 11
-131.1373663520603
 21
-6.4998000000012972
 31
0.0
  0
LINE
  5
3369
  8
0
  6
CONTINUOUS
 62
     7
 10
-132.43736635206139
 20
-6.4998000000012972
 30
0.0
 11
-133.7373663520616
 21
-6.4998000000012972
 31
0.0
  0
LINE
  5
336A
  8
0
  6
CONTINUOUS
 62
     7
 10
-132.43736635206139
 20
-6.4998000000012972
 30
0.0
 11
-132.43736635206139
 21
-7.7998000000005669
 31
0.0
  0
LINE
  5
336B
  8
0
  6
CONTINUOUS
 62
     7
 10
-132.43736635206139
 20
-6.4998000000012972
 30
0.0
 11
-132.43736635206139
 21
-5.199800000001118
 31
0.0
  0
LINE
  5
336C
  8
0
  6
CONTINUOUS
 62
     7
 10
-193.93736635206139
 20
-20.999800000001329
 30
0.0
 11
-193.93736635206139
 21
-18.499800000001329
 31
0.0
  0
LINE
  5
336D
  8
0
  6
CONTINUOUS
 62
     7
 10
-201.43736635206139
 20
41.000199999998692
 30
0.0
 11
-203.93736635206139
 21
41.000199999998692
 31
0.0
  0
LINE
  5
336E
  8
0
  6
CONTINUOUS
 62
     7
 10
-201.43736635206139
 20
-10.99980000000132
 30
0.0
 11
-203.93736635206139
 21
-10.99980000000132
 31
0.0
  0
LINE
  5
336F
  8
0
  6
CONTINUOUS
 62
     7
 10
-193.93736635206139
 20
48.500199999998692
 30
0.0
 11
-193.93736635206139
 21
51.000199999998692
 31
0.0
  0
LINE
  5
3370
  8
0
  6
CONTINUOUS
 62
     7
 10
-207.93736635206139
 20
-6.9998000000012972
 30
0.0
 11
-207.93736635206139
 21
37.000199999998692
 31
0.0
  0
LINE
  5
3371
  8
0
  6
CONTINUOUS
 62
     7
 10
-207.93736635206139
 20
-6.9998000000012972
 30
0.0
 11
-207.93736635206139
 21
37.000199999998692
 31
0.0
  0
LINE
  5
3372
  8
0
  6
CONTINUOUS
 62
     7
 10
-193.93736635206139
 20
48.500199999998692
 30
0.0
 11
-193.93736635206139
 21
51.000199999998692
 31
0.0
  0
LINE
  5
3373
  8
0
  6
CONTINUOUS
 62
     7
 10
-201.43736635206139
 20
-10.99980000000132
 30
0.0
 11
-203.93736635206139
 21
-10.99980000000132
 31
0.0
  0
LINE
  5
3374
  8
0
  6
CONTINUOUS
 62
     7
 10
-201.43736635206139
 20
41.000199999998692
 30
0.0
 11
-203.93736635206139
 21
41.000199999998692
 31
0.0
  0
LINE
  5
3375
  8
0
  6
CONTINUOUS
 62
     7
 10
-193.93736635206139
 20
-20.999800000001329
 30
0.0
 11
-193.93736635206139
 21
-18.499800000001329
 31
0.0
  0
LINE
  5
3376
  8
0
  6
CONTINUOUS
 62
     7
 10
-189.43736635206139
 20
-20.499800000001329
 30
0.0
 11
-189.43736635206139
 21
-21.799800000000531
 31
0.0
  0
LINE
  5
3377
  8
0
  6
CONTINUOUS
 62
     7
 10
-189.43736635206139
 20
-20.499800000001329
 30
0.0
 11
-189.43736635206139
 21
-19.199800000001119
 31
0.0
  0
LINE
  5
3378
  8
0
  6
CONTINUOUS
 62
     7
 10
-189.43736635206139
 20
-20.499800000001329
 30
0.0
 11
-190.73736635206151
 21
-20.499800000001329
 31
0.0
  0
LINE
  5
3379
  8
0
  6
CONTINUOUS
 62
     7
 10
-189.43736635206139
 20
-20.499800000001329
 30
0.0
 11
-188.1373663520603
 21
-20.499800000001329
 31
0.0
  0
LINE
  5
337A
  8
0
  6
CONTINUOUS
 62
     7
 10
-203.43736635206139
 20
36.500199999998692
 30
0.0
 11
-204.7373663520616
 21
36.500199999998692
 31
0.0
  0
LINE
  5
337B
  8
0
  6
CONTINUOUS
 62
     7
 10
-203.43736635206139
 20
36.500199999998692
 30
0.0
 11
-202.1373663520603
 21
36.500199999998692
 31
0.0
  0
LINE
  5
337C
  8
0
  6
CONTINUOUS
 62
     7
 10
-203.43736635206139
 20
36.500199999998692
 30
0.0
 11
-203.43736635206139
 21
37.800199999998888
 31
0.0
  0
LINE
  5
337D
  8
0
  6
CONTINUOUS
 62
     7
 10
-203.43736635206139
 20
36.500199999998692
 30
0.0
 11
-203.43736635206139
 21
35.200199999999427
 31
0.0
  0
LINE
  5
337E
  8
0
  6
CONTINUOUS
 62
     7
 10
-178.25440115586801
 20
63.860901053808739
 30
0.0
 11
-157.62033154828941
 21
63.860901053808739
 31
0.0
  0
LINE
  5
337F
  8
0
  6
CONTINUOUS
 62
     7
 10
-157.12526007038599
 20
63.860901053808739
 30
0.0
 11
-158.53029340320199
 21
65.573516190885115
 31
0.0
  0
LINE
  5
3380
  8
0
  6
CONTINUOUS
 62
     7
 10
-177.34443930092161
 20
65.573516190885115
 30
0.0
 11
-178.74947263373679
 21
63.860901053808739
 31
0.0
  0
LINE
  5
3381
  8
0
  6
CONTINUOUS
 62
     7
 10
-178.74947263373679
 20
63.860901053808739
 30
0.0
 11
-157.1252600703888
 21
63.860901053808739
 31
0.0
  0
LINE
  5
3382
  8
0
  6
CONTINUOUS
 62
     7
 10
-176.53888996704021
 20
65.980987482143064
 30
0.0
 11
-159.3358427370836
 21
65.980987482143064
 31
0.0
  0
LINE
  5
3383
  8
0
  6
CONTINUOUS
 62
     7
 10
-178.5215203195016
 20
63.860901053808739
 30
0.0
 11
-157.36502685701859
 21
63.860901053808739
 31
0.0
  0
LINE
  5
3384
  8
0
  6
CONTINUOUS
 62
     7
 10
-170.4873663520614
 20
75.316649925085628
 30
0.0
 11
-170.4873663520614
 21
65.98098748214214
 31
0.0
  0
LINE
  5
3385
  8
0
  6
CONTINUOUS
 62
     7
 10
-165.38736635206141
 20
75.360923314920058
 30
0.0
 11
-165.38736635206141
 21
65.980987482143036
 31
0.0
  0
LINE
  5
3386
  8
0
  6
CONTINUOUS
 62
     7
 10
-127.9373663520614
 20
-18.999800000001329
 30
0.0
 11
-127.9373663520614
 21
49.000199999998692
 31
0.0
  0
LINE
  5
3387
  8
0
  6
CONTINUOUS
 62
     7
 10
-201.93736635206139
 20
-24.999800000001329
 30
0.0
 11
-133.93736635206139
 21
-24.999800000001329
 31
0.0
  0
LINE
  5
3388
  8
0
  6
CONTINUOUS
 62
     7
 10
-207.93736635206139
 20
49.000199999998692
 30
0.0
 11
-207.93736635206139
 21
-18.999800000001329
 31
0.0
  0
LINE
  5
3389
  8
0
  6
CONTINUOUS
 62
     7
 10
-127.9373663520614
 20
45.000199999998678
 30
0.0
 11
-127.9373663520614
 21
-14.999800000001329
 31
0.0
  0
LINE
  5
338A
  8
0
  6
DASH_CENTER
 62
     1
 10
-141.66411870312589
 20
41.273447648931437
 30
0.0
 11
-130.5710036942059
 21
52.366562657850523
 31
0.0
  0
LINE
  5
338B
  8
0
  6
DASH_CENTER
 62
     1
 10
-194.210614000996
 20
-11.273047648937631
 30
0.0
 11
-205.30372900991321
 21
-22.366162657857629
 31
0.0
  0
LINE
  5
338C
  8
0
  6
DASH_CENTER
 62
     1
 10
-141.66411870312859
 20
-11.273047648936741
 30
0.0
 11
-130.57100369420959
 21
-22.36616265785673
 31
0.0
  0
LINE
  5
338D
  8
0
  6
DASH_CENTER
 62
     1
 10
-194.21061400099771
 20
41.273447648933249
 30
0.0
 11
-205.3037290099179
 21
52.366562657851432
 31
0.0
  0
LINE
  5
338E
  8
0
  6
CONTINUOUS
 62
     7
 10
-185.91607431452439
 20
60.700200000000351
 30
0.0
 11
-179.77411966855061
 21
60.700200000000351
 31
0.0
  0
LINE
  5
338F
  8
0
  6
CONTINUOUS
 62
     7
 10
-185.93736635206139
 20
55.700199999998517
 30
0.0
 11
-185.93736635206139
 21
60.494942298044521
 31
0.0
  0
LINE
  5
3390
  8
0
  6
CONTINUOUS
 62
     7
 10
-185.85651138207999
 20
60.888861596623542
 30
0.0
 11
-183.19711522409901
 21
67.094119298577482
 31
0.0
  0
LINE
  5
3391
  8
0
  6
CONTINUOUS
 62
     7
 10
-182.27797019408121
 20
67.70019999999846
 30
0.0
 11
-170.4873663520614
 21
67.70019999999846
 31
0.0
  0
LINE
  5
3392
  8
0
  6
CONTINUOUS
 62
     7
 10
-152.6776174800238
 20
67.094119298577482
 30
0.0
 11
-150.01822132204279
 21
60.888861596623542
 31
0.0
  0
LINE
  5
3393
  8
0
  6
CONTINUOUS
 62
     7
 10
-149.93736635206139
 20
60.494942298044521
 30
0.0
 11
-149.93736635206139
 21
55.700199999998517
 31
0.0
  0
LINE
  5
3395
  8
0
  6
CONTINUOUS
 62
     7
 10
-185.93736635206139
 20
55.700199999998517
 30
0.0
 11
-182.4373663520787
 21
55.700199999998517
 31
0.0
  0
LINE
  5
3396
  8
0
  6
CONTINUOUS
 62
     7
 10
-153.4373663520787
 20
55.700199999998517
 30
0.0
 11
-149.93736635206139
 21
55.700199999998517
 31
0.0
  0
LINE
  5
3397
  8
0
  6
CONTINUOUS
 62
     7
 10
-156.10061303560769
 20
60.700200000000351
 30
0.0
 11
-149.95865838959929
 21
60.700200000000351
 31
0.0
  0
LINE
  5
3398
  8
0
  6
CONTINUOUS
 62
     7
 10
-207.93736635206139
 20
-6.9998000000012972
 30
0.0
 11
-207.93736635206139
 21
37.000199999998692
 31
0.0
  0
LINE
  5
3399
  8
0
  6
CONTINUOUS
 62
     7
 10
-207.93736635206139
 20
-6.9998000000012972
 30
0.0
 11
-207.93736635206139
 21
37.000199999998692
 31
0.0
  0
LINE
  5
339A
  8
0
  6
CONTINUOUS
 62
     7
 10
-127.9373663520614
 20
37.000199999998692
 30
0.0
 11
-127.9373663520614
 21
-6.9998000000012972
 31
0.0
  0
LINE
  5
339B
  8
0
  6
CONTINUOUS
 62
     7
 10
-127.9373663520614
 20
37.000199999998692
 30
0.0
 11
-127.9373663520614
 21
-6.9998000000012972
 31
0.0
  0
ARC
  5
339C
  8
0
  6
CONTINUOUS
 62
     7
 10
-179.88736635206121
 20
55.500199999998678
 30
0.0
 40
0.5
 50
270.0
 51
0.0
  0
ARC
  5
339D
  8
0
  6
CONTINUOUS
 62
     7
 10
-155.9873663520616
 20
55.500199999998678
 30
0.0
 40
0.5
 50
180.0
 51
270.0
  0
ARC
  5
339E
  8
0
  6
CONTINUOUS
 62
     7
 10
-167.93736635206139
 20
15.000199999998699
 30
0.0
 40
23.50000000000097
 50
119.1589447695286
 51
60.84105523047139
  0
ARC
  5
339F
  8
0
  6
CONTINUOUS
 62
     7
 10
-167.93736635206139
 20
15.000199999998699
 30
0.0
 40
37.000000000000043
 50
108.0266580364089
 51
71.973341963591125
  0
ARC
  5
33A0
  8
0
  6
CONTINUOUS
 62
     7
 10
-185.587366352061
 20
55.35019999999907
 30
0.0
 40
0.3499999999994543
 50
90.0
 51
270.0
  0
ARC
  5
33A1
  8
0
  6
CONTINUOUS
 62
     7
 10
-150.2873663520609
 20
55.35019999999907
 30
0.0
 40
0.3500000000003709
 50
270.0
 51
90.0
  0
ARC
  5
33A2
  8
0
  6
DASH_CENTER
 62
     1
 10
-167.93736635206139
 20
15.000199999998699
 30
0.0
 40
45.000000000001329
 50
34.999999999996973
 51
54.999999999996952
  0
ARC
  5
33A3
  8
0
  6
DASH_CENTER
 62
     1
 10
-167.93736635206139
 20
15.000199999998699
 30
0.0
 40
45.00000000000049
 50
215.00000000000341
 51
235.00000000000239
  0
ARC
  5
33A4
  8
0
  6
DASH_CENTER
 62
     1
 10
-167.93736635206139
 20
15.000199999998699
 30
0.0
 40
45.000000000000099
 50
304.99999999999659
 51
324.99999999999687
  0
ARC
  5
33A5
  8
0
  6
DASH_CENTER
 62
     1
 10
-167.93736635206139
 20
15.000199999998699
 30
0.0
 40
45.000000000000469
 50
125.0000000000034
 51
145.00000000000139
  0
ARC
  5
33A6
  8
0
  6
CONTINUOUS
 62
     7
 10
-150.2873663520609
 20
55.35019999999907
 30
0.0
 40
0.3500000000003709
 50
270.0
 51
90.0
  0
ARC
  5
33A7
  8
0
  6
CONTINUOUS
 62
     7
 10
-185.587366352061
 20
55.35019999999907
 30
0.0
 40
0.3499999999994543
 50
90.0
 51
270.0
  0
CIRCLE
  5
33A8
  8
0
  6
CONTINUOUS
 62
     7
 10
-146.43736635206139
 20
50.500199999998678
 30
0.0
 40
2.649999999999578
  0
CIRCLE
  5
33A9
  8
0
  6
CONTINUOUS
 62
     7
 10
-146.43736635206139
 20
50.500199999998678
 30
0.0
 40
2.25
  0
CIRCLE
  5
33AA
  8
0
  6
CONTINUOUS
 62
     7
 10
-132.43736635206139
 20
-6.4998000000012972
 30
0.0
 40
2.6500000000005461
  0
CIRCLE
  5
33AB
  8
0
  6
CONTINUOUS
 62
     7
 10
-132.43736635206139
 20
-6.4998000000012972
 30
0.0
 40
2.25
  0
CIRCLE
  5
33AC
  8
0
  6
CONTINUOUS
 62
     7
 10
-189.43736635206139
 20
-20.499800000001329
 30
0.0
 40
2.649999999999606
  0
CIRCLE
  5
33AD
  8
0
  6
CONTINUOUS
 62
     7
 10
-189.43736635206139
 20
-20.499800000001329
 30
0.0
 40
2.25
  0
CIRCLE
  5
33AE
  8
0
  6
CONTINUOUS
 62
     7
 10
-203.43736635206139
 20
36.500199999998692
 30
0.0
 40
2.6499999999996482
  0
CIRCLE
  5
33AF
  8
0
  6
CONTINUOUS
 62
     7
 10
-203.43736635206139
 20
36.500199999998692
 30
0.0
 40
2.25
  0
CIRCLE
  5
33B0
  8
0
  6
CONTINUOUS
 62
     7
 10
-199.757171505456
 20
-16.819605153397632
 30
0.0
 40
3.0
  0
CIRCLE
  5
33B1
  8
0
  6
CONTINUOUS
 62
     7
 10
-136.1175611986659
 20
46.820005153390532
 30
0.0
 40
3.0
  0
CIRCLE
  5
33B2
  8
0
  6
CONTINUOUS
 62
     7
 10
-136.11756119866959
 20
-16.81960515339674
 30
0.0
 40
3.0
  0
CIRCLE
  5
33B3
  8
0
  6
CONTINUOUS
 62
     7
 10
-199.75717150545771
 20
46.82000515339324
 30
0.0
 40
3.0
  0
POLYLINE
  5
361B
  8
0
 62
     2
 66
     1
 10
0.0
 20
0.0
 30
0.0
 70
     8
  0
VERTEX
  5
361C
  8
0
 62
     2
 10
-165.387
 20
75.360900000000001
 30
0.0
 70
    32
  0
VERTEX
  5
361D
  8
0
 62
     2
 10
-165.41
 20
75.375299999999996
 30
0.0
 70
    32
  0
VERTEX
  5
361E
  8
0
 62
     2
 10
-165.43299999999999
 20
75.389600000000002
 30
0.0
 70
    32
  0
VERTEX
  5
361F
  8
0
 62
     2
 10
-165.45599999999999
 20
75.403899999999993
 30
0.0
 70
    32
  0
VERTEX
  5
3620
  8
0
 62
     2
 10
-165.47800000000001
 20
75.418199999999999
 30
0.0
 70
    32
  0
VERTEX
  5
3621
  8
0
 62
     2
 10
-165.501
 20
75.432500000000005
 30
0.0
 70
    32
  0
VERTEX
  5
3622
  8
0
 62
     2
 10
-165.524
 20
75.446600000000004
 30
0.0
 70
    32
  0
VERTEX
  5
3623
  8
0
 62
     2
 10
-165.547
 20
75.460800000000006
 30
0.0
 70
    32
  0
VERTEX
  5
3624
  8
0
 62
     2
 10
-165.56899999999999
 20
75.474800000000002
 30
0.0
 70
    32
  0
VERTEX
  5
3625
  8
0
 62
     2
 10
-165.59200000000001
 20
75.488799999999998
 30
0.0
 70
    32
  0
VERTEX
  5
3626
  8
0
 62
     2
 10
-165.61500000000001
 20
75.502600000000001
 30
0.0
 70
    32
  0
VERTEX
  5
3627
  8
0
 62
     2
 10
-165.63800000000001
 20
75.516400000000004
 30
0.0
 70
    32
  0
VERTEX
  5
3628
  8
0
 62
     2
 10
-165.66099999999989
 20
75.530000000000001
 30
0.0
 70
    32
  0
VERTEX
  5
3629
  8
0
 62
     2
 10
-165.68299999999999
 20
75.543499999999995
 30
0.0
 70
    32
  0
VERTEX
  5
362A
  8
0
 62
     2
 10
-165.70599999999999
 20
75.556799999999996
 30
0.0
 70
    32
  0
VERTEX
  5
362B
  8
0
 62
     2
 10
-165.72900000000001
 20
75.569999999999993
 30
0.0
 70
    32
  0
VERTEX
  5
362C
  8
0
 62
     2
 10
-165.75200000000001
 20
75.582999999999998
 30
0.0
 70
    32
  0
VERTEX
  5
362D
  8
0
 62
     2
 10
-165.77500000000001
 20
75.595799999999997
 30
0.0
 70
    32
  0
VERTEX
  5
362E
  8
0
 62
     2
 10
-165.797
 20
75.608500000000006
 30
0.0
 70
    32
  0
VERTEX
  5
362F
  8
0
 62
     2
 10
-165.81999999999999
 20
75.620999999999995
 30
0.0
 70
    32
  0
VERTEX
  5
3630
  8
0
 62
     2
 10
-165.84299999999999
 20
75.633200000000002
 30
0.0
 70
    32
  0
VERTEX
  5
3631
  8
0
 62
     2
 10
-165.86600000000001
 20
75.645200000000003
 30
0.0
 70
    32
  0
VERTEX
  5
3632
  8
0
 62
     2
 10
-165.88900000000001
 20
75.656999999999996
 30
0.0
 70
    32
  0
VERTEX
  5
3633
  8
0
 62
     2
 10
-165.91200000000001
 20
75.668499999999995
 30
0.0
 70
    32
  0
VERTEX
  5
3634
  8
0
 62
     2
 10
-165.934
 20
75.6798
 30
0.0
 70
    32
  0
VERTEX
  5
3635
  8
0
 62
     2
 10
-165.95699999999999
 20
75.690799999999996
 30
0.0
 70
    32
  0
VERTEX
  5
3636
  8
0
 62
     2
 10
-165.97999999999999
 20
75.701599999999999
 30
0.0
 70
    32
  0
VERTEX
  5
3637
  8
0
 62
     2
 10
-166.00299999999999
 20
75.712000000000003
 30
0.0
 70
    32
  0
VERTEX
  5
3638
  8
0
 62
     2
 10
-166.02600000000001
 20
75.722200000000001
 30
0.0
 70
    32
  0
VERTEX
  5
3639
  8
0
 62
     2
 10
-166.04900000000001
 20
75.731999999999985
 30
0.0
 70
    32
  0
VERTEX
  5
363A
  8
0
 62
     2
 10
-166.072
 20
75.741600000000005
 30
0.0
 70
    32
  0
VERTEX
  5
363B
  8
0
 62
     2
 10
-166.095
 20
75.750699999999995
 30
0.0
 70
    32
  0
VERTEX
  5
363C
  8
0
 62
     2
 10
-166.11799999999999
 20
75.759600000000006
 30
0.0
 70
    32
  0
VERTEX
  5
363D
  8
0
 62
     2
 10
-166.14099999999999
 20
75.768100000000004
 30
0.0
 70
    32
  0
VERTEX
  5
363E
  8
0
 62
     2
 10
-166.16399999999999
 20
75.776200000000003
 30
0.0
 70
    32
  0
VERTEX
  5
363F
  8
0
 62
     2
 10
-166.18700000000001
 20
75.783900000000003
 30
0.0
 70
    32
  0
VERTEX
  5
3640
  8
0
 62
     2
 10
-166.21000000000001
 20
75.791300000000007
 30
0.0
 70
    32
  0
VERTEX
  5
3641
  8
0
 62
     2
 10
-166.233
 20
75.798199999999994
 30
0.0
 70
    32
  0
VERTEX
  5
3642
  8
0
 62
     2
 10
-166.256
 20
75.8048
 30
0.0
 70
    32
  0
VERTEX
  5
3643
  8
0
 62
     2
 10
-166.279
 20
75.810900000000004
 30
0.0
 70
    32
  0
VERTEX
  5
3644
  8
0
 62
     2
 10
-166.30199999999999
 20
75.816599999999994
 30
0.0
 70
    32
  0
VERTEX
  5
3645
  8
0
 62
     2
 10
-166.32499999999999
 20
75.821799999999996
 30
0.0
 70
    32
  0
VERTEX
  5
3646
  8
0
 62
     2
 10
-166.34800000000001
 20
75.826599999999999
 30
0.0
 70
    32
  0
VERTEX
  5
3647
  8
0
 62
     2
 10
-166.37100000000001
 20
75.831000000000003
 30
0.0
 70
    32
  0
VERTEX
  5
3648
  8
0
 62
     2
 10
-166.39400000000001
 20
75.834800000000001
 30
0.0
 70
    32
  0
VERTEX
  5
3649
  8
0
 62
     2
 10
-166.417
 20
75.838200000000001
 30
0.0
 70
    32
  0
VERTEX
  5
364A
  8
0
 62
     2
 10
-166.44099999999989
 20
75.840999999999994
 30
0.0
 70
    32
  0
VERTEX
  5
364B
  8
0
 62
     2
 10
-166.464
 20
75.843400000000003
 30
0.0
 70
    32
  0
VERTEX
  5
364C
  8
0
 62
     2
 10
-166.48699999999999
 20
75.845200000000006
 30
0.0
 70
    32
  0
VERTEX
  5
364D
  8
0
 62
     2
 10
-166.50999999999999
 20
75.846500000000006
 30
0.0
 70
    32
  0
VERTEX
  5
364E
  8
0
 62
     2
 10
-166.53399999999999
 20
75.847200000000001
 30
0.0
 70
    32
  0
VERTEX
  5
364F
  8
0
 62
     2
 10
-166.55699999999999
 20
75.847399999999993
 30
0.0
 70
    32
  0
VERTEX
  5
3650
  8
0
 62
     2
 10
-166.58000000000001
 20
75.846999999999994
 30
0.0
 70
    32
  0
VERTEX
  5
3651
  8
0
 62
     2
 10
-166.60300000000001
 20
75.846100000000007
 30
0.0
 70
    32
  0
VERTEX
  5
3652
  8
0
 62
     2
 10
-166.62700000000001
 20
75.844499999999996
 30
0.0
 70
    32
  0
VERTEX
  5
3653
  8
0
 62
     2
 10
-166.65000000000001
 20
75.842399999999998
 30
0.0
 70
    32
  0
VERTEX
  5
3654
  8
0
 62
     2
 10
-166.673
 20
75.839699999999993
 30
0.0
 70
    32
  0
VERTEX
  5
3655
  8
0
 62
     2
 10
-166.697
 20
75.836500000000001
 30
0.0
 70
    32
  0
VERTEX
  5
3656
  8
0
 62
     2
 10
-166.72
 20
75.832800000000006
 30
0.0
 70
    32
  0
VERTEX
  5
3657
  8
0
 62
     2
 10
-166.744
 20
75.828599999999994
 30
0.0
 70
    32
  0
VERTEX
  5
3658
  8
0
 62
     2
 10
-166.767
 20
75.823899999999995
 30
0.0
 70
    32
  0
VERTEX
  5
3659
  8
0
 62
     2
 10
-166.791
 20
75.818700000000007
 30
0.0
 70
    32
  0
VERTEX
  5
365A
  8
0
 62
     2
 10
-166.81399999999999
 20
75.813100000000006
 30
0.0
 70
    32
  0
VERTEX
  5
365B
  8
0
 62
     2
 10
-166.83799999999999
 20
75.807100000000005
 30
0.0
 70
    32
  0
VERTEX
  5
365C
  8
0
 62
     2
 10
-166.86099999999999
 20
75.800700000000006
 30
0.0
 70
    32
  0
VERTEX
  5
365D
  8
0
 62
     2
 10
-166.88499999999999
 20
75.793999999999997
 30
0.0
 70
    32
  0
VERTEX
  5
365E
  8
0
 62
     2
 10
-166.90799999999999
 20
75.786900000000003
 30
0.0
 70
    32
  0
VERTEX
  5
365F
  8
0
 62
     2
 10
-166.93199999999999
 20
75.779499999999999
 30
0.0
 70
    32
  0
VERTEX
  5
3660
  8
0
 62
     2
 10
-166.95500000000001
 20
75.771699999999996
 30
0.0
 70
    32
  0
VERTEX
  5
3661
  8
0
 62
     2
 10
-166.97900000000001
 20
75.7637
 30
0.0
 70
    32
  0
VERTEX
  5
3662
  8
0
 62
     2
 10
-167.00299999999999
 20
75.755499999999984
 30
0.0
 70
    32
  0
VERTEX
  5
3663
  8
0
 62
     2
 10
-167.02600000000001
 20
75.746999999999986
 30
0.0
 70
    32
  0
VERTEX
  5
3664
  8
0
 62
     2
 10
-167.05000000000001
 20
75.738200000000006
 30
0.0
 70
    32
  0
VERTEX
  5
3665
  8
0
 62
     2
 10
-167.07400000000001
 20
75.729299999999995
 30
0.0
 70
    32
  0
VERTEX
  5
3666
  8
0
 62
     2
 10
-167.09700000000001
 20
75.720200000000006
 30
0.0
 70
    32
  0
VERTEX
  5
3667
  8
0
 62
     2
 10
-167.12100000000001
 20
75.710999999999999
 30
0.0
 70
    32
  0
VERTEX
  5
3668
  8
0
 62
     2
 10
-167.14500000000001
 20
75.701599999999999
 30
0.0
 70
    32
  0
VERTEX
  5
3669
  8
0
 62
     2
 10
-167.16900000000001
 20
75.692099999999996
 30
0.0
 70
    32
  0
VERTEX
  5
366A
  8
0
 62
     2
 10
-167.19200000000001
 20
75.682500000000005
 30
0.0
 70
    32
  0
VERTEX
  5
366B
  8
0
 62
     2
 10
-167.21600000000001
 20
75.672799999999995
 30
0.0
 70
    32
  0
VERTEX
  5
366C
  8
0
 62
     2
 10
-167.24000000000001
 20
75.6631
 30
0.0
 70
    32
  0
VERTEX
  5
366D
  8
0
 62
     2
 10
-167.26400000000001
 20
75.653400000000005
 30
0.0
 70
    32
  0
VERTEX
  5
366E
  8
0
 62
     2
 10
-167.28800000000001
 20
75.643600000000006
 30
0.0
 70
    32
  0
VERTEX
  5
366F
  8
0
 62
     2
 10
-167.31200000000001
 20
75.633899999999997
 30
0.0
 70
    32
  0
VERTEX
  5
3670
  8
0
 62
     2
 10
-167.33500000000001
 20
75.624200000000002
 30
0.0
 70
    32
  0
VERTEX
  5
3671
  8
0
 62
     2
 10
-167.35900000000001
 20
75.614599999999996
 30
0.0
 70
    32
  0
VERTEX
  5
3672
  8
0
 62
     2
 10
-167.38300000000001
 20
75.605000000000004
 30
0.0
 70
    32
  0
VERTEX
  5
3673
  8
0
 62
     2
 10
-167.40700000000001
 20
75.595500000000001
 30
0.0
 70
    32
  0
VERTEX
  5
3674
  8
0
 62
     2
 10
-167.43100000000001
 20
75.586200000000005
 30
0.0
 70
    32
  0
VERTEX
  5
3675
  8
0
 62
     2
 10
-167.45500000000001
 20
75.576999999999998
 30
0.0
 70
    32
  0
VERTEX
  5
3676
  8
0
 62
     2
 10
-167.47900000000001
 20
75.567999999999984
 30
0.0
 70
    32
  0
VERTEX
  5
3677
  8
0
 62
     2
 10
-167.50299999999999
 20
75.559100000000001
 30
0.0
 70
    32
  0
VERTEX
  5
3678
  8
0
 62
     2
 10
-167.52699999999999
 20
75.5505
 30
0.0
 70
    32
  0
VERTEX
  5
3679
  8
0
 62
     2
 10
-167.55099999999999
 20
75.542100000000005
 30
0.0
 70
    32
  0
VERTEX
  5
367A
  8
0
 62
     2
 10
-167.57499999999999
 20
75.533900000000003
 30
0.0
 70
    32
  0
VERTEX
  5
367B
  8
0
 62
     2
 10
-167.59899999999999
 20
75.525999999999996
 30
0.0
 70
    32
  0
VERTEX
  5
367C
  8
0
 62
     2
 10
-167.62299999999999
 20
75.5184
 30
0.0
 70
    32
  0
VERTEX
  5
367D
  8
0
 62
     2
 10
-167.64699999999999
 20
75.511099999999999
 30
0.0
 70
    32
  0
VERTEX
  5
367E
  8
0
 62
     2
 10
-167.67099999999999
 20
75.504199999999983
 30
0.0
 70
    32
  0
VERTEX
  5
367F
  8
0
 62
     2
 10
-167.69499999999999
 20
75.497600000000006
 30
0.0
 70
    32
  0
VERTEX
  5
3680
  8
0
 62
     2
 10
-167.71899999999999
 20
75.491299999999995
 30
0.0
 70
    32
  0
VERTEX
  5
3681
  8
0
 62
     2
 10
-167.74299999999999
 20
75.485500000000002
 30
0.0
 70
    32
  0
VERTEX
  5
3682
  8
0
 62
     2
 10
-167.767
 20
75.480099999999993
 30
0.0
 70
    32
  0
VERTEX
  5
3683
  8
0
 62
     2
 10
-167.791
 20
75.475099999999983
 30
0.0
 70
    32
  0
VERTEX
  5
3684
  8
0
 62
     2
 10
-167.815
 20
75.470600000000005
 30
0.0
 70
    32
  0
VERTEX
  5
3685
  8
0
 62
     2
 10
-167.839
 20
75.4666
 30
0.0
 70
    32
  0
VERTEX
  5
3686
  8
0
 62
     2
 10
-167.863
 20
75.462999999999994
 30
0.0
 70
    32
  0
VERTEX
  5
3687
  8
0
 62
     2
 10
-167.887
 20
75.459999999999994
 30
0.0
 70
    32
  0
VERTEX
  5
3688
  8
0
 62
     2
 10
-167.91099999999989
 20
75.457599999999999
 30
0.0
 70
    32
  0
VERTEX
  5
3689
  8
0
 62
     2
 10
-167.935
 20
75.455699999999993
 30
0.0
 70
    32
  0
VERTEX
  5
368A
  8
0
 62
     2
 10
-167.959
 20
75.454400000000007
 30
0.0
 70
    32
  0
VERTEX
  5
368B
  8
0
 62
     2
 10
-167.98400000000001
 20
75.453699999999998
 30
0.0
 70
    32
  0
VERTEX
  5
368C
  8
0
 62
     2
 10
-168.00800000000001
 20
75.453599999999994
 30
0.0
 70
    32
  0
VERTEX
  5
368D
  8
0
 62
     2
 10
-168.03200000000001
 20
75.4542
 30
0.0
 70
    32
  0
VERTEX
  5
368E
  8
0
 62
     2
 10
-168.05600000000001
 20
75.455500000000001
 30
0.0
 70
    32
  0
VERTEX
  5
368F
  8
0
 62
     2
 10
-168.08000000000001
 20
75.457400000000007
 30
0.0
 70
    32
  0
VERTEX
  5
3690
  8
0
 62
     2
 10
-168.10400000000001
 20
75.459999999999994
 30
0.0
 70
    32
  0
VERTEX
  5
3691
  8
0
 62
     2
 10
-168.12799999999999
 20
75.463200000000001
 30
0.0
 70
    32
  0
VERTEX
  5
3692
  8
0
 62
     2
 10
-168.15199999999999
 20
75.467100000000002
 30
0.0
 70
    32
  0
VERTEX
  5
3693
  8
0
 62
     2
 10
-168.17699999999999
 20
75.471500000000006
 30
0.0
 70
    32
  0
VERTEX
  5
3694
  8
0
 62
     2
 10
-168.20099999999999
 20
75.476500000000001
 30
0.0
 70
    32
  0
VERTEX
  5
3695
  8
0
 62
     2
 10
-168.22499999999999
 20
75.481999999999999
 30
0.0
 70
    32
  0
VERTEX
  5
3696
  8
0
 62
     2
 10
-168.249
 20
75.488100000000003
 30
0.0
 70
    32
  0
VERTEX
  5
3697
  8
0
 62
     2
 10
-168.273
 20
75.494600000000005
 30
0.0
 70
    32
  0
VERTEX
  5
3698
  8
0
 62
     2
 10
-168.297
 20
75.501599999999996
 30
0.0
 70
    32
  0
VERTEX
  5
3699
  8
0
 62
     2
 10
-168.321
 20
75.509100000000004
 30
0.0
 70
    32
  0
VERTEX
  5
369A
  8
0
 62
     2
 10
-168.345
 20
75.516900000000007
 30
0.0
 70
    32
  0
VERTEX
  5
369B
  8
0
 62
     2
 10
-168.37
 20
75.525199999999998
 30
0.0
 70
    32
  0
VERTEX
  5
369C
  8
0
 62
     2
 10
-168.39400000000001
 20
75.533900000000003
 30
0.0
 70
    32
  0
VERTEX
  5
369D
  8
0
 62
     2
 10
-168.41800000000001
 20
75.542900000000003
 30
0.0
 70
    32
  0
VERTEX
  5
369E
  8
0
 62
     2
 10
-168.44200000000001
 20
75.552300000000002
 30
0.0
 70
    32
  0
VERTEX
  5
369F
  8
0
 62
     2
 10
-168.46600000000001
 20
75.561899999999994
 30
0.0
 70
    32
  0
VERTEX
  5
36A0
  8
0
 62
     2
 10
-168.49000000000001
 20
75.571799999999996
 30
0.0
 70
    32
  0
VERTEX
  5
36A1
  8
0
 62
     2
 10
-168.51400000000001
 20
75.581999999999994
 30
0.0
 70
    32
  0
VERTEX
  5
36A2
  8
0
 62
     2
 10
-168.53800000000001
 20
75.592500000000001
 30
0.0
 70
    32
  0
VERTEX
  5
36A3
  8
0
 62
     2
 10
-168.56200000000001
 20
75.603099999999998
 30
0.0
 70
    32
  0
VERTEX
  5
36A4
  8
0
 62
     2
 10
-168.58600000000001
 20
75.614000000000004
 30
0.0
 70
    32
  0
VERTEX
  5
36A5
  8
0
 62
     2
 10
-168.61000000000001
 20
75.625
 30
0.0
 70
    32
  0
VERTEX
  5
36A6
  8
0
 62
     2
 10
-168.63399999999999
 20
75.636099999999999
 30
0.0
 70
    32
  0
VERTEX
  5
36A7
  8
0
 62
     2
 10
-168.65700000000001
 20
75.647400000000005
 30
0.0
 70
    32
  0
VERTEX
  5
36A8
  8
0
 62
     2
 10
-168.68100000000001
 20
75.658799999999985
 30
0.0
 70
    32
  0
VERTEX
  5
36A9
  8
0
 62
     2
 10
-168.70500000000001
 20
75.670199999999994
 30
0.0
 70
    32
  0
VERTEX
  5
36AA
  8
0
 62
     2
 10
-168.72900000000001
 20
75.681700000000006
 30
0.0
 70
    32
  0
VERTEX
  5
36AB
  8
0
 62
     2
 10
-168.75299999999999
 20
75.693299999999994
 30
0.0
 70
    32
  0
VERTEX
  5
36AC
  8
0
 62
     2
 10
-168.77600000000001
 20
75.704800000000006
 30
0.0
 70
    32
  0
VERTEX
  5
36AD
  8
0
 62
     2
 10
-168.80000000000001
 20
75.716300000000004
 30
0.0
 70
    32
  0
VERTEX
  5
36AE
  8
0
 62
     2
 10
-168.82400000000001
 20
75.727800000000002
 30
0.0
 70
    32
  0
VERTEX
  5
36AF
  8
0
 62
     2
 10
-168.84700000000001
 20
75.739199999999997
 30
0.0
 70
    32
  0
VERTEX
  5
36B0
  8
0
 62
     2
 10
-168.87100000000001
 20
75.750500000000002
 30
0.0
 70
    32
  0
VERTEX
  5
36B1
  8
0
 62
     2
 10
-168.89400000000001
 20
75.761700000000005
 30
0.0
 70
    32
  0
VERTEX
  5
36B2
  8
0
 62
     2
 10
-168.91800000000001
 20
75.772800000000004
 30
0.0
 70
    32
  0
VERTEX
  5
36B3
  8
0
 62
     2
 10
-168.941
 20
75.783699999999996
 30
0.0
 70
    32
  0
VERTEX
  5
36B4
  8
0
 62
     2
 10
-168.965
 20
75.794499999999999
 30
0.0
 70
    32
  0
VERTEX
  5
36B5
  8
0
 62
     2
 10
-168.988
 20
75.805000000000007
 30
0.0
 70
    32
  0
VERTEX
  5
36B6
  8
0
 62
     2
 10
-169.011
 20
75.815299999999993
 30
0.0
 70
    32
  0
VERTEX
  5
36B7
  8
0
 62
     2
 10
-169.035
 20
75.825400000000002
 30
0.0
 70
    32
  0
VERTEX
  5
36B8
  8
0
 62
     2
 10
-169.05799999999999
 20
75.835099999999997
 30
0.0
 70
    32
  0
VERTEX
  5
36B9
  8
0
 62
     2
 10
-169.08099999999999
 20
75.844599999999986
 30
0.0
 70
    32
  0
VERTEX
  5
36BA
  8
0
 62
     2
 10
-169.10400000000001
 20
75.853800000000007
 30
0.0
 70
    32
  0
VERTEX
  5
36BB
  8
0
 62
     2
 10
-169.12700000000001
 20
75.8626
 30
0.0
 70
    32
  0
VERTEX
  5
36BC
  8
0
 62
     2
 10
-169.15000000000001
 20
75.870999999999995
 30
0.0
 70
    32
  0
VERTEX
  5
36BD
  8
0
 62
     2
 10
-169.173
 20
75.879099999999994
 30
0.0
 70
    32
  0
VERTEX
  5
36BE
  8
0
 62
     2
 10
-169.196
 20
75.886700000000005
 30
0.0
 70
    32
  0
VERTEX
  5
36BF
  8
0
 62
     2
 10
-169.21899999999999
 20
75.894000000000005
 30
0.0
 70
    32
  0
VERTEX
  5
36C0
  8
0
 62
     2
 10
-169.24199999999999
 20
75.900700000000001
 30
0.0
 70
    32
  0
VERTEX
  5
36C1
  8
0
 62
     2
 10
-169.26499999999999
 20
75.906999999999996
 30
0.0
 70
    32
  0
VERTEX
  5
36C2
  8
0
 62
     2
 10
-169.28700000000001
 20
75.912700000000001
 30
0.0
 70
    32
  0
VERTEX
  5
36C3
  8
0
 62
     2
 10
-169.31
 20
75.917900000000003
 30
0.0
 70
    32
  0
VERTEX
  5
36C4
  8
0
 62
     2
 10
-169.33199999999999
 20
75.922600000000003
 30
0.0
 70
    32
  0
VERTEX
  5
36C5
  8
0
 62
     2
 10
-169.35499999999999
 20
75.926699999999997
 30
0.0
 70
    32
  0
VERTEX
  5
36C6
  8
0
 62
     2
 10
-169.37700000000001
 20
75.930199999999999
 30
0.0
 70
    32
  0
VERTEX
  5
36C7
  8
0
 62
     2
 10
-169.40000000000001
 20
75.933099999999996
 30
0.0
 70
    32
  0
VERTEX
  5
36C8
  8
0
 62
     2
 10
-169.422
 20
75.935299999999998
 30
0.0
 70
    32
  0
VERTEX
  5
36C9
  8
0
 62
     2
 10
-169.44399999999999
 20
75.936899999999994
 30
0.0
 70
    32
  0
VERTEX
  5
36CA
  8
0
 62
     2
 10
-169.46600000000001
 20
75.937700000000007
 30
0.0
 70
    32
  0
VERTEX
  5
36CB
  8
0
 62
     2
 10
-169.489
 20
75.937899999999999
 30
0.0
 70
    32
  0
VERTEX
  5
36CC
  8
0
 62
     2
 10
-169.511
 20
75.937299999999993
 30
0.0
 70
    32
  0
VERTEX
  5
36CD
  8
0
 62
     2
 10
-169.53200000000001
 20
75.935900000000004
 30
0.0
 70
    32
  0
VERTEX
  5
36CE
  8
0
 62
     2
 10
-169.554
 20
75.933800000000005
 30
0.0
 70
    32
  0
VERTEX
  5
36CF
  8
0
 62
     2
 10
-169.57599999999999
 20
75.930899999999994
 30
0.0
 70
    32
  0
VERTEX
  5
36D0
  8
0
 62
     2
 10
-169.59800000000001
 20
75.927300000000002
 30
0.0
 70
    32
  0
VERTEX
  5
36D1
  8
0
 62
     2
 10
-169.619
 20
75.923000000000002
 30
0.0
 70
    32
  0
VERTEX
  5
36D2
  8
0
 62
     2
 10
-169.64099999999999
 20
75.918000000000006
 30
0.0
 70
    32
  0
VERTEX
  5
36D3
  8
0
 62
     2
 10
-169.66300000000001
 20
75.912300000000002
 30
0.0
 70
    32
  0
VERTEX
  5
36D4
  8
0
 62
     2
 10
-169.684
 20
75.906000000000006
 30
0.0
 70
    32
  0
VERTEX
  5
36D5
  8
0
 62
     2
 10
-169.70500000000001
 20
75.899000000000001
 30
0.0
 70
    32
  0
VERTEX
  5
36D6
  8
0
 62
     2
 10
-169.727
 20
75.891300000000001
 30
0.0
 70
    32
  0
VERTEX
  5
36D7
  8
0
 62
     2
 10
-169.74799999999999
 20
75.883099999999985
 30
0.0
 70
    32
  0
VERTEX
  5
36D8
  8
0
 62
     2
 10
-169.76900000000001
 20
75.874200000000002
 30
0.0
 70
    32
  0
VERTEX
  5
36D9
  8
0
 62
     2
 10
-169.78999999999999
 20
75.864800000000002
 30
0.0
 70
    32
  0
VERTEX
  5
36DA
  8
0
 62
     2
 10
-169.81099999999989
 20
75.854799999999997
 30
0.0
 70
    32
  0
VERTEX
  5
36DB
  8
0
 62
     2
 10
-169.83199999999999
 20
75.844300000000004
 30
0.0
 70
    32
  0
VERTEX
  5
36DC
  8
0
 62
     2
 10
-169.85300000000001
 20
75.833200000000005
 30
0.0
 70
    32
  0
VERTEX
  5
36DD
  8
0
 62
     2
 10
-169.874
 20
75.821600000000004
 30
0.0
 70
    32
  0
VERTEX
  5
36DE
  8
0
 62
     2
 10
-169.89500000000001
 20
75.8095
 30
0.0
 70
    32
  0
VERTEX
  5
36DF
  8
0
 62
     2
 10
-169.916
 20
75.796899999999994
 30
0.0
 70
    32
  0
VERTEX
  5
36E0
  8
0
 62
     2
 10
-169.93700000000001
 20
75.783900000000003
 30
0.0
 70
    32
  0
VERTEX
  5
36E1
  8
0
 62
     2
 10
-169.958
 20
75.770399999999995
 30
0.0
 70
    32
  0
VERTEX
  5
36E2
  8
0
 62
     2
 10
-169.97800000000001
 20
75.756500000000003
 30
0.0
 70
    32
  0
VERTEX
  5
36E3
  8
0
 62
     2
 10
-169.999
 20
75.742099999999994
 30
0.0
 70
    32
  0
VERTEX
  5
36E4
  8
0
 62
     2
 10
-170.02000000000001
 20
75.727400000000003
 30
0.0
 70
    32
  0
VERTEX
  5
36E5
  8
0
 62
     2
 10
-170.03999999999999
 20
75.712299999999985
 30
0.0
 70
    32
  0
VERTEX
  5
36E6
  8
0
 62
     2
 10
-170.06099999999989
 20
75.696799999999996
 30
0.0
 70
    32
  0
VERTEX
  5
36E7
  8
0
 62
     2
 10
-170.08099999999999
 20
75.680999999999997
 30
0.0
 70
    32
  0
VERTEX
  5
36E8
  8
0
 62
     2
 10
-170.102
 20
75.6648
 30
0.0
 70
    32
  0
VERTEX
  5
36E9
  8
0
 62
     2
 10
-170.12200000000001
 20
75.648300000000006
 30
0.0
 70
    32
  0
VERTEX
  5
36EA
  8
0
 62
     2
 10
-170.143
 20
75.631600000000006
 30
0.0
 70
    32
  0
VERTEX
  5
36EB
  8
0
 62
     2
 10
-170.1629999999999
 20
75.614500000000007
 30
0.0
 70
    32
  0
VERTEX
  5
36EC
  8
0
 62
     2
 10
-170.184
 20
75.597200000000001
 30
0.0
 70
    32
  0
VERTEX
  5
36ED
  8
0
 62
     2
 10
-170.20400000000001
 20
75.579599999999999
 30
0.0
 70
    32
  0
VERTEX
  5
36EE
  8
0
 62
     2
 10
-170.22399999999999
 20
75.561800000000005
 30
0.0
 70
    32
  0
VERTEX
  5
36EF
  8
0
 62
     2
 10
-170.245
 20
75.543800000000005
 30
0.0
 70
    32
  0
VERTEX
  5
36F0
  8
0
 62
     2
 10
-170.26499999999999
 20
75.525499999999994
 30
0.0
 70
    32
  0
VERTEX
  5
36F1
  8
0
 62
     2
 10
-170.285
 20
75.507099999999994
 30
0.0
 70
    32
  0
VERTEX
  5
36F2
  8
0
 62
     2
 10
-170.30500000000001
 20
75.488600000000005
 30
0.0
 70
    32
  0
VERTEX
  5
36F3
  8
0
 62
     2
 10
-170.32599999999999
 20
75.469800000000006
 30
0.0
 70
    32
  0
VERTEX
  5
36F4
  8
0
 62
     2
 10
-170.34599999999989
 20
75.450999999999993
 30
0.0
 70
    32
  0
VERTEX
  5
36F5
  8
0
 62
     2
 10
-170.36600000000001
 20
75.432000000000002
 30
0.0
 70
    32
  0
VERTEX
  5
36F6
  8
0
 62
     2
 10
-170.386
 20
75.412899999999993
 30
0.0
 70
    32
  0
VERTEX
  5
36F7
  8
0
 62
     2
 10
-170.40700000000001
 20
75.393799999999999
 30
0.0
 70
    32
  0
VERTEX
  5
36F8
  8
0
 62
     2
 10
-170.42699999999999
 20
75.374499999999983
 30
0.0
 70
    32
  0
VERTEX
  5
36F9
  8
0
 62
     2
 10
-170.447
 20
75.3553
 30
0.0
 70
    32
  0
VERTEX
  5
36FA
  8
0
 62
     2
 10
-170.46700000000001
 20
75.335999999999984
 30
0.0
 70
    32
  0
VERTEX
  5
36FB
  8
0
 62
     2
 10
-170.48699999999999
 20
75.316599999999994
 30
0.0
 70
    32
  0
SEQEND
  5
36FC
  8
0
 62
     2
  0
ARC
  5
33B5
  8
0
  6
CONTINUOUS
 62
     7
 10
-178.38736635206121
 20
62.860901053808753
 30
0.0
 40
1.0
 50
90.0
 51
180.0
  0
ARC
  5
33B6
  8
0
  6
CONTINUOUS
 62
     7
 10
-157.4873663520616
 20
62.860901053808753
 30
0.0
 40
1.0
 50
0.0
 51
90.0
  0
ARC
  5
33B7
  8
0
  6
CONTINUOUS
 62
     7
 10
-150.93736635206139
 20
60.494942298044521
 30
0.0
 40
1.0
 50
0.0
 51
23.198590513628311
  0
ARC
  5
33B8
  8
0
  6
CONTINUOUS
 62
     7
 10
-184.93736635206139
 20
60.494942298044521
 30
0.0
 40
1.000000000000439
 50
156.80140948637171
 51
180.0
  0
ARC
  5
33B9
  8
0
  6
CONTINUOUS
 62
     7
 10
-153.59676251004251
 20
66.70019999999846
 30
0.0
 40
1.000000000000542
 50
23.198590513625732
 51
90.0
  0
ARC
  5
33BA
  8
0
  6
CONTINUOUS
 62
     7
 10
-182.27797019408121
 20
66.70019999999846
 30
0.0
 40
1.0
 50
90.0
 51
156.80140948635369
  0
ARC
  5
33BB
  8
0
  6
CONTINUOUS
 62
     7
 10
-189.93736635206139
 20
51.000199999998692
 30
0.0
 40
4.0
 50
90.0
 51
180.0
  0
ARC
  5
33BC
  8
0
  6
CONTINUOUS
 62
     7
 10
-203.93736635206139
 20
37.000199999998692
 30
0.0
 40
4.0
 50
90.0
 51
180.0
  0
ARC
  5
33BD
  8
0
  6
CONTINUOUS
 62
     7
 10
-189.93736635206139
 20
-20.999800000001329
 30
0.0
 40
4.0
 50
180.0
 51
270.0
  0
ARC
  5
33BE
  8
0
  6
CONTINUOUS
 62
     7
 10
-131.93736635206139
 20
-6.9998000000012972
 30
0.0
 40
4.0000000000000284
 50
270.0
 51
0.0
  0
ARC
  5
33BF
  8
0
  6
CONTINUOUS
 62
     7
 10
-134.43736635206139
 20
48.500199999998692
 30
0.0
 40
7.5
 50
180.0
 51
270.0
  0
ARC
  5
33C0
  8
0
  6
CONTINUOUS
 62
     7
 10
-201.43736635206139
 20
48.500199999998692
 30
0.0
 40
7.5
 50
270.0
 51
0.0
  0
ARC
  5
33C1
  8
0
  6
CONTINUOUS
 62
     7
 10
-201.43736635206139
 20
-18.499800000001329
 30
0.0
 40
7.5
 50
0.0
 51
90.0
  0
ARC
  5
33C2
  8
0
  6
CONTINUOUS
 62
     7
 10
-134.43736635206139
 20
-18.499800000001329
 30
0.0
 40
7.5
 50
90.0
 51
180.0
  0
ARC
  5
33C3
  8
0
  6
CONTINUOUS
 62
     7
 10
-134.43736635206139
 20
48.500199999998692
 30
0.0
 40
7.5
 50
180.0
 51
270.0
  0
ARC
  5
33C4
  8
0
  6
CONTINUOUS
 62
     7
 10
-145.93736635206139
 20
51.000199999998692
 30
0.0
 40
4.0
 50
0.0
 51
90.0
  0
ARC
  5
33C5
  8
0
  6
CONTINUOUS
 62
     7
 10
-134.43736635206139
 20
48.500199999998692
 30
0.0
 40
7.5
 50
180.0
 51
270.0
  0
ARC
  5
33C6
  8
0
  6
CONTINUOUS
 62
     7
 10
-131.93736635206139
 20
-6.9998000000012972
 30
0.0
 40
4.0000000000000284
 50
270.0
 51
0.0
  0
ARC
  5
33C7
  8
0
  6
CONTINUOUS
 62
     7
 10
-145.93736635206139
 20
-20.999800000001329
 30
0.0
 40
4.0
 50
270.0
 51
0.0
  0
ARC
  5
33C8
  8
0
  6
CONTINUOUS
 62
     7
 10
-134.43736635206139
 20
-18.499800000001329
 30
0.0
 40
7.5
 50
90.0
 51
180.0
  0
ARC
  5
33C9
  8
0
  6
CONTINUOUS
 62
     7
 10
-145.93736635206139
 20
-20.999800000001329
 30
0.0
 40
4.0
 50
270.0
 51
0.0
  0
ARC
  5
33CA
  8
0
  6
CONTINUOUS
 62
     7
 10
-131.93736635206139
 20
-6.9998000000012972
 30
0.0
 40
4.0000000000000284
 50
270.0
 51
0.0
  0
ARC
  5
33CB
  8
0
  6
CONTINUOUS
 62
     7
 10
-134.43736635206139
 20
-18.499800000001329
 30
0.0
 40
7.5
 50
90.0
 51
180.0
  0
ARC
  5
33CC
  8
0
  6
CONTINUOUS
 62
     7
 10
-189.93736635206139
 20
-20.999800000001329
 30
0.0
 40
4.0
 50
180.0
 51
270.0
  0
ARC
  5
33CD
  8
0
  6
CONTINUOUS
 62
     7
 10
-203.93736635206139
 20
-6.9998000000012972
 30
0.0
 40
4.0
 50
180.0
 51
270.0
  0
ARC
  5
33CE
  8
0
  6
CONTINUOUS
 62
     7
 10
-203.93736635206139
 20
37.000199999998692
 30
0.0
 40
4.0
 50
90.0
 51
180.0
  0
ARC
  5
33CF
  8
0
  6
CONTINUOUS
 62
     7
 10
-189.93736635206139
 20
51.000199999998692
 30
0.0
 40
4.0
 50
90.0
 51
180.0
  0
ARC
  5
33D0
  8
0
  6
CONTINUOUS
 62
     7
 10
-201.43736635206139
 20
-18.499800000001329
 30
0.0
 40
7.5
 50
0.0
 51
90.0
  0
ARC
  5
33D1
  8
0
  6
CONTINUOUS
 62
     7
 10
-201.43736635206139
 20
48.500199999998692
 30
0.0
 40
7.5
 50
270.0
 51
0.0
  0
ARC
  5
33D2
  8
0
  6
CONTINUOUS
 62
     7
 10
-189.93736635206139
 20
51.000199999998692
 30
0.0
 40
4.0
 50
90.0
 51
180.0
  0
ARC
  5
33D3
  8
0
  6
CONTINUOUS
 62
     7
 10
-203.93736635206139
 20
37.000199999998692
 30
0.0
 40
4.0
 50
90.0
 51
180.0
  0
ARC
  5
33D4
  8
0
  6
CONTINUOUS
 62
     7
 10
-203.93736635206139
 20
-6.9998000000012972
 30
0.0
 40
4.0
 50
180.0
 51
270.0
  0
ARC
  5
33D5
  8
0
  6
CONTINUOUS
 62
     7
 10
-189.93736635206139
 20
-20.999800000001329
 30
0.0
 40
4.0
 50
180.0
 51
270.0
  0
ARC
  5
33D6
  8
0
  6
CONTINUOUS
 62
     7
 10
-201.43736635206139
 20
48.500199999998692
 30
0.0
 40
7.5
 50
270.0
 51
0.0
  0
ARC
  5
33D7
  8
0
  6
CONTINUOUS
 62
     7
 10
-201.43736635206139
 20
-18.499800000001329
 30
0.0
 40
7.5
 50
0.0
 51
90.0
  0
ARC
  5
33D8
  8
0
  6
CONTINUOUS
 62
     7
 10
-159.3358427370836
 20
64.980987482143064
 30
0.0
 40
1.0000000000003051
 50
36.336659136463531
 51
90.0
  0
ARC
  5
33D9
  8
0
  6
CONTINUOUS
 62
     7
 10
-176.53888996704021
 20
64.980987482143064
 30
0.0
 40
1.0
 50
90.0
 51
143.6633408635326
  0
ARC
  5
33DA
  8
0
  6
CONTINUOUS
 62
     7
 10
-201.93736635206139
 20
-18.999800000001329
 30
0.0
 40
6.0
 50
180.0
 51
270.0
  0
ARC
  5
33DB
  8
0
  6
CONTINUOUS
 62
     7
 10
-133.93736635206139
 20
-18.999800000001329
 30
0.0
 40
6.0
 50
270.0
 51
0.0
  0
ARC
  5
33DC
  8
0
  6
CONTINUOUS
 62
     7
 10
-133.93736635206139
 20
49.000199999998692
 30
0.0
 40
5.9999999999999849
 50
0.0
 51
90.0
  0
ARC
  5
33DD
  8
0
  6
CONTINUOUS
 62
     7
 10
-201.93736635206139
 20
49.000199999998692
 30
0.0
 40
6.0
 50
90.0
 51
180.0
  0
ARC
  5
33DE
  8
0
  6
CONTINUOUS
 62
     7
 10
-182.27797019408121
 20
66.70019999999846
 30
0.0
 40
1.0
 50
90.0
 51
156.80140948635369
  0
ARC
  5
33DF
  8
0
  6
CONTINUOUS
 62
     7
 10
-153.59676251004251
 20
66.70019999999846
 30
0.0
 40
1.000000000000542
 50
23.198590513625732
 51
90.0
  0
ARC
  5
33E0
  8
0
  6
CONTINUOUS
 62
     7
 10
-184.93736635206139
 20
60.494942298044521
 30
0.0
 40
1.000000000000439
 50
156.80140948637171
 51
180.0
  0
ARC
  5
33E1
  8
0
  6
CONTINUOUS
 62
     7
 10
-150.93736635206139
 20
60.494942298044521
 30
0.0
 40
1.0
 50
0.0
 51
23.198590513628311
  0
ARC
  5
33E2
  8
0
  6
CONTINUOUS
 62
     7
 10
-131.93736635206139
 20
37.000199999998692
 30
0.0
 40
3.9999999999999849
 50
0.0
 51
90.0
  0
ARC
  5
33E3
  8
0
  6
CONTINUOUS
 62
     7
 10
-131.93736635206139
 20
37.000199999998692
 30
0.0
 40
3.9999999999999849
 50
0.0
 51
90.0
  0
LINE
  5
37BE
  8
0
  6
CONTINUOUS
 62
     7
 10
148.60931548233961
 20
96.160735144152284
 30
0.0
 11
148.60931548233961
 21
114.7396638024763
 31
0.0
  0
LINE
  5
37BF
  8
0
  6
CONTINUOUS
 62
     7
 10
145.11130503696251
 20
90.660735144152284
 30
0.0
 11
137.8446215838469
 21
90.660735144152284
 31
0.0
  0
LINE
  5
37C0
  8
0
  6
CONTINUOUS
 62
     7
 10
145.61130503696251
 20
130.66073514415231
 30
0.0
 11
145.61130503696251
 21
91.160735144152284
 31
0.0
  0
LINE
  5
37C1
  8
0
  6
CONTINUOUS
 62
     7
 10
148.11130503696251
 20
95.660735144152284
 30
0.0
 11
145.91130503696269
 21
95.660735144152284
 31
0.0
  0
LINE
  5
37C2
  8
0
  6
CONTINUOUS
 62
     7
 10
148.61130503696251
 20
130.66073514415231
 30
0.0
 11
148.61130503696251
 21
96.160735144152284
 31
0.0
  0
LINE
  5
37C3
  8
0
  6
CONTINUOUS
 62
     7
 10
148.61130503696251
 20
96.160735144152284
 30
0.0
 11
148.11130503696251
 21
95.660735144152284
 31
0.0
  0
LINE
  5
37C4
  8
0
  6
CONTINUOUS
 62
     7
 10
145.61130503696251
 20
91.160735144152284
 30
0.0
 11
145.11130503696251
 21
90.660735144152284
 31
0.0
  0
LINE
  5
37C5
  8
0
  6
DASH_CENTER
 62
     1
 10
185.6093154823397
 20
130.66073514415231
 30
0.0
 11
139.94601428980849
 21
130.66073514415231
 31
0.0
  0
LINE
  5
37C6
  8
0
  6
CONTINUOUS
 62
     7
 10
140.41299013469461
 20
170.66073514415231
 30
0.0
 11
145.11130503696251
 21
170.66073514415231
 31
0.0
  0
LINE
  5
37C7
  8
0
  6
CONTINUOUS
 62
     7
 10
148.60931548233961
 20
121.1607351441523
 30
0.0
 11
152.60931548233961
 21
121.1607351441523
 31
0.0
  0
LINE
  5
37C8
  8
0
  6
CONTINUOUS
 62
     7
 10
180.10931548233961
 20
140.16073514415231
 30
0.0
 11
148.60931548233961
 21
140.16073514415231
 31
0.0
  0
LINE
  5
37C9
  8
0
  6
CONTINUOUS
 62
     7
 10
180.6093154823397
 20
121.6607351441523
 30
0.0
 11
180.6093154823397
 21
139.66073514415231
 31
0.0
  0
LINE
  5
37CA
  8
0
  6
CONTINUOUS
 62
     7
 10
152.60931548233961
 20
121.1607351441523
 30
0.0
 11
180.10931548233961
 21
121.1607351441523
 31
0.0
  0
LINE
  5
37CB
  8
0
  6
CONTINUOUS
 62
     7
 10
180.6093154823397
 20
139.66073514415231
 30
0.0
 11
180.10931548233961
 21
140.16073514415231
 31
0.0
  0
LINE
  5
37CC
  8
0
  6
CONTINUOUS
 62
     7
 10
180.10931548233961
 20
121.1607351441523
 30
0.0
 11
180.6093154823397
 21
121.6607351441523
 31
0.0
  0
LINE
  5
37CD
  8
0
  6
CONTINUOUS
 62
     7
 10
180.10931548233961
 20
121.1607351441523
 30
0.0
 11
180.6093154823397
 21
121.6607351441523
 31
0.0
  0
LINE
  5
37CE
  8
0
  6
CONTINUOUS
 62
     7
 10
180.6093154823397
 20
139.66073514415231
 30
0.0
 11
180.10931548233961
 21
140.16073514415231
 31
0.0
  0
LINE
  5
37CF
  8
0
  6
CONTINUOUS
 62
     7
 10
152.60931548233961
 20
121.1607351441523
 30
0.0
 11
180.10931548233961
 21
121.1607351441523
 31
0.0
  0
LINE
  5
37D0
  8
0
  6
CONTINUOUS
 62
     7
 10
180.6093154823397
 20
121.6607351441523
 30
0.0
 11
180.6093154823397
 21
142.66073514415231
 31
0.0
  0
LINE
  5
37D1
  8
0
  6
CONTINUOUS
 62
     7
 10
180.10931548233961
 20
140.16073514415231
 30
0.0
 11
148.60931548233961
 21
140.16073514415231
 31
0.0
  0
LINE
  5
37D2
  8
0
  6
CONTINUOUS
 62
     7
 10
148.60931548233961
 20
121.1607351441523
 30
0.0
 11
152.60931548233961
 21
121.1607351441523
 31
0.0
  0
LINE
  5
37D3
  8
0
  6
CONTINUOUS
 62
     7
 10
138.11130503696251
 20
170.66073514415231
 30
0.0
 11
145.11130503696251
 21
170.66073514415231
 31
0.0
  0
LINE
  5
37D4
  8
0
  6
CONTINUOUS
 62
     7
 10
145.61130503696251
 20
170.16073514415231
 30
0.0
 11
145.61130503696251
 21
130.66073514415231
 31
0.0
  0
LINE
  5
37D5
  8
0
  6
CONTINUOUS
 62
     7
 10
145.91130503696269
 20
165.66073514415231
 30
0.0
 11
148.11130503696251
 21
165.66073514415231
 31
0.0
  0
LINE
  5
37D6
  8
0
  6
CONTINUOUS
 62
     7
 10
148.61130503696251
 20
165.16073514415231
 30
0.0
 11
148.61130503696251
 21
130.66073514415231
 31
0.0
  0
LINE
  5
37D7
  8
0
  6
CONTINUOUS
 62
     7
 10
148.11130503696251
 20
165.66073514415231
 30
0.0
 11
148.61130503696251
 21
165.16073514415231
 31
0.0
  0
LINE
  5
37D8
  8
0
  6
CONTINUOUS
 62
     7
 10
145.11130503696251
 20
170.66073514415231
 30
0.0
 11
145.61130503696251
 21
170.16073514415231
 31
0.0
  0
ARC
  5
37D9
  8
0
  6
CONTINUOUS
 62
     7
 10
145.91130503696269
 20
95.360735144153992
 30
0.0
 40
0.2999999999982919
 50
90.0
 51
180.0
  0
ARC
  5
37DA
  8
0
  6
CONTINUOUS
 62
     7
 10
145.91130503696269
 20
165.9607351441517
 30
0.0
 40
0.3000000000001819
 50
180.0
 51
270.0
  0
LINE
  5
37DB
  8
0
  6
DASH_CENTER
 62
     1
 10
229.1225259272417
 20
152.04250658791261
 30
0.0
 11
229.1225259272417
 21
109.0503743978083
 31
0.0
  0
LINE
  5
37DC
  8
0
 10
226.1225259272417
 20
142.66073514415231
 30
0.0
 11
226.1225259272417
 21
136.6607351441524
 31
0.0
  0
LINE
  5
37DD
  8
0
 10
232.12252592724161
 20
142.66073514415231
 30
0.0
 11
232.1225259272417
 21
136.6607351441524
 31
0.0
  0
LINE
  5
37DE
  8
0
  6
DASH_CENTER
 62
     1
 10
248.3183261071317
 20
130.66073514415231
 30
0.0
 11
207.8452526267522
 21
130.66073514415231
 31
0.0
  0
ARC
  5
37DF
  8
0
 10
229.1225259272417
 20
130.66073514415231
 30
0.0
 40
9.5
 50
108.4084801705864
 51
71.591519829413585
  0
LINE
  5
37E0
  8
0
  6
CONTINUOUS
 62
     7
 10
158.6093154823397
 20
140.16073514415231
 30
0.0
 11
158.6093154823397
 21
142.66073514415231
 31
0.0
  0
LINE
  5
37E1
  8
0
  6
DASH_CENTER
 62
     1
 10
185.6093154823397
 20
185.20989247196019
 30
0.0
 11
152.08738766082109
 21
185.20989247196019
 31
0.0
  0
LINE
  5
37E2
  8
0
  6
CONTINUOUS
 62
     7
 10
180.6093154823397
 20
188.20989247196019
 30
0.0
 11
158.6093154823397
 21
188.20989247196019
 31
0.0
  0
LINE
  5
37E3
  8
0
  6
CONTINUOUS
 62
     7
 10
180.6093154823397
 20
182.20989247196019
 30
0.0
 11
158.6093154823397
 21
182.2098924719601
 31
0.0
  0
LINE
  5
37E4
  8
0
  6
CONTINUOUS
 62
     7
 10
158.6093154823397
 20
182.20989247196019
 30
0.0
 11
158.6093154823397
 21
188.20989247196019
 31
0.0
  0
CIRCLE
  5
37E5
  8
0
  6
CONTINUOUS
 62
     2
 10
229.1225259272417
 20
130.66073514415231
 30
0.0
 40
2.5
  0
CIRCLE
  5
37E6
  8
0
  6
CONTINUOUS
 62
     7
 10
229.1225259272417
 20
130.66073514415231
 30
0.0
 40
2.0
  0
LINE
  5
37E7
  8
0
  6
CONTINUOUS
 62
     7
 10
226.1225259272417
 20
136.66073514415231
 30
0.0
 11
232.12252592724181
 21
136.6607351441524
 31
0.0
  0
LINE
  5
37E8
  8
0
  6
CONTINUOUS
 62
     7
 10
158.6093154823397
 20
142.66073514415231
 30
0.0
 11
180.6093154823397
 21
142.66073514415231
 31
0.0
  0
LINE
  5
37E9
  8
0
  6
CONTINUOUS
 62
     7
 10
226.1225259272417
 20
142.66073514415231
 30
0.0
 11
232.1225259272417
 21
142.66073514415231
 31
0.0
  0
LINE
  5
37EA
  8
0
  6
CONTINUOUS
 62
     7
 10
180.6093154823397
 20
182.2098924719601
 30
0.0
 11
180.6093154823397
 21
188.20989247196019
 31
0.0
  0
ARC
  5
37EB
  8
0
 10
158.6093154823397
 20
185.20989247196019
 30
0.0
 40
3.0
 50
90.0
 51
270.0
  0
ENDSEC
  0
EOF
