  0
SECTION
  2
HEADER
  9
$ACADVER
  1
AC1009
  9
$INSBASE
 10
0.0
 20
0.0
 30
0.0
  9
$EXTMIN
 10
-212.9512280124421
 20
-140.00882176889689
 30
-0.0015258207003583
  9
$EXTMAX
 10
246.04923561996111
 20
206.04752594913461
 30
0.0000000349246037
  9
$LIMMIN
 10
0.0
 20
0.0
  9
$LIMMAX
 10
12.0
 20
9.0
  9
$ORTHOMODE
 70
     0
  9
$REGENMODE
 70
     1
  9
$FILLMODE
 70
     1
  9
$QTEXTMODE
 70
     0
  9
$MIRRTEXT
 70
     1
  9
$DRAGMODE
 70
     2
  9
$LTSCALE
 40
1.0
  9
$OSMODE
 70
    37
  9
$ATTMODE
 70
     1
  9
$TEXTSIZE
 40
0.2
  9
$TRACEWID
 40
0.05
  9
$TEXTSTYLE
  7
STANDARD
  9
$CLAYER
  8
0
  9
$CELTYPE
  6
BYLAYER
  9
$CECOLOR
 62
   256
  9
$DIMSCALE
 40
1.0
  9
$DIMASZ
 40
0.18
  9
$DIMEXO
 40
0.0625
  9
$DIMDLI
 40
0.38
  9
$DIMRND
 40
0.0
  9
$DIMDLE
 40
0.0
  9
$DIMEXE
 40
0.18
  9
$DIMTP
 40
0.0
  9
$DIMTM
 40
0.0
  9
$DIMTXT
 40
0.18
  9
$DIMCEN
 40
0.09
  9
$DIMTSZ
 40
0.0
  9
$DIMTOL
 70
     0
  9
$DIMLIM
 70
     0
  9
$DIMTIH
 70
     1
  9
$DIMTOH
 70
     1
  9
$DIMSE1
 70
     0
  9
$DIMSE2
 70
     0
  9
$DIMTAD
 70
     0
  9
$DIMZIN
 70
     0
  9
$DIMBLK
  1

  9
$DIMASO
 70
     1
  9
$DIMSHO
 70
     1
  9
$DIMPOST
  1

  9
$DIMAPOST
  1

  9
$DIMALT
 70
     0
  9
$DIMALTD
 70
     2
  9
$DIMALTF
 40
25.399999999999999
  9
$DIMLFAC
 40
1.0
  9
$DIMTOFL
 70
     0
  9
$DIMTVP
 40
0.0
  9
$DIMTIX
 70
     0
  9
$DIMSOXD
 70
     0
  9
$DIMSAH
 70
     0
  9
$DIMBLK1
  1

  9
$DIMBLK2
  1

  9
$DIMSTYLE
  2
STANDARD
  9
$DIMCLRD
 70
     0
  9
$DIMCLRE
 70
     0
  9
$DIMCLRT
 70
     0
  9
$DIMTFAC
 40
1.0
  9
$DIMGAP
 40
0.09
  9
$LUNITS
 70
     2
  9
$LUPREC
 70
     4
  9
$SKETCHINC
 40
0.1
  9
$FILLETRAD
 40
0.5
  9
$AUNITS
 70
     0
  9
$AUPREC
 70
     0
  9
$MENU
  1
.
  9
$ELEVATION
 40
0.0
  9
$PELEVATION
 40
0.0
  9
$THICKNESS
 40
0.0
  9
$LIMCHECK
 70
     0
  9
$BLIPMODE
 70
     0
  9
$CHAMFERA
 40
0.5
  9
$CHAMFERB
 40
0.5
  9
$SKPOLY
 70
     0
  9
$TDCREATE
 40
2457042.471785116
  9
$TDUPDATE
 40
2457291.4122201158
  9
$TDINDWG
 40
0.0267054514
  9
$TDUSRTIMER
 40
0.0267052315
  9
$USRTIMER
 70
     1
  9
$ANGBASE
 50
0.0
  9
$ANGDIR
 70
     0
  9
$PDMODE
 70
     0
  9
$PDSIZE
 40
0.0
  9
$PLINEWID
 40
0.0
  9
$COORDS
 70
     1
  9
$SPLFRAME
 70
     0
  9
$SPLINETYPE
 70
     6
  9
$SPLINESEGS
 70
     8
  9
$ATTDIA
 70
     1
  9
$ATTREQ
 70
     1
  9
$HANDLING
 70
     1
  9
$HANDSEED
  5
3151
  9
$SURFTAB1
 70
     6
  9
$SURFTAB2
 70
     6
  9
$SURFTYPE
 70
     6
  9
$SURFU
 70
     6
  9
$SURFV
 70
     6
  9
$UCSNAME
  2

  9
$UCSORG
 10
0.0
 20
0.0
 30
0.0
  9
$UCSXDIR
 10
1.0
 20
0.0
 30
0.0
  9
$UCSYDIR
 10
0.0
 20
1.0
 30
0.0
  9
$PUCSNAME
  2

  9
$PUCSORG
 10
0.0
 20
0.0
 30
0.0
  9
$PUCSXDIR
 10
1.0
 20
0.0
 30
0.0
  9
$PUCSYDIR
 10
0.0
 20
1.0
 30
0.0
  9
$USERI1
 70
     0
  9
$USERI2
 70
     0
  9
$USERI3
 70
     0
  9
$USERI4
 70
     0
  9
$USERI5
 70
     0
  9
$USERR1
 40
18.100000000000001
  9
$USERR2
 40
0.0
  9
$USERR3
 40
0.0
  9
$USERR4
 40
0.0
  9
$USERR5
 40
0.0
  9
$WORLDVIEW
 70
     1
  9
$SHADEDGE
 70
     3
  9
$SHADEDIF
 70
    70
  9
$TILEMODE
 70
     1
  9
$MAXACTVP
 70
    64
  9
$PLIMCHECK
 70
     0
  9
$PEXTMIN
 10
1.0000000000000000E+020
 20
1.0000000000000000E+020
 30
1.0000000000000000E+020
  9
$PEXTMAX
 10
-1.0000000000000000E+020
 20
-1.0000000000000000E+020
 30
-1.0000000000000000E+020
  9
$PLIMMIN
 10
0.0
 20
0.0
  9
$PLIMMAX
 10
12.0
 20
9.0
  9
$UNITMODE
 70
     0
  9
$VISRETAIN
 70
     1
  9
$PLINEGEN
 70
     0
  9
$PSLTSCALE
 70
     1
  0
ENDSEC
  0
SECTION
  2
TABLES
  0
TABLE
  2
VPORT
 70
     1
  0
VPORT
  2
*ACTIVE
 70
     0
 10
0.0
 20
0.0
 11
1.0
 21
1.0
 12
16.549003803759501
 22
33.019352090118844
 13
0.0
 23
0.0
 14
0.5
 24
0.5
 15
0.5
 25
0.5
 16
0.0
 26
0.0
 36
1.0
 17
0.0
 27
0.0
 37
0.0
 40
348.44294321953532
 41
2.0195627157652472
 42
50.0
 43
0.0
 44
0.0
 50
0.0
 51
0.0
 71
     0
 72
   100
 73
     1
 74
     2
 75
     0
 76
     0
 77
     0
 78
     0
  0
ENDTAB
  0
TABLE
  2
LTYPE
 70
     3
  0
LTYPE
  2
CONTINUOUS
 70
     0
  3
Solid line
 72
    65
 73
     0
 40
0.0
  0
LTYPE
  2
DASH_CENTER
 70
     0
  3
Dash_Center
 72
    65
 73
     4
 40
14.0
 49
11.0
 49
-1.0
 49
1.0
 49
-1.0
  0
ENDTAB
  0
TABLE
  2
LAYER
 70
     1
  0
LAYER
  2
0
 70
     0
 62
     7
  6
CONTINUOUS
  0
ENDTAB
  0
TABLE
  2
STYLE
 70
     2
  0
STYLE
  2
STANDARD
 70
     0
 40
0.0
 41
1.0
 50
0.0
 71
     0
 42
0.2
  3
txt
  4

  0
ENDTAB
  0
TABLE
  2
VIEW
 70
     0
  0
ENDTAB
  0
TABLE
  2
UCS
 70
     0
  0
ENDTAB
  0
TABLE
  2
APPID
 70
     5
  0
APPID
  2
ACAD
 70
     0
  0
APPID
  2
ACADANNOTATIVE
 70
     0
  0
APPID
  2
ACAD_EXEMPT_FROM_CAD_STANDARDS
 70
     0
  0
APPID
  2
ACAD_MLEADERVER
 70
     0
  0
APPID
  2
ACAD_NAV_VCDISPLAY
 70
     0
  0
ENDTAB
  0
TABLE
  2
DIMSTYLE
 70
     3
  0
DIMSTYLE
  2
STANDARD
 70
     0
  3

  4

  5

  6

  7

 40
1.0
 41
0.18
 42
0.0625
 43
0.38
 44
0.18
 45
0.0
 46
0.0
 47
0.0
 48
0.0
140
0.18
141
0.09
142
0.0
143
25.399999999999999
144
1.0
145
0.0
146
1.0
147
0.09
 71
     0
 72
     0
 73
     1
 74
     1
 75
     0
 76
     0
 77
     0
 78
     0
170
     0
171
     2
172
     0
173
     0
174
     0
175
     0
176
     0
177
     0
178
     0
  0
ENDTAB
  0
ENDSEC
  0
SECTION
  2
BLOCKS
  0
BLOCK
  8
0
  2
$MODEL_SPACE
 70
     0
 10
0.0
 20
0.0
 30
0.0
  3
$MODEL_SPACE
  1

  0
ENDBLK
  5
303B
  8
0
  0
BLOCK
 67
     1
  8
0
  2
$PAPER_SPACE
 70
     0
 10
0.0
 20
0.0
 30
0.0
  3
$PAPER_SPACE
  1

  0
ENDBLK
  5
3037
 67
     1
  8
0
  0
ENDSEC
  0
SECTION
  2
ENTITIES
  0
LINE
  5
28AA
  8
0
  6
CONTINUOUS
 62
     7
 10
-127.9374120748984
 20
37.000199999998692
 30
0.0
 11
-127.9374120748984
 21
-6.9998000000012972
 31
0.0
  0
LINE
  5
28AB
  8
0
  6
CONTINUOUS
 62
     7
 10
-127.9374120748984
 20
37.000199999998692
 30
0.0
 11
-127.9374120748984
 21
-6.9998000000012972
 31
0.0
  0
LINE
  5
28AC
  8
0
  6
CONTINUOUS
 62
     7
 10
-207.93741207489839
 20
-6.9998000000012972
 30
0.0
 11
-207.93741207489839
 21
37.000199999998692
 31
0.0
  0
LINE
  5
28AD
  8
0
  6
CONTINUOUS
 62
     7
 10
-207.93741207489839
 20
-6.9998000000012972
 30
0.0
 11
-207.93741207489839
 21
37.000199999998692
 31
0.0
  0
LINE
  5
28AE
  8
0
  6
CONTINUOUS
 62
     7
 10
-156.10065875844469
 20
60.700200000000351
 30
0.0
 11
-149.95870411243621
 21
60.700200000000351
 31
0.0
  0
LINE
  5
28AF
  8
0
  6
CONTINUOUS
 62
     7
 10
-153.43741207491561
 20
55.700199999998517
 30
0.0
 11
-149.93741207489839
 21
55.700199999998517
 31
0.0
  0
LINE
  5
28B0
  8
0
  6
CONTINUOUS
 62
     7
 10
-185.93741207489839
 20
55.700199999998517
 30
0.0
 11
-182.43741207491561
 21
55.700199999998517
 31
0.0
  0
LINE
  5
28B2
  8
0
  6
CONTINUOUS
 62
     7
 10
-149.93741207489839
 20
60.494942298044521
 30
0.0
 11
-149.93741207489839
 21
55.700199999998517
 31
0.0
  0
LINE
  5
28B3
  8
0
  6
CONTINUOUS
 62
     7
 10
-152.67766320286071
 20
67.094119298577539
 30
0.0
 11
-150.01826704487979
 21
60.888861596623542
 31
0.0
  0
LINE
  5
28B4
  8
0
  6
CONTINUOUS
 62
     7
 10
-182.27801591691829
 20
67.700199999998517
 30
0.0
 11
-170.4874120748984
 21
67.700199999998517
 31
0.0
  0
LINE
  5
28B5
  8
0
  6
CONTINUOUS
 62
     7
 10
-185.8565571049169
 20
60.888861596623542
 30
0.0
 11
-183.19716094693601
 21
67.094119298577539
 31
0.0
  0
LINE
  5
28B6
  8
0
  6
CONTINUOUS
 62
     7
 10
-185.93741207489839
 20
55.700199999998517
 30
0.0
 11
-185.93741207489839
 21
60.494942298044521
 31
0.0
  0
LINE
  5
28B7
  8
0
  6
CONTINUOUS
 62
     7
 10
-185.9161200373614
 20
60.700200000000351
 30
0.0
 11
-179.77416539138761
 21
60.700200000000351
 31
0.0
  0
LINE
  5
28B8
  8
0
  6
DASH_CENTER
 62
     1
 10
-194.21065972383479
 20
41.273447648933249
 30
0.0
 11
-205.30377473275479
 21
52.366562657851432
 31
0.0
  0
LINE
  5
28B9
  8
0
  6
DASH_CENTER
 62
     1
 10
-141.66416442596559
 20
-11.27304764893676
 30
0.0
 11
-130.57104941704659
 21
-22.36616265785673
 31
0.0
  0
LINE
  5
28BA
  8
0
  6
DASH_CENTER
 62
     1
 10
-194.210659723833
 20
-11.273047648937681
 30
0.0
 11
-205.30377473275021
 21
-22.366162657857629
 31
0.0
  0
LINE
  5
28BB
  8
0
  6
DASH_CENTER
 62
     1
 10
-141.66416442596289
 20
41.273447648931437
 30
0.0
 11
-130.57104941704301
 21
52.366562657850523
 31
0.0
  0
LINE
  5
28BC
  8
0
  6
CONTINUOUS
 62
     7
 10
-127.9374120748984
 20
45.000199999998678
 30
0.0
 11
-127.9374120748984
 21
-14.999800000001301
 31
0.0
  0
LINE
  5
28BD
  8
0
  6
CONTINUOUS
 62
     7
 10
-207.93741207489839
 20
49.000199999998699
 30
0.0
 11
-207.93741207489839
 21
-18.999800000001301
 31
0.0
  0
LINE
  5
28BE
  8
0
  6
CONTINUOUS
 62
     7
 10
-201.93741207489839
 20
-24.999800000001329
 30
0.0
 11
-133.93741207489839
 21
-24.999800000001329
 31
0.0
  0
LINE
  5
28BF
  8
0
  6
CONTINUOUS
 62
     7
 10
-127.9374120748984
 20
-18.999800000001301
 30
0.0
 11
-127.9374120748984
 21
49.000199999998699
 31
0.0
  0
LINE
  5
28C0
  8
0
  6
CONTINUOUS
 62
     7
 10
-165.38741207489841
 20
75.36092331492101
 30
0.0
 11
-165.38741207489841
 21
65.980987482143178
 31
0.0
  0
LINE
  5
28C1
  8
0
  6
CONTINUOUS
 62
     7
 10
-170.4874120748984
 20
75.316649925085713
 30
0.0
 11
-170.4874120748984
 21
65.980987482142282
 31
0.0
  0
LINE
  5
28C2
  8
0
  6
CONTINUOUS
 62
     7
 10
-178.52156604233861
 20
63.860901053808583
 30
0.0
 11
-157.36507257985559
 21
63.860901053808583
 31
0.0
  0
LINE
  5
28C3
  8
0
  6
CONTINUOUS
 62
     7
 10
-176.53893568987721
 20
65.980987482143178
 30
0.0
 11
-159.3358884599206
 21
65.980987482143178
 31
0.0
  0
LINE
  5
28C4
  8
0
  6
CONTINUOUS
 62
     7
 10
-178.74951835657379
 20
63.860901053808583
 30
0.0
 11
-157.12530579322581
 21
63.860901053808583
 31
0.0
  0
LINE
  5
28C5
  8
0
  6
CONTINUOUS
 62
     7
 10
-177.34448502375869
 20
65.573516190885243
 30
0.0
 11
-178.74951835657379
 21
63.860901053808583
 31
0.0
  0
LINE
  5
28C6
  8
0
  6
CONTINUOUS
 62
     7
 10
-157.12530579322299
 20
63.860901053808583
 30
0.0
 11
-158.530339126039
 21
65.573516190885243
 31
0.0
  0
LINE
  5
28C7
  8
0
  6
CONTINUOUS
 62
     7
 10
-178.2544468787049
 20
63.860901053808583
 30
0.0
 11
-157.62037727112639
 21
63.860901053808583
 31
0.0
  0
LINE
  5
28C8
  8
0
  6
CONTINUOUS
 62
     7
 10
-203.43741207489839
 20
36.500199999998692
 30
0.0
 11
-203.43741207489839
 21
35.200199999999427
 31
0.0
  0
LINE
  5
28C9
  8
0
  6
CONTINUOUS
 62
     7
 10
-203.43741207489839
 20
36.500199999998692
 30
0.0
 11
-203.43741207489839
 21
37.800199999998888
 31
0.0
  0
LINE
  5
28CA
  8
0
  6
CONTINUOUS
 62
     7
 10
-203.43741207489839
 20
36.500199999998692
 30
0.0
 11
-202.13741207489721
 21
36.500199999998692
 31
0.0
  0
LINE
  5
28CB
  8
0
  6
CONTINUOUS
 62
     7
 10
-203.43741207489839
 20
36.500199999998692
 30
0.0
 11
-204.73741207489849
 21
36.500199999998692
 31
0.0
  0
LINE
  5
28CC
  8
0
  6
CONTINUOUS
 62
     7
 10
-189.43741207489839
 20
-20.499800000001329
 30
0.0
 11
-188.13741207489699
 21
-20.499800000001329
 31
0.0
  0
LINE
  5
28CD
  8
0
  6
CONTINUOUS
 62
     7
 10
-189.43741207489839
 20
-20.499800000001329
 30
0.0
 11
-190.7374120748984
 21
-20.499800000001329
 31
0.0
  0
LINE
  5
28CE
  8
0
  6
CONTINUOUS
 62
     7
 10
-189.43741207489839
 20
-20.499800000001329
 30
0.0
 11
-189.43741207489839
 21
-19.199800000001119
 31
0.0
  0
LINE
  5
28CF
  8
0
  6
CONTINUOUS
 62
     7
 10
-189.43741207489839
 20
-20.499800000001329
 30
0.0
 11
-189.43741207489839
 21
-21.799800000000531
 31
0.0
  0
LINE
  5
28D0
  8
0
  6
CONTINUOUS
 62
     7
 10
-193.93741207489839
 20
-20.999800000001329
 30
0.0
 11
-193.93741207489839
 21
-18.499800000001301
 31
0.0
  0
LINE
  5
28D1
  8
0
  6
CONTINUOUS
 62
     7
 10
-201.43741207489839
 20
41.000199999998692
 30
0.0
 11
-203.93741207489839
 21
41.000199999998692
 31
0.0
  0
LINE
  5
28D2
  8
0
  6
CONTINUOUS
 62
     7
 10
-201.43741207489839
 20
-10.999800000001301
 30
0.0
 11
-203.93741207489839
 21
-10.999800000001301
 31
0.0
  0
LINE
  5
28D3
  8
0
  6
CONTINUOUS
 62
     7
 10
-193.93741207489839
 20
48.500199999998692
 30
0.0
 11
-193.93741207489839
 21
51.000199999998699
 31
0.0
  0
LINE
  5
28D4
  8
0
  6
CONTINUOUS
 62
     7
 10
-207.93741207489839
 20
-6.9998000000012972
 30
0.0
 11
-207.93741207489839
 21
37.000199999998692
 31
0.0
  0
LINE
  5
28D5
  8
0
  6
CONTINUOUS
 62
     7
 10
-207.93741207489839
 20
-6.9998000000012972
 30
0.0
 11
-207.93741207489839
 21
37.000199999998692
 31
0.0
  0
LINE
  5
28D6
  8
0
  6
CONTINUOUS
 62
     7
 10
-193.93741207489839
 20
48.500199999998692
 30
0.0
 11
-193.93741207489839
 21
51.000199999998699
 31
0.0
  0
LINE
  5
28D7
  8
0
  6
CONTINUOUS
 62
     7
 10
-201.43741207489839
 20
-10.999800000001301
 30
0.0
 11
-203.93741207489839
 21
-10.999800000001301
 31
0.0
  0
LINE
  5
28D8
  8
0
  6
CONTINUOUS
 62
     7
 10
-201.43741207489839
 20
41.000199999998692
 30
0.0
 11
-203.93741207489839
 21
41.000199999998692
 31
0.0
  0
LINE
  5
28D9
  8
0
  6
CONTINUOUS
 62
     7
 10
-193.93741207489839
 20
-20.999800000001329
 30
0.0
 11
-193.93741207489839
 21
-18.499800000001301
 31
0.0
  0
LINE
  5
28DA
  8
0
  6
CONTINUOUS
 62
     7
 10
-132.43741207489839
 20
-6.4998000000012972
 30
0.0
 11
-132.43741207489839
 21
-5.199800000001118
 31
0.0
  0
LINE
  5
28DB
  8
0
  6
CONTINUOUS
 62
     7
 10
-132.43741207489839
 20
-6.4998000000012972
 30
0.0
 11
-132.43741207489839
 21
-7.7998000000005669
 31
0.0
  0
LINE
  5
28DC
  8
0
  6
CONTINUOUS
 62
     7
 10
-132.43741207489839
 20
-6.4998000000012972
 30
0.0
 11
-133.73741207489849
 21
-6.4998000000012972
 31
0.0
  0
LINE
  5
28DD
  8
0
  6
CONTINUOUS
 62
     7
 10
-132.43741207489839
 20
-6.4998000000012972
 30
0.0
 11
-131.13741207489721
 21
-6.4998000000012972
 31
0.0
  0
LINE
  5
28DE
  8
0
  6
CONTINUOUS
 62
     7
 10
-131.93741207489839
 20
-10.999800000001301
 30
0.0
 11
-134.43741207489839
 21
-10.999800000001301
 31
0.0
  0
LINE
  5
28DF
  8
0
  6
CONTINUOUS
 62
     7
 10
-141.93741207489839
 20
-20.999800000001329
 30
0.0
 11
-141.93741207489839
 21
-18.499800000001301
 31
0.0
  0
LINE
  5
28E0
  8
0
  6
CONTINUOUS
 62
     7
 10
-141.93741207489839
 20
-20.999800000001329
 30
0.0
 11
-141.93741207489839
 21
-18.499800000001301
 31
0.0
  0
LINE
  5
28E1
  8
0
  6
CONTINUOUS
 62
     7
 10
-131.93741207489839
 20
-10.999800000001301
 30
0.0
 11
-134.43741207489839
 21
-10.999800000001301
 31
0.0
  0
LINE
  5
28E2
  8
0
  6
CONTINUOUS
 62
     7
 10
-146.43741207489839
 20
50.500199999998721
 30
0.0
 11
-147.7374120748984
 21
50.500199999998721
 31
0.0
  0
LINE
  5
28E3
  8
0
  6
CONTINUOUS
 62
     7
 10
-146.43741207489839
 20
50.500199999998721
 30
0.0
 11
-145.13741207489721
 21
50.500199999998721
 31
0.0
  0
LINE
  5
28E4
  8
0
  6
CONTINUOUS
 62
     7
 10
-146.43741207489839
 20
50.500199999998721
 30
0.0
 11
-146.43741207489839
 21
49.200199999999427
 31
0.0
  0
LINE
  5
28E5
  8
0
  6
CONTINUOUS
 62
     7
 10
-146.43741207489839
 20
50.500199999998721
 30
0.0
 11
-146.43741207489839
 21
51.800199999998881
 31
0.0
  0
LINE
  5
28E6
  8
0
  6
CONTINUOUS
 62
     7
 10
-131.93741207489839
 20
41.000199999998692
 30
0.0
 11
-134.43741207489839
 21
41.000199999998692
 31
0.0
  0
LINE
  5
28E7
  8
0
  6
CONTINUOUS
 62
     7
 10
-127.9374120748984
 20
37.000199999998692
 30
0.0
 11
-127.9374120748984
 21
-6.9998000000012972
 31
0.0
  0
LINE
  5
28E8
  8
0
  6
CONTINUOUS
 62
     7
 10
-127.9374120748984
 20
37.000199999998692
 30
0.0
 11
-127.9374120748984
 21
-6.9998000000012972
 31
0.0
  0
LINE
  5
28E9
  8
0
  6
CONTINUOUS
 62
     7
 10
-141.93741207489839
 20
48.500199999998692
 30
0.0
 11
-141.93741207489839
 21
51.000199999998699
 31
0.0
  0
LINE
  5
28EA
  8
0
  6
CONTINUOUS
 62
     7
 10
-131.93741207489839
 20
41.000199999998692
 30
0.0
 11
-134.43741207489839
 21
41.000199999998692
 31
0.0
  0
LINE
  5
28EB
  8
0
  6
CONTINUOUS
 62
     7
 10
-156.4874120748984
 20
55.000199999999609
 30
0.0
 11
-133.93741207489839
 21
55.000199999998713
 31
0.0
  0
LINE
  5
28EC
  8
0
  6
CONTINUOUS
 62
     7
 10
-156.4874120748984
 20
55.700199999998517
 30
0.0
 11
-149.93741207489839
 21
55.700199999998517
 31
0.0
  0
LINE
  5
28ED
  8
0
  6
CONTINUOUS
 62
     7
 10
-156.4874120748984
 20
60.700200000000351
 30
0.0
 11
-149.95870411243621
 21
60.700200000000351
 31
0.0
  0
LINE
  5
28EE
  8
0
  6
CONTINUOUS
 62
     7
 10
-165.38741207489841
 20
67.700199999998517
 30
0.0
 11
-153.59680823287951
 21
67.700199999998517
 31
0.0
  0
LINE
  5
28EF
  8
0
  6
DASH_CENTER
 62
     1
 10
-167.93741207489839
 20
-29.999800000001329
 30
0.0
 11
-167.93741207489839
 21
79.094111238595502
 31
0.0
  0
LINE
  5
28F0
  8
0
  6
DASH_CENTER
 62
     1
 10
-122.9374120748984
 20
15.00020000000052
 30
0.0
 11
-212.93741207489839
 21
15.00020000000052
 31
0.0
  0
LINE
  5
28F1
  8
0
  6
CONTINUOUS
 62
     7
 10
-131.93741207489839
 20
-10.999800000001301
 30
0.0
 11
-134.43741207489839
 21
-10.999800000001301
 31
0.0
  0
LINE
  5
28F2
  8
0
  6
CONTINUOUS
 62
     7
 10
-193.93741207489839
 20
-20.999800000001329
 30
0.0
 11
-193.93741207489839
 21
-18.499800000001301
 31
0.0
  0
LINE
  5
28F3
  8
0
  6
CONTINUOUS
 62
     7
 10
-201.43741207489839
 20
41.000199999998692
 30
0.0
 11
-203.93741207489839
 21
41.000199999998692
 31
0.0
  0
LINE
  5
28F4
  8
0
  6
CONTINUOUS
 62
     7
 10
-193.93741207489839
 20
48.500199999998692
 30
0.0
 11
-193.93741207489839
 21
51.000199999998699
 31
0.0
  0
LINE
  5
28F5
  8
0
  6
CONTINUOUS
 62
     7
 10
-127.9374120748984
 20
37.000199999998692
 30
0.0
 11
-127.9374120748984
 21
-6.9998000000012972
 31
0.0
  0
LINE
  5
28F6
  8
0
  6
CONTINUOUS
 62
     7
 10
-207.93741207489839
 20
-6.9998000000012972
 30
0.0
 11
-207.93741207489839
 21
37.000199999998692
 31
0.0
  0
LINE
  5
28F7
  8
0
  6
CONTINUOUS
 62
     7
 10
-185.9161200373614
 20
60.700200000000351
 30
0.0
 11
-179.38741207489821
 21
60.700200000000351
 31
0.0
  0
LINE
  5
28F8
  8
0
  6
CONTINUOUS
 62
     7
 10
-185.93741207489839
 20
55.700199999998517
 30
0.0
 11
-185.93741207489839
 21
60.494942298044521
 31
0.0
  0
LINE
  5
28F9
  8
0
  6
CONTINUOUS
 62
     7
 10
-185.8565571049169
 20
60.888861596623542
 30
0.0
 11
-183.19716094693601
 21
67.094119298577539
 31
0.0
  0
LINE
  5
28FA
  8
0
  6
CONTINUOUS
 62
     7
 10
-152.67766320286071
 20
67.094119298577539
 30
0.0
 11
-150.01826704487979
 21
60.888861596623542
 31
0.0
  0
LINE
  5
28FB
  8
0
  6
CONTINUOUS
 62
     7
 10
-201.93741207489921
 20
55.00019999999688
 30
0.0
 11
-179.38741207489821
 21
55.000199999999609
 31
0.0
  0
LINE
  5
28FC
  8
0
  6
CONTINUOUS
 62
     7
 10
-149.93741207489839
 20
60.494942298044521
 30
0.0
 11
-149.93741207489839
 21
55.700199999998517
 31
0.0
  0
LINE
  5
28FE
  8
0
  6
CONTINUOUS
 62
     7
 10
-185.93741207489839
 20
55.700199999998517
 30
0.0
 11
-179.38741207489821
 21
55.700199999998517
 31
0.0
  0
LINE
  5
28FF
  8
0
  6
CONTINUOUS
 62
     7
 10
-156.4874120748984
 20
62.860901053808568
 30
0.0
 11
-156.4874120748984
 21
35.522078568980866
 31
0.0
  0
LINE
  5
2900
  8
0
  6
CONTINUOUS
 62
     7
 10
-179.38741207489821
 20
58.769896921083379
 30
0.0
 11
-156.4874120748984
 21
58.769896921083379
 31
0.0
  0
LINE
  5
2901
  8
0
  6
CONTINUOUS
 62
     7
 10
-179.38741207489821
 20
62.860901053808568
 30
0.0
 11
-179.38741207489821
 21
35.522078568980866
 31
0.0
  0
ARC
  5
2906
  8
0
  6
CONTINUOUS
 62
     7
 10
-185.58741207489791
 20
55.350199999999973
 30
0.0
 40
0.3499999999985448
 50
90.0
 51
270.0
  0
ARC
  5
2907
  8
0
  6
CONTINUOUS
 62
     7
 10
-150.28741207489779
 20
55.350199999999973
 30
0.0
 40
0.3500000000012733
 50
270.0
 51
90.0
  0
ARC
  5
2908
  8
0
  6
DASH_CENTER
 62
     1
 10
-167.93741207489839
 20
15.000199999998699
 30
0.0
 40
45.000000000000469
 50
125.0000000000034
 51
145.00000000000139
  0
ARC
  5
2909
  8
0
  6
DASH_CENTER
 62
     1
 10
-167.93741207489839
 20
15.000199999998699
 30
0.0
 40
45.000000000000099
 50
304.99999999999659
 51
324.9999999999979
  0
ARC
  5
290A
  8
0
  6
DASH_CENTER
 62
     1
 10
-167.93741207489839
 20
15.000199999998699
 30
0.0
 40
45.000000000000412
 50
215.00000000000341
 51
235.00000000000239
  0
ARC
  5
290B
  8
0
  6
DASH_CENTER
 62
     1
 10
-167.93741207489839
 20
15.000199999998699
 30
0.0
 40
45.000000000001421
 50
34.999999999996867
 51
54.999999999996952
  0
ARC
  5
290C
  8
0
  6
CONTINUOUS
 62
     7
 10
-150.28741207489779
 20
55.350199999999973
 30
0.0
 40
0.3500000000012733
 50
270.0
 51
90.0
  0
ARC
  5
290D
  8
0
  6
CONTINUOUS
 62
     7
 10
-185.58741207489791
 20
55.350199999999973
 30
0.0
 40
0.3499999999985448
 50
90.0
 51
270.0
  0
ARC
  5
290E
  8
0
  6
CONTINUOUS
 62
     7
 10
-167.93741207489839
 20
15.000199999998699
 30
0.0
 40
37.000000000000043
 50
108.0266580364089
 51
71.973341963590954
  0
ARC
  5
290F
  8
0
  6
CONTINUOUS
 62
     7
 10
-167.93741207489839
 20
15.000199999998699
 30
0.0
 40
23.50000000000097
 50
119.1589447695286
 51
60.841055230471142
  0
ARC
  5
2910
  8
0
  6
CONTINUOUS
 62
     7
 10
-155.9874120748984
 20
55.500199999998721
 30
0.0
 40
0.5
 50
180.0
 51
270.0
  0
ARC
  5
2911
  8
0
  6
CONTINUOUS
 62
     7
 10
-179.88741207489821
 20
55.500199999998721
 30
0.0
 40
0.5
 50
270.0
 51
0.0
  0
CIRCLE
  5
2912
  8
0
  6
CONTINUOUS
 62
     7
 10
-199.75721722829479
 20
46.82000515339324
 30
0.0
 40
3.0
  0
CIRCLE
  5
2913
  8
0
  6
CONTINUOUS
 62
     7
 10
-136.11760692150659
 20
-16.819605153396768
 30
0.0
 40
3.0
  0
CIRCLE
  5
2914
  8
0
  6
CONTINUOUS
 62
     7
 10
-136.11760692150281
 20
46.820005153390532
 30
0.0
 40
3.0
  0
CIRCLE
  5
2915
  8
0
  6
CONTINUOUS
 62
     7
 10
-199.75721722829289
 20
-16.819605153397671
 30
0.0
 40
3.0
  0
CIRCLE
  5
2916
  8
0
  6
CONTINUOUS
 62
     7
 10
-203.43741207489839
 20
36.500199999998692
 30
0.0
 40
2.25
  0
CIRCLE
  5
2917
  8
0
  6
CONTINUOUS
 62
     7
 10
-203.43741207489839
 20
36.500199999998692
 30
0.0
 40
2.6499999999996482
  0
CIRCLE
  5
2918
  8
0
  6
CONTINUOUS
 62
     7
 10
-189.43741207489839
 20
-20.499800000001329
 30
0.0
 40
2.25
  0
CIRCLE
  5
2919
  8
0
  6
CONTINUOUS
 62
     7
 10
-189.43741207489839
 20
-20.499800000001329
 30
0.0
 40
2.6499999999995221
  0
CIRCLE
  5
291A
  8
0
  6
CONTINUOUS
 62
     7
 10
-132.43741207489839
 20
-6.4998000000012972
 30
0.0
 40
2.25
  0
CIRCLE
  5
291B
  8
0
  6
CONTINUOUS
 62
     7
 10
-132.43741207489839
 20
-6.4998000000012972
 30
0.0
 40
2.6500000000005461
  0
CIRCLE
  5
291C
  8
0
  6
CONTINUOUS
 62
     7
 10
-146.43741207489839
 20
50.500199999998721
 30
0.0
 40
2.25
  0
CIRCLE
  5
291D
  8
0
  6
CONTINUOUS
 62
     7
 10
-146.43741207489839
 20
50.500199999998721
 30
0.0
 40
2.649999999999578
  0
POLYLINE
  5
2EE9
  8
0
 62
     2
 66
     1
 10
0.0
 20
0.0
 30
0.0
 70
     8
  0
VERTEX
  5
2EEA
  8
0
 62
     2
 10
-165.387
 20
75.360900000000001
 30
0.0
 70
    32
  0
VERTEX
  5
2EEB
  8
0
 62
     2
 10
-165.40899999999999
 20
75.376900000000006
 30
0.0
 70
    32
  0
VERTEX
  5
2EEC
  8
0
 62
     2
 10
-165.43100000000001
 20
75.392799999999994
 30
0.0
 70
    32
  0
VERTEX
  5
2EED
  8
0
 62
     2
 10
-165.452
 20
75.408699999999996
 30
0.0
 70
    32
  0
VERTEX
  5
2EEE
  8
0
 62
     2
 10
-165.47399999999999
 20
75.424599999999998
 30
0.0
 70
    32
  0
VERTEX
  5
2EEF
  8
0
 62
     2
 10
-165.4959999999999
 20
75.440399999999997
 30
0.0
 70
    32
  0
VERTEX
  5
2EF0
  8
0
 62
     2
 10
-165.517
 20
75.456100000000006
 30
0.0
 70
    32
  0
VERTEX
  5
2EF1
  8
0
 62
     2
 10
-165.53899999999999
 20
75.471800000000002
 30
0.0
 70
    32
  0
VERTEX
  5
2EF2
  8
0
 62
     2
 10
-165.56100000000001
 20
75.487300000000005
 30
0.0
 70
    32
  0
VERTEX
  5
2EF3
  8
0
 62
     2
 10
-165.583
 20
75.502700000000004
 30
0.0
 70
    32
  0
VERTEX
  5
2EF4
  8
0
 62
     2
 10
-165.60400000000001
 20
75.518000000000001
 30
0.0
 70
    32
  0
VERTEX
  5
2EF5
  8
0
 62
     2
 10
-165.626
 20
75.533100000000005
 30
0.0
 70
    32
  0
VERTEX
  5
2EF6
  8
0
 62
     2
 10
-165.648
 20
75.548100000000005
 30
0.0
 70
    32
  0
VERTEX
  5
2EF7
  8
0
 62
     2
 10
-165.66999999999999
 20
75.562799999999996
 30
0.0
 70
    32
  0
VERTEX
  5
2EF8
  8
0
 62
     2
 10
-165.691
 20
75.577399999999983
 30
0.0
 70
    32
  0
VERTEX
  5
2EF9
  8
0
 62
     2
 10
-165.71299999999999
 20
75.591800000000006
 30
0.0
 70
    32
  0
VERTEX
  5
2EFA
  8
0
 62
     2
 10
-165.73500000000001
 20
75.605900000000005
 30
0.0
 70
    32
  0
VERTEX
  5
2EFB
  8
0
 62
     2
 10
-165.75700000000001
 20
75.619799999999998
 30
0.0
 70
    32
  0
VERTEX
  5
2EFC
  8
0
 62
     2
 10
-165.779
 20
75.633399999999995
 30
0.0
 70
    32
  0
VERTEX
  5
2EFD
  8
0
 62
     2
 10
-165.80099999999999
 20
75.646699999999996
 30
0.0
 70
    32
  0
VERTEX
  5
2EFE
  8
0
 62
     2
 10
-165.822
 20
75.659800000000004
 30
0.0
 70
    32
  0
VERTEX
  5
2EFF
  8
0
 62
     2
 10
-165.84399999999999
 20
75.672600000000003
 30
0.0
 70
    32
  0
VERTEX
  5
2F00
  8
0
 62
     2
 10
-165.86600000000001
 20
75.685000000000002
 30
0.0
 70
    32
  0
VERTEX
  5
2F01
  8
0
 62
     2
 10
-165.88800000000001
 20
75.697100000000006
 30
0.0
 70
    32
  0
VERTEX
  5
2F02
  8
0
 62
     2
 10
-165.91
 20
75.708799999999997
 30
0.0
 70
    32
  0
VERTEX
  5
2F03
  8
0
 62
     2
 10
-165.93199999999999
 20
75.720200000000006
 30
0.0
 70
    32
  0
VERTEX
  5
2F04
  8
0
 62
     2
 10
-165.95400000000001
 20
75.731200000000001
 30
0.0
 70
    32
  0
VERTEX
  5
2F05
  8
0
 62
     2
 10
-165.977
 20
75.741799999999998
 30
0.0
 70
    32
  0
VERTEX
  5
2F06
  8
0
 62
     2
 10
-165.999
 20
75.751999999999995
 30
0.0
 70
    32
  0
VERTEX
  5
2F07
  8
0
 62
     2
 10
-166.02099999999999
 20
75.761700000000005
 30
0.0
 70
    32
  0
VERTEX
  5
2F08
  8
0
 62
     2
 10
-166.04300000000001
 20
75.771100000000004
 30
0.0
 70
    32
  0
VERTEX
  5
2F09
  8
0
 62
     2
 10
-166.065
 20
75.779899999999984
 30
0.0
 70
    32
  0
VERTEX
  5
2F0A
  8
0
 62
     2
 10
-166.08799999999999
 20
75.788300000000007
 30
0.0
 70
    32
  0
VERTEX
  5
2F0B
  8
0
 62
     2
 10
-166.11000000000001
 20
75.796199999999999
 30
0.0
 70
    32
  0
VERTEX
  5
2F0C
  8
0
 62
     2
 10
-166.13200000000001
 20
75.803600000000003
 30
0.0
 70
    32
  0
VERTEX
  5
2F0D
  8
0
 62
     2
 10
-166.155
 20
75.810500000000005
 30
0.0
 70
    32
  0
VERTEX
  5
2F0E
  8
0
 62
     2
 10
-166.17699999999999
 20
75.816800000000001
 30
0.0
 70
    32
  0
VERTEX
  5
2F0F
  8
0
 62
     2
 10
-166.19999999999999
 20
75.822599999999994
 30
0.0
 70
    32
  0
VERTEX
  5
2F10
  8
0
 62
     2
 10
-166.22200000000001
 20
75.827799999999996
 30
0.0
 70
    32
  0
VERTEX
  5
2F11
  8
0
 62
     2
 10
-166.245
 20
75.832499999999996
 30
0.0
 70
    32
  0
VERTEX
  5
2F12
  8
0
 62
     2
 10
-166.268
 20
75.836500000000001
 30
0.0
 70
    32
  0
VERTEX
  5
2F13
  8
0
 62
     2
 10
-166.28999999999999
 20
75.8399
 30
0.0
 70
    32
  0
VERTEX
  5
2F14
  8
0
 62
     2
 10
-166.31299999999999
 20
75.842699999999994
 30
0.0
 70
    32
  0
VERTEX
  5
2F15
  8
0
 62
     2
 10
-166.33600000000001
 20
75.844899999999996
 30
0.0
 70
    32
  0
VERTEX
  5
2F16
  8
0
 62
     2
 10
-166.35900000000001
 20
75.846400000000003
 30
0.0
 70
    32
  0
VERTEX
  5
2F17
  8
0
 62
     2
 10
-166.38200000000001
 20
75.847300000000004
 30
0.0
 70
    32
  0
VERTEX
  5
2F18
  8
0
 62
     2
 10
-166.405
 20
75.847499999999997
 30
0.0
 70
    32
  0
VERTEX
  5
2F19
  8
0
 62
     2
 10
-166.428
 20
75.847200000000001
 30
0.0
 70
    32
  0
VERTEX
  5
2F1A
  8
0
 62
     2
 10
-166.45099999999999
 20
75.846199999999996
 30
0.0
 70
    32
  0
VERTEX
  5
2F1B
  8
0
 62
     2
 10
-166.47399999999999
 20
75.844599999999986
 30
0.0
 70
    32
  0
VERTEX
  5
2F1C
  8
0
 62
     2
 10
-166.49700000000001
 20
75.842600000000004
 30
0.0
 70
    32
  0
VERTEX
  5
2F1D
  8
0
 62
     2
 10
-166.52000000000001
 20
75.8399
 30
0.0
 70
    32
  0
VERTEX
  5
2F1E
  8
0
 62
     2
 10
-166.54300000000001
 20
75.836799999999997
 30
0.0
 70
    32
  0
VERTEX
  5
2F1F
  8
0
 62
     2
 10
-166.56700000000001
 20
75.833200000000005
 30
0.0
 70
    32
  0
VERTEX
  5
2F20
  8
0
 62
     2
 10
-166.59
 20
75.829099999999997
 30
0.0
 70
    32
  0
VERTEX
  5
2F21
  8
0
 62
     2
 10
-166.613
 20
75.8245
 30
0.0
 70
    32
  0
VERTEX
  5
2F22
  8
0
 62
     2
 10
-166.637
 20
75.819500000000005
 30
0.0
 70
    32
  0
VERTEX
  5
2F23
  8
0
 62
     2
 10
-166.66
 20
75.8142
 30
0.0
 70
    32
  0
VERTEX
  5
2F24
  8
0
 62
     2
 10
-166.684
 20
75.808400000000006
 30
0.0
 70
    32
  0
VERTEX
  5
2F25
  8
0
 62
     2
 10
-166.708
 20
75.802199999999999
 30
0.0
 70
    32
  0
VERTEX
  5
2F26
  8
0
 62
     2
 10
-166.73099999999999
 20
75.795699999999997
 30
0.0
 70
    32
  0
VERTEX
  5
2F27
  8
0
 62
     2
 10
-166.755
 20
75.788799999999995
 30
0.0
 70
    32
  0
VERTEX
  5
2F28
  8
0
 62
     2
 10
-166.779
 20
75.781700000000001
 30
0.0
 70
    32
  0
VERTEX
  5
2F29
  8
0
 62
     2
 10
-166.80199999999999
 20
75.774199999999993
 30
0.0
 70
    32
  0
VERTEX
  5
2F2A
  8
0
 62
     2
 10
-166.82599999999999
 20
75.766499999999994
 30
0.0
 70
    32
  0
VERTEX
  5
2F2B
  8
0
 62
     2
 10
-166.84999999999999
 20
75.758499999999984
 30
0.0
 70
    32
  0
VERTEX
  5
2F2C
  8
0
 62
     2
 10
-166.874
 20
75.750299999999996
 30
0.0
 70
    32
  0
VERTEX
  5
2F2D
  8
0
 62
     2
 10
-166.898
 20
75.741799999999998
 30
0.0
 70
    32
  0
VERTEX
  5
2F2E
  8
0
 62
     2
 10
-166.92099999999999
 20
75.733199999999997
 30
0.0
 70
    32
  0
VERTEX
  5
2F2F
  8
0
 62
     2
 10
-166.94499999999999
 20
75.724400000000003
 30
0.0
 70
    32
  0
VERTEX
  5
2F30
  8
0
 62
     2
 10
-166.96899999999999
 20
75.715400000000002
 30
0.0
 70
    32
  0
VERTEX
  5
2F31
  8
0
 62
     2
 10
-166.99299999999999
 20
75.706299999999999
 30
0.0
 70
    32
  0
VERTEX
  5
2F32
  8
0
 62
     2
 10
-167.017
 20
75.697100000000006
 30
0.0
 70
    32
  0
VERTEX
  5
2F33
  8
0
 62
     2
 10
-167.042
 20
75.687799999999996
 30
0.0
 70
    32
  0
VERTEX
  5
2F34
  8
0
 62
     2
 10
-167.06599999999989
 20
75.678399999999996
 30
0.0
 70
    32
  0
VERTEX
  5
2F35
  8
0
 62
     2
 10
-167.09
 20
75.668899999999994
 30
0.0
 70
    32
  0
VERTEX
  5
2F36
  8
0
 62
     2
 10
-167.114
 20
75.659400000000005
 30
0.0
 70
    32
  0
VERTEX
  5
2F37
  8
0
 62
     2
 10
-167.13800000000001
 20
75.649900000000002
 30
0.0
 70
    32
  0
VERTEX
  5
2F38
  8
0
 62
     2
 10
-167.16200000000001
 20
75.6404
 30
0.0
 70
    32
  0
VERTEX
  5
2F39
  8
0
 62
     2
 10
-167.18700000000001
 20
75.631
 30
0.0
 70
    32
  0
VERTEX
  5
2F3A
  8
0
 62
     2
 10
-167.21100000000001
 20
75.621499999999983
 30
0.0
 70
    32
  0
VERTEX
  5
2F3B
  8
0
 62
     2
 10
-167.23500000000001
 20
75.612099999999984
 30
0.0
 70
    32
  0
VERTEX
  5
2F3C
  8
0
 62
     2
 10
-167.25899999999999
 20
75.602800000000002
 30
0.0
 70
    32
  0
VERTEX
  5
2F3D
  8
0
 62
     2
 10
-167.28399999999999
 20
75.593599999999995
 30
0.0
 70
    32
  0
VERTEX
  5
2F3E
  8
0
 62
     2
 10
-167.30799999999999
 20
75.584599999999995
 30
0.0
 70
    32
  0
VERTEX
  5
2F3F
  8
0
 62
     2
 10
-167.33199999999999
 20
75.575599999999994
 30
0.0
 70
    32
  0
VERTEX
  5
2F40
  8
0
 62
     2
 10
-167.357
 20
75.566800000000001
 30
0.0
 70
    32
  0
VERTEX
  5
2F41
  8
0
 62
     2
 10
-167.381
 20
75.558199999999999
 30
0.0
 70
    32
  0
VERTEX
  5
2F42
  8
0
 62
     2
 10
-167.40600000000001
 20
75.549800000000005
 30
0.0
 70
    32
  0
VERTEX
  5
2F43
  8
0
 62
     2
 10
-167.43000000000001
 20
75.541700000000006
 30
0.0
 70
    32
  0
VERTEX
  5
2F44
  8
0
 62
     2
 10
-167.45400000000001
 20
75.533699999999996
 30
0.0
 70
    32
  0
VERTEX
  5
2F45
  8
0
 62
     2
 10
-167.47900000000001
 20
75.525999999999996
 30
0.0
 70
    32
  0
VERTEX
  5
2F46
  8
0
 62
     2
 10
-167.50299999999999
 20
75.518600000000006
 30
0.0
 70
    32
  0
VERTEX
  5
2F47
  8
0
 62
     2
 10
-167.52799999999999
 20
75.511499999999984
 30
0.0
 70
    32
  0
VERTEX
  5
2F48
  8
0
 62
     2
 10
-167.55199999999999
 20
75.5047
 30
0.0
 70
    32
  0
VERTEX
  5
2F49
  8
0
 62
     2
 10
-167.577
 20
75.4983
 30
0.0
 70
    32
  0
VERTEX
  5
2F4A
  8
0
 62
     2
 10
-167.601
 20
75.492199999999997
 30
0.0
 70
    32
  0
VERTEX
  5
2F4B
  8
0
 62
     2
 10
-167.626
 20
75.486500000000007
 30
0.0
 70
    32
  0
VERTEX
  5
2F4C
  8
0
 62
     2
 10
-167.65000000000001
 20
75.481200000000001
 30
0.0
 70
    32
  0
VERTEX
  5
2F4D
  8
0
 62
     2
 10
-167.67500000000001
 20
75.476299999999995
 30
0.0
 70
    32
  0
VERTEX
  5
2F4E
  8
0
 62
     2
 10
-167.69900000000001
 20
75.471800000000002
 30
0.0
 70
    32
  0
VERTEX
  5
2F4F
  8
0
 62
     2
 10
-167.72399999999999
 20
75.467799999999997
 30
0.0
 70
    32
  0
VERTEX
  5
2F50
  8
0
 62
     2
 10
-167.74799999999999
 20
75.464200000000005
 30
0.0
 70
    32
  0
VERTEX
  5
2F51
  8
0
 62
     2
 10
-167.773
 20
75.461200000000005
 30
0.0
 70
    32
  0
VERTEX
  5
2F52
  8
0
 62
     2
 10
-167.797
 20
75.458699999999993
 30
0.0
 70
    32
  0
VERTEX
  5
2F53
  8
0
 62
     2
 10
-167.822
 20
75.456699999999998
 30
0.0
 70
    32
  0
VERTEX
  5
2F54
  8
0
 62
     2
 10
-167.846
 20
75.455299999999994
 30
0.0
 70
    32
  0
VERTEX
  5
2F55
  8
0
 62
     2
 10
-167.87100000000001
 20
75.454400000000007
 30
0.0
 70
    32
  0
VERTEX
  5
2F56
  8
0
 62
     2
 10
-167.89599999999999
 20
75.454099999999997
 30
0.0
 70
    32
  0
VERTEX
  5
2F57
  8
0
 62
     2
 10
-167.9199999999999
 20
75.454499999999996
 30
0.0
 70
    32
  0
VERTEX
  5
2F58
  8
0
 62
     2
 10
-167.94499999999999
 20
75.455500000000001
 30
0.0
 70
    32
  0
VERTEX
  5
2F59
  8
0
 62
     2
 10
-167.96899999999999
 20
75.457099999999997
 30
0.0
 70
    32
  0
VERTEX
  5
2F5A
  8
0
 62
     2
 10
-167.994
 20
75.459299999999999
 30
0.0
 70
    32
  0
VERTEX
  5
2F5B
  8
0
 62
     2
 10
-168.018
 20
75.462199999999996
 30
0.0
 70
    32
  0
VERTEX
  5
2F5C
  8
0
 62
     2
 10
-168.04300000000001
 20
75.465599999999995
 30
0.0
 70
    32
  0
VERTEX
  5
2F5D
  8
0
 62
     2
 10
-168.06700000000001
 20
75.469499999999996
 30
0.0
 70
    32
  0
VERTEX
  5
2F5E
  8
0
 62
     2
 10
-168.09200000000001
 20
75.474000000000004
 30
0.0
 70
    32
  0
VERTEX
  5
2F5F
  8
0
 62
     2
 10
-168.11600000000001
 20
75.478999999999999
 30
0.0
 70
    32
  0
VERTEX
  5
2F60
  8
0
 62
     2
 10
-168.14099999999999
 20
75.484499999999997
 30
0.0
 70
    32
  0
VERTEX
  5
2F61
  8
0
 62
     2
 10
-168.16499999999999
 20
75.490499999999997
 30
0.0
 70
    32
  0
VERTEX
  5
2F62
  8
0
 62
     2
 10
-168.18899999999999
 20
75.496899999999997
 30
0.0
 70
    32
  0
VERTEX
  5
2F63
  8
0
 62
     2
 10
-168.214
 20
75.503799999999998
 30
0.0
 70
    32
  0
VERTEX
  5
2F64
  8
0
 62
     2
 10
-168.238
 20
75.510999999999996
 30
0.0
 70
    32
  0
VERTEX
  5
2F65
  8
0
 62
     2
 10
-168.26300000000001
 20
75.518699999999995
 30
0.0
 70
    32
  0
VERTEX
  5
2F66
  8
0
 62
     2
 10
-168.28700000000001
 20
75.526700000000005
 30
0.0
 70
    32
  0
VERTEX
  5
2F67
  8
0
 62
     2
 10
-168.31100000000001
 20
75.534999999999997
 30
0.0
 70
    32
  0
VERTEX
  5
2F68
  8
0
 62
     2
 10
-168.33600000000001
 20
75.543700000000001
 30
0.0
 70
    32
  0
VERTEX
  5
2F69
  8
0
 62
     2
 10
-168.36000000000001
 20
75.552700000000002
 30
0.0
 70
    32
  0
VERTEX
  5
2F6A
  8
0
 62
     2
 10
-168.38399999999999
 20
75.561999999999998
 30
0.0
 70
    32
  0
VERTEX
  5
2F6B
  8
0
 62
     2
 10
-168.40899999999999
 20
75.5715
 30
0.0
 70
    32
  0
VERTEX
  5
2F6C
  8
0
 62
     2
 10
-168.43299999999999
 20
75.581299999999999
 30
0.0
 70
    32
  0
VERTEX
  5
2F6D
  8
0
 62
     2
 10
-168.45699999999999
 20
75.591300000000004
 30
0.0
 70
    32
  0
VERTEX
  5
2F6E
  8
0
 62
     2
 10
-168.48099999999999
 20
75.601500000000001
 30
0.0
 70
    32
  0
VERTEX
  5
2F6F
  8
0
 62
     2
 10
-168.505
 20
75.611900000000006
 30
0.0
 70
    32
  0
VERTEX
  5
2F70
  8
0
 62
     2
 10
-168.53
 20
75.622500000000002
 30
0.0
 70
    32
  0
VERTEX
  5
2F71
  8
0
 62
     2
 10
-168.554
 20
75.633200000000002
 30
0.0
 70
    32
  0
VERTEX
  5
2F72
  8
0
 62
     2
 10
-168.578
 20
75.644000000000005
 30
0.0
 70
    32
  0
VERTEX
  5
2F73
  8
0
 62
     2
 10
-168.602
 20
75.654899999999998
 30
0.0
 70
    32
  0
VERTEX
  5
2F74
  8
0
 62
     2
 10
-168.626
 20
75.665899999999993
 30
0.0
 70
    32
  0
VERTEX
  5
2F75
  8
0
 62
     2
 10
-168.65000000000001
 20
75.676900000000003
 30
0.0
 70
    32
  0
VERTEX
  5
2F76
  8
0
 62
     2
 10
-168.67400000000001
 20
75.688000000000002
 30
0.0
 70
    32
  0
VERTEX
  5
2F77
  8
0
 62
     2
 10
-168.69800000000001
 20
75.699100000000001
 30
0.0
 70
    32
  0
VERTEX
  5
2F78
  8
0
 62
     2
 10
-168.72200000000001
 20
75.7102
 30
0.0
 70
    32
  0
VERTEX
  5
2F79
  8
0
 62
     2
 10
-168.745
 20
75.721299999999999
 30
0.0
 70
    32
  0
VERTEX
  5
2F7A
  8
0
 62
     2
 10
-168.76900000000001
 20
75.732299999999995
 30
0.0
 70
    32
  0
VERTEX
  5
2F7B
  8
0
 62
     2
 10
-168.79300000000001
 20
75.743300000000005
 30
0.0
 70
    32
  0
VERTEX
  5
2F7C
  8
0
 62
     2
 10
-168.81700000000001
 20
75.754099999999994
 30
0.0
 70
    32
  0
VERTEX
  5
2F7D
  8
0
 62
     2
 10
-168.84
 20
75.764899999999983
 30
0.0
 70
    32
  0
VERTEX
  5
2F7E
  8
0
 62
     2
 10
-168.864
 20
75.775499999999994
 30
0.0
 70
    32
  0
VERTEX
  5
2F7F
  8
0
 62
     2
 10
-168.88800000000001
 20
75.786000000000001
 30
0.0
 70
    32
  0
VERTEX
  5
2F80
  8
0
 62
     2
 10
-168.91099999999989
 20
75.796300000000002
 30
0.0
 70
    32
  0
VERTEX
  5
2F81
  8
0
 62
     2
 10
-168.935
 20
75.806399999999996
 30
0.0
 70
    32
  0
VERTEX
  5
2F82
  8
0
 62
     2
 10
-168.958
 20
75.816299999999998
 30
0.0
 70
    32
  0
VERTEX
  5
2F83
  8
0
 62
     2
 10
-168.982
 20
75.825999999999993
 30
0.0
 70
    32
  0
VERTEX
  5
2F84
  8
0
 62
     2
 10
-169.005
 20
75.835400000000007
 30
0.0
 70
    32
  0
VERTEX
  5
2F85
  8
0
 62
     2
 10
-169.02799999999999
 20
75.844599999999986
 30
0.0
 70
    32
  0
VERTEX
  5
2F86
  8
0
 62
     2
 10
-169.05199999999999
 20
75.853499999999997
 30
0.0
 70
    32
  0
VERTEX
  5
2F87
  8
0
 62
     2
 10
-169.07499999999999
 20
75.861999999999995
 30
0.0
 70
    32
  0
VERTEX
  5
2F88
  8
0
 62
     2
 10
-169.09800000000001
 20
75.870199999999997
 30
0.0
 70
    32
  0
VERTEX
  5
2F89
  8
0
 62
     2
 10
-169.12100000000001
 20
75.878
 30
0.0
 70
    32
  0
VERTEX
  5
2F8A
  8
0
 62
     2
 10
-169.14400000000001
 20
75.885499999999993
 30
0.0
 70
    32
  0
VERTEX
  5
2F8B
  8
0
 62
     2
 10
-169.167
 20
75.892600000000002
 30
0.0
 70
    32
  0
VERTEX
  5
2F8C
  8
0
 62
     2
 10
-169.19
 20
75.899199999999993
 30
0.0
 70
    32
  0
VERTEX
  5
2F8D
  8
0
 62
     2
 10
-169.21299999999999
 20
75.905500000000004
 30
0.0
 70
    32
  0
VERTEX
  5
2F8E
  8
0
 62
     2
 10
-169.23599999999999
 20
75.911199999999994
 30
0.0
 70
    32
  0
VERTEX
  5
2F8F
  8
0
 62
     2
 10
-169.25899999999999
 20
75.916499999999999
 30
0.0
 70
    32
  0
VERTEX
  5
2F90
  8
0
 62
     2
 10
-169.28099999999989
 20
75.921300000000002
 30
0.0
 70
    32
  0
VERTEX
  5
2F91
  8
0
 62
     2
 10
-169.304
 20
75.9255
 30
0.0
 70
    32
  0
VERTEX
  5
2F92
  8
0
 62
     2
 10
-169.32599999999999
 20
75.929199999999994
 30
0.0
 70
    32
  0
VERTEX
  5
2F93
  8
0
 62
     2
 10
-169.34899999999999
 20
75.932400000000001
 30
0.0
 70
    32
  0
VERTEX
  5
2F94
  8
0
 62
     2
 10
-169.37100000000001
 20
75.934899999999999
 30
0.0
 70
    32
  0
VERTEX
  5
2F95
  8
0
 62
     2
 10
-169.39400000000001
 20
75.936899999999994
 30
0.0
 70
    32
  0
VERTEX
  5
2F96
  8
0
 62
     2
 10
-169.416
 20
75.938199999999995
 30
0.0
 70
    32
  0
VERTEX
  5
2F97
  8
0
 62
     2
 10
-169.43799999999999
 20
75.938900000000004
 30
0.0
 70
    32
  0
VERTEX
  5
2F98
  8
0
 62
     2
 10
-169.46100000000001
 20
75.938900000000004
 30
0.0
 70
    32
  0
VERTEX
  5
2F99
  8
0
 62
     2
 10
-169.483
 20
75.938299999999998
 30
0.0
 70
    32
  0
VERTEX
  5
2F9A
  8
0
 62
     2
 10
-169.505
 20
75.936899999999994
 30
0.0
 70
    32
  0
VERTEX
  5
2F9B
  8
0
 62
     2
 10
-169.52699999999999
 20
75.934799999999996
 30
0.0
 70
    32
  0
VERTEX
  5
2F9C
  8
0
 62
     2
 10
-169.54900000000001
 20
75.932000000000002
 30
0.0
 70
    32
  0
VERTEX
  5
2F9D
  8
0
 62
     2
 10
-169.571
 20
75.928399999999996
 30
0.0
 70
    32
  0
VERTEX
  5
2F9E
  8
0
 62
     2
 10
-169.59200000000001
 20
75.924199999999999
 30
0.0
 70
    32
  0
VERTEX
  5
2F9F
  8
0
 62
     2
 10
-169.614
 20
75.919399999999996
 30
0.0
 70
    32
  0
VERTEX
  5
2FA0
  8
0
 62
     2
 10
-169.636
 20
75.913899999999998
 30
0.0
 70
    32
  0
VERTEX
  5
2FA1
  8
0
 62
     2
 10
-169.65700000000001
 20
75.907700000000006
 30
0.0
 70
    32
  0
VERTEX
  5
2FA2
  8
0
 62
     2
 10
-169.679
 20
75.900899999999993
 30
0.0
 70
    32
  0
VERTEX
  5
2FA3
  8
0
 62
     2
 10
-169.69999999999999
 20
75.893500000000003
 30
0.0
 70
    32
  0
VERTEX
  5
2FA4
  8
0
 62
     2
 10
-169.72200000000001
 20
75.885499999999993
 30
0.0
 70
    32
  0
VERTEX
  5
2FA5
  8
0
 62
     2
 10
-169.74299999999999
 20
75.876999999999995
 30
0.0
 70
    32
  0
VERTEX
  5
2FA6
  8
0
 62
     2
 10
-169.76400000000001
 20
75.867900000000006
 30
0.0
 70
    32
  0
VERTEX
  5
2FA7
  8
0
 62
     2
 10
-169.78599999999989
 20
75.858199999999997
 30
0.0
 70
    32
  0
VERTEX
  5
2FA8
  8
0
 62
     2
 10
-169.80699999999999
 20
75.847999999999999
 30
0.0
 70
    32
  0
VERTEX
  5
2FA9
  8
0
 62
     2
 10
-169.828
 20
75.837299999999999
 30
0.0
 70
    32
  0
VERTEX
  5
2FAA
  8
0
 62
     2
 10
-169.84899999999999
 20
75.826099999999997
 30
0.0
 70
    32
  0
VERTEX
  5
2FAB
  8
0
 62
     2
 10
-169.87
 20
75.814400000000006
 30
0.0
 70
    32
  0
VERTEX
  5
2FAC
  8
0
 62
     2
 10
-169.89099999999999
 20
75.802199999999999
 30
0.0
 70
    32
  0
VERTEX
  5
2FAD
  8
0
 62
     2
 10
-169.91200000000001
 20
75.789599999999993
 30
0.0
 70
    32
  0
VERTEX
  5
2FAE
  8
0
 62
     2
 10
-169.93299999999999
 20
75.776600000000002
 30
0.0
 70
    32
  0
VERTEX
  5
2FAF
  8
0
 62
     2
 10
-169.95400000000001
 20
75.763099999999994
 30
0.0
 70
    32
  0
VERTEX
  5
2FB0
  8
0
 62
     2
 10
-169.97499999999999
 20
75.749300000000005
 30
0.0
 70
    32
  0
VERTEX
  5
2FB1
  8
0
 62
     2
 10
-169.99600000000001
 20
75.734999999999999
 30
0.0
 70
    32
  0
VERTEX
  5
2FB2
  8
0
 62
     2
 10
-170.01599999999999
 20
75.720399999999998
 30
0.0
 70
    32
  0
VERTEX
  5
2FB3
  8
0
 62
     2
 10
-170.03700000000001
 20
75.705399999999997
 30
0.0
 70
    32
  0
VERTEX
  5
2FB4
  8
0
 62
     2
 10
-170.05799999999999
 20
75.690100000000001
 30
0.0
 70
    32
  0
VERTEX
  5
2FB5
  8
0
 62
     2
 10
-170.078
 20
75.674400000000006
 30
0.0
 70
    32
  0
VERTEX
  5
2FB6
  8
0
 62
     2
 10
-170.09899999999999
 20
75.658500000000004
 30
0.0
 70
    32
  0
VERTEX
  5
2FB7
  8
0
 62
     2
 10
-170.12
 20
75.642200000000003
 30
0.0
 70
    32
  0
VERTEX
  5
2FB8
  8
0
 62
     2
 10
-170.13999999999999
 20
75.625600000000006
 30
0.0
 70
    32
  0
VERTEX
  5
2FB9
  8
0
 62
     2
 10
-170.161
 20
75.608800000000002
 30
0.0
 70
    32
  0
VERTEX
  5
2FBA
  8
0
 62
     2
 10
-170.18100000000001
 20
75.591800000000006
 30
0.0
 70
    32
  0
VERTEX
  5
2FBB
  8
0
 62
     2
 10
-170.202
 20
75.5745
 30
0.0
 70
    32
  0
VERTEX
  5
2FBC
  8
0
 62
     2
 10
-170.22200000000001
 20
75.557000000000002
 30
0.0
 70
    32
  0
VERTEX
  5
2FBD
  8
0
 62
     2
 10
-170.24299999999999
 20
75.539299999999997
 30
0.0
 70
    32
  0
VERTEX
  5
2FBE
  8
0
 62
     2
 10
-170.26300000000001
 20
75.5214
 30
0.0
 70
    32
  0
VERTEX
  5
2FBF
  8
0
 62
     2
 10
-170.28399999999999
 20
75.503299999999996
 30
0.0
 70
    32
  0
VERTEX
  5
2FC0
  8
0
 62
     2
 10
-170.304
 20
75.485100000000003
 30
0.0
 70
    32
  0
VERTEX
  5
2FC1
  8
0
 62
     2
 10
-170.32499999999999
 20
75.466700000000003
 30
0.0
 70
    32
  0
VERTEX
  5
2FC2
  8
0
 62
     2
 10
-170.345
 20
75.4482
 30
0.0
 70
    32
  0
VERTEX
  5
2FC3
  8
0
 62
     2
 10
-170.36500000000001
 20
75.429599999999994
 30
0.0
 70
    32
  0
VERTEX
  5
2FC4
  8
0
 62
     2
 10
-170.386
 20
75.411000000000001
 30
0.0
 70
    32
  0
VERTEX
  5
2FC5
  8
0
 62
     2
 10
-170.40600000000001
 20
75.392200000000003
 30
0.0
 70
    32
  0
VERTEX
  5
2FC6
  8
0
 62
     2
 10
-170.42599999999999
 20
75.373400000000004
 30
0.0
 70
    32
  0
VERTEX
  5
2FC7
  8
0
 62
     2
 10
-170.447
 20
75.354500000000002
 30
0.0
 70
    32
  0
VERTEX
  5
2FC8
  8
0
 62
     2
 10
-170.46700000000001
 20
75.335599999999999
 30
0.0
 70
    32
  0
VERTEX
  5
2FC9
  8
0
 62
     2
 10
-170.48699999999999
 20
75.316599999999994
 30
0.0
 70
    32
  0
SEQEND
  5
2FCA
  8
0
 62
     2
  0
ARC
  5
291F
  8
0
  6
CONTINUOUS
 62
     7
 10
-131.93741207489839
 20
37.000199999998692
 30
0.0
 40
3.9999999999999849
 50
0.0
 51
90.0
  0
ARC
  5
2920
  8
0
  6
CONTINUOUS
 62
     7
 10
-131.93741207489839
 20
37.000199999998692
 30
0.0
 40
3.9999999999999849
 50
0.0
 51
90.0
  0
ARC
  5
2921
  8
0
  6
CONTINUOUS
 62
     7
 10
-150.93741207489839
 20
60.494942298044521
 30
0.0
 40
1.0
 50
0.0
 51
23.198590513628311
  0
ARC
  5
2922
  8
0
  6
CONTINUOUS
 62
     7
 10
-184.93741207489839
 20
60.494942298044521
 30
0.0
 40
1.000000000000439
 50
156.80140948637171
 51
180.0
  0
ARC
  5
2923
  8
0
  6
CONTINUOUS
 62
     7
 10
-153.59680823287951
 20
66.700199999998503
 30
0.0
 40
1.0000000000006191
 50
23.19859051362382
 51
90.0
  0
ARC
  5
2924
  8
0
  6
CONTINUOUS
 62
     7
 10
-182.27801591691829
 20
66.700199999998503
 30
0.0
 40
1.0
 50
90.0
 51
156.80140948635179
  0
ARC
  5
2925
  8
0
  6
CONTINUOUS
 62
     7
 10
-201.93741207489839
 20
49.000199999998699
 30
0.0
 40
6.0
 50
90.0
 51
180.0
  0
ARC
  5
2926
  8
0
  6
CONTINUOUS
 62
     7
 10
-133.93741207489839
 20
49.000199999998699
 30
0.0
 40
5.9999999999999849
 50
0.0
 51
90.0
  0
ARC
  5
2927
  8
0
  6
CONTINUOUS
 62
     7
 10
-133.93741207489839
 20
-18.999800000001301
 30
0.0
 40
6.0000000000000258
 50
270.0
 51
0.0
  0
ARC
  5
2928
  8
0
  6
CONTINUOUS
 62
     7
 10
-201.93741207489839
 20
-18.999800000001301
 30
0.0
 40
6.0
 50
180.0
 51
270.0
  0
ARC
  5
2929
  8
0
  6
CONTINUOUS
 62
     7
 10
-176.53893568987721
 20
64.980987482143149
 30
0.0
 40
1.0
 50
90.0
 51
143.663340863532
  0
ARC
  5
292A
  8
0
  6
CONTINUOUS
 62
     7
 10
-159.3358884599206
 20
64.980987482143149
 30
0.0
 40
1.0000000000003151
 50
36.336659136464192
 51
90.0
  0
ARC
  5
292B
  8
0
  6
CONTINUOUS
 62
     7
 10
-201.43741207489839
 20
-18.499800000001301
 30
0.0
 40
7.5
 50
0.0
 51
90.0
  0
ARC
  5
292C
  8
0
  6
CONTINUOUS
 62
     7
 10
-201.43741207489839
 20
48.500199999998692
 30
0.0
 40
7.5
 50
270.0
 51
0.0
  0
ARC
  5
292D
  8
0
  6
CONTINUOUS
 62
     7
 10
-189.93741207489839
 20
-20.999800000001329
 30
0.0
 40
4.0
 50
180.0
 51
270.0
  0
ARC
  5
292E
  8
0
  6
CONTINUOUS
 62
     7
 10
-203.93741207489839
 20
-6.9998000000012972
 30
0.0
 40
4.0
 50
180.0
 51
270.0
  0
ARC
  5
292F
  8
0
  6
CONTINUOUS
 62
     7
 10
-203.93741207489839
 20
37.000199999998692
 30
0.0
 40
4.0
 50
90.0
 51
180.0
  0
ARC
  5
2930
  8
0
  6
CONTINUOUS
 62
     7
 10
-189.93741207489839
 20
51.000199999998699
 30
0.0
 40
4.0
 50
90.0
 51
180.0
  0
ARC
  5
2931
  8
0
  6
CONTINUOUS
 62
     7
 10
-201.43741207489839
 20
48.500199999998692
 30
0.0
 40
7.5
 50
270.0
 51
0.0
  0
ARC
  5
2932
  8
0
  6
CONTINUOUS
 62
     7
 10
-201.43741207489839
 20
-18.499800000001301
 30
0.0
 40
7.5
 50
0.0
 51
90.0
  0
ARC
  5
2933
  8
0
  6
CONTINUOUS
 62
     7
 10
-189.93741207489839
 20
51.000199999998699
 30
0.0
 40
4.0
 50
90.0
 51
180.0
  0
ARC
  5
2934
  8
0
  6
CONTINUOUS
 62
     7
 10
-203.93741207489839
 20
37.000199999998692
 30
0.0
 40
4.0
 50
90.0
 51
180.0
  0
ARC
  5
2935
  8
0
  6
CONTINUOUS
 62
     7
 10
-203.93741207489839
 20
-6.9998000000012972
 30
0.0
 40
4.0
 50
180.0
 51
270.0
  0
ARC
  5
2936
  8
0
  6
CONTINUOUS
 62
     7
 10
-189.93741207489839
 20
-20.999800000001329
 30
0.0
 40
4.0
 50
180.0
 51
270.0
  0
ARC
  5
2937
  8
0
  6
CONTINUOUS
 62
     7
 10
-134.43741207489839
 20
-18.499800000001301
 30
0.0
 40
7.5
 50
90.0
 51
180.0
  0
ARC
  5
2938
  8
0
  6
CONTINUOUS
 62
     7
 10
-131.93741207489839
 20
-6.9998000000012972
 30
0.0
 40
4.0
 50
270.0
 51
0.0
  0
ARC
  5
2939
  8
0
  6
CONTINUOUS
 62
     7
 10
-145.93741207489839
 20
-20.999800000001329
 30
0.0
 40
4.0
 50
270.0
 51
0.0
  0
ARC
  5
293A
  8
0
  6
CONTINUOUS
 62
     7
 10
-134.43741207489839
 20
-18.499800000001301
 30
0.0
 40
7.5
 50
90.0
 51
180.0
  0
ARC
  5
293B
  8
0
  6
CONTINUOUS
 62
     7
 10
-145.93741207489839
 20
-20.999800000001329
 30
0.0
 40
4.0
 50
270.0
 51
0.0
  0
ARC
  5
293C
  8
0
  6
CONTINUOUS
 62
     7
 10
-131.93741207489839
 20
-6.9998000000012972
 30
0.0
 40
4.0
 50
270.0
 51
0.0
  0
ARC
  5
293D
  8
0
  6
CONTINUOUS
 62
     7
 10
-134.43741207489839
 20
48.500199999998692
 30
0.0
 40
7.5
 50
180.0
 51
270.0
  0
ARC
  5
293E
  8
0
  6
CONTINUOUS
 62
     7
 10
-145.93741207489839
 20
51.000199999998699
 30
0.0
 40
4.0
 50
0.0
 51
90.0
  0
ARC
  5
293F
  8
0
  6
CONTINUOUS
 62
     7
 10
-134.43741207489839
 20
48.500199999998692
 30
0.0
 40
7.5
 50
180.0
 51
270.0
  0
ARC
  5
2940
  8
0
  6
CONTINUOUS
 62
     7
 10
-134.43741207489839
 20
-18.499800000001301
 30
0.0
 40
7.5
 50
90.0
 51
180.0
  0
ARC
  5
2941
  8
0
  6
CONTINUOUS
 62
     7
 10
-201.43741207489839
 20
-18.499800000001301
 30
0.0
 40
7.5
 50
0.0
 51
90.0
  0
ARC
  5
2942
  8
0
  6
CONTINUOUS
 62
     7
 10
-201.43741207489839
 20
48.500199999998692
 30
0.0
 40
7.5
 50
270.0
 51
0.0
  0
ARC
  5
2943
  8
0
  6
CONTINUOUS
 62
     7
 10
-134.43741207489839
 20
48.500199999998692
 30
0.0
 40
7.5
 50
180.0
 51
270.0
  0
ARC
  5
2944
  8
0
  6
CONTINUOUS
 62
     7
 10
-131.93741207489839
 20
-6.9998000000012972
 30
0.0
 40
4.0
 50
270.0
 51
0.0
  0
ARC
  5
2945
  8
0
  6
CONTINUOUS
 62
     7
 10
-189.93741207489839
 20
-20.999800000001329
 30
0.0
 40
4.0
 50
180.0
 51
270.0
  0
ARC
  5
2946
  8
0
  6
CONTINUOUS
 62
     7
 10
-203.93741207489839
 20
37.000199999998692
 30
0.0
 40
4.0
 50
90.0
 51
180.0
  0
ARC
  5
2947
  8
0
  6
CONTINUOUS
 62
     7
 10
-189.93741207489839
 20
51.000199999998699
 30
0.0
 40
4.0
 50
90.0
 51
180.0
  0
ARC
  5
2948
  8
0
  6
CONTINUOUS
 62
     7
 10
-182.27801591691829
 20
66.700199999998503
 30
0.0
 40
1.0
 50
90.0
 51
156.80140948635179
  0
ARC
  5
2949
  8
0
  6
CONTINUOUS
 62
     7
 10
-153.59680823287951
 20
66.700199999998503
 30
0.0
 40
1.0000000000006191
 50
23.19859051362382
 51
90.0
  0
ARC
  5
294A
  8
0
  6
CONTINUOUS
 62
     7
 10
-184.93741207489839
 20
60.494942298044521
 30
0.0
 40
1.000000000000439
 50
156.80140948637171
 51
180.0
  0
ARC
  5
294B
  8
0
  6
CONTINUOUS
 62
     7
 10
-150.93741207489839
 20
60.494942298044521
 30
0.0
 40
1.0
 50
0.0
 51
23.198590513628311
  0
ARC
  5
294C
  8
0
  6
CONTINUOUS
 62
     7
 10
-157.4874120748984
 20
62.860901053808568
 30
0.0
 40
1.0
 50
0.0
 51
90.0
  0
ARC
  5
294D
  8
0
  6
CONTINUOUS
 62
     7
 10
-178.38741207489821
 20
62.860901053808568
 30
0.0
 40
1.0
 50
90.0
 51
180.0
  0
LINE
  5
297E
  8
0
  6
CONTINUOUS
 62
     7
 10
-61.785381900175992
 20
131.8954845538257
 30
0.0
 11
-61.785381900175992
 21
118.3954845538257
 31
0.0
  0
LINE
  5
297F
  8
0
  6
CONTINUOUS
 62
     7
 10
-71.035312932040441
 20
131.8954845538257
 30
0.0
 11
-71.035312932040441
 21
141.0954845538246
 31
0.0
  0
LINE
  5
2980
  8
0
  6
CONTINUOUS
 62
     7
 10
-70.285312932040441
 20
131.8954845538257
 30
0.0
 11
-70.285312932040441
 21
141.0954845538246
 31
0.0
  0
LINE
  5
2981
  8
0
  6
CONTINUOUS
 62
     7
 10
-66.785312932040441
 20
131.8954845538257
 30
0.0
 11
-70.285312932040441
 21
131.8954845538257
 31
0.0
  0
LINE
  5
2982
  8
0
  6
CONTINUOUS
 62
     7
 10
-61.785381900175992
 20
131.8954845538257
 30
0.0
 11
-66.785312932040441
 21
131.8954845538257
 31
0.0
  0
LINE
  5
2983
  8
0
  6
CONTINUOUS
 62
     7
 10
-74.784847421814732
 20
131.89498455382471
 30
0.0
 11
-74.785347421815743
 21
117.3952845538244
 31
0.0
  0
LINE
  5
2984
  8
0
  6
CONTINUOUS
 62
     7
 10
-75.785312932040455
 20
118.3954845538257
 30
0.0
 11
-75.785312932040455
 21
128.6454845538257
 31
0.0
  0
LINE
  5
2985
  8
0
  6
CONTINUOUS
 62
     7
 10
-77.397283099561093
 20
128.77964863247519
 30
0.0
 11
-78.285312932040455
 21
123.8954845538257
 31
0.0
  0
LINE
  5
2986
  8
0
  6
CONTINUOUS
 62
     7
 10
-76.659380666983736
 20
129.3954845538257
 30
0.0
 11
-76.535312932040455
 21
129.3954845538257
 31
0.0
  0
LINE
  5
2987
  8
0
  6
CONTINUOUS
 62
     7
 10
-77.285312932040455
 20
130.8954845538257
 30
0.0
 11
-78.028980194540352
 21
130.8954845538257
 31
0.0
  0
LINE
  5
2988
  8
0
  6
CONTINUOUS
 62
     7
 10
-79.119889285452061
 20
124.8954845538257
 30
0.0
 11
-79.535312932040455
 21
124.8954845538257
 31
0.0
  0
LINE
  5
2989
  8
0
  6
CONTINUOUS
 62
     7
 10
-77.869889285452984
 20
136.8954845538257
 30
0.0
 11
-76.869889285452061
 21
136.8954845538257
 31
0.0
  0
LINE
  5
298A
  8
0
  6
CONTINUOUS
 62
     7
 10
-77.119889285452061
 20
130.8989286045209
 30
0.0
 11
-77.119889285452984
 21
134.8954845538257
 31
0.0
  0
LINE
  5
298B
  8
0
  6
CONTINUOUS
 62
     7
 10
-60.785347416105921
 20
118.3954845538257
 30
0.0
 11
-61.785381900175992
 21
118.3954845538257
 31
0.0
  0
LINE
  5
298C
  8
0
  6
CONTINUOUS
 62
     7
 10
-74.785347421815743
 20
117.3954845538257
 30
0.0
 11
-74.785312931447422
 21
117.3954845538257
 31
0.0
  0
LINE
  5
298D
  8
0
  6
CONTINUOUS
 62
     7
 10
-72.284702122450938
 20
131.8954845538257
 30
0.0
 11
-71.035312932040441
 21
131.8954845538257
 31
0.0
  0
LINE
  5
298E
  8
0
  6
CONTINUOUS
 62
     7
 10
-71.035312932040441
 20
141.0954845538246
 30
0.0
 11
-74.534847404426102
 21
141.0954845538246
 31
0.0
  0
LINE
  5
298F
  8
0
  6
CONTINUOUS
 62
     7
 10
-66.785312932040441
 20
141.0954845538246
 30
0.0
 11
-66.785312932040441
 21
131.8954845538257
 31
0.0
  0
LINE
  5
2990
  8
0
  6
CONTINUOUS
 62
     7
 10
-70.285312932040441
 20
141.0954845538246
 30
0.0
 11
-66.785312932040441
 21
141.0954845538246
 31
0.0
  0
LINE
  5
2991
  8
0
  6
CONTINUOUS
 62
     7
 10
-62.535312932040434
 20
131.8954845538257
 30
0.0
 11
-62.535312932040434
 21
141.0954845538246
 31
0.0
  0
LINE
  5
2992
  8
0
  6
CONTINUOUS
 62
     7
 10
-66.035312932040441
 20
141.0954845538246
 30
0.0
 11
-66.035312932040441
 21
131.8954845538257
 31
0.0
  0
LINE
  5
2993
  8
0
  6
CONTINUOUS
 62
     7
 10
-62.535312932040434
 20
141.0954845538246
 30
0.0
 11
-66.035312932040441
 21
141.0954845538246
 31
0.0
  0
LINE
  5
2994
  8
0
  6
CONTINUOUS
 62
     7
 10
-75.785312932040455
 20
131.8954845538257
 30
0.0
 11
-72.284702122450938
 21
131.8954845538257
 31
0.0
  0
LINE
  5
2995
  8
0
  6
CONTINUOUS
 62
     7
 10
-74.534847404426102
 20
141.0954845538246
 30
0.0
 11
-74.534847404426102
 21
131.8954845538257
 31
0.0
  0
LINE
  5
2996
  8
0
  6
CONTINUOUS
 62
     7
 10
-79.535312932040455
 20
123.8954845538257
 30
0.0
 11
-78.285312932040455
 21
123.8954845538257
 31
0.0
  0
LINE
  5
2997
  8
0
  6
CONTINUOUS
 62
     7
 10
-79.535312932040455
 20
124.8954845538257
 30
0.0
 11
-79.535312932040455
 21
123.8954845538257
 31
0.0
  0
LINE
  5
2998
  8
0
  6
CONTINUOUS
 62
     7
 10
-77.869889285452984
 20
136.8954845538257
 30
0.0
 11
-78.869889285452061
 21
136.3954845538257
 31
0.0
  0
LINE
  5
2999
  8
0
  6
CONTINUOUS
 62
     7
 10
-77.119889285452984
 20
134.8954845538257
 30
0.0
 11
-76.119889285452061
 21
134.8954845538257
 31
0.0
  0
LINE
  5
299A
  8
0
  6
CONTINUOUS
 62
     7
 10
-76.119889285452061
 20
135.6454845538257
 30
0.0
 11
-76.119889285452061
 21
134.8954845538257
 31
0.0
  0
LINE
  5
299B
  8
0
  6
CONTINUOUS
 62
     7
 10
-78.869889285452061
 20
126.2704845538257
 30
0.0
 11
-78.869889285452061
 21
136.3954845538257
 31
0.0
  0
LINE
  5
299C
  8
0
  6
CONTINUOUS
 62
     7
 10
-79.119889285452061
 20
124.8954845538257
 30
0.0
 11
-78.028980194540352
 21
130.8954845538257
 31
0.0
  0
LINE
  5
299D
  8
0
  6
CONTINUOUS
 62
     7
 10
-76.869889285452061
 20
136.8954845538257
 30
0.0
 11
-76.119889285452061
 21
135.6454845538257
 31
0.0
  0
LINE
  5
299E
  8
0
  6
CONTINUOUS
 62
     7
 10
-74.28534741462073
 20
117.3954845538257
 30
0.0
 11
-74.284847422113955
 21
131.89496731208891
 31
0.0
  0
LINE
  5
299F
  8
0
  6
CONTINUOUS
 62
     7
 10
-60.785347416105921
 20
117.3954845538257
 30
0.0
 11
-60.785347416105921
 21
118.3954845538257
 31
0.0
  0
LINE
  5
29A0
  8
0
  6
CONTINUOUS
 62
     7
 10
-76.785347416107726
 20
117.3954845538257
 30
0.0
 11
-76.084056823088119
 21
117.3954845538257
 31
0.0
  0
LINE
  5
29A1
  8
0
  6
CONTINUOUS
 62
     7
 10
-74.785312931447422
 20
117.3954845538257
 30
0.0
 11
-74.785312931447422
 21
118.3954845538257
 31
0.0
  0
LINE
  5
29A2
  8
0
  6
CONTINUOUS
 62
     7
 10
-76.785347416107726
 20
118.3954845538257
 30
0.0
 11
-76.785347416107726
 21
117.3954845538257
 31
0.0
  0
LINE
  5
29A3
  8
0
  6
CONTINUOUS
 62
     7
 10
-75.785312932040455
 20
118.3954845538257
 30
0.0
 11
-76.785347416107726
 21
118.3954845538257
 31
0.0
  0
LINE
  5
29A4
  8
0
  6
CONTINUOUS
 62
     7
 10
-60.785347416105921
 20
117.3954845538257
 30
0.0
 11
-74.785312931447422
 21
117.3954845538257
 31
0.0
  0
LINE
  5
29A5
  8
0
  6
CONTINUOUS
 62
     7
 10
-76.084056823088119
 20
117.3954845538257
 30
0.0
 11
-74.785347421815743
 21
117.3954845538257
 31
0.0
  0
LINE
  5
29A6
  8
0
  6
CONTINUOUS
 62
     7
 10
-70.285312932040441
 20
131.8954845538257
 30
0.0
 11
-71.035312932040441
 21
131.8954845538257
 31
0.0
  0
LINE
  5
29A7
  8
0
  6
CONTINUOUS
 62
     7
 10
-88.705199638518295
 20
63.575116952855723
 30
0.0
 11
-72.324707455444084
 21
55.936768003547492
 31
0.0
  0
LINE
  5
29A8
  8
0
  6
CONTINUOUS
 62
     7
 10
-89.635362269455399
 20
63.530434788289277
 30
0.0
 11
-96.839796193836591
 21
59.35006323920436
 31
0.0
  0
LINE
  5
29AD
  8
0
  6
CONTINUOUS
 62
     7
 10
-70.785312932040441
 20
109.32247611400651
 30
0.0
 11
-70.785312932040441
 21
106.82247611400651
 31
0.0
  0
LINE
  5
29AE
  8
0
  6
CONTINUOUS
 62
     7
 10
-66.285312932046779
 20
106.82247611400651
 30
0.0
 11
-65.035312932040441
 21
105.32247611400651
 31
0.0
  0
LINE
  5
29AF
  8
0
  6
CONTINUOUS
 62
     7
 10
-66.285312932040441
 20
106.82247611400651
 30
0.0
 11
-66.285312932040441
 21
109.32247611400651
 31
0.0
  0
LINE
  5
29B0
  8
0
  6
CONTINUOUS
 62
     7
 10
-70.785312932040441
 20
106.82247611400651
 30
0.0
 11
-72.035312932040441
 21
105.32247611400651
 31
0.0
  0
LINE
  5
29B1
  8
0
  6
CONTINUOUS
 62
     7
 10
-70.785312932040441
 20
109.32247611400651
 30
0.0
 11
-66.285312932040441
 21
109.32247611400651
 31
0.0
  0
LINE
  5
29B2
  8
0
  6
CONTINUOUS
 62
     7
 10
-66.785312932040441
 20
109.32247611400651
 30
0.0
 11
-66.785312932040441
 21
117.3954845538257
 31
0.0
  0
LINE
  5
29B3
  8
0
  6
CONTINUOUS
 62
     7
 10
-67.535312932040441
 20
109.32247611400651
 30
0.0
 11
-67.535312932040441
 21
117.3954845538257
 31
0.0
  0
LINE
  5
29B4
  8
0
  6
CONTINUOUS
 62
     7
 10
-68.285312932040441
 20
109.32247611400651
 30
0.0
 11
-68.285312932040441
 21
117.3954845538257
 31
0.0
  0
LINE
  5
29B5
  8
0
  6
CONTINUOUS
 62
     7
 10
-68.785312932040441
 20
109.32247611400651
 30
0.0
 11
-68.785312932040441
 21
117.3954845538257
 31
0.0
  0
LINE
  5
29B6
  8
0
  6
CONTINUOUS
 62
     7
 10
-69.535312932040441
 20
109.32247611400651
 30
0.0
 11
-69.535312932040441
 21
117.3954845538257
 31
0.0
  0
LINE
  5
29B7
  8
0
  6
CONTINUOUS
 62
     7
 10
-70.285312932040441
 20
109.32247611400651
 30
0.0
 11
-70.285312932040441
 21
117.3954845538257
 31
0.0
  0
LINE
  5
29B8
  8
0
  6
CONTINUOUS
 62
     7
 10
-65.985312932040429
 20
94.962261001211246
 30
0.0
 11
-65.985312932040429
 21
102.07247611400651
 31
0.0
  0
LINE
  5
29B9
  8
0
  6
CONTINUOUS
 62
     7
 10
-65.035312932040441
 20
105.32247611400651
 30
0.0
 11
-65.035312932040441
 21
102.07247611400651
 31
0.0
  0
LINE
  5
29BA
  8
0
  6
CONTINUOUS
 62
     7
 10
-72.035312932040441
 20
105.32247611400651
 30
0.0
 11
-72.035312932040441
 21
102.07247611400651
 31
0.0
  0
LINE
  5
29BB
  8
0
  6
CONTINUOUS
 62
     7
 10
-72.035312932046793
 20
102.07247611400651
 30
0.0
 11
-65.035312932040441
 21
102.07247611400651
 31
0.0
  0
LINE
  5
29BC
  8
0
  6
CONTINUOUS
 62
     7
 10
-71.085312932040424
 20
102.07247611400651
 30
0.0
 11
-71.085312932040424
 21
94.962261001211246
 31
0.0
  0
LINE
  5
29BD
  8
0
  6
DASH_CENTER
 62
     1
 10
-68.535312932040441
 20
86.844243549954896
 30
0.0
 11
-68.535312932040441
 21
143.5954845538246
 31
0.0
  0
LINE
  5
29BE
  8
0
  6
CONTINUOUS
 62
     7
 10
-77.005382515827904
 20
61.981225345905742
 30
0.0
 11
-66.982454554516607
 21
83.371204388790702
 31
0.0
  0
LINE
  5
29BF
  8
0
  6
CONTINUOUS
 62
     7
 10
-65.985312932040429
 20
93.684932825746841
 30
0.0
 11
-65.985312932040429
 21
87.848414908951938
 31
0.0
  0
LINE
  5
29C0
  8
0
  6
CONTINUOUS
 62
     7
 10
-71.085312932040409
 20
87.849685115216886
 30
0.0
 11
-71.085312932040424
 21
93.684932825746841
 31
0.0
  0
LINE
  5
29C1
  8
0
  6
CONTINUOUS
 62
     7
 10
-71.599835620466905
 20
85.538071810123483
 30
0.0
 11
-81.627552229716088
 21
64.136578480780628
 31
0.0
  0
LINE
  5
29C2
  8
0
  6
DASH_CENTER
 62
     1
 10
-68.816389628308386
 20
85.576388641685483
 30
0.0
 11
-81.852177189310694
 21
57.621055305879402
 31
0.0
  0
LINE
  5
29C3
  8
0
  6
CONTINUOUS
 62
     7
 10
-80.963171807626495
 20
64.689602783000851
 30
0.0
 11
-81.355660156637313
 21
64.009792812990895
 31
0.0
  0
LINE
  5
29C4
  8
0
  6
CONTINUOUS
 62
     7
 10
-77.277274862827937
 20
62.108011175883917
 30
0.0
 11
-77.00879705620747
 21
62.845648191485559
 31
0.0
  0
LINE
  5
29C5
  8
0
  6
CONTINUOUS
 62
     7
 10
-89.052255425379684
 20
63.736951724075993
 30
0.0
 11
-72.539007439457507
 21
56.036697727237971
 31
0.0
  0
LINE
  5
29C6
  8
0
  6
CONTINUOUS
 62
     7
 10
-89.060839156208502
 20
63.913691325398851
 30
0.0
 11
-86.023617207481294
 21
65.707110826756534
 31
0.0
  0
LINE
  5
29C7
  8
0
  6
CONTINUOUS
 62
     7
 10
-89.060839156208502
 20
63.913691325398851
 30
0.0
 11
-86.023617207481294
 21
65.707110826756534
 31
0.0
  0
LINE
  5
29C8
  8
0
  6
CONTINUOUS
 62
     7
 10
-72.976549127480496
 20
59.62316306458991
 30
0.0
 11
-72.3980995341647
 21
56.143728233805753
 31
0.0
  0
LINE
  5
29C9
  8
0
  6
CONTINUOUS
 62
     7
 10
-73.522033836753792
 20
60.356913180831839
 30
0.0
 11
-85.092543375707777
 21
65.752330387593361
 31
0.0
  0
LINE
  5
29CA
  8
0
  6
CONTINUOUS
 62
     7
 10
-73.684169135997095
 20
56.524794782262788
 30
0.0
 11
-73.684403941653059
 21
56.526467853616957
 31
0.0
  0
LINE
  5
29CB
  8
0
  6
CONTINUOUS
 62
     7
 10
-77.820497721618551
 20
32.164140653627449
 30
0.0
 11
-72.322602588536299
 21
32.164140653627449
 31
0.0
  0
LINE
  5
29CC
  8
0
  6
CONTINUOUS
 62
     7
 10
-77.820497721618551
 20
32.164140653627449
 30
0.0
 11
-77.822602588530842
 21
41.000200000000532
 31
0.0
  0
LINE
  5
29CD
  8
0
  6
CONTINUOUS
 62
     7
 10
-71.96470745544805
 20
32.500200000000518
 30
0.0
 11
-71.96470745544805
 21
39.243801246681983
 31
0.0
  0
LINE
  5
29CE
  8
0
  6
CONTINUOUS
 62
     7
 10
-75.564707455448413
 20
33.000200000000518
 30
0.0
 11
-71.96470745544805
 21
33.000200000000518
 31
0.0
  0
LINE
  5
29CF
  8
0
  6
CONTINUOUS
 62
     7
 10
-75.96470745544805
 20
33.400200000000147
 30
0.0
 11
-75.564707455448413
 21
33.000200000000518
 31
0.0
  0
LINE
  5
29D0
  8
0
  6
CONTINUOUS
 62
     7
 10
-71.96470745544805
 20
32.500200000000518
 30
0.0
 11
-71.324707455448632
 21
32.500200000000518
 31
0.0
  0
LINE
  5
29D1
  8
0
  6
CONTINUOUS
 62
     7
 10
-75.564707455448413
 20
39.243801246681983
 30
0.0
 11
-75.564707455448413
 21
33.000200000000518
 31
0.0
  0
LINE
  5
29D2
  8
0
  6
CONTINUOUS
 62
     7
 10
-75.564707455448413
 20
40.000200000000518
 30
0.0
 11
-71.96470745544805
 21
40.000200000000518
 31
0.0
  0
LINE
  5
29D3
  8
0
  6
CONTINUOUS
 62
     7
 10
-75.564707455448413
 20
40.000200000000518
 30
0.0
 11
-75.96470745544805
 21
39.600199999999958
 31
0.0
  0
LINE
  5
29D4
  8
0
  6
CONTINUOUS
 62
     7
 10
-75.96470745544805
 20
39.600199999999958
 30
0.0
 11
-75.96470745544805
 21
33.400200000000147
 31
0.0
  0
LINE
  5
29D5
  8
0
  6
CONTINUOUS
 62
     7
 10
-75.564707455448413
 20
40.000200000000518
 30
0.0
 11
-75.564707455448413
 21
33.587081039376358
 31
0.0
  0
LINE
  5
29D6
  8
0
  6
CONTINUOUS
 62
     7
 10
-71.96470745544805
 20
40.500200000000518
 30
0.0
 11
-71.324707455447708
 21
40.500200000000518
 31
0.0
  0
LINE
  5
29D7
  8
0
  6
CONTINUOUS
 62
     7
 10
-77.824707455444056
 20
-16.163740653626409
 30
0.0
 11
-72.324707455444056
 21
-16.163740653626409
 31
0.0
  0
LINE
  5
29D8
  8
0
  6
CONTINUOUS
 62
     7
 10
-77.822602588530842
 20
-24.999799999999539
 30
0.0
 11
-77.824707455444056
 21
-16.163740653626409
 31
0.0
  0
LINE
  5
29D9
  8
0
  6
CONTINUOUS
 62
     7
 10
-71.964707455443488
 20
-23.243401246681842
 30
0.0
 11
-71.964707455443488
 21
-16.499800000000391
 31
0.0
  0
LINE
  5
29DA
  8
0
  6
CONTINUOUS
 62
     7
 10
-71.964707455443488
 20
-16.999800000000391
 30
0.0
 11
-75.564707455443838
 21
-16.999800000000391
 31
0.0
  0
LINE
  5
29DB
  8
0
  6
CONTINUOUS
 62
     7
 10
-75.564707455443838
 20
-16.999800000000391
 30
0.0
 11
-75.964707455443474
 21
-17.39980000000002
 31
0.0
  0
LINE
  5
29DC
  8
0
  6
CONTINUOUS
 62
     7
 10
-71.324707455444056
 20
-16.499800000000391
 30
0.0
 11
-71.964707455443488
 21
-16.499800000000391
 31
0.0
  0
LINE
  5
29DD
  8
0
  6
CONTINUOUS
 62
     7
 10
-75.564707455443838
 20
-16.999800000000391
 30
0.0
 11
-75.964707455443474
 21
-17.39980000000002
 31
0.0
  0
LINE
  5
29DE
  8
0
  6
CONTINUOUS
 62
     7
 10
-75.964707455443474
 20
-17.39980000000002
 30
0.0
 11
-75.964707455443474
 21
-23.243401246681842
 31
0.0
  0
LINE
  5
29DF
  8
0
  6
CONTINUOUS
 62
     7
 10
-75.564707455443838
 20
-16.999800000000391
 30
0.0
 11
-75.564707455443838
 21
-23.243401246681842
 31
0.0
  0
LINE
  5
29E0
  8
0
  6
CONTINUOUS
 62
     7
 10
-75.564707455443838
 20
-23.999799999999539
 30
0.0
 11
-71.964707455443488
 21
-23.999799999999539
 31
0.0
  0
LINE
  5
29E1
  8
0
  6
CONTINUOUS
 62
     7
 10
-75.964707455443474
 20
-23.599799999999831
 30
0.0
 11
-75.564707455443838
 21
-23.999799999999539
 31
0.0
  0
LINE
  5
29E2
  8
0
  6
CONTINUOUS
 62
     7
 10
-75.964707455443474
 20
-17.75619875331801
 30
0.0
 11
-75.964707455443474
 21
-23.599799999999831
 31
0.0
  0
LINE
  5
29E3
  8
0
  6
CONTINUOUS
 62
     7
 10
-75.564707455443838
 20
-17.75619875331801
 30
0.0
 11
-75.564707455443838
 21
-23.999799999999539
 31
0.0
  0
LINE
  5
29E4
  8
0
  6
CONTINUOUS
 62
     7
 10
-71.964707455443488
 20
-24.499799999999539
 30
0.0
 11
-71.324707455444056
 21
-24.499799999999539
 31
0.0
  0
LINE
  5
29E5
  8
0
  6
CONTINUOUS
 62
     7
 10
-71.964707455443488
 20
-24.499799999999539
 30
0.0
 11
-71.964707455443488
 21
-17.75619875331801
 31
0.0
  0
LINE
  5
29E6
  8
0
  6
CONTINUOUS
 62
     7
 10
4.4750996486325993
 20
117.39515194348419
 30
0.0
 11
7.3746031072829989
 21
114.49564848483421
 31
0.0
  0
LINE
  5
29E7
  8
0
  6
CONTINUOUS
 62
     7
 10
54.373302989932967
 20
-19.499799999999532
 30
0.0
 11
54.373302989932967
 21
-0.9208713416755399
 31
0.0
  0
LINE
  5
29E9
  8
0
  6
CONTINUOUS
 62
     7
 10
3.3905577792881281
 20
136.89515194348419
 30
0.0
 11
2.3905577792881281
 21
136.89515194348419
 31
0.0
  0
LINE
  5
29EA
  8
0
  6
CONTINUOUS
 62
     7
 10
14.27551116048714
 20
131.89515194348411
 30
0.0
 11
4.4751341326988703
 21
131.89515194348419
 31
0.0
  0
LINE
  5
29EB
  8
0
  6
CONTINUOUS
 62
     7
 10
9.2259169103369096
 20
131.89515194348411
 30
0.0
 11
9.2259169103369096
 21
141.0951519434839
 31
0.0
  0
LINE
  5
29EC
  8
0
  6
CONTINUOUS
 62
     7
 10
5.7255996603150203
 20
141.0951519434839
 30
0.0
 11
5.7255996603150203
 21
131.89515194348411
 31
0.0
  0
LINE
  5
29ED
  8
0
  6
CONTINUOUS
 62
     7
 10
9.2259169103369096
 20
141.0951519434839
 30
0.0
 11
5.7255996603150203
 21
141.0951519434839
 31
0.0
  0
LINE
  5
29EE
  8
0
  6
CONTINUOUS
 62
     7
 10
13.27551116048714
 20
131.89515194348411
 30
0.0
 11
13.27551116048714
 21
141.09515194348401
 31
0.0
  0
LINE
  5
29EF
  8
0
  6
CONTINUOUS
 62
     7
 10
9.7751939104634111
 20
141.09515194348401
 30
0.0
 11
9.7751939104634111
 21
131.89515194348411
 31
0.0
  0
LINE
  5
29F0
  8
0
  6
CONTINUOUS
 62
     7
 10
13.27551116048714
 20
141.09515194348401
 30
0.0
 11
9.7751939104634111
 21
141.09515194348401
 31
0.0
  0
LINE
  5
29F1
  8
0
  6
CONTINUOUS
 62
     7
 10
3.601066397756469
 20
129.39515194348411
 30
0.0
 11
3.7251341326988689
 21
129.39515194348411
 31
0.0
  0
LINE
  5
29F2
  8
0
  6
CONTINUOUS
 62
     7
 10
2.2314668701971478
 20
130.89515194348411
 30
0.0
 11
1.390557779288129
 21
126.27015194348419
 31
0.0
  0
LINE
  5
29F3
  8
0
  6
CONTINUOUS
 62
     7
 10
2.9751341326988689
 20
130.89515194348411
 30
0.0
 11
2.2314668701971478
 21
130.89515194348411
 31
0.0
  0
LINE
  5
29F4
  8
0
  6
CONTINUOUS
 62
     7
 10
2.3905577792881281
 20
136.89515194348419
 30
0.0
 11
1.390557779288129
 21
136.39515194348411
 31
0.0
  0
LINE
  5
29F5
  8
0
  6
CONTINUOUS
 62
     7
 10
3.3905577792699302
 20
136.89515194348419
 30
0.0
 11
3.3905577792881281
 21
136.89515194348419
 31
0.0
  0
LINE
  5
29F6
  8
0
  6
CONTINUOUS
 62
     7
 10
3.1405577792881281
 20
130.8985959941802
 30
0.0
 11
3.1405577792881281
 21
134.89515194348419
 31
0.0
  0
LINE
  5
29F7
  8
0
  6
CONTINUOUS
 62
     7
 10
3.1405577792881281
 20
134.89515194348419
 30
0.0
 11
4.1405577792881294
 21
134.89515194348411
 31
0.0
  0
LINE
  5
29F8
  8
0
  6
CONTINUOUS
 62
     7
 10
4.1405577792881294
 20
135.64515194348419
 30
0.0
 11
4.1405577792881294
 21
134.89515194348411
 31
0.0
  0
LINE
  5
29F9
  8
0
  6
CONTINUOUS
 62
     7
 10
1.390557779288129
 20
126.27015194348419
 30
0.0
 11
1.390557779288129
 21
136.39515194348411
 31
0.0
  0
LINE
  5
29FA
  8
0
  6
CONTINUOUS
 62
     7
 10
3.3905577792881281
 20
136.89515194348419
 30
0.0
 11
4.1405577792881294
 21
135.64515194348419
 31
0.0
  0
LINE
  5
29FB
  8
0
  6
CONTINUOUS
 62
     7
 10
5.475577798626249
 20
131.89515194348419
 30
0.0
 11
4.4751341326988703
 21
131.89515194348419
 31
0.0
  0
LINE
  5
29FC
  8
0
  6
CONTINUOUS
 62
     7
 10
15.27554564455447
 20
117.39515194348419
 30
0.0
 11
3.4750996486324501
 21
117.39515194348419
 31
0.0
  0
LINE
  5
29FD
  8
0
  6
CONTINUOUS
 62
     7
 10
5.9759169084051686
 20
131.89515194348411
 30
0.0
 11
5.9750996501194678
 21
117.39515194348409
 31
0.0
  0
LINE
  5
29FE
  8
0
  6
CONTINUOUS
 62
     7
 10
14.27551116048714
 20
131.89515194348411
 30
0.0
 11
14.27551116048714
 21
118.39515194348419
 31
0.0
  0
LINE
  5
29FF
  8
0
  6
CONTINUOUS
 62
     7
 10
15.27554564455447
 20
117.39515194348419
 30
0.0
 11
15.27554564455447
 21
118.39515194348419
 31
0.0
  0
LINE
  5
2A00
  8
0
  6
CONTINUOUS
 62
     7
 10
15.27554564455447
 20
118.39515194348419
 30
0.0
 11
14.27551116048714
 21
118.39515194348419
 31
0.0
  0
LINE
  5
2A01
  8
0
  6
CONTINUOUS
 62
     7
 10
3.4750996486324501
 20
118.39515194348419
 30
0.0
 11
3.4750996486324501
 21
117.39515194348419
 31
0.0
  0
LINE
  5
2A02
  8
0
  6
CONTINUOUS
 62
     7
 10
4.4751341326988703
 20
118.39515194348419
 30
0.0
 11
3.4750996486324501
 21
118.39515194348419
 31
0.0
  0
LINE
  5
2A03
  8
0
  6
CONTINUOUS
 62
     7
 10
4.4751341326988703
 20
118.39515194348419
 30
0.0
 11
4.4751341326988703
 21
128.64515194348419
 31
0.0
  0
LINE
  5
2A04
  8
0
  6
CONTINUOUS
 62
     7
 10
2.86316396518004
 20
128.77931602213451
 30
0.0
 11
1.9751341326988701
 21
123.89515194348419
 31
0.0
  0
LINE
  5
2A05
  8
0
  6
CONTINUOUS
 62
     7
 10
0.72513413269887
 20
123.89515194348419
 30
0.0
 11
1.9751341326988701
 21
123.89515194348419
 31
0.0
  0
LINE
  5
2A06
  8
0
  6
CONTINUOUS
 62
     7
 10
1.140557779288129
 20
124.89515194348419
 30
0.0
 11
0.72513413269887
 21
124.89515194348409
 31
0.0
  0
LINE
  5
2A07
  8
0
  6
CONTINUOUS
 62
     7
 10
0.72513413269887
 20
124.89515194348409
 30
0.0
 11
0.72513413269887
 21
123.89515194348419
 31
0.0
  0
LINE
  5
2A08
  8
0
  6
CONTINUOUS
 62
     7
 10
1.390557779288129
 20
126.27015194348419
 30
0.0
 11
1.140557779288129
 21
124.89515194348419
 31
0.0
  0
LINE
  5
2A09
  8
0
  6
CONTINUOUS
 62
     7
 10
5.4750996498211677
 20
117.39515194348409
 30
0.0
 11
5.4755996429254603
 21
131.89465194348489
 31
0.0
  0
LINE
  5
2A0A
  8
0
  6
CONTINUOUS
 62
     7
 10
-32.824707455444077
 20
55.700200000000272
 30
0.0
 11
-32.824707455444077
 21
55.000200000000518
 31
0.0
  0
LINE
  5
2A0B
  8
0
  6
CONTINUOUS
 62
     7
 10
-16.324707455444081
 20
60.700200000001189
 30
0.0
 11
-32.715827198539358
 21
60.700200000001189
 31
0.0
  0
LINE
  5
2A0C
  8
0
  6
CONTINUOUS
 62
     7
 10
-0.82470745544408
 20
60.700200000001189
 30
0.0
 11
-10.324707455444081
 21
60.700200000001189
 31
0.0
  0
LINE
  5
2A0D
  8
0
  6
DASH_CENTER
 62
     1
 10
-13.324707455444081
 20
68.969391180659898
 30
0.0
 11
-13.324707455444081
 21
53.569391180659409
 31
0.0
  0
LINE
  5
2A0E
  8
0
  6
CONTINUOUS
 62
     7
 10
-0.82470745544408
 20
55.700200000000272
 30
0.0
 11
-32.824707455444077
 21
55.700200000000272
 31
0.0
  0
LINE
  5
2A0F
  8
0
  6
CONTINUOUS
 62
     7
 10
-10.324707455444241
 20
57.900200000000098
 30
0.0
 11
-10.324707455444081
 21
67.700200000000279
 31
0.0
  0
LINE
  5
2A10
  8
0
  6
CONTINUOUS
 62
     7
 10
-16.124707455444248
 20
57.700200000000279
 30
0.0
 11
-10.524707455443901
 21
57.700200000000279
 31
0.0
  0
LINE
  5
2A11
  8
0
  6
CONTINUOUS
 62
     7
 10
-16.324707455444081
 20
67.700200000000279
 30
0.0
 11
-16.324707455444081
 21
57.900200000000098
 31
0.0
  0
LINE
  5
2A12
  8
0
  6
CONTINUOUS
 62
     7
 10
-32.483212063313047
 20
60.99900846811488
 30
0.0
 11
-25.107476947207349
 21
67.452776694707723
 31
0.0
  0
LINE
  5
2A13
  8
0
  6
CONTINUOUS
 62
     7
 10
-32.824707455444077
 20
55.700200000000272
 30
0.0
 11
-32.824707455444077
 21
60.246431773407608
 31
0.0
  0
LINE
  5
2A14
  8
0
  6
CONTINUOUS
 62
     7
 10
-1.8247074554440781
 20
67.700200000000279
 30
0.0
 11
-24.448972339339281
 21
67.700200000000279
 31
0.0
  0
LINE
  5
2A15
  8
0
  6
CONTINUOUS
 62
     7
 10
-10.824707455425891
 20
57.700200000000279
 30
0.0
 11
-10.824707455425891
 21
58.340200000004181
 31
0.0
  0
LINE
  5
2A16
  8
0
  6
CONTINUOUS
 62
     7
 10
-10.824707455425891
 20
58.340200000004181
 30
0.0
 11
-15.824707455444081
 21
58.340200000004181
 31
0.0
  0
LINE
  5
2A17
  8
0
  6
CONTINUOUS
 62
     7
 10
-15.824707455444081
 20
58.340200000004181
 30
0.0
 11
-15.824707455444081
 21
57.700200000000279
 31
0.0
  0
LINE
  5
2A18
  8
0
  6
CONTINUOUS
 62
     7
 10
-15.506292212560149
 20
59.122189804271393
 30
0.0
 11
-15.574707455425891
 21
58.340200000004181
 31
0.0
  0
LINE
  5
2A19
  8
0
  6
CONTINUOUS
 62
     7
 10
-15.574707455425891
 20
58.340200000004181
 30
0.0
 11
-14.62470745542606
 21
58.340200000004181
 31
0.0
  0
LINE
  5
2A1A
  8
0
  6
CONTINUOUS
 62
     7
 10
-12.024707455424799
 20
58.340200000004181
 30
0.0
 11
-11.074707455425891
 21
58.340200000004181
 31
0.0
  0
LINE
  5
2A1B
  8
0
  6
CONTINUOUS
 62
     7
 10
-14.62470745542606
 20
58.340200000004181
 30
0.0
 11
-12.024707455424799
 21
58.340200000004181
 31
0.0
  0
LINE
  5
2A1C
  8
0
  6
CONTINUOUS
 62
     7
 10
-11.074707455425891
 20
58.340200000004181
 30
0.0
 11
-11.14312269829254
 21
59.122189804271393
 31
0.0
  0
LINE
  5
2A1D
  8
0
  6
CONTINUOUS
 62
     7
 10
-0.82470745544408
 20
55.000200000000518
 30
0.0
 11
-0.82470745544408
 21
66.700200000000279
 31
0.0
  0
LINE
  5
2A1F
  8
0
  6
CONTINUOUS
 62
     7
 10
-29.324592143142329
 20
-10.99979999999948
 30
0.0
 11
-94.824707455444013
 21
-10.99979999999948
 31
0.0
  0
LINE
  5
2A20
  8
0
  6
CONTINUOUS
 62
     7
 10
-30.324707455431732
 20
15.00020000000052
 30
0.0
 11
-30.324707455446269
 21
-24.899800000000042
 31
0.0
  0
LINE
  5
2A21
  8
0
  6
CONTINUOUS
 62
     7
 10
43.375292544555897
 20
-10.99979999999948
 30
0.0
 11
-29.324592143142329
 21
-10.99979999999948
 31
0.0
  0
LINE
  5
2A22
  8
0
  6
CONTINUOUS
 62
     7
 10
-94.824707455444013
 20
41.000200000000532
 30
0.0
 11
-72.324707455444056
 21
41.000200000000532
 31
0.0
  0
LINE
  5
2A23
  8
0
  6
CONTINUOUS
 62
     7
 10
-96.051956338322583
 20
-23.175675327562931
 30
0.0
 11
-95.204707455444193
 21
-23.249799999999539
 31
0.0
  0
LINE
  5
2A24
  8
0
  6
CONTINUOUS
 62
     7
 10
-95.204707455444193
 20
-23.499799999999539
 30
0.0
 11
-95.204707455444193
 21
-20.28903446028913
 31
0.0
  0
LINE
  5
2A25
  8
0
  6
CONTINUOUS
 62
     7
 10
-95.754827753340905
 20
-17.79792928964055
 30
0.0
 11
-96.051956338322583
 21
-17.823924672435972
 31
0.0
  0
LINE
  5
2A26
  8
0
  6
CONTINUOUS
 62
     7
 10
-95.204707455444193
 20
-23.499799999999539
 30
0.0
 11
-94.824707455444013
 21
-23.499799999999539
 31
0.0
  0
LINE
  5
2A27
  8
0
  6
CONTINUOUS
 62
     7
 10
-94.824707455444013
 20
-17.499799999999482
 30
0.0
 11
-94.824707455444013
 21
-23.499799999999539
 31
0.0
  0
LINE
  5
2A28
  8
0
  6
CONTINUOUS
 62
     7
 10
-96.051956338322583
 20
-9.1756753275629688
 30
0.0
 11
-95.204707455444193
 21
-9.2497999999994782
 31
0.0
  0
LINE
  5
2A29
  8
0
  6
CONTINUOUS
 62
     7
 10
-95.204707455444193
 20
-9.2497999999994782
 30
0.0
 11
-95.204707455444193
 21
-6.4997999999994791
 31
0.0
  0
LINE
  5
2A2A
  8
0
  6
CONTINUOUS
 62
     7
 10
-95.204707455444193
 20
-6.4997999999994791
 30
0.0
 11
-95.204707455444193
 21
-3.74979999999948
 31
0.0
  0
LINE
  5
2A2B
  8
0
  6
CONTINUOUS
 62
     7
 10
-95.204707455444193
 20
-3.74979999999948
 30
0.0
 11
-96.051956338322583
 21
-3.823924672435969
 31
0.0
  0
LINE
  5
2A2C
  8
0
  6
CONTINUOUS
 62
     7
 10
-95.204707455444193
 20
-3.49979999999948
 30
0.0
 11
-94.824707455444013
 21
-3.49979999999948
 31
0.0
  0
LINE
  5
2A2D
  8
0
  6
CONTINUOUS
 62
     7
 10
-95.204707455444193
 20
-9.4997999999994782
 30
0.0
 11
-94.824707455444013
 21
-9.4997999999994782
 31
0.0
  0
LINE
  5
2A2E
  8
0
  6
CONTINUOUS
 62
     7
 10
-94.824707455444013
 20
-3.49979999999948
 30
0.0
 11
-94.824707455444013
 21
-9.4997999999994782
 31
0.0
  0
LINE
  5
2A2F
  8
0
  6
CONTINUOUS
 62
     7
 10
-95.204707455444193
 20
-9.4997999999994782
 30
0.0
 11
-95.204707455444193
 21
-3.49979999999948
 31
0.0
  0
LINE
  5
2A30
  8
0
  6
CONTINUOUS
 62
     7
 10
-96.051956338322583
 20
47.824324672437058
 30
0.0
 11
-95.204707455444193
 21
47.750200000000518
 31
0.0
  0
LINE
  5
2A31
  8
0
  6
CONTINUOUS
 62
     7
 10
-95.204707455444193
 20
47.750200000000518
 30
0.0
 11
-95.204707455444193
 21
50.500200000000532
 31
0.0
  0
LINE
  5
2A32
  8
0
  6
CONTINUOUS
 62
     7
 10
-95.204707455444193
 20
50.500200000000532
 30
0.0
 11
-95.204707455444193
 21
53.250200000000518
 31
0.0
  0
LINE
  5
2A33
  8
0
  6
CONTINUOUS
 62
     7
 10
-95.204707455444193
 20
53.250200000000518
 30
0.0
 11
-96.051956338322583
 21
53.176075327564043
 31
0.0
  0
LINE
  5
2A34
  8
0
  6
CONTINUOUS
 62
     7
 10
-95.204707455444193
 20
53.500200000000532
 30
0.0
 11
-94.824707455444013
 21
53.500200000000532
 31
0.0
  0
LINE
  5
2A35
  8
0
  6
CONTINUOUS
 62
     7
 10
-95.204707455444193
 20
47.500200000000518
 30
0.0
 11
-94.824707455444013
 21
47.500200000000518
 31
0.0
  0
LINE
  5
2A36
  8
0
  6
CONTINUOUS
 62
     7
 10
-94.824707455444013
 20
53.500200000000532
 30
0.0
 11
-94.824707455444013
 21
47.500200000000518
 31
0.0
  0
LINE
  5
2A37
  8
0
  6
CONTINUOUS
 62
     7
 10
-95.204707455444193
 20
47.500200000000518
 30
0.0
 11
-95.204707455444193
 21
53.500200000000532
 31
0.0
  0
LINE
  5
2A38
  8
0
  6
CONTINUOUS
 62
     7
 10
43.875292544555919
 20
-24.999799999999539
 30
0.0
 11
41.575292544556632
 21
-24.999799999999539
 31
0.0
  0
LINE
  5
2A39
  8
0
  6
CONTINUOUS
 62
     7
 10
41.575292544556632
 20
15.00020000000052
 30
0.0
 11
41.575292544556632
 21
-24.999799999999539
 31
0.0
  0
LINE
  5
2A3A
  8
0
  6
CONTINUOUS
 62
     7
 10
50.875292544555919
 20
-24.999799999999539
 30
0.0
 11
-30.324707455446301
 21
-24.999799999999539
 31
0.0
  0
LINE
  5
2A3B
  8
0
  6
CONTINUOUS
 62
     7
 10
41.575292544556632
 20
-22.34979999999814
 30
0.0
 11
41.575292544556632
 21
-24.999799999999539
 31
0.0
  0
LINE
  5
2A3C
  8
0
  6
CONTINUOUS
 62
     7
 10
51.375292544555919
 20
15.00020000000052
 30
0.0
 11
51.375292544555919
 21
-24.499799999999539
 31
0.0
  0
LINE
  5
2A3D
  8
0
  6
CONTINUOUS
 62
     7
 10
53.875292544555919
 20
-19.999799999999532
 30
0.0
 11
51.6752925445561
 21
-19.999799999999532
 31
0.0
  0
LINE
  5
2A3E
  8
0
  6
CONTINUOUS
 62
     7
 10
54.375292544555919
 20
15.00020000000052
 30
0.0
 11
54.375292544555919
 21
-19.499799999999532
 31
0.0
  0
LINE
  5
2A3F
  8
0
  6
CONTINUOUS
 62
     7
 10
54.375292544555919
 20
-19.499799999999532
 30
0.0
 11
53.875292544555919
 21
-19.999799999999532
 31
0.0
  0
LINE
  5
2A40
  8
0
  6
CONTINUOUS
 62
     7
 10
51.375292544555919
 20
-24.499799999999539
 30
0.0
 11
50.875292544555919
 21
-24.999799999999539
 31
0.0
  0
LINE
  5
2A41
  8
0
  6
CONTINUOUS
 62
     7
 10
41.575292544556632
 20
55.000200000000518
 30
0.0
 11
43.875292544555919
 21
55.000200000000518
 31
0.0
  0
LINE
  5
2A42
  8
0
  6
DASH_CENTER
 62
     1
 10
91.373302989933052
 20
15.00020000000052
 30
0.0
 11
-102.824707455444
 21
15.00020000000052
 31
0.0
  0
LINE
  5
2A43
  8
0
  6
CONTINUOUS
 62
     7
 10
-71.224707455443692
 20
55.000200000000518
 30
0.0
 11
50.875292544555897
 21
55.000200000000518
 31
0.0
  0
LINE
  5
2A44
  8
0
  6
CONTINUOUS
 62
     7
 10
43.375292544555897
 20
55.000200000000518
 30
0.0
 11
43.375292544555933
 21
41.000200000000532
 31
0.0
  0
LINE
  5
2A45
  8
0
  6
CONTINUOUS
 62
     7
 10
54.373302989933002
 20
5.50020000000052
 30
0.0
 11
58.373302989933002
 21
5.50020000000052
 31
0.0
  0
LINE
  5
2A46
  8
0
  6
CONTINUOUS
 62
     7
 10
85.873302989932995
 20
24.500200000000518
 30
0.0
 11
54.373302989933002
 21
24.500200000000518
 31
0.0
  0
LINE
  5
2A47
  8
0
  6
CONTINUOUS
 62
     7
 10
86.373302989933066
 20
6.00020000000052
 30
0.0
 11
86.373302989933066
 21
24.000200000000518
 31
0.0
  0
LINE
  5
2A48
  8
0
  6
CONTINUOUS
 62
     7
 10
58.373302989933002
 20
5.50020000000052
 30
0.0
 11
85.873302989932995
 21
5.50020000000052
 31
0.0
  0
LINE
  5
2A49
  8
0
  6
CONTINUOUS
 62
     7
 10
86.373302989933066
 20
24.000200000000518
 30
0.0
 11
85.873302989932995
 21
24.500200000000518
 31
0.0
  0
LINE
  5
2A4A
  8
0
  6
CONTINUOUS
 62
     7
 10
85.873302989932995
 20
5.50020000000052
 30
0.0
 11
86.373302989933066
 21
6.00020000000052
 31
0.0
  0
LINE
  5
2A4B
  8
0
  6
CONTINUOUS
 62
     7
 10
-92.824707455444056
 20
-24.999799999999539
 30
0.0
 11
-29.32459214314235
 21
-24.999799999999539
 31
0.0
  0
LINE
  5
2A4C
  8
0
  6
CONTINUOUS
 62
     7
 10
-71.324707455444056
 20
15.00020000000052
 30
0.0
 11
-71.324707455444056
 21
-24.999799999999539
 31
0.0
  0
LINE
  5
2A4D
  8
0
  6
CONTINUOUS
 62
     7
 10
-30.324707455446269
 20
54.900200000001931
 30
0.0
 11
-30.324707455431732
 21
15.00020000000052
 31
0.0
  0
LINE
  5
2A4E
  8
0
  6
CONTINUOUS
 62
     7
 10
-71.324707455444056
 20
55.000200000000518
 30
0.0
 11
-71.324707455444056
 21
15.00020000000052
 31
0.0
  0
LINE
  5
2A4F
  8
0
  6
CONTINUOUS
 62
     7
 10
41.575292544556632
 20
55.000200000000518
 30
0.0
 11
41.575292544556632
 21
15.00020000000052
 31
0.0
  0
LINE
  5
2A50
  8
0
  6
CONTINUOUS
 62
     7
 10
85.873302989932995
 20
5.50020000000052
 30
0.0
 11
86.373302989933066
 21
6.00020000000052
 31
0.0
  0
LINE
  5
2A51
  8
0
  6
CONTINUOUS
 62
     7
 10
86.373302989933066
 20
24.000200000000518
 30
0.0
 11
85.873302989932995
 21
24.500200000000518
 31
0.0
  0
LINE
  5
2A52
  8
0
  6
CONTINUOUS
 62
     7
 10
58.373302989933002
 20
5.50020000000052
 30
0.0
 11
85.873302989932995
 21
5.50020000000052
 31
0.0
  0
LINE
  5
2A53
  8
0
  6
CONTINUOUS
 62
     7
 10
86.373302989933066
 20
6.00020000000052
 30
0.0
 11
86.373302989933066
 21
24.000200000000518
 31
0.0
  0
LINE
  5
2A54
  8
0
  6
CONTINUOUS
 62
     7
 10
85.873302989932995
 20
24.500200000000518
 30
0.0
 11
54.373302989933002
 21
24.500200000000518
 31
0.0
  0
LINE
  5
2A55
  8
0
  6
CONTINUOUS
 62
     7
 10
54.373302989933002
 20
5.50020000000052
 30
0.0
 11
58.373302989933002
 21
5.50020000000052
 31
0.0
  0
LINE
  5
2A56
  8
0
  6
CONTINUOUS
 62
     7
 10
43.875292544555919
 20
55.000200000000518
 30
0.0
 11
50.875292544555897
 21
55.000200000000518
 31
0.0
  0
LINE
  5
2A57
  8
0
  6
CONTINUOUS
 62
     7
 10
41.575292544556632
 20
55.000200000000518
 30
0.0
 11
41.575292544556632
 21
52.350199999999923
 31
0.0
  0
LINE
  5
2A58
  8
0
  6
CONTINUOUS
 62
     7
 10
51.375292544555919
 20
54.500200000000518
 30
0.0
 11
51.375292544555919
 21
15.00020000000052
 31
0.0
  0
LINE
  5
2A59
  8
0
  6
CONTINUOUS
 62
     7
 10
51.6752925445561
 20
50.000200000000518
 30
0.0
 11
53.875292544555919
 21
50.000200000000518
 31
0.0
  0
LINE
  5
2A5A
  8
0
  6
CONTINUOUS
 62
     7
 10
54.375292544555919
 20
49.500200000000518
 30
0.0
 11
54.375292544555919
 21
15.00020000000052
 31
0.0
  0
LINE
  5
2A5B
  8
0
  6
CONTINUOUS
 62
     7
 10
53.875292544555919
 20
50.000200000000518
 30
0.0
 11
54.375292544555919
 21
49.500200000000518
 31
0.0
  0
LINE
  5
2A5C
  8
0
  6
CONTINUOUS
 62
     7
 10
50.875292544555897
 20
55.000200000000518
 30
0.0
 11
51.375292544555919
 21
54.500200000000518
 31
0.0
  0
LINE
  5
2A5D
  8
0
  6
CONTINUOUS
 62
     7
 10
-29.32459214314235
 20
41.000200000000532
 30
0.0
 11
43.375292544555933
 21
41.000200000000532
 31
0.0
  0
LINE
  5
2A5E
  8
0
  6
CONTINUOUS
 62
     7
 10
-94.824707455444013
 20
-22.22757604274992
 30
0.0
 11
-94.824707455444013
 21
-22.999799999999539
 31
0.0
  0
LINE
  5
2A5F
  8
0
  6
CONTINUOUS
 62
     7
 10
-97.440575390863501
 20
-10.16437227984977
 30
0.0
 11
-94.875925064054513
 21
-21.777857029352941
 31
0.0
  0
LINE
  5
2A60
  8
0
  6
CONTINUOUS
 62
     7
 10
-72.324707455444084
 20
55.936768003547492
 30
0.0
 11
-72.324707455444056
 21
40.000200000000518
 31
0.0
  0
LINE
  5
2A61
  8
0
  6
CONTINUOUS
 62
     7
 10
-97.824707455444084
 20
-6.7914796793683081
 30
0.0
 11
-97.824707455444084
 21
57.626811994264351
 31
0.0
  0
LINE
  5
2A62
  8
0
  6
CONTINUOUS
 62
     7
 10
-71.224707455443692
 20
55.000200000000518
 30
0.0
 11
-94.824707455444013
 21
55.000200000000518
 31
0.0
  0
LINE
  5
2A63
  8
0
  6
CONTINUOUS
 62
     7
 10
-94.824707455444013
 20
54.974846114650227
 30
0.0
 11
-94.824707455444013
 21
-22.22757604274992
 31
0.0
  0
LINE
  5
2A64
  8
0
  6
CONTINUOUS
 62
     7
 10
-95.121948042119882
 20
47.500200000000518
 30
0.0
 11
-97.824707455444084
 21
33.493442008907671
 31
0.0
  0
LINE
  5
2A65
  8
0
  6
CONTINUOUS
 62
     7
 10
-6.4417808009596493
 20
124.0657418950678
 30
0.0
 11
6.9746084787827076
 21
110.6493526153273
 31
0.0
  0
LINE
  5
2A66
  8
0
  6
CONTINUOUS
 62
     7
 10
-5.3811206291796401
 20
125.12640206684971
 30
0.0
 11
7.3746031072829989
 21
112.3706783303861
 31
0.0
  0
LINE
  5
2A67
  8
0
  6
CONTINUOUS
 62
     7
 10
-14.584521320616959
 20
141.7323988887193
 30
0.0
 11
-14.93807471120938
 21
143.1466124510909
 31
0.0
  0
LINE
  5
2A68
  8
0
  6
CONTINUOUS
 62
     7
 10
-13.17030775824181
 20
144.2072726228709
 30
0.0
 11
-6.0108515987306701
 21
137.0478164633578
 31
0.0
  0
LINE
  5
2A69
  8
0
  6
CONTINUOUS
 62
     7
 10
-14.93807471120938
 20
143.1466124510909
 30
0.0
 11
-14.23096793002181
 21
143.8537192322793
 31
0.0
  0
LINE
  5
2A6A
  8
0
  6
CONTINUOUS
 62
     7
 10
-13.17030775824181
 20
144.2072726228709
 30
0.0
 11
-14.23096793002181
 21
143.8537192322793
 31
0.0
  0
LINE
  5
2A6B
  8
0
  6
CONTINUOUS
 62
     7
 10
-19.55904714062066
 20
144.4653369836461
 30
0.0
 11
-22.034145204417069
 21
141.99023891985061
 31
0.0
  0
LINE
  5
2A6C
  8
0
  6
CONTINUOUS
 62
     7
 10
-13.05366475370494
 20
137.95995459673131
 30
0.0
 11
-19.55904714062066
 21
144.4653369836461
 31
0.0
  0
LINE
  5
2A6D
  8
0
  6
CONTINUOUS
 62
     7
 10
-9.5534479919209154
 20
120.95407470410569
 30
0.0
 11
-1.916403772281529
 21
128.5911189237442
 31
0.0
  0
LINE
  5
2A6E
  8
0
  6
CONTINUOUS
 62
     7
 10
-4.7448308982896581
 20
127.1769053601103
 30
0.0
 11
-3.33061733507596
 21
128.59111892332211
 31
0.0
  0
LINE
  5
2A6F
  8
0
  6
CONTINUOUS
 62
     7
 10
-4.7447821296139692
 20
127.176856594797
 30
0.0
 11
-4.0375095386964981
 21
126.4696327806279
 31
0.0
  0
LINE
  5
2A70
  8
0
  6
CONTINUOUS
 62
     7
 10
-10.26055477310668
 20
121.6611814852923
 30
0.0
 11
-7.4321276483609102
 21
124.48960861003719
 31
0.0
  0
LINE
  5
2A71
  8
0
  6
CONTINUOUS
 62
     7
 10
-7.4321276483609102
 20
124.48960861003719
 30
0.0
 11
-6.7250208671742593
 21
123.7825018288523
 31
0.0
  0
LINE
  5
2A72
  8
0
  6
CONTINUOUS
 62
     7
 10
-14.054191234725611
 20
141.20206880283069
 30
0.0
 11
-14.584521320616959
 21
141.7323988887193
 31
0.0
  0
LINE
  5
2A73
  8
0
  6
CONTINUOUS
 62
     7
 10
-14.054191234725611
 20
141.20206880283069
 30
0.0
 11
-13.34708445353982
 21
141.90917558401441
 31
0.0
  0
LINE
  5
2A74
  8
0
  6
CONTINUOUS
 62
     7
 10
-13.34708445353982
 20
141.90917558401441
 30
0.0
 11
-10.521092640394579
 21
139.08318377087119
 31
0.0
  0
LINE
  5
2A75
  8
0
  6
CONTINUOUS
 62
     7
 10
-3.860947420544409
 20
135.83896343090521
 30
0.0
 11
-4.5680542017328802
 21
136.54607021209191
 31
0.0
  0
LINE
  5
2A76
  8
0
  6
CONTINUOUS
 62
     7
 10
-4.5680542017328802
 20
136.54607021209191
 30
0.0
 11
-4.86180307930164
 21
136.25232133452221
 31
0.0
  0
LINE
  5
2A77
  8
0
  6
CONTINUOUS
 62
     7
 10
-4.7448308970290993
 20
134.9550799544223
 30
0.0
 11
-3.860947420544409
 21
135.83896343090521
 31
0.0
  0
LINE
  5
2A78
  8
0
  6
CONTINUOUS
 62
     7
 10
-9.8758329822606488
 20
139.72357280580141
 30
0.0
 11
-10.40168514652153
 21
139.1977206415423
 31
0.0
  0
LINE
  5
2A79
  8
0
  6
CONTINUOUS
 62
     7
 10
-4.86180307930164
 20
136.25232133452221
 30
0.0
 11
-9.8758329822606488
 21
139.72357280580141
 31
0.0
  0
LINE
  5
2A7A
  8
0
  6
CONTINUOUS
 62
     7
 10
-9.8713550606320002
 20
137.6067303838737
 30
0.0
 11
-9.7836259239268806
 21
137.69445952057609
 31
0.0
  0
LINE
  5
2A7B
  8
0
  6
CONTINUOUS
 62
     7
 10
-4.7448308970290993
 20
134.9550799544223
 30
0.0
 11
-8.8263883539123693
 21
137.7807735784219
 31
0.0
  0
LINE
  5
2A7C
  8
0
  6
CONTINUOUS
 62
     7
 10
-3.33061733507596
 20
128.59111892332211
 30
0.0
 11
-2.6235105538883801
 21
127.88401214213729
 31
0.0
  0
LINE
  5
2A7D
  8
0
  6
CONTINUOUS
 62
     7
 10
-3.33061733507596
 20
128.59111892332211
 30
0.0
 11
-2.623344744157579
 21
127.8838951091567
 31
0.0
  0
LINE
  5
2A7E
  8
0
  6
CONTINUOUS
 62
     7
 10
-10.26055477310668
 20
121.6611814852923
 30
0.0
 11
-9.5534479919209154
 21
120.95407470410569
 31
0.0
  0
LINE
  5
2A7F
  8
0
  6
CONTINUOUS
 62
     7
 10
-9.5534236080032606
 20
122.3683126503967
 30
0.0
 11
-19.099365154020521
 21
131.91425419641391
 31
0.0
  0
LINE
  5
2A80
  8
0
  6
CONTINUOUS
 62
     7
 10
-22.422542695955901
 20
141.6018414283127
 30
0.0
 11
-24.8976407597514
 21
139.12674336451801
 31
0.0
  0
LINE
  5
2A81
  8
0
  6
CONTINUOUS
 62
     7
 10
-15.917160309038371
 20
135.09645904139609
 30
0.0
 11
-22.422542695955901
 21
141.6018414283127
 31
0.0
  0
LINE
  5
2A82
  8
0
  6
CONTINUOUS
 62
     7
 10
-24.8976407597514
 20
139.12674336451801
 30
0.0
 11
-18.392258372835691
 21
132.62136097759961
 31
0.0
  0
LINE
  5
2A83
  8
0
  6
CONTINUOUS
 62
     7
 10
-22.034145204417069
 20
141.99023891985061
 30
0.0
 11
-15.52876281749953
 21
135.4848565329377
 31
0.0
  0
LINE
  5
2A84
  8
0
  6
CONTINUOUS
 62
     7
 10
-19.099365154020521
 20
131.91425419641391
 30
0.0
 11
-12.16945209948639
 21
138.84416725094809
 31
0.0
  0
LINE
  5
2A85
  8
0
  6
CONTINUOUS
 62
     7
 10
-9.8713550606320002
 20
136.54607021209191
 30
0.0
 11
-1.916403772281529
 21
128.5911189237442
 31
0.0
  0
LINE
  5
2A86
  8
0
  6
CONTINUOUS
 62
     7
 10
3.4750996486324501
 20
118.3915021325969
 30
0.0
 11
-4.3204604573996477
 21
126.1870622386279
 31
0.0
  0
LINE
  5
2A88
  8
0
  6
CONTINUOUS
 62
     7
 10
12.77446216571086
 20
69.650200000000154
 30
0.0
 11
12.77446216571086
 21
85.262312314853375
 31
0.0
  0
LINE
  5
2A89
  8
0
  6
CONTINUOUS
 62
     7
 10
5.9752925445560994
 20
69.548671040341389
 30
0.0
 11
5.9752925445560994
 21
85.262312314853375
 31
0.0
  0
LINE
  5
2A8A
  8
0
  6
DASH_CENTER
 62
     1
 10
9.5005554104001675
 20
143.5954845538246
 30
0.0
 11
9.5005554104001675
 21
67.450200000000322
 31
0.0
  0
LINE
  5
2A8B
  8
0
  6
CONTINUOUS
 62
     7
 10
7.3746031072829989
 20
117.39515194348419
 30
0.0
 11
7.3746031072829989
 21
110.6493526153272
 31
0.0
  0
LINE
  5
2A8C
  8
0
  6
CONTINUOUS
 62
     7
 10
8.6246031072829972
 20
117.3951297803643
 30
0.0
 11
8.6246031072829972
 21
110.6493526153273
 31
0.0
  0
LINE
  5
2A8D
  8
0
  6
CONTINUOUS
 62
     7
 10
10.12455310728244
 20
117.395103185506
 30
0.0
 11
10.12455310728244
 21
110.6493526153273
 31
0.0
  0
LINE
  5
2A8E
  8
0
  6
CONTINUOUS
 62
     7
 10
11.37460310728299
 20
117.39508102149929
 30
0.0
 11
11.37460310728299
 21
110.6493526153273
 31
0.0
  0
LINE
  5
2A8F
  8
0
  6
CONTINUOUS
 62
     7
 10
12.77446216571086
 20
86.775940570291013
 30
0.0
 11
12.77446216571086
 21
103.3993526153272
 31
0.0
  0
LINE
  5
2A90
  8
0
  6
CONTINUOUS
 62
     7
 10
6.8746031072829981
 20
110.6493526153273
 30
0.0
 11
6.8746031072829981
 21
108.1493526153273
 31
0.0
  0
LINE
  5
2A91
  8
0
  6
CONTINUOUS
 62
     7
 10
11.87460310728299
 20
108.1493526153273
 30
0.0
 11
13.274628765539701
 21
106.6493526153273
 31
0.0
  0
LINE
  5
2A92
  8
0
  6
CONTINUOUS
 62
     7
 10
11.87460310728299
 20
108.1493526153273
 30
0.0
 11
11.87460310728299
 21
110.6493526153273
 31
0.0
  0
LINE
  5
2A93
  8
0
  6
CONTINUOUS
 62
     7
 10
6.8746031072829981
 20
108.1493526153273
 30
0.0
 11
5.4746287654876786
 21
106.6493526153273
 31
0.0
  0
LINE
  5
2A94
  8
0
  6
CONTINUOUS
 62
     7
 10
6.8746031072829981
 20
110.6493526153273
 30
0.0
 11
11.87460310728299
 21
110.6493526153273
 31
0.0
  0
LINE
  5
2A95
  8
0
  6
CONTINUOUS
 62
     7
 10
13.274628765539701
 20
106.6493526153273
 30
0.0
 11
13.274628765539701
 21
103.3993526153273
 31
0.0
  0
LINE
  5
2A96
  8
0
  6
CONTINUOUS
 62
     7
 10
5.4746287654876786
 20
106.6493526153273
 30
0.0
 11
5.4746287654867603
 21
103.3993526153272
 31
0.0
  0
LINE
  5
2A97
  8
0
  6
CONTINUOUS
 62
     7
 10
5.4746287654867603
 20
103.3993526153272
 30
0.0
 11
13.274628765539701
 21
103.3993526153273
 31
0.0
  0
LINE
  5
2A98
  8
0
  6
CONTINUOUS
 62
     7
 10
5.9752925445560994
 20
103.3993526153272
 30
0.0
 11
5.9752925445560994
 21
86.775940570291013
 31
0.0
  0
LINE
  5
2A99
  8
0
  6
CONTINUOUS
 62
     7
 10
-0.82470745544408
 20
62.850199999999973
 30
0.0
 11
1.1752925445559179
 21
62.850199999999973
 31
0.0
  0
LINE
  5
2A9A
  8
0
  6
CONTINUOUS
 62
     7
 10
-0.82470745544408
 20
56.0502000000007
 30
0.0
 11
1.1752925445559179
 21
56.0502000000007
 31
0.0
  0
LINE
  5
2A9B
  8
0
  6
DASH_CENTER
 62
     1
 10
-3.324707455444079
 20
59.450200000000351
 30
0.0
 11
1.5005554104001591
 21
59.450200000000351
 31
0.0
  0
LINE
  5
2A9C
  8
0
  6
CONTINUOUS
 62
     7
 10
-72.324707455444056
 20
32.800302764550374
 30
0.0
 11
-72.324707455444056
 21
-4.9997999999994791
 31
0.0
  0
LINE
  5
2A9D
  8
0
  6
CONTINUOUS
 62
     7
 10
-72.324707455444056
 20
33.000200000000518
 30
0.0
 11
-72.324707455444056
 21
-16.999800000000391
 31
0.0
  0
LINE
  5
2A9E
  8
0
  6
CONTINUOUS
 62
     7
 10
-72.324707455444056
 20
-23.999799999999539
 30
0.0
 11
-72.324707455444056
 21
-24.999799999999539
 31
0.0
  0
LINE
  5
2A9F
  8
0
  6
CONTINUOUS
 62
     7
 10
-71.96470745544805
 20
33.587081039376358
 30
0.0
 11
-71.96470745544805
 21
40.500200000000518
 31
0.0
  0
LINE
  5
2AA0
  8
0
  6
CONTINUOUS
 62
     7
 10
-29.32459214314235
 20
41.000200000000532
 30
0.0
 11
-71.324707455444056
 21
41.000200000000532
 31
0.0
  0
LINE
  5
2AA1
  8
0
  6
CONTINUOUS
 62
     7
 10
43.375292544555897
 20
-10.99979999999948
 30
0.0
 11
43.375292544555897
 21
-24.999799999999539
 31
0.0
  0
LINE
  5
2AA2
  8
0
  6
CONTINUOUS
 62
     7
 10
46.915292544555847
 20
32.500200000000518
 30
0.0
 11
46.275292544555541
 21
32.500200000000518
 31
0.0
  0
LINE
  5
2AA3
  8
0
  6
CONTINUOUS
 62
     7
 10
46.915292544555847
 20
40.500200000000518
 30
0.0
 11
46.915292544555847
 21
32.500200000000518
 31
0.0
  0
LINE
  5
2AA4
  8
0
  6
CONTINUOUS
 62
     7
 10
46.275292544555541
 20
40.500200000000518
 30
0.0
 11
46.915292544555847
 21
40.500200000000518
 31
0.0
  0
LINE
  5
2AA5
  8
0
  6
CONTINUOUS
 62
     7
 10
46.275292544555541
 20
32.250199999999609
 30
0.0
 11
51.375292544556807
 21
32.250199999999609
 31
0.0
  0
LINE
  5
2AA6
  8
0
  6
CONTINUOUS
 62
     7
 10
46.275292544555541
 20
40.750199999999609
 30
0.0
 11
46.275292544555541
 21
32.250199999999609
 31
0.0
  0
LINE
  5
2AA7
  8
0
  6
CONTINUOUS
 62
     7
 10
51.375292544556807
 20
40.750199999999609
 30
0.0
 11
46.275292544555541
 21
40.750199999999609
 31
0.0
  0
LINE
  5
2AA8
  8
0
  6
CONTINUOUS
 62
     7
 10
50.565292544555511
 20
33.000200000000518
 30
0.0
 11
46.915292544555847
 21
33.000200000000518
 31
0.0
  0
LINE
  5
2AA9
  8
0
  6
CONTINUOUS
 62
     7
 10
50.565292544555511
 20
33.000200000000518
 30
0.0
 11
50.565292544555511
 21
40.000200000000518
 31
0.0
  0
LINE
  5
2AAA
  8
0
  6
CONTINUOUS
 62
     7
 10
50.915292544555847
 20
39.650200000000147
 30
0.0
 11
50.915292544555847
 21
33.350199999999923
 31
0.0
  0
LINE
  5
2AAB
  8
0
  6
CONTINUOUS
 62
     7
 10
50.565292544555511
 20
33.000200000000518
 30
0.0
 11
50.915292544555847
 21
33.350199999999923
 31
0.0
  0
LINE
  5
2AAC
  8
0
  6
CONTINUOUS
 62
     7
 10
46.915292544555847
 20
40.000200000000518
 30
0.0
 11
50.565292544555511
 21
40.000200000000518
 31
0.0
  0
LINE
  5
2AAD
  8
0
  6
CONTINUOUS
 62
     7
 10
50.915292544555847
 20
39.650200000000147
 30
0.0
 11
50.565292544555511
 21
40.000200000000518
 31
0.0
  0
LINE
  5
2AAE
  8
0
  6
DASH_CENTER
 62
     1
 10
43.775292544560088
 20
36.500200000000532
 30
0.0
 11
53.415292544555847
 21
36.500200000000532
 31
0.0
  0
ARC
  5
2AB8
  8
0
  6
CONTINUOUS
 62
     7
 10
-77.23482021734101
 20
132.4447454817774
 30
0.0
 40
1.5500835258512691
 50
268.13330619645728
 51
339.24682885547372
  0
ARC
  5
2AB9
  8
0
  6
CONTINUOUS
 62
     2
 10
-69.810312932040432
 20
92.753896221559529
 30
0.0
 40
2.5500000000012122
 50
60.000000000015604
 51
119.9999999999841
  0
ARC
  5
2ABA
  8
0
  6
CONTINUOUS
 62
     2
 10
-67.260312932040421
 20
97.170625780860647
 30
0.0
 40
2.549999999999208
 50
239.99999999998951
 51
300.00000000001012
  0
ARC
  5
2ABB
  8
0
  6
CONTINUOUS
 62
     2
 10
-69.810312932040432
 20
91.476568046096645
 30
0.0
 40
2.549999999999883
 50
59.999999999998352
 51
120.00000000000141
  0
ARC
  5
2ABC
  8
0
  6
CONTINUOUS
 62
     2
 10
-67.260312932040421
 20
95.893297605397763
 30
0.0
 40
2.5500000000005358
 50
240.00000000000679
 51
299.99999999999289
  0
ARC
  5
2ABD
  8
0
  6
CONTINUOUS
 62
     7
 10
-77.760551189113613
 20
63.119264206476259
 30
0.0
 40
0.8000000000005583
 50
340.00000759646338
 51
49.55729176880979
  0
ARC
  5
2ABE
  8
0
  6
CONTINUOUS
 62
     7
 10
-81.133725518523818
 20
59.161778269240237
 30
0.0
 40
6.000000000001271
 50
49.557291768867849
 51
80.442723424020983
  0
ARC
  5
2ABF
  8
0
  6
CONTINUOUS
 62
     7
 10
-80.270351431565587
 20
64.28960287485836
 30
0.0
 40
0.800000000000533
 50
80.442723424002708
 51
150.0000075965329
  0
ARC
  5
2AC0
  8
0
  6
CONTINUOUS
 62
     7
 10
-89.009993599205089
 20
63.827582502776863
 30
0.0
 40
0.1000000000016724
 50
120.5610106906602
 51
244.99999999905049
  0
ARC
  5
2AC1
  8
0
  6
CONTINUOUS
 62
     7
 10
-85.515161637448088
 20
64.84602260055739
 30
0.0
 40
0.9999999999992271
 50
65.000000000004789
 51
120.56101069123029
  0
ARC
  5
2AC2
  8
0
  6
CONTINUOUS
 62
     7
 10
-73.963009918689124
 20
59.459165785938339
 30
0.0
 40
0.9999999999985336
 50
9.4389893088012702
 51
65.000000000071111
  0
ARC
  5
2AC3
  8
0
  6
CONTINUOUS
 62
     7
 10
-72.496745613285654
 20
56.127328505940653
 30
0.0
 40
0.0999999999981783
 50
245.00000000091509
 51
9.4389893087453416
  0
ARC
  5
2AC4
  8
0
  6
CONTINUOUS
 62
     7
 10
3.025626847397378
 20
132.4444128714359
 30
0.0
 40
1.5500835258507351
 50
274.25209721598918
 51
339.24682885548589
  0
ARC
  5
2AC5
  8
0
  6
CONTINUOUS
 62
     7
 10
3.025626847397378
 20
132.4444128714359
 30
0.0
 40
1.550083525851323
 50
268.13330619649139
 51
274.25209721598918
  0
ARC
  5
2AC6
  8
0
  6
CONTINUOUS
 62
     7
 10
-13.324707455425891
 20
54.040200000005029
 30
0.0
 40
5.9999999999994031
 50
74.557284172423195
 51
90.0
  0
ARC
  5
2AC7
  8
0
  6
CONTINUOUS
 62
     7
 10
-11.940078456764549
 20
59.05246521007399
 30
0.0
 40
0.7999999999985552
 50
4.9999999999570512
 51
74.55728417251305
  0
ARC
  5
2AC8
  8
0
  6
CONTINUOUS
 62
     7
 10
-13.324707455425891
 20
54.040200000005029
 30
0.0
 40
6.0
 50
90.0
 51
105.44271582757681
  0
ARC
  5
2AC9
  8
0
  6
CONTINUOUS
 62
     7
 10
-14.70933645408634
 20
59.05246521007399
 30
0.0
 40
0.7999999999994902
 50
105.4427158275478
 51
175.00000000005409
  0
ARC
  5
2ACB
  8
0
  6
CONTINUOUS
 62
     7
 10
-90.204707455444193
 20
-20.499799999999532
 30
0.0
 40
6.9999999999994609
 50
163.74297210339441
 51
180.0
  0
ARC
  5
2ACC
  8
0
  6
CONTINUOUS
 62
     7
 10
-95.964800595573593
 20
-18.82011937052798
 30
0.0
 40
1.000000000000377
 50
95.000000000074692
 51
163.74297210340819
  0
ARC
  5
2ACD
  8
0
  6
CONTINUOUS
 62
     7
 10
-90.204707455444193
 20
-20.499799999999532
 30
0.0
 40
7.0
 50
180.0
 51
196.25702789660511
  0
ARC
  5
2ACE
  8
0
  6
CONTINUOUS
 62
     7
 10
-95.964800595573593
 20
-22.17948062947093
 30
0.0
 40
1.0000000000005
 50
196.25702789659761
 51
264.99999999992519
  0
ARC
  5
2ACF
  8
0
  6
CONTINUOUS
 62
     7
 10
-90.204707455444193
 20
-6.4997999999994791
 30
0.0
 40
6.999999999999444
 50
163.74297210339481
 51
180.0
  0
ARC
  5
2AD0
  8
0
  6
CONTINUOUS
 62
     7
 10
-95.964800595573593
 20
-4.8201193705280003
 30
0.0
 40
1.000000000000409
 50
95.000000000074564
 51
163.74297210340711
  0
ARC
  5
2AD1
  8
0
  6
CONTINUOUS
 62
     7
 10
-90.204707455444193
 20
-6.4997999999994791
 30
0.0
 40
7.0
 50
180.0
 51
196.25702789660571
  0
ARC
  5
2AD2
  8
0
  6
CONTINUOUS
 62
     7
 10
-95.964800595573593
 20
-8.1794806294709606
 30
0.0
 40
1.0000000000005
 50
196.25702789659761
 51
264.99999999992519
  0
ARC
  5
2AD3
  8
0
  6
CONTINUOUS
 62
     7
 10
-90.204707455444193
 20
50.500200000000532
 30
0.0
 40
6.999999999999444
 50
163.74297210339481
 51
180.0
  0
ARC
  5
2AD4
  8
0
  6
CONTINUOUS
 62
     7
 10
-95.964800595573593
 20
52.179880629472031
 30
0.0
 40
1.000000000000359
 50
95.000000000074806
 51
163.7429721034101
  0
ARC
  5
2AD5
  8
0
  6
CONTINUOUS
 62
     7
 10
-90.204707455444193
 20
50.500200000000532
 30
0.0
 40
7.0
 50
180.0
 51
196.25702789660599
  0
ARC
  5
2AD6
  8
0
  6
CONTINUOUS
 62
     7
 10
-95.964800595573593
 20
48.820519370529048
 30
0.0
 40
1.000000000000508
 50
196.2570278965992
 51
264.99999999992519
  0
ARC
  5
2AD7
  8
0
  6
CONTINUOUS
 62
     7
 10
-11.532881795468089
 20
140.25750980855901
 30
0.0
 40
1.5500835258502561
 50
245.75317114458201
 51
316.86669380356432
  0
ARC
  5
2AD8
  8
0
  6
CONTINUOUS
 62
     7
 10
0.1744621657105
 20
68.650200000000112
 30
0.0
 40
12.63962024745936
 50
274.53777250790699
 51
4.5377725079067801
  0
ARC
  5
2AD9
  8
0
  6
CONTINUOUS
 62
     7
 10
0.17529254455592
 20
68.635812404046291
 30
0.0
 40
5.8713976947448172
 50
279.80626208769371
 51
8.9443761490152696
  0
ARC
  5
2ADA
  8
0
  6
CONTINUOUS
 62
     2
 10
7.6750849498454592
 20
83.831813762012743
 30
0.0
 40
3.3995848105760169
 50
59.999999999990877
 51
120.000000000022
  0
ARC
  5
2ADB
  8
0
  6
CONTINUOUS
 62
     2
 10
11.074669760421481
 20
89.720067378570207
 30
0.0
 40
3.3995848105763442
 50
240.00000000001211
 51
300.0000000000145
  0
ARC
  5
2ADC
  8
0
  6
CONTINUOUS
 62
     2
 10
7.6750849498454592
 20
82.318185506574196
 30
0.0
 40
3.3995848105768061
 50
59.999999999998558
 51
120.0000000000143
  0
ARC
  5
2ADD
  8
0
  6
CONTINUOUS
 62
     2
 10
11.074669760421481
 20
88.20643912313345
 30
0.0
 40
3.399584810577132
 50
240.0000000000197
 51
300.00000000000682
  0
ARC
  5
2ADE
  8
0
  6
DASH_CENTER
 62
     1
 10
-71.535312932040441
 20
86.844243549954896
 30
0.0
 40
3.0
 50
334.9999974070281
 51
0.0
  0
ARC
  5
2ADF
  8
0
  6
CONTINUOUS
 62
     7
 10
-76.535312932040455
 20
128.6454845538257
 30
0.0
 40
0.75
 50
0.0
 51
90.0
  0
ARC
  5
2AE0
  8
0
  6
CONTINUOUS
 62
     7
 10
-76.659380666983736
 20
128.6454845538257
 30
0.0
 40
0.75
 50
90.0
 51
169.6951535313045
  0
ARC
  5
2AE1
  8
0
  6
CONTINUOUS
 62
     7
 10
-95.82470745544407
 20
57.626811994264351
 30
0.0
 40
1.999999999999639
 50
120.5003993976473
 51
180.0
  0
ARC
  5
2AE2
  8
0
  6
CONTINUOUS
 62
     7
 10
-89.127817900259586
 20
62.668809165817933
 30
0.0
 40
1.000000000001289
 50
64.999999999996106
 51
120.5003993975858
  0
ARC
  5
2AE4
  8
0
  6
CONTINUOUS
 62
     7
 10
-76.533451141886829
 20
87.849272366277873
 30
0.0
 40
5.448138225482519
 50
334.89879842107882
 51
0.00434070709057
  0
ARC
  5
2AE5
  8
0
  6
CONTINUOUS
 62
     7
 10
-76.537198118581543
 20
87.848832844746994
 30
0.0
 40
10.55188519481851
 50
334.89085647295309
 51
359.99773064654022
  0
ARC
  5
2AE6
  8
0
  6
CONTINUOUS
 62
     7
 10
3.601066397756469
 20
128.64515194348411
 30
0.0
 40
0.75
 50
90.0
 51
169.6951535312235
  0
ARC
  5
2AE7
  8
0
  6
CONTINUOUS
 62
     7
 10
3.7251341326988689
 20
128.64515194348411
 30
0.0
 40
0.7500000000000006
 50
0.00000000000651
 51
90.0
  0
ARC
  5
2AE8
  8
0
  6
CONTINUOUS
 62
     7
 10
-10.524707455444069
 20
57.900200000000098
 30
0.0
 40
0.1999999999998181
 50
270.00000000004837
 51
0.0
  0
ARC
  5
2AE9
  8
0
  6
CONTINUOUS
 62
     7
 10
-16.124707455444248
 20
57.900200000000098
 30
0.0
 40
0.1999999999998323
 50
180.0
 51
270.0
  0
ARC
  5
2AEA
  8
0
  6
CONTINUOUS
 62
     7
 10
-31.824707455444081
 20
60.246431773407608
 30
0.0
 40
1.0000000000005911
 50
131.18592516571411
 51
180.0
  0
ARC
  5
2AEB
  8
0
  6
CONTINUOUS
 62
     7
 10
-24.448972339339281
 20
66.700200000000279
 30
0.0
 40
1.0
 50
90.0
 51
131.18592516566849
  0
ARC
  5
2AEC
  8
0
  6
CONTINUOUS
 62
     7
 10
-1.8247074554440781
 20
66.700200000000279
 30
0.0
 40
1.0
 50
0.0
 51
90.0
  0
ARC
  5
2AED
  8
0
  6
CONTINUOUS
 62
     7
 10
51.6752925445561
 20
-20.29979999999783
 30
0.0
 40
0.2999999999982919
 50
90.0
 51
180.0
  0
ARC
  5
2AEE
  8
0
  6
CONTINUOUS
 62
     7
 10
51.6752925445561
 20
50.300199999999847
 30
0.0
 40
0.3000000000001819
 50
180.0
 51
270.0
  0
ARC
  5
2AEF
  8
0
  6
CONTINUOUS
 62
     7
 10
-96.82470745544407
 20
-22.22757604274992
 30
0.0
 40
2.000000000000099
 50
0.0
 51
12.99461679189978
  0
ARC
  5
2AF0
  8
0
  6
CONTINUOUS
 62
     7
 10
-92.824707455444056
 20
-22.999799999999539
 30
0.0
 40
1.9999999999999001
 50
180.0
 51
270.0
  0
ARC
  5
2AF1
  8
0
  6
CONTINUOUS
 62
     7
 10
-82.824707455444113
 20
-6.7914796793683081
 30
0.0
 40
15.0
 50
180.0
 51
192.99461679191671
  0
ARC
  5
2AF2
  8
0
  6
CONTINUOUS
 62
     7
 10
-9.3410249747415275
 20
137.0764002979823
 30
0.0
 40
0.7500000000014455
 50
134.99999999995021
 51
224.99999999999599
  0
ARC
  5
2AF3
  8
0
  6
CONTINUOUS
 62
     7
 10
-9.2532958380355304
 20
137.1641294346874
 30
0.0
 40
0.7500000000016172
 50
55.304846468811782
 51
135.00000000014359
  0
ARC
  5
2AF4
  8
0
  6
DASH_CENTER
 62
     1
 10
1.5005554104001591
 20
67.450200000000336
 30
0.0
 40
7.999999999999992
 50
270.0
 51
359.99999999999977
  0
LINE
  5
2C15
  8
0
  6
CONTINUOUS
 62
     7
 10
-94.82470745544407
 20
-62.989814699448949
 30
0.0
 11
-97.440575390865263
 21
-74.835227720148154
 31
0.0
  0
LINE
  5
2C16
  8
0
  6
CONTINUOUS
 62
     7
 10
-97.824707455444084
 20
-99.999799999999496
 30
0.0
 11
-97.824707455444084
 21
-78.208120320628723
 31
0.0
  0
LINE
  5
2C17
  8
0
  6
CONTINUOUS
 62
     7
 10
-72.324707455444056
 20
-59.999799999999361
 30
0.0
 11
-72.324707455444056
 21
-139.9997999999996
 31
0.0
  0
LINE
  5
2C18
  8
0
  6
CONTINUOUS
 62
     7
 10
-97.824707455444084
 20
-121.79147967936839
 30
0.0
 11
-97.824707455444084
 21
-99.999799999999496
 31
0.0
  0
LINE
  5
2C19
  8
0
  6
CONTINUOUS
 62
     7
 10
54.373302989934807
 20
-134.4997999999996
 30
0.0
 11
54.373302989934807
 21
-115.9208713416795
 31
0.0
  0
LINE
  5
2C1A
  8
0
  6
CONTINUOUS
 62
     7
 10
-72.322602588534494
 20
-73.999799999999368
 30
0.0
 11
-72.322602588534494
 21
-81.412918960628531
 31
0.0
  0
LINE
  5
2C1B
  8
0
  6
CONTINUOUS
 62
     7
 10
-72.962602588544812
 20
-81.412918960628531
 30
0.0
 11
-72.962602588544812
 21
-74.49979999999934
 31
0.0
  0
LINE
  5
2C1C
  8
0
  6
CONTINUOUS
 62
     7
 10
-72.962602588544812
 20
-74.49979999999934
 30
0.0
 11
-72.322602588534494
 21
-74.49979999999934
 31
0.0
  0
LINE
  5
2C1D
  8
0
  6
CONTINUOUS
 62
     7
 10
-76.56260258854519
 20
-74.99979999999934
 30
0.0
 11
-76.56260258854519
 21
-81.412918960628531
 31
0.0
  0
LINE
  5
2C1E
  8
0
  6
CONTINUOUS
 62
     7
 10
-76.962602588544812
 20
-75.399799999999018
 30
0.0
 11
-76.962602588544812
 21
-81.599799999997458
 31
0.0
  0
LINE
  5
2C1F
  8
0
  6
CONTINUOUS
 62
     7
 10
-76.56260258854519
 20
-74.99979999999934
 30
0.0
 11
-76.962602588544812
 21
-75.399799999999018
 31
0.0
  0
LINE
  5
2C20
  8
0
  6
CONTINUOUS
 62
     7
 10
-76.56260258854519
 20
-74.99979999999934
 30
0.0
 11
-72.962602588544812
 21
-74.99979999999934
 31
0.0
  0
LINE
  5
2C21
  8
0
  6
CONTINUOUS
 62
     7
 10
-72.962602588533912
 20
-139.4997999999996
 30
0.0
 11
-72.962602588533912
 21
-132.75619875331861
 31
0.0
  0
LINE
  5
2C22
  8
0
  6
CONTINUOUS
 62
     7
 10
-72.962602588533912
 20
-139.4997999999996
 30
0.0
 11
-72.322602588534494
 21
-139.4997999999996
 31
0.0
  0
LINE
  5
2C23
  8
0
  6
CONTINUOUS
 62
     7
 10
-76.562602588534276
 20
-132.75619875331861
 30
0.0
 11
-76.562602588534276
 21
-138.9997999999996
 31
0.0
  0
LINE
  5
2C24
  8
0
  6
CONTINUOUS
 62
     7
 10
-76.962602588533912
 20
-132.75619875331861
 30
0.0
 11
-76.962602588533912
 21
-138.59979999999749
 31
0.0
  0
LINE
  5
2C25
  8
0
  6
CONTINUOUS
 62
     7
 10
-76.962602588533912
 20
-138.59979999999749
 30
0.0
 11
-76.562602588534276
 21
-138.9997999999996
 31
0.0
  0
LINE
  5
2C26
  8
0
  6
CONTINUOUS
 62
     7
 10
-76.562602588534276
 20
-138.9997999999996
 30
0.0
 11
-72.962602588533912
 21
-138.9997999999996
 31
0.0
  0
LINE
  5
2C27
  8
0
  6
CONTINUOUS
 62
     7
 10
-94.82470745544407
 20
-60.025153885347891
 30
0.0
 11
-94.82470745544407
 21
-137.2275760427494
 31
0.0
  0
LINE
  5
2C28
  8
0
  6
CONTINUOUS
 62
     7
 10
-71.224707455445525
 20
-59.999799999999361
 30
0.0
 11
-94.82470745544407
 21
-59.999799999999361
 31
0.0
  0
LINE
  5
2C29
  8
0
  6
CONTINUOUS
 62
     7
 10
-92.824707455444056
 20
-139.9997999999996
 30
0.0
 11
50.875292544555919
 21
-139.9997999999996
 31
0.0
  0
LINE
  5
2C2A
  8
0
  6
CONTINUOUS
 62
     7
 10
-97.440575390865263
 20
-125.16437227984849
 30
0.0
 11
-94.875925064054428
 21
-136.77785702935941
 31
0.0
  0
LINE
  5
2C2B
  8
0
  6
CONTINUOUS
 62
     7
 10
-94.82470745544407
 20
-137.2275760427494
 30
0.0
 11
-94.82470745544407
 21
-137.9997999999996
 31
0.0
  0
LINE
  5
2C2C
  8
0
  6
CONTINUOUS
 62
     7
 10
-29.324592143154518
 20
-73.999799999999368
 30
0.0
 11
43.375292544555897
 21
-73.999799999999368
 31
0.0
  0
LINE
  5
2C2D
  8
0
  6
CONTINUOUS
 62
     7
 10
50.875292544555919
 20
-59.999799999999361
 30
0.0
 11
51.375292544555919
 21
-60.499799999999368
 31
0.0
  0
LINE
  5
2C2E
  8
0
  6
CONTINUOUS
 62
     7
 10
53.875292544555919
 20
-64.999799999999354
 30
0.0
 11
54.375292544555919
 21
-65.499799999999368
 31
0.0
  0
LINE
  5
2C2F
  8
0
  6
CONTINUOUS
 62
     7
 10
54.375292544555919
 20
-65.499799999999368
 30
0.0
 11
54.375292544555919
 21
-99.999799999999496
 31
0.0
  0
LINE
  5
2C30
  8
0
  6
CONTINUOUS
 62
     7
 10
51.675292544555177
 20
-64.999799999999354
 30
0.0
 11
53.875292544555919
 21
-64.999799999999354
 31
0.0
  0
LINE
  5
2C31
  8
0
  6
CONTINUOUS
 62
     7
 10
51.375292544555919
 20
-60.499799999999368
 30
0.0
 11
51.375292544555919
 21
-99.999799999999496
 31
0.0
  0
LINE
  5
2C32
  8
0
  6
CONTINUOUS
 62
     7
 10
41.575292544554813
 20
-59.999799999999361
 30
0.0
 11
41.575292544554813
 21
-62.649799999998997
 31
0.0
  0
LINE
  5
2C33
  8
0
  6
CONTINUOUS
 62
     7
 10
43.875292544555919
 20
-59.999799999999361
 30
0.0
 11
50.875292544555919
 21
-59.999799999999361
 31
0.0
  0
LINE
  5
2C34
  8
0
  6
CONTINUOUS
 62
     7
 10
54.373302989934807
 20
-109.4997999999996
 30
0.0
 11
58.373302989934821
 21
-109.4997999999996
 31
0.0
  0
LINE
  5
2C35
  8
0
  6
CONTINUOUS
 62
     7
 10
85.873302989934814
 20
-90.499799999999482
 30
0.0
 11
54.373302989934807
 21
-90.499799999999482
 31
0.0
  0
LINE
  5
2C36
  8
0
  6
CONTINUOUS
 62
     7
 10
86.373302989934814
 20
-108.9997999999996
 30
0.0
 11
86.373302989934814
 21
-90.999799999999482
 31
0.0
  0
LINE
  5
2C37
  8
0
  6
CONTINUOUS
 62
     7
 10
58.373302989934821
 20
-109.4997999999996
 30
0.0
 11
85.873302989934814
 21
-109.4997999999996
 31
0.0
  0
LINE
  5
2C38
  8
0
  6
CONTINUOUS
 62
     7
 10
86.373302989934814
 20
-90.999799999999482
 30
0.0
 11
85.873302989934814
 21
-90.499799999999482
 31
0.0
  0
LINE
  5
2C39
  8
0
  6
CONTINUOUS
 62
     7
 10
85.873302989934814
 20
-109.4997999999996
 30
0.0
 11
86.373302989934814
 21
-108.9997999999996
 31
0.0
  0
LINE
  5
2C3A
  8
0
  6
CONTINUOUS
 62
     7
 10
41.575292544554813
 20
-59.999799999999361
 30
0.0
 11
41.575292544554813
 21
-99.999799999999496
 31
0.0
  0
LINE
  5
2C3B
  8
0
  6
CONTINUOUS
 62
     7
 10
-71.224707455445525
 20
-59.999799999999361
 30
0.0
 11
-71.324707455444056
 21
-60.099799999997899
 31
0.0
  0
LINE
  5
2C3C
  8
0
  6
CONTINUOUS
 62
     7
 10
-71.324707455444056
 20
-60.099799999997899
 30
0.0
 11
-71.324707455444056
 21
-99.999799999999496
 31
0.0
  0
LINE
  5
2C3D
  8
0
  6
CONTINUOUS
 62
     7
 10
-30.324707455464821
 20
-59.999799999999361
 30
0.0
 11
-30.324707455444809
 21
-99.999799999999496
 31
0.0
  0
LINE
  5
2C3E
  8
0
  6
CONTINUOUS
 62
     7
 10
-71.324707455444056
 20
-99.999799999999496
 30
0.0
 11
-71.324707455444056
 21
-139.9997999999996
 31
0.0
  0
LINE
  5
2C3F
  8
0
  6
CONTINUOUS
 62
     7
 10
85.873302989934814
 20
-109.4997999999996
 30
0.0
 11
86.373302989934814
 21
-108.9997999999996
 31
0.0
  0
LINE
  5
2C40
  8
0
  6
CONTINUOUS
 62
     7
 10
86.373302989934814
 20
-90.999799999999482
 30
0.0
 11
85.873302989934814
 21
-90.499799999999482
 31
0.0
  0
LINE
  5
2C41
  8
0
  6
CONTINUOUS
 62
     7
 10
58.373302989934821
 20
-109.4997999999996
 30
0.0
 11
85.873302989934814
 21
-109.4997999999996
 31
0.0
  0
LINE
  5
2C42
  8
0
  6
CONTINUOUS
 62
     7
 10
86.373302989934814
 20
-108.9997999999996
 30
0.0
 11
86.373302989934814
 21
-90.999799999999482
 31
0.0
  0
LINE
  5
2C43
  8
0
  6
CONTINUOUS
 62
     7
 10
85.873302989934814
 20
-90.499799999999482
 30
0.0
 11
54.373302989934807
 21
-90.499799999999482
 31
0.0
  0
LINE
  5
2C44
  8
0
  6
CONTINUOUS
 62
     7
 10
54.373302989934807
 20
-109.4997999999996
 30
0.0
 11
58.373302989934821
 21
-109.4997999999996
 31
0.0
  0
LINE
  5
2C45
  8
0
  6
CONTINUOUS
 62
     7
 10
43.375292544555897
 20
-60.499799999999368
 30
0.0
 11
43.375292544555897
 21
-73.999799999999368
 31
0.0
  0
LINE
  5
2C46
  8
0
  6
CONTINUOUS
 62
     7
 10
-71.224707455445525
 20
-59.999799999999361
 30
0.0
 11
50.875292544555919
 21
-59.999799999999361
 31
0.0
  0
LINE
  5
2C47
  8
0
  6
DASH_CENTER
 62
     1
 10
91.373302989934786
 20
-99.999799999999496
 30
0.0
 11
-102.824707455444
 21
-99.999799999999496
 31
0.0
  0
LINE
  5
2C48
  8
0
  6
CONTINUOUS
 62
     7
 10
43.875292544555919
 20
-59.999799999999361
 30
0.0
 11
43.375292544555897
 21
-60.499799999999368
 31
0.0
  0
LINE
  5
2C49
  8
0
  6
CONTINUOUS
 62
     7
 10
41.575292544554813
 20
-59.999799999999361
 30
0.0
 11
43.875292544555919
 21
-59.999799999999361
 31
0.0
  0
LINE
  5
2C4A
  8
0
  6
CONTINUOUS
 62
     7
 10
51.375292544555919
 20
-139.4997999999996
 30
0.0
 11
50.875292544555919
 21
-139.9997999999996
 31
0.0
  0
LINE
  5
2C4B
  8
0
  6
CONTINUOUS
 62
     7
 10
54.375292544555919
 20
-134.4997999999996
 30
0.0
 11
53.875292544555919
 21
-134.9997999999996
 31
0.0
  0
LINE
  5
2C4C
  8
0
  6
CONTINUOUS
 62
     7
 10
54.375292544555919
 20
-99.999799999999496
 30
0.0
 11
54.375292544555919
 21
-134.4997999999996
 31
0.0
  0
LINE
  5
2C4D
  8
0
  6
CONTINUOUS
 62
     7
 10
53.875292544555919
 20
-134.9997999999996
 30
0.0
 11
51.675292544555177
 21
-134.9997999999996
 31
0.0
  0
LINE
  5
2C4E
  8
0
  6
CONTINUOUS
 62
     7
 10
51.375292544555919
 20
-99.999799999999496
 30
0.0
 11
51.375292544555919
 21
-139.4997999999996
 31
0.0
  0
LINE
  5
2C4F
  8
0
  6
CONTINUOUS
 62
     7
 10
41.575292544554813
 20
-99.999799999999496
 30
0.0
 11
41.575292544554813
 21
-139.9997999999996
 31
0.0
  0
LINE
  5
2C50
  8
0
  6
CONTINUOUS
 62
     7
 10
43.375292544555897
 20
-125.9997999999996
 30
0.0
 11
43.375292544555897
 21
-139.4997999999996
 31
0.0
  0
LINE
  5
2C51
  8
0
  6
CONTINUOUS
 62
     7
 10
43.375292544555897
 20
-139.4997999999996
 30
0.0
 11
43.875292544555919
 21
-139.9997999999996
 31
0.0
  0
LINE
  5
2C52
  8
0
  6
CONTINUOUS
 62
     7
 10
-95.204707455445075
 20
-64.710565539707886
 30
0.0
 11
-95.204707455445075
 21
-61.499799999999368
 31
0.0
  0
LINE
  5
2C53
  8
0
  6
CONTINUOUS
 62
     7
 10
-94.82470745544407
 20
-61.499799999999368
 30
0.0
 11
-94.82470745544407
 21
-67.499799999999354
 31
0.0
  0
LINE
  5
2C54
  8
0
  6
CONTINUOUS
 62
     7
 10
-95.204707455445075
 20
-61.499799999999368
 30
0.0
 11
-94.82470745544407
 21
-61.499799999999368
 31
0.0
  0
LINE
  5
2C55
  8
0
  6
CONTINUOUS
 62
     7
 10
-95.204707455445075
 20
-61.749799999999368
 30
0.0
 11
-96.051956338324374
 21
-61.823924672438572
 31
0.0
  0
LINE
  5
2C56
  8
0
  6
CONTINUOUS
 62
     7
 10
-95.204707455445075
 20
-64.499799999999354
 30
0.0
 11
-95.204707455445075
 21
-61.749799999999368
 31
0.0
  0
LINE
  5
2C57
  8
0
  6
CONTINUOUS
 62
     7
 10
-96.051956338324374
 20
-67.175675327569252
 30
0.0
 11
-95.754827753335405
 21
-67.201670710368262
 31
0.0
  0
LINE
  5
2C58
  8
0
  6
CONTINUOUS
 62
     7
 10
-95.204707455445075
 20
-124.4997999999996
 30
0.0
 11
-95.204707455445075
 21
-118.4997999999996
 31
0.0
  0
LINE
  5
2C59
  8
0
  6
CONTINUOUS
 62
     7
 10
-94.82470745544407
 20
-118.4997999999996
 30
0.0
 11
-94.82470745544407
 21
-124.4997999999996
 31
0.0
  0
LINE
  5
2C5A
  8
0
  6
CONTINUOUS
 62
     7
 10
-95.204707455445075
 20
-124.4997999999996
 30
0.0
 11
-94.82470745544407
 21
-124.4997999999996
 31
0.0
  0
LINE
  5
2C5B
  8
0
  6
CONTINUOUS
 62
     7
 10
-95.204707455445075
 20
-118.4997999999996
 30
0.0
 11
-94.82470745544407
 21
-118.4997999999996
 31
0.0
  0
LINE
  5
2C5C
  8
0
  6
CONTINUOUS
 62
     7
 10
-95.204707455445075
 20
-118.7497999999996
 30
0.0
 11
-96.051956338324374
 21
-118.82392467243859
 31
0.0
  0
LINE
  5
2C5D
  8
0
  6
CONTINUOUS
 62
     7
 10
-95.204707455445075
 20
-121.4997999999996
 30
0.0
 11
-95.204707455445075
 21
-118.7497999999996
 31
0.0
  0
LINE
  5
2C5E
  8
0
  6
CONTINUOUS
 62
     7
 10
-95.204707455445075
 20
-124.2497999999996
 30
0.0
 11
-95.204707455445075
 21
-121.4997999999996
 31
0.0
  0
LINE
  5
2C5F
  8
0
  6
CONTINUOUS
 62
     7
 10
-96.051956338324374
 20
-124.17567532756949
 30
0.0
 11
-95.204707455445075
 21
-124.2497999999996
 31
0.0
  0
LINE
  5
2C60
  8
0
  6
CONTINUOUS
 62
     7
 10
-94.82470745544407
 20
-132.4997999999996
 30
0.0
 11
-94.82470745544407
 21
-138.4997999999996
 31
0.0
  0
LINE
  5
2C61
  8
0
  6
CONTINUOUS
 62
     7
 10
-95.204707455445075
 20
-138.4997999999996
 30
0.0
 11
-94.82470745544407
 21
-138.4997999999996
 31
0.0
  0
LINE
  5
2C62
  8
0
  6
CONTINUOUS
 62
     7
 10
-95.7548277533445
 20
-132.7979292896396
 30
0.0
 11
-96.051956338324374
 21
-132.82392467243861
 31
0.0
  0
LINE
  5
2C63
  8
0
  6
CONTINUOUS
 62
     7
 10
-95.204707455445075
 20
-138.4997999999996
 30
0.0
 11
-95.204707455445075
 21
-135.28903446028951
 31
0.0
  0
LINE
  5
2C64
  8
0
  6
CONTINUOUS
 62
     7
 10
-96.051956338324374
 20
-138.17567532756951
 30
0.0
 11
-95.204707455445075
 21
-138.2497999999996
 31
0.0
  0
LINE
  5
2C65
  8
0
  6
CONTINUOUS
 62
     7
 10
-94.82470745544407
 20
-73.999799999999368
 30
0.0
 11
-72.324707455444056
 21
-73.999799999999368
 31
0.0
  0
LINE
  5
2C66
  8
0
  6
CONTINUOUS
 62
     7
 10
-94.82470745544407
 20
-125.9997999999996
 30
0.0
 11
-72.324707455444056
 21
-125.9997999999996
 31
0.0
  0
LINE
  5
2C67
  8
0
  6
CONTINUOUS
 62
     7
 10
43.375292544555897
 20
-125.9997999999996
 30
0.0
 11
-72.324707455444056
 21
-125.9997999999996
 31
0.0
  0
LINE
  5
2C68
  8
0
  6
CONTINUOUS
 62
     7
 10
-30.324707455444809
 20
-99.999799999999496
 30
0.0
 11
-30.324707455464821
 21
-139.9997999999996
 31
0.0
  0
LINE
  5
2C69
  8
0
  6
CONTINUOUS
 62
     7
 10
-29.324592143154518
 20
-73.999799999999368
 30
0.0
 11
-77.822602588534494
 21
-73.999799999999368
 31
0.0
  0
LINE
  5
2C6A
  8
0
  6
CONTINUOUS
 62
     7
 10
-76.562602588534276
 20
-131.99980000000849
 30
0.0
 11
-76.562602588534276
 21
-138.2434012466895
 31
0.0
  0
LINE
  5
2C6B
  8
0
  6
CONTINUOUS
 62
     7
 10
-76.962602588533912
 20
-132.39979999999949
 30
0.0
 11
-76.962602588533912
 21
-138.2434012466895
 31
0.0
  0
LINE
  5
2C6C
  8
0
  6
CONTINUOUS
 62
     7
 10
-76.562602588534276
 20
-131.99980000000849
 30
0.0
 11
-76.962602588533912
 21
-132.39979999999949
 31
0.0
  0
LINE
  5
2C6D
  8
0
  6
CONTINUOUS
 62
     7
 10
-72.322602588534494
 20
-131.49980000000849
 30
0.0
 11
-72.962602588533912
 21
-131.49980000000849
 31
0.0
  0
LINE
  5
2C6E
  8
0
  6
CONTINUOUS
 62
     7
 10
-76.562602588534276
 20
-131.99980000000849
 30
0.0
 11
-76.962602588533912
 21
-132.39979999999949
 31
0.0
  0
LINE
  5
2C6F
  8
0
  6
CONTINUOUS
 62
     7
 10
-72.962602588533912
 20
-131.99980000000849
 30
0.0
 11
-76.562602588534276
 21
-131.99980000000849
 31
0.0
  0
LINE
  5
2C70
  8
0
  6
CONTINUOUS
 62
     7
 10
-72.962602588533912
 20
-138.2434012466895
 30
0.0
 11
-72.962602588533912
 21
-131.49980000000849
 31
0.0
  0
LINE
  5
2C71
  8
0
  6
CONTINUOUS
 62
     7
 10
-77.822602588534494
 20
-139.9997999999996
 30
0.0
 11
-77.824707455444056
 21
-131.16374065362859
 31
0.0
  0
LINE
  5
2C72
  8
0
  6
CONTINUOUS
 62
     7
 10
-77.824707455444056
 20
-131.16374065362859
 30
0.0
 11
-72.324707455444056
 21
-131.16374065362859
 31
0.0
  0
LINE
  5
2C73
  8
0
  6
CONTINUOUS
 62
     7
 10
-76.56260258854519
 20
-75.756198753318813
 30
0.0
 11
-76.56260258854519
 21
-81.999799999999482
 31
0.0
  0
LINE
  5
2C74
  8
0
  6
CONTINUOUS
 62
     7
 10
-72.962602588544812
 20
-82.499799999999496
 30
0.0
 11
-72.322602588534494
 21
-82.499799999999496
 31
0.0
  0
LINE
  5
2C75
  8
0
  6
CONTINUOUS
 62
     7
 10
-76.962602588544812
 20
-81.599799999997458
 30
0.0
 11
-76.56260258854519
 21
-81.999799999999482
 31
0.0
  0
LINE
  5
2C76
  8
0
  6
CONTINUOUS
 62
     7
 10
-76.56260258854519
 20
-81.999799999999482
 30
0.0
 11
-72.962602588544812
 21
-81.999799999999482
 31
0.0
  0
LINE
  5
2C77
  8
0
  6
CONTINUOUS
 62
     7
 10
-72.322602588534494
 20
-82.999799999999482
 30
0.0
 11
-71.324707455454984
 21
-82.999799999999482
 31
0.0
  0
LINE
  5
2C78
  8
0
  6
CONTINUOUS
 62
     7
 10
-72.962602588544812
 20
-82.499799999999496
 30
0.0
 11
-72.962602588544812
 21
-75.756198753318813
 31
0.0
  0
LINE
  5
2C79
  8
0
  6
CONTINUOUS
 62
     7
 10
-77.820497721624903
 20
-82.835859346377561
 30
0.0
 11
-77.822602588534494
 21
-73.999799999999368
 31
0.0
  0
LINE
  5
2C7A
  8
0
  6
CONTINUOUS
 62
     7
 10
-77.820497721624903
 20
-82.835859346377561
 30
0.0
 11
-72.322602588534494
 21
-82.835859346377561
 31
0.0
  0
ARC
  5
2C7B
  8
0
  6
CONTINUOUS
 62
     7
 10
-95.964800595575355
 20
-66.179480629469026
 30
0.0
 40
1.0000000000051661
 50
196.25702789657231
 51
264.9999999999647
  0
ARC
  5
2C7C
  8
0
  6
CONTINUOUS
 62
     7
 10
-90.204707455445075
 20
-64.499799999999354
 30
0.0
 40
7.0
 50
180.0
 51
196.2570278965859
  0
ARC
  5
2C7D
  8
0
  6
CONTINUOUS
 62
     7
 10
-95.964800595575355
 20
-62.820119370527877
 30
0.0
 40
0.9999999999976938
 50
95.000000000089813
 51
163.74297210342769
  0
ARC
  5
2C7E
  8
0
  6
CONTINUOUS
 62
     7
 10
-90.204707455445075
 20
-64.499799999999354
 30
0.0
 40
7.0000000000049534
 50
163.74297210339981
 51
180.0
  0
ARC
  5
2C7F
  8
0
  6
CONTINUOUS
 62
     7
 10
-95.964800595575355
 20
-123.1794806294695
 30
0.0
 40
1.0000000000050311
 50
196.25702789654559
 51
264.99999999996362
  0
ARC
  5
2C80
  8
0
  6
CONTINUOUS
 62
     7
 10
-90.204707455445075
 20
-121.4997999999996
 30
0.0
 40
7.0
 50
180.0
 51
196.25702789658399
  0
ARC
  5
2C81
  8
0
  6
CONTINUOUS
 62
     7
 10
-95.964800595575355
 20
-119.82011937052739
 30
0.0
 40
0.9999999999971843
 50
95.000000000092356
 51
163.74297210345509
  0
ARC
  5
2C82
  8
0
  6
CONTINUOUS
 62
     7
 10
-90.204707455445075
 20
-121.4997999999996
 30
0.0
 40
7.0000000000050164
 50
163.74297210339799
 51
180.0
  0
ARC
  5
2C83
  8
0
  6
CONTINUOUS
 62
     7
 10
-95.964800595575355
 20
-137.17948062946951
 30
0.0
 40
1.0000000000050231
 50
196.25702789654409
 51
264.99999999996362
  0
ARC
  5
2C84
  8
0
  6
CONTINUOUS
 62
     7
 10
-90.204707455445075
 20
-135.4997999999996
 30
0.0
 40
7.0
 50
180.0
 51
196.25702789658391
  0
ARC
  5
2C85
  8
0
  6
CONTINUOUS
 62
     7
 10
-95.964800595575355
 20
-133.82011937052741
 30
0.0
 40
0.9999999999971843
 50
95.000000000092356
 51
163.74297210345429
  0
ARC
  5
2C86
  8
0
  6
CONTINUOUS
 62
     7
 10
-90.204707455445075
 20
-135.4997999999996
 30
0.0
 40
7.0000000000050164
 50
163.74297210339799
 51
180.0
  0
ARC
  5
2C8F
  8
0
  6
CONTINUOUS
 62
     7
 10
-82.824707455444056
 20
-78.208120320628723
 30
0.0
 40
15.000000000001659
 50
167.00538320808809
 51
180.0
  0
ARC
  5
2C90
  8
0
  6
CONTINUOUS
 62
     7
 10
-82.824707455444056
 20
-121.79147967936839
 30
0.0
 40
15.0
 50
180.0
 51
192.99461679191009
  0
ARC
  5
2C91
  8
0
  6
CONTINUOUS
 62
     7
 10
-92.824707455444056
 20
-137.9997999999996
 30
0.0
 40
2.0
 50
180.0
 51
270.0
  0
ARC
  5
2C92
  8
0
  6
CONTINUOUS
 62
     7
 10
-96.82470745544407
 20
-137.2275760427494
 30
0.0
 40
2.0
 50
0.0
 51
12.99461679170413
  0
ARC
  5
2C93
  8
0
  6
CONTINUOUS
 62
     7
 10
51.675292544555177
 20
-64.699799999998277
 30
0.0
 40
0.2999999999992724
 50
180.0
 51
270.0
  0
ARC
  5
2C94
  8
0
  6
CONTINUOUS
 62
     7
 10
51.675292544555177
 20
-135.29979999999841
 30
0.0
 40
0.2999999999988177
 50
90.0
 51
180.0
  0
LINE
  5
2D50
  8
0
  6
CONTINUOUS
 62
     7
 10
201.85571299365759
 20
60.494942298045423
 30
0.0
 11
201.85571299365759
 21
55.700200000001232
 31
0.0
  0
LINE
  5
2D51
  8
0
  6
CONTINUOUS
 62
     7
 10
193.35571299365759
 20
67.700199999999427
 30
0.0
 11
193.85571299365759
 21
67.700199999999427
 31
0.0
  0
LINE
  5
2D52
  8
0
  6
CONTINUOUS
 62
     7
 10
193.85571299365759
 20
67.700199999999427
 30
0.0
 11
198.1963168356765
 21
67.700199999999427
 31
0.0
  0
LINE
  5
2D54
  8
0
  6
CONTINUOUS
 62
     7
 10
180.25571299365359
 20
59.600199999999063
 30
0.0
 11
180.25571299365359
 21
55.90020000000105
 31
0.0
  0
LINE
  5
2D55
  8
0
  6
CONTINUOUS
 62
     7
 10
187.4557129936525
 20
59.600199999999063
 30
0.0
 11
187.45571299365341
 21
55.90020000000105
 31
0.0
  0
LINE
  5
2D56
  8
0
  6
CONTINUOUS
 62
     7
 10
199.1154618656914
 20
67.094119298578448
 30
0.0
 11
201.77485802367261
 21
60.888861596624437
 31
0.0
  0
LINE
  5
2D57
  8
0
  6
CONTINUOUS
 62
     7
 10
169.51510915163411
 20
67.700199999999427
 30
0.0
 11
193.35571299365759
 21
67.700199999999427
 31
0.0
  0
LINE
  5
2D58
  8
0
  6
CONTINUOUS
 62
     7
 10
165.93656796363629
 20
60.888861596624437
 30
0.0
 11
168.5959641216173
 21
67.094119298578448
 31
0.0
  0
LINE
  5
2D59
  8
0
  6
CONTINUOUS
 62
     7
 10
165.85571299365759
 20
55.700200000001232
 30
0.0
 11
165.85571299365759
 21
60.494942298045423
 31
0.0
  0
LINE
  5
2D5A
  8
0
  6
CONTINUOUS
 62
     7
 10
165.85571299365759
 20
55.700200000001232
 30
0.0
 11
183.85571299365759
 21
55.700200000001232
 31
0.0
  0
LINE
  5
2D5B
  8
0
  6
DASH_CENTER
 62
     1
 10
195.51816512379941
 20
59.700199999999427
 30
0.0
 11
172.74681231197661
 21
59.700199999999427
 31
0.0
  0
LINE
  5
2D5C
  8
0
  6
CONTINUOUS
 62
     7
 10
201.85571299365759
 20
55.700200000001232
 30
0.0
 11
183.85571299365759
 21
55.700200000001232
 31
0.0
  0
LINE
  5
2D5D
  8
0
  6
CONTINUOUS
 62
     7
 10
149.85571299365759
 20
55.000199999998713
 30
0.0
 11
217.85571299365759
 21
55.000199999998713
 31
0.0
  0
LINE
  5
2D5E
  8
0
  6
CONTINUOUS
 62
     7
 10
219.35571299365759
 20
-2.2497999999994791
 30
0.0
 11
223.35571299365759
 21
-2.2497999999994791
 31
0.0
  0
LINE
  5
2D5F
  8
0
  6
CONTINUOUS
 62
     7
 10
219.35571299365759
 20
-10.74979999999948
 30
0.0
 11
223.35571299365759
 21
-10.74979999999948
 31
0.0
  0
LINE
  5
2D60
  8
0
  6
DASH_CENTER
 62
     1
 10
210.12896064258851
 20
-11.27304764893495
 30
0.0
 11
221.22207565150759
 21
-22.366162657854922
 31
0.0
  0
LINE
  5
2D61
  8
0
  6
CONTINUOUS
 62
     7
 10
166.60571299365759
 20
-20.499799999999532
 30
0.0
 11
166.60571299365759
 21
-24.499799999999539
 31
0.0
  0
LINE
  5
2D62
  8
0
  6
CONTINUOUS
 62
     7
 10
158.10571299365759
 20
-20.49980000000043
 30
0.0
 11
158.10571299365759
 21
-24.499799999999539
 31
0.0
  0
LINE
  5
2D63
  8
0
  6
DASH_CENTER
 62
     1
 10
157.58246534471851
 20
-11.27304764893495
 30
0.0
 11
146.4893503357994
 21
-22.366162657854922
 31
0.0
  0
LINE
  5
2D64
  8
0
  6
CONTINUOUS
 62
     7
 10
148.35571299365759
 20
32.250200000000518
 30
0.0
 11
144.35571299365759
 21
32.250200000000518
 31
0.0
  0
LINE
  5
2D65
  8
0
  6
CONTINUOUS
 62
     7
 10
148.35571299365759
 20
40.750200000000518
 30
0.0
 11
144.35571299365759
 21
40.750200000000518
 31
0.0
  0
LINE
  5
2D66
  8
0
  6
DASH_CENTER
 62
     1
 10
157.5824653447194
 20
41.273447648935083
 30
0.0
 11
146.4893503357994
 21
52.366562657853237
 31
0.0
  0
LINE
  5
2D67
  8
0
  6
CONTINUOUS
 62
     7
 10
201.10571299365759
 20
50.500200000000532
 30
0.0
 11
201.10571299365759
 21
54.500200000000518
 31
0.0
  0
LINE
  5
2D68
  8
0
  6
CONTINUOUS
 62
     7
 10
209.60571299365759
 20
50.500200000000532
 30
0.0
 11
209.60571299365759
 21
54.500200000000518
 31
0.0
  0
LINE
  5
2D69
  8
0
  6
DASH_CENTER
 62
     1
 10
210.12896064258851
 20
41.273447648935083
 30
0.0
 11
221.2220756515085
 21
52.366562657853237
 31
0.0
  0
LINE
  5
2D6A
  8
0
  6
CONTINUOUS
 62
     7
 10
217.85571299365759
 20
-24.999799999999539
 30
0.0
 11
149.85571299365759
 21
-24.999799999999539
 31
0.0
  0
LINE
  5
2D6B
  8
0
  6
CONTINUOUS
 62
     7
 10
143.85571299365759
 20
49.000200000000518
 30
0.0
 11
143.85571299365759
 21
-18.999799999999482
 31
0.0
  0
LINE
  5
2D6C
  8
0
  6
CONTINUOUS
 62
     7
 10
223.85571299365759
 20
49.000200000000518
 30
0.0
 11
223.85571299365759
 21
-18.999799999999482
 31
0.0
  0
LINE
  5
2D6D
  8
0
  6
DASH_CENTER
 62
     1
 10
183.85571299365759
 20
70.700199999999441
 30
0.0
 11
183.85571299365759
 21
-30.49980000000043
 31
0.0
  0
LINE
  5
2D6E
  8
0
  6
DASH_CENTER
 62
     1
 10
205.35571299365759
 20
50.500200000000532
 30
0.0
 11
200.0357129936543
 21
50.500200000000532
 31
0.0
  0
LINE
  5
2D6F
  8
0
  6
DASH_CENTER
 62
     1
 10
205.35571299365759
 20
50.500200000000532
 30
0.0
 11
205.35571299365759
 21
45.180199999999893
 31
0.0
  0
LINE
  5
2D70
  8
0
  6
CONTINUOUS
 62
     7
 10
205.35571299365759
 20
52.232250807569592
 30
0.0
 11
203.85571299365759
 21
51.366225403784597
 31
0.0
  0
LINE
  5
2D71
  8
0
  6
CONTINUOUS
 62
     7
 10
206.85571299365759
 20
51.366225403784597
 30
0.0
 11
205.35571299365759
 21
52.232250807569592
 31
0.0
  0
LINE
  5
2D72
  8
0
  6
CONTINUOUS
 62
     7
 10
206.85571299365759
 20
49.63417459621553
 30
0.0
 11
206.85571299365759
 21
51.366225403784597
 31
0.0
  0
LINE
  5
2D73
  8
0
  6
CONTINUOUS
 62
     7
 10
205.35571299365759
 20
48.768149192431459
 30
0.0
 11
206.85571299365759
 21
49.63417459621553
 31
0.0
  0
LINE
  5
2D74
  8
0
  6
CONTINUOUS
 62
     7
 10
203.85571299365759
 20
49.63417459621553
 30
0.0
 11
205.35571299365759
 21
48.768149192431459
 31
0.0
  0
LINE
  5
2D75
  8
0
  6
CONTINUOUS
 62
     7
 10
203.85571299365759
 20
51.366225403784597
 30
0.0
 11
203.85571299365759
 21
49.63417459621553
 31
0.0
  0
LINE
  5
2D76
  8
0
  6
DASH_CENTER
 62
     1
 10
210.6757129936546
 20
50.500200000000532
 30
0.0
 11
205.35571299365759
 21
50.500200000000532
 31
0.0
  0
LINE
  5
2D77
  8
0
  6
DASH_CENTER
 62
     1
 10
205.35571299365759
 20
55.820200000000227
 30
0.0
 11
205.35571299365759
 21
50.500200000000532
 31
0.0
  0
LINE
  5
2D78
  8
0
  6
DASH_CENTER
 62
     1
 10
162.35571299365759
 20
-25.819800000000129
 30
0.0
 11
162.35571299365759
 21
-20.499799999999532
 31
0.0
  0
LINE
  5
2D79
  8
0
  6
DASH_CENTER
 62
     1
 10
157.0357129936524
 20
-20.49980000000043
 30
0.0
 11
162.35571299365759
 21
-20.499799999999532
 31
0.0
  0
LINE
  5
2D7A
  8
0
  6
CONTINUOUS
 62
     7
 10
163.85571299365759
 20
-21.365825403784442
 30
0.0
 11
163.85571299365759
 21
-19.633774596215432
 31
0.0
  0
LINE
  5
2D7B
  8
0
  6
CONTINUOUS
 62
     7
 10
163.85571299365759
 20
-19.633774596215432
 30
0.0
 11
162.35571299365759
 21
-18.767749192430411
 31
0.0
  0
LINE
  5
2D7C
  8
0
  6
CONTINUOUS
 62
     7
 10
162.35571299365759
 20
-18.767749192430411
 30
0.0
 11
160.85571299365759
 21
-19.633774596215432
 31
0.0
  0
LINE
  5
2D7D
  8
0
  6
CONTINUOUS
 62
     7
 10
160.85571299365759
 20
-19.633774596215432
 30
0.0
 11
160.85571299365759
 21
-21.365825403784442
 31
0.0
  0
LINE
  5
2D7E
  8
0
  6
CONTINUOUS
 62
     7
 10
160.85571299365759
 20
-21.365825403784442
 30
0.0
 11
162.35571299365759
 21
-22.231850807568531
 31
0.0
  0
LINE
  5
2D7F
  8
0
  6
CONTINUOUS
 62
     7
 10
162.35571299365759
 20
-22.231850807568531
 30
0.0
 11
163.85571299365759
 21
-21.365825403784442
 31
0.0
  0
LINE
  5
2D80
  8
0
  6
DASH_CENTER
 62
     1
 10
162.35571299365759
 20
-20.499799999999532
 30
0.0
 11
162.35571299365759
 21
-15.179799999999769
 31
0.0
  0
LINE
  5
2D81
  8
0
  6
DASH_CENTER
 62
     1
 10
162.35571299365759
 20
-20.499799999999532
 30
0.0
 11
167.6757129936546
 21
-20.49980000000043
 31
0.0
  0
LINE
  5
2D82
  8
0
  6
DASH_CENTER
 62
     1
 10
224.6757129936546
 20
-6.4998000000003877
 30
0.0
 11
219.35571299365759
 21
-6.4997999999994791
 31
0.0
  0
LINE
  5
2D83
  8
0
  6
DASH_CENTER
 62
     1
 10
219.35571299365759
 20
-11.8198000000001
 30
0.0
 11
219.35571299365759
 21
-6.4997999999994791
 31
0.0
  0
LINE
  5
2D84
  8
0
  6
CONTINUOUS
 62
     7
 10
220.2217383974417
 20
-4.9997999999994791
 30
0.0
 11
218.48968758986899
 21
-4.9998000000003877
 31
0.0
  0
LINE
  5
2D85
  8
0
  6
CONTINUOUS
 62
     7
 10
218.48968758986899
 20
-4.9998000000003877
 30
0.0
 11
217.6236621860885
 21
-6.4997999999994791
 31
0.0
  0
LINE
  5
2D86
  8
0
  6
CONTINUOUS
 62
     7
 10
217.6236621860885
 20
-6.4997999999994791
 30
0.0
 11
218.48968758986899
 21
-7.9998000000003859
 31
0.0
  0
LINE
  5
2D87
  8
0
  6
CONTINUOUS
 62
     7
 10
218.48968758986899
 20
-7.9998000000003859
 30
0.0
 11
220.2217383974417
 21
-7.9997999999994782
 31
0.0
  0
LINE
  5
2D88
  8
0
  6
CONTINUOUS
 62
     7
 10
220.2217383974417
 20
-7.9997999999994782
 30
0.0
 11
221.0877638012276
 21
-6.4998000000003877
 31
0.0
  0
LINE
  5
2D89
  8
0
  6
CONTINUOUS
 62
     7
 10
221.0877638012276
 20
-6.4998000000003877
 30
0.0
 11
220.2217383974417
 21
-4.9997999999994791
 31
0.0
  0
LINE
  5
2D8A
  8
0
  6
DASH_CENTER
 62
     1
 10
219.35571299365759
 20
-6.4997999999994791
 30
0.0
 11
214.0357129936524
 21
-6.4998000000003877
 31
0.0
  0
LINE
  5
2D8B
  8
0
  6
DASH_CENTER
 62
     1
 10
219.35571299365759
 20
-6.4997999999994791
 30
0.0
 11
219.35571299365759
 21
-1.179799999999769
 31
0.0
  0
LINE
  5
2D8C
  8
0
  6
DASH_CENTER
 62
     1
 10
229.35571299365759
 20
15.00020000000052
 30
0.0
 11
138.35571299365759
 21
15.00020000000052
 31
0.0
  0
LINE
  5
2D8D
  8
0
  6
DASH_CENTER
 62
     1
 10
148.35571299365759
 20
31.180199999999889
 30
0.0
 11
148.35571299365759
 21
36.500200000000532
 31
0.0
  0
LINE
  5
2D8E
  8
0
  6
DASH_CENTER
 62
     1
 10
143.0357129936524
 20
36.500200000000532
 30
0.0
 11
148.35571299365759
 21
36.500200000000532
 31
0.0
  0
LINE
  5
2D8F
  8
0
  6
CONTINUOUS
 62
     7
 10
149.85571299365759
 20
35.63417459621553
 30
0.0
 11
149.85571299365759
 21
37.366225403784597
 31
0.0
  0
LINE
  5
2D90
  8
0
  6
CONTINUOUS
 62
     7
 10
149.85571299365759
 20
37.366225403784597
 30
0.0
 11
148.35571299365759
 21
38.232250807569592
 31
0.0
  0
LINE
  5
2D91
  8
0
  6
CONTINUOUS
 62
     7
 10
148.35571299365759
 20
38.232250807569592
 30
0.0
 11
146.85571299365759
 21
37.366225403784597
 31
0.0
  0
LINE
  5
2D92
  8
0
  6
CONTINUOUS
 62
     7
 10
146.85571299365759
 20
37.366225403784597
 30
0.0
 11
146.85571299365759
 21
35.63417459621553
 31
0.0
  0
LINE
  5
2D93
  8
0
  6
CONTINUOUS
 62
     7
 10
146.85571299365759
 20
35.63417459621553
 30
0.0
 11
148.35571299365759
 21
34.768149192431451
 31
0.0
  0
LINE
  5
2D94
  8
0
  6
CONTINUOUS
 62
     7
 10
148.35571299365759
 20
34.768149192431451
 30
0.0
 11
149.85571299365759
 21
35.63417459621553
 31
0.0
  0
LINE
  5
2D95
  8
0
  6
DASH_CENTER
 62
     1
 10
148.35571299365759
 20
36.500200000000532
 30
0.0
 11
148.35571299365759
 21
41.820200000000213
 31
0.0
  0
LINE
  5
2D96
  8
0
  6
DASH_CENTER
 62
     1
 10
148.35571299365759
 20
36.500200000000532
 30
0.0
 11
153.6757129936546
 21
36.500199999999609
 31
0.0
  0
ARC
  5
2D97
  8
0
  6
CONTINUOUS
 62
     7
 10
183.85571299365759
 20
15.000199999999611
 30
0.0
 40
10.25
 50
90.0
 51
0.00000000000508
  0
ARC
  5
2D98
  8
0
  6
CONTINUOUS
 62
     7
 10
183.85571299365759
 20
15.000199999999611
 30
0.0
 40
10.25
 50
0.00000000000508
 51
90.0
  0
ARC
  5
2D99
  8
0
  6
CONTINUOUS
 62
     7
 10
183.85571299365759
 20
15.000199999999611
 30
0.0
 40
9.8999999999977888
 50
90.0
 51
0.00000000000526
  0
ARC
  5
2D9A
  8
0
  6
CONTINUOUS
 62
     7
 10
183.85571299365759
 20
15.000199999999611
 30
0.0
 40
9.8999999999978154
 50
0.00000000000526
 51
90.0
  0
ARC
  5
2D9B
  8
0
  6
CONTINUOUS
 62
     7
 10
201.5057129936545
 20
55.35019999999907
 30
0.0
 40
0.3500000000003638
 50
270.0
 51
90.0
  0
ARC
  5
2D9C
  8
0
  6
CONTINUOUS
 62
     7
 10
166.2057129936525
 20
55.35019999999907
 30
0.0
 40
0.3500000000021899
 50
90.0
 51
270.00000000014887
  0
ARC
  5
2D9D
  8
0
  6
CONTINUOUS
 62
     7
 10
183.85571299365759
 20
59.600199999999973
 30
0.0
 40
3.5999999999949051
 50
359.9999999999855
 51
180.0000000000145
  0
ARC
  5
2D9E
  8
0
  6
CONTINUOUS
 62
     7
 10
183.85571299365759
 20
59.700199999999427
 30
0.0
 40
3.200000000000732
 50
270.64740571525329
 51
270.0
  0
ARC
  5
2D9F
  8
0
  6
CONTINUOUS
 62
     7
 10
223.35571299365759
 20
-1.7497999999994791
 30
0.0
 40
0.5000000000000002
 50
270.0
 51
0.0
  0
ARC
  5
2DA0
  8
0
  6
CONTINUOUS
 62
     7
 10
223.35571299365759
 20
-11.24979999999948
 30
0.0
 40
0.5
 50
0.0
 51
90.0
  0
ARC
  5
2DA1
  8
0
  6
CONTINUOUS
 62
     7
 10
219.35571299365759
 20
-6.4997999999994791
 30
0.0
 40
4.25
 50
90.0
 51
270.0
  0
ARC
  5
2DA2
  8
0
  6
DASH_CENTER
 62
     1
 10
183.85571299365759
 20
15.000199999999611
 30
0.0
 40
44.999999999999382
 50
304.99999999999733
 51
324.9999999999967
  0
ARC
  5
2DA3
  8
0
  6
CONTINUOUS
 62
     7
 10
167.10571299365759
 20
-24.499799999999539
 30
0.0
 40
0.5
 50
180.0
 51
270.0
  0
ARC
  5
2DA4
  8
0
  6
CONTINUOUS
 62
     7
 10
157.60571299365759
 20
-24.499799999999539
 30
0.0
 40
0.5
 50
270.0
 51
0.0
  0
ARC
  5
2DA5
  8
0
  6
CONTINUOUS
 62
     7
 10
162.35571299365759
 20
-20.499799999999532
 30
0.0
 40
4.25
 50
0.0
 51
180.00000000001199
  0
ARC
  5
2DA6
  8
0
  6
DASH_CENTER
 62
     1
 10
183.85571299365759
 20
15.000199999999611
 30
0.0
 40
45.00000000000292
 50
195.61144245087721
 51
234.9999999999971
  0
ARC
  5
2DA7
  8
0
  6
CONTINUOUS
 62
     7
 10
144.35571299365759
 20
31.750200000000518
 30
0.0
 40
0.5
 50
90.0
 51
180.0
  0
ARC
  5
2DA8
  8
0
  6
CONTINUOUS
 62
     7
 10
144.35571299365759
 20
41.250200000000518
 30
0.0
 40
0.5
 50
180.0
 51
270.0
  0
ARC
  5
2DA9
  8
0
  6
CONTINUOUS
 62
     7
 10
148.35571299365759
 20
36.500200000000532
 30
0.0
 40
4.25
 50
270.0
 51
90.0
  0
ARC
  5
2DAA
  8
0
  6
DASH_CENTER
 62
     1
 10
183.85571299365759
 20
15.000199999999611
 30
0.0
 40
45.000000000002252
 50
125.0000000000046
 51
145.00000000000179
  0
ARC
  5
2DAB
  8
0
  6
CONTINUOUS
 62
     7
 10
200.60571299365759
 20
54.500200000000518
 30
0.0
 40
0.5
 50
0.0
 51
90.0
  0
ARC
  5
2DAC
  8
0
  6
CONTINUOUS
 62
     7
 10
210.10571299365759
 20
54.500200000000518
 30
0.0
 40
0.5
 50
90.0
 51
180.0
  0
ARC
  5
2DAD
  8
0
  6
CONTINUOUS
 62
     7
 10
205.35571299365759
 20
50.500200000000532
 30
0.0
 40
4.25
 50
180.0
 51
0.0
  0
ARC
  5
2DAE
  8
0
  6
DASH_CENTER
 62
     1
 10
183.85571299365759
 20
15.000199999999611
 30
0.0
 40
44.999999999996149
 50
15.61144245088094
 51
55.000000000001982
  0
ARC
  5
2DAF
  8
0
  6
CONTINUOUS
 62
     7
 10
219.35571299365759
 20
-6.4997999999994791
 30
0.0
 40
4.25
 50
90.0
 51
270.0
  0
ARC
  5
2DB0
  8
0
  6
CONTINUOUS
 62
     7
 10
162.35571299365759
 20
-20.499799999999532
 30
0.0
 40
4.25
 50
0.0
 51
180.00000000001199
  0
ARC
  5
2DB1
  8
0
  6
CONTINUOUS
 62
     7
 10
148.35571299365759
 20
36.500200000000532
 30
0.0
 40
4.25
 50
270.0
 51
90.0
  0
ARC
  5
2DB2
  8
0
  6
CONTINUOUS
 62
     7
 10
205.35571299365759
 20
50.500200000000532
 30
0.0
 40
4.25
 50
180.0
 51
0.0
  0
CIRCLE
  5
2DB4
  8
0
  6
CONTINUOUS
 62
     7
 10
152.0359078402584
 20
-16.819605153394939
 30
0.0
 40
3.0
  0
CIRCLE
  5
2DB5
  8
0
  6
CONTINUOUS
 62
     7
 10
215.67551814704839
 20
-16.819605153394939
 30
0.0
 40
3.0
  0
CIRCLE
  5
2DB6
  8
0
  6
CONTINUOUS
 62
     7
 10
152.0359078402594
 20
46.820005153395073
 30
0.0
 40
3.0
  0
CIRCLE
  5
2DB7
  8
0
  6
CONTINUOUS
 62
     7
 10
215.6755181470503
 20
46.820005153395073
 30
0.0
 40
3.0
  0
CIRCLE
  5
2DB8
  8
0
  6
CONTINUOUS
 62
     7
 10
183.85571299365759
 20
15.000199999999611
 30
0.0
 40
35.0
  0
CIRCLE
  5
2DB9
  8
0
  6
CONTINUOUS
 62
     7
 10
183.85571299365759
 20
15.000199999999611
 30
0.0
 40
15.566025403783019
  0
CIRCLE
  5
2DBA
  8
0
  6
CONTINUOUS
 62
     7
 10
183.85571299365759
 20
15.000199999999611
 30
0.0
 40
14.699999999998001
  0
CIRCLE
  5
2DBB
  8
0
  6
CONTINUOUS
 62
     7
 10
183.85571299365759
 20
15.000199999999611
 30
0.0
 40
15.566025403783019
  0
CIRCLE
  5
2DBC
  8
0
  6
CONTINUOUS
 62
     7
 10
183.85571299365759
 20
15.000199999999611
 30
0.0
 40
14.699999999998001
  0
CIRCLE
  5
2DBD
  8
0
  6
CONTINUOUS
 62
     7
 10
205.35571299365759
 20
50.500200000000532
 30
0.0
 40
3.800000000000181
  0
CIRCLE
  5
2DBE
  8
0
  6
CONTINUOUS
 62
     7
 10
205.35571299365759
 20
50.500200000000532
 30
0.0
 40
3.5
  0
CIRCLE
  5
2DBF
  8
0
  6
CONTINUOUS
 62
     7
 10
162.35571299365759
 20
-20.499799999999532
 30
0.0
 40
3.5
  0
CIRCLE
  5
2DC0
  8
0
  6
CONTINUOUS
 62
     7
 10
162.35571299365759
 20
-20.499799999999532
 30
0.0
 40
3.8000000000001002
  0
CIRCLE
  5
2DC1
  8
0
  6
CONTINUOUS
 62
     7
 10
219.35571299365759
 20
-6.4997999999994791
 30
0.0
 40
3.5
  0
CIRCLE
  5
2DC2
  8
0
  6
CONTINUOUS
 62
     7
 10
219.35571299365759
 20
-6.4997999999994791
 30
0.0
 40
3.7999999999965999
  0
CIRCLE
  5
2DC3
  8
0
  6
CONTINUOUS
 62
     7
 10
148.35571299365759
 20
36.500200000000532
 30
0.0
 40
3.5
  0
CIRCLE
  5
2DC4
  8
0
  6
CONTINUOUS
 62
     7
 10
148.35571299365759
 20
36.500200000000532
 30
0.0
 40
3.7999999999992631
  0
ARC
  5
2DC5
  8
0
  6
CONTINUOUS
 62
     7
 10
200.85571299365759
 20
60.494942298045423
 30
0.0
 40
1.0
 50
0.0
 51
23.198590513708378
  0
ARC
  5
2DC6
  8
0
  6
CONTINUOUS
 62
     7
 10
166.85571299365759
 20
60.494942298045423
 30
0.0
 40
1.000000000002915
 50
156.80140948643341
 51
180.0
  0
ARC
  5
2DC7
  8
0
  6
CONTINUOUS
 62
     7
 10
198.1963168356765
 20
66.700199999999427
 30
0.0
 40
0.9999999999971208
 50
23.198590513709771
 51
90.0
  0
ARC
  5
2DC8
  8
0
  6
CONTINUOUS
 62
     7
 10
169.51510915163411
 20
66.700199999999427
 30
0.0
 40
1.0
 50
90.0
 51
156.80140948633129
  0
ARC
  5
2DC9
  8
0
  6
CONTINUOUS
 62
     7
 10
180.05571299365559
 20
55.90020000000105
 30
0.0
 40
0.1999999999998039
 50
270.0
 51
0.0
  0
ARC
  5
2DCA
  8
0
  6
CONTINUOUS
 62
     7
 10
187.6557129936522
 20
55.90020000000105
 30
0.0
 40
0.1999999999988802
 50
180.0
 51
270.00000000026063
  0
ARC
  5
2DCB
  8
0
  6
CONTINUOUS
 62
     7
 10
217.85571299365759
 20
-18.999799999999482
 30
0.0
 40
6.000000000000056
 50
270.0
 51
0.0
  0
ARC
  5
2DCC
  8
0
  6
CONTINUOUS
 62
     7
 10
149.85571299365759
 20
-18.999799999999482
 30
0.0
 40
6.0
 50
180.0
 51
270.0
  0
ARC
  5
2DCD
  8
0
  6
CONTINUOUS
 62
     7
 10
149.85571299365759
 20
49.000200000000518
 30
0.0
 40
6.0
 50
90.0
 51
180.0
  0
ARC
  5
2DCE
  8
0
  6
CONTINUOUS
 62
     7
 10
217.85571299365759
 20
49.000200000000518
 30
0.0
 40
6.0
 50
0.0
 51
90.0
  0
LINE
  5
30C1
  8
0
  6
CONTINUOUS
 62
     7
 10
146.3098649621368
 20
113.97738143871661
 30
0.0
 11
146.3098649621368
 21
132.55631009704061
 31
0.0
  0
LINE
  5
30C2
  8
0
  6
CONTINUOUS
 62
     7
 10
142.81185451675981
 20
108.47738143871651
 30
0.0
 11
135.54517106364409
 21
108.47738143871651
 31
0.0
  0
LINE
  5
30C3
  8
0
  6
CONTINUOUS
 62
     7
 10
143.31185451675981
 20
148.47738143871661
 30
0.0
 11
143.31185451675981
 21
108.97738143871661
 31
0.0
  0
LINE
  5
30C4
  8
0
  6
CONTINUOUS
 62
     7
 10
145.81185451675981
 20
113.47738143871651
 30
0.0
 11
143.61185451675999
 21
113.47738143871651
 31
0.0
  0
LINE
  5
30C5
  8
0
  6
CONTINUOUS
 62
     7
 10
146.31185451675981
 20
148.47738143871661
 30
0.0
 11
146.31185451675981
 21
113.97738143871661
 31
0.0
  0
LINE
  5
30C6
  8
0
  6
CONTINUOUS
 62
     7
 10
146.31185451675981
 20
113.97738143871661
 30
0.0
 11
145.81185451675981
 21
113.47738143871651
 31
0.0
  0
LINE
  5
30C7
  8
0
  6
CONTINUOUS
 62
     7
 10
143.31185451675981
 20
108.97738143871661
 30
0.0
 11
142.81185451675981
 21
108.47738143871651
 31
0.0
  0
LINE
  5
30C8
  8
0
  6
DASH_CENTER
 62
     1
 10
183.30986496213691
 20
148.47738143871661
 30
0.0
 11
137.64656376960579
 21
148.47738143871661
 31
0.0
  0
LINE
  5
30C9
  8
0
  6
CONTINUOUS
 62
     7
 10
138.1135396144918
 20
188.47738143871661
 30
0.0
 11
142.81185451675981
 21
188.47738143871661
 31
0.0
  0
LINE
  5
30CA
  8
0
  6
CONTINUOUS
 62
     7
 10
146.30986496213691
 20
138.97738143871661
 30
0.0
 11
150.30986496213691
 21
138.97738143871661
 31
0.0
  0
LINE
  5
30CB
  8
0
  6
CONTINUOUS
 62
     7
 10
177.80986496213691
 20
157.97738143871661
 30
0.0
 11
146.30986496213691
 21
157.97738143871661
 31
0.0
  0
LINE
  5
30CC
  8
0
  6
CONTINUOUS
 62
     7
 10
178.30986496213691
 20
139.47738143871661
 30
0.0
 11
178.30986496213691
 21
157.47738143871661
 31
0.0
  0
LINE
  5
30CD
  8
0
  6
CONTINUOUS
 62
     7
 10
150.30986496213691
 20
138.97738143871661
 30
0.0
 11
177.80986496213691
 21
138.97738143871661
 31
0.0
  0
LINE
  5
30CE
  8
0
  6
CONTINUOUS
 62
     7
 10
178.30986496213691
 20
157.47738143871661
 30
0.0
 11
177.80986496213691
 21
157.97738143871661
 31
0.0
  0
LINE
  5
30CF
  8
0
  6
CONTINUOUS
 62
     7
 10
177.80986496213691
 20
138.97738143871661
 30
0.0
 11
178.30986496213691
 21
139.47738143871661
 31
0.0
  0
LINE
  5
30D0
  8
0
  6
CONTINUOUS
 62
     7
 10
177.80986496213691
 20
138.97738143871661
 30
0.0
 11
178.30986496213691
 21
139.47738143871661
 31
0.0
  0
LINE
  5
30D1
  8
0
  6
CONTINUOUS
 62
     7
 10
178.30986496213691
 20
157.47738143871661
 30
0.0
 11
177.80986496213691
 21
157.97738143871661
 31
0.0
  0
LINE
  5
30D2
  8
0
  6
CONTINUOUS
 62
     7
 10
150.30986496213691
 20
138.97738143871661
 30
0.0
 11
177.80986496213691
 21
138.97738143871661
 31
0.0
  0
LINE
  5
30D3
  8
0
  6
CONTINUOUS
 62
     7
 10
178.30986496213691
 20
139.47738143871661
 30
0.0
 11
178.30986496213691
 21
160.47738143871661
 31
0.0
  0
LINE
  5
30D4
  8
0
  6
CONTINUOUS
 62
     7
 10
177.80986496213691
 20
157.97738143871661
 30
0.0
 11
146.30986496213691
 21
157.97738143871661
 31
0.0
  0
LINE
  5
30D5
  8
0
  6
CONTINUOUS
 62
     7
 10
146.30986496213691
 20
138.97738143871661
 30
0.0
 11
150.30986496213691
 21
138.97738143871661
 31
0.0
  0
LINE
  5
30D6
  8
0
  6
CONTINUOUS
 62
     7
 10
135.81185451675981
 20
188.47738143871661
 30
0.0
 11
142.81185451675981
 21
188.47738143871661
 31
0.0
  0
LINE
  5
30D7
  8
0
  6
CONTINUOUS
 62
     7
 10
143.31185451675981
 20
187.97738143871661
 30
0.0
 11
143.31185451675981
 21
148.47738143871661
 31
0.0
  0
LINE
  5
30D8
  8
0
  6
CONTINUOUS
 62
     7
 10
143.61185451675999
 20
183.47738143871661
 30
0.0
 11
145.81185451675981
 21
183.47738143871661
 31
0.0
  0
LINE
  5
30D9
  8
0
  6
CONTINUOUS
 62
     7
 10
146.31185451675981
 20
182.97738143871661
 30
0.0
 11
146.31185451675981
 21
148.47738143871661
 31
0.0
  0
LINE
  5
30DA
  8
0
  6
CONTINUOUS
 62
     7
 10
145.81185451675981
 20
183.47738143871661
 30
0.0
 11
146.31185451675981
 21
182.97738143871661
 31
0.0
  0
LINE
  5
30DB
  8
0
  6
CONTINUOUS
 62
     7
 10
142.81185451675981
 20
188.47738143871661
 30
0.0
 11
143.31185451675981
 21
187.97738143871661
 31
0.0
  0
ARC
  5
30DC
  8
0
  6
CONTINUOUS
 62
     7
 10
143.61185451675999
 20
113.1773814387183
 30
0.0
 40
0.2999999999982919
 50
90.0
 51
180.0
  0
ARC
  5
30DD
  8
0
  6
CONTINUOUS
 62
     7
 10
143.61185451675999
 20
183.77738143871591
 30
0.0
 40
0.3000000000001819
 50
180.0
 51
270.0
  0
LINE
  5
30DE
  8
0
  6
DASH_CENTER
 62
     1
 10
226.82307540703891
 20
169.85915288247691
 30
0.0
 11
226.82307540703891
 21
126.86702069237261
 31
0.0
  0
LINE
  5
30DF
  8
0
  6
DASH_CENTER
 62
     1
 10
246.018875586929
 20
148.47738143871661
 30
0.0
 11
205.54580210654939
 21
148.47738143871661
 31
0.0
  0
ARC
  5
30E7
  8
0
 10
226.82307540703891
 20
148.47738143871661
 30
0.0
 40
9.5
 50
108.4084801705859
 51
71.59151982941404
  0
LINE
  5
30EA
  8
0
  6
DASH_CENTER
 62
     1
 10
183.30986496213691
 20
203.02653876652451
 30
0.0
 11
149.7879371406184
 21
203.02653876652451
 31
0.0
  0
LINE
  5
30EB
  8
0
  6
CONTINUOUS
 62
     7
 10
156.30986496213691
 20
200.02653876652451
 30
0.0
 11
156.30986496213691
 21
206.02653876652451
 31
0.0
  0
LINE
  5
30ED
  8
0
  6
CONTINUOUS
 62
     7
 10
178.309864962137
 20
200.02653876652451
 30
0.0
 11
156.30986496213691
 21
200.0265387665244
 31
0.0
  0
LINE
  5
30F0
  8
0
  6
CONTINUOUS
 62
     7
 10
178.30986496213691
 20
206.02653876652451
 30
0.0
 11
156.30986496213691
 21
206.02653876652451
 31
0.0
  0
CIRCLE
  5
30F1
  8
0
  6
CONTINUOUS
 62
     2
 10
226.82307540703891
 20
148.47738143871661
 30
0.0
 40
2.5
  0
CIRCLE
  5
30F2
  8
0
  6
CONTINUOUS
 62
     7
 10
226.82307540703891
 20
148.47738143871661
 30
0.0
 40
2.0
  0
LINE
  5
30F4
  8
0
 10
229.82307540703891
 20
160.47738143871661
 30
0.0
 11
229.823075407039
 21
154.47738143871661
 31
0.0
  0
LINE
  5
30F5
  8
0
 10
223.82307540703891
 20
160.47738143871661
 30
0.0
 11
223.82307540703891
 21
154.47738143871661
 31
0.0
  0
LINE
  5
30F6
  8
0
  6
CONTINUOUS
 62
     7
 10
156.30986496213691
 20
160.47738143871661
 30
0.0
 11
178.30986496213691
 21
160.47738143871661
 31
0.0
  0
LINE
  5
30F7
  8
0
  6
CONTINUOUS
 62
     7
 10
178.30986496213691
 20
200.0265387665244
 30
0.0
 11
178.30986496213691
 21
206.02653876652451
 31
0.0
  0
ARC
  5
30F8
  8
0
 10
156.30986496213691
 20
203.02653876652451
 30
0.0
 40
3.0
 50
90.0
 51
270.0
  0
LINE
  5
30F9
  8
0
  6
CONTINUOUS
 62
     7
 10
223.82307540703891
 20
160.47738143871661
 30
0.0
 11
229.823075407039
 21
160.47738143871661
 31
0.0
  0
LINE
  5
30FA
  8
0
  6
CONTINUOUS
 62
     7
 10
223.82307540703891
 20
154.47738143871661
 30
0.0
 11
229.823075407039
 21
154.47738143871661
 31
0.0
  0
LINE
  5
30FB
  8
0
  6
CONTINUOUS
 62
     7
 10
156.309864962137
 20
157.97738143871661
 30
0.0
 11
156.30986496213691
 21
160.47738143871661
 31
0.0
  0
ENDSEC
  0
EOF
