  0
SECTION
  2
HEADER
  9
$ACADVER
  1
AC1009
  9
$INSBASE
 10
0.0
 20
0.0
 30
0.0
  9
$EXTMIN
 10
-212.95104128618041
 20
-140.00882176889681
 30
-0.0015258207003583
  9
$EXTMAX
 10
249.53801970919201
 20
195.3559141005172
 30
0.0000000349246037
  9
$LIMMIN
 10
0.0
 20
0.0
  9
$LIMMAX
 10
12.0
 20
9.0
  9
$ORTHOMODE
 70
     0
  9
$REGENMODE
 70
     1
  9
$FILLMODE
 70
     1
  9
$QTEXTMODE
 70
     0
  9
$MIRRTEXT
 70
     1
  9
$DRAGMODE
 70
     2
  9
$LTSCALE
 40
1.0
  9
$OSMODE
 70
    37
  9
$ATTMODE
 70
     1
  9
$TEXTSIZE
 40
0.2
  9
$TRACEWID
 40
0.05
  9
$TEXTSTYLE
  7
STANDARD
  9
$CLAYER
  8
0
  9
$CELTYPE
  6
BYLAYER
  9
$CECOLOR
 62
   256
  9
$DIMSCALE
 40
1.0
  9
$DIMASZ
 40
0.18
  9
$DIMEXO
 40
0.0625
  9
$DIMDLI
 40
0.38
  9
$DIMRND
 40
0.0
  9
$DIMDLE
 40
0.0
  9
$DIMEXE
 40
0.18
  9
$DIMTP
 40
0.0
  9
$DIMTM
 40
0.0
  9
$DIMTXT
 40
0.18
  9
$DIMCEN
 40
0.09
  9
$DIMTSZ
 40
0.0
  9
$DIMTOL
 70
     0
  9
$DIMLIM
 70
     0
  9
$DIMTIH
 70
     1
  9
$DIMTOH
 70
     1
  9
$DIMSE1
 70
     0
  9
$DIMSE2
 70
     0
  9
$DIMTAD
 70
     0
  9
$DIMZIN
 70
     0
  9
$DIMBLK
  1

  9
$DIMASO
 70
     1
  9
$DIMSHO
 70
     1
  9
$DIMPOST
  1

  9
$DIMAPOST
  1

  9
$DIMALT
 70
     0
  9
$DIMALTD
 70
     2
  9
$DIMALTF
 40
25.399999999999999
  9
$DIMLFAC
 40
1.0
  9
$DIMTOFL
 70
     0
  9
$DIMTVP
 40
0.0
  9
$DIMTIX
 70
     0
  9
$DIMSOXD
 70
     0
  9
$DIMSAH
 70
     0
  9
$DIMBLK1
  1

  9
$DIMBLK2
  1

  9
$DIMSTYLE
  2
STANDARD
  9
$DIMCLRD
 70
     0
  9
$DIMCLRE
 70
     0
  9
$DIMCLRT
 70
     0
  9
$DIMTFAC
 40
1.0
  9
$DIMGAP
 40
0.09
  9
$LUNITS
 70
     2
  9
$LUPREC
 70
     4
  9
$SKETCHINC
 40
0.1
  9
$FILLETRAD
 40
0.5
  9
$AUNITS
 70
     0
  9
$AUPREC
 70
     0
  9
$MENU
  1
.
  9
$ELEVATION
 40
0.0
  9
$PELEVATION
 40
0.0
  9
$THICKNESS
 40
0.0
  9
$LIMCHECK
 70
     0
  9
$BLIPMODE
 70
     0
  9
$CHAMFERA
 40
0.5
  9
$CHAMFERB
 40
0.5
  9
$SKPOLY
 70
     0
  9
$TDCREATE
 40
2457042.4724754049
  9
$TDUPDATE
 40
2457291.412617431
  9
$TDINDWG
 40
0.0262058449
  9
$TDUSRTIMER
 40
0.0262057986
  9
$USRTIMER
 70
     1
  9
$ANGBASE
 50
0.0
  9
$ANGDIR
 70
     0
  9
$PDMODE
 70
     0
  9
$PDSIZE
 40
0.0
  9
$PLINEWID
 40
0.0
  9
$COORDS
 70
     1
  9
$SPLFRAME
 70
     0
  9
$SPLINETYPE
 70
     6
  9
$SPLINESEGS
 70
     8
  9
$ATTDIA
 70
     1
  9
$ATTREQ
 70
     1
  9
$HANDLING
 70
     1
  9
$HANDSEED
  5
44C3
  9
$SURFTAB1
 70
     6
  9
$SURFTAB2
 70
     6
  9
$SURFTYPE
 70
     6
  9
$SURFU
 70
     6
  9
$SURFV
 70
     6
  9
$UCSNAME
  2

  9
$UCSORG
 10
0.0
 20
0.0
 30
0.0
  9
$UCSXDIR
 10
1.0
 20
0.0
 30
0.0
  9
$UCSYDIR
 10
0.0
 20
1.0
 30
0.0
  9
$PUCSNAME
  2

  9
$PUCSORG
 10
0.0
 20
0.0
 30
0.0
  9
$PUCSXDIR
 10
1.0
 20
0.0
 30
0.0
  9
$PUCSYDIR
 10
0.0
 20
1.0
 30
0.0
  9
$USERI1
 70
     0
  9
$USERI2
 70
     0
  9
$USERI3
 70
     0
  9
$USERI4
 70
     0
  9
$USERI5
 70
     0
  9
$USERR1
 40
18.100000000000001
  9
$USERR2
 40
0.0
  9
$USERR3
 40
0.0
  9
$USERR4
 40
0.0
  9
$USERR5
 40
0.0
  9
$WORLDVIEW
 70
     1
  9
$SHADEDGE
 70
     3
  9
$SHADEDIF
 70
    70
  9
$TILEMODE
 70
     1
  9
$MAXACTVP
 70
    64
  9
$PLIMCHECK
 70
     0
  9
$PEXTMIN
 10
1.0000000000000000E+020
 20
1.0000000000000000E+020
 30
1.0000000000000000E+020
  9
$PEXTMAX
 10
-1.0000000000000000E+020
 20
-1.0000000000000000E+020
 30
-1.0000000000000000E+020
  9
$PLIMMIN
 10
0.0
 20
0.0
  9
$PLIMMAX
 10
12.0
 20
9.0
  9
$UNITMODE
 70
     0
  9
$VISRETAIN
 70
     1
  9
$PLINEGEN
 70
     0
  9
$PSLTSCALE
 70
     1
  0
ENDSEC
  0
SECTION
  2
TABLES
  0
TABLE
  2
VPORT
 70
     1
  0
VPORT
  2
*ACTIVE
 70
     0
 10
0.0
 20
0.0
 11
1.0
 21
1.0
 12
18.293489211505779
 22
27.673546165810201
 13
0.0
 23
0.0
 14
0.5
 24
0.5
 15
0.5
 25
0.5
 16
0.0
 26
0.0
 36
1.0
 17
0.0
 27
0.0
 37
0.0
 40
337.6775961167894
 41
2.0195627157652472
 42
50.0
 43
0.0
 44
0.0
 50
0.0
 51
0.0
 71
     0
 72
   100
 73
     1
 74
     2
 75
     0
 76
     0
 77
     0
 78
     0
  0
ENDTAB
  0
TABLE
  2
LTYPE
 70
     2
  0
LTYPE
  2
CONTINUOUS
 70
     0
  3
Solid line
 72
    65
 73
     0
 40
0.0
  0
LTYPE
  2
DASH_CENTER
 70
     0
  3
Dash_Center
 72
    65
 73
     4
 40
14.0
 49
11.0
 49
-1.0
 49
1.0
 49
-1.0
  0
ENDTAB
  0
TABLE
  2
LAYER
 70
     1
  0
LAYER
  2
0
 70
     0
 62
     7
  6
CONTINUOUS
  0
ENDTAB
  0
TABLE
  2
STYLE
 70
     2
  0
STYLE
  2
STANDARD
 70
     0
 40
0.0
 41
1.0
 50
0.0
 71
     0
 42
0.2
  3
txt
  4

  0
ENDTAB
  0
TABLE
  2
VIEW
 70
     0
  0
ENDTAB
  0
TABLE
  2
UCS
 70
     0
  0
ENDTAB
  0
TABLE
  2
APPID
 70
     5
  0
APPID
  2
ACAD
 70
     0
  0
APPID
  2
ACADANNOTATIVE
 70
     0
  0
APPID
  2
ACAD_EXEMPT_FROM_CAD_STANDARDS
 70
     0
  0
APPID
  2
ACAD_MLEADERVER
 70
     0
  0
APPID
  2
ACAD_NAV_VCDISPLAY
 70
     0
  0
ENDTAB
  0
TABLE
  2
DIMSTYLE
 70
     2
  0
DIMSTYLE
  2
STANDARD
 70
     0
  3

  4

  5

  6

  7

 40
1.0
 41
0.18
 42
0.0625
 43
0.38
 44
0.18
 45
0.0
 46
0.0
 47
0.0
 48
0.0
140
0.18
141
0.09
142
0.0
143
25.399999999999999
144
1.0
145
0.0
146
1.0
147
0.09
 71
     0
 72
     0
 73
     1
 74
     1
 75
     0
 76
     0
 77
     0
 78
     0
170
     0
171
     2
172
     0
173
     0
174
     0
175
     0
176
     0
177
     0
178
     0
  0
ENDTAB
  0
ENDSEC
  0
SECTION
  2
BLOCKS
  0
BLOCK
  8
0
  2
$MODEL_SPACE
 70
     0
 10
0.0
 20
0.0
 30
0.0
  3
$MODEL_SPACE
  1

  0
ENDBLK
  5
4403
  8
0
  0
BLOCK
 67
     1
  8
0
  2
$PAPER_SPACE
 70
     0
 10
0.0
 20
0.0
 30
0.0
  3
$PAPER_SPACE
  1

  0
ENDBLK
  5
43FF
 67
     1
  8
0
  0
ENDSEC
  0
SECTION
  2
ENTITIES
  0
LINE
  5
3B8D
  8
0
  6
CONTINUOUS
 62
     7
 10
-85.320311001128374
 20
-82.835859346377092
 30
0.0
 11
-79.82241586803795
 21
-82.835859346377092
 31
0.0
  0
LINE
  5
3B8E
  8
0
  6
CONTINUOUS
 62
     7
 10
-85.320311001128374
 20
-82.835859346377092
 30
0.0
 11
-85.32241586803795
 21
-73.999799999999482
 31
0.0
  0
LINE
  5
3B8F
  8
0
  6
CONTINUOUS
 62
     7
 10
-80.462415868047387
 20
-82.499799999999496
 30
0.0
 11
-80.462415868047387
 21
-75.756198753318941
 31
0.0
  0
LINE
  5
3B90
  8
0
  6
CONTINUOUS
 62
     7
 10
-79.82241586803795
 20
-82.999799999999482
 30
0.0
 11
-78.82452073495844
 21
-82.999799999999482
 31
0.0
  0
LINE
  5
3B91
  8
0
  6
CONTINUOUS
 62
     7
 10
-84.062415868048646
 20
-81.999799999999482
 30
0.0
 11
-80.462415868047387
 21
-81.999799999999482
 31
0.0
  0
LINE
  5
3B92
  8
0
  6
CONTINUOUS
 62
     7
 10
-84.462415868047358
 20
-81.599799999997146
 30
0.0
 11
-84.062415868048646
 21
-81.999799999999482
 31
0.0
  0
LINE
  5
3B93
  8
0
  6
CONTINUOUS
 62
     7
 10
-80.462415868047387
 20
-82.499799999999496
 30
0.0
 11
-79.82241586803795
 21
-82.499799999999496
 31
0.0
  0
LINE
  5
3B94
  8
0
  6
CONTINUOUS
 62
     7
 10
-84.062415868048646
 20
-75.756198753318941
 30
0.0
 11
-84.062415868048646
 21
-81.999799999999482
 31
0.0
  0
LINE
  5
3B95
  8
0
  6
CONTINUOUS
 62
     7
 10
-85.324520734947498
 20
-131.1637406536282
 30
0.0
 11
-79.824520734947512
 21
-131.1637406536282
 31
0.0
  0
LINE
  5
3B96
  8
0
  6
CONTINUOUS
 62
     7
 10
-85.32241586803795
 20
-139.99979999999951
 30
0.0
 11
-85.324520734947498
 21
-131.1637406536282
 31
0.0
  0
LINE
  5
3B97
  8
0
  6
CONTINUOUS
 62
     7
 10
-80.462415868037382
 20
-138.24340124668919
 30
0.0
 11
-80.462415868037382
 21
-131.49980000000861
 31
0.0
  0
LINE
  5
3B98
  8
0
  6
CONTINUOUS
 62
     7
 10
-80.462415868037382
 20
-131.99980000000861
 30
0.0
 11
-84.062415868037732
 21
-131.99980000000861
 31
0.0
  0
LINE
  5
3B99
  8
0
  6
CONTINUOUS
 62
     7
 10
-84.062415868037732
 20
-131.99980000000861
 30
0.0
 11
-84.462415868037382
 21
-132.39979999999909
 31
0.0
  0
LINE
  5
3B9A
  8
0
  6
CONTINUOUS
 62
     7
 10
-79.82241586803795
 20
-131.49980000000861
 30
0.0
 11
-80.462415868037382
 21
-131.49980000000861
 31
0.0
  0
LINE
  5
3B9B
  8
0
  6
CONTINUOUS
 62
     7
 10
-84.062415868037732
 20
-131.99980000000861
 30
0.0
 11
-84.462415868037382
 21
-132.39979999999909
 31
0.0
  0
LINE
  5
3B9C
  8
0
  6
CONTINUOUS
 62
     7
 10
-84.462415868037382
 20
-132.39979999999909
 30
0.0
 11
-84.462415868037382
 21
-138.24340124668919
 31
0.0
  0
LINE
  5
3B9D
  8
0
  6
CONTINUOUS
 62
     7
 10
-84.062415868037732
 20
-131.99980000000861
 30
0.0
 11
-84.062415868037732
 21
-138.24340124668919
 31
0.0
  0
LINE
  5
3B9E
  8
0
  6
CONTINUOUS
 62
     7
 10
-36.824405422658131
 20
-73.999799999999482
 30
0.0
 11
-85.32241586803795
 21
-73.999799999999482
 31
0.0
  0
LINE
  5
3B9F
  8
0
  6
CONTINUOUS
 62
     7
 10
-37.824520734948422
 20
-99.999799999999496
 30
0.0
 11
-37.824520734968438
 21
-139.99979999999951
 31
0.0
  0
LINE
  5
3BA0
  8
0
  6
CONTINUOUS
 62
     7
 10
50.875479265050309
 20
-125.9997999999995
 30
0.0
 11
-79.824520734947555
 21
-125.9997999999995
 31
0.0
  0
LINE
  5
3BA1
  8
0
  6
CONTINUOUS
 62
     7
 10
-102.3245207349475
 20
-125.9997999999995
 30
0.0
 11
-79.824520734947555
 21
-125.9997999999995
 31
0.0
  0
LINE
  5
3BA2
  8
0
  6
CONTINUOUS
 62
     7
 10
-102.3245207349475
 20
-73.999799999999482
 30
0.0
 11
-79.824520734947512
 21
-73.999799999999482
 31
0.0
  0
LINE
  5
3BA3
  8
0
  6
CONTINUOUS
 62
     7
 10
-103.5517696178278
 20
-138.17567532756851
 30
0.0
 11
-102.7045207349486
 21
-138.24979999999951
 31
0.0
  0
LINE
  5
3BA4
  8
0
  6
CONTINUOUS
 62
     7
 10
-102.7045207349486
 20
-138.49979999999951
 30
0.0
 11
-102.7045207349486
 21
-135.28903446028909
 31
0.0
  0
LINE
  5
3BA5
  8
0
  6
CONTINUOUS
 62
     7
 10
-103.254641032848
 20
-132.79792928963971
 30
0.0
 11
-103.5517696178278
 21
-132.82392467243861
 31
0.0
  0
LINE
  5
3BA6
  8
0
  6
CONTINUOUS
 62
     7
 10
-102.7045207349486
 20
-138.49979999999951
 30
0.0
 11
-102.3245207349475
 21
-138.49979999999951
 31
0.0
  0
LINE
  5
3BA7
  8
0
  6
CONTINUOUS
 62
     7
 10
-102.3245207349475
 20
-132.49979999999951
 30
0.0
 11
-102.3245207349475
 21
-138.49979999999951
 31
0.0
  0
LINE
  5
3BA8
  8
0
  6
CONTINUOUS
 62
     7
 10
-103.5517696178278
 20
-124.1756753275685
 30
0.0
 11
-102.7045207349486
 21
-124.2497999999995
 31
0.0
  0
LINE
  5
3BA9
  8
0
  6
CONTINUOUS
 62
     7
 10
-102.7045207349486
 20
-124.2497999999995
 30
0.0
 11
-102.7045207349486
 21
-121.4997999999995
 31
0.0
  0
LINE
  5
3BAA
  8
0
  6
CONTINUOUS
 62
     7
 10
-102.7045207349486
 20
-121.4997999999995
 30
0.0
 11
-102.7045207349486
 21
-118.7497999999995
 31
0.0
  0
LINE
  5
3BAB
  8
0
  6
CONTINUOUS
 62
     7
 10
-102.7045207349486
 20
-118.7497999999995
 30
0.0
 11
-103.5517696178278
 21
-118.82392467243859
 31
0.0
  0
LINE
  5
3BAC
  8
0
  6
CONTINUOUS
 62
     7
 10
-102.7045207349486
 20
-118.4997999999995
 30
0.0
 11
-102.3245207349475
 21
-118.4997999999995
 31
0.0
  0
LINE
  5
3BAD
  8
0
  6
CONTINUOUS
 62
     7
 10
-102.7045207349486
 20
-124.4997999999995
 30
0.0
 11
-102.3245207349475
 21
-124.4997999999995
 31
0.0
  0
LINE
  5
3BAE
  8
0
  6
CONTINUOUS
 62
     7
 10
-102.3245207349475
 20
-118.4997999999995
 30
0.0
 11
-102.3245207349475
 21
-124.4997999999995
 31
0.0
  0
LINE
  5
3BAF
  8
0
  6
CONTINUOUS
 62
     7
 10
-102.7045207349486
 20
-124.4997999999995
 30
0.0
 11
-102.7045207349486
 21
-118.4997999999995
 31
0.0
  0
LINE
  5
3BB0
  8
0
  6
CONTINUOUS
 62
     7
 10
-103.5517696178278
 20
-67.17567532756847
 30
0.0
 11
-103.2546410328389
 21
-67.201670710367466
 31
0.0
  0
LINE
  5
3BB1
  8
0
  6
CONTINUOUS
 62
     7
 10
-102.7045207349486
 20
-64.499799999999482
 30
0.0
 11
-102.7045207349486
 21
-61.749799999999482
 31
0.0
  0
LINE
  5
3BB2
  8
0
  6
CONTINUOUS
 62
     7
 10
-102.7045207349486
 20
-61.749799999999482
 30
0.0
 11
-103.5517696178278
 21
-61.823924672438679
 31
0.0
  0
LINE
  5
3BB3
  8
0
  6
CONTINUOUS
 62
     7
 10
-102.7045207349486
 20
-61.49979999999946
 30
0.0
 11
-102.3245207349475
 21
-61.49979999999946
 31
0.0
  0
LINE
  5
3BB4
  8
0
  6
CONTINUOUS
 62
     7
 10
-102.3245207349475
 20
-61.49979999999946
 30
0.0
 11
-102.3245207349475
 21
-67.499799999999482
 31
0.0
  0
LINE
  5
3BB5
  8
0
  6
CONTINUOUS
 62
     7
 10
-102.7045207349486
 20
-64.710565539708
 30
0.0
 11
-102.7045207349486
 21
-61.49979999999946
 31
0.0
  0
LINE
  5
3BB6
  8
0
  6
CONTINUOUS
 62
     7
 10
50.875479265050309
 20
-139.49979999999951
 30
0.0
 11
51.375479265050323
 21
-139.99979999999951
 31
0.0
  0
LINE
  5
3BB7
  8
0
  6
CONTINUOUS
 62
     7
 10
50.875479265050309
 20
-125.9997999999995
 30
0.0
 11
50.875479265050309
 21
-139.49979999999951
 31
0.0
  0
LINE
  5
3BB8
  8
0
  6
CONTINUOUS
 62
     7
 10
49.075479265049239
 20
-99.999799999999496
 30
0.0
 11
49.075479265049239
 21
-139.99979999999951
 31
0.0
  0
LINE
  5
3BB9
  8
0
  6
CONTINUOUS
 62
     7
 10
58.875479265050323
 20
-99.999799999999496
 30
0.0
 11
58.875479265050323
 21
-139.49979999999951
 31
0.0
  0
LINE
  5
3BBA
  8
0
  6
CONTINUOUS
 62
     7
 10
61.375479265050323
 20
-134.99979999999951
 30
0.0
 11
59.175479265049603
 21
-134.99979999999951
 31
0.0
  0
LINE
  5
3BBB
  8
0
  6
CONTINUOUS
 62
     7
 10
61.87547926505033
 20
-99.999799999999496
 30
0.0
 11
61.87547926505033
 21
-134.49979999999951
 31
0.0
  0
LINE
  5
3BBC
  8
0
  6
CONTINUOUS
 62
     7
 10
61.87547926505033
 20
-134.49979999999951
 30
0.0
 11
61.375479265050323
 21
-134.99979999999951
 31
0.0
  0
LINE
  5
3BBD
  8
0
  6
CONTINUOUS
 62
     7
 10
58.875479265050323
 20
-139.49979999999951
 30
0.0
 11
58.375479265050309
 21
-139.99979999999951
 31
0.0
  0
LINE
  5
3BBE
  8
0
  6
CONTINUOUS
 62
     7
 10
49.075479265049239
 20
-59.999799999999453
 30
0.0
 11
51.375479265050323
 21
-59.999799999999453
 31
0.0
  0
LINE
  5
3BBF
  8
0
  6
CONTINUOUS
 62
     7
 10
51.375479265050323
 20
-59.999799999999453
 30
0.0
 11
50.875479265050309
 21
-60.499799999999482
 31
0.0
  0
LINE
  5
3BC0
  8
0
  6
DASH_CENTER
 62
     1
 10
98.873489710429212
 20
-99.999799999999496
 30
0.0
 11
-110.3245207349475
 21
-99.999799999999496
 31
0.0
  0
LINE
  5
3BC1
  8
0
  6
CONTINUOUS
 62
     7
 10
-78.724520734948982
 20
-59.999799999999453
 30
0.0
 11
58.375479265050309
 21
-59.999799999999453
 31
0.0
  0
LINE
  5
3BC2
  8
0
  6
CONTINUOUS
 62
     7
 10
50.875479265050309
 20
-60.499799999999482
 30
0.0
 11
50.875479265050309
 21
-73.999799999999482
 31
0.0
  0
LINE
  5
3BC3
  8
0
  6
CONTINUOUS
 62
     7
 10
61.873489710429233
 20
-109.4997999999995
 30
0.0
 11
65.873489710429226
 21
-109.4997999999995
 31
0.0
  0
LINE
  5
3BC4
  8
0
  6
CONTINUOUS
 62
     7
 10
93.373489710429212
 20
-90.499799999999482
 30
0.0
 11
61.873489710429233
 21
-90.499799999999482
 31
0.0
  0
LINE
  5
3BC5
  8
0
  6
CONTINUOUS
 62
     7
 10
93.873489710429212
 20
-108.9997999999995
 30
0.0
 11
93.873489710429212
 21
-90.999799999999482
 31
0.0
  0
LINE
  5
3BC6
  8
0
  6
CONTINUOUS
 62
     7
 10
65.873489710429226
 20
-109.4997999999995
 30
0.0
 11
93.373489710429212
 21
-109.4997999999995
 31
0.0
  0
LINE
  5
3BC7
  8
0
  6
CONTINUOUS
 62
     7
 10
93.873489710429212
 20
-90.999799999999482
 30
0.0
 11
93.373489710429212
 21
-90.499799999999482
 31
0.0
  0
LINE
  5
3BC8
  8
0
  6
CONTINUOUS
 62
     7
 10
93.373489710429212
 20
-109.4997999999995
 30
0.0
 11
93.873489710429212
 21
-108.9997999999995
 31
0.0
  0
LINE
  5
3BC9
  8
0
  6
CONTINUOUS
 62
     7
 10
-78.824520734947512
 20
-99.999799999999496
 30
0.0
 11
-78.824520734947512
 21
-139.99979999999951
 31
0.0
  0
LINE
  5
3BCA
  8
0
  6
CONTINUOUS
 62
     7
 10
-37.824520734968438
 20
-59.999799999999453
 30
0.0
 11
-37.824520734948422
 21
-99.999799999999496
 31
0.0
  0
LINE
  5
3BCB
  8
0
  6
CONTINUOUS
 62
     7
 10
-78.824520734947512
 20
-60.099799999998027
 30
0.0
 11
-78.824520734947512
 21
-99.999799999999496
 31
0.0
  0
LINE
  5
3BCC
  8
0
  6
CONTINUOUS
 62
     7
 10
-78.724520734948982
 20
-59.999799999999453
 30
0.0
 11
-78.824520734947512
 21
-60.099799999998027
 31
0.0
  0
LINE
  5
3BCD
  8
0
  6
CONTINUOUS
 62
     7
 10
49.075479265049239
 20
-59.999799999999453
 30
0.0
 11
49.075479265049239
 21
-99.999799999999496
 31
0.0
  0
LINE
  5
3BCE
  8
0
  6
CONTINUOUS
 62
     7
 10
93.373489710429212
 20
-109.4997999999995
 30
0.0
 11
93.873489710429212
 21
-108.9997999999995
 31
0.0
  0
LINE
  5
3BCF
  8
0
  6
CONTINUOUS
 62
     7
 10
93.873489710429212
 20
-90.999799999999482
 30
0.0
 11
93.373489710429212
 21
-90.499799999999482
 31
0.0
  0
LINE
  5
3BD0
  8
0
  6
CONTINUOUS
 62
     7
 10
65.873489710429226
 20
-109.4997999999995
 30
0.0
 11
93.373489710429212
 21
-109.4997999999995
 31
0.0
  0
LINE
  5
3BD1
  8
0
  6
CONTINUOUS
 62
     7
 10
93.873489710429212
 20
-108.9997999999995
 30
0.0
 11
93.873489710429212
 21
-90.999799999999482
 31
0.0
  0
LINE
  5
3BD2
  8
0
  6
CONTINUOUS
 62
     7
 10
93.373489710429212
 20
-90.499799999999482
 30
0.0
 11
61.873489710429233
 21
-90.499799999999482
 31
0.0
  0
LINE
  5
3BD3
  8
0
  6
CONTINUOUS
 62
     7
 10
61.873489710429233
 20
-109.4997999999995
 30
0.0
 11
65.873489710429226
 21
-109.4997999999995
 31
0.0
  0
LINE
  5
3BD4
  8
0
  6
CONTINUOUS
 62
     7
 10
51.375479265050323
 20
-59.999799999999453
 30
0.0
 11
58.375479265050309
 21
-59.999799999999453
 31
0.0
  0
LINE
  5
3BD5
  8
0
  6
CONTINUOUS
 62
     7
 10
49.075479265049239
 20
-59.999799999999453
 30
0.0
 11
49.075479265049239
 21
-62.649799999999111
 31
0.0
  0
LINE
  5
3BD6
  8
0
  6
CONTINUOUS
 62
     7
 10
58.875479265050323
 20
-60.499799999999482
 30
0.0
 11
58.875479265050323
 21
-99.999799999999496
 31
0.0
  0
LINE
  5
3BD7
  8
0
  6
CONTINUOUS
 62
     7
 10
59.175479265049603
 20
-64.999799999999482
 30
0.0
 11
61.375479265050323
 21
-64.999799999999482
 31
0.0
  0
LINE
  5
3BD8
  8
0
  6
CONTINUOUS
 62
     7
 10
61.87547926505033
 20
-65.499799999999482
 30
0.0
 11
61.87547926505033
 21
-99.999799999999496
 31
0.0
  0
LINE
  5
3BD9
  8
0
  6
CONTINUOUS
 62
     7
 10
61.375479265050323
 20
-64.999799999999482
 30
0.0
 11
61.87547926505033
 21
-65.499799999999482
 31
0.0
  0
LINE
  5
3BDA
  8
0
  6
CONTINUOUS
 62
     7
 10
58.375479265050309
 20
-59.999799999999453
 30
0.0
 11
58.875479265050323
 21
-60.499799999999482
 31
0.0
  0
LINE
  5
3BDB
  8
0
  6
CONTINUOUS
 62
     7
 10
-36.824405422658131
 20
-73.999799999999482
 30
0.0
 11
50.875479265050309
 21
-73.999799999999482
 31
0.0
  0
LINE
  5
3BDC
  8
0
  6
CONTINUOUS
 62
     7
 10
-102.3245207349475
 20
-137.22757604274909
 30
0.0
 11
-102.3245207349475
 21
-137.99979999999951
 31
0.0
  0
LINE
  5
3BDD
  8
0
  6
CONTINUOUS
 62
     7
 10
-104.9403886703687
 20
-125.164372279848
 30
0.0
 11
-102.3757383435579
 21
-136.7778570293593
 31
0.0
  0
LINE
  5
3BDE
  8
0
  6
CONTINUOUS
 62
     7
 10
-100.3245207349475
 20
-139.99979999999951
 30
0.0
 11
58.375479265050309
 21
-139.99979999999951
 31
0.0
  0
LINE
  5
3BDF
  8
0
  6
CONTINUOUS
 62
     7
 10
-78.724520734948982
 20
-59.999799999999453
 30
0.0
 11
-102.3245207349475
 21
-59.999799999999453
 31
0.0
  0
LINE
  5
3BE0
  8
0
  6
CONTINUOUS
 62
     7
 10
-102.3245207349475
 20
-60.02515388534799
 30
0.0
 11
-102.3245207349475
 21
-137.22757604274909
 31
0.0
  0
LINE
  5
3BE1
  8
0
  6
CONTINUOUS
 62
     7
 10
-84.062415868037732
 20
-138.99979999999951
 30
0.0
 11
-80.462415868037382
 21
-138.99979999999951
 31
0.0
  0
LINE
  5
3BE2
  8
0
  6
CONTINUOUS
 62
     7
 10
-84.462415868037382
 20
-138.59979999999709
 30
0.0
 11
-84.062415868037732
 21
-138.99979999999951
 31
0.0
  0
LINE
  5
3BE3
  8
0
  6
CONTINUOUS
 62
     7
 10
-84.462415868037382
 20
-132.7561987533189
 30
0.0
 11
-84.462415868037382
 21
-138.59979999999709
 31
0.0
  0
LINE
  5
3BE4
  8
0
  6
CONTINUOUS
 62
     7
 10
-84.062415868037732
 20
-132.7561987533189
 30
0.0
 11
-84.062415868037732
 21
-138.99979999999951
 31
0.0
  0
LINE
  5
3BE5
  8
0
  6
CONTINUOUS
 62
     7
 10
-80.462415868037382
 20
-139.49979999999951
 30
0.0
 11
-79.82241586803795
 21
-139.49979999999951
 31
0.0
  0
LINE
  5
3BE6
  8
0
  6
CONTINUOUS
 62
     7
 10
-80.462415868037382
 20
-139.49979999999951
 30
0.0
 11
-80.462415868037382
 21
-132.7561987533189
 31
0.0
  0
LINE
  5
3BE7
  8
0
  6
CONTINUOUS
 62
     7
 10
-84.062415868048646
 20
-74.999799999999482
 30
0.0
 11
-80.462415868047387
 21
-74.999799999999482
 31
0.0
  0
LINE
  5
3BE8
  8
0
  6
CONTINUOUS
 62
     7
 10
-84.062415868048646
 20
-74.999799999999482
 30
0.0
 11
-84.462415868047358
 21
-75.39979999999909
 31
0.0
  0
LINE
  5
3BE9
  8
0
  6
CONTINUOUS
 62
     7
 10
-84.462415868047358
 20
-75.39979999999909
 30
0.0
 11
-84.462415868047358
 21
-81.599799999997146
 31
0.0
  0
LINE
  5
3BEA
  8
0
  6
CONTINUOUS
 62
     7
 10
-84.062415868048646
 20
-74.999799999999482
 30
0.0
 11
-84.062415868048646
 21
-81.41291896062819
 31
0.0
  0
LINE
  5
3BEB
  8
0
  6
CONTINUOUS
 62
     7
 10
-80.462415868047387
 20
-74.499799999999482
 30
0.0
 11
-79.82241586803795
 21
-74.499799999999482
 31
0.0
  0
LINE
  5
3BEC
  8
0
  6
CONTINUOUS
 62
     7
 10
-80.462415868047387
 20
-81.41291896062819
 30
0.0
 11
-80.462415868047387
 21
-74.499799999999482
 31
0.0
  0
LINE
  5
3BED
  8
0
  6
CONTINUOUS
 62
     7
 10
-79.82241586803795
 20
-73.999799999999482
 30
0.0
 11
-79.82241586803795
 21
-81.41291896062819
 31
0.0
  0
LINE
  5
3BEE
  8
0
  6
CONTINUOUS
 62
     7
 10
61.873489710429233
 20
-134.49979999999951
 30
0.0
 11
61.873489710429233
 21
-115.9208713416791
 31
0.0
  0
LINE
  5
3BEF
  8
0
  6
CONTINUOUS
 62
     7
 10
-105.3245207349475
 20
-121.79147967936819
 30
0.0
 11
-105.3245207349475
 21
-99.999799999999496
 31
0.0
  0
LINE
  5
3BF0
  8
0
  6
CONTINUOUS
 62
     7
 10
-79.824520734947512
 20
-59.999799999999453
 30
0.0
 11
-79.824520734947512
 21
-139.99979999999951
 31
0.0
  0
LINE
  5
3BF1
  8
0
  6
CONTINUOUS
 62
     7
 10
-105.3245207349475
 20
-99.999799999999496
 30
0.0
 11
-105.3245207349475
 21
-78.208120320628822
 31
0.0
  0
LINE
  5
3BF2
  8
0
  6
CONTINUOUS
 62
     7
 10
-102.3245207349475
 20
-62.989814699449092
 30
0.0
 11
-104.9403886703687
 21
-74.835227720148296
 31
0.0
  0
ARC
  5
3BF3
  8
0
  6
CONTINUOUS
 62
     7
 10
-97.704520734948574
 20
-135.49979999999951
 30
0.0
 40
7.0000000000049551
 50
163.7429721033993
 51
180.0
  0
ARC
  5
3BF4
  8
0
  6
CONTINUOUS
 62
     7
 10
-103.4646138750788
 20
-133.8201193705271
 30
0.0
 40
0.9999999999967867
 50
95.000000000093564
 51
163.74297210347609
  0
ARC
  5
3BF5
  8
0
  6
CONTINUOUS
 62
     7
 10
-97.704520734948574
 20
-135.49979999999951
 30
0.0
 40
7.000000000000056
 50
180.0
 51
196.2570278965855
  0
ARC
  5
3BF6
  8
0
  6
CONTINUOUS
 62
     7
 10
-103.4646138750788
 20
-137.1794806294692
 30
0.0
 40
1.0000000000051421
 50
196.25702789656751
 51
264.99999999996078
  0
ARC
  5
3BF7
  8
0
  6
CONTINUOUS
 62
     7
 10
-97.704520734948574
 20
-121.4997999999995
 30
0.0
 40
7.0000000000049472
 50
163.74297210339961
 51
180.0
  0
ARC
  5
3BF8
  8
0
  6
CONTINUOUS
 62
     7
 10
-103.4646138750788
 20
-119.8201193705271
 30
0.0
 40
0.9999999999967867
 50
95.000000000093564
 51
163.742972103477
  0
ARC
  5
3BF9
  8
0
  6
CONTINUOUS
 62
     7
 10
-97.704520734948574
 20
-121.4997999999995
 30
0.0
 40
7.000000000000056
 50
180.0
 51
196.25702789658561
  0
ARC
  5
3BFA
  8
0
  6
CONTINUOUS
 62
     7
 10
-103.4646138750788
 20
-123.1794806294692
 30
0.0
 40
1.0000000000051421
 50
196.25702789656751
 51
264.99999999996078
  0
ARC
  5
3BFB
  8
0
  6
CONTINUOUS
 62
     7
 10
-97.704520734948574
 20
-64.499799999999482
 30
0.0
 40
7.0000000000049374
 50
163.74297210339981
 51
180.0
  0
ARC
  5
3BFC
  8
0
  6
CONTINUOUS
 62
     7
 10
-103.4646138750788
 20
-62.820119370528012
 30
0.0
 40
0.9999999999976996
 50
95.000000000088946
 51
163.74297210342769
  0
ARC
  5
3BFD
  8
0
  6
CONTINUOUS
 62
     7
 10
-97.704520734948574
 20
-64.499799999999482
 30
0.0
 40
7.000000000000056
 50
180.0
 51
196.25702789658601
  0
ARC
  5
3BFE
  8
0
  6
CONTINUOUS
 62
     7
 10
-103.4646138750788
 20
-66.17948062946914
 30
0.0
 40
1.0000000000051661
 50
196.25702789657231
 51
264.99999999996078
  0
ARC
  5
3C07
  8
0
  6
CONTINUOUS
 62
     7
 10
59.175479265049603
 20
-135.29979999999881
 30
0.0
 40
0.2999999999993008
 50
90.0
 51
180.0
  0
ARC
  5
3C08
  8
0
  6
CONTINUOUS
 62
     7
 10
59.175479265049603
 20
-64.699799999997467
 30
0.0
 40
0.2999999999992724
 50
180.0
 51
270.0
  0
ARC
  5
3C09
  8
0
  6
CONTINUOUS
 62
     7
 10
-104.3245207349475
 20
-137.22757604274909
 30
0.0
 40
2.0
 50
0.0
 51
12.994616791698659
  0
ARC
  5
3C0A
  8
0
  6
CONTINUOUS
 62
     7
 10
-100.3245207349475
 20
-137.99979999999951
 30
0.0
 40
2.0
 50
180.0
 51
270.0
  0
ARC
  5
3C0B
  8
0
  6
CONTINUOUS
 62
     7
 10
-90.324520734947484
 20
-121.79147967936819
 30
0.0
 40
14.99999999999997
 50
180.0
 51
192.99461679190861
  0
ARC
  5
3C0C
  8
0
  6
CONTINUOUS
 62
     7
 10
-90.324520734947484
 20
-78.208120320628822
 30
0.0
 40
15.00000000000165
 50
167.00538320808809
 51
180.0
  0
LINE
  5
3CAC
  8
0
  6
CONTINUOUS
 62
     7
 10
-179.38722535440331
 20
62.860901053808568
 30
0.0
 11
-179.38722535440331
 21
35.522078568980866
 31
0.0
  0
LINE
  5
3CAD
  8
0
  6
CONTINUOUS
 62
     7
 10
-179.38722535440331
 20
58.769896921083379
 30
0.0
 11
-156.48722535440359
 21
58.769896921083379
 31
0.0
  0
LINE
  5
3CAE
  8
0
  6
CONTINUOUS
 62
     7
 10
-156.48722535440359
 20
62.860901053808568
 30
0.0
 11
-156.48722535440359
 21
35.522078568980866
 31
0.0
  0
LINE
  5
3CAF
  8
0
  6
CONTINUOUS
 62
     7
 10
-185.93722535440341
 20
55.700199999998517
 30
0.0
 11
-179.38722535440331
 21
55.700199999998517
 31
0.0
  0
LINE
  5
3CB1
  8
0
  6
CONTINUOUS
 62
     7
 10
-149.93722535440341
 20
60.494942298044521
 30
0.0
 11
-149.93722535440341
 21
55.700199999998517
 31
0.0
  0
LINE
  5
3CB2
  8
0
  6
CONTINUOUS
 62
     7
 10
-201.9372253544044
 20
55.00019999999688
 30
0.0
 11
-179.38722535440331
 21
55.000199999999609
 31
0.0
  0
LINE
  5
3CB3
  8
0
  6
CONTINUOUS
 62
     7
 10
-152.6774764823659
 20
67.094119298577539
 30
0.0
 11
-150.0180803243849
 21
60.888861596623542
 31
0.0
  0
LINE
  5
3CB4
  8
0
  6
CONTINUOUS
 62
     7
 10
-185.85637038442209
 20
60.888861596623542
 30
0.0
 11
-183.196974226441
 21
67.094119298577539
 31
0.0
  0
LINE
  5
3CB5
  8
0
  6
CONTINUOUS
 62
     7
 10
-185.93722535440341
 20
55.700199999998517
 30
0.0
 11
-185.93722535440341
 21
60.494942298044521
 31
0.0
  0
LINE
  5
3CB6
  8
0
  6
CONTINUOUS
 62
     7
 10
-185.9159333168665
 20
60.700200000000351
 30
0.0
 11
-179.38722535440331
 21
60.700200000000351
 31
0.0
  0
LINE
  5
3CB7
  8
0
  6
CONTINUOUS
 62
     7
 10
-207.93722535440349
 20
-6.9998000000012972
 30
0.0
 11
-207.93722535440349
 21
37.000199999998692
 31
0.0
  0
LINE
  5
3CB8
  8
0
  6
CONTINUOUS
 62
     7
 10
-127.93722535440349
 20
37.000199999998692
 30
0.0
 11
-127.93722535440349
 21
-6.9998000000012972
 31
0.0
  0
LINE
  5
3CB9
  8
0
  6
CONTINUOUS
 62
     7
 10
-193.93722535440349
 20
48.500199999998692
 30
0.0
 11
-193.93722535440349
 21
51.000199999998699
 31
0.0
  0
LINE
  5
3CBA
  8
0
  6
CONTINUOUS
 62
     7
 10
-201.43722535440341
 20
41.000199999998692
 30
0.0
 11
-203.93722535440349
 21
41.000199999998692
 31
0.0
  0
LINE
  5
3CBB
  8
0
  6
CONTINUOUS
 62
     7
 10
-193.93722535440349
 20
-20.999800000001329
 30
0.0
 11
-193.93722535440349
 21
-18.499800000001301
 31
0.0
  0
LINE
  5
3CBC
  8
0
  6
CONTINUOUS
 62
     7
 10
-131.93722535440341
 20
-10.999800000001301
 30
0.0
 11
-134.43722535440349
 21
-10.999800000001301
 31
0.0
  0
LINE
  5
3CBD
  8
0
  6
DASH_CENTER
 62
     1
 10
-122.93722535440349
 20
15.00020000000052
 30
0.0
 11
-212.93722535440349
 21
15.00020000000052
 31
0.0
  0
LINE
  5
3CBE
  8
0
  6
DASH_CENTER
 62
     1
 10
-167.93722535440341
 20
-29.999800000001329
 30
0.0
 11
-167.93722535440341
 21
79.09411123859546
 31
0.0
  0
LINE
  5
3CBF
  8
0
  6
CONTINUOUS
 62
     7
 10
-165.38722535440351
 20
67.700199999998517
 30
0.0
 11
-153.59662151238459
 21
67.700199999998517
 31
0.0
  0
LINE
  5
3CC0
  8
0
  6
CONTINUOUS
 62
     7
 10
-156.48722535440359
 20
60.700200000000351
 30
0.0
 11
-149.9585173919414
 21
60.700200000000351
 31
0.0
  0
LINE
  5
3CC1
  8
0
  6
CONTINUOUS
 62
     7
 10
-156.48722535440359
 20
55.700199999998517
 30
0.0
 11
-149.93722535440341
 21
55.700199999998517
 31
0.0
  0
LINE
  5
3CC2
  8
0
  6
CONTINUOUS
 62
     7
 10
-156.48722535440359
 20
55.000199999999609
 30
0.0
 11
-133.93722535440341
 21
55.000199999998713
 31
0.0
  0
LINE
  5
3CC3
  8
0
  6
CONTINUOUS
 62
     7
 10
-131.93722535440341
 20
41.000199999998692
 30
0.0
 11
-134.43722535440349
 21
41.000199999998692
 31
0.0
  0
LINE
  5
3CC4
  8
0
  6
CONTINUOUS
 62
     7
 10
-141.93722535440341
 20
48.500199999998692
 30
0.0
 11
-141.93722535440341
 21
51.000199999998699
 31
0.0
  0
LINE
  5
3CC5
  8
0
  6
CONTINUOUS
 62
     7
 10
-127.93722535440349
 20
37.000199999998692
 30
0.0
 11
-127.93722535440349
 21
-6.9998000000012972
 31
0.0
  0
LINE
  5
3CC6
  8
0
  6
CONTINUOUS
 62
     7
 10
-127.93722535440349
 20
37.000199999998692
 30
0.0
 11
-127.93722535440349
 21
-6.9998000000012972
 31
0.0
  0
LINE
  5
3CC7
  8
0
  6
CONTINUOUS
 62
     7
 10
-131.93722535440341
 20
41.000199999998692
 30
0.0
 11
-134.43722535440349
 21
41.000199999998692
 31
0.0
  0
LINE
  5
3CC8
  8
0
  6
CONTINUOUS
 62
     7
 10
-146.43722535440341
 20
50.500199999998721
 30
0.0
 11
-146.43722535440341
 21
51.800199999998881
 31
0.0
  0
LINE
  5
3CC9
  8
0
  6
CONTINUOUS
 62
     7
 10
-146.43722535440341
 20
50.500199999998721
 30
0.0
 11
-146.43722535440341
 21
49.200199999999427
 31
0.0
  0
LINE
  5
3CCA
  8
0
  6
CONTINUOUS
 62
     7
 10
-146.43722535440341
 20
50.500199999998721
 30
0.0
 11
-145.1372253544024
 21
50.500199999998721
 31
0.0
  0
LINE
  5
3CCB
  8
0
  6
CONTINUOUS
 62
     7
 10
-146.43722535440341
 20
50.500199999998721
 30
0.0
 11
-147.73722535440371
 21
50.500199999998721
 31
0.0
  0
LINE
  5
3CCC
  8
0
  6
CONTINUOUS
 62
     7
 10
-131.93722535440341
 20
-10.999800000001301
 30
0.0
 11
-134.43722535440349
 21
-10.999800000001301
 31
0.0
  0
LINE
  5
3CCD
  8
0
  6
CONTINUOUS
 62
     7
 10
-141.93722535440341
 20
-20.999800000001329
 30
0.0
 11
-141.93722535440341
 21
-18.499800000001301
 31
0.0
  0
LINE
  5
3CCE
  8
0
  6
CONTINUOUS
 62
     7
 10
-141.93722535440341
 20
-20.999800000001329
 30
0.0
 11
-141.93722535440341
 21
-18.499800000001301
 31
0.0
  0
LINE
  5
3CCF
  8
0
  6
CONTINUOUS
 62
     7
 10
-131.93722535440341
 20
-10.999800000001301
 30
0.0
 11
-134.43722535440349
 21
-10.999800000001301
 31
0.0
  0
LINE
  5
3CD0
  8
0
  6
CONTINUOUS
 62
     7
 10
-132.43722535440341
 20
-6.4998000000012972
 30
0.0
 11
-131.1372253544024
 21
-6.4998000000012972
 31
0.0
  0
LINE
  5
3CD1
  8
0
  6
CONTINUOUS
 62
     7
 10
-132.43722535440341
 20
-6.4998000000012972
 30
0.0
 11
-133.73722535440371
 21
-6.4998000000012972
 31
0.0
  0
LINE
  5
3CD2
  8
0
  6
CONTINUOUS
 62
     7
 10
-132.43722535440341
 20
-6.4998000000012972
 30
0.0
 11
-132.43722535440341
 21
-7.7998000000005669
 31
0.0
  0
LINE
  5
3CD3
  8
0
  6
CONTINUOUS
 62
     7
 10
-132.43722535440341
 20
-6.4998000000012972
 30
0.0
 11
-132.43722535440341
 21
-5.199800000001118
 31
0.0
  0
LINE
  5
3CD4
  8
0
  6
CONTINUOUS
 62
     7
 10
-193.93722535440349
 20
-20.999800000001329
 30
0.0
 11
-193.93722535440349
 21
-18.499800000001301
 31
0.0
  0
LINE
  5
3CD5
  8
0
  6
CONTINUOUS
 62
     7
 10
-201.43722535440341
 20
41.000199999998692
 30
0.0
 11
-203.93722535440349
 21
41.000199999998692
 31
0.0
  0
LINE
  5
3CD6
  8
0
  6
CONTINUOUS
 62
     7
 10
-201.43722535440341
 20
-10.999800000001301
 30
0.0
 11
-203.93722535440349
 21
-10.999800000001301
 31
0.0
  0
LINE
  5
3CD7
  8
0
  6
CONTINUOUS
 62
     7
 10
-193.93722535440349
 20
48.500199999998692
 30
0.0
 11
-193.93722535440349
 21
51.000199999998699
 31
0.0
  0
LINE
  5
3CD8
  8
0
  6
CONTINUOUS
 62
     7
 10
-207.93722535440349
 20
-6.9998000000012972
 30
0.0
 11
-207.93722535440349
 21
37.000199999998692
 31
0.0
  0
LINE
  5
3CD9
  8
0
  6
CONTINUOUS
 62
     7
 10
-207.93722535440349
 20
-6.9998000000012972
 30
0.0
 11
-207.93722535440349
 21
37.000199999998692
 31
0.0
  0
LINE
  5
3CDA
  8
0
  6
CONTINUOUS
 62
     7
 10
-193.93722535440349
 20
48.500199999998692
 30
0.0
 11
-193.93722535440349
 21
51.000199999998699
 31
0.0
  0
LINE
  5
3CDB
  8
0
  6
CONTINUOUS
 62
     7
 10
-201.43722535440341
 20
-10.999800000001301
 30
0.0
 11
-203.93722535440349
 21
-10.999800000001301
 31
0.0
  0
LINE
  5
3CDC
  8
0
  6
CONTINUOUS
 62
     7
 10
-201.43722535440341
 20
41.000199999998692
 30
0.0
 11
-203.93722535440349
 21
41.000199999998692
 31
0.0
  0
LINE
  5
3CDD
  8
0
  6
CONTINUOUS
 62
     7
 10
-193.93722535440349
 20
-20.999800000001329
 30
0.0
 11
-193.93722535440349
 21
-18.499800000001301
 31
0.0
  0
LINE
  5
3CDE
  8
0
  6
CONTINUOUS
 62
     7
 10
-189.43722535440341
 20
-20.499800000001329
 30
0.0
 11
-189.43722535440341
 21
-21.799800000000531
 31
0.0
  0
LINE
  5
3CDF
  8
0
  6
CONTINUOUS
 62
     7
 10
-189.43722535440341
 20
-20.499800000001329
 30
0.0
 11
-189.43722535440341
 21
-19.199800000001119
 31
0.0
  0
LINE
  5
3CE0
  8
0
  6
CONTINUOUS
 62
     7
 10
-189.43722535440341
 20
-20.499800000001329
 30
0.0
 11
-190.73722535440359
 21
-20.499800000001329
 31
0.0
  0
LINE
  5
3CE1
  8
0
  6
CONTINUOUS
 62
     7
 10
-189.43722535440341
 20
-20.499800000001329
 30
0.0
 11
-188.1372253544024
 21
-20.499800000001329
 31
0.0
  0
LINE
  5
3CE2
  8
0
  6
CONTINUOUS
 62
     7
 10
-203.43722535440341
 20
36.500199999998692
 30
0.0
 11
-204.73722535440371
 21
36.500199999998692
 31
0.0
  0
LINE
  5
3CE3
  8
0
  6
CONTINUOUS
 62
     7
 10
-203.43722535440341
 20
36.500199999998692
 30
0.0
 11
-202.1372253544024
 21
36.500199999998692
 31
0.0
  0
LINE
  5
3CE4
  8
0
  6
CONTINUOUS
 62
     7
 10
-203.43722535440341
 20
36.500199999998692
 30
0.0
 11
-203.43722535440341
 21
37.800199999998888
 31
0.0
  0
LINE
  5
3CE5
  8
0
  6
CONTINUOUS
 62
     7
 10
-203.43722535440341
 20
36.500199999998692
 30
0.0
 11
-203.43722535440341
 21
35.200199999999427
 31
0.0
  0
LINE
  5
3CE6
  8
0
  6
CONTINUOUS
 62
     7
 10
-178.25426015821009
 20
63.860901053808583
 30
0.0
 11
-157.62019055063141
 21
63.860901053808583
 31
0.0
  0
LINE
  5
3CE7
  8
0
  6
CONTINUOUS
 62
     7
 10
-157.1251190727281
 20
63.860901053808583
 30
0.0
 11
-158.5301524055441
 21
65.573516190885243
 31
0.0
  0
LINE
  5
3CE8
  8
0
  6
CONTINUOUS
 62
     7
 10
-177.3442983032638
 20
65.573516190885243
 30
0.0
 11
-178.74933163607881
 21
63.860901053808583
 31
0.0
  0
LINE
  5
3CE9
  8
0
  6
CONTINUOUS
 62
     7
 10
-178.74933163607881
 20
63.860901053808583
 30
0.0
 11
-157.12511907273091
 21
63.860901053808583
 31
0.0
  0
LINE
  5
3CEA
  8
0
  6
CONTINUOUS
 62
     7
 10
-176.53874896938231
 20
65.980987482143178
 30
0.0
 11
-159.3357017394257
 21
65.980987482143178
 31
0.0
  0
LINE
  5
3CEB
  8
0
  6
CONTINUOUS
 62
     7
 10
-178.52137932184371
 20
63.860901053808583
 30
0.0
 11
-157.3648858593607
 21
63.860901053808583
 31
0.0
  0
LINE
  5
3CEC
  8
0
  6
CONTINUOUS
 62
     7
 10
-170.48722535440351
 20
75.316649925085713
 30
0.0
 11
-170.48722535440351
 21
65.980987482142282
 31
0.0
  0
LINE
  5
3CED
  8
0
  6
CONTINUOUS
 62
     7
 10
-165.38722535440351
 20
75.36092331492101
 30
0.0
 11
-165.38722535440351
 21
65.980987482143178
 31
0.0
  0
LINE
  5
3CEE
  8
0
  6
CONTINUOUS
 62
     7
 10
-127.93722535440349
 20
-18.999800000001301
 30
0.0
 11
-127.93722535440349
 21
49.000199999998699
 31
0.0
  0
LINE
  5
3CEF
  8
0
  6
CONTINUOUS
 62
     7
 10
-201.93722535440349
 20
-24.999800000001329
 30
0.0
 11
-133.93722535440341
 21
-24.999800000001329
 31
0.0
  0
LINE
  5
3CF0
  8
0
  6
CONTINUOUS
 62
     7
 10
-207.93722535440349
 20
49.000199999998699
 30
0.0
 11
-207.93722535440349
 21
-18.999800000001301
 31
0.0
  0
LINE
  5
3CF1
  8
0
  6
CONTINUOUS
 62
     7
 10
-127.93722535440349
 20
45.000199999998678
 30
0.0
 11
-127.93722535440349
 21
-14.999800000001301
 31
0.0
  0
LINE
  5
3CF2
  8
0
  6
DASH_CENTER
 62
     1
 10
-141.663977705468
 20
41.273447648931437
 30
0.0
 11
-130.57086269654809
 21
52.366562657850523
 31
0.0
  0
LINE
  5
3CF3
  8
0
  6
DASH_CENTER
 62
     1
 10
-194.21047300333811
 20
-11.273047648937681
 30
0.0
 11
-205.30358801225529
 21
-22.366162657857629
 31
0.0
  0
LINE
  5
3CF4
  8
0
  6
DASH_CENTER
 62
     1
 10
-141.66397770547081
 20
-11.27304764893676
 30
0.0
 11
-130.5708626965517
 21
-22.36616265785673
 31
0.0
  0
LINE
  5
3CF5
  8
0
  6
DASH_CENTER
 62
     1
 10
-194.2104730033399
 20
41.273447648933249
 30
0.0
 11
-205.30358801225989
 21
52.366562657851432
 31
0.0
  0
LINE
  5
3CF6
  8
0
  6
CONTINUOUS
 62
     7
 10
-185.9159333168665
 20
60.700200000000351
 30
0.0
 11
-179.77397867089269
 21
60.700200000000351
 31
0.0
  0
LINE
  5
3CF7
  8
0
  6
CONTINUOUS
 62
     7
 10
-185.93722535440341
 20
55.700199999998517
 30
0.0
 11
-185.93722535440341
 21
60.494942298044521
 31
0.0
  0
LINE
  5
3CF8
  8
0
  6
CONTINUOUS
 62
     7
 10
-185.85637038442209
 20
60.888861596623542
 30
0.0
 11
-183.196974226441
 21
67.094119298577539
 31
0.0
  0
LINE
  5
3CF9
  8
0
  6
CONTINUOUS
 62
     7
 10
-182.2778291964234
 20
67.700199999998517
 30
0.0
 11
-170.48722535440351
 21
67.700199999998517
 31
0.0
  0
LINE
  5
3CFA
  8
0
  6
CONTINUOUS
 62
     7
 10
-152.6774764823659
 20
67.094119298577539
 30
0.0
 11
-150.0180803243849
 21
60.888861596623542
 31
0.0
  0
LINE
  5
3CFB
  8
0
  6
CONTINUOUS
 62
     7
 10
-149.93722535440341
 20
60.494942298044521
 30
0.0
 11
-149.93722535440341
 21
55.700199999998517
 31
0.0
  0
LINE
  5
3CFD
  8
0
  6
CONTINUOUS
 62
     7
 10
-185.93722535440341
 20
55.700199999998517
 30
0.0
 11
-182.4372253544208
 21
55.700199999998517
 31
0.0
  0
LINE
  5
3CFE
  8
0
  6
CONTINUOUS
 62
     7
 10
-153.4372253544208
 20
55.700199999998517
 30
0.0
 11
-149.93722535440341
 21
55.700199999998517
 31
0.0
  0
LINE
  5
3CFF
  8
0
  6
CONTINUOUS
 62
     7
 10
-156.1004720379498
 20
60.700200000000351
 30
0.0
 11
-149.9585173919414
 21
60.700200000000351
 31
0.0
  0
LINE
  5
3D00
  8
0
  6
CONTINUOUS
 62
     7
 10
-207.93722535440349
 20
-6.9998000000012972
 30
0.0
 11
-207.93722535440349
 21
37.000199999998692
 31
0.0
  0
LINE
  5
3D01
  8
0
  6
CONTINUOUS
 62
     7
 10
-207.93722535440349
 20
-6.9998000000012972
 30
0.0
 11
-207.93722535440349
 21
37.000199999998692
 31
0.0
  0
LINE
  5
3D02
  8
0
  6
CONTINUOUS
 62
     7
 10
-127.93722535440349
 20
37.000199999998692
 30
0.0
 11
-127.93722535440349
 21
-6.9998000000012972
 31
0.0
  0
LINE
  5
3D03
  8
0
  6
CONTINUOUS
 62
     7
 10
-127.93722535440349
 20
37.000199999998692
 30
0.0
 11
-127.93722535440349
 21
-6.9998000000012972
 31
0.0
  0
ARC
  5
3D04
  8
0
  6
CONTINUOUS
 62
     7
 10
-179.88722535440331
 20
55.500199999998721
 30
0.0
 40
0.5
 50
270.0
 51
0.0
  0
ARC
  5
3D05
  8
0
  6
CONTINUOUS
 62
     7
 10
-155.98722535440359
 20
55.500199999998721
 30
0.0
 40
0.5
 50
180.0
 51
270.0
  0
ARC
  5
3D06
  8
0
  6
CONTINUOUS
 62
     7
 10
-167.93722535440341
 20
15.000199999998699
 30
0.0
 40
23.50000000000097
 50
119.1589447695286
 51
60.84105523047139
  0
ARC
  5
3D07
  8
0
  6
CONTINUOUS
 62
     7
 10
-167.93722535440341
 20
15.000199999998699
 30
0.0
 40
37.000000000000043
 50
108.0266580364089
 51
71.973341963591125
  0
ARC
  5
3D08
  8
0
  6
CONTINUOUS
 62
     7
 10
-185.5872253544031
 20
55.350199999999973
 30
0.0
 40
0.3499999999985448
 50
90.0
 51
270.0
  0
ARC
  5
3D09
  8
0
  6
CONTINUOUS
 62
     7
 10
-150.28722535440301
 20
55.350199999999973
 30
0.0
 40
0.3500000000012733
 50
270.0
 51
90.0
  0
ARC
  5
3D0A
  8
0
  6
DASH_CENTER
 62
     1
 10
-167.93722535440341
 20
15.000199999998699
 30
0.0
 40
45.000000000001329
 50
34.999999999996973
 51
54.99999999999693
  0
ARC
  5
3D0B
  8
0
  6
DASH_CENTER
 62
     1
 10
-167.93722535440341
 20
15.000199999998699
 30
0.0
 40
45.000000000000469
 50
215.00000000000341
 51
235.00000000000239
  0
ARC
  5
3D0C
  8
0
  6
DASH_CENTER
 62
     1
 10
-167.93722535440341
 20
15.000199999998699
 30
0.0
 40
45.000000000000099
 50
304.99999999999659
 51
324.9999999999979
  0
ARC
  5
3D0D
  8
0
  6
DASH_CENTER
 62
     1
 10
-167.93722535440341
 20
15.000199999998699
 30
0.0
 40
45.000000000000469
 50
125.0000000000034
 51
145.00000000000139
  0
ARC
  5
3D0E
  8
0
  6
CONTINUOUS
 62
     7
 10
-150.28722535440301
 20
55.350199999999973
 30
0.0
 40
0.3500000000012733
 50
270.0
 51
90.0
  0
ARC
  5
3D0F
  8
0
  6
CONTINUOUS
 62
     7
 10
-185.5872253544031
 20
55.350199999999973
 30
0.0
 40
0.3499999999985448
 50
90.0
 51
270.0
  0
CIRCLE
  5
3D10
  8
0
  6
CONTINUOUS
 62
     7
 10
-146.43722535440341
 20
50.500199999998721
 30
0.0
 40
2.649999999999606
  0
CIRCLE
  5
3D11
  8
0
  6
CONTINUOUS
 62
     7
 10
-146.43722535440341
 20
50.500199999998721
 30
0.0
 40
2.25
  0
CIRCLE
  5
3D12
  8
0
  6
CONTINUOUS
 62
     7
 10
-132.43722535440341
 20
-6.4998000000012972
 30
0.0
 40
2.6500000000005461
  0
CIRCLE
  5
3D13
  8
0
  6
CONTINUOUS
 62
     7
 10
-132.43722535440341
 20
-6.4998000000012972
 30
0.0
 40
2.25
  0
CIRCLE
  5
3D14
  8
0
  6
CONTINUOUS
 62
     7
 10
-189.43722535440341
 20
-20.499800000001329
 30
0.0
 40
2.649999999999606
  0
CIRCLE
  5
3D15
  8
0
  6
CONTINUOUS
 62
     7
 10
-189.43722535440341
 20
-20.499800000001329
 30
0.0
 40
2.25
  0
CIRCLE
  5
3D16
  8
0
  6
CONTINUOUS
 62
     7
 10
-203.43722535440341
 20
36.500199999998692
 30
0.0
 40
2.6499999999996482
  0
CIRCLE
  5
3D17
  8
0
  6
CONTINUOUS
 62
     7
 10
-203.43722535440341
 20
36.500199999998692
 30
0.0
 40
2.25
  0
CIRCLE
  5
3D18
  8
0
  6
CONTINUOUS
 62
     7
 10
-199.75703050779799
 20
-16.819605153397671
 30
0.0
 40
3.0
  0
CIRCLE
  5
3D19
  8
0
  6
CONTINUOUS
 62
     7
 10
-136.117420201008
 20
46.820005153390532
 30
0.0
 40
3.0
  0
CIRCLE
  5
3D1A
  8
0
  6
CONTINUOUS
 62
     7
 10
-136.1174202010117
 20
-16.819605153396768
 30
0.0
 40
3.0
  0
CIRCLE
  5
3D1B
  8
0
  6
CONTINUOUS
 62
     7
 10
-199.7570305077999
 20
46.82000515339324
 30
0.0
 40
3.0
  0
POLYLINE
  5
42B1
  8
0
 62
     2
 66
     1
 10
0.0
 20
0.0
 30
0.0
 70
     8
  0
VERTEX
  5
42B2
  8
0
 62
     2
 10
-165.387
 20
75.360900000000001
 30
0.0
 70
    32
  0
VERTEX
  5
42B3
  8
0
 62
     2
 10
-165.40899999999999
 20
75.376900000000006
 30
0.0
 70
    32
  0
VERTEX
  5
42B4
  8
0
 62
     2
 10
-165.43100000000001
 20
75.392799999999994
 30
0.0
 70
    32
  0
VERTEX
  5
42B5
  8
0
 62
     2
 10
-165.452
 20
75.408699999999996
 30
0.0
 70
    32
  0
VERTEX
  5
42B6
  8
0
 62
     2
 10
-165.47399999999999
 20
75.424599999999998
 30
0.0
 70
    32
  0
VERTEX
  5
42B7
  8
0
 62
     2
 10
-165.4959999999999
 20
75.440399999999997
 30
0.0
 70
    32
  0
VERTEX
  5
42B8
  8
0
 62
     2
 10
-165.517
 20
75.456100000000006
 30
0.0
 70
    32
  0
VERTEX
  5
42B9
  8
0
 62
     2
 10
-165.53899999999999
 20
75.471800000000002
 30
0.0
 70
    32
  0
VERTEX
  5
42BA
  8
0
 62
     2
 10
-165.56100000000001
 20
75.487300000000005
 30
0.0
 70
    32
  0
VERTEX
  5
42BB
  8
0
 62
     2
 10
-165.58199999999999
 20
75.502700000000004
 30
0.0
 70
    32
  0
VERTEX
  5
42BC
  8
0
 62
     2
 10
-165.60400000000001
 20
75.518000000000001
 30
0.0
 70
    32
  0
VERTEX
  5
42BD
  8
0
 62
     2
 10
-165.626
 20
75.533100000000005
 30
0.0
 70
    32
  0
VERTEX
  5
42BE
  8
0
 62
     2
 10
-165.648
 20
75.548100000000005
 30
0.0
 70
    32
  0
VERTEX
  5
42BF
  8
0
 62
     2
 10
-165.66900000000001
 20
75.562799999999996
 30
0.0
 70
    32
  0
VERTEX
  5
42C0
  8
0
 62
     2
 10
-165.691
 20
75.577399999999983
 30
0.0
 70
    32
  0
VERTEX
  5
42C1
  8
0
 62
     2
 10
-165.71299999999999
 20
75.591800000000006
 30
0.0
 70
    32
  0
VERTEX
  5
42C2
  8
0
 62
     2
 10
-165.73500000000001
 20
75.605900000000005
 30
0.0
 70
    32
  0
VERTEX
  5
42C3
  8
0
 62
     2
 10
-165.75700000000001
 20
75.619799999999998
 30
0.0
 70
    32
  0
VERTEX
  5
42C4
  8
0
 62
     2
 10
-165.77799999999999
 20
75.633399999999995
 30
0.0
 70
    32
  0
VERTEX
  5
42C5
  8
0
 62
     2
 10
-165.80000000000001
 20
75.646699999999996
 30
0.0
 70
    32
  0
VERTEX
  5
42C6
  8
0
 62
     2
 10
-165.822
 20
75.659800000000004
 30
0.0
 70
    32
  0
VERTEX
  5
42C7
  8
0
 62
     2
 10
-165.84399999999999
 20
75.672600000000003
 30
0.0
 70
    32
  0
VERTEX
  5
42C8
  8
0
 62
     2
 10
-165.86600000000001
 20
75.685000000000002
 30
0.0
 70
    32
  0
VERTEX
  5
42C9
  8
0
 62
     2
 10
-165.88800000000001
 20
75.697100000000006
 30
0.0
 70
    32
  0
VERTEX
  5
42CA
  8
0
 62
     2
 10
-165.91
 20
75.708799999999997
 30
0.0
 70
    32
  0
VERTEX
  5
42CB
  8
0
 62
     2
 10
-165.93199999999999
 20
75.720200000000006
 30
0.0
 70
    32
  0
VERTEX
  5
42CC
  8
0
 62
     2
 10
-165.95400000000001
 20
75.731200000000001
 30
0.0
 70
    32
  0
VERTEX
  5
42CD
  8
0
 62
     2
 10
-165.976
 20
75.741799999999998
 30
0.0
 70
    32
  0
VERTEX
  5
42CE
  8
0
 62
     2
 10
-165.99799999999999
 20
75.751999999999995
 30
0.0
 70
    32
  0
VERTEX
  5
42CF
  8
0
 62
     2
 10
-166.02099999999999
 20
75.761700000000005
 30
0.0
 70
    32
  0
VERTEX
  5
42D0
  8
0
 62
     2
 10
-166.04300000000001
 20
75.771100000000004
 30
0.0
 70
    32
  0
VERTEX
  5
42D1
  8
0
 62
     2
 10
-166.065
 20
75.779899999999984
 30
0.0
 70
    32
  0
VERTEX
  5
42D2
  8
0
 62
     2
 10
-166.08699999999999
 20
75.788300000000007
 30
0.0
 70
    32
  0
VERTEX
  5
42D3
  8
0
 62
     2
 10
-166.11000000000001
 20
75.796199999999999
 30
0.0
 70
    32
  0
VERTEX
  5
42D4
  8
0
 62
     2
 10
-166.13200000000001
 20
75.803600000000003
 30
0.0
 70
    32
  0
VERTEX
  5
42D5
  8
0
 62
     2
 10
-166.155
 20
75.810500000000005
 30
0.0
 70
    32
  0
VERTEX
  5
42D6
  8
0
 62
     2
 10
-166.17699999999999
 20
75.816800000000001
 30
0.0
 70
    32
  0
VERTEX
  5
42D7
  8
0
 62
     2
 10
-166.19999999999999
 20
75.822599999999994
 30
0.0
 70
    32
  0
VERTEX
  5
42D8
  8
0
 62
     2
 10
-166.22200000000001
 20
75.827799999999996
 30
0.0
 70
    32
  0
VERTEX
  5
42D9
  8
0
 62
     2
 10
-166.245
 20
75.832499999999996
 30
0.0
 70
    32
  0
VERTEX
  5
42DA
  8
0
 62
     2
 10
-166.267
 20
75.836500000000001
 30
0.0
 70
    32
  0
VERTEX
  5
42DB
  8
0
 62
     2
 10
-166.28999999999999
 20
75.8399
 30
0.0
 70
    32
  0
VERTEX
  5
42DC
  8
0
 62
     2
 10
-166.31299999999999
 20
75.842699999999994
 30
0.0
 70
    32
  0
VERTEX
  5
42DD
  8
0
 62
     2
 10
-166.33600000000001
 20
75.844899999999996
 30
0.0
 70
    32
  0
VERTEX
  5
42DE
  8
0
 62
     2
 10
-166.358
 20
75.846400000000003
 30
0.0
 70
    32
  0
VERTEX
  5
42DF
  8
0
 62
     2
 10
-166.38099999999989
 20
75.847300000000004
 30
0.0
 70
    32
  0
VERTEX
  5
42E0
  8
0
 62
     2
 10
-166.404
 20
75.847499999999997
 30
0.0
 70
    32
  0
VERTEX
  5
42E1
  8
0
 62
     2
 10
-166.42699999999999
 20
75.847200000000001
 30
0.0
 70
    32
  0
VERTEX
  5
42E2
  8
0
 62
     2
 10
-166.44999999999999
 20
75.846199999999996
 30
0.0
 70
    32
  0
VERTEX
  5
42E3
  8
0
 62
     2
 10
-166.47399999999999
 20
75.844599999999986
 30
0.0
 70
    32
  0
VERTEX
  5
42E4
  8
0
 62
     2
 10
-166.49700000000001
 20
75.842600000000004
 30
0.0
 70
    32
  0
VERTEX
  5
42E5
  8
0
 62
     2
 10
-166.52000000000001
 20
75.8399
 30
0.0
 70
    32
  0
VERTEX
  5
42E6
  8
0
 62
     2
 10
-166.54300000000001
 20
75.836799999999997
 30
0.0
 70
    32
  0
VERTEX
  5
42E7
  8
0
 62
     2
 10
-166.56700000000001
 20
75.833200000000005
 30
0.0
 70
    32
  0
VERTEX
  5
42E8
  8
0
 62
     2
 10
-166.59
 20
75.829099999999997
 30
0.0
 70
    32
  0
VERTEX
  5
42E9
  8
0
 62
     2
 10
-166.613
 20
75.8245
 30
0.0
 70
    32
  0
VERTEX
  5
42EA
  8
0
 62
     2
 10
-166.637
 20
75.819500000000005
 30
0.0
 70
    32
  0
VERTEX
  5
42EB
  8
0
 62
     2
 10
-166.66
 20
75.8142
 30
0.0
 70
    32
  0
VERTEX
  5
42EC
  8
0
 62
     2
 10
-166.684
 20
75.808400000000006
 30
0.0
 70
    32
  0
VERTEX
  5
42ED
  8
0
 62
     2
 10
-166.70699999999999
 20
75.802199999999999
 30
0.0
 70
    32
  0
VERTEX
  5
42EE
  8
0
 62
     2
 10
-166.73099999999999
 20
75.795699999999997
 30
0.0
 70
    32
  0
VERTEX
  5
42EF
  8
0
 62
     2
 10
-166.755
 20
75.788799999999995
 30
0.0
 70
    32
  0
VERTEX
  5
42F0
  8
0
 62
     2
 10
-166.77799999999999
 20
75.781700000000001
 30
0.0
 70
    32
  0
VERTEX
  5
42F1
  8
0
 62
     2
 10
-166.80199999999999
 20
75.774199999999993
 30
0.0
 70
    32
  0
VERTEX
  5
42F2
  8
0
 62
     2
 10
-166.82599999999999
 20
75.766499999999994
 30
0.0
 70
    32
  0
VERTEX
  5
42F3
  8
0
 62
     2
 10
-166.84999999999999
 20
75.758499999999984
 30
0.0
 70
    32
  0
VERTEX
  5
42F4
  8
0
 62
     2
 10
-166.874
 20
75.750299999999996
 30
0.0
 70
    32
  0
VERTEX
  5
42F5
  8
0
 62
     2
 10
-166.89699999999999
 20
75.741799999999998
 30
0.0
 70
    32
  0
VERTEX
  5
42F6
  8
0
 62
     2
 10
-166.92099999999999
 20
75.733199999999997
 30
0.0
 70
    32
  0
VERTEX
  5
42F7
  8
0
 62
     2
 10
-166.94499999999999
 20
75.724400000000003
 30
0.0
 70
    32
  0
VERTEX
  5
42F8
  8
0
 62
     2
 10
-166.96899999999999
 20
75.715400000000002
 30
0.0
 70
    32
  0
VERTEX
  5
42F9
  8
0
 62
     2
 10
-166.99299999999999
 20
75.706299999999999
 30
0.0
 70
    32
  0
VERTEX
  5
42FA
  8
0
 62
     2
 10
-167.017
 20
75.697100000000006
 30
0.0
 70
    32
  0
VERTEX
  5
42FB
  8
0
 62
     2
 10
-167.041
 20
75.687799999999996
 30
0.0
 70
    32
  0
VERTEX
  5
42FC
  8
0
 62
     2
 10
-167.065
 20
75.678399999999996
 30
0.0
 70
    32
  0
VERTEX
  5
42FD
  8
0
 62
     2
 10
-167.09
 20
75.668899999999994
 30
0.0
 70
    32
  0
VERTEX
  5
42FE
  8
0
 62
     2
 10
-167.114
 20
75.659400000000005
 30
0.0
 70
    32
  0
VERTEX
  5
42FF
  8
0
 62
     2
 10
-167.13800000000001
 20
75.649900000000002
 30
0.0
 70
    32
  0
VERTEX
  5
4300
  8
0
 62
     2
 10
-167.16200000000001
 20
75.6404
 30
0.0
 70
    32
  0
VERTEX
  5
4301
  8
0
 62
     2
 10
-167.18600000000001
 20
75.631
 30
0.0
 70
    32
  0
VERTEX
  5
4302
  8
0
 62
     2
 10
-167.21100000000001
 20
75.621499999999983
 30
0.0
 70
    32
  0
VERTEX
  5
4303
  8
0
 62
     2
 10
-167.23500000000001
 20
75.612099999999984
 30
0.0
 70
    32
  0
VERTEX
  5
4304
  8
0
 62
     2
 10
-167.25899999999999
 20
75.602800000000002
 30
0.0
 70
    32
  0
VERTEX
  5
4305
  8
0
 62
     2
 10
-167.28299999999999
 20
75.593599999999995
 30
0.0
 70
    32
  0
VERTEX
  5
4306
  8
0
 62
     2
 10
-167.30799999999999
 20
75.584599999999995
 30
0.0
 70
    32
  0
VERTEX
  5
4307
  8
0
 62
     2
 10
-167.33199999999999
 20
75.575599999999994
 30
0.0
 70
    32
  0
VERTEX
  5
4308
  8
0
 62
     2
 10
-167.357
 20
75.566800000000001
 30
0.0
 70
    32
  0
VERTEX
  5
4309
  8
0
 62
     2
 10
-167.381
 20
75.558199999999999
 30
0.0
 70
    32
  0
VERTEX
  5
430A
  8
0
 62
     2
 10
-167.405
 20
75.549800000000005
 30
0.0
 70
    32
  0
VERTEX
  5
430B
  8
0
 62
     2
 10
-167.43000000000001
 20
75.541700000000006
 30
0.0
 70
    32
  0
VERTEX
  5
430C
  8
0
 62
     2
 10
-167.45400000000001
 20
75.533699999999996
 30
0.0
 70
    32
  0
VERTEX
  5
430D
  8
0
 62
     2
 10
-167.47900000000001
 20
75.525999999999996
 30
0.0
 70
    32
  0
VERTEX
  5
430E
  8
0
 62
     2
 10
-167.50299999999999
 20
75.518600000000006
 30
0.0
 70
    32
  0
VERTEX
  5
430F
  8
0
 62
     2
 10
-167.52799999999999
 20
75.511499999999984
 30
0.0
 70
    32
  0
VERTEX
  5
4310
  8
0
 62
     2
 10
-167.55199999999999
 20
75.5047
 30
0.0
 70
    32
  0
VERTEX
  5
4311
  8
0
 62
     2
 10
-167.577
 20
75.4983
 30
0.0
 70
    32
  0
VERTEX
  5
4312
  8
0
 62
     2
 10
-167.601
 20
75.492199999999997
 30
0.0
 70
    32
  0
VERTEX
  5
4313
  8
0
 62
     2
 10
-167.626
 20
75.486500000000007
 30
0.0
 70
    32
  0
VERTEX
  5
4314
  8
0
 62
     2
 10
-167.65000000000001
 20
75.481200000000001
 30
0.0
 70
    32
  0
VERTEX
  5
4315
  8
0
 62
     2
 10
-167.67500000000001
 20
75.476299999999995
 30
0.0
 70
    32
  0
VERTEX
  5
4316
  8
0
 62
     2
 10
-167.69900000000001
 20
75.471800000000002
 30
0.0
 70
    32
  0
VERTEX
  5
4317
  8
0
 62
     2
 10
-167.72399999999999
 20
75.467799999999997
 30
0.0
 70
    32
  0
VERTEX
  5
4318
  8
0
 62
     2
 10
-167.74799999999999
 20
75.464200000000005
 30
0.0
 70
    32
  0
VERTEX
  5
4319
  8
0
 62
     2
 10
-167.773
 20
75.461200000000005
 30
0.0
 70
    32
  0
VERTEX
  5
431A
  8
0
 62
     2
 10
-167.797
 20
75.458699999999993
 30
0.0
 70
    32
  0
VERTEX
  5
431B
  8
0
 62
     2
 10
-167.822
 20
75.456699999999998
 30
0.0
 70
    32
  0
VERTEX
  5
431C
  8
0
 62
     2
 10
-167.846
 20
75.455299999999994
 30
0.0
 70
    32
  0
VERTEX
  5
431D
  8
0
 62
     2
 10
-167.87100000000001
 20
75.454400000000007
 30
0.0
 70
    32
  0
VERTEX
  5
431E
  8
0
 62
     2
 10
-167.89500000000001
 20
75.454099999999997
 30
0.0
 70
    32
  0
VERTEX
  5
431F
  8
0
 62
     2
 10
-167.9199999999999
 20
75.454499999999996
 30
0.0
 70
    32
  0
VERTEX
  5
4320
  8
0
 62
     2
 10
-167.94399999999999
 20
75.455500000000001
 30
0.0
 70
    32
  0
VERTEX
  5
4321
  8
0
 62
     2
 10
-167.96899999999999
 20
75.457099999999997
 30
0.0
 70
    32
  0
VERTEX
  5
4322
  8
0
 62
     2
 10
-167.99299999999999
 20
75.459299999999999
 30
0.0
 70
    32
  0
VERTEX
  5
4323
  8
0
 62
     2
 10
-168.018
 20
75.462199999999996
 30
0.0
 70
    32
  0
VERTEX
  5
4324
  8
0
 62
     2
 10
-168.042
 20
75.465599999999995
 30
0.0
 70
    32
  0
VERTEX
  5
4325
  8
0
 62
     2
 10
-168.06700000000001
 20
75.469499999999996
 30
0.0
 70
    32
  0
VERTEX
  5
4326
  8
0
 62
     2
 10
-168.09100000000001
 20
75.474000000000004
 30
0.0
 70
    32
  0
VERTEX
  5
4327
  8
0
 62
     2
 10
-168.11600000000001
 20
75.478999999999999
 30
0.0
 70
    32
  0
VERTEX
  5
4328
  8
0
 62
     2
 10
-168.13999999999999
 20
75.484499999999997
 30
0.0
 70
    32
  0
VERTEX
  5
4329
  8
0
 62
     2
 10
-168.16499999999999
 20
75.490499999999997
 30
0.0
 70
    32
  0
VERTEX
  5
432A
  8
0
 62
     2
 10
-168.18899999999999
 20
75.496899999999997
 30
0.0
 70
    32
  0
VERTEX
  5
432B
  8
0
 62
     2
 10
-168.214
 20
75.503799999999998
 30
0.0
 70
    32
  0
VERTEX
  5
432C
  8
0
 62
     2
 10
-168.238
 20
75.510999999999996
 30
0.0
 70
    32
  0
VERTEX
  5
432D
  8
0
 62
     2
 10
-168.262
 20
75.518699999999995
 30
0.0
 70
    32
  0
VERTEX
  5
432E
  8
0
 62
     2
 10
-168.28700000000001
 20
75.526700000000005
 30
0.0
 70
    32
  0
VERTEX
  5
432F
  8
0
 62
     2
 10
-168.31100000000001
 20
75.534999999999997
 30
0.0
 70
    32
  0
VERTEX
  5
4330
  8
0
 62
     2
 10
-168.33600000000001
 20
75.543700000000001
 30
0.0
 70
    32
  0
VERTEX
  5
4331
  8
0
 62
     2
 10
-168.36000000000001
 20
75.552700000000002
 30
0.0
 70
    32
  0
VERTEX
  5
4332
  8
0
 62
     2
 10
-168.38399999999999
 20
75.561999999999998
 30
0.0
 70
    32
  0
VERTEX
  5
4333
  8
0
 62
     2
 10
-168.4079999999999
 20
75.5715
 30
0.0
 70
    32
  0
VERTEX
  5
4334
  8
0
 62
     2
 10
-168.43299999999999
 20
75.581299999999999
 30
0.0
 70
    32
  0
VERTEX
  5
4335
  8
0
 62
     2
 10
-168.45699999999999
 20
75.591300000000004
 30
0.0
 70
    32
  0
VERTEX
  5
4336
  8
0
 62
     2
 10
-168.48099999999999
 20
75.601500000000001
 30
0.0
 70
    32
  0
VERTEX
  5
4337
  8
0
 62
     2
 10
-168.505
 20
75.611900000000006
 30
0.0
 70
    32
  0
VERTEX
  5
4338
  8
0
 62
     2
 10
-168.529
 20
75.622500000000002
 30
0.0
 70
    32
  0
VERTEX
  5
4339
  8
0
 62
     2
 10
-168.553
 20
75.633200000000002
 30
0.0
 70
    32
  0
VERTEX
  5
433A
  8
0
 62
     2
 10
-168.578
 20
75.644000000000005
 30
0.0
 70
    32
  0
VERTEX
  5
433B
  8
0
 62
     2
 10
-168.602
 20
75.654899999999998
 30
0.0
 70
    32
  0
VERTEX
  5
433C
  8
0
 62
     2
 10
-168.626
 20
75.665899999999993
 30
0.0
 70
    32
  0
VERTEX
  5
433D
  8
0
 62
     2
 10
-168.65000000000001
 20
75.676900000000003
 30
0.0
 70
    32
  0
VERTEX
  5
433E
  8
0
 62
     2
 10
-168.67400000000001
 20
75.688000000000002
 30
0.0
 70
    32
  0
VERTEX
  5
433F
  8
0
 62
     2
 10
-168.697
 20
75.699100000000001
 30
0.0
 70
    32
  0
VERTEX
  5
4340
  8
0
 62
     2
 10
-168.721
 20
75.7102
 30
0.0
 70
    32
  0
VERTEX
  5
4341
  8
0
 62
     2
 10
-168.745
 20
75.721299999999999
 30
0.0
 70
    32
  0
VERTEX
  5
4342
  8
0
 62
     2
 10
-168.76900000000001
 20
75.732299999999995
 30
0.0
 70
    32
  0
VERTEX
  5
4343
  8
0
 62
     2
 10
-168.79300000000001
 20
75.743300000000005
 30
0.0
 70
    32
  0
VERTEX
  5
4344
  8
0
 62
     2
 10
-168.816
 20
75.754099999999994
 30
0.0
 70
    32
  0
VERTEX
  5
4345
  8
0
 62
     2
 10
-168.84
 20
75.764899999999983
 30
0.0
 70
    32
  0
VERTEX
  5
4346
  8
0
 62
     2
 10
-168.864
 20
75.775499999999994
 30
0.0
 70
    32
  0
VERTEX
  5
4347
  8
0
 62
     2
 10
-168.887
 20
75.786000000000001
 30
0.0
 70
    32
  0
VERTEX
  5
4348
  8
0
 62
     2
 10
-168.91099999999989
 20
75.796300000000002
 30
0.0
 70
    32
  0
VERTEX
  5
4349
  8
0
 62
     2
 10
-168.934
 20
75.806399999999996
 30
0.0
 70
    32
  0
VERTEX
  5
434A
  8
0
 62
     2
 10
-168.958
 20
75.816299999999998
 30
0.0
 70
    32
  0
VERTEX
  5
434B
  8
0
 62
     2
 10
-168.98099999999999
 20
75.825999999999993
 30
0.0
 70
    32
  0
VERTEX
  5
434C
  8
0
 62
     2
 10
-169.005
 20
75.835400000000007
 30
0.0
 70
    32
  0
VERTEX
  5
434D
  8
0
 62
     2
 10
-169.02799999999999
 20
75.844599999999986
 30
0.0
 70
    32
  0
VERTEX
  5
434E
  8
0
 62
     2
 10
-169.05099999999999
 20
75.853499999999997
 30
0.0
 70
    32
  0
VERTEX
  5
434F
  8
0
 62
     2
 10
-169.07499999999999
 20
75.861999999999995
 30
0.0
 70
    32
  0
VERTEX
  5
4350
  8
0
 62
     2
 10
-169.09800000000001
 20
75.870199999999997
 30
0.0
 70
    32
  0
VERTEX
  5
4351
  8
0
 62
     2
 10
-169.12100000000001
 20
75.878
 30
0.0
 70
    32
  0
VERTEX
  5
4352
  8
0
 62
     2
 10
-169.14400000000001
 20
75.885499999999993
 30
0.0
 70
    32
  0
VERTEX
  5
4353
  8
0
 62
     2
 10
-169.167
 20
75.892600000000002
 30
0.0
 70
    32
  0
VERTEX
  5
4354
  8
0
 62
     2
 10
-169.19
 20
75.899199999999993
 30
0.0
 70
    32
  0
VERTEX
  5
4355
  8
0
 62
     2
 10
-169.21299999999999
 20
75.905500000000004
 30
0.0
 70
    32
  0
VERTEX
  5
4356
  8
0
 62
     2
 10
-169.23599999999999
 20
75.911199999999994
 30
0.0
 70
    32
  0
VERTEX
  5
4357
  8
0
 62
     2
 10
-169.2579999999999
 20
75.916499999999999
 30
0.0
 70
    32
  0
VERTEX
  5
4358
  8
0
 62
     2
 10
-169.28099999999989
 20
75.921300000000002
 30
0.0
 70
    32
  0
VERTEX
  5
4359
  8
0
 62
     2
 10
-169.304
 20
75.9255
 30
0.0
 70
    32
  0
VERTEX
  5
435A
  8
0
 62
     2
 10
-169.32599999999999
 20
75.929199999999994
 30
0.0
 70
    32
  0
VERTEX
  5
435B
  8
0
 62
     2
 10
-169.34899999999999
 20
75.932400000000001
 30
0.0
 70
    32
  0
VERTEX
  5
435C
  8
0
 62
     2
 10
-169.37100000000001
 20
75.934899999999999
 30
0.0
 70
    32
  0
VERTEX
  5
435D
  8
0
 62
     2
 10
-169.39400000000001
 20
75.936899999999994
 30
0.0
 70
    32
  0
VERTEX
  5
435E
  8
0
 62
     2
 10
-169.416
 20
75.938199999999995
 30
0.0
 70
    32
  0
VERTEX
  5
435F
  8
0
 62
     2
 10
-169.43799999999999
 20
75.938900000000004
 30
0.0
 70
    32
  0
VERTEX
  5
4360
  8
0
 62
     2
 10
-169.46000000000001
 20
75.938900000000004
 30
0.0
 70
    32
  0
VERTEX
  5
4361
  8
0
 62
     2
 10
-169.483
 20
75.938299999999998
 30
0.0
 70
    32
  0
VERTEX
  5
4362
  8
0
 62
     2
 10
-169.505
 20
75.936899999999994
 30
0.0
 70
    32
  0
VERTEX
  5
4363
  8
0
 62
     2
 10
-169.52699999999999
 20
75.934799999999996
 30
0.0
 70
    32
  0
VERTEX
  5
4364
  8
0
 62
     2
 10
-169.54900000000001
 20
75.932000000000002
 30
0.0
 70
    32
  0
VERTEX
  5
4365
  8
0
 62
     2
 10
-169.56999999999999
 20
75.928399999999996
 30
0.0
 70
    32
  0
VERTEX
  5
4366
  8
0
 62
     2
 10
-169.59200000000001
 20
75.924199999999999
 30
0.0
 70
    32
  0
VERTEX
  5
4367
  8
0
 62
     2
 10
-169.614
 20
75.919399999999996
 30
0.0
 70
    32
  0
VERTEX
  5
4368
  8
0
 62
     2
 10
-169.636
 20
75.913899999999998
 30
0.0
 70
    32
  0
VERTEX
  5
4369
  8
0
 62
     2
 10
-169.65700000000001
 20
75.907700000000006
 30
0.0
 70
    32
  0
VERTEX
  5
436A
  8
0
 62
     2
 10
-169.679
 20
75.900899999999993
 30
0.0
 70
    32
  0
VERTEX
  5
436B
  8
0
 62
     2
 10
-169.69999999999999
 20
75.893500000000003
 30
0.0
 70
    32
  0
VERTEX
  5
436C
  8
0
 62
     2
 10
-169.72200000000001
 20
75.885499999999993
 30
0.0
 70
    32
  0
VERTEX
  5
436D
  8
0
 62
     2
 10
-169.74299999999999
 20
75.876999999999995
 30
0.0
 70
    32
  0
VERTEX
  5
436E
  8
0
 62
     2
 10
-169.76400000000001
 20
75.867900000000006
 30
0.0
 70
    32
  0
VERTEX
  5
436F
  8
0
 62
     2
 10
-169.78599999999989
 20
75.858199999999997
 30
0.0
 70
    32
  0
VERTEX
  5
4370
  8
0
 62
     2
 10
-169.80699999999999
 20
75.847999999999999
 30
0.0
 70
    32
  0
VERTEX
  5
4371
  8
0
 62
     2
 10
-169.828
 20
75.837299999999999
 30
0.0
 70
    32
  0
VERTEX
  5
4372
  8
0
 62
     2
 10
-169.84899999999999
 20
75.826099999999997
 30
0.0
 70
    32
  0
VERTEX
  5
4373
  8
0
 62
     2
 10
-169.87
 20
75.814400000000006
 30
0.0
 70
    32
  0
VERTEX
  5
4374
  8
0
 62
     2
 10
-169.89099999999999
 20
75.802199999999999
 30
0.0
 70
    32
  0
VERTEX
  5
4375
  8
0
 62
     2
 10
-169.91200000000001
 20
75.789599999999993
 30
0.0
 70
    32
  0
VERTEX
  5
4376
  8
0
 62
     2
 10
-169.93299999999999
 20
75.776600000000002
 30
0.0
 70
    32
  0
VERTEX
  5
4377
  8
0
 62
     2
 10
-169.95400000000001
 20
75.763099999999994
 30
0.0
 70
    32
  0
VERTEX
  5
4378
  8
0
 62
     2
 10
-169.97499999999999
 20
75.749300000000005
 30
0.0
 70
    32
  0
VERTEX
  5
4379
  8
0
 62
     2
 10
-169.995
 20
75.734999999999999
 30
0.0
 70
    32
  0
VERTEX
  5
437A
  8
0
 62
     2
 10
-170.01599999999999
 20
75.720399999999998
 30
0.0
 70
    32
  0
VERTEX
  5
437B
  8
0
 62
     2
 10
-170.03700000000001
 20
75.705399999999997
 30
0.0
 70
    32
  0
VERTEX
  5
437C
  8
0
 62
     2
 10
-170.05799999999999
 20
75.690100000000001
 30
0.0
 70
    32
  0
VERTEX
  5
437D
  8
0
 62
     2
 10
-170.078
 20
75.674400000000006
 30
0.0
 70
    32
  0
VERTEX
  5
437E
  8
0
 62
     2
 10
-170.09899999999999
 20
75.658500000000004
 30
0.0
 70
    32
  0
VERTEX
  5
437F
  8
0
 62
     2
 10
-170.12
 20
75.642200000000003
 30
0.0
 70
    32
  0
VERTEX
  5
4380
  8
0
 62
     2
 10
-170.13999999999999
 20
75.625600000000006
 30
0.0
 70
    32
  0
VERTEX
  5
4381
  8
0
 62
     2
 10
-170.161
 20
75.608800000000002
 30
0.0
 70
    32
  0
VERTEX
  5
4382
  8
0
 62
     2
 10
-170.18100000000001
 20
75.591800000000006
 30
0.0
 70
    32
  0
VERTEX
  5
4383
  8
0
 62
     2
 10
-170.202
 20
75.5745
 30
0.0
 70
    32
  0
VERTEX
  5
4384
  8
0
 62
     2
 10
-170.22200000000001
 20
75.557000000000002
 30
0.0
 70
    32
  0
VERTEX
  5
4385
  8
0
 62
     2
 10
-170.24299999999999
 20
75.539299999999997
 30
0.0
 70
    32
  0
VERTEX
  5
4386
  8
0
 62
     2
 10
-170.26300000000001
 20
75.5214
 30
0.0
 70
    32
  0
VERTEX
  5
4387
  8
0
 62
     2
 10
-170.28399999999999
 20
75.503299999999996
 30
0.0
 70
    32
  0
VERTEX
  5
4388
  8
0
 62
     2
 10
-170.304
 20
75.485100000000003
 30
0.0
 70
    32
  0
VERTEX
  5
4389
  8
0
 62
     2
 10
-170.32400000000001
 20
75.466700000000003
 30
0.0
 70
    32
  0
VERTEX
  5
438A
  8
0
 62
     2
 10
-170.345
 20
75.4482
 30
0.0
 70
    32
  0
VERTEX
  5
438B
  8
0
 62
     2
 10
-170.36500000000001
 20
75.429599999999994
 30
0.0
 70
    32
  0
VERTEX
  5
438C
  8
0
 62
     2
 10
-170.38499999999999
 20
75.411000000000001
 30
0.0
 70
    32
  0
VERTEX
  5
438D
  8
0
 62
     2
 10
-170.40600000000001
 20
75.392200000000003
 30
0.0
 70
    32
  0
VERTEX
  5
438E
  8
0
 62
     2
 10
-170.42599999999999
 20
75.373400000000004
 30
0.0
 70
    32
  0
VERTEX
  5
438F
  8
0
 62
     2
 10
-170.447
 20
75.354500000000002
 30
0.0
 70
    32
  0
VERTEX
  5
4390
  8
0
 62
     2
 10
-170.46700000000001
 20
75.335599999999999
 30
0.0
 70
    32
  0
VERTEX
  5
4391
  8
0
 62
     2
 10
-170.48699999999999
 20
75.316599999999994
 30
0.0
 70
    32
  0
SEQEND
  5
4392
  8
0
 62
     2
  0
ARC
  5
3D1D
  8
0
  6
CONTINUOUS
 62
     7
 10
-178.38722535440331
 20
62.860901053808568
 30
0.0
 40
1.0
 50
90.0
 51
180.0
  0
ARC
  5
3D1E
  8
0
  6
CONTINUOUS
 62
     7
 10
-157.48722535440359
 20
62.860901053808568
 30
0.0
 40
1.0
 50
0.0
 51
90.0
  0
ARC
  5
3D1F
  8
0
  6
CONTINUOUS
 62
     7
 10
-150.93722535440341
 20
60.494942298044521
 30
0.0
 40
1.0
 50
0.0
 51
23.198590513628311
  0
ARC
  5
3D20
  8
0
  6
CONTINUOUS
 62
     7
 10
-184.93722535440341
 20
60.494942298044521
 30
0.0
 40
1.000000000000439
 50
156.80140948637171
 51
180.0
  0
ARC
  5
3D21
  8
0
  6
CONTINUOUS
 62
     7
 10
-153.59662151238459
 20
66.700199999998503
 30
0.0
 40
1.000000000000516
 50
23.198590513626389
 51
90.0
  0
ARC
  5
3D22
  8
0
  6
CONTINUOUS
 62
     7
 10
-182.2778291964234
 20
66.700199999998503
 30
0.0
 40
1.0
 50
90.0
 51
156.80140948635179
  0
ARC
  5
3D23
  8
0
  6
CONTINUOUS
 62
     7
 10
-189.93722535440341
 20
51.000199999998699
 30
0.0
 40
4.0
 50
90.0
 51
180.0
  0
ARC
  5
3D24
  8
0
  6
CONTINUOUS
 62
     7
 10
-203.93722535440349
 20
37.000199999998692
 30
0.0
 40
4.0
 50
90.0
 51
180.0
  0
ARC
  5
3D25
  8
0
  6
CONTINUOUS
 62
     7
 10
-189.93722535440341
 20
-20.999800000001329
 30
0.0
 40
4.0
 50
180.0
 51
270.0
  0
ARC
  5
3D26
  8
0
  6
CONTINUOUS
 62
     7
 10
-131.93722535440341
 20
-6.9998000000012972
 30
0.0
 40
4.0
 50
270.0
 51
0.0
  0
ARC
  5
3D27
  8
0
  6
CONTINUOUS
 62
     7
 10
-134.43722535440349
 20
48.500199999998692
 30
0.0
 40
7.5
 50
180.0
 51
270.0
  0
ARC
  5
3D28
  8
0
  6
CONTINUOUS
 62
     7
 10
-201.43722535440341
 20
48.500199999998692
 30
0.0
 40
7.5
 50
270.0
 51
0.0
  0
ARC
  5
3D29
  8
0
  6
CONTINUOUS
 62
     7
 10
-201.43722535440341
 20
-18.499800000001301
 30
0.0
 40
7.5
 50
0.0
 51
90.0
  0
ARC
  5
3D2A
  8
0
  6
CONTINUOUS
 62
     7
 10
-134.43722535440349
 20
-18.499800000001301
 30
0.0
 40
7.5
 50
90.0
 51
180.0
  0
ARC
  5
3D2B
  8
0
  6
CONTINUOUS
 62
     7
 10
-134.43722535440349
 20
48.500199999998692
 30
0.0
 40
7.5
 50
180.0
 51
270.0
  0
ARC
  5
3D2C
  8
0
  6
CONTINUOUS
 62
     7
 10
-145.93722535440341
 20
51.000199999998699
 30
0.0
 40
4.0
 50
0.0
 51
90.0
  0
ARC
  5
3D2D
  8
0
  6
CONTINUOUS
 62
     7
 10
-134.43722535440349
 20
48.500199999998692
 30
0.0
 40
7.5
 50
180.0
 51
270.0
  0
ARC
  5
3D2E
  8
0
  6
CONTINUOUS
 62
     7
 10
-131.93722535440341
 20
-6.9998000000012972
 30
0.0
 40
4.0
 50
270.0
 51
0.0
  0
ARC
  5
3D2F
  8
0
  6
CONTINUOUS
 62
     7
 10
-145.93722535440341
 20
-20.999800000001329
 30
0.0
 40
4.0
 50
270.0
 51
0.0
  0
ARC
  5
3D30
  8
0
  6
CONTINUOUS
 62
     7
 10
-134.43722535440349
 20
-18.499800000001301
 30
0.0
 40
7.5
 50
90.0
 51
180.0
  0
ARC
  5
3D31
  8
0
  6
CONTINUOUS
 62
     7
 10
-145.93722535440341
 20
-20.999800000001329
 30
0.0
 40
4.0
 50
270.0
 51
0.0
  0
ARC
  5
3D32
  8
0
  6
CONTINUOUS
 62
     7
 10
-131.93722535440341
 20
-6.9998000000012972
 30
0.0
 40
4.0
 50
270.0
 51
0.0
  0
ARC
  5
3D33
  8
0
  6
CONTINUOUS
 62
     7
 10
-134.43722535440349
 20
-18.499800000001301
 30
0.0
 40
7.5
 50
90.0
 51
180.0
  0
ARC
  5
3D34
  8
0
  6
CONTINUOUS
 62
     7
 10
-189.93722535440341
 20
-20.999800000001329
 30
0.0
 40
4.0
 50
180.0
 51
270.0
  0
ARC
  5
3D35
  8
0
  6
CONTINUOUS
 62
     7
 10
-203.93722535440349
 20
-6.9998000000012972
 30
0.0
 40
4.0
 50
180.0
 51
270.0
  0
ARC
  5
3D36
  8
0
  6
CONTINUOUS
 62
     7
 10
-203.93722535440349
 20
37.000199999998692
 30
0.0
 40
4.0
 50
90.0
 51
180.0
  0
ARC
  5
3D37
  8
0
  6
CONTINUOUS
 62
     7
 10
-189.93722535440341
 20
51.000199999998699
 30
0.0
 40
4.0
 50
90.0
 51
180.0
  0
ARC
  5
3D38
  8
0
  6
CONTINUOUS
 62
     7
 10
-201.43722535440341
 20
-18.499800000001301
 30
0.0
 40
7.5
 50
0.0
 51
90.0
  0
ARC
  5
3D39
  8
0
  6
CONTINUOUS
 62
     7
 10
-201.43722535440341
 20
48.500199999998692
 30
0.0
 40
7.5
 50
270.0
 51
0.0
  0
ARC
  5
3D3A
  8
0
  6
CONTINUOUS
 62
     7
 10
-189.93722535440341
 20
51.000199999998699
 30
0.0
 40
4.0
 50
90.0
 51
180.0
  0
ARC
  5
3D3B
  8
0
  6
CONTINUOUS
 62
     7
 10
-203.93722535440349
 20
37.000199999998692
 30
0.0
 40
4.0
 50
90.0
 51
180.0
  0
ARC
  5
3D3C
  8
0
  6
CONTINUOUS
 62
     7
 10
-203.93722535440349
 20
-6.9998000000012972
 30
0.0
 40
4.0
 50
180.0
 51
270.0
  0
ARC
  5
3D3D
  8
0
  6
CONTINUOUS
 62
     7
 10
-189.93722535440341
 20
-20.999800000001329
 30
0.0
 40
4.0
 50
180.0
 51
270.0
  0
ARC
  5
3D3E
  8
0
  6
CONTINUOUS
 62
     7
 10
-201.43722535440341
 20
48.500199999998692
 30
0.0
 40
7.5
 50
270.0
 51
0.0
  0
ARC
  5
3D3F
  8
0
  6
CONTINUOUS
 62
     7
 10
-201.43722535440341
 20
-18.499800000001301
 30
0.0
 40
7.5
 50
0.0
 51
90.0
  0
ARC
  5
3D40
  8
0
  6
CONTINUOUS
 62
     7
 10
-159.3357017394257
 20
64.980987482143149
 30
0.0
 40
1.0000000000003151
 50
36.336659136464192
 51
90.0
  0
ARC
  5
3D41
  8
0
  6
CONTINUOUS
 62
     7
 10
-176.53874896938231
 20
64.980987482143149
 30
0.0
 40
1.0
 50
90.0
 51
143.663340863532
  0
ARC
  5
3D42
  8
0
  6
CONTINUOUS
 62
     7
 10
-201.93722535440349
 20
-18.999800000001301
 30
0.0
 40
6.0
 50
180.0
 51
270.0
  0
ARC
  5
3D43
  8
0
  6
CONTINUOUS
 62
     7
 10
-133.93722535440341
 20
-18.999800000001301
 30
0.0
 40
6.0000000000000258
 50
270.0
 51
0.0
  0
ARC
  5
3D44
  8
0
  6
CONTINUOUS
 62
     7
 10
-133.93722535440341
 20
49.000199999998699
 30
0.0
 40
6.0
 50
0.0
 51
90.0
  0
ARC
  5
3D45
  8
0
  6
CONTINUOUS
 62
     7
 10
-201.93722535440349
 20
49.000199999998699
 30
0.0
 40
6.0
 50
90.0
 51
180.0
  0
ARC
  5
3D46
  8
0
  6
CONTINUOUS
 62
     7
 10
-182.2778291964234
 20
66.700199999998503
 30
0.0
 40
1.0
 50
90.0
 51
156.80140948635179
  0
ARC
  5
3D47
  8
0
  6
CONTINUOUS
 62
     7
 10
-153.59662151238459
 20
66.700199999998503
 30
0.0
 40
1.000000000000516
 50
23.198590513626389
 51
90.0
  0
ARC
  5
3D48
  8
0
  6
CONTINUOUS
 62
     7
 10
-184.93722535440341
 20
60.494942298044521
 30
0.0
 40
1.000000000000439
 50
156.80140948637171
 51
180.0
  0
ARC
  5
3D49
  8
0
  6
CONTINUOUS
 62
     7
 10
-150.93722535440341
 20
60.494942298044521
 30
0.0
 40
1.0
 50
0.0
 51
23.198590513628311
  0
ARC
  5
3D4A
  8
0
  6
CONTINUOUS
 62
     7
 10
-131.93722535440341
 20
37.000199999998692
 30
0.0
 40
4.0
 50
0.0
 51
90.0
  0
ARC
  5
3D4B
  8
0
  6
CONTINUOUS
 62
     7
 10
-131.93722535440341
 20
37.000199999998692
 30
0.0
 40
4.0
 50
0.0
 51
90.0
  0
LINE
  5
3D7C
  8
0
  6
DASH_CENTER
 62
     1
 10
60.915479265050237
 20
-6.4997999999994791
 30
0.0
 11
51.275479265054457
 21
-6.4997999999994791
 31
0.0
  0
LINE
  5
3D7D
  8
0
  6
CONTINUOUS
 62
     7
 10
53.775479265049889
 20
-2.4997999999994791
 30
0.0
 11
54.41547926505023
 21
-2.4997999999994791
 31
0.0
  0
LINE
  5
3D7E
  8
0
  6
CONTINUOUS
 62
     7
 10
54.41547926505023
 20
-2.4997999999994791
 30
0.0
 11
54.41547926505023
 21
-10.49979999999948
 31
0.0
  0
LINE
  5
3D7F
  8
0
  6
CONTINUOUS
 62
     7
 10
54.41547926505023
 20
-10.49979999999948
 30
0.0
 11
53.775479265049889
 21
-10.49979999999948
 31
0.0
  0
LINE
  5
3D80
  8
0
  6
CONTINUOUS
 62
     7
 10
58.875479265051183
 20
-2.2497999999985678
 30
0.0
 11
53.775479265049889
 21
-2.2497999999985678
 31
0.0
  0
LINE
  5
3D81
  8
0
  6
CONTINUOUS
 62
     7
 10
53.775479265049889
 20
-2.2497999999985678
 30
0.0
 11
53.775479265049889
 21
-10.74979999999857
 31
0.0
  0
LINE
  5
3D82
  8
0
  6
CONTINUOUS
 62
     7
 10
53.775479265049889
 20
-10.74979999999857
 30
0.0
 11
58.875479265051183
 21
-10.74979999999857
 31
0.0
  0
LINE
  5
3D83
  8
0
  6
CONTINUOUS
 62
     7
 10
54.41547926505023
 20
-2.99979999999948
 30
0.0
 11
58.065479265049888
 21
-2.99979999999948
 31
0.0
  0
LINE
  5
3D84
  8
0
  6
CONTINUOUS
 62
     7
 10
58.065479265049888
 20
-9.9997999999994782
 30
0.0
 11
58.065479265049888
 21
-2.99979999999948
 31
0.0
  0
LINE
  5
3D85
  8
0
  6
CONTINUOUS
 62
     7
 10
58.415479265050237
 20
-3.3497999999988801
 30
0.0
 11
58.415479265050237
 21
-9.6497999999991197
 31
0.0
  0
LINE
  5
3D86
  8
0
  6
CONTINUOUS
 62
     7
 10
58.415479265050237
 20
-3.3497999999988801
 30
0.0
 11
58.065479265049888
 21
-2.99979999999948
 31
0.0
  0
LINE
  5
3D87
  8
0
  6
CONTINUOUS
 62
     7
 10
58.065479265049888
 20
-9.9997999999994782
 30
0.0
 11
54.41547926505023
 21
-9.9997999999994782
 31
0.0
  0
LINE
  5
3D88
  8
0
  6
CONTINUOUS
 62
     7
 10
58.065479265049888
 20
-9.9997999999994782
 30
0.0
 11
58.415479265050237
 21
-9.6497999999991197
 31
0.0
  0
LINE
  5
3D89
  8
0
  6
DASH_CENTER
 62
     1
 10
51.275479265054457
 20
36.500200000000532
 30
0.0
 11
60.915479265050237
 21
36.500200000000532
 31
0.0
  0
LINE
  5
3D8A
  8
0
  6
CONTINUOUS
 62
     7
 10
58.415479265050237
 20
39.650200000000147
 30
0.0
 11
58.065479265049888
 21
40.000200000000518
 31
0.0
  0
LINE
  5
3D8B
  8
0
  6
CONTINUOUS
 62
     7
 10
54.41547926505023
 20
40.000200000000518
 30
0.0
 11
58.065479265049888
 21
40.000200000000518
 31
0.0
  0
LINE
  5
3D8C
  8
0
  6
CONTINUOUS
 62
     7
 10
58.065479265049888
 20
33.000200000000518
 30
0.0
 11
58.415479265050237
 21
33.350199999999923
 31
0.0
  0
LINE
  5
3D8D
  8
0
  6
CONTINUOUS
 62
     7
 10
58.415479265050237
 20
39.650200000000147
 30
0.0
 11
58.415479265050237
 21
33.350199999999923
 31
0.0
  0
LINE
  5
3D8E
  8
0
  6
CONTINUOUS
 62
     7
 10
58.065479265049888
 20
33.000200000000518
 30
0.0
 11
58.065479265049888
 21
40.000200000000518
 31
0.0
  0
LINE
  5
3D8F
  8
0
  6
CONTINUOUS
 62
     7
 10
58.065479265049888
 20
33.000200000000518
 30
0.0
 11
54.41547926505023
 21
33.000200000000518
 31
0.0
  0
LINE
  5
3D90
  8
0
  6
CONTINUOUS
 62
     7
 10
58.875479265051183
 20
40.750199999999609
 30
0.0
 11
53.775479265049889
 21
40.750199999999609
 31
0.0
  0
LINE
  5
3D91
  8
0
  6
CONTINUOUS
 62
     7
 10
53.775479265049889
 20
40.750199999999609
 30
0.0
 11
53.775479265049889
 21
32.250199999999609
 31
0.0
  0
LINE
  5
3D92
  8
0
  6
CONTINUOUS
 62
     7
 10
53.775479265049889
 20
32.250199999999609
 30
0.0
 11
58.875479265051183
 21
32.250199999999609
 31
0.0
  0
LINE
  5
3D93
  8
0
  6
CONTINUOUS
 62
     7
 10
53.775479265049889
 20
40.500200000000518
 30
0.0
 11
54.41547926505023
 21
40.500200000000518
 31
0.0
  0
LINE
  5
3D94
  8
0
  6
CONTINUOUS
 62
     7
 10
54.41547926505023
 20
40.500200000000518
 30
0.0
 11
54.41547926505023
 21
32.500200000000518
 31
0.0
  0
LINE
  5
3D95
  8
0
  6
CONTINUOUS
 62
     7
 10
54.41547926505023
 20
32.500200000000518
 30
0.0
 11
53.775479265049889
 21
32.500200000000518
 31
0.0
  0
LINE
  5
3D96
  8
0
  6
CONTINUOUS
 62
     7
 10
50.875479265050281
 20
-10.99979999999948
 30
0.0
 11
50.875479265050281
 21
-24.999799999999539
 31
0.0
  0
LINE
  5
3D97
  8
0
  6
CONTINUOUS
 62
     7
 10
-36.82440542265406
 20
41.000200000000532
 30
0.0
 11
-78.824520734948777
 21
41.000200000000532
 31
0.0
  0
LINE
  5
3D98
  8
0
  6
CONTINUOUS
 62
     7
 10
-79.464520734952771
 20
33.587081039376358
 30
0.0
 11
-79.464520734952771
 21
40.500200000000518
 31
0.0
  0
LINE
  5
3D99
  8
0
  6
CONTINUOUS
 62
     7
 10
-79.824520734948777
 20
-23.999799999999539
 30
0.0
 11
-79.824520734948777
 21
-24.999799999999539
 31
0.0
  0
LINE
  5
3D9A
  8
0
  6
CONTINUOUS
 62
     7
 10
-79.824520734948777
 20
33.000200000000518
 30
0.0
 11
-79.824520734948777
 21
-16.999800000000391
 31
0.0
  0
LINE
  5
3D9B
  8
0
  6
CONTINUOUS
 62
     7
 10
-79.824520734948777
 20
32.800302764550374
 30
0.0
 11
-79.824520734948777
 21
-4.9997999999994791
 31
0.0
  0
LINE
  5
3D9C
  8
0
  6
DASH_CENTER
 62
     1
 10
-10.82452073494971
 20
59.450200000000351
 30
0.0
 11
-8.2952265329931816
 21
59.450200000000351
 31
0.0
  0
LINE
  5
3D9D
  8
0
  6
CONTINUOUS
 62
     7
 10
-8.3245207349497097
 20
56.0502000000007
 30
0.0
 11
-7.5253511137947671
 21
56.0502000000007
 31
0.0
  0
LINE
  5
3D9E
  8
0
  6
CONTINUOUS
 62
     7
 10
-8.3245207349497097
 20
62.850199999999973
 30
0.0
 11
-7.5245207349495189
 21
62.850199999999973
 31
0.0
  0
LINE
  5
3D9F
  8
0
  6
CONTINUOUS
 62
     7
 10
-1.524520734949518
 20
103.3993526153272
 30
0.0
 11
-1.524520734949518
 21
86.775940570291013
 31
0.0
  0
LINE
  5
3DA0
  8
0
  6
CONTINUOUS
 62
     7
 10
-2.0251845140188589
 20
103.3993526153272
 30
0.0
 11
5.774815486034079
 21
103.3993526153273
 31
0.0
  0
LINE
  5
3DA1
  8
0
  6
CONTINUOUS
 62
     7
 10
-2.0251845140179401
 20
106.6493526153273
 30
0.0
 11
-2.0251845140188589
 21
103.3993526153272
 31
0.0
  0
LINE
  5
3DA2
  8
0
  6
CONTINUOUS
 62
     7
 10
5.774815486034079
 20
106.6493526153273
 30
0.0
 11
5.774815486034079
 21
103.3993526153273
 31
0.0
  0
LINE
  5
3DA3
  8
0
  6
CONTINUOUS
 62
     7
 10
-0.62521017222263
 20
110.6493526153272
 30
0.0
 11
4.37478982777737
 21
110.6493526153273
 31
0.0
  0
LINE
  5
3DA4
  8
0
  6
CONTINUOUS
 62
     7
 10
-0.62521017222263
 20
108.1493526153273
 30
0.0
 11
-2.0251845140179401
 21
106.6493526153273
 31
0.0
  0
LINE
  5
3DA5
  8
0
  6
CONTINUOUS
 62
     7
 10
4.37478982777737
 20
108.1493526153273
 30
0.0
 11
4.37478982777737
 21
110.6493526153273
 31
0.0
  0
LINE
  5
3DA6
  8
0
  6
CONTINUOUS
 62
     7
 10
4.37478982777737
 20
108.1493526153273
 30
0.0
 11
5.774815486034079
 21
106.6493526153273
 31
0.0
  0
LINE
  5
3DA7
  8
0
  6
CONTINUOUS
 62
     7
 10
-0.62521017222263
 20
110.6493526153272
 30
0.0
 11
-0.62521017222263
 21
108.1493526153273
 31
0.0
  0
LINE
  5
3DA8
  8
0
  6
CONTINUOUS
 62
     7
 10
5.2746488862052301
 20
86.775940570291013
 30
0.0
 11
5.2746488862052301
 21
103.3993526153272
 31
0.0
  0
LINE
  5
3DA9
  8
0
  6
CONTINUOUS
 62
     7
 10
3.87478982777737
 20
117.39508102149929
 30
0.0
 11
3.87478982777737
 21
110.6493526153273
 31
0.0
  0
LINE
  5
3DAA
  8
0
  6
CONTINUOUS
 62
     7
 10
2.624739827776819
 20
117.395103185506
 30
0.0
 11
2.624739827776819
 21
110.6493526153273
 31
0.0
  0
LINE
  5
3DAB
  8
0
  6
CONTINUOUS
 62
     7
 10
1.12478982777737
 20
117.3951297803643
 30
0.0
 11
1.12478982777737
 21
110.6493526153273
 31
0.0
  0
LINE
  5
3DAC
  8
0
  6
CONTINUOUS
 62
     7
 10
-0.12521017222263
 20
117.39515194348419
 30
0.0
 11
-0.12521017222263
 21
110.6493526153272
 31
0.0
  0
LINE
  5
3DAD
  8
0
  6
DASH_CENTER
 62
     1
 10
1.50477346700682
 20
143.5954845538246
 30
0.0
 11
1.50477346700682
 21
69.250200000000305
 31
0.0
  0
LINE
  5
3DAE
  8
0
  6
CONTINUOUS
 62
     7
 10
-1.524520734949518
 20
68.850199999999973
 30
0.0
 11
-1.524520734949518
 21
85.262312314853375
 31
0.0
  0
LINE
  5
3DAF
  8
0
  6
CONTINUOUS
 62
     7
 10
5.2746488862052301
 20
68.850200000000711
 30
0.0
 11
5.2746488862052301
 21
85.262312314853375
 31
0.0
  0
LINE
  5
3DB1
  8
0
  6
CONTINUOUS
 62
     7
 10
-4.0247136308731779
 20
118.3915021325969
 30
0.0
 11
-11.82027373690528
 21
126.1870622386279
 31
0.0
  0
LINE
  5
3DB2
  8
0
  6
CONTINUOUS
 62
     7
 10
-17.371168340137618
 20
136.54607021209191
 30
0.0
 11
-9.4162170517871608
 21
128.5911189237442
 31
0.0
  0
LINE
  5
3DB3
  8
0
  6
CONTINUOUS
 62
     7
 10
-26.599178433526159
 20
131.91425419641391
 30
0.0
 11
-19.669265378992002
 21
138.84416725094809
 31
0.0
  0
LINE
  5
3DB4
  8
0
  6
CONTINUOUS
 62
     7
 10
-29.533958483922689
 20
141.99023891985061
 30
0.0
 11
-23.028576097005161
 21
135.4848565329377
 31
0.0
  0
LINE
  5
3DB5
  8
0
  6
CONTINUOUS
 62
     7
 10
-32.397454039257042
 20
139.12674336451801
 30
0.0
 11
-25.892071652341329
 21
132.62136097759961
 31
0.0
  0
LINE
  5
3DB6
  8
0
  6
CONTINUOUS
 62
     7
 10
-23.416973588544
 20
135.09645904139609
 30
0.0
 11
-29.922355975461532
 21
141.6018414283127
 31
0.0
  0
LINE
  5
3DB7
  8
0
  6
CONTINUOUS
 62
     7
 10
-29.922355975461532
 20
141.6018414283127
 30
0.0
 11
-32.397454039257042
 21
139.12674336451801
 31
0.0
  0
LINE
  5
3DB8
  8
0
  6
CONTINUOUS
 62
     7
 10
-17.053236887508891
 20
122.3683126503967
 30
0.0
 11
-26.599178433526159
 21
131.91425419641391
 31
0.0
  0
LINE
  5
3DB9
  8
0
  6
CONTINUOUS
 62
     7
 10
-17.760368052612311
 20
121.6611814852923
 30
0.0
 11
-17.05326127142655
 21
120.95407470410569
 31
0.0
  0
LINE
  5
3DBA
  8
0
  6
CONTINUOUS
 62
     7
 10
-10.830430614581591
 20
128.59111892332211
 30
0.0
 11
-10.12315802366321
 21
127.8838951091567
 31
0.0
  0
LINE
  5
3DBB
  8
0
  6
CONTINUOUS
 62
     7
 10
-10.830430614581591
 20
128.59111892332211
 30
0.0
 11
-10.123323833394011
 21
127.88401214213729
 31
0.0
  0
LINE
  5
3DBC
  8
0
  6
CONTINUOUS
 62
     7
 10
-12.244644176534729
 20
134.9550799544223
 30
0.0
 11
-16.326201633417998
 21
137.7807735784219
 31
0.0
  0
LINE
  5
3DBD
  8
0
  6
CONTINUOUS
 62
     7
 10
-17.371168340137618
 20
137.6067303838737
 30
0.0
 11
-17.283439203432511
 21
137.69445952057609
 31
0.0
  0
LINE
  5
3DBE
  8
0
  6
CONTINUOUS
 62
     7
 10
-12.36161635880727
 20
136.25232133452221
 30
0.0
 11
-17.375646261766271
 21
139.72357280580141
 31
0.0
  0
LINE
  5
3DBF
  8
0
  6
CONTINUOUS
 62
     7
 10
-17.375646261766271
 20
139.72357280580141
 30
0.0
 11
-17.90149842602716
 21
139.1977206415423
 31
0.0
  0
LINE
  5
3DC0
  8
0
  6
CONTINUOUS
 62
     7
 10
-12.244644176534729
 20
134.9550799544223
 30
0.0
 11
-11.36076070005004
 21
135.83896343090521
 31
0.0
  0
LINE
  5
3DC1
  8
0
  6
CONTINUOUS
 62
     7
 10
-12.06786748123851
 20
136.54607021209191
 30
0.0
 11
-12.36161635880727
 21
136.25232133452221
 31
0.0
  0
LINE
  5
3DC2
  8
0
  6
CONTINUOUS
 62
     7
 10
-11.36076070005004
 20
135.83896343090521
 30
0.0
 11
-12.06786748123851
 21
136.54607021209191
 31
0.0
  0
LINE
  5
3DC3
  8
0
  6
CONTINUOUS
 62
     7
 10
-20.846897733045449
 20
141.90917558401441
 30
0.0
 11
-18.020905919900208
 21
139.08318377087119
 31
0.0
  0
LINE
  5
3DC4
  8
0
  6
CONTINUOUS
 62
     7
 10
-21.554004514231242
 20
141.20206880283069
 30
0.0
 11
-20.846897733045449
 21
141.90917558401441
 31
0.0
  0
LINE
  5
3DC5
  8
0
  6
CONTINUOUS
 62
     7
 10
-21.554004514231242
 20
141.20206880283069
 30
0.0
 11
-22.084334600122599
 21
141.7323988887193
 31
0.0
  0
LINE
  5
3DC6
  8
0
  6
CONTINUOUS
 62
     7
 10
-14.93194092786654
 20
124.48960861003719
 30
0.0
 11
-14.22483414667988
 21
123.7825018288523
 31
0.0
  0
LINE
  5
3DC7
  8
0
  6
CONTINUOUS
 62
     7
 10
-17.760368052612311
 20
121.6611814852923
 30
0.0
 11
-14.93194092786654
 21
124.48960861003719
 31
0.0
  0
LINE
  5
3DC8
  8
0
  6
CONTINUOUS
 62
     7
 10
-12.244595409119601
 20
127.176856594797
 30
0.0
 11
-11.53732281820213
 21
126.4696327806279
 31
0.0
  0
LINE
  5
3DC9
  8
0
  6
CONTINUOUS
 62
     7
 10
-12.244644177795291
 20
127.1769053601103
 30
0.0
 11
-10.830430614581591
 21
128.59111892332211
 31
0.0
  0
LINE
  5
3DCA
  8
0
  6
CONTINUOUS
 62
     7
 10
-17.05326127142655
 20
120.95407470410569
 30
0.0
 11
-9.4162170517871608
 21
128.5911189237442
 31
0.0
  0
LINE
  5
3DCB
  8
0
  6
CONTINUOUS
 62
     7
 10
-20.55347803321057
 20
137.95995459673131
 30
0.0
 11
-27.05886042012629
 21
144.4653369836461
 31
0.0
  0
LINE
  5
3DCC
  8
0
  6
CONTINUOUS
 62
     7
 10
-27.05886042012629
 20
144.4653369836461
 30
0.0
 11
-29.533958483922689
 21
141.99023891985061
 31
0.0
  0
LINE
  5
3DCD
  8
0
  6
CONTINUOUS
 62
     7
 10
-20.670121037747439
 20
144.2072726228709
 30
0.0
 11
-21.730781209527439
 21
143.8537192322793
 31
0.0
  0
LINE
  5
3DCE
  8
0
  6
CONTINUOUS
 62
     7
 10
-22.437887990715009
 20
143.1466124510909
 30
0.0
 11
-21.730781209527439
 21
143.8537192322793
 31
0.0
  0
LINE
  5
3DCF
  8
0
  6
CONTINUOUS
 62
     7
 10
-20.670121037747439
 20
144.2072726228709
 30
0.0
 11
-13.5106648782363
 21
137.0478164633578
 31
0.0
  0
LINE
  5
3DD0
  8
0
  6
CONTINUOUS
 62
     7
 10
-22.084334600122599
 20
141.7323988887193
 30
0.0
 11
-22.437887990715009
 21
143.1466124510909
 31
0.0
  0
LINE
  5
3DD1
  8
0
  6
CONTINUOUS
 62
     7
 10
-12.88093390868527
 20
125.12640206684971
 30
0.0
 11
-0.12521017222263
 21
112.3706783303861
 31
0.0
  0
LINE
  5
3DD2
  8
0
  6
CONTINUOUS
 62
     7
 10
-13.94159408046527
 20
124.0657418950678
 30
0.0
 11
-0.52520480072291
 21
110.6493526153273
 31
0.0
  0
LINE
  5
3DD3
  8
0
  6
CONTINUOUS
 62
     7
 10
-102.6217613216246
 20
47.500200000000518
 30
0.0
 11
-105.32452073494881
 21
33.493442008907671
 31
0.0
  0
LINE
  5
3DD4
  8
0
  6
CONTINUOUS
 62
     7
 10
-102.32452073494871
 20
54.974846114650227
 30
0.0
 11
-102.32452073494871
 21
-22.22757604274992
 31
0.0
  0
LINE
  5
3DD5
  8
0
  6
CONTINUOUS
 62
     7
 10
-78.724520734948428
 20
55.000200000000518
 30
0.0
 11
-102.32452073494871
 21
55.000200000000518
 31
0.0
  0
LINE
  5
3DD6
  8
0
  6
CONTINUOUS
 62
     7
 10
-105.32452073494881
 20
-6.7914796793683081
 30
0.0
 11
-105.32452073494881
 21
57.626811994264351
 31
0.0
  0
LINE
  5
3DD7
  8
0
  6
CONTINUOUS
 62
     7
 10
-79.824520734948777
 20
55.936768003547492
 30
0.0
 11
-79.824520734948777
 21
40.000200000000518
 31
0.0
  0
LINE
  5
3DD8
  8
0
  6
CONTINUOUS
 62
     7
 10
-104.94038867036819
 20
-10.16437227984977
 30
0.0
 11
-102.37573834355921
 21
-21.777857029352941
 31
0.0
  0
LINE
  5
3DD9
  8
0
  6
CONTINUOUS
 62
     7
 10
-102.32452073494871
 20
-22.22757604274992
 30
0.0
 11
-102.32452073494871
 21
-22.999799999999539
 31
0.0
  0
LINE
  5
3DDA
  8
0
  6
CONTINUOUS
 62
     7
 10
-36.82440542265406
 20
41.000200000000532
 30
0.0
 11
50.875479265050281
 21
41.000200000000532
 31
0.0
  0
LINE
  5
3DDB
  8
0
  6
CONTINUOUS
 62
     7
 10
58.375479265050281
 20
55.000200000000518
 30
0.0
 11
58.875479265050281
 21
54.500200000000518
 31
0.0
  0
LINE
  5
3DDC
  8
0
  6
CONTINUOUS
 62
     7
 10
61.375479265050281
 20
50.000200000000518
 30
0.0
 11
61.875479265050288
 21
49.500200000000518
 31
0.0
  0
LINE
  5
3DDD
  8
0
  6
CONTINUOUS
 62
     7
 10
61.875479265050288
 20
49.500200000000518
 30
0.0
 11
61.875479265050288
 21
15.00020000000052
 31
0.0
  0
LINE
  5
3DDE
  8
0
  6
CONTINUOUS
 62
     7
 10
59.17547926505047
 20
50.000200000000518
 30
0.0
 11
61.375479265050281
 21
50.000200000000518
 31
0.0
  0
LINE
  5
3DDF
  8
0
  6
CONTINUOUS
 62
     7
 10
58.875479265050281
 20
54.500200000000518
 30
0.0
 11
58.875479265050281
 21
15.00020000000052
 31
0.0
  0
LINE
  5
3DE0
  8
0
  6
CONTINUOUS
 62
     7
 10
49.075479265051023
 20
55.000200000000518
 30
0.0
 11
49.075479265051023
 21
52.350199999999923
 31
0.0
  0
LINE
  5
3DE1
  8
0
  6
CONTINUOUS
 62
     7
 10
51.375479265050281
 20
55.000200000000518
 30
0.0
 11
58.375479265050281
 21
55.000200000000518
 31
0.0
  0
LINE
  5
3DE2
  8
0
  6
CONTINUOUS
 62
     7
 10
61.873489710427371
 20
5.50020000000052
 30
0.0
 11
65.873489710427378
 21
5.50020000000052
 31
0.0
  0
LINE
  5
3DE3
  8
0
  6
CONTINUOUS
 62
     7
 10
93.373489710427393
 20
24.500200000000518
 30
0.0
 11
61.873489710427371
 21
24.500200000000518
 31
0.0
  0
LINE
  5
3DE4
  8
0
  6
CONTINUOUS
 62
     7
 10
93.873489710427364
 20
6.00020000000052
 30
0.0
 11
93.873489710427364
 21
24.000200000000518
 31
0.0
  0
LINE
  5
3DE5
  8
0
  6
CONTINUOUS
 62
     7
 10
65.873489710427378
 20
5.50020000000052
 30
0.0
 11
93.373489710427393
 21
5.50020000000052
 31
0.0
  0
LINE
  5
3DE6
  8
0
  6
CONTINUOUS
 62
     7
 10
93.873489710427364
 20
24.000200000000518
 30
0.0
 11
93.373489710427393
 21
24.500200000000518
 31
0.0
  0
LINE
  5
3DE7
  8
0
  6
CONTINUOUS
 62
     7
 10
93.373489710427393
 20
5.50020000000052
 30
0.0
 11
93.873489710427364
 21
6.00020000000052
 31
0.0
  0
LINE
  5
3DE8
  8
0
  6
CONTINUOUS
 62
     7
 10
49.075479265051023
 20
55.000200000000518
 30
0.0
 11
49.075479265051023
 21
15.00020000000052
 31
0.0
  0
LINE
  5
3DE9
  8
0
  6
CONTINUOUS
 62
     7
 10
-78.824520734948777
 20
55.000200000000518
 30
0.0
 11
-78.824520734948777
 21
15.00020000000052
 31
0.0
  0
LINE
  5
3DEA
  8
0
  6
CONTINUOUS
 62
     7
 10
-37.824520734957979
 20
54.900200000001931
 30
0.0
 11
-37.824520734943441
 21
15.00020000000052
 31
0.0
  0
LINE
  5
3DEB
  8
0
  6
CONTINUOUS
 62
     7
 10
-78.824520734948777
 20
15.00020000000052
 30
0.0
 11
-78.824520734948777
 21
-24.999799999999539
 31
0.0
  0
LINE
  5
3DEC
  8
0
  6
CONTINUOUS
 62
     7
 10
-100.32452073494881
 20
-24.999799999999539
 30
0.0
 11
-36.82440542265406
 21
-24.999799999999539
 31
0.0
  0
LINE
  5
3DED
  8
0
  6
CONTINUOUS
 62
     7
 10
93.373489710427393
 20
5.50020000000052
 30
0.0
 11
93.873489710427364
 21
6.00020000000052
 31
0.0
  0
LINE
  5
3DEE
  8
0
  6
CONTINUOUS
 62
     7
 10
93.873489710427364
 20
24.000200000000518
 30
0.0
 11
93.373489710427393
 21
24.500200000000518
 31
0.0
  0
LINE
  5
3DEF
  8
0
  6
CONTINUOUS
 62
     7
 10
65.873489710427378
 20
5.50020000000052
 30
0.0
 11
93.373489710427393
 21
5.50020000000052
 31
0.0
  0
LINE
  5
3DF0
  8
0
  6
CONTINUOUS
 62
     7
 10
93.873489710427364
 20
6.00020000000052
 30
0.0
 11
93.873489710427364
 21
24.000200000000518
 31
0.0
  0
LINE
  5
3DF1
  8
0
  6
CONTINUOUS
 62
     7
 10
93.373489710427393
 20
24.500200000000518
 30
0.0
 11
61.873489710427371
 21
24.500200000000518
 31
0.0
  0
LINE
  5
3DF2
  8
0
  6
CONTINUOUS
 62
     7
 10
61.873489710427371
 20
5.50020000000052
 30
0.0
 11
65.873489710427378
 21
5.50020000000052
 31
0.0
  0
LINE
  5
3DF3
  8
0
  6
CONTINUOUS
 62
     7
 10
50.875479265050281
 20
55.000200000000518
 30
0.0
 11
50.875479265050281
 21
41.000200000000532
 31
0.0
  0
LINE
  5
3DF4
  8
0
  6
CONTINUOUS
 62
     7
 10
-78.724520734948428
 20
55.000200000000518
 30
0.0
 11
58.375479265050281
 21
55.000200000000518
 31
0.0
  0
LINE
  5
3DF5
  8
0
  6
DASH_CENTER
 62
     1
 10
98.873489710427407
 20
15.00020000000052
 30
0.0
 11
-110.32452073494881
 21
15.00020000000052
 31
0.0
  0
LINE
  5
3DF6
  8
0
  6
CONTINUOUS
 62
     7
 10
49.075479265051023
 20
55.000200000000518
 30
0.0
 11
51.375479265050281
 21
55.000200000000518
 31
0.0
  0
LINE
  5
3DF7
  8
0
  6
CONTINUOUS
 62
     7
 10
58.875479265050281
 20
-24.499799999999539
 30
0.0
 11
58.375479265050281
 21
-24.999799999999539
 31
0.0
  0
LINE
  5
3DF8
  8
0
  6
CONTINUOUS
 62
     7
 10
61.875479265050288
 20
-19.499799999999532
 30
0.0
 11
61.375479265050281
 21
-19.999799999999532
 31
0.0
  0
LINE
  5
3DF9
  8
0
  6
CONTINUOUS
 62
     7
 10
61.875479265050288
 20
15.00020000000052
 30
0.0
 11
61.875479265050288
 21
-19.499799999999532
 31
0.0
  0
LINE
  5
3DFA
  8
0
  6
CONTINUOUS
 62
     7
 10
61.375479265050281
 20
-19.999799999999532
 30
0.0
 11
59.17547926505047
 21
-19.999799999999532
 31
0.0
  0
LINE
  5
3DFB
  8
0
  6
CONTINUOUS
 62
     7
 10
58.875479265050281
 20
15.00020000000052
 30
0.0
 11
58.875479265050281
 21
-24.499799999999539
 31
0.0
  0
LINE
  5
3DFC
  8
0
  6
CONTINUOUS
 62
     7
 10
49.075479265051023
 20
-22.34979999999814
 30
0.0
 11
49.075479265051023
 21
-24.999799999999539
 31
0.0
  0
LINE
  5
3DFD
  8
0
  6
CONTINUOUS
 62
     7
 10
58.375479265050281
 20
-24.999799999999539
 30
0.0
 11
-37.824520734958007
 21
-24.999799999999539
 31
0.0
  0
LINE
  5
3DFE
  8
0
  6
CONTINUOUS
 62
     7
 10
49.075479265051023
 20
15.00020000000052
 30
0.0
 11
49.075479265051023
 21
-24.999799999999539
 31
0.0
  0
LINE
  5
3DFF
  8
0
  6
CONTINUOUS
 62
     7
 10
51.375479265050281
 20
-24.999799999999539
 30
0.0
 11
49.075479265051023
 21
-24.999799999999539
 31
0.0
  0
LINE
  5
3E00
  8
0
  6
CONTINUOUS
 62
     7
 10
-102.7045207349489
 20
47.500200000000518
 30
0.0
 11
-102.7045207349489
 21
53.500200000000532
 31
0.0
  0
LINE
  5
3E01
  8
0
  6
CONTINUOUS
 62
     7
 10
-102.32452073494871
 20
53.500200000000532
 30
0.0
 11
-102.32452073494871
 21
47.500200000000518
 31
0.0
  0
LINE
  5
3E02
  8
0
  6
CONTINUOUS
 62
     7
 10
-102.7045207349489
 20
47.500200000000518
 30
0.0
 11
-102.32452073494871
 21
47.500200000000518
 31
0.0
  0
LINE
  5
3E03
  8
0
  6
CONTINUOUS
 62
     7
 10
-102.7045207349489
 20
53.500200000000532
 30
0.0
 11
-102.32452073494871
 21
53.500200000000532
 31
0.0
  0
LINE
  5
3E04
  8
0
  6
CONTINUOUS
 62
     7
 10
-102.7045207349489
 20
53.250200000000518
 30
0.0
 11
-103.5517696178273
 21
53.176075327564043
 31
0.0
  0
LINE
  5
3E05
  8
0
  6
CONTINUOUS
 62
     7
 10
-102.7045207349489
 20
50.500200000000532
 30
0.0
 11
-102.7045207349489
 21
53.250200000000518
 31
0.0
  0
LINE
  5
3E06
  8
0
  6
CONTINUOUS
 62
     7
 10
-102.7045207349489
 20
47.750200000000518
 30
0.0
 11
-102.7045207349489
 21
50.500200000000532
 31
0.0
  0
LINE
  5
3E07
  8
0
  6
CONTINUOUS
 62
     7
 10
-103.5517696178273
 20
47.824324672437058
 30
0.0
 11
-102.7045207349489
 21
47.750200000000518
 31
0.0
  0
LINE
  5
3E08
  8
0
  6
CONTINUOUS
 62
     7
 10
-102.7045207349489
 20
-9.4997999999994782
 30
0.0
 11
-102.7045207349489
 21
-3.49979999999948
 31
0.0
  0
LINE
  5
3E09
  8
0
  6
CONTINUOUS
 62
     7
 10
-102.32452073494871
 20
-3.49979999999948
 30
0.0
 11
-102.32452073494871
 21
-9.4997999999994782
 31
0.0
  0
LINE
  5
3E0A
  8
0
  6
CONTINUOUS
 62
     7
 10
-102.7045207349489
 20
-9.4997999999994782
 30
0.0
 11
-102.32452073494871
 21
-9.4997999999994782
 31
0.0
  0
LINE
  5
3E0B
  8
0
  6
CONTINUOUS
 62
     7
 10
-102.7045207349489
 20
-3.49979999999948
 30
0.0
 11
-102.32452073494871
 21
-3.49979999999948
 31
0.0
  0
LINE
  5
3E0C
  8
0
  6
CONTINUOUS
 62
     7
 10
-102.7045207349489
 20
-3.74979999999948
 30
0.0
 11
-103.5517696178273
 21
-3.823924672435969
 31
0.0
  0
LINE
  5
3E0D
  8
0
  6
CONTINUOUS
 62
     7
 10
-102.7045207349489
 20
-6.4997999999994791
 30
0.0
 11
-102.7045207349489
 21
-3.74979999999948
 31
0.0
  0
LINE
  5
3E0E
  8
0
  6
CONTINUOUS
 62
     7
 10
-102.7045207349489
 20
-9.2497999999994782
 30
0.0
 11
-102.7045207349489
 21
-6.4997999999994791
 31
0.0
  0
LINE
  5
3E0F
  8
0
  6
CONTINUOUS
 62
     7
 10
-103.5517696178273
 20
-9.1756753275629688
 30
0.0
 11
-102.7045207349489
 21
-9.2497999999994782
 31
0.0
  0
LINE
  5
3E10
  8
0
  6
CONTINUOUS
 62
     7
 10
-102.32452073494871
 20
-17.499799999999482
 30
0.0
 11
-102.32452073494871
 21
-23.499799999999539
 31
0.0
  0
LINE
  5
3E11
  8
0
  6
CONTINUOUS
 62
     7
 10
-102.7045207349489
 20
-23.499799999999539
 30
0.0
 11
-102.32452073494871
 21
-23.499799999999539
 31
0.0
  0
LINE
  5
3E12
  8
0
  6
CONTINUOUS
 62
     7
 10
-103.2546410328456
 20
-17.79792928964055
 30
0.0
 11
-103.5517696178273
 21
-17.823924672435972
 31
0.0
  0
LINE
  5
3E13
  8
0
  6
CONTINUOUS
 62
     7
 10
-102.7045207349489
 20
-23.499799999999539
 30
0.0
 11
-102.7045207349489
 21
-20.28903446028913
 31
0.0
  0
LINE
  5
3E14
  8
0
  6
CONTINUOUS
 62
     7
 10
-103.5517696178273
 20
-23.175675327562931
 30
0.0
 11
-102.7045207349489
 21
-23.249799999999539
 31
0.0
  0
LINE
  5
3E15
  8
0
  6
CONTINUOUS
 62
     7
 10
-102.32452073494871
 20
41.000200000000532
 30
0.0
 11
-79.824520734948777
 21
41.000200000000532
 31
0.0
  0
LINE
  5
3E16
  8
0
  6
CONTINUOUS
 62
     7
 10
50.875479265050281
 20
-10.99979999999948
 30
0.0
 11
-36.824405422654053
 21
-10.99979999999948
 31
0.0
  0
LINE
  5
3E17
  8
0
  6
CONTINUOUS
 62
     7
 10
-37.824520734943441
 20
15.00020000000052
 30
0.0
 11
-37.824520734957979
 21
-24.899800000000042
 31
0.0
  0
LINE
  5
3E18
  8
0
  6
CONTINUOUS
 62
     7
 10
-36.824405422654053
 20
-10.99979999999948
 30
0.0
 11
-102.32452073494871
 21
-10.99979999999948
 31
0.0
  0
LINE
  5
3E1A
  8
0
  6
CONTINUOUS
 62
     7
 10
-8.3245207349497097
 20
55.000200000000518
 30
0.0
 11
-8.3245207349497097
 21
66.700200000000279
 31
0.0
  0
LINE
  5
3E1B
  8
0
  6
CONTINUOUS
 62
     7
 10
-18.574520734931522
 20
58.340200000004181
 30
0.0
 11
-18.64293597779816
 21
59.122189804271393
 31
0.0
  0
LINE
  5
3E1C
  8
0
  6
CONTINUOUS
 62
     7
 10
-22.124520734931689
 20
58.340200000004181
 30
0.0
 11
-19.52452073493043
 21
58.340200000004181
 31
0.0
  0
LINE
  5
3E1D
  8
0
  6
CONTINUOUS
 62
     7
 10
-19.52452073493043
 20
58.340200000004181
 30
0.0
 11
-18.574520734931522
 21
58.340200000004181
 31
0.0
  0
LINE
  5
3E1E
  8
0
  6
CONTINUOUS
 62
     7
 10
-23.074520734931522
 20
58.340200000004181
 30
0.0
 11
-22.124520734931689
 21
58.340200000004181
 31
0.0
  0
LINE
  5
3E1F
  8
0
  6
CONTINUOUS
 62
     7
 10
-23.006105492065789
 20
59.122189804271393
 30
0.0
 11
-23.074520734931522
 21
58.340200000004181
 31
0.0
  0
LINE
  5
3E20
  8
0
  6
CONTINUOUS
 62
     7
 10
-23.324520734949719
 20
58.340200000004181
 30
0.0
 11
-23.324520734949719
 21
57.700200000000279
 31
0.0
  0
LINE
  5
3E21
  8
0
  6
CONTINUOUS
 62
     7
 10
-18.324520734931522
 20
58.340200000004181
 30
0.0
 11
-23.324520734949719
 21
58.340200000004181
 31
0.0
  0
LINE
  5
3E22
  8
0
  6
CONTINUOUS
 62
     7
 10
-18.324520734931522
 20
57.700200000000279
 30
0.0
 11
-18.324520734931522
 21
58.340200000004181
 31
0.0
  0
LINE
  5
3E23
  8
0
  6
CONTINUOUS
 62
     7
 10
-9.3245207349497097
 20
67.700200000000279
 30
0.0
 11
-31.948785618844909
 21
67.700200000000279
 31
0.0
  0
LINE
  5
3E24
  8
0
  6
CONTINUOUS
 62
     7
 10
-40.324520734949722
 20
55.700200000000272
 30
0.0
 11
-40.324520734949722
 21
60.246431773407608
 31
0.0
  0
LINE
  5
3E25
  8
0
  6
CONTINUOUS
 62
     7
 10
-39.983025342818692
 20
60.99900846811488
 30
0.0
 11
-32.607290226712969
 21
67.452776694707723
 31
0.0
  0
LINE
  5
3E26
  8
0
  6
CONTINUOUS
 62
     7
 10
-23.824520734949719
 20
67.700200000000279
 30
0.0
 11
-23.824520734949719
 21
57.900200000000098
 31
0.0
  0
LINE
  5
3E27
  8
0
  6
CONTINUOUS
 62
     7
 10
-23.624520734949879
 20
57.700200000000279
 30
0.0
 11
-18.024520734949519
 21
57.700200000000279
 31
0.0
  0
LINE
  5
3E28
  8
0
  6
CONTINUOUS
 62
     7
 10
-17.824520734949871
 20
57.900200000000098
 30
0.0
 11
-17.824520734949711
 21
67.700200000000279
 31
0.0
  0
LINE
  5
3E29
  8
0
  6
CONTINUOUS
 62
     7
 10
-8.3245207349497097
 20
55.700200000000272
 30
0.0
 11
-40.324520734949722
 21
55.700200000000272
 31
0.0
  0
LINE
  5
3E2A
  8
0
  6
DASH_CENTER
 62
     1
 10
-20.824520734949719
 20
68.969391180659898
 30
0.0
 11
-20.824520734949719
 21
53.569391180659409
 31
0.0
  0
LINE
  5
3E2B
  8
0
  6
CONTINUOUS
 62
     7
 10
-8.3245207349497097
 20
60.700200000001189
 30
0.0
 11
-17.824520734949711
 21
60.700200000001189
 31
0.0
  0
LINE
  5
3E2C
  8
0
  6
CONTINUOUS
 62
     7
 10
-23.824520734949719
 20
60.700200000001189
 30
0.0
 11
-40.215640478044968
 21
60.700200000001189
 31
0.0
  0
LINE
  5
3E2D
  8
0
  6
CONTINUOUS
 62
     7
 10
-40.324520734949722
 20
55.700200000000272
 30
0.0
 11
-40.324520734949722
 21
55.000200000000518
 31
0.0
  0
LINE
  5
3E2E
  8
0
  6
CONTINUOUS
 62
     7
 10
-2.024713629684459
 20
117.39515194348409
 30
0.0
 11
-2.0242136365801602
 21
131.89465194348489
 31
0.0
  0
LINE
  5
3E2F
  8
0
  6
CONTINUOUS
 62
     7
 10
-6.1092555002174977
 20
126.27015194348419
 30
0.0
 11
-6.3592555002174977
 21
124.89515194348419
 31
0.0
  0
LINE
  5
3E30
  8
0
  6
CONTINUOUS
 62
     7
 10
-6.7746791468067586
 20
124.89515194348409
 30
0.0
 11
-6.7746791468067586
 21
123.89515194348419
 31
0.0
  0
LINE
  5
3E31
  8
0
  6
CONTINUOUS
 62
     7
 10
-6.3592555002174977
 20
124.89515194348419
 30
0.0
 11
-6.7746791468067586
 21
124.89515194348409
 31
0.0
  0
LINE
  5
3E32
  8
0
  6
CONTINUOUS
 62
     7
 10
-6.7746791468067586
 20
123.89515194348419
 30
0.0
 11
-5.5246791468067586
 21
123.89515194348419
 31
0.0
  0
LINE
  5
3E33
  8
0
  6
CONTINUOUS
 62
     7
 10
-4.636649314325588
 20
128.77931602213451
 30
0.0
 11
-5.5246791468067586
 21
123.89515194348419
 31
0.0
  0
LINE
  5
3E34
  8
0
  6
CONTINUOUS
 62
     7
 10
-3.0246791468067591
 20
118.39515194348419
 30
0.0
 11
-3.0246791468067591
 21
128.64515194348419
 31
0.0
  0
LINE
  5
3E35
  8
0
  6
CONTINUOUS
 62
     7
 10
-3.0246791468067591
 20
118.39515194348419
 30
0.0
 11
-4.0247136308731779
 21
118.39515194348419
 31
0.0
  0
LINE
  5
3E36
  8
0
  6
CONTINUOUS
 62
     7
 10
-4.0247136308731779
 20
118.39515194348419
 30
0.0
 11
-4.0247136308731779
 21
117.39515194348419
 31
0.0
  0
LINE
  5
3E37
  8
0
  6
CONTINUOUS
 62
     7
 10
7.7757323650488379
 20
118.39515194348419
 30
0.0
 11
6.77569788098151
 21
118.39515194348419
 31
0.0
  0
LINE
  5
3E38
  8
0
  6
CONTINUOUS
 62
     7
 10
7.7757323650488379
 20
117.39515194348419
 30
0.0
 11
7.7757323650488379
 21
118.39515194348419
 31
0.0
  0
LINE
  5
3E39
  8
0
  6
CONTINUOUS
 62
     7
 10
6.77569788098151
 20
131.89515194348411
 30
0.0
 11
6.77569788098151
 21
118.39515194348419
 31
0.0
  0
LINE
  5
3E3A
  8
0
  6
CONTINUOUS
 62
     7
 10
-1.5238963711004481
 20
131.89515194348411
 30
0.0
 11
-1.5247136293861481
 21
117.39515194348409
 31
0.0
  0
LINE
  5
3E3B
  8
0
  6
CONTINUOUS
 62
     7
 10
7.7757323650488379
 20
117.39515194348419
 30
0.0
 11
-4.0247136308731779
 21
117.39515194348419
 31
0.0
  0
LINE
  5
3E3C
  8
0
  6
CONTINUOUS
 62
     7
 10
-2.024235480879379
 20
131.89515194348419
 30
0.0
 11
-3.0246791468067591
 21
131.89515194348419
 31
0.0
  0
LINE
  5
3E3D
  8
0
  6
CONTINUOUS
 62
     7
 10
-4.1092555002174977
 20
136.89515194348419
 30
0.0
 11
-3.3592555002174991
 21
135.64515194348419
 31
0.0
  0
LINE
  5
3E3E
  8
0
  6
CONTINUOUS
 62
     7
 10
-6.1092555002174977
 20
126.27015194348419
 30
0.0
 11
-6.1092555002174977
 21
136.39515194348411
 31
0.0
  0
LINE
  5
3E3F
  8
0
  6
CONTINUOUS
 62
     7
 10
-3.3592555002174991
 20
135.64515194348419
 30
0.0
 11
-3.3592555002174991
 21
134.89515194348411
 31
0.0
  0
LINE
  5
3E40
  8
0
  6
CONTINUOUS
 62
     7
 10
-4.3592555002174977
 20
134.89515194348419
 30
0.0
 11
-3.3592555002174991
 21
134.89515194348411
 31
0.0
  0
LINE
  5
3E41
  8
0
  6
CONTINUOUS
 62
     7
 10
-4.3592555002174977
 20
130.8985959941802
 30
0.0
 11
-4.3592555002174977
 21
134.89515194348419
 31
0.0
  0
LINE
  5
3E42
  8
0
  6
CONTINUOUS
 62
     7
 10
-4.1092555002357001
 20
136.89515194348419
 30
0.0
 11
-4.1092555002174977
 21
136.89515194348419
 31
0.0
  0
LINE
  5
3E43
  8
0
  6
CONTINUOUS
 62
     7
 10
-5.1092555002174977
 20
136.89515194348419
 30
0.0
 11
-6.1092555002174977
 21
136.39515194348411
 31
0.0
  0
LINE
  5
3E44
  8
0
  6
CONTINUOUS
 62
     7
 10
-4.5246791468067586
 20
130.89515194348411
 30
0.0
 11
-5.2683464093084789
 21
130.89515194348411
 31
0.0
  0
LINE
  5
3E45
  8
0
  6
CONTINUOUS
 62
     7
 10
-5.2683464093084789
 20
130.89515194348411
 30
0.0
 11
-6.1092555002174977
 21
126.27015194348419
 31
0.0
  0
LINE
  5
3E46
  8
0
  6
CONTINUOUS
 62
     7
 10
-3.89874688174916
 20
129.39515194348411
 30
0.0
 11
-3.7746791468067591
 21
129.39515194348411
 31
0.0
  0
LINE
  5
3E47
  8
0
  6
CONTINUOUS
 62
     7
 10
5.77569788098151
 20
141.09515194348401
 30
0.0
 11
2.2753806309577902
 21
141.09515194348401
 31
0.0
  0
LINE
  5
3E48
  8
0
  6
CONTINUOUS
 62
     7
 10
2.2753806309577902
 20
141.09515194348401
 30
0.0
 11
2.2753806309577902
 21
131.89515194348411
 31
0.0
  0
LINE
  5
3E49
  8
0
  6
CONTINUOUS
 62
     7
 10
5.77569788098151
 20
131.89515194348411
 30
0.0
 11
5.77569788098151
 21
141.09515194348401
 31
0.0
  0
LINE
  5
3E4A
  8
0
  6
CONTINUOUS
 62
     7
 10
1.72610363083129
 20
141.0951519434839
 30
0.0
 11
-1.7742136191905991
 21
141.0951519434839
 31
0.0
  0
LINE
  5
3E4B
  8
0
  6
CONTINUOUS
 62
     7
 10
-1.7742136191905991
 20
141.0951519434839
 30
0.0
 11
-1.7742136191905991
 21
131.89515194348411
 31
0.0
  0
LINE
  5
3E4C
  8
0
  6
CONTINUOUS
 62
     7
 10
1.72610363083129
 20
131.89515194348411
 30
0.0
 11
1.72610363083129
 21
141.0951519434839
 31
0.0
  0
LINE
  5
3E4D
  8
0
  6
CONTINUOUS
 62
     7
 10
6.77569788098151
 20
131.89515194348411
 30
0.0
 11
-3.0246791468067591
 21
131.89515194348419
 31
0.0
  0
LINE
  5
3E4E
  8
0
  6
CONTINUOUS
 62
     7
 10
-4.1092555002174977
 20
136.89515194348419
 30
0.0
 11
-5.1092555002174977
 21
136.89515194348419
 31
0.0
  0
LINE
  5
3E50
  8
0
  6
CONTINUOUS
 62
     7
 10
61.87348971042735
 20
-19.499799999999532
 30
0.0
 11
61.87348971042735
 21
-0.9208713416755399
 31
0.0
  0
LINE
  5
3E51
  8
0
  6
CONTINUOUS
 62
     7
 10
-3.02471363087303
 20
117.39515194348419
 30
0.0
 11
-0.12521017222263
 21
114.49564848483421
 31
0.0
  0
LINE
  5
3E52
  8
0
  6
CONTINUOUS
 62
     7
 10
-79.464520734948209
 20
-24.499799999999539
 30
0.0
 11
-79.464520734948209
 21
-17.75619875331801
 31
0.0
  0
LINE
  5
3E53
  8
0
  6
CONTINUOUS
 62
     7
 10
-79.464520734948209
 20
-24.499799999999539
 30
0.0
 11
-78.824520734948777
 21
-24.499799999999539
 31
0.0
  0
LINE
  5
3E54
  8
0
  6
CONTINUOUS
 62
     7
 10
-83.064520734948559
 20
-17.75619875331801
 30
0.0
 11
-83.064520734948559
 21
-23.999799999999539
 31
0.0
  0
LINE
  5
3E55
  8
0
  6
CONTINUOUS
 62
     7
 10
-83.464520734948209
 20
-17.75619875331801
 30
0.0
 11
-83.464520734948209
 21
-23.599799999999831
 31
0.0
  0
LINE
  5
3E56
  8
0
  6
CONTINUOUS
 62
     7
 10
-83.464520734948209
 20
-23.599799999999831
 30
0.0
 11
-83.064520734948559
 21
-23.999799999999539
 31
0.0
  0
LINE
  5
3E57
  8
0
  6
CONTINUOUS
 62
     7
 10
-83.064520734948559
 20
-23.999799999999539
 30
0.0
 11
-79.464520734948209
 21
-23.999799999999539
 31
0.0
  0
LINE
  5
3E58
  8
0
  6
CONTINUOUS
 62
     7
 10
-83.064520734948559
 20
-16.999800000000391
 30
0.0
 11
-83.064520734948559
 21
-23.243401246681842
 31
0.0
  0
LINE
  5
3E59
  8
0
  6
CONTINUOUS
 62
     7
 10
-83.464520734948209
 20
-17.39980000000002
 30
0.0
 11
-83.464520734948209
 21
-23.243401246681842
 31
0.0
  0
LINE
  5
3E5A
  8
0
  6
CONTINUOUS
 62
     7
 10
-83.064520734948559
 20
-16.999800000000391
 30
0.0
 11
-83.464520734948209
 21
-17.39980000000002
 31
0.0
  0
LINE
  5
3E5B
  8
0
  6
CONTINUOUS
 62
     7
 10
-78.824520734948777
 20
-16.499800000000391
 30
0.0
 11
-79.464520734948209
 21
-16.499800000000391
 31
0.0
  0
LINE
  5
3E5C
  8
0
  6
CONTINUOUS
 62
     7
 10
-83.064520734948559
 20
-16.999800000000391
 30
0.0
 11
-83.464520734948209
 21
-17.39980000000002
 31
0.0
  0
LINE
  5
3E5D
  8
0
  6
CONTINUOUS
 62
     7
 10
-79.464520734948209
 20
-16.999800000000391
 30
0.0
 11
-83.064520734948559
 21
-16.999800000000391
 31
0.0
  0
LINE
  5
3E5E
  8
0
  6
CONTINUOUS
 62
     7
 10
-79.464520734948209
 20
-23.243401246681842
 30
0.0
 11
-79.464520734948209
 21
-16.499800000000391
 31
0.0
  0
LINE
  5
3E5F
  8
0
  6
CONTINUOUS
 62
     7
 10
-85.322415868035549
 20
-24.999799999999539
 30
0.0
 11
-85.324520734948763
 21
-16.163740653626409
 31
0.0
  0
LINE
  5
3E60
  8
0
  6
CONTINUOUS
 62
     7
 10
-85.324520734948763
 20
-16.163740653626409
 30
0.0
 11
-79.824520734948777
 21
-16.163740653626409
 31
0.0
  0
LINE
  5
3E61
  8
0
  6
CONTINUOUS
 62
     7
 10
-79.464520734952771
 20
40.500200000000518
 30
0.0
 11
-78.824520734952443
 21
40.500200000000518
 31
0.0
  0
LINE
  5
3E62
  8
0
  6
CONTINUOUS
 62
     7
 10
-83.064520734953135
 20
40.000200000000518
 30
0.0
 11
-83.064520734953135
 21
33.587081039376358
 31
0.0
  0
LINE
  5
3E63
  8
0
  6
CONTINUOUS
 62
     7
 10
-83.464520734952742
 20
39.600199999999958
 30
0.0
 11
-83.464520734952742
 21
33.400200000000147
 31
0.0
  0
LINE
  5
3E64
  8
0
  6
CONTINUOUS
 62
     7
 10
-83.064520734953135
 20
40.000200000000518
 30
0.0
 11
-83.464520734952742
 21
39.600199999999958
 31
0.0
  0
LINE
  5
3E65
  8
0
  6
CONTINUOUS
 62
     7
 10
-83.064520734953135
 20
40.000200000000518
 30
0.0
 11
-79.464520734952771
 21
40.000200000000518
 31
0.0
  0
LINE
  5
3E66
  8
0
  6
CONTINUOUS
 62
     7
 10
-83.064520734953135
 20
39.243801246681983
 30
0.0
 11
-83.064520734953135
 21
33.000200000000518
 31
0.0
  0
LINE
  5
3E67
  8
0
  6
CONTINUOUS
 62
     7
 10
-79.464520734952771
 20
32.500200000000518
 30
0.0
 11
-78.824520734953353
 21
32.500200000000518
 31
0.0
  0
LINE
  5
3E68
  8
0
  6
CONTINUOUS
 62
     7
 10
-83.464520734952742
 20
33.400200000000147
 30
0.0
 11
-83.064520734953135
 21
33.000200000000518
 31
0.0
  0
LINE
  5
3E69
  8
0
  6
CONTINUOUS
 62
     7
 10
-83.064520734953135
 20
33.000200000000518
 30
0.0
 11
-79.464520734952771
 21
33.000200000000518
 31
0.0
  0
LINE
  5
3E6A
  8
0
  6
CONTINUOUS
 62
     7
 10
-79.464520734952771
 20
32.500200000000518
 30
0.0
 11
-79.464520734952771
 21
39.243801246681983
 31
0.0
  0
LINE
  5
3E6B
  8
0
  6
CONTINUOUS
 62
     7
 10
-85.320311001123272
 20
32.164140653627449
 30
0.0
 11
-85.322415868035549
 21
41.000200000000532
 31
0.0
  0
LINE
  5
3E6C
  8
0
  6
CONTINUOUS
 62
     7
 10
-85.320311001123272
 20
32.164140653627449
 30
0.0
 11
-79.82241586804102
 21
32.164140653627449
 31
0.0
  0
LINE
  5
3E6D
  8
0
  6
CONTINUOUS
 62
     7
 10
-81.183982415501788
 20
56.524794782262788
 30
0.0
 11
-81.184217221157809
 21
56.526467853616957
 31
0.0
  0
LINE
  5
3E6E
  8
0
  6
CONTINUOUS
 62
     7
 10
-81.021847116258499
 20
60.356913180831839
 30
0.0
 11
-92.592356655212484
 21
65.752330387593361
 31
0.0
  0
LINE
  5
3E6F
  8
0
  6
CONTINUOUS
 62
     7
 10
-80.476362406985217
 20
59.62316306458991
 30
0.0
 11
-79.897912813669421
 21
56.143728233805753
 31
0.0
  0
LINE
  5
3E70
  8
0
  6
CONTINUOUS
 62
     7
 10
-96.560652435713209
 20
63.913691325398851
 30
0.0
 11
-93.523430486986001
 21
65.707110826756534
 31
0.0
  0
LINE
  5
3E71
  8
0
  6
CONTINUOUS
 62
     7
 10
-96.560652435713209
 20
63.913691325398851
 30
0.0
 11
-93.523430486986001
 21
65.707110826756534
 31
0.0
  0
LINE
  5
3E72
  8
0
  6
CONTINUOUS
 62
     7
 10
-96.552068704884405
 20
63.736951724075993
 30
0.0
 11
-80.038820718962228
 21
56.036697727237971
 31
0.0
  0
LINE
  5
3E73
  8
0
  6
CONTINUOUS
 62
     7
 10
-84.777088142332644
 20
62.108011175883917
 30
0.0
 11
-84.508610335712206
 21
62.845648191485559
 31
0.0
  0
LINE
  5
3E74
  8
0
  6
CONTINUOUS
 62
     7
 10
-88.462985087131216
 20
64.689602783000851
 30
0.0
 11
-88.85547343614202
 21
64.009792812990895
 31
0.0
  0
LINE
  5
3E75
  8
0
  6
DASH_CENTER
 62
     1
 10
-76.316202907813093
 20
85.576388641685483
 30
0.0
 11
-89.351990468815416
 21
57.621055305879402
 31
0.0
  0
LINE
  5
3E76
  8
0
  6
CONTINUOUS
 62
     7
 10
-79.099648899971626
 20
85.538071810123483
 30
0.0
 11
-89.127365509220809
 21
64.136578480780628
 31
0.0
  0
LINE
  5
3E77
  8
0
  6
CONTINUOUS
 62
     7
 10
-78.585126211545145
 20
87.849685115216886
 30
0.0
 11
-78.585126211545145
 21
93.684932825746841
 31
0.0
  0
LINE
  5
3E78
  8
0
  6
CONTINUOUS
 62
     7
 10
-73.48512621154515
 20
93.684932825746841
 30
0.0
 11
-73.48512621154515
 21
87.848414908951938
 31
0.0
  0
LINE
  5
3E79
  8
0
  6
CONTINUOUS
 62
     7
 10
-84.505195795332625
 20
61.981225345905742
 30
0.0
 11
-74.482267834021329
 21
83.371204388790702
 31
0.0
  0
LINE
  5
3E7A
  8
0
  6
DASH_CENTER
 62
     1
 10
-76.035126211545133
 20
86.844243549954896
 30
0.0
 11
-76.035126211545133
 21
143.5954845538246
 31
0.0
  0
LINE
  5
3E7B
  8
0
  6
CONTINUOUS
 62
     7
 10
-78.585126211545145
 20
102.07247611400651
 30
0.0
 11
-78.585126211545145
 21
94.962261001211246
 31
0.0
  0
LINE
  5
3E7C
  8
0
  6
CONTINUOUS
 62
     7
 10
-79.0351262115515
 20
102.07247611400651
 30
0.0
 11
-73.035126211545133
 21
102.07247611400651
 31
0.0
  0
LINE
  5
3E7D
  8
0
  6
CONTINUOUS
 62
     7
 10
-79.035126211545091
 20
105.32247611400651
 30
0.0
 11
-79.035126211545148
 21
102.07247611400651
 31
0.0
  0
LINE
  5
3E7E
  8
0
  6
CONTINUOUS
 62
     7
 10
-73.035126211545133
 20
105.32247611400651
 30
0.0
 11
-73.035126211545133
 21
102.07247611400651
 31
0.0
  0
LINE
  5
3E7F
  8
0
  6
CONTINUOUS
 62
     7
 10
-73.48512621154515
 20
94.962261001211246
 30
0.0
 11
-73.48512621154515
 21
102.07247611400651
 31
0.0
  0
LINE
  5
3E80
  8
0
  6
CONTINUOUS
 62
     7
 10
-77.785126211545148
 20
109.32247611400651
 30
0.0
 11
-77.785126211545148
 21
117.3954845538257
 31
0.0
  0
LINE
  5
3E81
  8
0
  6
CONTINUOUS
 62
     7
 10
-77.035126211545148
 20
109.32247611400651
 30
0.0
 11
-77.035126211545148
 21
117.3954845538257
 31
0.0
  0
LINE
  5
3E82
  8
0
  6
CONTINUOUS
 62
     7
 10
-76.285126211545148
 20
109.32247611400651
 30
0.0
 11
-76.285126211545148
 21
117.3954845538257
 31
0.0
  0
LINE
  5
3E83
  8
0
  6
CONTINUOUS
 62
     7
 10
-75.785126211545148
 20
109.32247611400651
 30
0.0
 11
-75.785126211545148
 21
117.3954845538257
 31
0.0
  0
LINE
  5
3E84
  8
0
  6
CONTINUOUS
 62
     7
 10
-75.035126211545148
 20
109.32247611400651
 30
0.0
 11
-75.035126211545148
 21
117.3954845538257
 31
0.0
  0
LINE
  5
3E85
  8
0
  6
CONTINUOUS
 62
     7
 10
-74.285126211545133
 20
109.32247611400651
 30
0.0
 11
-74.285126211545133
 21
117.3954845538257
 31
0.0
  0
LINE
  5
3E86
  8
0
  6
CONTINUOUS
 62
     7
 10
-78.285126211545148
 20
109.32247611400651
 30
0.0
 11
-73.785126211545148
 21
109.32247611400651
 31
0.0
  0
LINE
  5
3E87
  8
0
  6
CONTINUOUS
 62
     7
 10
-78.285126211545148
 20
106.82247611400651
 30
0.0
 11
-79.035126211545091
 21
105.32247611400651
 31
0.0
  0
LINE
  5
3E88
  8
0
  6
CONTINUOUS
 62
     7
 10
-73.785126211545148
 20
106.82247611400651
 30
0.0
 11
-73.785126211545148
 21
109.32247611400651
 31
0.0
  0
LINE
  5
3E89
  8
0
  6
CONTINUOUS
 62
     7
 10
-73.7851262115515
 20
106.82247611400651
 30
0.0
 11
-73.035126211545133
 21
105.32247611400651
 31
0.0
  0
LINE
  5
3E8A
  8
0
  6
CONTINUOUS
 62
     7
 10
-78.285126211545148
 20
109.32247611400651
 30
0.0
 11
-78.285126211545148
 21
106.82247611400651
 31
0.0
  0
LINE
  5
3E8F
  8
0
  6
CONTINUOUS
 62
     7
 10
-97.135175548960135
 20
63.530434788289277
 30
0.0
 11
-104.3396094733413
 21
59.35006323920436
 31
0.0
  0
LINE
  5
3E90
  8
0
  6
CONTINUOUS
 62
     7
 10
-96.205012918023002
 20
63.575116952855723
 30
0.0
 11
-79.824520734948777
 21
55.936768003547492
 31
0.0
  0
LINE
  5
3E91
  8
0
  6
CONTINUOUS
 62
     7
 10
-77.785126211545148
 20
131.8954845538257
 30
0.0
 11
-78.535126211545133
 21
131.8954845538257
 31
0.0
  0
LINE
  5
3E92
  8
0
  6
CONTINUOUS
 62
     7
 10
-83.583870102592812
 20
117.3954845538257
 30
0.0
 11
-82.285160701320464
 21
117.3954845538257
 31
0.0
  0
LINE
  5
3E93
  8
0
  6
CONTINUOUS
 62
     7
 10
-68.285160695610656
 20
117.3954845538257
 30
0.0
 11
-82.285126210952143
 21
117.3954845538257
 31
0.0
  0
LINE
  5
3E94
  8
0
  6
CONTINUOUS
 62
     7
 10
-83.285126211545133
 20
118.3954845538257
 30
0.0
 11
-84.28516069561249
 21
118.3954845538257
 31
0.0
  0
LINE
  5
3E95
  8
0
  6
CONTINUOUS
 62
     7
 10
-84.28516069561249
 20
118.3954845538257
 30
0.0
 11
-84.28516069561249
 21
117.3954845538257
 31
0.0
  0
LINE
  5
3E96
  8
0
  6
CONTINUOUS
 62
     7
 10
-82.285126210952143
 20
117.3954845538257
 30
0.0
 11
-82.285126210952143
 21
118.3954845538257
 31
0.0
  0
LINE
  5
3E97
  8
0
  6
CONTINUOUS
 62
     7
 10
-84.28516069561249
 20
117.3954845538257
 30
0.0
 11
-83.583870102592812
 21
117.3954845538257
 31
0.0
  0
LINE
  5
3E98
  8
0
  6
CONTINUOUS
 62
     7
 10
-68.285160695610656
 20
117.3954845538257
 30
0.0
 11
-68.285160695610656
 21
118.3954845538257
 31
0.0
  0
LINE
  5
3E99
  8
0
  6
CONTINUOUS
 62
     7
 10
-81.785160694125452
 20
117.3954845538257
 30
0.0
 11
-81.784660701618691
 21
131.89496731208891
 31
0.0
  0
LINE
  5
3E9A
  8
0
  6
CONTINUOUS
 62
     7
 10
-84.369702564956782
 20
136.8954845538257
 30
0.0
 11
-83.619702564956796
 21
135.6454845538257
 31
0.0
  0
LINE
  5
3E9B
  8
0
  6
CONTINUOUS
 62
     7
 10
-86.619702564956782
 20
124.8954845538257
 30
0.0
 11
-85.528793474045074
 21
130.8954845538257
 31
0.0
  0
LINE
  5
3E9C
  8
0
  6
CONTINUOUS
 62
     7
 10
-86.369702564956768
 20
126.2704845538257
 30
0.0
 11
-86.369702564956768
 21
136.3954845538257
 31
0.0
  0
LINE
  5
3E9D
  8
0
  6
CONTINUOUS
 62
     7
 10
-83.619702564956796
 20
135.6454845538257
 30
0.0
 11
-83.619702564956796
 21
134.8954845538257
 31
0.0
  0
LINE
  5
3E9E
  8
0
  6
CONTINUOUS
 62
     7
 10
-84.619702564957706
 20
134.8954845538257
 30
0.0
 11
-83.619702564956796
 21
134.8954845538257
 31
0.0
  0
LINE
  5
3E9F
  8
0
  6
CONTINUOUS
 62
     7
 10
-85.369702564957706
 20
136.8954845538257
 30
0.0
 11
-86.369702564956768
 21
136.3954845538257
 31
0.0
  0
LINE
  5
3EA0
  8
0
  6
CONTINUOUS
 62
     7
 10
-87.035126211545162
 20
124.8954845538257
 30
0.0
 11
-87.035126211545162
 21
123.8954845538257
 31
0.0
  0
LINE
  5
3EA1
  8
0
  6
CONTINUOUS
 62
     7
 10
-87.035126211545162
 20
123.8954845538257
 30
0.0
 11
-85.785126211545133
 21
123.8954845538257
 31
0.0
  0
LINE
  5
3EA2
  8
0
  6
CONTINUOUS
 62
     7
 10
-82.034660683930824
 20
141.0954845538246
 30
0.0
 11
-82.034660683930824
 21
131.8954845538257
 31
0.0
  0
LINE
  5
3EA3
  8
0
  6
CONTINUOUS
 62
     7
 10
-83.285126211545133
 20
131.8954845538257
 30
0.0
 11
-79.784515401955659
 21
131.8954845538257
 31
0.0
  0
LINE
  5
3EA4
  8
0
  6
CONTINUOUS
 62
     7
 10
-70.035126211545148
 20
141.0954845538246
 30
0.0
 11
-73.535126211545133
 21
141.0954845538246
 31
0.0
  0
LINE
  5
3EA5
  8
0
  6
CONTINUOUS
 62
     7
 10
-73.535126211545133
 20
141.0954845538246
 30
0.0
 11
-73.535126211545133
 21
131.8954845538257
 31
0.0
  0
LINE
  5
3EA6
  8
0
  6
CONTINUOUS
 62
     7
 10
-70.035126211545148
 20
131.8954845538257
 30
0.0
 11
-70.035126211545148
 21
141.0954845538246
 31
0.0
  0
LINE
  5
3EA7
  8
0
  6
CONTINUOUS
 62
     7
 10
-77.785126211545148
 20
141.0954845538246
 30
0.0
 11
-74.285126211545133
 21
141.0954845538246
 31
0.0
  0
LINE
  5
3EA8
  8
0
  6
CONTINUOUS
 62
     7
 10
-74.285126211545133
 20
141.0954845538246
 30
0.0
 11
-74.285126211545133
 21
131.8954845538257
 31
0.0
  0
LINE
  5
3EA9
  8
0
  6
CONTINUOUS
 62
     7
 10
-78.535126211545133
 20
141.0954845538246
 30
0.0
 11
-82.034660683930824
 21
141.0954845538246
 31
0.0
  0
LINE
  5
3EAA
  8
0
  6
CONTINUOUS
 62
     7
 10
-79.784515401955659
 20
131.8954845538257
 30
0.0
 11
-78.535126211545133
 21
131.8954845538257
 31
0.0
  0
LINE
  5
3EAB
  8
0
  6
CONTINUOUS
 62
     7
 10
-82.285160701320464
 20
117.3954845538257
 30
0.0
 11
-82.285126210952143
 21
117.3954845538257
 31
0.0
  0
LINE
  5
3EAC
  8
0
  6
CONTINUOUS
 62
     7
 10
-68.285160695610656
 20
118.3954845538257
 30
0.0
 11
-69.285195179680713
 21
118.3954845538257
 31
0.0
  0
LINE
  5
3EAD
  8
0
  6
CONTINUOUS
 62
     7
 10
-84.619702564956782
 20
130.8989286045209
 30
0.0
 11
-84.619702564957706
 21
134.8954845538257
 31
0.0
  0
LINE
  5
3EAE
  8
0
  6
CONTINUOUS
 62
     7
 10
-85.369702564957706
 20
136.8954845538257
 30
0.0
 11
-84.369702564956782
 21
136.8954845538257
 31
0.0
  0
LINE
  5
3EAF
  8
0
  6
CONTINUOUS
 62
     7
 10
-86.619702564956782
 20
124.8954845538257
 30
0.0
 11
-87.035126211545162
 21
124.8954845538257
 31
0.0
  0
LINE
  5
3EB0
  8
0
  6
CONTINUOUS
 62
     7
 10
-84.785126211545133
 20
130.8954845538257
 30
0.0
 11
-85.528793474045074
 21
130.8954845538257
 31
0.0
  0
LINE
  5
3EB1
  8
0
  6
CONTINUOUS
 62
     7
 10
-84.159193946488443
 20
129.3954845538257
 30
0.0
 11
-84.035126211545148
 21
129.3954845538257
 31
0.0
  0
LINE
  5
3EB2
  8
0
  6
CONTINUOUS
 62
     7
 10
-84.897096379065815
 20
128.77964863247519
 30
0.0
 11
-85.785126211545133
 21
123.8954845538257
 31
0.0
  0
LINE
  5
3EB3
  8
0
  6
CONTINUOUS
 62
     7
 10
-83.285126211545133
 20
118.3954845538257
 30
0.0
 11
-83.285126211545133
 21
128.6454845538257
 31
0.0
  0
LINE
  5
3EB4
  8
0
  6
CONTINUOUS
 62
     7
 10
-82.284660701319453
 20
131.89498455382471
 30
0.0
 11
-82.285160701320464
 21
117.3952845538244
 31
0.0
  0
LINE
  5
3EB5
  8
0
  6
CONTINUOUS
 62
     7
 10
-69.285195179680713
 20
131.8954845538257
 30
0.0
 11
-74.285126211545133
 21
131.8954845538257
 31
0.0
  0
LINE
  5
3EB6
  8
0
  6
CONTINUOUS
 62
     7
 10
-74.285126211545133
 20
131.8954845538257
 30
0.0
 11
-77.785126211545148
 21
131.8954845538257
 31
0.0
  0
LINE
  5
3EB7
  8
0
  6
CONTINUOUS
 62
     7
 10
-77.785126211545148
 20
131.8954845538257
 30
0.0
 11
-77.785126211545148
 21
141.0954845538246
 31
0.0
  0
LINE
  5
3EB8
  8
0
  6
CONTINUOUS
 62
     7
 10
-78.535126211545133
 20
131.8954845538257
 30
0.0
 11
-78.535126211545133
 21
141.0954845538246
 31
0.0
  0
LINE
  5
3EB9
  8
0
  6
CONTINUOUS
 62
     7
 10
-69.285195179680713
 20
131.8954845538257
 30
0.0
 11
-69.285195179680713
 21
118.3954845538257
 31
0.0
  0
ARC
  5
3EC3
  8
0
  6
CONTINUOUS
 62
     2
 10
3.5748564809158601
 20
88.20643912313345
 30
0.0
 40
3.399584810577132
 50
240.00000000001961
 51
300.00000000000688
  0
ARC
  5
3EC4
  8
0
  6
CONTINUOUS
 62
     2
 10
0.17527167033983
 20
82.318185506574196
 30
0.0
 40
3.3995848105768021
 50
59.999999999998643
 51
120.0000000000142
  0
ARC
  5
3EC5
  8
0
  6
CONTINUOUS
 62
     2
 10
3.5748564809158601
 20
89.720067378570207
 30
0.0
 40
3.3995848105763442
 50
240.00000000001191
 51
300.0000000000145
  0
ARC
  5
3EC6
  8
0
  6
CONTINUOUS
 62
     2
 10
0.17527167033983
 20
83.831813762012743
 30
0.0
 40
3.399584810576012
 50
59.999999999990997
 51
120.0000000000219
  0
ARC
  5
3EC7
  8
0
  6
CONTINUOUS
 62
     7
 10
-19.03269507497372
 20
140.25750980855901
 30
0.0
 40
1.550083525850251
 50
245.75317114458241
 51
316.86669380356432
  0
ARC
  5
3EC8
  8
0
  6
CONTINUOUS
 62
     7
 10
-103.4646138750783
 20
48.820519370529048
 30
0.0
 40
1.000000000000508
 50
196.2570278965992
 51
264.9999999999244
  0
ARC
  5
3EC9
  8
0
  6
CONTINUOUS
 62
     7
 10
-97.704520734948915
 20
50.500200000000532
 30
0.0
 40
6.9999999999999849
 50
180.0
 51
196.25702789660599
  0
ARC
  5
3ECA
  8
0
  6
CONTINUOUS
 62
     7
 10
-103.4646138750783
 20
52.179880629472031
 30
0.0
 40
1.000000000000359
 50
95.000000000075644
 51
163.7429721034101
  0
ARC
  5
3ECB
  8
0
  6
CONTINUOUS
 62
     7
 10
-97.704520734948915
 20
50.500200000000532
 30
0.0
 40
6.9999999999994174
 50
163.74297210339481
 51
180.0
  0
ARC
  5
3ECC
  8
0
  6
CONTINUOUS
 62
     7
 10
-103.4646138750783
 20
-8.1794806294709606
 30
0.0
 40
1.0000000000005
 50
196.25702789659761
 51
264.9999999999244
  0
ARC
  5
3ECD
  8
0
  6
CONTINUOUS
 62
     7
 10
-97.704520734948915
 20
-6.4997999999994791
 30
0.0
 40
6.9999999999999849
 50
180.0
 51
196.25702789660571
  0
ARC
  5
3ECE
  8
0
  6
CONTINUOUS
 62
     7
 10
-103.4646138750783
 20
-4.8201193705280003
 30
0.0
 40
1.000000000000409
 50
95.000000000075374
 51
163.74297210340711
  0
ARC
  5
3ECF
  8
0
  6
CONTINUOUS
 62
     7
 10
-97.704520734948915
 20
-6.4997999999994791
 30
0.0
 40
6.9999999999994174
 50
163.74297210339481
 51
180.0
  0
ARC
  5
3ED0
  8
0
  6
CONTINUOUS
 62
     7
 10
-103.4646138750783
 20
-22.17948062947093
 30
0.0
 40
1.0000000000005
 50
196.25702789659761
 51
264.9999999999244
  0
ARC
  5
3ED1
  8
0
  6
CONTINUOUS
 62
     7
 10
-97.704520734948915
 20
-20.499799999999532
 30
0.0
 40
6.9999999999999849
 50
180.0
 51
196.25702789660511
  0
ARC
  5
3ED2
  8
0
  6
CONTINUOUS
 62
     7
 10
-103.4646138750783
 20
-18.82011937052798
 30
0.0
 40
1.000000000000379
 50
95.000000000075545
 51
163.74297210340819
  0
ARC
  5
3ED3
  8
0
  6
CONTINUOUS
 62
     7
 10
-97.704520734948915
 20
-20.499799999999532
 30
0.0
 40
6.9999999999994316
 50
163.74297210339441
 51
180.0
  0
ARC
  5
3ED5
  8
0
  6
CONTINUOUS
 62
     7
 10
-22.209149733591978
 20
59.05246521007399
 30
0.0
 40
0.7999999999994902
 50
105.4427158275478
 51
175.00000000005409
  0
ARC
  5
3ED6
  8
0
  6
CONTINUOUS
 62
     7
 10
-20.824520734931522
 20
54.040200000005029
 30
0.0
 40
6.0
 50
90.0
 51
105.44271582757681
  0
ARC
  5
3ED7
  8
0
  6
CONTINUOUS
 62
     7
 10
-19.43989173627018
 20
59.05246521007399
 30
0.0
 40
0.7999999999985552
 50
4.9999999999570512
 51
74.557284172513533
  0
ARC
  5
3ED8
  8
0
  6
CONTINUOUS
 62
     7
 10
-20.824520734931522
 20
54.040200000005029
 30
0.0
 40
5.9999999999994031
 50
74.557284172423252
 51
90.0
  0
ARC
  5
3ED9
  8
0
  6
CONTINUOUS
 62
     7
 10
-4.4741864321082492
 20
132.4444128714359
 30
0.0
 40
1.550083525851323
 50
268.13330619649139
 51
274.25209721598912
  0
ARC
  5
3EDA
  8
0
  6
CONTINUOUS
 62
     7
 10
-4.4741864321082492
 20
132.4444128714359
 30
0.0
 40
1.5500835258507351
 50
274.25209721598912
 51
339.24682885548589
  0
ARC
  5
3EDB
  8
0
  6
CONTINUOUS
 62
     7
 10
-79.996558892790404
 20
56.127328505940653
 30
0.0
 40
0.0999999999981783
 50
245.00000000091509
 51
9.4389893087453416
  0
ARC
  5
3EDC
  8
0
  6
CONTINUOUS
 62
     7
 10
-81.462823198193846
 20
59.459165785938339
 30
0.0
 40
0.9999999999985336
 50
9.4389893088012702
 51
65.000000000071111
  0
ARC
  5
3EDD
  8
0
  6
CONTINUOUS
 62
     7
 10
-93.014974916952823
 20
64.84602260055739
 30
0.0
 40
0.9999999999992271
 50
65.000000000004789
 51
120.56101069123029
  0
ARC
  5
3EDE
  8
0
  6
CONTINUOUS
 62
     7
 10
-96.509806878709824
 20
63.827582502776863
 30
0.0
 40
0.1000000000016724
 50
120.5610106906602
 51
244.99999999905049
  0
ARC
  5
3EDF
  8
0
  6
CONTINUOUS
 62
     7
 10
-87.770164711070294
 20
64.28960287485836
 30
0.0
 40
0.800000000000533
 50
80.442723424002708
 51
150.0000075965329
  0
ARC
  5
3EE0
  8
0
  6
CONTINUOUS
 62
     7
 10
-88.633538798028511
 20
59.161778269240237
 30
0.0
 40
6.000000000001271
 50
49.557291768867849
 51
80.442723424020983
  0
ARC
  5
3EE1
  8
0
  6
CONTINUOUS
 62
     7
 10
-85.260364468618349
 20
63.119264206476259
 30
0.0
 40
0.8000000000005583
 50
340.00000759646338
 51
49.55729176880979
  0
ARC
  5
3EE2
  8
0
  6
CONTINUOUS
 62
     2
 10
-74.760126211545156
 20
95.893297605397763
 30
0.0
 40
2.5500000000005301
 50
240.00000000000699
 51
299.99999999999312
  0
ARC
  5
3EE3
  8
0
  6
CONTINUOUS
 62
     2
 10
-77.310126211545153
 20
91.476568046096645
 30
0.0
 40
2.5499999999998759
 50
59.999999999998643
 51
120.00000000000161
  0
ARC
  5
3EE4
  8
0
  6
CONTINUOUS
 62
     2
 10
-74.760126211545156
 20
97.170625780860647
 30
0.0
 40
2.5499999999992
 50
239.99999999998991
 51
300.00000000001052
  0
ARC
  5
3EE5
  8
0
  6
CONTINUOUS
 62
     2
 10
-77.310126211545153
 20
92.753896221559529
 30
0.0
 40
2.5500000000012051
 50
60.000000000015859
 51
119.9999999999844
  0
ARC
  5
3EE6
  8
0
  6
CONTINUOUS
 62
     7
 10
-84.734633496845689
 20
132.4447454817774
 30
0.0
 40
1.5500835258512691
 50
268.13330619645728
 51
339.24682885547372
  0
ARC
  5
3EE7
  8
0
  6
CONTINUOUS
 62
     7
 10
-16.753109117541161
 20
137.1641294346874
 30
0.0
 40
0.7500000000016192
 50
55.30484646881154
 51
135.00000000014359
  0
ARC
  5
3EE8
  8
0
  6
CONTINUOUS
 62
     7
 10
-16.84083825424716
 20
137.0764002979823
 30
0.0
 40
0.7500000000014354
 50
134.99999999994961
 51
224.99999999999679
  0
ARC
  5
3EE9
  8
0
  6
CONTINUOUS
 62
     7
 10
-90.324520734948777
 20
-6.7914796793683081
 30
0.0
 40
14.999999999999989
 50
180.0
 51
192.9946167919168
  0
ARC
  5
3EEA
  8
0
  6
CONTINUOUS
 62
     7
 10
-100.32452073494881
 20
-22.999799999999539
 30
0.0
 40
1.9999999999999001
 50
180.0
 51
270.0
  0
ARC
  5
3EEB
  8
0
  6
CONTINUOUS
 62
     7
 10
-104.32452073494881
 20
-22.22757604274992
 30
0.0
 40
2.000000000000099
 50
0.0
 51
12.99461679189978
  0
ARC
  5
3EEC
  8
0
  6
CONTINUOUS
 62
     7
 10
59.17547926505047
 20
50.300199999999847
 30
0.0
 40
0.3000000000001819
 50
180.0
 51
270.0
  0
ARC
  5
3EED
  8
0
  6
CONTINUOUS
 62
     7
 10
59.17547926505047
 20
-20.29979999999783
 30
0.0
 40
0.2999999999982919
 50
90.0
 51
180.0
  0
ARC
  5
3EEE
  8
0
  6
CONTINUOUS
 62
     7
 10
-9.3245207349497097
 20
66.700200000000279
 30
0.0
 40
1.0
 50
0.0
 51
90.0
  0
ARC
  5
3EEF
  8
0
  6
CONTINUOUS
 62
     7
 10
-31.948785618844909
 20
66.700200000000279
 30
0.0
 40
1.0
 50
90.0
 51
131.18592516566861
  0
ARC
  5
3EF0
  8
0
  6
CONTINUOUS
 62
     7
 10
-39.324520734949701
 20
60.246431773407608
 30
0.0
 40
1.0000000000005951
 50
131.18592516571431
 51
180.0
  0
ARC
  5
3EF1
  8
0
  6
CONTINUOUS
 62
     7
 10
-23.624520734949879
 20
57.900200000000098
 30
0.0
 40
0.1999999999998394
 50
180.0
 51
270.0
  0
ARC
  5
3EF2
  8
0
  6
CONTINUOUS
 62
     7
 10
-18.0245207349497
 20
57.900200000000098
 30
0.0
 40
0.1999999999998181
 50
270.0000000000519
 51
0.0
  0
ARC
  5
3EF3
  8
0
  6
CONTINUOUS
 62
     7
 10
-3.7746791468067591
 20
128.64515194348411
 30
0.0
 40
0.75
 50
0.00000000000651
 51
90.0
  0
ARC
  5
3EF4
  8
0
  6
CONTINUOUS
 62
     7
 10
-3.89874688174916
 20
128.64515194348411
 30
0.0
 40
0.75
 50
90.0
 51
169.69515353122341
  0
ARC
  5
3EF5
  8
0
  6
CONTINUOUS
 62
     7
 10
-84.037011398086264
 20
87.848832844746994
 30
0.0
 40
10.55188519481851
 50
334.89085647295309
 51
359.99773064654022
  0
ARC
  5
3EF6
  8
0
  6
CONTINUOUS
 62
     7
 10
-84.03326442139155
 20
87.849272366277873
 30
0.0
 40
5.4481382254825048
 50
334.89879842107882
 51
0.00434070709057
  0
ARC
  5
3EF8
  8
0
  6
CONTINUOUS
 62
     7
 10
-96.627631179764322
 20
62.668809165817933
 30
0.0
 40
1.000000000001289
 50
64.999999999996106
 51
120.5003993975858
  0
ARC
  5
3EF9
  8
0
  6
CONTINUOUS
 62
     7
 10
-103.32452073494881
 20
57.626811994264351
 30
0.0
 40
1.9999999999996301
 50
120.5003993976469
 51
180.0
  0
ARC
  5
3EFA
  8
0
  6
CONTINUOUS
 62
     7
 10
-84.159193946488443
 20
128.6454845538257
 30
0.0
 40
0.75
 50
90.0
 51
169.6951535313045
  0
ARC
  5
3EFB
  8
0
  6
CONTINUOUS
 62
     7
 10
-84.035126211545148
 20
128.6454845538257
 30
0.0
 40
0.75
 50
0.0
 51
90.0
  0
ARC
  5
3EFC
  8
0
  6
DASH_CENTER
 62
     1
 10
-79.035126211545148
 20
86.844243549954896
 30
0.0
 40
3.0
 50
334.9999974070281
 51
0.0
  0
ARC
  5
3EFD
  8
0
  6
CONTINUOUS
 62
     7
 10
-7.5253511137947671
 20
68.850200000000711
 30
0.0
 40
12.800000000000001
 50
270.0
 51
0.0
  0
ARC
  5
3EFE
  8
0
  6
CONTINUOUS
 62
     7
 10
-7.5245207349495189
 20
68.850199999999973
 30
0.0
 40
6.0
 50
270.0
 51
0.0
  0
ARC
  5
3EFF
  8
0
  6
DASH_CENTER
 62
     1
 10
-8.2952265329931816
 20
69.250200000000305
 30
0.0
 40
9.7999999999999901
 50
270.0
 51
0.0
  0
LINE
  5
4020
  8
0
  6
CONTINUOUS
 62
     7
 10
144.3558997141524
 20
-2.2497999999994791
 30
0.0
 11
148.3558997141524
 21
-2.2497999999994791
 31
0.0
  0
LINE
  5
4021
  8
0
  6
CONTINUOUS
 62
     7
 10
144.3558997141524
 20
-10.74979999999948
 30
0.0
 11
148.3558997141524
 21
-10.74979999999948
 31
0.0
  0
LINE
  5
4022
  8
0
  6
DASH_CENTER
 62
     1
 10
148.3558997141524
 20
-6.4997999999994791
 30
0.0
 11
148.3558997141524
 21
-1.1797999999988591
 31
0.0
  0
LINE
  5
4023
  8
0
  6
DASH_CENTER
 62
     1
 10
148.3558997141524
 20
-6.4997999999994791
 30
0.0
 11
143.03589971414721
 21
-6.4997999999994791
 31
0.0
  0
LINE
  5
4024
  8
0
  6
CONTINUOUS
 62
     7
 10
149.8558997141524
 20
-7.3658254037835578
 30
0.0
 11
149.8558997141524
 21
-5.6337745962144892
 31
0.0
  0
LINE
  5
4025
  8
0
  6
CONTINUOUS
 62
     7
 10
148.3558997141524
 20
-8.2318508075685504
 30
0.0
 11
149.8558997141524
 21
-7.3658254037835578
 31
0.0
  0
LINE
  5
4026
  8
0
  6
CONTINUOUS
 62
     7
 10
146.8558997141524
 20
-7.3658254037835578
 30
0.0
 11
148.3558997141524
 21
-8.2318508075685504
 31
0.0
  0
LINE
  5
4027
  8
0
  6
CONTINUOUS
 62
     7
 10
146.8558997141524
 20
-5.6337745962144892
 30
0.0
 11
146.8558997141524
 21
-7.3658254037835578
 31
0.0
  0
LINE
  5
4028
  8
0
  6
CONTINUOUS
 62
     7
 10
148.3558997141524
 20
-4.7677491924304087
 30
0.0
 11
146.8558997141524
 21
-5.6337745962144892
 31
0.0
  0
LINE
  5
4029
  8
0
  6
CONTINUOUS
 62
     7
 10
149.8558997141524
 20
-5.6337745962144892
 30
0.0
 11
148.3558997141524
 21
-4.7677491924304087
 31
0.0
  0
LINE
  5
402A
  8
0
  6
DASH_CENTER
 62
     1
 10
148.3558997141524
 20
-11.819799999999191
 30
0.0
 11
148.3558997141524
 21
-6.4997999999994791
 31
0.0
  0
LINE
  5
402B
  8
0
  6
DASH_CENTER
 62
     1
 10
153.67589971414941
 20
-6.4997999999985687
 30
0.0
 11
148.3558997141524
 21
-6.4997999999994791
 31
0.0
  0
LINE
  5
402C
  8
0
  6
CONTINUOUS
 62
     7
 10
223.3558997141524
 20
32.250200000000518
 30
0.0
 11
219.3558997141524
 21
32.250200000000518
 31
0.0
  0
LINE
  5
402D
  8
0
  6
CONTINUOUS
 62
     7
 10
223.3558997141524
 20
40.750200000000518
 30
0.0
 11
219.3558997141524
 21
40.750200000000518
 31
0.0
  0
LINE
  5
402E
  8
0
  6
DASH_CENTER
 62
     1
 10
219.3558997141524
 20
36.500200000000532
 30
0.0
 11
224.67589971414941
 21
36.500200000001428
 31
0.0
  0
LINE
  5
402F
  8
0
  6
DASH_CENTER
 62
     1
 10
219.3558997141524
 20
36.500200000000532
 30
0.0
 11
219.3558997141524
 21
41.820200000001137
 31
0.0
  0
LINE
  5
4030
  8
0
  6
CONTINUOUS
 62
     7
 10
218.4898743103638
 20
35.000200000001428
 30
0.0
 11
220.22192511793651
 21
35.000200000000518
 31
0.0
  0
LINE
  5
4031
  8
0
  6
CONTINUOUS
 62
     7
 10
217.62384890658331
 20
36.500200000000532
 30
0.0
 11
218.4898743103638
 21
35.000200000001428
 31
0.0
  0
LINE
  5
4032
  8
0
  6
CONTINUOUS
 62
     7
 10
218.4898743103638
 20
38.000200000001428
 30
0.0
 11
217.62384890658331
 21
36.500200000000532
 31
0.0
  0
LINE
  5
4033
  8
0
  6
CONTINUOUS
 62
     7
 10
220.22192511793651
 20
38.000200000000532
 30
0.0
 11
218.4898743103638
 21
38.000200000001428
 31
0.0
  0
LINE
  5
4034
  8
0
  6
CONTINUOUS
 62
     7
 10
221.08795052172241
 20
36.500200000001428
 30
0.0
 11
220.22192511793651
 21
38.000200000000532
 31
0.0
  0
LINE
  5
4035
  8
0
  6
CONTINUOUS
 62
     7
 10
220.22192511793651
 20
35.000200000000518
 30
0.0
 11
221.08795052172241
 21
36.500200000001428
 31
0.0
  0
LINE
  5
4036
  8
0
  6
DASH_CENTER
 62
     1
 10
214.03589971414721
 20
36.500200000001428
 30
0.0
 11
219.3558997141524
 21
36.500200000000532
 31
0.0
  0
LINE
  5
4037
  8
0
  6
DASH_CENTER
 62
     1
 10
219.3558997141524
 20
31.180200000000799
 30
0.0
 11
219.3558997141524
 21
36.500200000000532
 31
0.0
  0
LINE
  5
4038
  8
0
  6
CONTINUOUS
 62
     7
 10
201.1058997141524
 20
-24.499799999999539
 30
0.0
 11
201.1058997141524
 21
-20.499799999999532
 31
0.0
  0
LINE
  5
4039
  8
0
  6
CONTINUOUS
 62
     7
 10
209.6058997141524
 20
-24.499799999999539
 30
0.0
 11
209.6058997141524
 21
-20.49980000000043
 31
0.0
  0
LINE
  5
403A
  8
0
  6
DASH_CENTER
 62
     1
 10
205.3558997141524
 20
-20.499799999999532
 30
0.0
 11
205.3558997141524
 21
-25.819800000000129
 31
0.0
  0
LINE
  5
403B
  8
0
  6
DASH_CENTER
 62
     1
 10
205.3558997141524
 20
-20.499799999999532
 30
0.0
 11
210.67589971415759
 21
-20.49980000000043
 31
0.0
  0
LINE
  5
403C
  8
0
  6
CONTINUOUS
 62
     7
 10
203.8558997141524
 20
-19.633774596215432
 30
0.0
 11
203.8558997141524
 21
-21.365825403784442
 31
0.0
  0
LINE
  5
403D
  8
0
  6
CONTINUOUS
 62
     7
 10
205.3558997141524
 20
-18.767749192430411
 30
0.0
 11
203.8558997141524
 21
-19.633774596215432
 31
0.0
  0
LINE
  5
403E
  8
0
  6
CONTINUOUS
 62
     7
 10
206.8558997141524
 20
-19.633774596215432
 30
0.0
 11
205.3558997141524
 21
-18.767749192430411
 31
0.0
  0
LINE
  5
403F
  8
0
  6
CONTINUOUS
 62
     7
 10
206.8558997141524
 20
-21.365825403784442
 30
0.0
 11
206.8558997141524
 21
-19.633774596215432
 31
0.0
  0
LINE
  5
4040
  8
0
  6
CONTINUOUS
 62
     7
 10
205.3558997141524
 20
-22.231850807568531
 30
0.0
 11
206.8558997141524
 21
-21.365825403784442
 31
0.0
  0
LINE
  5
4041
  8
0
  6
CONTINUOUS
 62
     7
 10
203.8558997141524
 20
-21.365825403784442
 30
0.0
 11
205.3558997141524
 21
-22.231850807568531
 31
0.0
  0
LINE
  5
4042
  8
0
  6
DASH_CENTER
 62
     1
 10
205.3558997141524
 20
-15.179799999999769
 30
0.0
 11
205.3558997141524
 21
-20.499799999999532
 31
0.0
  0
LINE
  5
4043
  8
0
  6
DASH_CENTER
 62
     1
 10
200.03589971415539
 20
-20.49980000000043
 30
0.0
 11
205.3558997141524
 21
-20.499799999999532
 31
0.0
  0
LINE
  5
4044
  8
0
  6
DASH_CENTER
 62
     1
 10
162.3558997141524
 20
50.500200000000532
 30
0.0
 11
162.3558997141524
 21
55.820200000000227
 31
0.0
  0
LINE
  5
4045
  8
0
  6
CONTINUOUS
 62
     7
 10
166.6058997141524
 20
54.500200000000518
 30
0.0
 11
166.6058997141524
 21
50.500200000000532
 31
0.0
  0
LINE
  5
4046
  8
0
  6
CONTINUOUS
 62
     7
 10
158.1058997141524
 20
54.500200000000518
 30
0.0
 11
158.1058997141524
 21
50.500200000000532
 31
0.0
  0
LINE
  5
4047
  8
0
  6
DASH_CENTER
 62
     1
 10
167.67589971415569
 20
50.500200000000532
 30
0.0
 11
162.3558997141524
 21
50.500200000000532
 31
0.0
  0
LINE
  5
4048
  8
0
  6
DASH_CENTER
 62
     1
 10
162.3558997141524
 20
45.180199999999893
 30
0.0
 11
162.3558997141524
 21
50.500200000000532
 31
0.0
  0
LINE
  5
4049
  8
0
  6
CONTINUOUS
 62
     7
 10
163.8558997141524
 20
51.366225403784597
 30
0.0
 11
162.3558997141524
 21
52.232250807569592
 31
0.0
  0
LINE
  5
404A
  8
0
  6
CONTINUOUS
 62
     7
 10
162.3558997141524
 20
52.232250807569592
 30
0.0
 11
160.8558997141524
 21
51.366225403784597
 31
0.0
  0
LINE
  5
404B
  8
0
  6
CONTINUOUS
 62
     7
 10
160.8558997141524
 20
51.366225403784597
 30
0.0
 11
160.8558997141524
 21
49.63417459621553
 31
0.0
  0
LINE
  5
404C
  8
0
  6
CONTINUOUS
 62
     7
 10
160.8558997141524
 20
49.63417459621553
 30
0.0
 11
162.3558997141524
 21
48.768149192431459
 31
0.0
  0
LINE
  5
404D
  8
0
  6
CONTINUOUS
 62
     7
 10
162.3558997141524
 20
48.768149192431459
 30
0.0
 11
163.8558997141524
 21
49.63417459621553
 31
0.0
  0
LINE
  5
404E
  8
0
  6
CONTINUOUS
 62
     7
 10
163.8558997141524
 20
49.63417459621553
 30
0.0
 11
163.8558997141524
 21
51.366225403784597
 31
0.0
  0
LINE
  5
404F
  8
0
  6
DASH_CENTER
 62
     1
 10
162.3558997141524
 20
50.500200000000532
 30
0.0
 11
157.03589971415539
 21
50.500200000000532
 31
0.0
  0
LINE
  5
4050
  8
0
  6
DASH_CENTER
 62
     1
 10
148.3558997141524
 20
36.500200000000532
 30
0.0
 11
153.67589971414941
 21
36.500199999999609
 31
0.0
  0
LINE
  5
4051
  8
0
  6
DASH_CENTER
 62
     1
 10
148.3558997141524
 20
36.500200000000532
 30
0.0
 11
148.3558997141524
 21
41.820200000000213
 31
0.0
  0
LINE
  5
4052
  8
0
  6
CONTINUOUS
 62
     7
 10
148.3558997141524
 20
34.768149192431451
 30
0.0
 11
149.8558997141524
 21
35.63417459621553
 31
0.0
  0
LINE
  5
4053
  8
0
  6
CONTINUOUS
 62
     7
 10
146.8558997141524
 20
35.63417459621553
 30
0.0
 11
148.3558997141524
 21
34.768149192431451
 31
0.0
  0
LINE
  5
4054
  8
0
  6
CONTINUOUS
 62
     7
 10
146.8558997141524
 20
37.366225403784597
 30
0.0
 11
146.8558997141524
 21
35.63417459621553
 31
0.0
  0
LINE
  5
4055
  8
0
  6
CONTINUOUS
 62
     7
 10
148.3558997141524
 20
38.232250807569592
 30
0.0
 11
146.8558997141524
 21
37.366225403784597
 31
0.0
  0
LINE
  5
4056
  8
0
  6
CONTINUOUS
 62
     7
 10
149.8558997141524
 20
37.366225403784597
 30
0.0
 11
148.3558997141524
 21
38.232250807569592
 31
0.0
  0
LINE
  5
4057
  8
0
  6
CONTINUOUS
 62
     7
 10
149.8558997141524
 20
35.63417459621553
 30
0.0
 11
149.8558997141524
 21
37.366225403784597
 31
0.0
  0
LINE
  5
4058
  8
0
  6
DASH_CENTER
 62
     1
 10
143.03589971414721
 20
36.500200000000532
 30
0.0
 11
148.3558997141524
 21
36.500200000000532
 31
0.0
  0
LINE
  5
4059
  8
0
  6
DASH_CENTER
 62
     1
 10
148.3558997141524
 20
31.180199999999889
 30
0.0
 11
148.3558997141524
 21
36.500200000000532
 31
0.0
  0
LINE
  5
405A
  8
0
  6
DASH_CENTER
 62
     1
 10
229.3558997141524
 20
15.00020000000052
 30
0.0
 11
138.3558997141524
 21
15.00020000000052
 31
0.0
  0
LINE
  5
405B
  8
0
  6
DASH_CENTER
 62
     1
 10
219.3558997141524
 20
-6.4997999999994791
 30
0.0
 11
219.3558997141524
 21
-1.179799999999769
 31
0.0
  0
LINE
  5
405C
  8
0
  6
DASH_CENTER
 62
     1
 10
219.3558997141524
 20
-6.4997999999994791
 30
0.0
 11
214.03589971414721
 21
-6.4998000000003877
 31
0.0
  0
LINE
  5
405D
  8
0
  6
CONTINUOUS
 62
     7
 10
221.08795052172241
 20
-6.4998000000003877
 30
0.0
 11
220.22192511793651
 21
-4.9997999999994791
 31
0.0
  0
LINE
  5
405E
  8
0
  6
CONTINUOUS
 62
     7
 10
220.22192511793651
 20
-7.9997999999994782
 30
0.0
 11
221.08795052172241
 21
-6.4998000000003877
 31
0.0
  0
LINE
  5
405F
  8
0
  6
CONTINUOUS
 62
     7
 10
218.4898743103638
 20
-7.9998000000003859
 30
0.0
 11
220.22192511793651
 21
-7.9997999999994782
 31
0.0
  0
LINE
  5
4060
  8
0
  6
CONTINUOUS
 62
     7
 10
217.62384890658331
 20
-6.4997999999994791
 30
0.0
 11
218.4898743103638
 21
-7.9998000000003859
 31
0.0
  0
LINE
  5
4061
  8
0
  6
CONTINUOUS
 62
     7
 10
218.4898743103638
 20
-4.9998000000003877
 30
0.0
 11
217.62384890658331
 21
-6.4997999999994791
 31
0.0
  0
LINE
  5
4062
  8
0
  6
CONTINUOUS
 62
     7
 10
220.22192511793651
 20
-4.9997999999994791
 30
0.0
 11
218.4898743103638
 21
-4.9998000000003877
 31
0.0
  0
LINE
  5
4063
  8
0
  6
DASH_CENTER
 62
     1
 10
219.3558997141524
 20
-11.8198000000001
 30
0.0
 11
219.3558997141524
 21
-6.4997999999994791
 31
0.0
  0
LINE
  5
4064
  8
0
  6
DASH_CENTER
 62
     1
 10
224.67589971414941
 20
-6.4998000000003877
 30
0.0
 11
219.3558997141524
 21
-6.4997999999994791
 31
0.0
  0
LINE
  5
4065
  8
0
  6
DASH_CENTER
 62
     1
 10
162.3558997141524
 20
-20.499799999999532
 30
0.0
 11
167.67589971414941
 21
-20.49980000000043
 31
0.0
  0
LINE
  5
4066
  8
0
  6
DASH_CENTER
 62
     1
 10
162.3558997141524
 20
-20.499799999999532
 30
0.0
 11
162.3558997141524
 21
-15.179799999999769
 31
0.0
  0
LINE
  5
4067
  8
0
  6
CONTINUOUS
 62
     7
 10
162.3558997141524
 20
-22.231850807568531
 30
0.0
 11
163.8558997141524
 21
-21.365825403784442
 31
0.0
  0
LINE
  5
4068
  8
0
  6
CONTINUOUS
 62
     7
 10
160.8558997141524
 20
-21.365825403784442
 30
0.0
 11
162.3558997141524
 21
-22.231850807568531
 31
0.0
  0
LINE
  5
4069
  8
0
  6
CONTINUOUS
 62
     7
 10
160.8558997141524
 20
-19.633774596215432
 30
0.0
 11
160.8558997141524
 21
-21.365825403784442
 31
0.0
  0
LINE
  5
406A
  8
0
  6
CONTINUOUS
 62
     7
 10
162.3558997141524
 20
-18.767749192430411
 30
0.0
 11
160.8558997141524
 21
-19.633774596215432
 31
0.0
  0
LINE
  5
406B
  8
0
  6
CONTINUOUS
 62
     7
 10
163.8558997141524
 20
-19.633774596215432
 30
0.0
 11
162.3558997141524
 21
-18.767749192430411
 31
0.0
  0
LINE
  5
406C
  8
0
  6
CONTINUOUS
 62
     7
 10
163.8558997141524
 20
-21.365825403784442
 30
0.0
 11
163.8558997141524
 21
-19.633774596215432
 31
0.0
  0
LINE
  5
406D
  8
0
  6
DASH_CENTER
 62
     1
 10
157.03589971414721
 20
-20.49980000000043
 30
0.0
 11
162.3558997141524
 21
-20.499799999999532
 31
0.0
  0
LINE
  5
406E
  8
0
  6
DASH_CENTER
 62
     1
 10
162.3558997141524
 20
-25.819800000000129
 30
0.0
 11
162.3558997141524
 21
-20.499799999999532
 31
0.0
  0
LINE
  5
406F
  8
0
  6
DASH_CENTER
 62
     1
 10
205.3558997141524
 20
55.820200000000227
 30
0.0
 11
205.3558997141524
 21
50.500200000000532
 31
0.0
  0
LINE
  5
4070
  8
0
  6
DASH_CENTER
 62
     1
 10
210.67589971414941
 20
50.500200000000532
 30
0.0
 11
205.3558997141524
 21
50.500200000000532
 31
0.0
  0
LINE
  5
4071
  8
0
  6
CONTINUOUS
 62
     7
 10
203.8558997141524
 20
51.366225403784597
 30
0.0
 11
203.8558997141524
 21
49.63417459621553
 31
0.0
  0
LINE
  5
4072
  8
0
  6
CONTINUOUS
 62
     7
 10
203.8558997141524
 20
49.63417459621553
 30
0.0
 11
205.3558997141524
 21
48.768149192431459
 31
0.0
  0
LINE
  5
4073
  8
0
  6
CONTINUOUS
 62
     7
 10
205.3558997141524
 20
48.768149192431459
 30
0.0
 11
206.8558997141524
 21
49.63417459621553
 31
0.0
  0
LINE
  5
4074
  8
0
  6
CONTINUOUS
 62
     7
 10
206.8558997141524
 20
49.63417459621553
 30
0.0
 11
206.8558997141524
 21
51.366225403784597
 31
0.0
  0
LINE
  5
4075
  8
0
  6
CONTINUOUS
 62
     7
 10
206.8558997141524
 20
51.366225403784597
 30
0.0
 11
205.3558997141524
 21
52.232250807569592
 31
0.0
  0
LINE
  5
4076
  8
0
  6
CONTINUOUS
 62
     7
 10
205.3558997141524
 20
52.232250807569592
 30
0.0
 11
203.8558997141524
 21
51.366225403784597
 31
0.0
  0
LINE
  5
4077
  8
0
  6
DASH_CENTER
 62
     1
 10
205.3558997141524
 20
50.500200000000532
 30
0.0
 11
205.3558997141524
 21
45.180199999999893
 31
0.0
  0
LINE
  5
4078
  8
0
  6
DASH_CENTER
 62
     1
 10
205.3558997141524
 20
50.500200000000532
 30
0.0
 11
200.03589971414911
 21
50.500200000000532
 31
0.0
  0
LINE
  5
4079
  8
0
  6
DASH_CENTER
 62
     1
 10
183.8558997141524
 20
70.700199999999441
 30
0.0
 11
183.8558997141524
 21
-30.49980000000043
 31
0.0
  0
LINE
  5
407A
  8
0
  6
CONTINUOUS
 62
     7
 10
223.8558997141524
 20
49.000200000000518
 30
0.0
 11
223.8558997141524
 21
-18.999799999999482
 31
0.0
  0
LINE
  5
407B
  8
0
  6
CONTINUOUS
 62
     7
 10
143.8558997141524
 20
49.000200000000518
 30
0.0
 11
143.8558997141524
 21
-18.999799999999482
 31
0.0
  0
LINE
  5
407C
  8
0
  6
CONTINUOUS
 62
     7
 10
217.8558997141524
 20
-24.999799999999539
 30
0.0
 11
149.8558997141524
 21
-24.999799999999539
 31
0.0
  0
LINE
  5
407D
  8
0
  6
DASH_CENTER
 62
     1
 10
210.12914736308329
 20
41.273447648935083
 30
0.0
 11
221.22226237200331
 21
52.366562657853237
 31
0.0
  0
LINE
  5
407E
  8
0
  6
CONTINUOUS
 62
     7
 10
209.6058997141524
 20
50.500200000000532
 30
0.0
 11
209.6058997141524
 21
54.500200000000518
 31
0.0
  0
LINE
  5
407F
  8
0
  6
CONTINUOUS
 62
     7
 10
201.1058997141524
 20
50.500200000000532
 30
0.0
 11
201.1058997141524
 21
54.500200000000518
 31
0.0
  0
LINE
  5
4080
  8
0
  6
DASH_CENTER
 62
     1
 10
157.58265206521421
 20
41.273447648935083
 30
0.0
 11
146.48953705629421
 21
52.366562657853237
 31
0.0
  0
LINE
  5
4081
  8
0
  6
CONTINUOUS
 62
     7
 10
148.3558997141524
 20
40.750200000000518
 30
0.0
 11
144.3558997141524
 21
40.750200000000518
 31
0.0
  0
LINE
  5
4082
  8
0
  6
CONTINUOUS
 62
     7
 10
148.3558997141524
 20
32.250200000000518
 30
0.0
 11
144.3558997141524
 21
32.250200000000518
 31
0.0
  0
LINE
  5
4083
  8
0
  6
DASH_CENTER
 62
     1
 10
157.5826520652133
 20
-11.27304764893495
 30
0.0
 11
146.48953705629421
 21
-22.366162657854922
 31
0.0
  0
LINE
  5
4084
  8
0
  6
CONTINUOUS
 62
     7
 10
158.1058997141524
 20
-20.49980000000043
 30
0.0
 11
158.1058997141524
 21
-24.499799999999539
 31
0.0
  0
LINE
  5
4085
  8
0
  6
CONTINUOUS
 62
     7
 10
166.6058997141524
 20
-20.499799999999532
 30
0.0
 11
166.6058997141524
 21
-24.499799999999539
 31
0.0
  0
LINE
  5
4086
  8
0
  6
DASH_CENTER
 62
     1
 10
210.12914736308329
 20
-11.27304764893495
 30
0.0
 11
221.2222623720024
 21
-22.366162657854922
 31
0.0
  0
LINE
  5
4087
  8
0
  6
CONTINUOUS
 62
     7
 10
219.3558997141524
 20
-10.74979999999948
 30
0.0
 11
223.3558997141524
 21
-10.74979999999948
 31
0.0
  0
LINE
  5
4088
  8
0
  6
CONTINUOUS
 62
     7
 10
219.3558997141524
 20
-2.2497999999994791
 30
0.0
 11
223.3558997141524
 21
-2.2497999999994791
 31
0.0
  0
LINE
  5
4089
  8
0
  6
CONTINUOUS
 62
     7
 10
149.8558997141524
 20
55.000199999998713
 30
0.0
 11
217.8558997141524
 21
55.000199999998713
 31
0.0
  0
LINE
  5
408A
  8
0
  6
CONTINUOUS
 62
     7
 10
201.8558997141524
 20
55.700200000001232
 30
0.0
 11
183.8558997141524
 21
55.700200000001232
 31
0.0
  0
LINE
  5
408B
  8
0
  6
DASH_CENTER
 62
     1
 10
195.5183518442943
 20
59.700199999999427
 30
0.0
 11
172.74699903247139
 21
59.700199999999427
 31
0.0
  0
LINE
  5
408C
  8
0
  6
CONTINUOUS
 62
     7
 10
165.8558997141524
 20
55.700200000001232
 30
0.0
 11
183.8558997141524
 21
55.700200000001232
 31
0.0
  0
LINE
  5
408D
  8
0
  6
CONTINUOUS
 62
     7
 10
165.8558997141524
 20
55.700200000001232
 30
0.0
 11
165.8558997141524
 21
60.494942298045423
 31
0.0
  0
LINE
  5
408E
  8
0
  6
CONTINUOUS
 62
     7
 10
165.93675468413099
 20
60.888861596624437
 30
0.0
 11
168.59615084211211
 21
67.094119298578448
 31
0.0
  0
LINE
  5
408F
  8
0
  6
CONTINUOUS
 62
     7
 10
169.5152958721288
 20
67.700199999999427
 30
0.0
 11
193.3558997141524
 21
67.700199999999427
 31
0.0
  0
LINE
  5
4090
  8
0
  6
CONTINUOUS
 62
     7
 10
199.1156485861863
 20
67.094119298578448
 30
0.0
 11
201.7750447441673
 21
60.888861596624437
 31
0.0
  0
LINE
  5
4091
  8
0
  6
CONTINUOUS
 62
     7
 10
187.45589971414719
 20
59.600199999999063
 30
0.0
 11
187.4558997141481
 21
55.90020000000105
 31
0.0
  0
LINE
  5
4092
  8
0
  6
CONTINUOUS
 62
     7
 10
180.2558997141484
 20
59.600199999999063
 30
0.0
 11
180.2558997141484
 21
55.90020000000105
 31
0.0
  0
LINE
  5
4094
  8
0
  6
CONTINUOUS
 62
     7
 10
193.8558997141524
 20
67.700199999999427
 30
0.0
 11
198.19650355617119
 21
67.700199999999427
 31
0.0
  0
LINE
  5
4095
  8
0
  6
CONTINUOUS
 62
     7
 10
193.3558997141524
 20
67.700199999999427
 30
0.0
 11
193.8558997141524
 21
67.700199999999427
 31
0.0
  0
LINE
  5
4096
  8
0
  6
CONTINUOUS
 62
     7
 10
201.8558997141524
 20
60.494942298045423
 30
0.0
 11
201.8558997141524
 21
55.700200000001232
 31
0.0
  0
ARC
  5
4098
  8
0
  6
CONTINUOUS
 62
     7
 10
144.3558997141524
 20
-1.7497999999994791
 30
0.0
 40
0.5
 50
180.0
 51
270.0
  0
ARC
  5
4099
  8
0
  6
CONTINUOUS
 62
     7
 10
144.3558997141524
 20
-11.24979999999948
 30
0.0
 40
0.5
 50
90.0
 51
180.0
  0
ARC
  5
409A
  8
0
  6
CONTINUOUS
 62
     7
 10
148.3558997141524
 20
-6.4997999999994791
 30
0.0
 40
4.2499999999999982
 50
270.0
 51
90.0
  0
ARC
  5
409B
  8
0
  6
CONTINUOUS
 62
     7
 10
148.3558997141524
 20
-6.4997999999994791
 30
0.0
 40
4.2499999999999982
 50
270.0
 51
90.0
  0
ARC
  5
409C
  8
0
  6
CONTINUOUS
 62
     7
 10
223.3558997141524
 20
31.750200000000518
 30
0.0
 40
0.5
 50
0.0
 51
90.0
  0
ARC
  5
409D
  8
0
  6
CONTINUOUS
 62
     7
 10
223.3558997141524
 20
41.250200000000518
 30
0.0
 40
0.5
 50
270.0
 51
0.0
  0
ARC
  5
409E
  8
0
  6
CONTINUOUS
 62
     7
 10
219.3558997141524
 20
36.500200000000532
 30
0.0
 40
4.25
 50
90.0
 51
270.0
  0
ARC
  5
409F
  8
0
  6
CONTINUOUS
 62
     7
 10
219.3558997141524
 20
36.500200000000532
 30
0.0
 40
4.25
 50
90.0
 51
270.0
  0
ARC
  5
40A0
  8
0
  6
CONTINUOUS
 62
     7
 10
200.6058997141524
 20
-24.499799999999539
 30
0.0
 40
0.5
 50
270.0
 51
0.0
  0
ARC
  5
40A1
  8
0
  6
CONTINUOUS
 62
     7
 10
210.1058997141524
 20
-24.499799999999539
 30
0.0
 40
0.5
 50
180.0
 51
270.0
  0
ARC
  5
40A2
  8
0
  6
CONTINUOUS
 62
     7
 10
205.3558997141524
 20
-20.499799999999532
 30
0.0
 40
4.25
 50
359.99999999998801
 51
180.0
  0
ARC
  5
40A3
  8
0
  6
CONTINUOUS
 62
     7
 10
205.3558997141524
 20
-20.499799999999532
 30
0.0
 40
4.25
 50
359.99999999998801
 51
180.0
  0
ARC
  5
40A4
  8
0
  6
CONTINUOUS
 62
     7
 10
167.1058997141524
 20
54.500200000000518
 30
0.0
 40
0.5
 50
90.0
 51
180.0
  0
ARC
  5
40A5
  8
0
  6
CONTINUOUS
 62
     7
 10
157.6058997141524
 20
54.500200000000518
 30
0.0
 40
0.5
 50
0.0
 51
90.0
  0
ARC
  5
40A6
  8
0
  6
CONTINUOUS
 62
     7
 10
162.3558997141524
 20
50.500200000000532
 30
0.0
 40
4.25
 50
180.0
 51
0.0
  0
ARC
  5
40A7
  8
0
  6
CONTINUOUS
 62
     7
 10
162.3558997141524
 20
50.500200000000532
 30
0.0
 40
4.25
 50
180.0
 51
0.0
  0
ARC
  5
40A8
  8
0
  6
CONTINUOUS
 62
     7
 10
205.3558997141524
 20
50.500200000000532
 30
0.0
 40
4.25
 50
180.0
 51
0.0
  0
ARC
  5
40A9
  8
0
  6
CONTINUOUS
 62
     7
 10
148.3558997141524
 20
36.500200000000532
 30
0.0
 40
4.25
 50
270.0
 51
90.0
  0
ARC
  5
40AA
  8
0
  6
CONTINUOUS
 62
     7
 10
162.3558997141524
 20
-20.499799999999532
 30
0.0
 40
4.25
 50
0.0
 51
180.00000000001199
  0
ARC
  5
40AB
  8
0
  6
CONTINUOUS
 62
     7
 10
219.3558997141524
 20
-6.4997999999994791
 30
0.0
 40
4.25
 50
90.0
 51
270.0
  0
ARC
  5
40AC
  8
0
  6
DASH_CENTER
 62
     1
 10
183.8558997141524
 20
15.000199999999611
 30
0.0
 40
44.999999999996149
 50
15.61144245088094
 51
55.000000000002032
  0
ARC
  5
40AD
  8
0
  6
CONTINUOUS
 62
     7
 10
205.3558997141524
 20
50.500200000000532
 30
0.0
 40
4.25
 50
180.0
 51
0.0
  0
ARC
  5
40AE
  8
0
  6
CONTINUOUS
 62
     7
 10
210.1058997141524
 20
54.500200000000518
 30
0.0
 40
0.5
 50
90.0
 51
180.0
  0
ARC
  5
40AF
  8
0
  6
CONTINUOUS
 62
     7
 10
200.6058997141524
 20
54.500200000000518
 30
0.0
 40
0.5
 50
0.0
 51
90.0
  0
ARC
  5
40B0
  8
0
  6
DASH_CENTER
 62
     1
 10
183.8558997141524
 20
15.000199999999611
 30
0.0
 40
45.000000000002252
 50
125.0000000000046
 51
145.00000000000179
  0
ARC
  5
40B1
  8
0
  6
CONTINUOUS
 62
     7
 10
148.3558997141524
 20
36.500200000000532
 30
0.0
 40
4.25
 50
270.0
 51
90.0
  0
ARC
  5
40B2
  8
0
  6
CONTINUOUS
 62
     7
 10
144.3558997141524
 20
41.250200000000518
 30
0.0
 40
0.5
 50
180.0
 51
270.0
  0
ARC
  5
40B3
  8
0
  6
CONTINUOUS
 62
     7
 10
144.3558997141524
 20
31.750200000000518
 30
0.0
 40
0.5
 50
90.0
 51
180.0
  0
ARC
  5
40B4
  8
0
  6
DASH_CENTER
 62
     1
 10
183.8558997141524
 20
15.000199999999611
 30
0.0
 40
45.000000000002949
 50
195.61144245087721
 51
234.9999999999971
  0
ARC
  5
40B5
  8
0
  6
CONTINUOUS
 62
     7
 10
162.3558997141524
 20
-20.499799999999532
 30
0.0
 40
4.25
 50
0.0
 51
180.00000000001199
  0
ARC
  5
40B6
  8
0
  6
CONTINUOUS
 62
     7
 10
157.6058997141524
 20
-24.499799999999539
 30
0.0
 40
0.5
 50
270.0
 51
0.0
  0
ARC
  5
40B7
  8
0
  6
CONTINUOUS
 62
     7
 10
167.1058997141524
 20
-24.499799999999539
 30
0.0
 40
0.5
 50
180.0
 51
270.0
  0
ARC
  5
40B8
  8
0
  6
DASH_CENTER
 62
     1
 10
183.8558997141524
 20
15.000199999999611
 30
0.0
 40
44.999999999999361
 50
304.99999999999733
 51
324.9999999999967
  0
ARC
  5
40B9
  8
0
  6
CONTINUOUS
 62
     7
 10
219.3558997141524
 20
-6.4997999999994791
 30
0.0
 40
4.25
 50
90.0
 51
270.0
  0
ARC
  5
40BA
  8
0
  6
CONTINUOUS
 62
     7
 10
223.3558997141524
 20
-11.24979999999948
 30
0.0
 40
0.5
 50
0.0
 51
90.0
  0
ARC
  5
40BB
  8
0
  6
CONTINUOUS
 62
     7
 10
223.3558997141524
 20
-1.7497999999994791
 30
0.0
 40
0.5000000000000002
 50
270.0
 51
0.0
  0
ARC
  5
40BC
  8
0
  6
CONTINUOUS
 62
     7
 10
183.8558997141524
 20
59.700199999999427
 30
0.0
 40
3.200000000000732
 50
270.64740571525329
 51
270.0
  0
ARC
  5
40BD
  8
0
  6
CONTINUOUS
 62
     7
 10
183.8558997141524
 20
59.600199999999973
 30
0.0
 40
3.5999999999949051
 50
359.9999999999855
 51
180.0000000000145
  0
ARC
  5
40BE
  8
0
  6
CONTINUOUS
 62
     7
 10
166.20589971414731
 20
55.35019999999907
 30
0.0
 40
0.3500000000021899
 50
90.0
 51
270.00000000014421
  0
ARC
  5
40BF
  8
0
  6
CONTINUOUS
 62
     7
 10
201.50589971414939
 20
55.35019999999907
 30
0.0
 40
0.3500000000003638
 50
270.0
 51
90.0
  0
ARC
  5
40C0
  8
0
  6
CONTINUOUS
 62
     7
 10
183.8558997141524
 20
15.000199999999611
 30
0.0
 40
9.899999999997787
 50
0.00000000000526
 51
90.0
  0
ARC
  5
40C1
  8
0
  6
CONTINUOUS
 62
     7
 10
183.8558997141524
 20
15.000199999999611
 30
0.0
 40
9.8999999999977888
 50
90.0
 51
0.00000000000526
  0
ARC
  5
40C2
  8
0
  6
CONTINUOUS
 62
     7
 10
183.8558997141524
 20
15.000199999999611
 30
0.0
 40
10.25
 50
0.00000000000508
 51
90.0
  0
ARC
  5
40C3
  8
0
  6
CONTINUOUS
 62
     7
 10
183.8558997141524
 20
15.000199999999611
 30
0.0
 40
10.25
 50
90.0
 51
0.00000000000508
  0
CIRCLE
  5
40C4
  8
0
  6
CONTINUOUS
 62
     7
 10
148.3558997141524
 20
-6.4997999999994791
 30
0.0
 40
3.5
  0
CIRCLE
  5
40C5
  8
0
  6
CONTINUOUS
 62
     7
 10
148.3558997141524
 20
-6.4997999999994791
 30
0.0
 40
3.799999999999272
  0
CIRCLE
  5
40C6
  8
0
  6
CONTINUOUS
 62
     7
 10
219.3558997141524
 20
36.500200000000532
 30
0.0
 40
3.5
  0
CIRCLE
  5
40C7
  8
0
  6
CONTINUOUS
 62
     7
 10
219.3558997141524
 20
36.500200000000532
 30
0.0
 40
3.7999999999965999
  0
CIRCLE
  5
40C8
  8
0
  6
CONTINUOUS
 62
     7
 10
205.3558997141524
 20
-20.499799999999532
 30
0.0
 40
3.5
  0
CIRCLE
  5
40C9
  8
0
  6
CONTINUOUS
 62
     7
 10
205.3558997141524
 20
-20.499799999999532
 30
0.0
 40
3.8000000000001002
  0
CIRCLE
  5
40CA
  8
0
  6
CONTINUOUS
 62
     7
 10
162.3558997141524
 20
50.500200000000532
 30
0.0
 40
3.800000000000181
  0
CIRCLE
  5
40CB
  8
0
  6
CONTINUOUS
 62
     7
 10
162.3558997141524
 20
50.500200000000532
 30
0.0
 40
3.5
  0
CIRCLE
  5
40CC
  8
0
  6
CONTINUOUS
 62
     7
 10
148.3558997141524
 20
36.500200000000532
 30
0.0
 40
3.7999999999992631
  0
CIRCLE
  5
40CD
  8
0
  6
CONTINUOUS
 62
     7
 10
148.3558997141524
 20
36.500200000000532
 30
0.0
 40
3.5
  0
CIRCLE
  5
40CE
  8
0
  6
CONTINUOUS
 62
     7
 10
219.3558997141524
 20
-6.4997999999994791
 30
0.0
 40
3.7999999999965999
  0
CIRCLE
  5
40CF
  8
0
  6
CONTINUOUS
 62
     7
 10
219.3558997141524
 20
-6.4997999999994791
 30
0.0
 40
3.5
  0
CIRCLE
  5
40D0
  8
0
  6
CONTINUOUS
 62
     7
 10
162.3558997141524
 20
-20.499799999999532
 30
0.0
 40
3.8000000000001002
  0
CIRCLE
  5
40D1
  8
0
  6
CONTINUOUS
 62
     7
 10
162.3558997141524
 20
-20.499799999999532
 30
0.0
 40
3.5
  0
CIRCLE
  5
40D2
  8
0
  6
CONTINUOUS
 62
     7
 10
205.3558997141524
 20
50.500200000000532
 30
0.0
 40
3.5
  0
CIRCLE
  5
40D3
  8
0
  6
CONTINUOUS
 62
     7
 10
205.3558997141524
 20
50.500200000000532
 30
0.0
 40
3.800000000000181
  0
CIRCLE
  5
40D4
  8
0
  6
CONTINUOUS
 62
     7
 10
183.8558997141524
 20
15.000199999999611
 30
0.0
 40
14.699999999998001
  0
CIRCLE
  5
40D5
  8
0
  6
CONTINUOUS
 62
     7
 10
183.8558997141524
 20
15.000199999999611
 30
0.0
 40
15.566025403782991
  0
CIRCLE
  5
40D6
  8
0
  6
CONTINUOUS
 62
     7
 10
183.8558997141524
 20
15.000199999999611
 30
0.0
 40
14.699999999998001
  0
CIRCLE
  5
40D7
  8
0
  6
CONTINUOUS
 62
     7
 10
183.8558997141524
 20
15.000199999999611
 30
0.0
 40
15.566025403782991
  0
CIRCLE
  5
40D8
  8
0
  6
CONTINUOUS
 62
     7
 10
183.8558997141524
 20
15.000199999999611
 30
0.0
 40
35.0
  0
CIRCLE
  5
40D9
  8
0
  6
CONTINUOUS
 62
     7
 10
215.67570486754511
 20
46.820005153395073
 30
0.0
 40
3.0
  0
CIRCLE
  5
40DA
  8
0
  6
CONTINUOUS
 62
     7
 10
152.03609456075409
 20
46.820005153395073
 30
0.0
 40
3.0
  0
CIRCLE
  5
40DB
  8
0
  6
CONTINUOUS
 62
     7
 10
215.67570486754329
 20
-16.819605153394939
 30
0.0
 40
3.0
  0
CIRCLE
  5
40DC
  8
0
  6
CONTINUOUS
 62
     7
 10
152.0360945607533
 20
-16.819605153394939
 30
0.0
 40
3.0
  0
ARC
  5
40DE
  8
0
  6
CONTINUOUS
 62
     7
 10
217.8558997141524
 20
49.000200000000518
 30
0.0
 40
6.0
 50
0.0
 51
90.0
  0
ARC
  5
40DF
  8
0
  6
CONTINUOUS
 62
     7
 10
149.8558997141524
 20
49.000200000000518
 30
0.0
 40
6.0
 50
90.0
 51
180.0
  0
ARC
  5
40E0
  8
0
  6
CONTINUOUS
 62
     7
 10
149.8558997141524
 20
-18.999799999999482
 30
0.0
 40
6.0
 50
180.0
 51
270.0
  0
ARC
  5
40E1
  8
0
  6
CONTINUOUS
 62
     7
 10
217.8558997141524
 20
-18.999799999999482
 30
0.0
 40
6.000000000000056
 50
270.0
 51
0.0
  0
ARC
  5
40E2
  8
0
  6
CONTINUOUS
 62
     7
 10
187.6558997141471
 20
55.90020000000105
 30
0.0
 40
0.1999999999989086
 50
180.0
 51
270.00000000026063
  0
ARC
  5
40E3
  8
0
  6
CONTINUOUS
 62
     7
 10
180.0558997141504
 20
55.90020000000105
 30
0.0
 40
0.1999999999998039
 50
270.0
 51
0.0
  0
ARC
  5
40E4
  8
0
  6
CONTINUOUS
 62
     7
 10
169.5152958721288
 20
66.700199999999427
 30
0.0
 40
1.0
 50
90.0
 51
156.80140948633061
  0
ARC
  5
40E5
  8
0
  6
CONTINUOUS
 62
     7
 10
198.19650355617119
 20
66.700199999999427
 30
0.0
 40
0.9999999999971208
 50
23.198590513709771
 51
90.0
  0
ARC
  5
40E6
  8
0
  6
CONTINUOUS
 62
     7
 10
166.8558997141524
 20
60.494942298045423
 30
0.0
 40
1.000000000002915
 50
156.80140948643341
 51
180.0
  0
ARC
  5
40E7
  8
0
  6
CONTINUOUS
 62
     7
 10
200.8558997141524
 20
60.494942298045423
 30
0.0
 40
1.0
 50
0.0
 51
23.198590513709028
  0
LINE
  5
4445
  8
0
  6
CONTINUOUS
 62
     7
 10
149.81285049964509
 20
103.2969482850224
 30
0.0
 11
149.81285049964509
 21
121.8758769433464
 31
0.0
  0
LINE
  5
4446
  8
0
  6
CONTINUOUS
 62
     7
 10
146.31484005426799
 20
97.796948285022424
 30
0.0
 11
139.04815660115241
 21
97.796948285022424
 31
0.0
  0
LINE
  5
4447
  8
0
  6
CONTINUOUS
 62
     7
 10
146.8148400542681
 20
137.79694828502249
 30
0.0
 11
146.8148400542681
 21
98.296948285022438
 31
0.0
  0
LINE
  5
4448
  8
0
  6
CONTINUOUS
 62
     7
 10
149.31484005426799
 20
102.7969482850224
 30
0.0
 11
147.1148400542682
 21
102.7969482850224
 31
0.0
  0
LINE
  5
4449
  8
0
  6
CONTINUOUS
 62
     7
 10
149.8148400542681
 20
137.79694828502249
 30
0.0
 11
149.8148400542681
 21
103.2969482850224
 31
0.0
  0
LINE
  5
444A
  8
0
  6
CONTINUOUS
 62
     7
 10
149.8148400542681
 20
103.2969482850224
 30
0.0
 11
149.31484005426799
 21
102.7969482850224
 31
0.0
  0
LINE
  5
444B
  8
0
  6
CONTINUOUS
 62
     7
 10
146.8148400542681
 20
98.296948285022438
 30
0.0
 11
146.31484005426799
 21
97.796948285022424
 31
0.0
  0
LINE
  5
444C
  8
0
  6
DASH_CENTER
 62
     1
 10
186.81285049964521
 20
137.79694828502249
 30
0.0
 11
141.149549307114
 21
137.79694828502249
 31
0.0
  0
LINE
  5
444D
  8
0
  6
CONTINUOUS
 62
     7
 10
141.61652515200009
 20
177.79694828502249
 30
0.0
 11
146.31484005426799
 21
177.79694828502249
 31
0.0
  0
LINE
  5
444E
  8
0
  6
CONTINUOUS
 62
     7
 10
149.81285049964509
 20
128.29694828502249
 30
0.0
 11
153.81285049964509
 21
128.29694828502249
 31
0.0
  0
LINE
  5
444F
  8
0
  6
CONTINUOUS
 62
     7
 10
181.31285049964509
 20
147.29694828502249
 30
0.0
 11
149.81285049964509
 21
147.29694828502249
 31
0.0
  0
LINE
  5
4450
  8
0
  6
CONTINUOUS
 62
     7
 10
181.81285049964521
 20
128.79694828502249
 30
0.0
 11
181.81285049964521
 21
146.79694828502249
 31
0.0
  0
LINE
  5
4451
  8
0
  6
CONTINUOUS
 62
     7
 10
153.81285049964509
 20
128.29694828502249
 30
0.0
 11
181.31285049964509
 21
128.29694828502249
 31
0.0
  0
LINE
  5
4452
  8
0
  6
CONTINUOUS
 62
     7
 10
181.81285049964521
 20
146.79694828502249
 30
0.0
 11
181.31285049964509
 21
147.29694828502249
 31
0.0
  0
LINE
  5
4453
  8
0
  6
CONTINUOUS
 62
     7
 10
181.31285049964509
 20
128.29694828502249
 30
0.0
 11
181.81285049964521
 21
128.79694828502249
 31
0.0
  0
LINE
  5
4454
  8
0
  6
CONTINUOUS
 62
     7
 10
181.31285049964509
 20
128.29694828502249
 30
0.0
 11
181.81285049964521
 21
128.79694828502249
 31
0.0
  0
LINE
  5
4455
  8
0
  6
CONTINUOUS
 62
     7
 10
181.81285049964521
 20
146.79694828502249
 30
0.0
 11
181.31285049964509
 21
147.29694828502249
 31
0.0
  0
LINE
  5
4456
  8
0
  6
CONTINUOUS
 62
     7
 10
153.81285049964509
 20
128.29694828502249
 30
0.0
 11
181.31285049964509
 21
128.29694828502249
 31
0.0
  0
LINE
  5
4457
  8
0
  6
CONTINUOUS
 62
     7
 10
181.81285049964521
 20
128.79694828502249
 30
0.0
 11
181.81285049964521
 21
149.79694828502249
 31
0.0
  0
LINE
  5
4458
  8
0
  6
CONTINUOUS
 62
     7
 10
181.31285049964509
 20
147.29694828502249
 30
0.0
 11
149.81285049964509
 21
147.29694828502249
 31
0.0
  0
LINE
  5
4459
  8
0
  6
CONTINUOUS
 62
     7
 10
149.81285049964509
 20
128.29694828502249
 30
0.0
 11
153.81285049964509
 21
128.29694828502249
 31
0.0
  0
LINE
  5
445A
  8
0
  6
CONTINUOUS
 62
     7
 10
139.3148400542681
 20
177.79694828502249
 30
0.0
 11
146.31484005426799
 21
177.79694828502249
 31
0.0
  0
LINE
  5
445B
  8
0
  6
CONTINUOUS
 62
     7
 10
146.8148400542681
 20
177.29694828502249
 30
0.0
 11
146.8148400542681
 21
137.79694828502249
 31
0.0
  0
LINE
  5
445C
  8
0
  6
CONTINUOUS
 62
     7
 10
147.1148400542682
 20
172.79694828502249
 30
0.0
 11
149.31484005426799
 21
172.79694828502249
 31
0.0
  0
LINE
  5
445D
  8
0
  6
CONTINUOUS
 62
     7
 10
149.8148400542681
 20
172.29694828502249
 30
0.0
 11
149.8148400542681
 21
137.79694828502249
 31
0.0
  0
LINE
  5
445E
  8
0
  6
CONTINUOUS
 62
     7
 10
149.31484005426799
 20
172.79694828502249
 30
0.0
 11
149.8148400542681
 21
172.29694828502249
 31
0.0
  0
LINE
  5
445F
  8
0
  6
CONTINUOUS
 62
     7
 10
146.31484005426799
 20
177.79694828502249
 30
0.0
 11
146.8148400542681
 21
177.29694828502249
 31
0.0
  0
ARC
  5
4460
  8
0
  6
CONTINUOUS
 62
     7
 10
147.1148400542682
 20
102.4969482850241
 30
0.0
 40
0.2999999999982919
 50
90.0
 51
180.0
  0
ARC
  5
4461
  8
0
  6
CONTINUOUS
 62
     7
 10
147.1148400542682
 20
173.0969482850218
 30
0.0
 40
0.3000000000001819
 50
180.0
 51
270.0
  0
LINE
  5
4462
  8
0
  6
DASH_CENTER
 62
     1
 10
230.32606094454721
 20
159.17871972878271
 30
0.0
 11
230.32606094454721
 21
116.18658753867849
 31
0.0
  0
LINE
  5
4463
  8
0
 10
227.32606094454721
 20
149.79694828502249
 30
0.0
 11
227.32606094454721
 21
143.79694828502249
 31
0.0
  0
LINE
  5
4464
  8
0
 10
233.32606094454721
 20
149.79694828502249
 30
0.0
 11
233.32606094454721
 21
143.79694828502249
 31
0.0
  0
LINE
  5
4465
  8
0
  6
DASH_CENTER
 62
     1
 10
249.52186112443721
 20
137.79694828502249
 30
0.0
 11
209.04878764405771
 21
137.79694828502249
 31
0.0
  0
ARC
  5
4466
  8
0
 10
230.32606094454721
 20
137.79694828502249
 30
0.0
 40
9.5
 50
108.4084801705864
 51
71.591519829413585
  0
LINE
  5
4467
  8
0
  6
CONTINUOUS
 62
     7
 10
159.81285049964521
 20
147.29694828502249
 30
0.0
 11
159.81285049964521
 21
149.79694828502249
 31
0.0
  0
LINE
  5
4468
  8
0
  6
DASH_CENTER
 62
     1
 10
186.81285049964521
 20
192.34610561283031
 30
0.0
 11
153.29092267812661
 21
192.34610561283031
 31
0.0
  0
LINE
  5
4469
  8
0
  6
CONTINUOUS
 62
     7
 10
181.81285049964509
 20
195.34610561283031
 30
0.0
 11
159.81285049964521
 21
195.3461056128304
 31
0.0
  0
LINE
  5
446A
  8
0
  6
CONTINUOUS
 62
     7
 10
181.81285049964521
 20
189.34610561283031
 30
0.0
 11
159.81285049964521
 21
189.34610561283031
 31
0.0
  0
LINE
  5
446B
  8
0
  6
CONTINUOUS
 62
     7
 10
159.81285049964521
 20
189.34610561283031
 30
0.0
 11
159.81285049964521
 21
195.34610561283031
 31
0.0
  0
CIRCLE
  5
446C
  8
0
  6
CONTINUOUS
 62
     2
 10
230.32606094454721
 20
137.79694828502249
 30
0.0
 40
2.5
  0
CIRCLE
  5
446D
  8
0
  6
CONTINUOUS
 62
     7
 10
230.32606094454721
 20
137.79694828502249
 30
0.0
 40
2.0
  0
LINE
  5
446E
  8
0
  6
CONTINUOUS
 62
     7
 10
227.32606094454721
 20
143.79694828502249
 30
0.0
 11
233.32606094454729
 21
143.79694828502249
 31
0.0
  0
LINE
  5
446F
  8
0
  6
CONTINUOUS
 62
     7
 10
159.81285049964521
 20
149.79694828502249
 30
0.0
 11
181.81285049964521
 21
149.79694828502249
 31
0.0
  0
LINE
  5
4470
  8
0
  6
CONTINUOUS
 62
     7
 10
227.32606094454721
 20
149.79694828502249
 30
0.0
 11
233.32606094454721
 21
149.79694828502249
 31
0.0
  0
LINE
  5
4471
  8
0
  6
CONTINUOUS
 62
     7
 10
181.81285049964521
 20
189.34610561283031
 30
0.0
 11
181.81285049964521
 21
195.34610561283031
 31
0.0
  0
ARC
  5
4472
  8
0
 10
159.81285049964521
 20
192.34610561283031
 30
0.0
 40
3.0
 50
90.0
 51
270.0
  0
ENDSEC
  0
EOF
