  0
SECTION
  2
HEADER
  9
$ACADVER
  1
AC1009
  9
$INSBASE
 10
0.0
 20
0.0
 30
0.0
  9
$EXTMIN
 10
-355.1649150252095
 20
-162.408535700291
 30
0.0
  9
$EXTMAX
 10
357.43491961145759
 20
212.9259444086255
 30
0.0
  9
$LIMMIN
 10
0.0
 20
0.0
  9
$LIMMAX
 10
12.0
 20
9.0
  9
$ORTHOMODE
 70
     0
  9
$REGENMODE
 70
     1
  9
$FILLMODE
 70
     1
  9
$QTEXTMODE
 70
     0
  9
$MIRRTEXT
 70
     1
  9
$DRAGMODE
 70
     2
  9
$LTSCALE
 40
1.0
  9
$OSMODE
 70
   175
  9
$ATTMODE
 70
     1
  9
$TEXTSIZE
 40
0.2
  9
$TRACEWID
 40
0.05
  9
$TEXTSTYLE
  7
STANDARD
  9
$CLAYER
  8
0
  9
$CELTYPE
  6
BYLAYER
  9
$CECOLOR
 62
   256
  9
$DIMSCALE
 40
1.0
  9
$DIMASZ
 40
0.18
  9
$DIMEXO
 40
0.0625
  9
$DIMDLI
 40
0.38
  9
$DIMRND
 40
0.0
  9
$DIMDLE
 40
0.0
  9
$DIMEXE
 40
0.18
  9
$DIMTP
 40
0.0
  9
$DIMTM
 40
0.0
  9
$DIMTXT
 40
0.18
  9
$DIMCEN
 40
0.09
  9
$DIMTSZ
 40
0.0
  9
$DIMTOL
 70
     0
  9
$DIMLIM
 70
     0
  9
$DIMTIH
 70
     1
  9
$DIMTOH
 70
     1
  9
$DIMSE1
 70
     0
  9
$DIMSE2
 70
     0
  9
$DIMTAD
 70
     0
  9
$DIMZIN
 70
     0
  9
$DIMBLK
  1

  9
$DIMASO
 70
     1
  9
$DIMSHO
 70
     1
  9
$DIMPOST
  1

  9
$DIMAPOST
  1

  9
$DIMALT
 70
     0
  9
$DIMALTD
 70
     2
  9
$DIMALTF
 40
25.399999999999999
  9
$DIMLFAC
 40
1.0
  9
$DIMTOFL
 70
     0
  9
$DIMTVP
 40
0.0
  9
$DIMTIX
 70
     0
  9
$DIMSOXD
 70
     0
  9
$DIMSAH
 70
     0
  9
$DIMBLK1
  1

  9
$DIMBLK2
  1

  9
$DIMSTYLE
  2
STANDARD
  9
$DIMCLRD
 70
     0
  9
$DIMCLRE
 70
     0
  9
$DIMCLRT
 70
     0
  9
$DIMTFAC
 40
1.0
  9
$DIMGAP
 40
0.09
  9
$LUNITS
 70
     2
  9
$LUPREC
 70
     4
  9
$SKETCHINC
 40
0.1
  9
$FILLETRAD
 40
0.5
  9
$AUNITS
 70
     0
  9
$AUPREC
 70
     0
  9
$MENU
  1
.
  9
$ELEVATION
 40
0.0
  9
$PELEVATION
 40
0.0
  9
$THICKNESS
 40
0.0
  9
$LIMCHECK
 70
     0
  9
$BLIPMODE
 70
     0
  9
$CHAMFERA
 40
0.5
  9
$CHAMFERB
 40
0.5
  9
$SKPOLY
 70
     0
  9
$TDCREATE
 40
2457042.3689414472
  9
$TDUPDATE
 40
2457100.4476933102
  9
$TDINDWG
 40
0.0070828472
  9
$TDUSRTIMER
 40
0.0070828472
  9
$USRTIMER
 70
     1
  9
$ANGBASE
 50
0.0
  9
$ANGDIR
 70
     0
  9
$PDMODE
 70
     0
  9
$PDSIZE
 40
0.0
  9
$PLINEWID
 40
0.0
  9
$COORDS
 70
     1
  9
$SPLFRAME
 70
     0
  9
$SPLINETYPE
 70
     6
  9
$SPLINESEGS
 70
     8
  9
$ATTDIA
 70
     0
  9
$ATTREQ
 70
     1
  9
$HANDLING
 70
     1
  9
$HANDSEED
  5
B2C
  9
$SURFTAB1
 70
     6
  9
$SURFTAB2
 70
     6
  9
$SURFTYPE
 70
     6
  9
$SURFU
 70
     6
  9
$SURFV
 70
     6
  9
$UCSNAME
  2

  9
$UCSORG
 10
0.0
 20
0.0
 30
0.0
  9
$UCSXDIR
 10
1.0
 20
0.0
 30
0.0
  9
$UCSYDIR
 10
0.0
 20
1.0
 30
0.0
  9
$PUCSNAME
  2

  9
$PUCSORG
 10
0.0
 20
0.0
 30
0.0
  9
$PUCSXDIR
 10
1.0
 20
0.0
 30
0.0
  9
$PUCSYDIR
 10
0.0
 20
1.0
 30
0.0
  9
$USERI1
 70
     0
  9
$USERI2
 70
     0
  9
$USERI3
 70
     0
  9
$USERI4
 70
     0
  9
$USERI5
 70
     0
  9
$USERR1
 40
18.100000000000001
  9
$USERR2
 40
0.0
  9
$USERR3
 40
0.0
  9
$USERR4
 40
0.0
  9
$USERR5
 40
0.0
  9
$WORLDVIEW
 70
     1
  9
$SHADEDGE
 70
     3
  9
$SHADEDIF
 70
    70
  9
$TILEMODE
 70
     1
  9
$MAXACTVP
 70
    64
  9
$PLIMCHECK
 70
     0
  9
$PEXTMIN
 10
1.0000000000000000E+020
 20
1.0000000000000000E+020
 30
1.0000000000000000E+020
  9
$PEXTMAX
 10
-1.0000000000000000E+020
 20
-1.0000000000000000E+020
 30
-1.0000000000000000E+020
  9
$PLIMMIN
 10
0.0
 20
0.0
  9
$PLIMMAX
 10
12.0
 20
9.0
  9
$UNITMODE
 70
     0
  9
$VISRETAIN
 70
     1
  9
$PLINEGEN
 70
     0
  9
$PSLTSCALE
 70
     1
  0
ENDSEC
  0
SECTION
  2
TABLES
  0
TABLE
  2
VPORT
 70
     1
  0
VPORT
  2
*ACTIVE
 70
     0
 10
0.0
 20
0.0
 11
1.0
 21
1.0
 12
1.124260114948356
 22
25.24262213277439
 13
0.0
 23
0.0
 14
0.5
 24
0.5
 15
0.5
 25
0.5
 16
0.0
 26
0.0
 36
1.0
 17
0.0
 27
0.0
 37
0.0
 40
378.26849248292041
 41
2.0238693467336679
 42
50.0
 43
0.0
 44
0.0
 50
0.0
 51
0.0
 71
     0
 72
   100
 73
     1
 74
     2
 75
     0
 76
     0
 77
     0
 78
     0
  0
ENDTAB
  0
TABLE
  2
LTYPE
 70
     3
  0
LTYPE
  2
CONTINUOUS
 70
     0
  3
Solid line
 72
    65
 73
     0
 40
0.0
  0
LTYPE
  2
DASHED
 70
     0
  3
Dashed
 72
    65
 73
     2
 40
15.0
 49
7.0
 49
-8.0
  0
LTYPE
  2
DASH_CENTER
 70
     0
  3
Dash_Center
 72
    65
 73
     4
 40
14.0
 49
11.0
 49
-1.0
 49
1.0
 49
-1.0
  0
ENDTAB
  0
TABLE
  2
LAYER
 70
     1
  0
LAYER
  2
0
 70
     0
 62
     7
  6
CONTINUOUS
  0
ENDTAB
  0
TABLE
  2
STYLE
 70
     1
  0
STYLE
  2
STANDARD
 70
     0
 40
0.0
 41
1.0
 50
0.0
 71
     0
 42
0.2
  3
txt
  4

  0
ENDTAB
  0
TABLE
  2
VIEW
 70
     0
  0
ENDTAB
  0
TABLE
  2
UCS
 70
     0
  0
ENDTAB
  0
TABLE
  2
APPID
 70
     3
  0
APPID
  2
ACAD
 70
     0
  0
APPID
  2
ACAD_EXEMPT_FROM_CAD_STANDARDS
 70
     0
  0
APPID
  2
ACAD_MLEADERVER
 70
     0
  0
ENDTAB
  0
TABLE
  2
DIMSTYLE
 70
     1
  0
DIMSTYLE
  2
STANDARD
 70
     0
  3

  4

  5

  6

  7

 40
1.0
 41
0.18
 42
0.0625
 43
0.38
 44
0.18
 45
0.0
 46
0.0
 47
0.0
 48
0.0
140
0.18
141
0.09
142
0.0
143
25.399999999999999
144
1.0
145
0.0
146
1.0
147
0.09
 71
     0
 72
     0
 73
     1
 74
     1
 75
     0
 76
     0
 77
     0
 78
     0
170
     0
171
     2
172
     0
173
     0
174
     0
175
     0
176
     0
177
     0
178
     0
  0
ENDTAB
  0
ENDSEC
  0
SECTION
  2
BLOCKS
  0
BLOCK
  8
0
  2
$MODEL_SPACE
 70
     0
 10
0.0
 20
0.0
 30
0.0
  3
$MODEL_SPACE
  1

  0
ENDBLK
  5
21
  8
0
  0
BLOCK
 67
     1
  8
0
  2
$PAPER_SPACE
 70
     0
 10
0.0
 20
0.0
 30
0.0
  3
$PAPER_SPACE
  1

  0
ENDBLK
  5
1D
 67
     1
  8
0
  0
ENDSEC
  0
SECTION
  2
ENTITIES
  0
LINE
  5
A6
  8
0
  6
CONTINUOUS
 62
     7
 10
-82.232857457109944
 20
155.14594381685461
 30
0.0
 11
-82.632857457109964
 21
154.74594381685449
 31
0.0
  0
LINE
  5
A7
  8
0
  6
CONTINUOUS
 62
     7
 10
-89.830352296421552
 20
176.53568072314431
 30
0.0
 11
-118.3130858422146
 21
176.53568072314431
 31
0.0
  0
LINE
  5
A8
  8
0
  6
CONTINUOUS
 62
     7
 10
-120.19155254586801
 20
159.22888465604831
 30
0.0
 11
-120.08035229641879
 21
166.09568072314099
 31
0.0
  0
LINE
  5
A9
  8
0
  6
CONTINUOUS
 62
     7
 10
-88.222691899570236
 20
159.44747630513541
 30
0.0
 11
-88.330352296421538
 21
166.09568072314099
 31
0.0
  0
LINE
  5
AA
  8
0
  6
CONTINUOUS
 62
     7
 10
-96.767852296418823
 20
168.08427640039599
 30
0.0
 11
-96.767852296418823
 21
167.84568072314099
 31
0.0
  0
LINE
  5
AB
  8
0
  6
CONTINUOUS
 62
     7
 10
-89.330352296421566
 20
176.03568072314431
 30
0.0
 11
-89.330352296421566
 21
167.09568072314099
 31
0.0
  0
LINE
  5
AC
  8
0
  6
CONTINUOUS
 62
     7
 10
-104.20535229641879
 20
175.67652323956611
 30
0.0
 11
-115.6428753853525
 21
171.18913943578951
 31
0.0
  0
LINE
  5
AD
  8
0
  6
CONTINUOUS
 62
     7
 10
-93.498614614211888
 20
176.53568072314431
 30
0.0
 11
-117.5594533302356
 21
167.09568072314099
 31
0.0
  0
LINE
  5
AE
  8
0
  6
CONTINUOUS
 62
     7
 10
-119.08035229641879
 20
169.69263093407389
 30
0.0
 11
-117.824632564575
 21
171.18913943578951
 31
0.0
  0
LINE
  5
AF
  8
0
  6
CONTINUOUS
 62
     7
 10
-115.6428753853525
 20
171.18913943578951
 30
0.0
 11
-117.824632564575
 21
171.18913943578951
 31
0.0
  0
LINE
  5
B0
  8
0
  6
CONTINUOUS
 62
     7
 10
-119.08035229641879
 20
167.09568072314099
 30
0.0
 11
-119.08035229641879
 21
176.03568072314431
 31
0.0
  0
LINE
  5
B1
  8
0
  6
CONTINUOUS
 62
     7
 10
-89.330352296421566
 20
171.51370036612261
 30
0.0
 11
-96.291778019815894
 21
168.78246312188421
 31
0.0
  0
LINE
  5
B2
  8
0
  6
CONTINUOUS
 62
     7
 10
-104.20535229641879
 20
176.14986255773459
 30
0.0
 11
-104.20535229641879
 21
175.67652323956611
 31
0.0
  0
LINE
  5
B3
  8
0
  6
CONTINUOUS
 62
     7
 10
-116.05339871420711
 20
176.53568072314431
 30
0.0
 11
-104.20535229641879
 21
176.14986255773459
 31
0.0
  0
LINE
  5
B4
  8
0
  6
CONTINUOUS
 62
     7
 10
-89.330352296421566
 20
176.03568072314431
 30
0.0
 11
-89.830352296421552
 21
176.53568072314431
 31
0.0
  0
LINE
  5
B5
  8
0
  6
CONTINUOUS
 62
     7
 10
-119.08035229641879
 20
176.03568072314431
 30
0.0
 11
-118.58035229641879
 21
176.53568072314431
 31
0.0
  0
LINE
  5
B6
  8
0
  6
CONTINUOUS
 62
     7
 10
-96.017852296418823
 20
167.09568072314099
 30
0.0
 11
-89.330352296421566
 21
167.09568072314099
 31
0.0
  0
LINE
  5
B7
  8
0
  6
CONTINUOUS
 62
     7
 10
-89.330352296421566
 20
167.09568072314099
 30
0.0
 11
-88.330352296421538
 21
166.09568072314099
 31
0.0
  0
LINE
  5
B8
  8
0
  6
CONTINUOUS
 62
     7
 10
-88.330352296421538
 20
166.09568072314099
 30
0.0
 11
-120.08035229641879
 21
166.09568072314099
 31
0.0
  0
LINE
  5
B9
  8
0
  6
CONTINUOUS
 62
     7
 10
-119.08035229641879
 20
167.09568072314099
 30
0.0
 11
-96.017852296418823
 21
167.09568072314099
 31
0.0
  0
LINE
  5
BA
  8
0
  6
CONTINUOUS
 62
     7
 10
-89.330352296421566
 20
167.09568072314099
 30
0.0
 11
-88.330352296421538
 21
166.09568072314099
 31
0.0
  0
LINE
  5
BB
  8
0
  6
CONTINUOUS
 62
     7
 10
-120.08035229641879
 20
166.09568072314099
 30
0.0
 11
-119.08035229641879
 21
167.09568072314099
 31
0.0
  0
LINE
  5
BC
  8
0
  6
CONTINUOUS
 62
     7
 10
-89.830352296421552
 20
176.53568072314431
 30
0.0
 11
-118.58035229641879
 21
176.53568072314431
 31
0.0
  0
LINE
  5
BD
  8
0
  6
CONTINUOUS
 62
     7
 10
-116.1328446659473
 20
126.4574206858866
 30
0.0
 11
-88.632857457109921
 21
127.85594791647929
 31
0.0
  0
LINE
  5
BE
  8
0
  6
CONTINUOUS
 62
     7
 10
-116.1328432651172
 20
96.498456692401007
 30
0.0
 11
-88.632855578760541
 21
97.896974533253925
 31
0.0
  0
LINE
  5
BF
  8
0
  6
CONTINUOUS
 62
     7
 10
-88.632857457109921
 20
86.89462395082468
 30
0.0
 11
-116.1328446659473
 21
88.293151181414586
 31
0.0
  0
LINE
  5
C0
  8
0
  6
DASH_CENTER
 62
     1
 10
-103.63293584221459
 20
152.39570437288481
 30
0.0
 11
-103.63293584221459
 21
178.53568072314161
 31
0.0
  0
LINE
  5
C1
  8
0
  6
DASH_CENTER
 62
     1
 10
-88.953035842213566
 20
152.39570437288481
 30
0.0
 11
-88.953035842213566
 21
161.4856807231441
 31
0.0
  0
LINE
  5
C2
  8
0
  6
CONTINUOUS
 62
     7
 10
-86.203035842213595
 20
157.4856807231441
 30
0.0
 11
-86.277160514649168
 21
158.33292960601889
 31
0.0
  0
LINE
  5
C3
  8
0
  6
CONTINUOUS
 62
     7
 10
-91.628911169776217
 20
158.33292960601889
 30
0.0
 11
-91.703035842213581
 21
157.4856807231441
 31
0.0
  0
LINE
  5
C4
  8
0
  6
CONTINUOUS
 62
     7
 10
-115.5629358422149
 20
157.4856807231441
 30
0.0
 11
-115.6370605146514
 21
158.33292960601889
 31
0.0
  0
LINE
  5
C5
  8
0
  6
CONTINUOUS
 62
     7
 10
-120.9888111697766
 20
158.33292960601889
 30
0.0
 11
-121.062935842214
 21
157.4856807231441
 31
0.0
  0
LINE
  5
C6
  8
0
  6
CONTINUOUS
 62
     7
 10
-122.6830358422131
 20
157.48568072314231
 30
0.0
 11
-122.6830358422131
 21
155.09563448394931
 31
0.0
  0
LINE
  5
C7
  8
0
  6
CONTINUOUS
 62
     7
 10
-84.583135842213892
 20
157.48568072314231
 30
0.0
 11
-122.6830358422131
 21
157.48568072314231
 31
0.0
  0
LINE
  5
C8
  8
0
  6
CONTINUOUS
 62
     7
 10
-84.583135842213892
 20
157.48568072314231
 30
0.0
 11
-84.582935858950904
 21
155.09583448500021
 31
0.0
  0
LINE
  5
C9
  8
0
  6
CONTINUOUS
 62
     7
 10
-84.632935842214579
 20
154.39570546219559
 30
0.0
 11
-84.632935842214579
 21
155.0958342225328
 31
0.0
  0
LINE
  5
CA
  8
0
  6
CONTINUOUS
 62
     7
 10
-122.6830358422131
 20
155.09563448394931
 30
0.0
 11
-84.582935858950904
 21
155.09583448500021
 31
0.0
  0
LINE
  5
CB
  8
0
  6
CONTINUOUS
 62
     7
 10
-122.63293584221449
 20
154.39570546219559
 30
0.0
 11
-122.63293584221449
 21
155.09563474693971
 31
0.0
  0
LINE
  5
CC
  8
0
  6
CONTINUOUS
 62
     7
 10
-116.53284466594791
 20
50.794528559314699
 30
0.0
 11
-116.53284466594791
 21
51.195804372882407
 31
0.0
  0
LINE
  5
CD
  8
0
  6
CONTINUOUS
 62
     7
 10
-116.53284466594791
 20
51.195804372882407
 30
0.0
 11
-116.1328446659473
 21
51.195804372882407
 31
0.0
  0
LINE
  5
CE
  8
0
  6
CONTINUOUS
 62
     7
 10
-116.53284466594791
 20
133.47044630485169
 30
0.0
 11
-116.53284466594791
 21
51.195804372882407
 31
0.0
  0
LINE
  5
CF
  8
0
  6
CONTINUOUS
 62
     7
 10
-88.632857457109921
 20
86.89462395082468
 30
0.0
 11
-84.632857457109935
 21
86.89462395082468
 31
0.0
  0
LINE
  5
D0
  8
0
  6
CONTINUOUS
 62
     7
 10
-88.632857457109921
 20
97.89462395082468
 30
0.0
 11
-84.632857457109935
 21
97.89462395082468
 31
0.0
  0
LINE
  5
D1
  8
0
  6
CONTINUOUS
 62
     7
 10
-86.632857457109907
 20
51.860894243025207
 30
0.0
 11
-84.632857457109935
 21
51.895804372883177
 31
0.0
  0
LINE
  5
D2
  8
0
  6
CONTINUOUS
 62
     7
 10
-88.338093179039888
 20
51.890659243271891
 30
0.0
 11
-86.632857457109907
 21
51.860894243025207
 31
0.0
  0
LINE
  5
D3
  8
0
  6
CONTINUOUS
 62
     7
 10
-86.632857457109907
 20
49.360894243025207
 30
0.0
 11
-88.338093179039888
 21
49.390659243271891
 31
0.0
  0
LINE
  5
D4
  8
0
  6
CONTINUOUS
 62
     7
 10
-84.632857457109935
 20
49.395804372883177
 30
0.0
 11
-86.632857457109907
 21
49.360894243025207
 31
0.0
  0
LINE
  5
D5
  8
0
  6
CONTINUOUS
 62
     7
 10
-86.632857457109907
 20
132.9307145027411
 30
0.0
 11
-84.632857457109935
 21
132.89580437288319
 31
0.0
  0
LINE
  5
D6
  8
0
  6
CONTINUOUS
 62
     7
 10
-88.338093179039888
 20
132.9009495024944
 30
0.0
 11
-86.632857457109907
 21
132.9307145027411
 31
0.0
  0
LINE
  5
D7
  8
0
  6
CONTINUOUS
 62
     7
 10
-86.632857457109907
 20
135.4307145027411
 30
0.0
 11
-84.632857457109935
 21
135.39580437288319
 31
0.0
  0
LINE
  5
D8
  8
0
  6
CONTINUOUS
 62
     7
 10
-86.632857457109907
 20
135.4307145027411
 30
0.0
 11
-88.332857457107934
 21
135.39577103030899
 31
0.0
  0
LINE
  5
D9
  8
0
  6
CONTINUOUS
 62
     7
 10
-88.632857457109921
 20
131.89577103030899
 30
0.0
 11
-88.632857457109921
 21
135.10099519394831
 31
0.0
  0
LINE
  5
DA
  8
0
  6
CONTINUOUS
 62
     7
 10
-88.632857457109921
 20
49.396001328719279
 30
0.0
 11
-116.1328446659473
 21
50.79452855931379
 31
0.0
  0
LINE
  5
DB
  8
0
  6
CONTINUOUS
 62
     7
 10
-88.632857457109921
 20
131.89577103030899
 30
0.0
 11
-88.632857457109921
 21
49.396001328719279
 31
0.0
  0
LINE
  5
DC
  8
0
  6
CONTINUOUS
 62
     7
 10
-88.832857457107949
 20
135.39577103030899
 30
0.0
 11
-88.832857457107949
 21
132.095771030317
 31
0.0
  0
LINE
  5
DD
  8
0
  6
CONTINUOUS
 62
     7
 10
-88.332857457107934
 20
135.89577103030899
 30
0.0
 11
-83.832935842212592
 21
135.89577103030899
 31
0.0
  0
LINE
  5
DE
  8
0
  6
CONTINUOUS
 62
     7
 10
-83.632935842214565
 20
154.39570437288481
 30
0.0
 11
-83.632935842214565
 21
136.095771030317
 31
0.0
  0
LINE
  5
DF
  8
0
  6
CONTINUOUS
 62
     7
 10
-123.6328358422144
 20
154.39570437288481
 30
0.0
 11
-83.632935842214565
 21
154.39570437288481
 31
0.0
  0
LINE
  5
E0
  8
0
  6
CONTINUOUS
 62
     7
 10
-123.6328588298248
 20
133.46234492225781
 30
0.0
 11
-123.6328358422144
 21
154.39570437288481
 31
0.0
  0
LINE
  5
E1
  8
0
  6
CONTINUOUS
 62
     7
 10
-84.632857457109935
 20
86.894602932879607
 30
0.0
 11
-78.632857457109935
 21
86.894602932879607
 31
0.0
  0
LINE
  5
E2
  8
0
  6
CONTINUOUS
 62
     7
 10
-84.632857457109935
 20
97.895900746737993
 30
0.0
 11
-78.632857457109935
 21
97.895900746737993
 31
0.0
  0
LINE
  5
E3
  8
0
  6
CONTINUOUS
 62
     7
 10
-79.124131253887867
 20
49.290900648925877
 30
0.0
 11
-84.632857457109935
 21
49.387055822475901
 31
0.0
  0
LINE
  5
E4
  8
0
  6
CONTINUOUS
 62
     7
 10
-84.632857457109935
 20
51.887055822475901
 30
0.0
 11
-79.124131253887867
 21
51.790900648925877
 31
0.0
  0
LINE
  5
E5
  8
0
  6
CONTINUOUS
 62
     7
 10
-79.124131253887867
 20
133.0006660609512
 30
0.0
 11
-84.632857457109935
 21
132.90451088740119
 31
0.0
  0
LINE
  5
E6
  8
0
  6
CONTINUOUS
 62
     7
 10
-84.632857457109935
 20
135.40451088740119
 30
0.0
 11
-79.124131253887867
 21
135.5006660609512
 31
0.0
  0
LINE
  5
E7
  8
0
  6
CONTINUOUS
 62
     7
 10
-88.632857457109921
 20
120.894925261258
 30
0.0
 11
-89.132857457109907
 21
120.894925261258
 31
0.0
  0
LINE
  5
E8
  8
0
  6
CONTINUOUS
 62
     7
 10
-89.132857457109907
 20
120.894925261258
 30
0.0
 11
-89.132857457109907
 21
112.894925261258
 31
0.0
  0
LINE
  5
E9
  8
0
  6
CONTINUOUS
 62
     7
 10
-89.132857457109907
 20
112.894925261258
 30
0.0
 11
-88.632857457109921
 21
112.894925261258
 31
0.0
  0
LINE
  5
EA
  8
0
  6
DASH_CENTER
 62
     1
 10
-97.132857457109921
 20
116.894925261258
 30
0.0
 11
-85.632857457109935
 21
116.894925261258
 31
0.0
  0
LINE
  5
EB
  8
0
  6
CONTINUOUS
 62
     7
 10
-92.782857457109586
 20
120.394925261258
 30
0.0
 11
-89.132857457109907
 21
120.394925261258
 31
0.0
  0
LINE
  5
EC
  8
0
  6
CONTINUOUS
 62
     7
 10
-89.132857457109907
 20
113.394925261258
 30
0.0
 11
-92.782857457109586
 21
113.394925261258
 31
0.0
  0
LINE
  5
ED
  8
0
  6
CONTINUOUS
 62
     7
 10
-93.132857457109921
 20
113.7449252612565
 30
0.0
 11
-93.132857457109921
 21
120.04492526125399
 31
0.0
  0
LINE
  5
EE
  8
0
  6
CONTINUOUS
 62
     7
 10
-92.782857457109586
 20
120.394925261258
 30
0.0
 11
-92.782857457109586
 21
113.394925261258
 31
0.0
  0
LINE
  5
EF
  8
0
  6
CONTINUOUS
 62
     7
 10
-93.132857457109921
 20
113.7449252612565
 30
0.0
 11
-92.782857457109586
 21
113.394925261258
 31
0.0
  0
LINE
  5
F0
  8
0
  6
CONTINUOUS
 62
     7
 10
-92.782857457109586
 20
120.394925261258
 30
0.0
 11
-93.132857457109921
 21
120.04492526125399
 31
0.0
  0
LINE
  5
F1
  8
0
  6
CONTINUOUS
 62
     7
 10
-92.782857457109586
 20
71.394925352603991
 30
0.0
 11
-93.132857457109921
 21
71.044925352601766
 31
0.0
  0
LINE
  5
F2
  8
0
  6
CONTINUOUS
 62
     7
 10
-93.132857457109921
 20
64.744925352602493
 30
0.0
 11
-92.782857457109586
 21
64.394925352603991
 31
0.0
  0
LINE
  5
F3
  8
0
  6
CONTINUOUS
 62
     7
 10
-92.782857457109586
 20
71.394925352603991
 30
0.0
 11
-92.782857457109586
 21
64.394925352603991
 31
0.0
  0
LINE
  5
F4
  8
0
  6
CONTINUOUS
 62
     7
 10
-93.132857457109921
 20
64.744925352602493
 30
0.0
 11
-93.132857457109921
 21
71.044925352601766
 31
0.0
  0
LINE
  5
F5
  8
0
  6
CONTINUOUS
 62
     7
 10
-89.132857457109907
 20
64.394925352603991
 30
0.0
 11
-92.782857457109586
 21
64.394925352603991
 31
0.0
  0
LINE
  5
F6
  8
0
  6
CONTINUOUS
 62
     7
 10
-92.782857457109586
 20
71.394925352603991
 30
0.0
 11
-89.132857457109907
 21
71.394925352603991
 31
0.0
  0
LINE
  5
F7
  8
0
  6
DASH_CENTER
 62
     1
 10
-97.132857457109921
 20
67.894925352603991
 30
0.0
 11
-85.632857457109935
 21
67.894925352603991
 31
0.0
  0
LINE
  5
F8
  8
0
  6
CONTINUOUS
 62
     7
 10
-89.132857457109907
 20
63.894925352603991
 30
0.0
 11
-88.632857457109921
 21
63.894925352603991
 31
0.0
  0
LINE
  5
F9
  8
0
  6
CONTINUOUS
 62
     7
 10
-89.132857457109907
 20
71.894925352603991
 30
0.0
 11
-89.132857457109907
 21
63.894925352603991
 31
0.0
  0
LINE
  5
FA
  8
0
  6
CONTINUOUS
 62
     7
 10
-88.632857457109921
 20
71.894925352603991
 30
0.0
 11
-89.132857457109907
 21
71.894925352603991
 31
0.0
  0
LINE
  5
FB
  8
0
  6
DASH_CENTER
 62
     1
 10
-118.312935842214
 20
152.39570437288481
 30
0.0
 11
-118.312935842214
 21
161.4856807231441
 31
0.0
  0
LINE
  5
FC
  8
0
  6
CONTINUOUS
 62
     7
 10
-84.632857457109935
 20
135.40451088740119
 30
0.0
 11
-84.632857457109935
 21
49.387055822475901
 31
0.0
  0
LINE
  5
FD
  8
0
  6
CONTINUOUS
 62
     7
 10
-78.632857457109935
 20
48.790976801350183
 30
0.0
 11
-78.632857457109935
 21
136.000589908526
 31
0.0
  0
LINE
  5
FE
  8
0
  6
CONTINUOUS
 62
     7
 10
-116.1328446659473
 20
50.79452855931379
 30
0.0
 11
-116.1328446659473
 21
133.47044630485169
 31
0.0
  0
LINE
  5
FF
  8
0
  6
CONTINUOUS
 62
     7
 10
-121.3328950483111
 20
53.730785868648503
 30
0.0
 11
-121.37139341055369
 21
53.731462709967182
 31
0.0
  0
LINE
  5
100
  8
0
  6
CONTINUOUS
 62
     7
 10
-121.1328950483086
 20
53.53078586864779
 30
0.0
 11
-121.1328950483086
 21
51.294491441067677
 31
0.0
  0
LINE
  5
101
  8
0
  6
CONTINUOUS
 62
     7
 10
-120.6328950483086
 20
50.794491441067677
 30
0.0
 11
-116.53284466594791
 21
50.794491441067677
 31
0.0
  0
LINE
  5
102
  8
0
  6
CONTINUOUS
 62
     7
 10
-123.33293584221531
 20
88.944738732599589
 30
0.0
 11
-123.33293584221531
 21
55.731092929643097
 31
0.0
  0
LINE
  5
103
  8
0
  6
CONTINUOUS
 62
     7
 10
-123.33293584221531
 20
95.645168862563366
 30
0.0
 11
-123.33293584221531
 21
89.14516886256159
 31
0.0
  0
LINE
  5
104
  8
0
  6
CONTINUOUS
 62
     7
 10
-121.37139341055369
 20
89.140954798322696
 30
0.0
 11
-123.1325061747813
 21
89.144738271064412
 31
0.0
  0
LINE
  5
105
  8
0
  6
CONTINUOUS
 62
     7
 10
-121.3328950483111
 20
95.644492021242968
 30
0.0
 11
-123.13300352496221
 21
95.645101202715992
 31
0.0
  0
LINE
  5
106
  8
0
  6
CONTINUOUS
 62
     7
 10
-121.37139341055369
 20
89.140954798322696
 30
0.0
 11
-121.3328950483111
 21
89.141631639641247
 31
0.0
  0
LINE
  5
107
  8
0
  6
DASH_CENTER
 62
     1
 10
-123.8837900035343
 20
92.3987060854829
 30
0.0
 11
-120.0241536676314
 21
92.3987060854829
 31
0.0
  0
LINE
  5
108
  8
0
  6
CONTINUOUS
 62
     7
 10
-121.9801536404549
 20
89.725776296734182
 30
0.0
 11
-121.132904757582
 21
89.651651624296804
 31
0.0
  0
LINE
  5
109
  8
0
  6
CONTINUOUS
 62
     7
 10
-121.132904757582
 20
95.151651624296804
 30
0.0
 11
-121.9801536404549
 21
95.077526951858474
 31
0.0
  0
LINE
  5
10A
  8
0
  6
CONTINUOUS
 62
     7
 10
-121.3328950483111
 20
95.644492021242968
 30
0.0
 11
-121.37139341055369
 21
95.645168862563366
 31
0.0
  0
LINE
  5
10B
  8
0
  6
CONTINUOUS
 62
     7
 10
-121.1328950483086
 20
96.795189877101166
 30
0.0
 11
-121.1328950483086
 21
87.995189877108089
 31
0.0
  0
LINE
  5
10C
  8
0
  6
CONTINUOUS
 62
     7
 10
-121.1328950483086
 20
87.995189877108089
 30
0.0
 11
-116.53284466594791
 21
87.995189877108089
 31
0.0
  0
LINE
  5
10D
  8
0
  6
CONTINUOUS
 62
     7
 10
-121.1328950483086
 20
96.795189877101166
 30
0.0
 11
-116.53284466594791
 21
96.795189877101166
 31
0.0
  0
LINE
  5
10E
  8
0
  6
CONTINUOUS
 62
     7
 10
-123.33293584221531
 20
126.7162004240777
 30
0.0
 11
-123.33293584221531
 21
95.845101191265087
 31
0.0
  0
LINE
  5
10F
  8
0
  6
CONTINUOUS
 62
     7
 10
-123.6328588298249
 20
132.0958387983361
 30
0.0
 11
-123.6328588298249
 21
133.67044091103381
 31
0.0
  0
LINE
  5
110
  8
0
  6
CONTINUOUS
 62
     7
 10
-123.432858829826
 20
131.89583858744251
 30
0.0
 11
-121.1904573905105
 21
131.89583858744251
 31
0.0
  0
LINE
  5
111
  8
0
  6
CONTINUOUS
 62
     7
 10
-123.33293584221531
 20
128.51620042407771
 30
0.0
 11
-123.33293584221531
 21
126.7162004240777
 31
0.0
  0
LINE
  5
112
  8
0
  6
CONTINUOUS
 62
     7
 10
-123.13298033964939
 20
131.8358259477269
 30
0.0
 11
-121.33293584221531
 21
131.83622643454629
 31
0.0
  0
LINE
  5
113
  8
0
  6
CONTINUOUS
 62
     7
 10
-121.33293584221531
 20
128.7162004240777
 30
0.0
 11
-123.13293584221459
 21
128.7162004240777
 31
0.0
  0
LINE
  5
114
  8
0
  6
CONTINUOUS
 62
     7
 10
-121.33293584221531
 20
131.83622643454629
 30
0.0
 11
-121.3329047575818
 21
131.83622643454629
 31
0.0
  0
LINE
  5
115
  8
0
  6
CONTINUOUS
 62
     7
 10
-121.33293584221531
 20
128.7162004240777
 30
0.0
 11
-121.3329047575818
 21
128.7162004240777
 31
0.0
  0
LINE
  5
116
  8
0
  6
CONTINUOUS
 62
     7
 10
-121.132904757582
 20
130.99206206418009
 30
0.0
 11
-121.9801536404549
 21
130.9179373917427
 31
0.0
  0
LINE
  5
117
  8
0
  6
CONTINUOUS
 62
     7
 10
-121.132904757582
 20
128.91620042407749
 30
0.0
 11
-121.132904757582
 21
132.0362264345473
 31
0.0
  0
LINE
  5
118
  8
0
  6
CONTINUOUS
 62
     7
 10
-123.33293584221531
 20
131.63582595267641
 30
0.0
 11
-123.33293584221531
 21
128.51620042407771
 31
0.0
  0
LINE
  5
119
  8
0
  6
CONTINUOUS
 62
     7
 10
-121.132904757582
 20
132.0362264345473
 30
0.0
 11
-121.132904757582
 21
132.96748085134971
 31
0.0
  0
LINE
  5
11A
  8
0
  6
CONTINUOUS
 62
     7
 10
-123.4328588298259
 20
133.47044630485169
 30
0.0
 11
-116.3328446659481
 21
133.47044630485169
 31
0.0
  0
LINE
  5
11B
  8
0
  6
CONTINUOUS
 62
     7
 10
-272.98991502520988
 20
176.5356283451234
 30
0.0
 11
-301.7399150252071
 21
176.5356283451234
 31
0.0
  0
LINE
  5
11C
  8
0
  6
CONTINUOUS
 62
     7
 10
-303.2399150252071
 20
166.0956283451211
 30
0.0
 11
-302.23991502520721
 21
167.0956283451211
 31
0.0
  0
LINE
  5
11D
  8
0
  6
CONTINUOUS
 62
     7
 10
-272.48991502520988
 20
167.0956283451211
 30
0.0
 11
-271.48991502521
 21
166.0956283451211
 31
0.0
  0
LINE
  5
11E
  8
0
  6
CONTINUOUS
 62
     7
 10
-302.23991502520721
 20
167.0956283451211
 30
0.0
 11
-279.1774150252071
 21
167.0956283451211
 31
0.0
  0
LINE
  5
11F
  8
0
  6
CONTINUOUS
 62
     7
 10
-271.48991502521
 20
166.0956283451211
 30
0.0
 11
-303.2399150252071
 21
166.0956283451211
 31
0.0
  0
LINE
  5
120
  8
0
  6
CONTINUOUS
 62
     7
 10
-272.48991502520988
 20
167.0956283451211
 30
0.0
 11
-271.48991502521
 21
166.0956283451211
 31
0.0
  0
LINE
  5
121
  8
0
  6
CONTINUOUS
 62
     7
 10
-279.1774150252071
 20
167.0956283451211
 30
0.0
 11
-272.48991502520988
 21
167.0956283451211
 31
0.0
  0
LINE
  5
122
  8
0
  6
CONTINUOUS
 62
     7
 10
-302.23991502520721
 20
176.0356283451234
 30
0.0
 11
-301.7399150252071
 21
176.5356283451234
 31
0.0
  0
LINE
  5
123
  8
0
  6
CONTINUOUS
 62
     7
 10
-272.48991502520988
 20
176.0356283451234
 30
0.0
 11
-272.98991502520988
 21
176.5356283451234
 31
0.0
  0
LINE
  5
124
  8
0
  6
CONTINUOUS
 62
     7
 10
-299.2129614429964
 20
176.5356283451234
 30
0.0
 11
-287.36491502520721
 21
176.14981017971479
 31
0.0
  0
LINE
  5
125
  8
0
  6
CONTINUOUS
 62
     7
 10
-287.36491502520721
 20
176.14981017971479
 30
0.0
 11
-287.36491502520721
 21
175.67647086154611
 31
0.0
  0
LINE
  5
126
  8
0
  6
CONTINUOUS
 62
     7
 10
-272.48991502520988
 20
171.51364798810269
 30
0.0
 11
-279.4513407486042
 21
168.78241074386341
 31
0.0
  0
LINE
  5
127
  8
0
  6
CONTINUOUS
 62
     7
 10
-302.23991502520721
 20
167.0956283451211
 30
0.0
 11
-302.23991502520721
 21
176.0356283451234
 31
0.0
  0
LINE
  5
128
  8
0
  6
CONTINUOUS
 62
     7
 10
-298.80243811413987
 20
171.1890870577696
 30
0.0
 11
-300.98419529336428
 21
171.1890870577696
 31
0.0
  0
LINE
  5
129
  8
0
  6
CONTINUOUS
 62
     7
 10
-302.23991502520721
 20
169.69257855605389
 30
0.0
 11
-300.98419529336428
 21
171.1890870577696
 31
0.0
  0
LINE
  5
12A
  8
0
  6
CONTINUOUS
 62
     7
 10
-276.6581773430002
 20
176.5356283451234
 30
0.0
 11
-300.71901605902377
 21
167.0956283451211
 31
0.0
  0
LINE
  5
12B
  8
0
  6
CONTINUOUS
 62
     7
 10
-287.36491502520721
 20
175.67647086154611
 30
0.0
 11
-298.80243811413987
 21
171.1890870577696
 31
0.0
  0
LINE
  5
12C
  8
0
  6
CONTINUOUS
 62
     7
 10
-272.48991502520988
 20
176.0356283451234
 30
0.0
 11
-272.48991502520988
 21
167.0956283451211
 31
0.0
  0
LINE
  5
12D
  8
0
  6
CONTINUOUS
 62
     7
 10
-279.92741502520721
 20
168.08422402237611
 30
0.0
 11
-279.92741502520721
 21
167.8456283451211
 31
0.0
  0
LINE
  5
12E
  8
0
  6
CONTINUOUS
 62
     7
 10
-271.38088889951132
 20
159.36308795196391
 30
0.0
 11
-271.48991502521
 21
166.0956283451211
 31
0.0
  0
LINE
  5
12F
  8
0
  6
CONTINUOUS
 62
     7
 10
-303.34894115090401
 20
159.36308795196391
 30
0.0
 11
-303.2399150252071
 21
166.0956283451211
 31
0.0
  0
LINE
  5
130
  8
0
  6
CONTINUOUS
 62
     7
 10
-272.98991502520988
 20
176.5356283451234
 30
0.0
 11
-301.47264857100288
 21
176.5356283451234
 31
0.0
  0
LINE
  5
131
  8
0
  6
CONTINUOUS
 62
     7
 10
-245.3649150252094
 20
97.894510585582367
 30
0.0
 11
-246.54825176129171
 21
97.894510585582367
 31
0.0
  0
LINE
  5
132
  8
0
  6
CONTINUOUS
 62
     7
 10
-246.54825176129171
 20
86.894510585582367
 30
0.0
 11
-245.3649150252094
 21
86.894510585582367
 31
0.0
  0
LINE
  5
133
  8
0
  6
CONTINUOUS
 62
     7
 10
-244.36491502520849
 20
96.894510585582367
 30
0.0
 11
-244.36491502520849
 21
87.894510585582367
 31
0.0
  0
LINE
  5
134
  8
0
  6
CONTINUOUS
 62
     7
 10
-282.86605138961647
 20
49.39450754142176
 30
0.0
 11
-291.86605138961647
 21
49.39450754142176
 31
0.0
  0
LINE
  5
135
  8
0
  6
CONTINUOUS
 62
     7
 10
-292.86605138961647
 20
51.5780561432544
 30
0.0
 11
-292.86605138961647
 21
50.39450754142176
 31
0.0
  0
LINE
  5
136
  8
0
  6
CONTINUOUS
 62
     7
 10
-281.86605138961659
 20
50.39450754142176
 30
0.0
 11
-281.86605138961659
 21
51.57784427750498
 31
0.0
  0
LINE
  5
137
  8
0
  6
CONTINUOUS
 62
     7
 10
-330.36491502520943
 20
87.894510585582367
 30
0.0
 11
-330.36491502520943
 21
96.894510585582367
 31
0.0
  0
LINE
  5
138
  8
0
  6
CONTINUOUS
 62
     7
 10
-329.36491502520852
 20
86.894510585582367
 30
0.0
 11
-328.18157828912518
 21
86.894510585582367
 31
0.0
  0
LINE
  5
139
  8
0
  6
CONTINUOUS
 62
     7
 10
-328.18157828912518
 20
97.894510585582367
 30
0.0
 11
-329.36491502520852
 21
97.894510585582367
 31
0.0
  0
LINE
  5
13A
  8
0
  6
CONTINUOUS
 62
     7
 10
-297.20070146283598
 20
131.8957833549899
 30
0.0
 11
-277.52912858758191
 21
131.8957833549899
 31
0.0
  0
LINE
  5
13B
  8
0
  6
CONTINUOUS
 62
     7
 10
-276.82202180639331
 20
132.1886765738023
 30
0.0
 11
-273.99070461849431
 21
135.01999376170309
 31
0.0
  0
LINE
  5
13C
  8
0
  6
CONTINUOUS
 62
     7
 10
-300.73912543192171
 20
135.01999376170309
 30
0.0
 11
-297.90780824402259
 21
132.1886765738023
 31
0.0
  0
LINE
  5
13D
  8
0
  6
CONTINUOUS
 62
     7
 10
-302.21376220106492
 20
128.24200683172839
 30
0.0
 11
-303.45119906814477
 21
129.4794436988046
 31
0.0
  0
LINE
  5
13E
  8
0
  6
CONTINUOUS
 62
     7
 10
-302.21376220106492
 20
128.24200683172839
 30
0.0
 11
-300.97632533399047
 21
127.0045699646503
 31
0.0
  0
LINE
  5
13F
  8
0
  6
CONTINUOUS
 62
     7
 10
-302.21376220106492
 20
128.24200683172839
 30
0.0
 11
-303.45119906814477
 21
127.0045699646503
 31
0.0
  0
LINE
  5
140
  8
0
  6
CONTINUOUS
 62
     7
 10
-302.21376220106492
 20
128.24200683172839
 30
0.0
 11
-300.97632533399047
 21
129.4794436988046
 31
0.0
  0
LINE
  5
141
  8
0
  6
CONTINUOUS
 62
     7
 10
-321.61373872146572
 20
92.395113630109847
 30
0.0
 11
-320.37630185439042
 21
93.632550497186045
 31
0.0
  0
LINE
  5
142
  8
0
  6
CONTINUOUS
 62
     7
 10
-321.61373872146572
 20
92.395113630109847
 30
0.0
 11
-322.85117558854461
 21
91.157676763031773
 31
0.0
  0
LINE
  5
143
  8
0
  6
CONTINUOUS
 62
     7
 10
-321.61373872146572
 20
92.395113630109847
 30
0.0
 11
-320.37630185439042
 21
91.157676763031773
 31
0.0
  0
LINE
  5
144
  8
0
  6
CONTINUOUS
 62
     7
 10
-321.61373872146572
 20
92.395113630109847
 30
0.0
 11
-322.85117558854461
 21
93.632550497186045
 31
0.0
  0
LINE
  5
145
  8
0
  6
CONTINUOUS
 62
     7
 10
-253.11373872146569
 20
92.395113630109847
 30
0.0
 11
-254.35117558854461
 21
93.632550497186045
 31
0.0
  0
LINE
  5
146
  8
0
  6
CONTINUOUS
 62
     7
 10
-253.11373872146569
 20
92.395113630109847
 30
0.0
 11
-251.87630185439039
 21
91.157676763031773
 31
0.0
  0
LINE
  5
147
  8
0
  6
CONTINUOUS
 62
     7
 10
-253.11373872146569
 20
92.395113630109847
 30
0.0
 11
-254.35117558854461
 21
91.157676763031773
 31
0.0
  0
LINE
  5
148
  8
0
  6
CONTINUOUS
 62
     7
 10
-253.11373872146569
 20
92.395113630109847
 30
0.0
 11
-251.87630185439039
 21
93.632550497186045
 31
0.0
  0
LINE
  5
149
  8
0
  6
CONTINUOUS
 62
     7
 10
-287.36665443405661
 20
58.145691004239367
 30
0.0
 11
-286.12921756698131
 21
59.383127871313746
 31
0.0
  0
LINE
  5
14A
  8
0
  6
CONTINUOUS
 62
     7
 10
-287.36665443405661
 20
58.145691004239367
 30
0.0
 11
-288.60409130113561
 21
56.908254137160426
 31
0.0
  0
LINE
  5
14B
  8
0
  6
CONTINUOUS
 62
     7
 10
-287.36665443405661
 20
58.145691004239367
 30
0.0
 11
-286.12921756698131
 21
56.908254137160426
 31
0.0
  0
LINE
  5
14C
  8
0
  6
CONTINUOUS
 62
     7
 10
-287.36665443405661
 20
58.145691004239367
 30
0.0
 11
-288.60409130113561
 21
59.383127871313746
 31
0.0
  0
LINE
  5
14D
  8
0
  6
CONTINUOUS
 62
     7
 10
-284.11665443405661
 20
58.145691004239367
 30
0.0
 11
-284.11665443405661
 21
54.228786567610349
 31
0.0
  0
LINE
  5
14E
  8
0
  6
CONTINUOUS
 62
     7
 10
-290.61665443405661
 20
58.145691004239367
 30
0.0
 11
-290.61665443405661
 21
54.229009873301528
 31
0.0
  0
LINE
  5
14F
  8
0
  6
CONTINUOUS
 62
     7
 10
-325.53173349638638
 20
95.645113630110743
 30
0.0
 11
-324.81551806965018
 21
95.645113630110743
 31
0.0
  0
LINE
  5
150
  8
0
  6
CONTINUOUS
 62
     7
 10
-324.81551806964569
 20
89.145113630109819
 30
0.0
 11
-325.53173349638638
 21
89.145113630108924
 31
0.0
  0
LINE
  5
151
  8
0
  6
DASH_CENTER
 62
     1
 10
-300.58735761351443
 20
124.3155188185561
 30
0.0
 11
-303.84016678861718
 21
132.16849484490251
 31
0.0
  0
LINE
  5
152
  8
0
  6
CONTINUOUS
 62
     7
 10
-249.19930264291349
 20
89.145113630108924
 30
0.0
 11
-249.91551806965421
 21
89.145113630109819
 31
0.0
  0
LINE
  5
153
  8
0
  6
CONTINUOUS
 62
     7
 10
-249.9155180696506
 20
95.645113630110743
 30
0.0
 11
-249.19930264291349
 21
95.645113630110743
 31
0.0
  0
LINE
  5
154
  8
0
  6
CONTINUOUS
 62
     7
 10
-245.7655180696473
 20
95.795113630105845
 30
0.0
 11
-245.7655180696473
 21
88.995113630112016
 31
0.0
  0
LINE
  5
155
  8
0
  6
DASH_CENTER
 62
     1
 10
-253.11373872146569
 20
88.505036497524586
 30
0.0
 11
-253.11373872146569
 21
96.285190762697795
 31
0.0
  0
LINE
  5
156
  8
0
  6
CONTINUOUS
 62
     7
 10
-247.01997928280881
 20
87.99511363011294
 30
0.0
 11
-246.7655180696473
 21
87.995113630112016
 31
0.0
  0
LINE
  5
157
  8
0
  6
CONTINUOUS
 62
     7
 10
-246.7655180696473
 20
96.795113630105845
 30
0.0
 11
-247.0199792828233
 21
96.79511363010856
 31
0.0
  0
LINE
  5
158
  8
0
  6
CONTINUOUS
 62
     7
 10
-282.96438170524641
 20
51.795110585948848
 30
0.0
 11
-282.96438170524641
 21
52.04975512081505
 31
0.0
  0
LINE
  5
159
  8
0
  6
CONTINUOUS
 62
     7
 10
-327.71105685647672
 20
96.79511363010856
 30
0.0
 11
-327.96551806965272
 21
96.795113630105845
 31
0.0
  0
LINE
  5
15A
  8
0
  6
CONTINUOUS
 62
     7
 10
-327.96551806965272
 20
87.995113630112016
 30
0.0
 11
-327.71105685649212
 21
87.99511363011294
 31
0.0
  0
LINE
  5
15B
  8
0
  6
DASH_CENTER
 62
     1
 10
-321.61373872146572
 20
96.285190762697795
 30
0.0
 11
-321.61373872146572
 21
88.505036497524586
 31
0.0
  0
LINE
  5
15C
  8
0
  6
CONTINUOUS
 62
     7
 10
-328.96551806965272
 20
88.995113630112016
 30
0.0
 11
-328.96551806965272
 21
95.795113630105845
 31
0.0
  0
LINE
  5
15D
  8
0
  6
CONTINUOUS
 62
     7
 10
-291.76665443405352
 20
52.04975512081505
 30
0.0
 11
-291.76665443405352
 21
51.795110585948848
 31
0.0
  0
LINE
  5
15E
  8
0
  6
DASH_CENTER
 62
     1
 10
-291.25559520223482
 20
58.145691004239367
 30
0.0
 11
-283.47544093706432
 21
58.145691004239367
 31
0.0
  0
LINE
  5
15F
  8
0
  6
CONTINUOUS
 62
     7
 10
-283.96438170524641
 20
50.795110585948848
 30
0.0
 11
-290.76665443405352
 21
50.795110585948848
 31
0.0
  0
LINE
  5
160
  8
0
  6
CONTINUOUS
 62
     7
 10
-267.36551806964951
 20
126.8149117120288
 30
0.0
 11
-267.36551806964951
 21
127.8918547810577
 31
0.0
  0
LINE
  5
161
  8
0
  6
CONTINUOUS
 62
     7
 10
-307.36551806965042
 20
132.081383296079
 30
0.0
 11
-307.36551806965042
 21
126.8149117120288
 31
0.0
  0
LINE
  5
162
  8
0
  6
CONTINUOUS
 62
     7
 10
-301.12510849371472
 20
134.6559768235835
 30
0.0
 11
-298.30485789787042
 21
131.83572622773909
 31
0.0
  0
LINE
  5
163
  8
0
  6
CONTINUOUS
 62
     7
 10
-297.24419772609042
 20
131.39638639951909
 30
0.0
 11
-277.48683841320951
 21
131.39638639951909
 31
0.0
  0
LINE
  5
164
  8
0
  6
CONTINUOUS
 62
     7
 10
-276.4261782414294
 20
131.83572622773909
 30
0.0
 11
-273.6059276455843
 21
134.6559768235835
 31
0.0
  0
LINE
  5
165
  8
0
  6
CONTINUOUS
 62
     7
 10
-252.3649150708205
 20
68.761808804447838
 30
0.0
 11
-252.3649150708205
 21
67.029757996876967
 31
0.0
  0
LINE
  5
166
  8
0
  6
CONTINUOUS
 62
     7
 10
-250.8649150708205
 20
69.627834208231022
 30
0.0
 11
-252.3649150708205
 21
68.761808804447838
 31
0.0
  0
LINE
  5
167
  8
0
  6
CONTINUOUS
 62
     7
 10
-249.3649150708205
 20
68.761808804447838
 30
0.0
 11
-250.8649150708205
 21
69.627834208231022
 31
0.0
  0
LINE
  5
168
  8
0
  6
CONTINUOUS
 62
     7
 10
-249.3649150708205
 20
67.029757996876967
 30
0.0
 11
-249.3649150708205
 21
68.761808804447838
 31
0.0
  0
LINE
  5
169
  8
0
  6
CONTINUOUS
 62
     7
 10
-250.8649150708205
 20
66.163732593092874
 30
0.0
 11
-249.3649150708205
 21
67.029757996876967
 31
0.0
  0
LINE
  5
16A
  8
0
  6
CONTINUOUS
 62
     7
 10
-252.3649150708205
 20
67.029757996876967
 30
0.0
 11
-250.8649150708205
 21
66.163732593092874
 31
0.0
  0
LINE
  5
16B
  8
0
  6
CONTINUOUS
 62
     7
 10
-282.86364225585368
 20
49.395783354937102
 30
0.0
 11
-287.3650150252879
 21
49.395783354937102
 31
0.0
  0
LINE
  5
16C
  8
0
  6
CONTINUOUS
 62
     7
 10
-244.36491502521031
 20
96.894510585580562
 30
0.0
 11
-244.36491502521031
 21
87.894510585585124
 31
0.0
  0
LINE
  5
16D
  8
0
  6
CONTINUOUS
 62
     7
 10
-250.8649150708205
 20
118.6278341168841
 30
0.0
 11
-252.3649150708205
 21
117.7618087130991
 31
0.0
  0
LINE
  5
16E
  8
0
  6
CONTINUOUS
 62
     7
 10
-249.3649150708205
 20
117.7618087130991
 30
0.0
 11
-250.8649150708205
 21
118.6278341168841
 31
0.0
  0
LINE
  5
16F
  8
0
  6
CONTINUOUS
 62
     7
 10
-249.3649150708205
 20
116.029757905531
 30
0.0
 11
-249.3649150708205
 21
117.7618087130991
 31
0.0
  0
LINE
  5
170
  8
0
  6
CONTINUOUS
 62
     7
 10
-250.8649150708205
 20
115.163732501746
 30
0.0
 11
-249.3649150708205
 21
116.029757905531
 31
0.0
  0
LINE
  5
171
  8
0
  6
CONTINUOUS
 62
     7
 10
-252.3649150708205
 20
116.029757905531
 30
0.0
 11
-250.8649150708205
 21
115.163732501746
 31
0.0
  0
LINE
  5
172
  8
0
  6
CONTINUOUS
 62
     7
 10
-252.3649150708205
 20
117.7618087130991
 30
0.0
 11
-252.3649150708205
 21
116.029757905531
 31
0.0
  0
LINE
  5
173
  8
0
  6
CONTINUOUS
 62
     7
 10
-245.36489832868929
 20
86.895808400000135
 30
0.0
 11
-245.86493172173039
 21
86.895800051178909
 31
0.0
  0
LINE
  5
174
  8
0
  6
CONTINUOUS
 62
     7
 10
-245.86489832868929
 20
97.895800051739172
 30
0.0
 11
-245.36493172173039
 21
97.895808399438934
 31
0.0
  0
LINE
  5
175
  8
0
  6
CONTINUOUS
 62
     7
 10
-281.86491502521028
 20
50.895783354937102
 30
0.0
 11
-281.86491502521028
 21
50.395783354937102
 31
0.0
  0
LINE
  5
176
  8
0
  6
CONTINUOUS
 62
     7
 10
-244.36491502521031
 20
96.895808399578115
 30
0.0
 11
-244.36491502521031
 21
87.895808399859163
 31
0.0
  0
LINE
  5
177
  8
0
  6
CONTINUOUS
 62
     7
 10
-244.36491502521031
 20
96.895808399578115
 30
0.0
 11
-244.36491502521031
 21
87.895808399859163
 31
0.0
  0
LINE
  5
178
  8
0
  6
CONTINUOUS
 62
     7
 10
-246.86491502521031
 20
85.895800051319881
 30
0.0
 11
-246.86491502521031
 21
66.395783354937109
 31
0.0
  0
LINE
  5
179
  8
0
  6
CONTINUOUS
 62
     7
 10
-246.86491502521031
 20
118.39578335493709
 30
0.0
 11
-246.86491502521031
 21
98.895800051597291
 31
0.0
  0
LINE
  5
17A
  8
0
  6
CONTINUOUS
 62
     7
 10
-254.05951005841041
 20
121.39578335493709
 30
0.0
 11
-249.86491502521031
 21
121.39578335493709
 31
0.0
  0
LINE
  5
17B
  8
0
  6
CONTINUOUS
 62
     7
 10
-249.86491502521031
 20
63.395783354937102
 30
0.0
 11
-254.05951005841041
 21
63.395783354937102
 31
0.0
  0
LINE
  5
17C
  8
0
  6
CONTINUOUS
 62
     7
 10
-258.36491502521028
 20
129.89578335493709
 30
0.0
 11
-258.36491502521028
 21
125.7011883217379
 31
0.0
  0
LINE
  5
17D
  8
0
  6
CONTINUOUS
 62
     7
 10
-258.36491502521028
 20
59.090378388240012
 30
0.0
 11
-258.36491502521028
 21
54.895783354937102
 31
0.0
  0
LINE
  5
17E
  8
0
  6
CONTINUOUS
 62
     7
 10
-261.36491502521028
 20
51.895783354937102
 30
0.0
 11
-280.86491502521028
 21
51.895783354937102
 31
0.0
  0
LINE
  5
17F
  8
0
  6
CONTINUOUS
 62
     7
 10
-267.36491502520943
 20
132.89578335493709
 30
0.0
 11
-261.36491502521028
 21
132.89578335493709
 31
0.0
  0
LINE
  5
180
  8
0
  6
CONTINUOUS
 62
     7
 10
-313.36491502520852
 20
132.89578335493709
 30
0.0
 11
-307.36491502520943
 21
132.89578335493709
 31
0.0
  0
LINE
  5
181
  8
0
  6
CONTINUOUS
 62
     7
 10
-293.86491502520852
 20
51.895783354937102
 30
0.0
 11
-313.36491502520852
 21
51.895783354937102
 31
0.0
  0
LINE
  5
182
  8
0
  6
CONTINUOUS
 62
     7
 10
-316.36491502520852
 20
54.895783354937102
 30
0.0
 11
-316.36491502520852
 21
59.090378388240012
 31
0.0
  0
LINE
  5
183
  8
0
  6
CONTINUOUS
 62
     7
 10
-316.36491502520852
 20
125.7011883217379
 30
0.0
 11
-316.36491502520852
 21
129.89578335493709
 31
0.0
  0
LINE
  5
184
  8
0
  6
CONTINUOUS
 62
     7
 10
-320.67031999200827
 20
63.395783354937102
 30
0.0
 11
-324.86491502520852
 21
63.395783354937102
 31
0.0
  0
LINE
  5
185
  8
0
  6
CONTINUOUS
 62
     7
 10
-324.86491502520852
 20
121.39578335493709
 30
0.0
 11
-320.67031999200827
 21
121.39578335493709
 31
0.0
  0
LINE
  5
186
  8
0
  6
CONTINUOUS
 62
     7
 10
-327.86491502520852
 20
98.895800051597291
 30
0.0
 11
-327.86491502520852
 21
118.39578335493709
 31
0.0
  0
LINE
  5
187
  8
0
  6
CONTINUOUS
 62
     7
 10
-327.86491502520852
 20
66.395783354937109
 30
0.0
 11
-327.86491502520852
 21
85.895800051319881
 31
0.0
  0
LINE
  5
188
  8
0
  6
CONTINUOUS
 62
     7
 10
-330.36491502520852
 20
87.895808399859163
 30
0.0
 11
-330.36491502520852
 21
96.895808399578115
 31
0.0
  0
LINE
  5
189
  8
0
  6
CONTINUOUS
 62
     7
 10
-330.36491502520852
 20
87.895808399859163
 30
0.0
 11
-330.36491502520852
 21
96.895808399578115
 31
0.0
  0
LINE
  5
18A
  8
0
  6
CONTINUOUS
 62
     7
 10
-292.86491502520852
 20
50.395783354937102
 30
0.0
 11
-292.86491502520852
 21
50.895783354937102
 31
0.0
  0
LINE
  5
18B
  8
0
  6
CONTINUOUS
 62
     7
 10
-329.36489832868841
 20
97.895808399438934
 30
0.0
 11
-328.86493172172862
 21
97.895800051739172
 31
0.0
  0
LINE
  5
18C
  8
0
  6
CONTINUOUS
 62
     7
 10
-328.86489832868841
 20
86.895800051178909
 30
0.0
 11
-329.36493172172862
 21
86.895808400000135
 31
0.0
  0
LINE
  5
18D
  8
0
  6
CONTINUOUS
 62
     7
 10
-322.3649149795973
 20
116.029757905531
 30
0.0
 11
-322.3649149795973
 21
117.7618087130991
 31
0.0
  0
LINE
  5
18E
  8
0
  6
CONTINUOUS
 62
     7
 10
-323.8649149795973
 20
115.163732501746
 30
0.0
 11
-322.3649149795973
 21
116.029757905531
 31
0.0
  0
LINE
  5
18F
  8
0
  6
CONTINUOUS
 62
     7
 10
-325.3649149795973
 20
116.029757905531
 30
0.0
 11
-323.8649149795973
 21
115.163732501746
 31
0.0
  0
LINE
  5
190
  8
0
  6
CONTINUOUS
 62
     7
 10
-325.3649149795973
 20
117.7618087130991
 30
0.0
 11
-325.3649149795973
 21
116.029757905531
 31
0.0
  0
LINE
  5
191
  8
0
  6
CONTINUOUS
 62
     7
 10
-323.8649149795973
 20
118.6278341168841
 30
0.0
 11
-325.3649149795973
 21
117.7618087130991
 31
0.0
  0
LINE
  5
192
  8
0
  6
CONTINUOUS
 62
     7
 10
-322.3649149795973
 20
117.7618087130991
 30
0.0
 11
-323.8649149795973
 21
118.6278341168841
 31
0.0
  0
LINE
  5
193
  8
0
  6
CONTINUOUS
 62
     7
 10
-330.36491502520943
 20
87.894510585582367
 30
0.0
 11
-330.36491502520943
 21
96.894510585582367
 31
0.0
  0
LINE
  5
194
  8
0
  6
CONTINUOUS
 62
     7
 10
-287.36481502512999
 20
49.395783354937102
 30
0.0
 11
-291.86618779456501
 21
49.395783354937102
 31
0.0
  0
LINE
  5
195
  8
0
  6
CONTINUOUS
 62
     7
 10
-323.8649149795973
 20
66.163732593092874
 30
0.0
 11
-322.3649149795973
 21
67.029757996876967
 31
0.0
  0
LINE
  5
196
  8
0
  6
CONTINUOUS
 62
     7
 10
-325.3649149795973
 20
67.029757996876967
 30
0.0
 11
-323.8649149795973
 21
66.163732593092874
 31
0.0
  0
LINE
  5
197
  8
0
  6
CONTINUOUS
 62
     7
 10
-325.3649149795973
 20
68.761808804447838
 30
0.0
 11
-325.3649149795973
 21
67.029757996876967
 31
0.0
  0
LINE
  5
198
  8
0
  6
CONTINUOUS
 62
     7
 10
-323.8649149795973
 20
69.627834208231022
 30
0.0
 11
-325.3649149795973
 21
68.761808804447838
 31
0.0
  0
LINE
  5
199
  8
0
  6
CONTINUOUS
 62
     7
 10
-322.3649149795973
 20
68.761808804447838
 30
0.0
 11
-323.8649149795973
 21
69.627834208231022
 31
0.0
  0
LINE
  5
19A
  8
0
  6
CONTINUOUS
 62
     7
 10
-322.3649149795973
 20
67.029757996876967
 30
0.0
 11
-322.3649149795973
 21
68.761808804447838
 31
0.0
  0
LINE
  5
19B
  8
0
  6
CONTINUOUS
 62
     7
 10
-307.36491502520943
 20
154.3956519948629
 30
0.0
 11
-307.36491502520943
 21
127.5832872054085
 31
0.0
  0
LINE
  5
19C
  8
0
  6
CONTINUOUS
 62
     7
 10
-307.36491502520943
 20
154.3956519948629
 30
0.0
 11
-267.36491502520943
 21
154.3956519948629
 31
0.0
  0
LINE
  5
19D
  8
0
  6
CONTINUOUS
 62
     7
 10
-307.36491502520943
 20
154.3956519948629
 30
0.0
 11
-267.3650150252123
 21
154.3956519948629
 31
0.0
  0
LINE
  5
19E
  8
0
  6
CONTINUOUS
 62
     7
 10
-306.36491502520943
 20
154.39565308417659
 30
0.0
 11
-306.36491502520943
 21
155.0955823689205
 31
0.0
  0
LINE
  5
19F
  8
0
  6
CONTINUOUS
 62
     7
 10
-306.4150150252089
 20
155.0955821059265
 30
0.0
 11
-268.31491503854238
 21
155.09578210698021
 31
0.0
  0
LINE
  5
1A0
  8
0
  6
CONTINUOUS
 62
     7
 10
-268.36491502520943
 20
154.39565308417659
 30
0.0
 11
-268.36491502520943
 21
155.09578184450999
 31
0.0
  0
LINE
  5
1A1
  8
0
  6
CONTINUOUS
 62
     7
 10
-307.36491502520943
 20
154.3956519948629
 30
0.0
 11
-267.36491502520943
 21
154.3956519948629
 31
0.0
  0
LINE
  5
1A2
  8
0
  6
CONTINUOUS
 62
     7
 10
-269.93501502520837
 20
157.48562834512319
 30
0.0
 11
-270.00913969764298
 21
158.3328772279979
 31
0.0
  0
LINE
  5
1A3
  8
0
  6
DASH_CENTER
 62
     1
 10
-272.68501502520837
 20
153.3237821059279
 30
0.0
 11
-272.68501502520837
 21
161.58032834512289
 31
0.0
  0
LINE
  5
1A4
  8
0
  6
CONTINUOUS
 62
     7
 10
-268.31511502520959
 20
157.48562834512319
 30
0.0
 11
-268.31491502520828
 21
155.0955821059265
 31
0.0
  0
LINE
  5
1A5
  8
0
  6
CONTINUOUS
 62
     7
 10
-306.4150150252089
 20
157.48562834512319
 30
0.0
 11
-306.4150150252089
 21
155.0955821059265
 31
0.0
  0
LINE
  5
1A6
  8
0
  6
CONTINUOUS
 62
     7
 10
-268.31511502520959
 20
157.48562834512319
 30
0.0
 11
-306.4150150252089
 21
157.48562834512319
 31
0.0
  0
LINE
  5
1A7
  8
0
  6
CONTINUOUS
 62
     7
 10
-272.98991502520988
 20
176.5356283451234
 30
0.0
 11
-301.7399150252071
 21
176.5356283451234
 31
0.0
  0
LINE
  5
1A8
  8
0
  6
CONTINUOUS
 62
     7
 10
-275.36089035277098
 20
158.3328772279979
 30
0.0
 11
-275.43501502520837
 21
157.48562834512319
 31
0.0
  0
LINE
  5
1A9
  8
0
  6
CONTINUOUS
 62
     7
 10
-299.29481502520952
 20
157.48562834512319
 30
0.0
 11
-299.36893969764498
 21
158.3328772279979
 31
0.0
  0
LINE
  5
1AA
  8
0
  6
CONTINUOUS
 62
     7
 10
-304.72069035277298
 20
158.3328772279979
 30
0.0
 11
-304.79481502520952
 21
157.48562834512319
 31
0.0
  0
LINE
  5
1AB
  8
0
  6
DASH_CENTER
 62
     1
 10
-302.04481502520952
 20
161.58032834512289
 30
0.0
 11
-302.04481502520952
 21
153.3237821059279
 31
0.0
  0
LINE
  5
1AC
  8
0
  6
CONTINUOUS
 62
     7
 10
-267.36491502520943
 20
154.3956519948629
 30
0.0
 11
-267.36491502520943
 21
127.5832872054085
 31
0.0
  0
LINE
  5
1AD
  8
0
  6
CONTINUOUS
 62
     7
 10
-305.21637068172629
 20
126.99828567654239
 30
0.0
 11
-305.80008094383072
 21
128.40748690780819
 31
0.0
  0
LINE
  5
1AE
  8
0
  6
CONTINUOUS
 62
     7
 10
-299.21115372040362
 20
129.48572798691441
 30
0.0
 11
-299.79499505275987
 21
130.89524564976421
 31
0.0
  0
LINE
  5
1AF
  8
0
  6
CONTINUOUS
 62
     7
 10
-274.93248239017049
 20
130.89524564976421
 30
0.0
 11
-275.51632372252789
 21
129.48572798691441
 31
0.0
  0
LINE
  5
1B0
  8
0
  6
CONTINUOUS
 62
     7
 10
-268.92739649910061
 20
128.40748690780819
 30
0.0
 11
-269.51110676120322
 21
126.99828567654239
 31
0.0
  0
LINE
  5
1B1
  8
0
  6
CONTINUOUS
 62
     7
 10
-273.75115210893989
 20
129.4794436988046
 30
0.0
 11
-272.5137152418655
 21
128.24200683172839
 31
0.0
  0
LINE
  5
1B2
  8
0
  6
CONTINUOUS
 62
     7
 10
-271.27627837478559
 20
127.0045699646503
 30
0.0
 11
-272.5137152418655
 21
128.24200683172839
 31
0.0
  0
LINE
  5
1B3
  8
0
  6
CONTINUOUS
 62
     7
 10
-273.75115210893989
 20
127.0045699646503
 30
0.0
 11
-272.5137152418655
 21
128.24200683172839
 31
0.0
  0
LINE
  5
1B4
  8
0
  6
CONTINUOUS
 62
     7
 10
-271.27627837478559
 20
129.4794436988046
 30
0.0
 11
-272.5137152418655
 21
128.24200683172839
 31
0.0
  0
LINE
  5
1B5
  8
0
  6
DASH_CENTER
 62
     1
 10
-270.88731065431227
 20
132.16849484490251
 30
0.0
 11
-274.14011982941599
 21
124.3155188185561
 31
0.0
  0
LINE
  5
1B6
  8
0
  6
CONTINUOUS
 62
     7
 10
-324.81551806965018
 20
95.645113630110743
 30
0.0
 11
-321.61373872146658
 21
95.645113630110743
 31
0.0
  0
LINE
  5
1B7
  8
0
  6
CONTINUOUS
 62
     7
 10
-324.81551806964569
 20
89.145113630109819
 30
0.0
 11
-321.61373872146203
 21
89.145113630109819
 31
0.0
  0
LINE
  5
1B8
  8
0
  6
CONTINUOUS
 62
     7
 10
-253.1137387214693
 20
89.145113630109819
 30
0.0
 11
-249.91551806965421
 21
89.145113630109819
 31
0.0
  0
LINE
  5
1B9
  8
0
  6
CONTINUOUS
 62
     7
 10
-253.11373872146569
 20
95.645113630110743
 30
0.0
 11
-249.9155180696506
 21
95.645113630110743
 31
0.0
  0
LINE
  5
1BA
  8
0
  6
DASH_CENTER
 62
     1
 10
-255.66491507082159
 20
67.895783400662879
 30
0.0
 11
-246.0649150708204
 21
67.895783400662879
 31
0.0
  0
LINE
  5
1BB
  8
0
  6
DASH_CENTER
 62
     1
 10
-250.8649150708205
 20
72.695783400662137
 30
0.0
 11
-250.8649150708205
 21
63.095783400660871
 31
0.0
  0
LINE
  5
1BC
  8
0
  6
DASH_CENTER
 62
     1
 10
-246.0649150708204
 20
116.895783309316
 30
0.0
 11
-255.66491507082159
 21
116.895783309316
 31
0.0
  0
LINE
  5
1BD
  8
0
  6
DASH_CENTER
 62
     1
 10
-250.8649150708205
 20
121.69578330931159
 30
0.0
 11
-250.8649150708205
 21
112.095783309314
 31
0.0
  0
LINE
  5
1BE
  8
0
  6
DASH_CENTER
 62
     1
 10
-319.0649149795953
 20
116.895783309316
 30
0.0
 11
-328.66491497959839
 21
116.895783309316
 31
0.0
  0
LINE
  5
1BF
  8
0
  6
DASH_CENTER
 62
     1
 10
-323.8649149795973
 20
112.095783309314
 30
0.0
 11
-323.8649149795973
 21
121.69578330931159
 31
0.0
  0
LINE
  5
1C0
  8
0
  6
DASH_CENTER
 62
     1
 10
-328.66491497959839
 20
67.895783400662879
 30
0.0
 11
-319.0649149795953
 21
67.895783400662879
 31
0.0
  0
LINE
  5
1C1
  8
0
  6
DASH_CENTER
 62
     1
 10
-323.8649149795973
 20
63.095783400660871
 30
0.0
 11
-323.8649149795973
 21
72.695783400662137
 31
0.0
  0
LINE
  5
1C3
  8
0
  6
CONTINUOUS
 62
     7
 10
305.4949196114577
 20
208.4458000000073
 30
0.0
 11
273.37491961145759
 21
208.4458000000073
 31
0.0
  0
LINE
  5
1C4
  8
0
  6
CONTINUOUS
 62
     7
 10
299.18718349695462
 20
199.0058000000042
 30
0.0
 11
305.87468349695098
 21
199.0058000000042
 31
0.0
  0
LINE
  5
1C5
  8
0
  6
CONTINUOUS
 62
     7
 10
298.43718349695462
 20
199.99439567725921
 30
0.0
 11
298.43718349695462
 21
199.7558000000042
 31
0.0
  0
LINE
  5
1C6
  8
0
  6
CONTINUOUS
 62
     7
 10
305.87468349695098
 20
199.0058000000042
 30
0.0
 11
306.87468349695462
 21
198.0058000000042
 31
0.0
  0
LINE
  5
1C7
  8
0
  6
CONTINUOUS
 62
     7
 10
306.87468349695462
 20
198.0058000000042
 30
0.0
 11
271.87930075090418
 21
198.0058000000042
 31
0.0
  0
LINE
  5
1C8
  8
0
  6
CONTINUOUS
 62
     7
 10
272.87930075090418
 20
199.0058000000042
 30
0.0
 11
299.18718349695462
 21
199.0058000000042
 31
0.0
  0
LINE
  5
1C9
  8
0
  6
CONTINUOUS
 62
     7
 10
305.87468349695098
 20
199.0058000000042
 30
0.0
 11
306.87468349695462
 21
198.0058000000042
 31
0.0
  0
LINE
  5
1CA
  8
0
  6
CONTINUOUS
 62
     7
 10
271.87930075090418
 20
198.0058000000042
 30
0.0
 11
272.87930075090418
 21
199.0058000000042
 31
0.0
  0
LINE
  5
1CB
  8
0
  6
CONTINUOUS
 62
     7
 10
305.87468349695189
 20
203.4238196429867
 30
0.0
 11
298.91325777355758
 21
200.69258239874549
 31
0.0
  0
LINE
  5
1CC
  8
0
  6
CONTINUOUS
 62
     7
 10
289.31906463640308
 20
207.5866425164283
 30
0.0
 11
276.3167776619697
 21
203.0992587126527
 31
0.0
  0
LINE
  5
1CD
  8
0
  6
CONTINUOUS
 62
     7
 10
289.31906463640308
 20
208.05998183459789
 30
0.0
 11
289.31906463640308
 21
207.5866425164283
 31
0.0
  0
LINE
  5
1CE
  8
0
  6
CONTINUOUS
 62
     7
 10
301.70642117916162
 20
208.44580000000559
 30
0.0
 11
274.4001997170875
 21
199.0058000000042
 31
0.0
  0
LINE
  5
1CF
  8
0
  6
CONTINUOUS
 62
     7
 10
272.87930075090418
 20
201.60275021093699
 30
0.0
 11
274.13502048274529
 21
203.0992587126527
 31
0.0
  0
LINE
  5
1D0
  8
0
  6
CONTINUOUS
 62
     7
 10
276.3167776619697
 20
203.0992587126527
 30
0.0
 11
274.13502048274529
 21
203.0992587126527
 31
0.0
  0
LINE
  5
1D1
  8
0
  6
CONTINUOUS
 62
     7
 10
275.90625433311499
 20
208.44580000000559
 30
0.0
 11
289.31906463640308
 21
208.05998183459789
 31
0.0
  0
LINE
  5
1D2
  8
0
  6
CONTINUOUS
 62
     7
 10
305.87468349695462
 20
207.94580000000559
 30
0.0
 11
305.37468349695462
 21
208.44580000000559
 31
0.0
  0
LINE
  5
1D3
  8
0
  6
CONTINUOUS
 62
     7
 10
272.87930075090418
 20
207.94580000000559
 30
0.0
 11
273.37930075090418
 21
208.44580000000559
 31
0.0
  0
LINE
  5
1D4
  8
0
  6
CONTINUOUS
 62
     7
 10
305.37468349695462
 20
208.44580000000559
 30
0.0
 11
273.37930075090418
 21
208.44580000000559
 31
0.0
  0
LINE
  5
1D5
  8
0
  6
CONTINUOUS
 62
     7
 10
305.87468349695462
 20
207.94580000000559
 30
0.0
 11
305.87468349695098
 21
199.0058000000042
 31
0.0
  0
LINE
  5
1D6
  8
0
  6
CONTINUOUS
 62
     7
 10
272.87930075090418
 20
199.0058000000042
 30
0.0
 11
272.87930075090418
 21
207.94580000000559
 31
0.0
  0
LINE
  5
1D7
  8
0
  6
CONTINUOUS
 62
     7
 10
271.84825579343158
 20
192.89580000000731
 30
0.0
 11
271.87930075090418
 21
198.0058000000042
 31
0.0
  0
LINE
  5
1D8
  8
0
  6
CONTINUOUS
 62
     7
 10
306.87468349695462
 20
198.0058000000042
 30
0.0
 11
306.90572845442728
 21
192.89580000000731
 31
0.0
  0
LINE
  5
1D9
  8
0
  6
CONTINUOUS
 62
     7
 10
305.37468349695462
 20
208.44580000000559
 30
0.0
 11
273.3892610600555
 21
208.44580000000639
 31
0.0
  0
LINE
  5
1DA
  8
0
  6
CONTINUOUS
 62
     7
 10
-25.693084597132131
 20
208.4459444086306
 30
0.0
 11
-57.678507034031291
 21
208.4459444086315
 31
0.0
  0
LINE
  5
1DB
  8
0
  6
CONTINUOUS
 62
     7
 10
-24.193084597132131
 20
198.00594440862909
 30
0.0
 11
-24.162039639659469
 21
192.89594440863229
 31
0.0
  0
LINE
  5
1DC
  8
0
  6
CONTINUOUS
 62
     7
 10
-59.219512300655168
 20
192.89594440863229
 30
0.0
 11
-59.188467343182502
 21
198.00594440862909
 31
0.0
  0
LINE
  5
1DD
  8
0
  6
CONTINUOUS
 62
     7
 10
-58.188467343182502
 20
199.00594440862909
 30
0.0
 11
-58.188467343182502
 21
207.9459444086306
 31
0.0
  0
LINE
  5
1DE
  8
0
  6
CONTINUOUS
 62
     7
 10
-25.193084597132131
 20
207.9459444086306
 30
0.0
 11
-25.193084597135769
 21
199.00594440862909
 31
0.0
  0
LINE
  5
1DF
  8
0
  6
CONTINUOUS
 62
     7
 10
-25.693084597132131
 20
208.4459444086306
 30
0.0
 11
-57.688467343182502
 21
208.4459444086306
 31
0.0
  0
LINE
  5
1E0
  8
0
  6
CONTINUOUS
 62
     7
 10
-58.188467343182502
 20
207.9459444086306
 30
0.0
 11
-57.688467343182502
 21
208.4459444086306
 31
0.0
  0
LINE
  5
1E1
  8
0
  6
CONTINUOUS
 62
     7
 10
-25.193084597132131
 20
207.9459444086306
 30
0.0
 11
-25.693084597132131
 21
208.4459444086306
 31
0.0
  0
LINE
  5
1E2
  8
0
  6
CONTINUOUS
 62
     7
 10
-55.161513760971701
 20
208.4459444086306
 30
0.0
 11
-41.748703457683597
 21
208.0601262432229
 31
0.0
  0
LINE
  5
1E3
  8
0
  6
CONTINUOUS
 62
     7
 10
-54.75099043211705
 20
203.0994031212777
 30
0.0
 11
-56.932747611341462
 21
203.0994031212777
 31
0.0
  0
LINE
  5
1E4
  8
0
  6
CONTINUOUS
 62
     7
 10
-58.188467343182502
 20
201.60289461956199
 30
0.0
 11
-56.932747611341462
 21
203.0994031212777
 31
0.0
  0
LINE
  5
1E5
  8
0
  6
CONTINUOUS
 62
     7
 10
-29.361346914925178
 20
208.4459444086306
 30
0.0
 11
-56.667568376999242
 21
199.00594440862909
 31
0.0
  0
LINE
  5
1E6
  8
0
  6
CONTINUOUS
 62
     7
 10
-41.748703457683597
 20
208.0601262432229
 30
0.0
 11
-41.748703457683597
 21
207.5867869250533
 31
0.0
  0
LINE
  5
1E7
  8
0
  6
CONTINUOUS
 62
     7
 10
-41.748703457683597
 20
207.5867869250533
 30
0.0
 11
-54.75099043211705
 21
203.0994031212777
 31
0.0
  0
LINE
  5
1E8
  8
0
  6
CONTINUOUS
 62
     7
 10
-25.19308459713486
 20
203.4239640516117
 30
0.0
 11
-32.15451032052917
 21
200.69272680737049
 31
0.0
  0
LINE
  5
1E9
  8
0
  6
CONTINUOUS
 62
     7
 10
-59.188467343182502
 20
198.00594440862909
 30
0.0
 11
-58.188467343182502
 21
199.00594440862909
 31
0.0
  0
LINE
  5
1EA
  8
0
  6
CONTINUOUS
 62
     7
 10
-25.193084597135769
 20
199.00594440862909
 30
0.0
 11
-24.193084597132131
 21
198.00594440862909
 31
0.0
  0
LINE
  5
1EB
  8
0
  6
CONTINUOUS
 62
     7
 10
-58.188467343182502
 20
199.00594440862909
 30
0.0
 11
-31.880584597132131
 21
199.00594440862909
 31
0.0
  0
LINE
  5
1EC
  8
0
  6
CONTINUOUS
 62
     7
 10
-24.193084597132131
 20
198.00594440862909
 30
0.0
 11
-59.188467343182502
 21
198.00594440862909
 31
0.0
  0
LINE
  5
1ED
  8
0
  6
CONTINUOUS
 62
     7
 10
-25.193084597135769
 20
199.00594440862909
 30
0.0
 11
-24.193084597132131
 21
198.00594440862909
 31
0.0
  0
LINE
  5
1EE
  8
0
  6
CONTINUOUS
 62
     7
 10
-32.630584597132128
 20
199.9945400858841
 30
0.0
 11
-32.630584597132128
 21
199.7559444086292
 31
0.0
  0
LINE
  5
1EF
  8
0
  6
CONTINUOUS
 62
     7
 10
-31.880584597132131
 20
199.00594440862909
 30
0.0
 11
-25.193084597135769
 21
199.00594440862909
 31
0.0
  0
LINE
  5
1F0
  8
0
  6
CONTINUOUS
 62
     7
 10
-277.61265113971149
 20
199.0059444086281
 30
0.0
 11
-270.92515113971513
 21
199.0059444086281
 31
0.0
  0
LINE
  5
1F1
  8
0
  6
CONTINUOUS
 62
     7
 10
-278.36265113971149
 20
199.9945400858831
 30
0.0
 11
-278.36265113971149
 21
199.7559444086281
 31
0.0
  0
LINE
  5
1F2
  8
0
  6
CONTINUOUS
 62
     7
 10
-270.92515113971513
 20
199.0059444086281
 30
0.0
 11
-269.92515113971149
 21
198.0059444086281
 31
0.0
  0
LINE
  5
1F3
  8
0
  6
CONTINUOUS
 62
     7
 10
-269.92515113971149
 20
198.0059444086281
 30
0.0
 11
-304.92053388576193
 21
198.0059444086281
 31
0.0
  0
LINE
  5
1F4
  8
0
  6
CONTINUOUS
 62
     7
 10
-303.92053388576193
 20
199.0059444086281
 30
0.0
 11
-277.61265113971149
 21
199.0059444086281
 31
0.0
  0
LINE
  5
1F5
  8
0
  6
CONTINUOUS
 62
     7
 10
-270.92515113971513
 20
199.0059444086281
 30
0.0
 11
-269.92515113971149
 21
198.0059444086281
 31
0.0
  0
LINE
  5
1F6
  8
0
  6
CONTINUOUS
 62
     7
 10
-304.92053388576193
 20
198.0059444086281
 30
0.0
 11
-303.92053388576193
 21
199.0059444086281
 31
0.0
  0
LINE
  5
1F7
  8
0
  6
CONTINUOUS
 62
     7
 10
-270.92515113971422
 20
203.4239640516106
 30
0.0
 11
-277.88657686310847
 21
200.69272680736941
 31
0.0
  0
LINE
  5
1F8
  8
0
  6
CONTINUOUS
 62
     7
 10
-287.48077000026302
 20
207.58678692505219
 30
0.0
 11
-300.48305697469641
 21
203.09940312127659
 31
0.0
  0
LINE
  5
1F9
  8
0
  6
CONTINUOUS
 62
     7
 10
-287.48077000026302
 20
208.06012624322179
 30
0.0
 11
-287.48077000026302
 21
207.58678692505219
 31
0.0
  0
LINE
  5
1FA
  8
0
  6
CONTINUOUS
 62
     7
 10
-275.09341345750448
 20
208.44594440862949
 30
0.0
 11
-302.3996349195786
 21
199.0059444086281
 31
0.0
  0
LINE
  5
1FB
  8
0
  6
CONTINUOUS
 62
     7
 10
-303.92053388576193
 20
201.60289461956091
 30
0.0
 11
-302.66481415392082
 21
203.09940312127659
 31
0.0
  0
LINE
  5
1FC
  8
0
  6
CONTINUOUS
 62
     7
 10
-300.48305697469641
 20
203.09940312127659
 30
0.0
 11
-302.66481415392082
 21
203.09940312127659
 31
0.0
  0
LINE
  5
1FD
  8
0
  6
CONTINUOUS
 62
     7
 10
-300.89358030355112
 20
208.44594440862949
 30
0.0
 11
-287.48077000026302
 21
208.06012624322179
 31
0.0
  0
LINE
  5
1FE
  8
0
  6
CONTINUOUS
 62
     7
 10
-270.92515113971149
 20
207.94594440862949
 30
0.0
 11
-271.42515113971149
 21
208.44594440862949
 31
0.0
  0
LINE
  5
1FF
  8
0
  6
CONTINUOUS
 62
     7
 10
-303.92053388576193
 20
207.94594440862949
 30
0.0
 11
-303.42053388576193
 21
208.44594440862949
 31
0.0
  0
LINE
  5
200
  8
0
  6
CONTINUOUS
 62
     7
 10
-271.42515113971149
 20
208.44594440862949
 30
0.0
 11
-303.42053388576193
 21
208.44594440862949
 31
0.0
  0
LINE
  5
201
  8
0
  6
CONTINUOUS
 62
     7
 10
-270.92515113971149
 20
207.94594440862949
 30
0.0
 11
-270.92515113971513
 21
199.0059444086281
 31
0.0
  0
LINE
  5
202
  8
0
  6
CONTINUOUS
 62
     7
 10
-303.92053388576193
 20
199.0059444086281
 30
0.0
 11
-303.92053388576193
 21
207.94594440862949
 31
0.0
  0
LINE
  5
203
  8
0
  6
CONTINUOUS
 62
     7
 10
-304.95157884323447
 20
192.8959444086311
 30
0.0
 11
-304.92053388576193
 21
198.0059444086281
 31
0.0
  0
LINE
  5
204
  8
0
  6
CONTINUOUS
 62
     7
 10
-269.92515113971149
 20
198.0059444086281
 30
0.0
 11
-269.89410618223877
 21
192.8959444086311
 31
0.0
  0
LINE
  5
205
  8
0
  6
CONTINUOUS
 62
     7
 10
-271.42515113971149
 20
208.44594440862949
 30
0.0
 11
-303.4105735766106
 21
208.4459444086304
 31
0.0
  0
LINE
  5
206
  8
0
  6
CONTINUOUS
 62
     7
 10
80.867251517370946
 20
27.395834015597568
 30
0.0
 11
81.367251517370804
 21
27.895833314690329
 31
0.0
  0
LINE
  5
207
  8
0
  6
CONTINUOUS
 62
     7
 10
80.867151517370843
 20
157.39583366514381
 30
0.0
 11
81.367151517370829
 21
156.89583366514381
 31
0.0
  0
LINE
  5
208
  8
0
  6
CONTINUOUS
 62
     7
 10
-269.95328985325909
 20
157.6957833549373
 30
0.0
 11
-260.3649150252084
 21
157.6957833549373
 31
0.0
  0
LINE
  5
209
  8
0
  6
DASH_CENTER
 62
     1
 10
-85.632857457109964
 20
150.89594381685461
 30
0.0
 11
-75.632857457109964
 21
150.89594381685461
 31
0.0
  0
LINE
  5
20A
  8
0
  6
DASH_CENTER
 62
     1
 10
-85.632857457109964
 20
33.895943816854633
 30
0.0
 11
-75.632857457109964
 21
33.895943816854633
 31
0.0
  0
LINE
  5
20B
  8
0
  6
CONTINUOUS
 62
     7
 10
-82.632857457109964
 20
30.045943816854631
 30
0.0
 11
-82.232857457109944
 21
29.645943816854629
 31
0.0
  0
LINE
  5
20C
  8
0
  6
CONTINUOUS
 62
     7
 10
-82.632857457109964
 20
37.745943816854613
 30
0.0
 11
-82.632857457109964
 21
30.045943816854631
 31
0.0
  0
LINE
  5
20D
  8
0
  6
CONTINUOUS
 62
     7
 10
-82.632857457109964
 20
37.745943816854613
 30
0.0
 11
-82.232857457109944
 21
38.145943816854633
 31
0.0
  0
LINE
  5
20E
  8
0
  6
CONTINUOUS
 62
     7
 10
-78.632857457109964
 20
38.145943816854633
 30
0.0
 11
-82.232857457109944
 21
38.145943816854633
 31
0.0
  0
LINE
  5
20F
  8
0
  6
CONTINUOUS
 62
     7
 10
-79.132857457109964
 20
29.645943816854629
 30
0.0
 11
-79.132857457109964
 21
38.145943816854633
 31
0.0
  0
LINE
  5
210
  8
0
  6
CONTINUOUS
 62
     7
 10
-78.632857457109964
 20
29.645943816854629
 30
0.0
 11
-82.232857457109944
 21
29.645943816854629
 31
0.0
  0
LINE
  5
211
  8
0
  6
CONTINUOUS
 62
     7
 10
-79.132857457109964
 20
155.14594381685461
 30
0.0
 11
-79.132857457109964
 21
146.64594381685461
 31
0.0
  0
LINE
  5
212
  8
0
  6
CONTINUOUS
 62
     7
 10
-82.232857457109944
 20
146.64594381685461
 30
0.0
 11
-78.632857457109964
 21
146.64594381685461
 31
0.0
  0
LINE
  5
213
  8
0
  6
CONTINUOUS
 62
     7
 10
-82.232857457109944
 20
155.14594381685461
 30
0.0
 11
-78.632857457109964
 21
155.14594381685461
 31
0.0
  0
LINE
  5
214
  8
0
  6
CONTINUOUS
 62
     7
 10
-82.232857457109944
 20
146.64594381685461
 30
0.0
 11
-82.632857457109964
 21
147.0459438168543
 31
0.0
  0
LINE
  5
215
  8
0
  6
CONTINUOUS
 62
     7
 10
-82.632857457109964
 20
154.74594381685449
 30
0.0
 11
-82.632857457109964
 21
147.0459438168543
 31
0.0
  0
LINE
  5
21A
  8
0
  6
CONTINUOUS
 62
     7
 10
-78.632857457109964
 20
109.3959438168546
 30
0.0
 11
69.367151517370843
 21
109.39583307337359
 31
0.0
  0
LINE
  5
21B
  8
0
  6
CONTINUOUS
 62
     7
 10
-78.632857457109964
 20
112.1459438168546
 30
0.0
 11
69.367151517370843
 21
112.14583307337359
 31
0.0
  0
LINE
  5
21C
  8
0
  6
CONTINUOUS
 62
     7
 10
-78.632857457109964
 20
114.78010571127309
 30
0.0
 11
69.367151517370843
 21
114.77999496779211
 31
0.0
  0
LINE
  5
21D
  8
0
  6
CONTINUOUS
 62
     7
 10
-25.572848482629158
 20
208.4459444086323
 30
0.0
 11
-57.692848482629152
 21
208.4459444086323
 31
0.0
  0
LINE
  5
21E
  8
0
  6
CONTINUOUS
 62
     7
 10
-8.2328484826331696
 20
158.39594440862481
 30
0.0
 11
-69.191106052123516
 21
158.39594440862481
 31
0.0
  0
LINE
  5
21F
  8
0
  6
CONTINUOUS
 62
     7
 10
-8.2328484826331696
 20
158.39594440862481
 30
0.0
 11
-8.2328484826331696
 21
157.39594440862481
 31
0.0
  0
LINE
  5
220
  8
0
  6
CONTINUOUS
 62
     7
 10
-68.254090587513161
 20
191.43978532056019
 30
0.0
 11
-68.732848482628611
 21
158.09594440862551
 31
0.0
  0
LINE
  5
221
  8
0
  6
CONTINUOUS
 62
     7
 10
-8.7328484826331891
 20
163.195944408625
 30
0.0
 11
-8.7328484826331696
 21
158.39594440862481
 31
0.0
  0
LINE
  5
222
  8
0
  6
CONTINUOUS
 62
     7
 10
-12.232848482628629
 20
178.6959444086325
 30
0.0
 11
-8.7328484826331891
 21
163.195944408625
 31
0.0
  0
LINE
  5
223
  8
0
  6
CONTINUOUS
 62
     7
 10
-69.232848482628626
 20
157.39594440862481
 30
0.0
 11
-69.232848482628626
 21
158.39594440862481
 31
0.0
  0
LINE
  5
224
  8
0
  6
CONTINUOUS
 62
     7
 10
-12.232848482628629
 20
191.39594440863229
 30
0.0
 11
-12.232848482628629
 21
178.6959444086325
 31
0.0
  0
LINE
  5
225
  8
0
  6
CONTINUOUS
 62
     7
 10
-66.754731399579398
 20
192.89594440863229
 30
0.0
 11
-13.73284848262862
 21
192.89594440863229
 31
0.0
  0
LINE
  5
226
  8
0
  6
DASH_CENTER
 62
     1
 10
314.63491961145922
 20
33.895800000001429
 30
0.0
 11
327.2349196114597
 21
33.895800000001429
 31
0.0
  0
LINE
  5
227
  8
0
  6
DASH_CENTER
 62
     1
 10
320.93491961145941
 20
27.595800000000342
 30
0.0
 11
320.93491961145941
 21
40.195800000000723
 31
0.0
  0
LINE
  5
228
  8
0
  6
CONTINUOUS
 62
     7
 10
320.93491961145941
 20
31.395800000001429
 30
0.0
 11
318.7698561019983
 21
32.645800000001429
 31
0.0
  0
LINE
  5
229
  8
0
  6
CONTINUOUS
 62
     7
 10
318.7698561019983
 20
32.645800000001429
 30
0.0
 11
318.7698561019983
 21
35.145800000001429
 31
0.0
  0
LINE
  5
22A
  8
0
  6
CONTINUOUS
 62
     7
 10
318.7698561019983
 20
35.145800000001429
 30
0.0
 11
320.93491961145941
 21
36.395800000001429
 31
0.0
  0
LINE
  5
22B
  8
0
  6
CONTINUOUS
 62
     7
 10
320.93491961145941
 20
36.395800000001429
 30
0.0
 11
323.09998312092051
 21
35.145800000001429
 31
0.0
  0
LINE
  5
22C
  8
0
  6
CONTINUOUS
 62
     7
 10
323.09998312092051
 20
35.145800000001429
 30
0.0
 11
323.09998312092051
 21
32.645800000001429
 31
0.0
  0
LINE
  5
22D
  8
0
  6
CONTINUOUS
 62
     7
 10
323.09998312092051
 20
32.645800000001429
 30
0.0
 11
320.93491961145941
 21
31.395800000001429
 31
0.0
  0
LINE
  5
22E
  8
0
  6
DASH_CENTER
 62
     1
 10
-252.36491502520749
 20
145.79578335493679
 30
0.0
 11
-252.36491502520749
 21
155.99578335493661
 31
0.0
  0
LINE
  5
22F
  8
0
  6
DASH_CENTER
 62
     1
 10
-247.26491502520901
 20
150.89578335493709
 30
0.0
 11
-257.46491502520882
 21
150.89578335493709
 31
0.0
  0
LINE
  5
230
  8
0
  6
DASH_CENTER
 62
     1
 10
-345.86491502520749
 20
122.2957833549368
 30
0.0
 11
-345.86491502520749
 21
132.49578335493661
 31
0.0
  0
LINE
  5
231
  8
0
  6
DASH_CENTER
 62
     1
 10
-340.76491502520901
 20
127.39578335493709
 30
0.0
 11
-350.96491502520882
 21
127.39578335493709
 31
0.0
  0
LINE
  5
232
  8
0
  6
DASH_CENTER
 62
     1
 10
-322.36491502520749
 20
28.795783354936741
 30
0.0
 11
-322.36491502520749
 21
38.995783354936563
 31
0.0
  0
LINE
  5
233
  8
0
  6
DASH_CENTER
 62
     1
 10
-317.26491502520901
 20
33.895783354937109
 30
0.0
 11
-327.46491502520882
 21
33.895783354937109
 31
0.0
  0
LINE
  5
234
  8
0
  6
DASH_CENTER
 62
     1
 10
-228.86491502520749
 20
52.295783354936738
 30
0.0
 11
-228.86491502520749
 21
62.495783354936563
 31
0.0
  0
LINE
  5
235
  8
0
  6
DASH_CENTER
 62
     1
 10
-223.76491502520901
 20
57.395783354937102
 30
0.0
 11
-233.9649150252088
 21
57.395783354937102
 31
0.0
  0
LINE
  5
236
  8
0
  6
DASH_CENTER
 62
     1
 10
-287.3649150252084
 20
24.59578335493693
 30
0.0
 11
-287.36491502520852
 21
212.9259444086255
 31
0.0
  0
LINE
  5
237
  8
0
  6
DASH_CENTER
 62
     1
 10
-343.08492938270859
 20
36.675768997437032
 30
0.0
 11
-334.17538393975872
 21
45.585314440387748
 31
0.0
  0
LINE
  5
238
  8
0
  6
DASH_CENTER
 62
     1
 10
-240.48373543254081
 20
45.514603762270362
 30
0.0
 11
-231.71561134582751
 21
36.746479675556252
 31
0.0
  0
LINE
  5
239
  8
0
  6
DASH_CENTER
 62
     1
 10
-343.226350738946
 20
148.25721906867381
 30
0.0
 11
-334.03396258352109
 21
139.06483091324901
 31
0.0
  0
LINE
  5
23A
  8
0
  6
DASH_CENTER
 62
     1
 10
-240.62515678877739
 20
139.1355415913682
 30
0.0
 11
-231.57418998959
 21
148.18650839055641
 31
0.0
  0
LINE
  5
23B
  8
0
  6
CONTINUOUS
 62
     7
 10
-236.55891144295569
 20
157.39578335493709
 30
0.0
 11
-259.90665745571351
 21
157.39578335493709
 31
0.0
  0
LINE
  5
23C
  8
0
  6
CONTINUOUS
 62
     7
 10
-352.36491502520829
 20
41.58977977268254
 30
0.0
 11
-352.36491502520829
 21
75.437525785441309
 31
0.0
  0
LINE
  5
23D
  8
0
  6
CONTINUOUS
 62
     7
 10
-222.3649150252084
 20
143.2017869371908
 30
0.0
 11
-222.3649150252084
 21
109.354040924432
 31
0.0
  0
LINE
  5
23E
  8
0
  6
CONTINUOUS
 62
     7
 10
-236.55891144295569
 20
27.395783354937109
 30
0.0
 11
-270.40665745571351
 21
27.395783354937109
 31
0.0
  0
LINE
  5
23F
  8
0
  6
CONTINUOUS
 62
     7
 10
-251.2102144868293
 20
148.89578335493709
 30
0.0
 11
-250.05551394844929
 21
150.89578335493709
 31
0.0
  0
LINE
  5
240
  8
0
  6
CONTINUOUS
 62
     7
 10
-250.05551394844929
 20
150.89578335493709
 30
0.0
 11
-251.2102144868293
 21
152.89578335493709
 31
0.0
  0
LINE
  5
241
  8
0
  6
CONTINUOUS
 62
     7
 10
-251.2102144868293
 20
152.89578335493709
 30
0.0
 11
-253.51961556358751
 21
152.89578335493709
 31
0.0
  0
LINE
  5
242
  8
0
  6
CONTINUOUS
 62
     7
 10
-253.51961556358751
 20
152.89578335493709
 30
0.0
 11
-254.6743161019684
 21
150.89578335493709
 31
0.0
  0
LINE
  5
243
  8
0
  6
CONTINUOUS
 62
     7
 10
-254.6743161019684
 20
150.89578335493709
 30
0.0
 11
-253.51961556358751
 21
148.89578335493709
 31
0.0
  0
LINE
  5
244
  8
0
  6
CONTINUOUS
 62
     7
 10
-253.51961556358751
 20
148.89578335493709
 30
0.0
 11
-251.2102144868293
 21
148.89578335493709
 31
0.0
  0
LINE
  5
245
  8
0
  6
CONTINUOUS
 62
     7
 10
-344.71021448682927
 20
125.39578335493709
 30
0.0
 11
-343.5555139484494
 21
127.39578335493709
 31
0.0
  0
LINE
  5
246
  8
0
  6
CONTINUOUS
 62
     7
 10
-343.5555139484494
 20
127.39578335493709
 30
0.0
 11
-344.71021448682927
 21
129.39578335493709
 31
0.0
  0
LINE
  5
247
  8
0
  6
CONTINUOUS
 62
     7
 10
-344.71021448682927
 20
129.39578335493709
 30
0.0
 11
-347.01961556358748
 21
129.39578335493709
 31
0.0
  0
LINE
  5
248
  8
0
  6
CONTINUOUS
 62
     7
 10
-347.01961556358748
 20
129.39578335493709
 30
0.0
 11
-348.17431610196837
 21
127.39578335493709
 31
0.0
  0
LINE
  5
249
  8
0
  6
CONTINUOUS
 62
     7
 10
-348.17431610196837
 20
127.39578335493709
 30
0.0
 11
-347.01961556358748
 21
125.39578335493709
 31
0.0
  0
LINE
  5
24A
  8
0
  6
CONTINUOUS
 62
     7
 10
-347.01961556358748
 20
125.39578335493709
 30
0.0
 11
-344.71021448682927
 21
125.39578335493709
 31
0.0
  0
LINE
  5
24B
  8
0
  6
CONTINUOUS
 62
     7
 10
-321.21021448682927
 20
31.895783354937109
 30
0.0
 11
-320.05551394844929
 21
33.895783354937109
 31
0.0
  0
LINE
  5
24C
  8
0
  6
CONTINUOUS
 62
     7
 10
-320.05551394844929
 20
33.895783354937109
 30
0.0
 11
-321.21021448682927
 21
35.895783354937109
 31
0.0
  0
LINE
  5
24D
  8
0
  6
CONTINUOUS
 62
     7
 10
-321.21021448682927
 20
35.895783354937109
 30
0.0
 11
-323.51961556358748
 21
35.895783354937109
 31
0.0
  0
LINE
  5
24E
  8
0
  6
CONTINUOUS
 62
     7
 10
-323.51961556358748
 20
35.895783354937109
 30
0.0
 11
-324.67431610196837
 21
33.895783354937109
 31
0.0
  0
LINE
  5
24F
  8
0
  6
CONTINUOUS
 62
     7
 10
-324.67431610196837
 20
33.895783354937109
 30
0.0
 11
-323.51961556358748
 21
31.895783354937109
 31
0.0
  0
LINE
  5
250
  8
0
  6
CONTINUOUS
 62
     7
 10
-323.51961556358748
 20
31.895783354937109
 30
0.0
 11
-321.21021448682927
 21
31.895783354937109
 31
0.0
  0
LINE
  5
251
  8
0
  6
CONTINUOUS
 62
     7
 10
-227.7102144868293
 20
55.395783354937102
 30
0.0
 11
-226.55551394844929
 21
57.395783354937102
 31
0.0
  0
LINE
  5
252
  8
0
  6
CONTINUOUS
 62
     7
 10
-226.55551394844929
 20
57.395783354937102
 30
0.0
 11
-227.7102144868293
 21
59.395783354937102
 31
0.0
  0
LINE
  5
253
  8
0
  6
CONTINUOUS
 62
     7
 10
-227.7102144868293
 20
59.395783354937102
 30
0.0
 11
-230.01961556358751
 21
59.395783354937102
 31
0.0
  0
LINE
  5
254
  8
0
  6
CONTINUOUS
 62
     7
 10
-230.01961556358751
 20
59.395783354937102
 30
0.0
 11
-231.1743161019684
 21
57.395783354937102
 31
0.0
  0
LINE
  5
255
  8
0
  6
CONTINUOUS
 62
     7
 10
-231.1743161019684
 20
57.395783354937102
 30
0.0
 11
-230.01961556358751
 21
55.395783354937102
 31
0.0
  0
LINE
  5
256
  8
0
  6
CONTINUOUS
 62
     7
 10
-230.01961556358751
 20
55.395783354937102
 30
0.0
 11
-227.7102144868293
 21
55.395783354937102
 31
0.0
  0
LINE
  5
257
  8
0
  6
CONTINUOUS
 62
     7
 10
-352.6649150252095
 20
75.895783354937109
 30
0.0
 11
-352.6649150252095
 21
108.89578335493709
 31
0.0
  0
LINE
  5
258
  8
0
  6
CONTINUOUS
 62
     7
 10
-303.8649150252084
 20
27.09578335493693
 30
0.0
 11
-270.8649150252084
 21
27.09578335493693
 31
0.0
  0
LINE
  5
259
  8
0
  6
CONTINUOUS
 62
     7
 10
-254.27623989061601
 20
27.395783354937109
 30
0.0
 11
-244.8649150252084
 21
27.395783354937109
 31
0.0
  0
LINE
  5
25A
  8
0
  6
CONTINUOUS
 62
     7
 10
-329.86491502520829
 20
27.395783354937109
 30
0.0
 11
-320.4535901598037
 21
27.395783354937109
 31
0.0
  0
LINE
  5
25B
  8
0
  6
CONTINUOUS
 62
     7
 10
-349.24780716466267
 20
114.75998056379341
 30
0.0
 11
-351.1149150252084
 21
114.6457833549381
 31
0.0
  0
LINE
  5
25C
  8
0
  6
CONTINUOUS
 62
     7
 10
-350.47632506218253
 20
112.1067255195963
 30
0.0
 11
-351.1149150252084
 21
112.14578335493709
 31
0.0
  0
LINE
  5
25D
  8
0
  6
CONTINUOUS
 62
     7
 10
-347.10320933598069
 20
119.89114978616421
 30
0.0
 11
-351.1149150252084
 21
119.6457833549381
 31
0.0
  0
LINE
  5
25E
  8
0
  6
CONTINUOUS
 62
     7
 10
-348.7739245915181
 20
117.0026022462649
 30
0.0
 11
-351.1149150252084
 21
117.14578335493709
 31
0.0
  0
LINE
  5
25F
  8
0
  6
CONTINUOUS
 62
     7
 10
-341.19548427688721
 20
53.752481729906819
 30
0.0
 11
-351.1149150252084
 21
53.145783354938018
 31
0.0
  0
LINE
  5
260
  8
0
  6
CONTINUOUS
 62
     7
 10
-337.32474537946462
 20
49.802340447083722
 30
0.0
 11
-351.1149150252084
 21
50.645783354937102
 31
0.0
  0
LINE
  5
261
  8
0
  6
CONTINUOUS
 62
     7
 10
-345.38614115688029
 20
60.496170174973969
 30
0.0
 11
-351.1149150252084
 21
60.145783354938011
 31
0.0
  0
LINE
  5
262
  8
0
  6
CONTINUOUS
 62
     7
 10
-342.80899095401378
 20
57.137771275971822
 30
0.0
 11
-351.1149150252084
 21
57.645783354937102
 31
0.0
  0
LINE
  5
263
  8
0
  6
CONTINUOUS
 62
     7
 10
-348.37706773588963
 20
66.813237268725572
 30
0.0
 11
-351.1149150252084
 21
66.645783354938018
 31
0.0
  0
LINE
  5
264
  8
0
  6
CONTINUOUS
 62
     7
 10
-346.60978047762802
 20
63.870237521875922
 30
0.0
 11
-351.1149150252084
 21
64.145783354937109
 31
0.0
  0
LINE
  5
265
  8
0
  6
CONTINUOUS
 62
     7
 10
-350.47632506218253
 20
72.684841190277936
 30
0.0
 11
-351.1149150252084
 21
72.645783354938004
 31
0.0
  0
LINE
  5
266
  8
0
  6
CONTINUOUS
 62
     7
 10
-349.24276123241441
 20
70.031277523644846
 30
0.0
 11
-351.1149150252084
 21
70.145783354937109
 31
0.0
  0
LINE
  5
267
  8
0
  6
CONTINUOUS
 62
     7
 10
-265.1149150252084
 20
28.645783354936199
 30
0.0
 11
-265.0007178163558
 21
30.512891215483751
 31
0.0
  0
LINE
  5
268
  8
0
  6
CONTINUOUS
 62
     7
 10
-267.6149150252084
 20
28.645783354938018
 30
0.0
 11
-267.65397286055111
 21
29.284373317963901
 31
0.0
  0
LINE
  5
269
  8
0
  6
CONTINUOUS
 62
     7
 10
-260.1149150252084
 20
28.645783354936199
 30
0.0
 11
-259.86954859398139
 21
32.657489044167562
 31
0.0
  0
LINE
  5
26A
  8
0
  6
CONTINUOUS
 62
     7
 10
-262.6149150252084
 20
28.645783354938018
 30
0.0
 11
-262.75809613388162
 21
30.98677378862935
 31
0.0
  0
LINE
  5
26B
  8
0
  6
CONTINUOUS
 62
     7
 10
-309.72911223406459
 20
30.512891215483751
 30
0.0
 11
-309.6149150252084
 21
28.645783354936199
 31
0.0
  0
LINE
  5
26C
  8
0
  6
CONTINUOUS
 62
     7
 10
-307.07585718986849
 20
29.284373317963901
 30
0.0
 11
-307.11491502520829
 21
28.645783354938018
 31
0.0
  0
LINE
  5
26D
  8
0
  6
CONTINUOUS
 62
     7
 10
-314.86028145643633
 20
32.657489044167562
 30
0.0
 11
-314.61491502520829
 21
28.645783354936199
 31
0.0
  0
LINE
  5
26E
  8
0
  6
CONTINUOUS
 62
     7
 10
-311.97173391653803
 20
30.98677378862935
 30
0.0
 11
-312.1149150252084
 21
28.645783354938018
 31
0.0
  0
LINE
  5
26F
  8
0
  6
CONTINUOUS
 62
     7
 10
-233.5343457735315
 20
131.03908497996829
 30
0.0
 11
-223.61491502520749
 21
131.64578335493709
 31
0.0
  0
LINE
  5
270
  8
0
  6
CONTINUOUS
 62
     7
 10
-237.40508467095501
 20
134.9892262627923
 30
0.0
 11
-223.6149150252084
 21
134.14578335493809
 31
0.0
  0
LINE
  5
271
  8
0
  6
CONTINUOUS
 62
     7
 10
-229.3436888935374
 20
124.29539653490031
 30
0.0
 11
-223.61491502520749
 21
124.64578335493709
 31
0.0
  0
LINE
  5
272
  8
0
  6
CONTINUOUS
 62
     7
 10
-231.9208390964057
 20
127.6537954339033
 30
0.0
 11
-223.6149150252084
 21
127.1457833549381
 31
0.0
  0
LINE
  5
273
  8
0
  6
CONTINUOUS
 62
     7
 10
-226.35276231452991
 20
117.9783294411514
 30
0.0
 11
-223.61491502520749
 21
118.14578335493709
 31
0.0
  0
LINE
  5
274
  8
0
  6
CONTINUOUS
 62
     7
 10
-228.12004957279149
 20
120.9213291879983
 30
0.0
 11
-223.6149150252084
 21
120.6457833549381
 31
0.0
  0
LINE
  5
275
  8
0
  6
CONTINUOUS
 62
     7
 10
-224.25350498823701
 20
112.1067255195963
 30
0.0
 11
-223.61491502520749
 21
112.14578335493709
 31
0.0
  0
LINE
  5
276
  8
0
  6
CONTINUOUS
 62
     7
 10
-225.48706881800521
 20
114.7602891862294
 30
0.0
 11
-223.6149150252084
 21
114.6457833549381
 31
0.0
  0
LINE
  5
277
  8
0
  6
CONTINUOUS
 62
     7
 10
-225.48202288575689
 20
70.031586146082688
 30
0.0
 11
-223.61491502520749
 21
70.145783354937109
 31
0.0
  0
LINE
  5
278
  8
0
  6
CONTINUOUS
 62
     7
 10
-224.25350498823701
 20
72.684841190277936
 30
0.0
 11
-223.6149150252084
 21
72.645783354938004
 31
0.0
  0
LINE
  5
279
  8
0
  6
CONTINUOUS
 62
     7
 10
-227.62662071443879
 20
64.900416923711006
 30
0.0
 11
-223.61491502520749
 21
65.145783354937109
 31
0.0
  0
LINE
  5
27A
  8
0
  6
CONTINUOUS
 62
     7
 10
-225.95590545890161
 20
67.788964463609361
 30
0.0
 11
-223.6149150252084
 21
67.645783354938004
 31
0.0
  0
LINE
  5
27B
  8
0
  6
CONTINUOUS
 62
     7
 10
-270.3649150252084
 20
27.59578335493693
 30
0.0
 11
-270.3649150252084
 21
28.75813726396386
 31
0.0
  0
LINE
  5
27C
  8
0
  6
CONTINUOUS
 62
     7
 10
-346.43112019047641
 20
121.7699053097891
 30
0.0
 11
-352.11491502520829
 21
125.05144578763939
 31
0.0
  0
LINE
  5
27D
  8
0
  6
CONTINUOUS
 62
     7
 10
-223.72726893423521
 20
75.395783354937109
 30
0.0
 11
-222.56491502521001
 21
75.395783354937109
 31
0.0
  0
LINE
  5
27E
  8
0
  6
CONTINUOUS
 62
     7
 10
-304.36491502520829
 20
28.75813726396386
 30
0.0
 11
-304.36491502520829
 21
27.59578335493693
 31
0.0
  0
LINE
  5
27F
  8
0
  6
CONTINUOUS
 62
     7
 10
-352.1649150252095
 20
75.395783354937109
 30
0.0
 11
-351.00256111618347
 21
75.395783354937109
 31
0.0
  0
LINE
  5
280
  8
0
  6
CONTINUOUS
 62
     7
 10
-337.00109134853369
 20
135.39578335493709
 30
0.0
 11
-351.8649150252084
 21
135.39578335493709
 31
0.0
  0
LINE
  5
281
  8
0
  6
CONTINUOUS
 62
     7
 10
-351.00256111618347
 20
109.39578335493709
 30
0.0
 11
-352.1649150252095
 21
109.39578335493709
 31
0.0
  0
LINE
  5
282
  8
0
  6
CONTINUOUS
 62
     7
 10
-352.36491502520829
 20
134.89578335493709
 30
0.0
 11
-352.36491502520829
 21
125.4844584895323
 31
0.0
  0
LINE
  5
283
  8
0
  6
CONTINUOUS
 62
     7
 10
-244.3649150252084
 20
27.895783354937109
 30
0.0
 11
-244.3649150252084
 21
42.759607031615403
 31
0.0
  0
LINE
  5
284
  8
0
  6
CONTINUOUS
 62
     7
 10
-330.3649150252084
 20
42.759607031615403
 30
0.0
 11
-330.3649150252084
 21
27.895783354937109
 31
0.0
  0
LINE
  5
285
  8
0
  6
CONTINUOUS
 62
     7
 10
-222.56491502521001
 20
109.39578335493709
 30
0.0
 11
-223.72726893423521
 21
109.39578335493709
 31
0.0
  0
LINE
  5
286
  8
0
  6
CONTINUOUS
 62
     7
 10
-237.72873870188761
 20
49.395783354937102
 30
0.0
 11
-222.8649150252084
 21
49.395783354937102
 31
0.0
  0
LINE
  5
287
  8
0
  6
CONTINUOUS
 62
     7
 10
-244.3649150252084
 20
142.0319596782598
 30
0.0
 11
-244.3649150252084
 21
156.89578335493709
 31
0.0
  0
LINE
  5
288
  8
0
  6
CONTINUOUS
 62
     7
 10
-330.3649150252084
 20
142.03195967826159
 30
0.0
 11
-330.3649150252084
 21
156.89578335493709
 31
0.0
  0
LINE
  5
28A
  8
0
  6
CONTINUOUS
 62
     7
 10
-316.73903698006029
 20
33.329578189668197
 30
0.0
 11
-320.02057745791149
 21
27.645783354937109
 31
0.0
  0
LINE
  5
28B
  8
0
  6
CONTINUOUS
 62
     7
 10
-228.2987098599404
 20
63.021661400086067
 30
0.0
 11
-222.6149150252084
 21
59.740120922235782
 31
0.0
  0
LINE
  5
28C
  8
0
  6
CONTINUOUS
 62
     7
 10
-254.7092525925089
 20
27.645783354937109
 30
0.0
 11
-257.99079307035743
 21
33.329578189669107
 31
0.0
  0
LINE
  5
28D
  8
0
  6
DASH_CENTER
 62
     1
 10
-355.1649150252095
 20
92.395783354937137
 30
0.0
 11
-219.56491502521001
 21
92.395783354937137
 31
0.0
  0
LINE
  5
28E
  8
0
  6
CONTINUOUS
 62
     7
 10
-314.3649150252084
 20
157.6957833549373
 30
0.0
 11
-304.77654019715641
 21
157.6957833549373
 31
0.0
  0
LINE
  5
28F
  8
0
  6
CONTINUOUS
 62
     7
 10
-314.86491502520829
 20
152.46758012466179
 30
0.0
 11
-314.86491502520829
 21
157.1957833549373
 31
0.0
  0
LINE
  5
290
  8
0
  6
CONTINUOUS
 62
     7
 10
-259.8649150252084
 20
152.46758012466179
 30
0.0
 11
-259.8649150252084
 21
157.1957833549373
 31
0.0
  0
LINE
  5
291
  8
0
  6
CONTINUOUS
 62
     7
 10
-316.73094042899339
 20
151.96758012466179
 30
0.0
 11
-319.72057745791142
 21
157.14578335493709
 31
0.0
  0
LINE
  5
292
  8
0
  6
CONTINUOUS
 62
     7
 10
-329.86491502520829
 20
157.39578335493709
 30
0.0
 11
-320.1535901598034
 21
157.39578335493709
 31
0.0
  0
LINE
  5
293
  8
0
  6
CONTINUOUS
 62
     7
 10
-255.00925259250641
 20
157.14578335493709
 30
0.0
 11
-257.99888962142421
 21
151.96758012466179
 31
0.0
  0
LINE
  5
294
  8
0
  6
CONTINUOUS
 62
     7
 10
-222.06491502521001
 20
75.895783354937109
 30
0.0
 11
-222.06491502521001
 21
108.89578335493709
 31
0.0
  0
LINE
  5
295
  8
0
  6
CONTINUOUS
 62
     7
 10
-222.3649150252084
 20
49.895783354937102
 30
0.0
 11
-222.3649150252084
 21
59.30710822034375
 31
0.0
  0
LINE
  5
296
  8
0
  6
CONTINUOUS
 62
     7
 10
-314.82317259470511
 20
157.39578335493709
 30
0.0
 11
-338.17091860746302
 21
157.39578335493709
 31
0.0
  0
LINE
  5
297
  8
0
  6
CONTINUOUS
 62
     7
 10
-222.3649150252084
 20
75.437525785441309
 30
0.0
 11
-222.3649150252084
 21
41.58977977268254
 31
0.0
  0
LINE
  5
298
  8
0
  6
CONTINUOUS
 62
     7
 10
-304.32317259470511
 20
27.395783354937109
 30
0.0
 11
-338.17091860746302
 21
27.395783354937109
 31
0.0
  0
LINE
  5
299
  8
0
  6
CONTINUOUS
 62
     7
 10
-352.36491502520829
 20
109.35404092443289
 30
0.0
 11
-352.36491502520829
 21
143.2017869371908
 31
0.0
  0
LINE
  5
29A
  8
0
  6
CONTINUOUS
 62
     7
 10
-78.632857457109964
 20
127.67221431477689
 30
0.0
 11
69.367151517370843
 21
127.67210357129591
 31
0.0
  0
LINE
  5
29B
  8
0
  6
CONTINUOUS
 62
     7
 10
-78.632857457109964
 20
124.2474099727106
 30
0.0
 11
69.367151517370843
 21
124.2472992292296
 31
0.0
  0
LINE
  5
29C
  8
0
  6
CONTINUOUS
 62
     7
 10
-78.632857457109964
 20
117.93588182531531
 30
0.0
 11
69.367151517370843
 21
117.9357710818343
 31
0.0
  0
LINE
  5
29D
  8
0
  6
CONTINUOUS
 62
     7
 10
-78.632857457109964
 20
120.9393044088139
 30
0.0
 11
69.367151517370843
 21
120.93919366533289
 31
0.0
  0
LINE
  5
29E
  8
0
  6
CONTINUOUS
 62
     7
 10
-78.632857457109964
 20
130.9839509506493
 30
0.0
 11
69.367151517370843
 21
130.9838402071683
 31
0.0
  0
LINE
  5
29F
  8
0
  6
CONTINUOUS
 62
     7
 10
-78.632857457109964
 20
135.00229011114999
 30
0.0
 11
69.367151517370843
 21
135.00217936766899
 31
0.0
  0
LINE
  5
2A2
  8
0
  6
CONTINUOUS
 62
     7
 10
145.36725151737079
 20
104.3958336651438
 30
0.0
 11
145.36725151737079
 21
80.395833665143812
 31
0.0
  0
LINE
  5
2A3
  8
0
  6
CONTINUOUS
 62
     7
 10
146.36725151737079
 20
103.3958336651438
 30
0.0
 11
145.36725151737079
 21
104.3958336651438
 31
0.0
  0
LINE
  5
2A4
  8
0
  6
CONTINUOUS
 62
     7
 10
146.36725151737079
 20
81.395833665143812
 30
0.0
 11
145.36725151737079
 21
80.395833665143812
 31
0.0
  0
LINE
  5
2A5
  8
0
  6
CONTINUOUS
 62
     7
 10
87.367251517370875
 20
146.89576633485609
 30
0.0
 11
86.867251517370875
 21
147.39576633485621
 31
0.0
  0
LINE
  5
2A6
  8
0
  6
CONTINUOUS
 62
     7
 10
80.867251517370946
 20
27.395834015597568
 30
0.0
 11
-76.632857457109836
 21
27.395944408624771
 31
0.0
  0
LINE
  5
2A7
  8
0
  6
CONTINUOUS
 62
     7
 10
81.367251517370804
 20
92.395833665143783
 30
0.0
 11
81.367251517370804
 21
27.895833314690329
 31
0.0
  0
LINE
  5
2A8
  8
0
  6
CONTINUOUS
 62
     7
 10
86.867251517370875
 20
37.395833665143783
 30
0.0
 11
87.367251517370875
 21
37.895833665143783
 31
0.0
  0
LINE
  5
2A9
  8
0
  6
CONTINUOUS
 62
     7
 10
87.367251517370875
 20
37.895833665143783
 30
0.0
 11
87.367251517370875
 21
92.395786745473785
 31
0.0
  0
LINE
  5
2AA
  8
0
  6
CONTINUOUS
 62
     7
 10
69.367151517370843
 20
141.80484034937351
 30
0.0
 11
-78.632857457109935
 21
141.80495109285451
 31
0.0
  0
LINE
  5
2AB
  8
0
  6
CONTINUOUS
 62
     7
 10
81.367151517370829
 20
123.7358336651438
 30
0.0
 11
81.367151517370829
 21
156.89583366514381
 31
0.0
  0
LINE
  5
2AC
  8
0
  6
CONTINUOUS
 62
     7
 10
69.367151517370843
 20
157.26653366514381
 30
0.0
 11
69.367151517370843
 21
27.64973366514381
 31
0.0
  0
LINE
  5
2AD
  8
0
  6
CONTINUOUS
 62
     7
 10
69.367151517370814
 20
157.39583366514381
 30
0.0
 11
80.867151517370843
 21
157.39583366514381
 31
0.0
  0
LINE
  5
2AE
  8
0
  6
CONTINUOUS
 62
     7
 10
-72.632857457109964
 20
157.39574440862481
 30
0.0
 11
-76.632857457109964
 21
157.39574440862481
 31
0.0
  0
LINE
  5
2AF
  8
0
  6
CONTINUOUS
 62
     7
 10
-72.632857457109964
 20
27.395944408624771
 30
0.0
 11
-72.632857457109964
 21
157.39574440862481
 31
0.0
  0
LINE
  5
2B0
  8
0
  6
CONTINUOUS
 62
     7
 10
-78.632857457109964
 20
155.39574440862481
 30
0.0
 11
-78.632857457109964
 21
29.395944408624771
 31
0.0
  0
LINE
  5
2B1
  8
0
  6
CONTINUOUS
 62
     7
 10
-72.632357457109961
 20
157.39594440862481
 30
0.0
 11
69.367151517370814
 21
157.39583366514381
 31
0.0
  0
LINE
  5
2B2
  8
0
  6
CONTINUOUS
 62
     7
 10
-72.632357457109961
 20
153.89594440862481
 30
0.0
 11
-72.632357457109961
 21
157.39594440862481
 31
0.0
  0
LINE
  5
2B3
  8
0
  6
CONTINUOUS
 62
     7
 10
81.367251517370804
 20
41.589796417745447
 30
0.0
 11
69.367151517370857
 21
41.589796417745447
 31
0.0
  0
LINE
  5
2B4
  8
0
  6
CONTINUOUS
 62
     7
 10
81.367151517370829
 20
143.2018035822546
 30
0.0
 11
69.367151517370843
 21
143.2018035822546
 31
0.0
  0
LINE
  5
2B5
  8
0
  6
CONTINUOUS
 62
     7
 10
69.367151517370843
 20
42.986825797373797
 30
0.0
 11
-78.632857457109935
 21
42.986936540854778
 31
0.0
  0
LINE
  5
2B6
  8
0
  6
CONTINUOUS
 62
     7
 10
146.36725151737079
 20
103.3958336651438
 30
0.0
 11
146.36725151737079
 21
81.395833665143812
 31
0.0
  0
LINE
  5
2B7
  8
0
  6
CONTINUOUS
 62
     7
 10
86.867251517370875
 20
37.395833665143783
 30
0.0
 11
81.367251517370804
 21
37.395833665143783
 31
0.0
  0
LINE
  5
2B8
  8
0
  6
CONTINUOUS
 62
     7
 10
86.867151517370814
 20
147.39583366514381
 30
0.0
 11
81.867151517370843
 21
147.39583366514381
 31
0.0
  0
LINE
  5
2B9
  8
0
  6
CONTINUOUS
 62
     7
 10
145.36725151737079
 20
80.395833665143812
 30
0.0
 11
87.367251517370875
 21
80.395833665143812
 31
0.0
  0
LINE
  5
2BA
  8
0
  6
CONTINUOUS
 62
     7
 10
87.367251517370875
 20
104.3958336651438
 30
0.0
 11
145.36725151737079
 21
104.3958336651438
 31
0.0
  0
LINE
  5
2BB
  8
0
  6
CONTINUOUS
 62
     7
 10
87.367251517370875
 20
92.395786745473785
 30
0.0
 11
87.367251517370875
 21
146.89576633485609
 31
0.0
  0
LINE
  5
2BC
  8
0
  6
CONTINUOUS
 62
     7
 10
87.367251517370875
 20
92.395786745473785
 30
0.0
 11
87.367251517370875
 21
104.8958336651438
 31
0.0
  0
LINE
  5
2BD
  8
0
  6
CONTINUOUS
 62
     7
 10
81.367251517370804
 20
92.395833665143783
 30
0.0
 11
81.367251517370804
 21
147.20001793717279
 31
0.0
  0
LINE
  5
2BE
  8
0
  6
CONTINUOUS
 62
     7
 10
-72.631746343509946
 20
157.39594440862481
 30
0.0
 11
-17.589503095619492
 21
157.39594440862481
 31
0.0
  0
LINE
  5
2BF
  8
0
  6
CONTINUOUS
 62
     7
 10
-72.631746343508851
 20
157.39594440862481
 30
0.0
 11
-17.589503095619492
 21
157.39594440862481
 31
0.0
  0
LINE
  5
2C0
  8
0
  6
DASH_CENTER
 62
     1
 10
151.36725151737079
 20
92.395800054017911
 30
0.0
 11
-128.33293584221531
 21
92.395743866220286
 31
0.0
  0
LINE
  5
2C1
  8
0
  6
DASH_CENTER
 62
     1
 10
-41.63284848262915
 20
149.58427474806729
 30
0.0
 11
-41.63284848262915
 21
212.9259444086255
 31
0.0
  0
LINE
  5
2C2
  8
0
  6
CONTINUOUS
 62
     7
 10
-78.632857457109935
 20
49.395943816854619
 30
0.0
 11
69.367151517370843
 21
49.395833073373652
 31
0.0
  0
LINE
  5
2C3
  8
0
  6
CONTINUOUS
 62
     7
 10
-78.632857457109964
 20
59.595943816855957
 30
0.0
 11
69.367151517370843
 21
59.595833073374962
 31
0.0
  0
LINE
  5
2C4
  8
0
  6
CONTINUOUS
 62
     7
 10
-78.632857457109964
 20
63.255816184405383
 30
0.0
 11
69.367151517370843
 21
63.255705440924388
 31
0.0
  0
LINE
  5
2C5
  8
0
  6
CONTINUOUS
 62
     7
 10
-78.632857457109935
 20
64.882405788050932
 30
0.0
 11
69.367151517370843
 21
64.882295044569943
 31
0.0
  0
LINE
  5
2C6
  8
0
  6
CONTINUOUS
 62
     7
 10
-78.632857457109964
 20
67.831311659107229
 30
0.0
 11
69.367151517370843
 21
67.831200915626226
 31
0.0
  0
LINE
  5
2C7
  8
0
  6
CONTINUOUS
 62
     7
 10
-78.632857457109964
 20
70.011781922436469
 30
0.0
 11
69.367151517370843
 21
70.011671178955496
 31
0.0
  0
LINE
  5
2C8
  8
0
  6
CONTINUOUS
 62
     7
 10
-78.632857457109836
 20
72.656732153591051
 30
0.0
 11
69.367151517370843
 21
72.656621410110048
 31
0.0
  0
LINE
  5
2C9
  8
0
  6
CONTINUOUS
 62
     7
 10
-78.632857457109964
 20
75.395910743480044
 30
0.0
 11
69.367151517370857
 21
75.39579999999907
 31
0.0
  0
LINE
  5
2CA
  8
0
  6
DASH_CENTER
 62
     1
 10
344.94280193460298
 20
36.887917676855572
 30
0.0
 11
336.45752056036451
 21
45.373199051094133
 31
0.0
  0
LINE
  5
2CB
  8
0
  6
CONTINUOUS
 62
     7
 10
228.4349196114583
 20
60.895799999999383
 30
0.0
 11
229.6849196114583
 21
63.060863509461413
 31
0.0
  0
LINE
  5
2CC
  8
0
  6
CONTINUOUS
 62
     7
 10
229.6849196114583
 20
63.060863509461413
 30
0.0
 11
232.1849196114583
 21
63.060863509461413
 31
0.0
  0
LINE
  5
2CD
  8
0
  6
CONTINUOUS
 62
     7
 10
232.1849196114583
 20
63.060863509461413
 30
0.0
 11
233.4349196114583
 21
60.895799999999383
 31
0.0
  0
LINE
  5
2CE
  8
0
  6
CONTINUOUS
 62
     7
 10
233.4349196114583
 20
60.895799999999383
 30
0.0
 11
232.1849196114583
 21
58.730736490538312
 31
0.0
  0
LINE
  5
2CF
  8
0
  6
CONTINUOUS
 62
     7
 10
232.1849196114583
 20
58.730736490538312
 30
0.0
 11
229.6849196114583
 21
58.730736490538312
 31
0.0
  0
LINE
  5
2D0
  8
0
  6
CONTINUOUS
 62
     7
 10
229.6849196114583
 20
58.730736490538312
 30
0.0
 11
228.4349196114583
 21
60.895799999999383
 31
0.0
  0
LINE
  5
2D1
  8
0
  6
CONTINUOUS
 62
     7
 10
257.934919611456
 20
153.3957999999983
 30
0.0
 11
260.0999831209171
 21
152.1457999999983
 31
0.0
  0
LINE
  5
2D2
  8
0
  6
CONTINUOUS
 62
     7
 10
260.0999831209171
 20
152.1457999999983
 30
0.0
 11
260.0999831209171
 21
149.6457999999983
 31
0.0
  0
LINE
  5
2D3
  8
0
  6
CONTINUOUS
 62
     7
 10
260.0999831209171
 20
149.6457999999983
 30
0.0
 11
257.934919611456
 21
148.3957999999983
 31
0.0
  0
LINE
  5
2D4
  8
0
  6
CONTINUOUS
 62
     7
 10
257.934919611456
 20
148.3957999999983
 30
0.0
 11
255.76985610199489
 21
149.6457999999983
 31
0.0
  0
LINE
  5
2D5
  8
0
  6
CONTINUOUS
 62
     7
 10
255.76985610199489
 20
149.6457999999983
 30
0.0
 11
255.76985610199489
 21
152.1457999999983
 31
0.0
  0
LINE
  5
2D6
  8
0
  6
CONTINUOUS
 62
     7
 10
255.76985610199489
 20
152.1457999999983
 30
0.0
 11
257.934919611456
 21
153.3957999999983
 31
0.0
  0
LINE
  5
2D7
  8
0
  6
CONTINUOUS
 62
     7
 10
340.2409231937113
 20
157.39580000000089
 30
0.0
 11
266.43491961145759
 21
157.39580000000089
 31
0.0
  0
LINE
  5
2D8
  8
0
  6
CONTINUOUS
 62
     7
 10
354.43491961145759
 20
143.2018035822546
 30
0.0
 11
354.43491961145759
 21
41.589796417745447
 31
0.0
  0
LINE
  5
2D9
  8
0
  6
CONTINUOUS
 62
     7
 10
309.60188762060397
 20
77.885686240347013
 30
0.0
 11
325.84161351696599
 21
61.645960343985038
 31
0.0
  0
LINE
  5
2DA
  8
0
  6
CONTINUOUS
 62
     7
 10
303.9450333711107
 20
72.228831990853692
 30
0.0
 11
320.1847592674726
 21
55.989106094492627
 31
0.0
  0
LINE
  5
2DB
  8
0
  6
CONTINUOUS
 62
     7
 10
320.1847592674726
 20
128.8024939055083
 30
0.0
 11
303.9450333711107
 21
112.5627680091454
 31
0.0
  0
LINE
  5
2DC
  8
0
  6
CONTINUOUS
 62
     7
 10
325.84161351696599
 20
123.1456396560159
 30
0.0
 11
309.60188762060397
 21
106.9059137596539
 31
0.0
  0
LINE
  5
2DD
  8
0
  6
CONTINUOUS
 62
     7
 10
350.43491961145833
 20
123.8957999999994
 30
0.0
 11
349.18491961145918
 21
121.73073649053831
 31
0.0
  0
LINE
  5
2DE
  8
0
  6
CONTINUOUS
 62
     7
 10
349.18491961145918
 20
121.73073649053831
 30
0.0
 11
346.68491961145918
 21
121.73073649053831
 31
0.0
  0
LINE
  5
2DF
  8
0
  6
CONTINUOUS
 62
     7
 10
346.68491961145918
 20
121.73073649053831
 30
0.0
 11
345.43491961145833
 21
123.8957999999994
 31
0.0
  0
LINE
  5
2E0
  8
0
  6
CONTINUOUS
 62
     7
 10
345.43491961145833
 20
123.8957999999994
 30
0.0
 11
346.68491961145918
 21
126.0608635094614
 31
0.0
  0
LINE
  5
2E1
  8
0
  6
CONTINUOUS
 62
     7
 10
346.68491961145918
 20
126.0608635094614
 30
0.0
 11
349.18491961145918
 21
126.0608635094614
 31
0.0
  0
LINE
  5
2E2
  8
0
  6
CONTINUOUS
 62
     7
 10
349.18491961145918
 20
126.0608635094614
 30
0.0
 11
350.43491961145833
 21
123.8957999999994
 31
0.0
  0
LINE
  5
2E3
  8
0
  6
CONTINUOUS
 62
     7
 10
340.2409231937113
 20
27.395800000000019
 30
0.0
 11
289.4349196114577
 21
27.395800000000019
 31
0.0
  0
LINE
  5
2E4
  8
0
  6
DASH_CENTER
 62
     1
 10
220.51410051164871
 20
92.395799999999994
 30
0.0
 11
357.43491961145759
 21
92.395799999999994
 31
0.0
  0
LINE
  5
2E5
  8
0
  6
CONTINUOUS
 62
     7
 10
224.4349196114577
 20
41.589796417745447
 30
0.0
 11
224.4349196114577
 21
143.2018035822546
 31
0.0
  0
LINE
  5
2E6
  8
0
  6
CONTINUOUS
 62
     7
 10
253.02822570594941
 20
61.645960343985038
 30
0.0
 11
269.26795160231143
 21
77.885686240347013
 31
0.0
  0
LINE
  5
2E7
  8
0
  6
CONTINUOUS
 62
     7
 10
258.68507995544269
 20
55.989106094492627
 30
0.0
 11
274.92480585180471
 21
72.228831990853692
 31
0.0
  0
LINE
  5
2E8
  8
0
  6
CONTINUOUS
 62
     7
 10
274.92480585180471
 20
112.5627680091454
 30
0.0
 11
258.68507995544269
 21
128.8024939055083
 31
0.0
  0
LINE
  5
2E9
  8
0
  6
CONTINUOUS
 62
     7
 10
269.26795160231143
 20
106.9059137596539
 30
0.0
 11
253.02822570594941
 21
123.1456396560159
 31
0.0
  0
LINE
  5
2EA
  8
0
  6
CONTINUOUS
 62
     7
 10
232.1849196114583
 20
63.060863509461413
 30
0.0
 11
233.4349196114583
 21
60.895799999999383
 31
0.0
  0
LINE
  5
2EB
  8
0
  6
CONTINUOUS
 62
     7
 10
229.6849196114583
 20
63.060863509461413
 30
0.0
 11
232.1849196114583
 21
63.060863509461413
 31
0.0
  0
LINE
  5
2EC
  8
0
  6
CONTINUOUS
 62
     7
 10
228.4349196114583
 20
60.895799999999383
 30
0.0
 11
229.6849196114583
 21
63.060863509461413
 31
0.0
  0
LINE
  5
2ED
  8
0
  6
CONTINUOUS
 62
     7
 10
229.6849196114583
 20
58.730736490538312
 30
0.0
 11
228.4349196114583
 21
60.895799999999383
 31
0.0
  0
LINE
  5
2EE
  8
0
  6
CONTINUOUS
 62
     7
 10
232.1849196114583
 20
58.730736490538312
 30
0.0
 11
229.6849196114583
 21
58.730736490538312
 31
0.0
  0
LINE
  5
2EF
  8
0
  6
CONTINUOUS
 62
     7
 10
233.4349196114583
 20
60.895799999999383
 30
0.0
 11
232.1849196114583
 21
58.730736490538312
 31
0.0
  0
LINE
  5
2F0
  8
0
  6
CONTINUOUS
 62
     7
 10
289.4349196114577
 20
27.395800000000019
 30
0.0
 11
238.62891602920399
 21
27.395800000000019
 31
0.0
  0
LINE
  5
2F1
  8
0
  6
CONTINUOUS
 62
     7
 10
312.4349196114577
 20
157.39580000000089
 30
0.0
 11
238.62891602920399
 21
157.39580000000089
 31
0.0
  0
LINE
  5
2F2
  8
0
  6
DASH_CENTER
 62
     1
 10
289.4349196114577
 20
24.395800000000019
 30
0.0
 11
289.4349196114577
 21
212.9259444086255
 31
0.0
  0
LINE
  5
2F3
  8
0
  6
DASH_CENTER
 62
     1
 10
230.9349196114583
 20
54.595799999999201
 30
0.0
 11
230.9349196114583
 21
67.195799999999593
 31
0.0
  0
LINE
  5
2F4
  8
0
  6
DASH_CENTER
 62
     1
 10
224.63491961145809
 20
60.895799999999383
 30
0.0
 11
237.23491961145851
 21
60.895799999999383
 31
0.0
  0
LINE
  5
2F5
  8
0
  6
DASH_CENTER
 62
     1
 10
257.934919611456
 20
157.19579999999939
 30
0.0
 11
257.934919611456
 21
144.595799999999
 31
0.0
  0
LINE
  5
2F6
  8
0
  6
DASH_CENTER
 62
     1
 10
264.23491961145618
 20
150.8957999999983
 30
0.0
 11
251.63491961145581
 21
150.8957999999983
 31
0.0
  0
LINE
  5
2F7
  8
0
  6
DASH_CENTER
 62
     1
 10
347.93491961145918
 20
117.5957999999992
 30
0.0
 11
347.93491961145918
 21
130.19579999999959
 31
0.0
  0
LINE
  5
2F8
  8
0
  6
DASH_CENTER
 62
     1
 10
341.63491961145911
 20
123.8957999999994
 30
0.0
 11
354.23491961145942
 21
123.8957999999994
 31
0.0
  0
LINE
  5
2F9
  8
0
  6
DASH_CENTER
 62
     1
 10
344.94280193460207
 20
147.90368232314529
 30
0.0
 11
336.45752056036349
 21
139.41840094890679
 31
0.0
  0
LINE
  5
2FA
  8
0
  6
DASH_CENTER
 62
     1
 10
233.92703728831231
 20
147.90368232314441
 30
0.0
 11
242.41231866255089
 21
139.4184009489058
 31
0.0
  0
LINE
  5
2FB
  8
0
  6
DASH_CENTER
 62
     1
 10
233.9270372883133
 20
36.887917676854663
 30
0.0
 11
242.4123186625518
 21
45.373199051093181
 31
0.0
  0
LINE
  5
2FC
  8
0
  6
DASH_CENTER
 62
     1
 10
66.367151517370843
 20
41.130558363976697
 30
0.0
 11
84.367251517370818
 21
41.130558363976697
 31
0.0
  0
LINE
  5
2FD
  8
0
  6
DASH_CENTER
 62
     1
 10
66.367151517370843
 20
143.66104163602509
 30
0.0
 11
84.367251517370818
 21
143.66104163602509
 31
0.0
  0
LINE
  5
2FE
  8
0
  6
DASH_CENTER
 62
     1
 10
-85.632857457109964
 20
57.395943816854633
 30
0.0
 11
-75.632857457109964
 21
57.395943816854633
 31
0.0
  0
LINE
  5
2FF
  8
0
  6
CONTINUOUS
 62
     7
 10
-79.132857457109964
 20
61.645943816854633
 30
0.0
 11
-79.132857457109964
 21
53.145943816854633
 31
0.0
  0
LINE
  5
300
  8
0
  6
CONTINUOUS
 62
     7
 10
-82.232857457109944
 20
61.645943816854633
 30
0.0
 11
-78.632857457109964
 21
61.645943816854633
 31
0.0
  0
LINE
  5
301
  8
0
  6
CONTINUOUS
 62
     7
 10
-82.632857457109964
 20
61.245943816854613
 30
0.0
 11
-82.232857457109944
 21
61.645943816854633
 31
0.0
  0
LINE
  5
302
  8
0
  6
CONTINUOUS
 62
     7
 10
-82.632857457109964
 20
53.545943816854262
 30
0.0
 11
-82.632857457109964
 21
61.245943816854613
 31
0.0
  0
LINE
  5
303
  8
0
  6
CONTINUOUS
 62
     7
 10
-82.232857457109944
 20
53.145943816854633
 30
0.0
 11
-82.632857457109964
 21
53.545943816854262
 31
0.0
  0
LINE
  5
304
  8
0
  6
CONTINUOUS
 62
     7
 10
-78.632857457109964
 20
53.145943816854633
 30
0.0
 11
-82.232857457109944
 21
53.145943816854633
 31
0.0
  0
LINE
  5
305
  8
0
  6
CONTINUOUS
 62
     7
 10
-78.632857457109964
 20
63.395783354937102
 30
0.0
 11
-78.632857457109964
 21
79.395783354937109
 31
0.0
  0
LINE
  5
306
  8
0
  6
CONTINUOUS
 62
     7
 10
-78.632857457109964
 20
105.39578335493709
 30
0.0
 11
-78.632857457109964
 21
121.39578335493709
 31
0.0
  0
LINE
  5
307
  8
0
  6
CONTINUOUS
 62
     7
 10
-78.632857457109964
 20
52.445783354936381
 30
0.0
 11
-78.632857457109964
 21
52.095783354936032
 31
0.0
  0
LINE
  5
308
  8
0
  6
CONTINUOUS
 62
     7
 10
-78.632857457109964
 20
54.895783354937102
 30
0.0
 11
-78.632857457109964
 21
52.445783354936381
 31
0.0
  0
LINE
  5
309
  8
0
  6
CONTINUOUS
 62
     7
 10
-78.632857457109964
 20
92.395783354937137
 30
0.0
 11
-78.632857457109964
 21
54.895783354937102
 31
0.0
  0
LINE
  5
30A
  8
0
  6
CONTINUOUS
 62
     7
 10
-78.632857457109964
 20
132.345783354936
 30
0.0
 11
-78.632857457109964
 21
129.89578335493709
 31
0.0
  0
LINE
  5
30B
  8
0
  6
CONTINUOUS
 62
     7
 10
-78.632857457109964
 20
129.89578335493709
 30
0.0
 11
-78.632857457109964
 21
92.395783354937137
 31
0.0
  0
LINE
  5
30C
  8
0
  6
DASH_CENTER
 62
     1
 10
-16.732848482628629
 20
195.39594440863229
 30
0.0
 11
-16.732848482628629
 21
190.39594440863229
 31
0.0
  0
LINE
  5
30D
  8
0
  6
DASH_CENTER
 62
     1
 10
-63.232848482628619
 20
190.39594440863229
 30
0.0
 11
-63.232848482628619
 21
195.39594440863229
 31
0.0
  0
LINE
  5
30E
  8
0
  6
DASH_CENTER
 62
     1
 10
-265.86609132713488
 20
189.39594440863121
 30
0.0
 11
-265.86609132713488
 21
195.14064440863231
 31
0.0
  0
LINE
  5
30F
  8
0
  6
DASH_CENTER
 62
     1
 10
-308.86609132713488
 20
189.39594440863121
 30
0.0
 11
-308.86609132713488
 21
195.14064440863231
 31
0.0
  0
LINE
  5
310
  8
0
  6
CONTINUOUS
 62
     7
 10
-312.38748823365842
 20
192.8959444086311
 30
0.0
 11
-262.3446944206114
 21
192.8959444086311
 31
0.0
  0
LINE
  5
311
  8
0
  6
CONTINUOUS
 62
     7
 10
-260.36609132713488
 20
158.0959444086246
 30
0.0
 11
-260.84484922224942
 21
191.41749390860869
 31
0.0
  0
LINE
  5
312
  8
0
  6
CONTINUOUS
 62
     7
 10
-313.88733343202028
 20
191.41749390860869
 30
0.0
 11
-314.36609132713488
 21
158.0959444086246
 31
0.0
  0
LINE
  5
313
  8
0
  6
CONTINUOUS
 62
     7
 10
-314.86609132713488
 20
158.09594440862921
 30
0.0
 11
-304.7415306413738
 21
158.09594440862921
 31
0.0
  0
LINE
  5
314
  8
0
  6
CONTINUOUS
 62
     7
 10
-314.86609132713488
 20
157.09594440862281
 30
0.0
 11
-314.86609132713488
 21
158.09594440862921
 31
0.0
  0
LINE
  5
315
  8
0
  6
CONTINUOUS
 62
     7
 10
-259.86609132713488
 20
158.09594440862921
 30
0.0
 11
-259.86609132713488
 21
157.09594440862281
 31
0.0
  0
LINE
  5
316
  8
0
  6
CONTINUOUS
 62
     7
 10
-269.98829940904091
 20
158.09594440862921
 30
0.0
 11
-259.86609132713488
 21
158.09594440862921
 31
0.0
  0
LINE
  5
317
  8
0
  6
CONTINUOUS
 62
     7
 10
262.91367750657128
 20
191.41734949998479
 30
0.0
 11
262.43491961145759
 21
158.09580000000059
 31
0.0
  0
LINE
  5
318
  8
0
  6
CONTINUOUS
 62
     7
 10
261.93491961145759
 20
157.39580000000089
 30
0.0
 11
261.93491961145861
 21
158.09580000000889
 31
0.0
  0
LINE
  5
319
  8
0
  6
CONTINUOUS
 62
     7
 10
261.93491961145861
 20
158.09580000000889
 30
0.0
 11
289.4349196114577
 21
158.09580000000889
 31
0.0
  0
LINE
  5
31A
  8
0
  6
CONTINUOUS
 62
     7
 10
264.41352270493331
 20
192.89580000000731
 30
0.0
 11
289.4349196114577
 21
192.89580000000731
 31
0.0
  0
LINE
  5
31B
  8
0
  6
CONTINUOUS
 62
     7
 10
262.50675869191627
 20
163.09580000000059
 30
0.0
 11
289.4349196114577
 21
163.09580000000059
 31
0.0
  0
LINE
  5
31C
  8
0
  6
CONTINUOUS
 62
     7
 10
262.72227593329762
 20
178.09580000000071
 30
0.0
 11
289.4349196114577
 21
178.09580000000071
 31
0.0
  0
LINE
  5
31D
  8
0
  6
CONTINUOUS
 62
     7
 10
289.4349196114577
 20
178.09580000000071
 30
0.0
 11
316.14756328961778
 21
178.09580000000071
 31
0.0
  0
LINE
  5
31E
  8
0
  6
CONTINUOUS
 62
     7
 10
289.4349196114577
 20
163.09580000000059
 30
0.0
 11
316.36308053099913
 21
163.09580000000059
 31
0.0
  0
LINE
  5
31F
  8
0
  6
CONTINUOUS
 62
     7
 10
289.4349196114577
 20
192.89580000000731
 30
0.0
 11
314.4563165179822
 21
192.89580000000731
 31
0.0
  0
LINE
  5
320
  8
0
  6
CONTINUOUS
 62
     7
 10
289.4349196114577
 20
158.09580000000889
 30
0.0
 11
316.93491961145691
 21
158.09580000000889
 31
0.0
  0
LINE
  5
321
  8
0
  6
CONTINUOUS
 62
     7
 10
316.93491961145691
 20
158.09580000000889
 30
0.0
 11
316.93491961145781
 21
157.39580000000089
 31
0.0
  0
LINE
  5
322
  8
0
  6
CONTINUOUS
 62
     7
 10
316.43491961145781
 20
158.09580000000059
 30
0.0
 11
315.95616171634413
 21
191.41734949998479
 31
0.0
  0
LINE
  5
323
  8
0
  6
DASH_CENTER
 62
     1
 10
267.93374330953128
 20
190.39594440863229
 30
0.0
 11
267.93374330953128
 21
195.39594440863229
 31
0.0
  0
LINE
  5
324
  8
0
  6
DASH_CENTER
 62
     1
 10
310.93374330953128
 20
190.39594440863229
 30
0.0
 11
310.93374330953128
 21
195.39594440863229
 31
0.0
  0
LINE
  5
359
  8
0
  6
DASHED
 62
     7
 10
122.1172515173708
 20
-89.408535700290997
 30
0.0
 11
122.1172515173708
 21
-82.408535700290997
 31
0.0
  0
LINE
  5
35A
  8
0
  6
DASHED
 62
     2
 10
122.4181183974101
 20
-89.408535700290997
 30
0.0
 11
122.4181183974101
 21
-82.408535700290997
 31
0.0
  0
LINE
  5
35B
  8
0
  6
DASHED
 62
     7
 10
119.6172515173708
 20
-82.408535700290997
 30
0.0
 11
119.6172515173708
 21
-89.408535700290997
 31
0.0
  0
LINE
  5
35C
  8
0
  6
DASHED
 62
     2
 10
119.3163846373315
 20
-82.408535700290997
 30
0.0
 11
119.3163846373315
 21
-89.408535700290997
 31
0.0
  0
LINE
  5
35D
  8
0
  6
DASH_CENTER
 62
     1
 10
120.8672515173708
 20
-91.908535700290997
 30
0.0
 11
120.8672515173708
 21
-79.908535700290983
 31
0.0
  0
LINE
  5
35E
  8
0
  6
CONTINUOUS
 62
     7
 10
145.36725151737079
 20
-109.408535700291
 30
0.0
 11
146.36725151737079
 21
-108.408535700291
 31
0.0
  0
LINE
  5
35F
  8
0
  6
CONTINUOUS
 62
     7
 10
145.36725151737079
 20
-85.408535700290983
 30
0.0
 11
146.36725151737079
 21
-86.408535700290983
 31
0.0
  0
LINE
  5
360
  8
0
  6
CONTINUOUS
 62
     7
 10
87.367251517370804
 20
-42.90853570029099
 30
0.0
 11
86.867251517370818
 21
-42.40853570029099
 31
0.0
  0
LINE
  5
363
  8
0
  6
CONTINUOUS
 62
     7
 10
81.367251517370804
 20
-97.408535700290997
 30
0.0
 11
81.367251517370804
 21
-42.604351428261509
 31
0.0
  0
LINE
  5
364
  8
0
  6
CONTINUOUS
 62
     7
 10
87.367251517370804
 20
-97.408582619960384
 30
0.0
 11
87.367251517370804
 21
-84.908535700290997
 31
0.0
  0
LINE
  5
365
  8
0
  6
CONTINUOUS
 62
     7
 10
87.367251517370804
 20
-97.408582619960384
 30
0.0
 11
87.367251517370804
 21
-42.90853570029099
 31
0.0
  0
LINE
  5
366
  8
0
  6
CONTINUOUS
 62
     7
 10
87.367251517370804
 20
-85.408535700290983
 30
0.0
 11
91.367251517370832
 21
-85.408535700290983
 31
0.0
  0
LINE
  5
367
  8
0
  6
CONTINUOUS
 62
     7
 10
145.36725151737079
 20
-109.408535700291
 30
0.0
 11
87.367251517370804
 21
-109.408535700291
 31
0.0
  0
LINE
  5
368
  8
0
  6
CONTINUOUS
 62
     7
 10
86.867251517370818
 20
-42.40853570029099
 30
0.0
 11
81.86715151737063
 21
-42.40853570029099
 31
0.0
  0
LINE
  5
369
  8
0
  6
CONTINUOUS
 62
     7
 10
86.867251517370818
 20
-152.408535700291
 30
0.0
 11
81.367251517370804
 21
-152.408535700291
 31
0.0
  0
LINE
  5
36A
  8
0
  6
CONTINUOUS
 62
     7
 10
146.36725151737079
 20
-86.408535700290983
 30
0.0
 11
146.36725151737079
 21
-89.408535700290997
 31
0.0
  0
LINE
  5
36B
  8
0
  6
CONTINUOUS
 62
     7
 10
81.367151517370615
 20
-66.068535700290852
 30
0.0
 11
81.367151517370615
 21
-32.408535700290997
 31
0.0
  0
LINE
  5
36C
  8
0
  6
DASH_CENTER
 62
     1
 10
148.86725151737079
 20
-97.408540855089583
 30
0.0
 11
78.867251517370804
 21
-97.408540855089555
 31
0.0
  0
LINE
  5
36D
  8
0
  6
CONTINUOUS
 62
     7
 10
87.367251517370804
 20
-151.908535700291
 30
0.0
 11
87.367251517370804
 21
-97.408582619960384
 31
0.0
  0
LINE
  5
36E
  8
0
  6
CONTINUOUS
 62
     7
 10
86.867251517370818
 20
-152.408535700291
 30
0.0
 11
87.367251517370804
 21
-151.908535700291
 31
0.0
  0
LINE
  5
36F
  8
0
  6
CONTINUOUS
 62
     7
 10
81.367251517370804
 20
-97.408535700290997
 30
0.0
 11
81.367251517370804
 21
-162.408535700291
 31
0.0
  0
LINE
  5
370
  8
0
  6
CONTINUOUS
 62
     7
 10
146.36725151737079
 20
-63.246395281146349
 30
0.0
 11
95.367251517370775
 21
-63.246395281146349
 31
0.0
  0
LINE
  5
371
  8
0
  6
CONTINUOUS
 62
     7
 10
95.367251517370775
 20
-71.246395281146334
 30
0.0
 11
146.36725151737079
 21
-71.246395281146334
 31
0.0
  0
LINE
  5
372
  8
0
  6
CONTINUOUS
 62
     7
 10
146.36725151737079
 20
-71.246395281146334
 30
0.0
 11
146.36725151737079
 21
-63.246395281146349
 31
0.0
  0
LINE
  5
373
  8
0
  6
DASH_CENTER
 62
     1
 10
88.821257066610656
 20
-67.246395281146349
 30
0.0
 11
149.81151220805231
 21
-67.246395281146349
 31
0.0
  0
LINE
  5
374
  8
0
  6
CONTINUOUS
 62
     7
 10
95.367251517370775
 20
-63.246395281146349
 30
0.0
 11
95.367251517370775
 21
-71.246395281146334
 31
0.0
  0
LINE
  5
375
  8
0
  6
DASHED
 62
     2
 10
91.367251517370832
 20
-85.408535700290983
 30
0.0
 11
91.367251517370832
 21
-89.408535700290997
 31
0.0
  0
LINE
  5
376
  8
0
  6
CONTINUOUS
 62
     7
 10
91.367251517370832
 20
-85.408535700290983
 30
0.0
 11
95.367251517370775
 21
-85.408535700290983
 31
0.0
  0
LINE
  5
378
  8
0
  6
CONTINUOUS
 62
     7
 10
146.36725151737079
 20
-89.408535700290997
 30
0.0
 11
146.36725151737079
 21
-108.408535700291
 31
0.0
  0
LINE
  5
379
  8
0
  6
CONTINUOUS
 62
     7
 10
146.36725151737079
 20
-86.408535700290983
 30
0.0
 11
146.36725151737079
 21
-82.408535700290997
 31
0.0
  0
LINE
  5
37A
  8
0
  6
CONTINUOUS
 62
     7
 10
146.36725151737079
 20
-82.408535700290997
 30
0.0
 11
95.367251517370775
 21
-82.408535700290997
 31
0.0
  0
LINE
  5
37B
  8
0
  6
CONTINUOUS
 62
     7
 10
95.367251517370775
 20
-82.408535700290997
 30
0.0
 11
95.367251517370775
 21
-85.408535700290983
 31
0.0
  0
LINE
  5
37C
  8
0
  6
CONTINUOUS
 62
     7
 10
95.367251517370775
 20
-85.408535700290983
 30
0.0
 11
145.36725151737079
 21
-85.408535700290983
 31
0.0
  0
LINE
  5
37D
  8
0
  6
DASHED
 62
     7
 10
95.367251517370775
 20
-85.408535700290983
 30
0.0
 11
95.367251517370775
 21
-89.408535700290997
 31
0.0
  0
LINE
  5
37E
  8
0
  6
DASHED
 62
     2
 10
91.367251517370832
 20
-89.408535700290983
 30
0.0
 11
146.36725151737079
 21
-89.408535700290997
 31
0.0
  0
LINE
  5
37F
  8
0
  6
CONTINUOUS
 62
     7
 10
247.9432157605012
 20
-86.094834291930567
 30
0.0
 11
247.9432157605012
 21
-82.408542790915405
 31
0.0
  0
LINE
  5
380
  8
0
  6
CONTINUOUS
 62
     7
 10
247.9432157605012
 20
-82.408542790915405
 30
0.0
 11
239.9432157605012
 21
-82.408542790915405
 31
0.0
  0
LINE
  5
381
  8
0
  6
CONTINUOUS
 62
     7
 10
239.9432157605012
 20
-82.408542790915405
 30
0.0
 11
239.9432157605012
 21
-89.408542790915419
 31
0.0
  0
LINE
  5
382
  8
0
  6
CONTINUOUS
 62
     7
 10
239.9432157605012
 20
-89.408542790915419
 30
0.0
 11
247.9432157605012
 21
-89.408542790915419
 31
0.0
  0
LINE
  5
383
  8
0
  6
CONTINUOUS
 62
     7
 10
247.9432157605012
 20
-89.408542790915419
 30
0.0
 11
247.9432157605012
 21
-86.094834291930567
 31
0.0
  0
LINE
  5
384
  8
0
  6
DASH_CENTER
 62
     1
 10
230.0567959568813
 20
-97.408542790915362
 30
0.0
 11
258.2591251087822
 21
-97.408542790915362
 31
0.0
  0
LINE
  5
385
  8
0
  6
DASH_CENTER
 62
     1
 10
243.9432157605012
 20
-80.457939524337746
 30
0.0
 11
243.9432157605012
 21
-111.91251661630361
 31
0.0
  0
LINE
  5
386
  8
0
  6
DASH_CENTER
 62
     1
 10
120.8672515173708
 20
-73.746395281146334
 30
0.0
 11
120.8672515173708
 21
-60.746395281146349
 31
0.0
  0
ARC
  5
3F6
  8
0
  6
CONTINUOUS
 62
     7
 10
-88.953035842213566
 20
152.4856807231441
 30
0.0
 40
6.9999999999984421
 50
73.742972103423014
 51
80.169817570520479
  0
ARC
  5
3F7
  8
0
  6
CONTINUOUS
 62
     7
 10
-87.273355212741194
 20
158.2457738632753
 30
0.0
 40
0.9999999999999388
 50
4.9999999997663389
 51
73.742972103625334
  0
ARC
  5
3F8
  8
0
  6
CONTINUOUS
 62
     7
 10
-88.953035842213566
 20
152.4856807231441
 30
0.0
 40
6.9999999999990887
 50
80.169817570520479
 51
90.0
  0
ARC
  5
3F9
  8
0
  6
CONTINUOUS
 62
     7
 10
-88.953035842213566
 20
152.4856807231441
 30
0.0
 40
7.0
 50
90.0
 51
106.25702789658411
  0
ARC
  5
3FA
  8
0
  6
CONTINUOUS
 62
     7
 10
-90.632716471684148
 20
158.2457738632753
 30
0.0
 40
0.9999999999982637
 50
106.2570278965247
 51
175.0000000002336
  0
ARC
  5
3FB
  8
0
  6
CONTINUOUS
 62
     7
 10
-116.6332552127416
 20
158.2457738632753
 30
0.0
 40
0.9999999999981127
 50
4.9999999997754996
 51
73.74297210362144
  0
ARC
  5
3FC
  8
0
  6
CONTINUOUS
 62
     7
 10
-118.312935842214
 20
152.4856807231441
 30
0.0
 40
6.9999999999984661
 50
73.74297210342236
 51
90.0
  0
ARC
  5
3FD
  8
0
  6
CONTINUOUS
 62
     7
 10
-118.312935842214
 20
152.4856807231441
 30
0.0
 40
6.9999999999982094
 50
90.0
 51
99.829351723034705
  0
ARC
  5
3FE
  8
0
  6
CONTINUOUS
 62
     7
 10
-118.312935842214
 20
152.4856807231441
 30
0.0
 40
6.9999999999988658
 50
99.829351723034705
 51
106.25702789658391
  0
ARC
  5
3FF
  8
0
  6
CONTINUOUS
 62
     7
 10
-119.9926164716873
 20
158.2457738632753
 30
0.0
 40
0.9999999999974921
 50
106.2570278963731
 51
175.00000000022001
  0
ARC
  5
400
  8
0
  6
CONTINUOUS
 62
     7
 10
-88.332857457111558
 20
52.190613551816199
 30
0.0
 40
0.2999999999983629
 50
179.9999999991206
 51
269.0000000005366
  0
ARC
  5
401
  8
0
  6
CONTINUOUS
 62
     7
 10
-88.332857457109753
 20
49.690613551816199
 30
0.0
 40
0.3000000000001819
 50
179.9999999991206
 51
269.00000000018917
  0
ARC
  5
402
  8
0
  6
CONTINUOUS
 62
     7
 10
-88.332857457107934
 20
135.10099519394561
 30
0.0
 40
0.3000000000018875
 50
91.000000000143174
 51
179.99999999948429
  0
ARC
  5
403
  8
0
  6
CONTINUOUS
 62
     7
 10
-88.332857457107934
 20
132.60099519394561
 30
0.0
 40
0.3000000000018875
 50
91.000000000143174
 51
179.99999999948429
  0
ARC
  5
404
  8
0
  6
CONTINUOUS
 62
     7
 10
-88.632857457110845
 20
132.095771030306
 30
0.0
 40
0.1999999999970896
 50
179.99999999688151
 51
270.00000000026063
  0
ARC
  5
405
  8
0
  6
CONTINUOUS
 62
     7
 10
-88.332857457107934
 20
135.39577103030899
 30
0.0
 40
0.5
 50
90.0
 51
180.0
  0
ARC
  5
406
  8
0
  6
CONTINUOUS
 62
     7
 10
-83.83293584221984
 20
136.095771030317
 30
0.0
 40
0.2000000000080036
 50
270.00000000208041
 51
0.0
  0
ARC
  5
407
  8
0
  6
CONTINUOUS
 62
     7
 10
-79.13285745710084
 20
51.290976801353899
 30
0.0
 40
0.4999999999909052
 50
359.99999999957328
 51
89.000000000638693
  0
ARC
  5
408
  8
0
  6
CONTINUOUS
 62
     7
 10
-79.13285745710175
 20
48.790976801353899
 30
0.0
 40
0.4999999999918145
 50
359.99999999957328
 51
89.00000000053447
  0
ARC
  5
409
  8
0
  6
CONTINUOUS
 62
     7
 10
-79.13285745710175
 20
136.0005899085233
 30
0.0
 40
0.4999999999938135
 50
270.99999999946527
 51
0.0000000003094
  0
ARC
  5
40A
  8
0
  6
CONTINUOUS
 62
     7
 10
-79.13285745710084
 20
133.5005899085233
 30
0.0
 40
0.4999999999937976
 50
270.99999999936108
 51
0.0000000003094
  0
ARC
  5
40B
  8
0
  6
CONTINUOUS
 62
     7
 10
-121.8929978977085
 20
90.721970994824275
 30
0.0
 40
1.0000000000023821
 50
196.25702789639149
 51
265.00000000006912
  0
ARC
  5
40C
  8
0
  6
CONTINUOUS
 62
     7
 10
-116.132904757582
 20
92.401651624296804
 30
0.0
 40
7.0
 50
180.0
 51
196.25702789659081
  0
ARC
  5
40D
  8
0
  6
CONTINUOUS
 62
     7
 10
-116.132904757582
 20
92.401651624296804
 30
0.0
 40
6.999999999998602
 50
163.74297210339191
 51
180.0
  0
ARC
  5
40E
  8
0
  6
CONTINUOUS
 62
     7
 10
-121.8929978977085
 20
94.081332253767414
 30
0.0
 40
0.9999999999992129
 50
94.999999999926075
 51
163.74297210338449
  0
ARC
  5
40F
  8
0
  6
CONTINUOUS
 62
     7
 10
-123.43285882982509
 20
132.0958385874433
 30
0.0
 40
0.1999999999999151
 50
179.99993958366099
 51
269.99999999973937
  0
ARC
  5
410
  8
0
  6
CONTINUOUS
 62
     7
 10
-123.43285882982509
 20
132.0958385874433
 30
0.0
 40
0.1999999999999151
 50
179.99993958366099
 51
269.99999999973937
  0
ARC
  5
411
  8
0
  6
CONTINUOUS
 62
     7
 10
-121.8929978977085
 20
129.9217426936508
 30
0.0
 40
1.000000000000034
 50
94.999999999921982
 51
163.74297210333441
  0
ARC
  5
412
  8
0
  6
CONTINUOUS
 62
     7
 10
-116.132904757582
 20
128.24206206418009
 30
0.0
 40
6.9999999999988818
 50
163.74297210338409
 51
176.116151068888
  0
ARC
  5
413
  8
0
  6
CONTINUOUS
 62
     7
 10
-120.632904757582
 20
132.96748085134971
 30
0.0
 40
0.5
 50
90.0
 51
180.0
  0
ARC
  5
414
  8
0
  6
CONTINUOUS
 62
     7
 10
-116.33284466594721
 20
133.27044630485011
 30
0.0
 40
0.1999999999998039
 50
359.99999999973937
 51
90.000000000256478
  0
ARC
  5
415
  8
0
  6
CONTINUOUS
 62
     7
 10
-123.43285882982499
 20
133.6704463048514
 30
0.0
 40
0.1999999999999151
 50
179.99993958337609
 51
269.99999999973937
  0
ARC
  5
416
  8
0
  6
CONTINUOUS
 62
     7
 10
-287.36491502520943
 20
92.394510585582367
 30
0.0
 40
39.500000000000483
 50
10.411869016471069
 51
57.98640433295563
  0
ARC
  5
417
  8
0
  6
CONTINUOUS
 62
     7
 10
-287.36491502520943
 20
92.394510585582367
 30
0.0
 40
39.499999999999048
 50
122.0135956670443
 51
169.58813098352871
  0
ARC
  5
418
  8
0
  6
CONTINUOUS
 62
     7
 10
-287.36491502520943
 20
92.394510585582367
 30
0.0
 40
39.500000000000519
 50
280.37006459196112
 51
349.58813098352903
  0
ARC
  5
419
  8
0
  6
CONTINUOUS
 62
     7
 10
-287.36491502520943
 20
92.394510585582367
 30
0.0
 40
39.499999999999481
 50
190.41186901647129
 51
259.58653582493832
  0
ARC
  5
41A
  8
0
  6
CONTINUOUS
 62
     7
 10
-287.36491502520943
 20
92.394510585582367
 30
0.0
 40
45.500000000001059
 50
64.524125705380925
 51
70.848614539728374
  0
ARC
  5
41B
  8
0
  6
CONTINUOUS
 62
     7
 10
-287.36491502520943
 20
92.394510585582367
 30
0.0
 40
45.500000000000142
 50
109.1513854602705
 51
115.4758742946168
  0
ARC
  5
41C
  8
0
  6
CONTINUOUS
 62
     7
 10
-287.36665443405661
 20
58.145691004239367
 30
0.0
 40
3.25
 50
0.0
 51
180.0
  0
ARC
  5
41D
  8
0
  6
CONTINUOUS
 62
     7
 10
-321.61373872146572
 20
92.395113630109847
 30
0.0
 40
3.25
 50
270.00000000006509
 51
90.000000000015035
  0
ARC
  5
41E
  8
0
  6
CONTINUOUS
 62
     7
 10
-253.11373872146569
 20
92.395113630109847
 30
0.0
 40
3.2500000000009091
 50
90.0
 51
269.99999999993639
  0
ARC
  5
41F
  8
0
  6
CONTINUOUS
 62
     7
 10
-287.36551806965042
 20
92.395113630109847
 30
0.0
 40
38.850000000001678
 50
122.5853725371035
 51
174.38844705559401
  0
ARC
  5
420
  8
0
  6
CONTINUOUS
 62
     7
 10
-287.36551806965042
 20
92.395113630109847
 30
0.0
 40
38.850000000000783
 50
5.611552944405779
 51
57.414627462894281
  0
ARC
  5
421
  8
0
  6
CONTINUOUS
 62
     7
 10
-287.36551806965042
 20
92.395113630109847
 30
0.0
 40
38.849999999999177
 50
275.60984701709202
 51
354.38844705559421
  0
ARC
  5
422
  8
0
  6
CONTINUOUS
 62
     7
 10
-287.36551806965042
 20
92.395113630109847
 30
0.0
 40
38.850000000000811
 50
185.61155294440579
 51
264.3867411232946
  0
ARC
  5
423
  8
0
  6
CONTINUOUS
 62
     7
 10
-287.36551806965042
 20
92.395113630109847
 30
0.0
 40
45.000000000000547
 50
109.19526328669851
 51
115.58300197739651
  0
ARC
  5
424
  8
0
  6
CONTINUOUS
 62
     7
 10
-287.36551806965042
 20
92.395113630109847
 30
0.0
 40
45.000000000003247
 50
64.416998022602414
 51
70.804736713300514
  0
ARC
  5
425
  8
0
  6
CONTINUOUS
 62
     7
 10
-287.36491502521028
 20
92.395783354937137
 30
0.0
 40
43.499999999973149
 50
312.94677559013189
 51
317.05322441005688
  0
ARC
  5
426
  8
0
  6
CONTINUOUS
 62
     7
 10
-287.36491502521028
 20
92.395783354937137
 30
0.0
 40
43.500000000001073
 50
42.946775590004357
 51
47.05322440999911
  0
ARC
  5
427
  8
0
  6
CONTINUOUS
 62
     7
 10
-256.36491502521028
 20
125.7011883217379
 30
0.0
 40
2.0
 50
180.0
 51
227.05322441001189
  0
ARC
  5
428
  8
0
  6
CONTINUOUS
 62
     7
 10
-249.86491502521031
 20
66.395783354937109
 30
0.0
 40
3.0
 50
270.0
 51
0.0
  0
ARC
  5
429
  8
0
  6
CONTINUOUS
 62
     7
 10
-249.86491502521031
 20
118.39578335493709
 30
0.0
 40
3.0
 50
0.0
 51
90.0
  0
ARC
  5
42A
  8
0
  6
CONTINUOUS
 62
     7
 10
-254.05951005841041
 20
61.395783354937102
 30
0.0
 40
2.0
 50
90.0
 51
137.0532244087365
  0
ARC
  5
42B
  8
0
  6
CONTINUOUS
 62
     7
 10
-254.05951005841041
 20
123.39578335493709
 30
0.0
 40
2.0000000000268039
 50
222.94677558993061
 51
270.0
  0
ARC
  5
42C
  8
0
  6
CONTINUOUS
 62
     7
 10
-256.36491502521028
 20
59.090378388240012
 30
0.0
 40
1.999999999979494
 50
132.94677558916149
 51
180.0
  0
ARC
  5
42D
  8
0
  6
CONTINUOUS
 62
     7
 10
-261.36491502521028
 20
54.895783354937102
 30
0.0
 40
3.0
 50
270.0
 51
0.0
  0
ARC
  5
42E
  8
0
  6
CONTINUOUS
 62
     7
 10
-261.36491502521028
 20
129.89578335493709
 30
0.0
 40
3.0
 50
0.0
 51
90.0
  0
ARC
  5
42F
  8
0
  6
CONTINUOUS
 62
     7
 10
-313.36491502520852
 20
129.89578335493709
 30
0.0
 40
3.0
 50
90.0
 51
180.0
  0
ARC
  5
430
  8
0
  6
CONTINUOUS
 62
     7
 10
-313.36491502520852
 20
54.895783354937102
 30
0.0
 40
3.0
 50
180.0
 51
270.0
  0
ARC
  5
431
  8
0
  6
CONTINUOUS
 62
     7
 10
-318.36491502520852
 20
59.090378388240012
 30
0.0
 40
2.0
 50
0.0
 51
47.053224410836002
  0
ARC
  5
432
  8
0
  6
CONTINUOUS
 62
     7
 10
-320.67031999200827
 20
123.39578335493709
 30
0.0
 40
2.0
 50
270.0
 51
317.05322441006882
  0
ARC
  5
433
  8
0
  6
CONTINUOUS
 62
     7
 10
-320.67031999200827
 20
61.395783354937102
 30
0.0
 40
2.0000000000509361
 50
42.946775591245768
 51
90.0
  0
ARC
  5
434
  8
0
  6
CONTINUOUS
 62
     7
 10
-324.86491502520852
 20
118.39578335493709
 30
0.0
 40
3.0
 50
90.0
 51
180.0
  0
ARC
  5
435
  8
0
  6
CONTINUOUS
 62
     7
 10
-324.86491502520852
 20
66.395783354937109
 30
0.0
 40
3.0
 50
180.0
 51
270.0
  0
ARC
  5
436
  8
0
  6
CONTINUOUS
 62
     7
 10
-318.36491502520852
 20
125.7011883217379
 30
0.0
 40
2.0000000000293321
 50
312.94677559000837
 51
0.0
  0
ARC
  5
437
  8
0
  6
CONTINUOUS
 62
     7
 10
-287.3649150252084
 20
92.395783354937137
 30
0.0
 40
43.499999999999289
 50
132.94677558999999
 51
137.05322440999569
  0
ARC
  5
438
  8
0
  6
CONTINUOUS
 62
     7
 10
-287.3649150252084
 20
92.395783354937137
 30
0.0
 40
43.499999999976943
 50
222.94677558994391
 51
227.05322440986811
  0
ARC
  5
439
  8
0
  6
CONTINUOUS
 62
     7
 10
-271.00533439573331
 20
158.24572148525621
 30
0.0
 40
0.9999999999980742
 50
4.9999999996661701
 51
73.742972103704574
  0
ARC
  5
43A
  8
0
  6
CONTINUOUS
 62
     7
 10
-272.68501502520837
 20
152.48562834512319
 30
0.0
 40
6.9999999999995861
 50
73.742972103417515
 51
80.169817570522056
  0
ARC
  5
43B
  8
0
  6
CONTINUOUS
 62
     7
 10
-272.68501502520837
 20
152.48562834512319
 30
0.0
 40
7.0
 50
90.0
 51
106.2570278965749
  0
ARC
  5
43C
  8
0
  6
CONTINUOUS
 62
     7
 10
-274.36469565467979
 20
158.24572148525621
 30
0.0
 40
0.9999999999968974
 50
106.25702789644239
 51
175.0000000003381
  0
ARC
  5
43D
  8
0
  6
CONTINUOUS
 62
     7
 10
-272.68501502520837
 20
152.48562834512319
 30
0.0
 40
6.9999999999998606
 50
80.169817570522056
 51
90.0
  0
ARC
  5
43E
  8
0
  6
CONTINUOUS
 62
     7
 10
-302.04481502520952
 20
152.48562834512319
 30
0.0
 40
7.0
 50
90.0
 51
99.830182429478398
  0
ARC
  5
43F
  8
0
  6
CONTINUOUS
 62
     7
 10
-300.36513439573531
 20
158.24572148525621
 30
0.0
 40
0.9999999999980742
 50
4.9999999996661701
 51
73.742972103704574
  0
ARC
  5
440
  8
0
  6
CONTINUOUS
 62
     7
 10
-302.04481502520952
 20
152.48562834512319
 30
0.0
 40
6.9999999999993481
 50
73.742972103424208
 51
90.0
  0
ARC
  5
441
  8
0
  6
CONTINUOUS
 62
     7
 10
-302.04481502520952
 20
152.48562834512319
 30
0.0
 40
6.9999999999998721
 50
99.830182429478398
 51
106.2570278965816
  0
ARC
  5
442
  8
0
  6
CONTINUOUS
 62
     7
 10
-303.72449565468281
 20
158.24572148525621
 30
0.0
 40
0.9999999999966108
 50
106.25702789638611
 51
175.00000000033299
  0
ARC
  5
443
  8
0
  6
CONTINUOUS
 62
     7
 10
-276.23554766452969
 20
131.336171202092
 30
0.0
 40
0.5000000000025791
 50
74.048221431346974
 51
128.72957190570111
  0
ARC
  5
444
  8
0
  6
CONTINUOUS
 62
     7
 10
-267.86551806964951
 20
127.8918547810577
 30
0.0
 40
0.5
 50
0.0
 51
61.21687000562131
  0
ARC
  5
445
  8
0
  6
CONTINUOUS
 62
     7
 10
-287.36373872274351
 20
92.395691005877353
 30
0.0
 40
41.000000001840739
 50
105.9517785687238
 51
107.1898418199261
  0
ARC
  5
446
  8
0
  6
CONTINUOUS
 62
     7
 10
-298.49428238588717
 20
131.336171202092
 30
0.0
 40
0.5000000000025464
 50
51.270428094367126
 51
105.9517785684526
  0
ARC
  5
447
  8
0
  6
CONTINUOUS
 62
     7
 10
-306.8643119807665
 20
127.8918547810577
 30
0.0
 40
0.4999999999999539
 50
118.7831299943787
 51
180.0
  0
ARC
  5
448
  8
0
  6
CONTINUOUS
 62
     7
 10
-287.36373872146572
 20
92.395691004239367
 30
0.0
 40
41.000000003852371
 50
117.8153912416181
 51
118.78312999427909
  0
ARC
  5
449
  8
0
  6
DASH_CENTER
 62
     1
 10
-287.3649150252084
 20
92.395783354937137
 30
0.0
 40
38.800000000000701
 50
106.5838783077821
 51
118.4184678138393
  0
ARC
  5
44A
  8
0
  6
CONTINUOUS
 62
     7
 10
-302.21376220106492
 20
128.24200683172839
 30
0.0
 40
3.2499999999994982
 50
202.49999999999321
 51
0.0
  0
ARC
  5
44B
  8
0
  6
CONTINUOUS
 62
     7
 10
-302.21376220106492
 20
128.24200683172839
 30
0.0
 40
3.25
 50
0.0
 51
22.499999999994071
  0
ARC
  5
44C
  8
0
  6
CONTINUOUS
 62
     7
 10
-272.5137152418655
 20
128.24200683172839
 30
0.0
 40
3.2500000000003482
 50
157.50000000001251
 51
180.0
  0
ARC
  5
44D
  8
0
  6
CONTINUOUS
 62
     7
 10
-272.5137152418655
 20
128.24200683172839
 30
0.0
 40
3.25
 50
180.0
 51
337.5000000000129
  0
ARC
  5
44E
  8
0
  6
DASH_CENTER
 62
     1
 10
-287.36256241772293
 20
92.395783354937137
 30
0.0
 40
38.799999999999699
 50
61.581532186160892
 51
73.416121692216464
  0
ARC
  5
44F
  8
0
  6
CONTINUOUS
 62
     7
 10
-287.3660913289504
 20
92.395691004239367
 30
0.0
 40
41.000000003852669
 50
61.216870005720772
 51
62.271532563813182
  0
ARC
  5
450
  8
0
  6
CONTINUOUS
 62
     7
 10
-287.36609132767251
 20
92.395691005877353
 30
0.0
 40
41.000000001841428
 50
72.72643472054051
 51
74.048221431274854
  0
ARC
  5
451
  8
0
  6
CONTINUOUS
 62
     7
 10
-267.54459565468193
 20
192.5360088522728
 30
0.0
 40
0.999999999999728
 50
106.2570278966088
 51
158.9037616267519
  0
ARC
  5
452
  8
0
  6
CONTINUOUS
 62
     7
 10
-307.18523439573983
 20
192.5360088522728
 30
0.0
 40
1.000000000002307
 50
21.096238373191831
 51
73.742972103291123
  0
ARC
  5
453
  8
0
  6
DASH_CENTER
 62
     1
 10
-287.3649150252084
 20
92.395783354937137
 30
0.0
 40
72.499999999999915
 50
220.0196265408276
 51
229.98037345917339
  0
ARC
  5
454
  8
0
  6
DASH_CENTER
 62
     1
 10
-287.3649150252084
 20
92.395783354937137
 30
0.0
 40
72.499999999998764
 50
310.09872872022129
 51
319.90127127977809
  0
ARC
  5
455
  8
0
  6
DASH_CENTER
 62
     1
 10
-287.3649150252084
 20
92.395783354937137
 30
0.0
 40
72.499999999999517
 50
129.86141501983661
 51
140.13858498016401
  0
ARC
  5
456
  8
0
  6
DASH_CENTER
 62
     1
 10
-287.3649150252084
 20
92.395783354937137
 30
0.0
 40
72.499999999999872
 50
39.940521986670262
 51
50.059478013330377
  0
ARC
  5
457
  8
0
  6
CONTINUOUS
 62
     7
 10
-287.3649150252084
 20
92.395783354937137
 30
0.0
 40
82.499999999999844
 50
38.012279544351443
 51
51.987720455649097
  0
ARC
  5
458
  8
0
  6
CONTINUOUS
 62
     7
 10
-287.3649150252084
 20
92.395783354937137
 30
0.0
 40
82.500000000000398
 50
128.01227954435191
 51
141.9877204556486
  0
ARC
  5
459
  8
0
  6
CONTINUOUS
 62
     7
 10
-287.3649150252084
 20
92.395783354937137
 30
0.0
 40
82.500000000000369
 50
218.01227954435191
 51
231.98772045564809
  0
ARC
  5
45A
  8
0
  6
CONTINUOUS
 62
     7
 10
-287.3649150252084
 20
92.395783354937137
 30
0.0
 40
82.499999999999247
 50
308.01227954435092
 51
321.98772045564812
  0
ARC
  5
45B
  8
0
  6
CONTINUOUS
 62
     7
 10
-287.3649150252084
 20
92.395783354937137
 30
0.0
 40
65.499999999997982
 50
311.23057715486721
 51
318.76942284513109
  0
ARC
  5
45C
  8
0
  6
CONTINUOUS
 62
     7
 10
-287.3649150252084
 20
92.395783354937137
 30
0.0
 40
65.500000000000242
 50
295.09738477997081
 51
296.0083198753585
  0
ARC
  5
45D
  8
0
  6
CONTINUOUS
 62
     7
 10
-287.3649150252084
 20
92.395783354937137
 30
0.0
 40
65.500000000000625
 50
220.76188052993251
 51
228.76942284512981
  0
ARC
  5
45E
  8
0
  6
CONTINUOUS
 62
     7
 10
-287.3649150252084
 20
92.395783354937137
 30
0.0
 40
65.500000000000583
 50
131.2305771548684
 51
138.7694228451326
  0
ARC
  5
45F
  8
0
  6
CONTINUOUS
 62
     7
 10
-287.3649150252084
 20
92.395783354937137
 30
0.0
 40
65.499999999999133
 50
40.76188052993475
 51
48.76942284513342
  0
ARC
  5
460
  8
0
  6
CONTINUOUS
 62
     7
 10
-330.8649150252084
 20
42.759607031615403
 30
0.0
 40
0.5
 50
0.0
 51
48.769422845282278
  0
ARC
  5
461
  8
0
  6
CONTINUOUS
 62
     7
 10
-316.3060242781674
 20
33.079578189668197
 30
0.0
 40
0.4999999999995818
 50
63.991680124734138
 51
150.0000000000386
  0
ARC
  5
462
  8
0
  6
CONTINUOUS
 62
     7
 10
-258.42380577225032
 20
33.079578189668197
 30
0.0
 40
0.5000000000010373
 50
30.00000000005172
 51
116.00831987526
  0
ARC
  5
463
  8
0
  6
CONTINUOUS
 62
     7
 10
-243.8649150252084
 20
42.759607031615403
 30
0.0
 40
0.5000000000011287
 50
131.23057715511209
 51
180.0
  0
ARC
  5
464
  8
0
  6
CONTINUOUS
 62
     7
 10
-237.72873870188761
 20
48.895783354937102
 30
0.0
 40
0.5
 50
90.0
 51
138.76942284504659
  0
ARC
  5
465
  8
0
  6
CONTINUOUS
 62
     7
 10
-228.0487098599404
 20
63.454674101978107
 30
0.0
 40
0.5000000000000254
 50
153.99168012464301
 51
239.9999999999896
  0
ARC
  5
466
  8
0
  6
CONTINUOUS
 62
     7
 10
-243.8649150252084
 20
142.03195967826159
 30
0.0
 40
0.5
 50
180.0000000002052
 51
228.7694228450226
  0
ARC
  5
467
  8
0
  6
CONTINUOUS
 62
     7
 10
-346.68112019047641
 20
121.3368926078961
 30
0.0
 40
0.4999999999990933
 50
333.9916801245945
 51
0.0
  0
ARC
  5
468
  8
0
  6
CONTINUOUS
 62
     7
 10
-346.68112019047641
 20
121.3368926078961
 30
0.0
 40
0.5
 50
0.0
 51
60.000000000044238
  0
ARC
  5
469
  8
0
  6
CONTINUOUS
 62
     7
 10
-337.00109134853369
 20
135.89578335493709
 30
0.0
 40
0.5
 50
270.0
 51
318.76942284519862
  0
ARC
  5
46A
  8
0
  6
CONTINUOUS
 62
     7
 10
-330.8649150252084
 20
142.0319596782598
 30
0.0
 40
0.4999999999992689
 50
311.2305771548701
 51
0.00000000020518
  0
ARC
  5
46B
  8
0
  6
CONTINUOUS
 62
     7
 10
-351.1149150252084
 20
113.39578335493709
 30
0.0
 40
1.250000000001009
 50
90.0
 51
270.0
  0
ARC
  5
46C
  8
0
  6
CONTINUOUS
 62
     7
 10
-287.3649150252084
 20
92.395783354937137
 30
0.0
 40
65.500000000001549
 50
158.57586398132489
 51
159.73191946136239
  0
ARC
  5
46D
  8
0
  6
CONTINUOUS
 62
     7
 10
-351.1149150252084
 20
118.39578335493709
 30
0.0
 40
1.250000000001009
 50
90.0
 51
270.0
  0
ARC
  5
46E
  8
0
  6
CONTINUOUS
 62
     7
 10
-351.1149150252084
 20
51.895783354937102
 30
0.0
 40
1.2500000000009091
 50
90.0
 51
270.0
  0
ARC
  5
46F
  8
0
  6
CONTINUOUS
 62
     7
 10
-351.1149150252084
 20
58.895783354937102
 30
0.0
 40
1.2500000000009091
 50
90.0
 51
270.0
  0
ARC
  5
470
  8
0
  6
CONTINUOUS
 62
     7
 10
-351.1149150252084
 20
65.395783354937109
 30
0.0
 40
1.2500000000009091
 50
90.0
 51
270.0
  0
ARC
  5
471
  8
0
  6
CONTINUOUS
 62
     7
 10
-351.1149150252084
 20
71.395783354937109
 30
0.0
 40
1.2500000000009091
 50
90.0
 51
270.0
  0
ARC
  5
472
  8
0
  6
CONTINUOUS
 62
     7
 10
-287.3649150252084
 20
92.395783354937137
 30
0.0
 40
65.495373443755796
 50
200.26984944429739
 51
202.33859790769171
  0
ARC
  5
473
  8
0
  6
CONTINUOUS
 62
     7
 10
-287.3649150252084
 20
92.395783354937137
 30
0.0
 40
65.499999999999005
 50
206.08900729340081
 51
208.40922584757601
  0
ARC
  5
474
  8
0
  6
CONTINUOUS
 62
     7
 10
-287.3649150252084
 20
92.395783354937137
 30
0.0
 40
65.500000000000711
 50
212.80447988597211
 51
215.30598988094761
  0
ARC
  5
475
  8
0
  6
CONTINUOUS
 62
     7
 10
-266.3649150252084
 20
28.645783354937109
 30
0.0
 40
1.25
 50
179.99999999995831
 51
359.99999999995828
  0
ARC
  5
476
  8
0
  6
CONTINUOUS
 62
     7
 10
-287.3649150252084
 20
92.395783354937137
 30
0.0
 40
65.499999999999162
 50
290.2680805386367
 51
291.42413601867281
  0
ARC
  5
477
  8
0
  6
CONTINUOUS
 62
     7
 10
-261.3649150252084
 20
28.645783354937109
 30
0.0
 40
1.25
 50
179.99999999995831
 51
359.99999999995828
  0
ARC
  5
478
  8
0
  6
CONTINUOUS
 62
     7
 10
-308.36491502520829
 20
28.645783354937109
 30
0.0
 40
1.25
 50
180.00000000004169
 51
0.00000000004169
  0
ARC
  5
479
  8
0
  6
CONTINUOUS
 62
     7
 10
-287.3649150252084
 20
92.395783354937137
 30
0.0
 40
65.499999999998963
 50
248.57586398132409
 51
249.73191946136271
  0
ARC
  5
47A
  8
0
  6
CONTINUOUS
 62
     7
 10
-313.36491502520829
 20
28.645783354937109
 30
0.0
 40
1.25
 50
180.00000000004169
 51
0.00000000004169
  0
ARC
  5
47B
  8
0
  6
CONTINUOUS
 62
     7
 10
-223.6149150252084
 20
132.89578335493709
 30
0.0
 40
1.25
 50
270.00000000004172
 51
90.0
  0
ARC
  5
47C
  8
0
  6
CONTINUOUS
 62
     7
 10
-223.6149150252084
 20
125.89578335493709
 30
0.0
 40
1.25
 50
270.00000000004172
 51
90.0
  0
ARC
  5
47D
  8
0
  6
CONTINUOUS
 62
     7
 10
-223.6149150252084
 20
119.39578335493709
 30
0.0
 40
1.25
 50
270.00000000004172
 51
90.0
  0
ARC
  5
47E
  8
0
  6
CONTINUOUS
 62
     7
 10
-223.6149150252084
 20
113.39578335493709
 30
0.0
 40
1.25
 50
270.00000000004172
 51
90.0
  0
ARC
  5
47F
  8
0
  6
CONTINUOUS
 62
     7
 10
-223.6149150252084
 20
71.395783354937109
 30
0.0
 40
1.25
 50
270.00000000004172
 51
90.0
  0
ARC
  5
480
  8
0
  6
CONTINUOUS
 62
     7
 10
-287.3649150252084
 20
92.395783354937137
 30
0.0
 40
65.499999999999787
 50
285.37595604434199
 51
286.92316480563949
  0
ARC
  5
481
  8
0
  6
CONTINUOUS
 62
     7
 10
-287.3649150252084
 20
92.395783354937137
 30
0.0
 40
65.499999999999957
 50
153.9916801246415
 51
154.90261522003041
  0
ARC
  5
482
  8
0
  6
CONTINUOUS
 62
     7
 10
-287.3649150252084
 20
92.395783354937137
 30
0.0
 40
65.499999999998849
 50
163.07683519435869
 51
164.62404395565829
  0
ARC
  5
483
  8
0
  6
CONTINUOUS
 62
     7
 10
-287.3649150252084
 20
92.395783354937137
 30
0.0
 40
65.499999999998934
 50
15.375956044342329
 51
16.92316480564104
  0
ARC
  5
484
  8
0
  6
CONTINUOUS
 62
     7
 10
-287.3649150252084
 20
92.395783354937137
 30
0.0
 40
65.495373443752641
 50
20.26984944429929
 51
22.338597907693561
  0
ARC
  5
485
  8
0
  6
CONTINUOUS
 62
     7
 10
-287.3649150252084
 20
92.395783354937137
 30
0.0
 40
65.499999999999815
 50
26.089007293400449
 51
28.409225847576419
  0
ARC
  5
486
  8
0
  6
CONTINUOUS
 62
     7
 10
-287.3649150252084
 20
92.395783354937137
 30
0.0
 40
65.49999999999892
 50
32.804479885974089
 51
35.305989880948957
  0
ARC
  5
487
  8
0
  6
CONTINUOUS
 62
     7
 10
-287.3649150252084
 20
92.395783354937137
 30
0.0
 40
65.49999999999946
 50
343.07683519435977
 51
344.62404395565773
  0
ARC
  5
488
  8
0
  6
CONTINUOUS
 62
     7
 10
-287.3649150252084
 20
92.395783354937137
 30
0.0
 40
65.499999999997954
 50
338.57586398132628
 51
339.73191946136268
  0
ARC
  5
489
  8
0
  6
CONTINUOUS
 62
     7
 10
-223.6149150252084
 20
66.395783354937109
 30
0.0
 40
1.25
 50
270.00000000004172
 51
90.0
  0
ARC
  5
48A
  8
0
  6
CONTINUOUS
 62
     7
 10
-287.3649150252084
 20
92.395783354937137
 30
0.0
 40
65.499999999999034
 50
333.99168012464111
 51
334.90261522003073
  0
ARC
  5
48B
  8
0
  6
CONTINUOUS
 62
     7
 10
-287.3649150252084
 20
92.395783354937137
 30
0.0
 40
65.500000000000298
 50
243.99168012464079
 51
244.90261522002999
  0
ARC
  5
48C
  8
0
  6
CONTINUOUS
 62
     7
 10
-287.3649150252084
 20
92.395783354937137
 30
0.0
 40
65.500000000001492
 50
195.37595604434159
 51
196.92316480564051
  0
ARC
  5
48D
  8
0
  6
CONTINUOUS
 62
     7
 10
-287.3649150252084
 20
92.395783354937137
 30
0.0
 40
65.499999999999986
 50
253.0768351943581
 51
254.62404395565721
  0
ARC
  5
48E
  8
0
  6
CONTINUOUS
 62
     7
 10
81.867151517370843
 20
147.89583366514381
 30
0.0
 40
0.5
 50
180.0
 51
270.0
  0
ARC
  5
48F
  8
0
  6
CONTINUOUS
 62
     7
 10
-76.632857457109964
 20
155.39574440862481
 30
0.0
 40
2.0
 50
90.0
 51
180.0
  0
ARC
  5
490
  8
0
  6
CONTINUOUS
 62
     7
 10
-76.632857457109964
 20
29.395944408624771
 30
0.0
 40
2.0
 50
180.0
 51
270.00000000000318
  0
ARC
  5
491
  8
0
  6
DASH_CENTER
 62
     1
 10
289.4349196114577
 20
92.395799999999994
 30
0.0
 40
72.500000000000028
 50
310.25692610632512
 51
319.7430738936759
  0
ARC
  5
492
  8
0
  6
CONTINUOUS
 62
     7
 10
289.4349196114577
 20
92.395799999999994
 30
0.0
 40
82.500000000000398
 50
38.012279544351927
 51
51.987720455649011
  0
ARC
  5
493
  8
0
  6
CONTINUOUS
 62
     7
 10
289.4349196114577
 20
92.395799999999994
 30
0.0
 40
82.499999999999758
 50
308.01227954435137
 51
321.98772045564812
  0
ARC
  5
494
  8
0
  6
CONTINUOUS
 62
     7
 10
289.4349196114577
 20
92.395799999999994
 30
0.0
 40
55.0
 50
270.0
 51
90.0
  0
ARC
  5
495
  8
0
  6
CONTINUOUS
 62
     7
 10
289.4349196114577
 20
92.395799999999994
 30
0.0
 40
51.0
 50
270.0
 51
90.0
  0
ARC
  5
496
  8
0
  6
CONTINUOUS
 62
     7
 10
289.4349196114577
 20
92.395799999999994
 30
0.0
 40
22.5
 50
270.0
 51
90.0
  0
ARC
  5
497
  8
0
  6
CONTINUOUS
 62
     7
 10
289.4349196114577
 20
92.395799999999994
 30
0.0
 40
19.0
 50
270.0
 51
90.0
  0
ARC
  5
498
  8
0
  6
CONTINUOUS
 62
     7
 10
289.4349196114577
 20
92.395799999999994
 30
0.0
 40
17.0
 50
270.0
 51
90.0
  0
ARC
  5
499
  8
0
  6
CONTINUOUS
 62
     7
 10
289.4349196114577
 20
92.395799999999994
 30
0.0
 40
82.500000000000554
 50
128.01227954435109
 51
141.98772045564809
  0
ARC
  5
49A
  8
0
  6
CONTINUOUS
 62
     7
 10
289.4349196114577
 20
92.395799999999994
 30
0.0
 40
82.500000000000369
 50
218.01227954435191
 51
231.98772045564851
  0
ARC
  5
49B
  8
0
  6
CONTINUOUS
 62
     7
 10
289.4349196114577
 20
92.395799999999994
 30
0.0
 40
55.0
 50
90.0
 51
270.0
  0
ARC
  5
49C
  8
0
  6
CONTINUOUS
 62
     7
 10
289.4349196114577
 20
92.395799999999994
 30
0.0
 40
51.0
 50
90.0
 51
270.0
  0
ARC
  5
49D
  8
0
  6
CONTINUOUS
 62
     7
 10
289.4349196114577
 20
92.395799999999994
 30
0.0
 40
22.499999999999989
 50
90.0
 51
270.0
  0
ARC
  5
49E
  8
0
  6
CONTINUOUS
 62
     7
 10
289.4349196114577
 20
92.395799999999994
 30
0.0
 40
18.999999999999989
 50
90.0
 51
270.0
  0
ARC
  5
49F
  8
0
  6
CONTINUOUS
 62
     7
 10
289.4349196114577
 20
92.395799999999994
 30
0.0
 40
16.999999999999989
 50
90.0
 51
270.0
  0
ARC
  5
4A0
  8
0
  6
DASH_CENTER
 62
     1
 10
289.4349196114577
 20
92.395799999999994
 30
0.0
 40
72.499999999999915
 50
40.256926106325139
 51
49.74307389367592
  0
ARC
  5
4A1
  8
0
  6
DASH_CENTER
 62
     1
 10
289.4349196114577
 20
92.395799999999994
 30
0.0
 40
72.499999999999915
 50
130.25692610632521
 51
139.7430738936759
  0
ARC
  5
4A2
  8
0
  6
DASH_CENTER
 62
     1
 10
289.4349196114577
 20
92.395799999999994
 30
0.0
 40
72.500000000000043
 50
220.2569261063251
 51
229.74307389367581
  0
ARC
  5
4A7
  8
0
  6
CONTINUOUS
 62
     7
 10
-16.732848482628629
 20
186.77591571214541
 30
0.0
 40
7.0
 50
90.0
 51
106.25702789662191
  0
ARC
  5
4A8
  8
0
  6
CONTINUOUS
 62
     7
 10
-18.412529112101009
 20
192.53600885227669
 30
0.0
 40
0.9999999999980728
 50
106.2570278966907
 51
158.90376162692121
  0
ARC
  5
4A9
  8
0
  6
CONTINUOUS
 62
     7
 10
-16.732848482628629
 20
186.77591571214541
 30
0.0
 40
6.9999999999988427
 50
73.742972103385185
 51
90.0
  0
ARC
  5
4AA
  8
0
  6
CONTINUOUS
 62
     7
 10
-15.053167853156239
 20
192.53600885227669
 30
0.0
 40
0.9999999999979063
 50
21.096238373116339
 51
73.742972103359264
  0
ARC
  5
4AB
  8
0
  6
CONTINUOUS
 62
     7
 10
-63.232848482628619
 20
186.77591571214541
 30
0.0
 40
6.9999999999985869
 50
73.742972103392361
 51
90.0
  0
ARC
  5
4AC
  8
0
  6
CONTINUOUS
 62
     7
 10
-61.553167853156239
 20
192.53600885227669
 30
0.0
 40
0.9999999999979079
 50
21.0962383731163
 51
73.742972103409301
  0
ARC
  5
4AD
  8
0
  6
CONTINUOUS
 62
     7
 10
-63.232848482628619
 20
186.77591571214541
 30
0.0
 40
7.0
 50
90.0
 51
106.25702789662191
  0
ARC
  5
4AE
  8
0
  6
CONTINUOUS
 62
     7
 10
-64.912529112101012
 20
192.53600885227669
 30
0.0
 40
0.9999999999980728
 50
106.2570278966907
 51
158.9037616269211
  0
ARC
  5
4AF
  8
0
  6
CONTINUOUS
 62
     7
 10
-264.18641069766431
 20
192.5360088522747
 30
0.0
 40
1.000000000001622
 50
21.096238373090038
 51
73.74297210326057
  0
ARC
  5
4B0
  8
0
  6
CONTINUOUS
 62
     7
 10
-265.86609132713488
 20
186.77591571214259
 30
0.0
 40
6.999999999999714
 50
73.742972103387302
 51
90.0
  0
ARC
  5
4B1
  8
0
  6
CONTINUOUS
 62
     7
 10
-267.54577195660909
 20
192.5360088522747
 30
0.0
 40
0.9999999999971201
 50
106.25702789648621
 51
158.9037616267963
  0
ARC
  5
4B2
  8
0
  6
CONTINUOUS
 62
     7
 10
-265.86609132713488
 20
186.77591571214259
 30
0.0
 40
7.0
 50
90.0
 51
106.25702789660509
  0
ARC
  5
4B3
  8
0
  6
CONTINUOUS
 62
     7
 10
-310.54577195660909
 20
192.5360088522747
 30
0.0
 40
0.9999999999971201
 50
106.25702789648621
 51
158.9037616267963
  0
ARC
  5
4B4
  8
0
  6
CONTINUOUS
 62
     7
 10
-308.86609132713488
 20
186.77591571214259
 30
0.0
 40
7.0
 50
90.0
 51
106.25702789660509
  0
ARC
  5
4B5
  8
0
  6
CONTINUOUS
 62
     7
 10
-307.18641069766431
 20
192.5360088522747
 30
0.0
 40
1.000000000001622
 50
21.096238373090038
 51
73.74297210326057
  0
ARC
  5
4B6
  8
0
  6
CONTINUOUS
 62
     7
 10
-308.86609132713488
 20
186.77591571214259
 30
0.0
 40
6.999999999999714
 50
73.742972103387302
 51
90.0
  0
ARC
  5
4B7
  8
0
  6
CONTINUOUS
 62
     7
 10
267.93374330953128
 20
186.77591571214259
 30
0.0
 40
6.9999999999997309
 50
73.742972103386847
 51
90.0
  0
ARC
  5
4B8
  8
0
  6
CONTINUOUS
 62
     7
 10
269.6134239390019
 20
192.5360088522747
 30
0.0
 40
1.000000000001622
 50
21.096238373090038
 51
73.74297210326057
  0
ARC
  5
4B9
  8
0
  6
CONTINUOUS
 62
     7
 10
267.93374330953128
 20
186.77591571214259
 30
0.0
 40
7.0
 50
90.0
 51
106.25702789660509
  0
ARC
  5
4BA
  8
0
  6
CONTINUOUS
 62
     7
 10
266.25406268005707
 20
192.5360088522747
 30
0.0
 40
0.9999999999971201
 50
106.25702789648621
 51
158.9037616267963
  0
ARC
  5
4BB
  8
0
  6
CONTINUOUS
 62
     7
 10
310.93374330953128
 20
186.77591571214259
 30
0.0
 40
7.0
 50
90.0
 51
106.25702789660509
  0
ARC
  5
4BC
  8
0
  6
CONTINUOUS
 62
     7
 10
309.25406268005707
 20
192.5360088522747
 30
0.0
 40
0.9999999999971201
 50
106.25702789648621
 51
158.9037616267963
  0
ARC
  5
4BD
  8
0
  6
CONTINUOUS
 62
     7
 10
310.93374330953128
 20
186.77591571214259
 30
0.0
 40
6.9999999999997309
 50
73.742972103386847
 51
90.0
  0
ARC
  5
4BE
  8
0
  6
CONTINUOUS
 62
     7
 10
312.6134239390019
 20
192.5360088522747
 30
0.0
 40
1.000000000001622
 50
21.096238373090038
 51
73.74297210326057
  0
ARC
  5
4BF
  8
0
  6
CONTINUOUS
 62
     7
 10
81.86715151737063
 20
-41.908535700290997
 30
0.0
 40
0.5
 50
180.0
 51
270.0
  0
ARC
  5
4C0
  8
0
  6
CONTINUOUS
 62
     7
 10
95.367251517370775
 20
-67.246395281146349
 30
0.0
 40
4.0
 50
90.0
 51
180.0
  0
ARC
  5
4C1
  8
0
  6
CONTINUOUS
 62
     7
 10
95.367251517370775
 20
-67.246395281146349
 30
0.0
 40
3.9999999999999569
 50
180.0
 51
270.0
  0
ARC
  5
4C2
  8
0
  6
CONTINUOUS
 62
     7
 10
243.9432157605012
 20
-97.408542790915362
 30
0.0
 40
12.00000000000003
 50
109.47122063449061
 51
180.0
  0
ARC
  5
4C3
  8
0
  6
CONTINUOUS
 62
     7
 10
243.9432157605012
 20
-97.408542790915362
 30
0.0
 40
12.0
 50
180.0
 51
270.0
  0
ARC
  5
4C4
  8
0
  6
CONTINUOUS
 62
     7
 10
243.9432157605012
 20
-97.408542790915362
 30
0.0
 40
12.00000000000003
 50
270.0
 51
0.0
  0
ARC
  5
4C5
  8
0
  6
CONTINUOUS
 62
     7
 10
243.9432157605012
 20
-97.408542790915362
 30
0.0
 40
12.0
 50
0.0
 51
70.528779365509379
  0
CIRCLE
  5
4E3
  8
0
  6
CONTINUOUS
 62
     7
 10
-302.21376220106492
 20
128.24200683172839
 30
0.0
 40
2.7499999999997802
  0
CIRCLE
  5
4E4
  8
0
  6
CONTINUOUS
 62
     7
 10
-321.61373872146572
 20
92.395113630109847
 30
0.0
 40
2.749999999999861
  0
CIRCLE
  5
4E5
  8
0
  6
CONTINUOUS
 62
     7
 10
-253.11373872146569
 20
92.395113630109847
 30
0.0
 40
2.7500000000004841
  0
CIRCLE
  5
4E6
  8
0
  6
CONTINUOUS
 62
     7
 10
-287.36665443405661
 20
58.145691004239367
 30
0.0
 40
2.7500000000011471
  0
CIRCLE
  5
4E7
  8
0
  6
CONTINUOUS
 62
     7
 10
-250.8649150708205
 20
67.895783400662879
 30
0.0
 40
3.5
  0
CIRCLE
  5
4E8
  8
0
  6
CONTINUOUS
 62
     7
 10
-250.8649150708205
 20
67.895783400662879
 30
0.0
 40
3.149999999997902
  0
CIRCLE
  5
4E9
  8
0
  6
CONTINUOUS
 62
     7
 10
-250.8649150708205
 20
67.895783400662879
 30
0.0
 40
4.0
  0
CIRCLE
  5
4EA
  8
0
  6
CONTINUOUS
 62
     7
 10
-250.8649150708205
 20
116.895783309316
 30
0.0
 40
4.0
  0
CIRCLE
  5
4EB
  8
0
  6
CONTINUOUS
 62
     7
 10
-250.8649150708205
 20
116.895783309316
 30
0.0
 40
3.149999999997902
  0
CIRCLE
  5
4EC
  8
0
  6
CONTINUOUS
 62
     7
 10
-250.8649150708205
 20
116.895783309316
 30
0.0
 40
3.5
  0
CIRCLE
  5
4ED
  8
0
  6
CONTINUOUS
 62
     7
 10
-323.8649149795973
 20
116.895783309316
 30
0.0
 40
3.5
  0
CIRCLE
  5
4EE
  8
0
  6
CONTINUOUS
 62
     7
 10
-323.8649149795973
 20
116.895783309316
 30
0.0
 40
3.1499999999969082
  0
CIRCLE
  5
4EF
  8
0
  6
CONTINUOUS
 62
     7
 10
-323.8649149795973
 20
116.895783309316
 30
0.0
 40
4.0
  0
CIRCLE
  5
4F0
  8
0
  6
CONTINUOUS
 62
     7
 10
-323.8649149795973
 20
67.895783400662879
 30
0.0
 40
4.0
  0
CIRCLE
  5
4F1
  8
0
  6
CONTINUOUS
 62
     7
 10
-323.8649149795973
 20
67.895783400662879
 30
0.0
 40
3.1499999999969082
  0
CIRCLE
  5
4F2
  8
0
  6
CONTINUOUS
 62
     7
 10
-323.8649149795973
 20
67.895783400662879
 30
0.0
 40
3.5
  0
CIRCLE
  5
4F3
  8
0
  6
CONTINUOUS
 62
     7
 10
-272.5137152418655
 20
128.24200683172839
 30
0.0
 40
2.749999999999861
  0
CIRCLE
  5
4F4
  8
0
  6
CONTINUOUS
 62
     7
 10
320.93491961145941
 20
33.895800000001429
 30
0.0
 40
5.25
  0
CIRCLE
  5
4F5
  8
0
  6
CONTINUOUS
 62
     7
 10
320.93491961145941
 20
33.895800000001429
 30
0.0
 40
4.2499999999990914
  0
CIRCLE
  5
4F6
  8
0
  6
CONTINUOUS
 62
     7
 10
320.93491961145941
 20
33.895800000001429
 30
0.0
 40
5.0517499999996858
  0
CIRCLE
  5
4F7
  8
0
  6
CONTINUOUS
 62
     7
 10
-338.63015666123363
 20
41.130541718911928
 30
0.0
 40
4.5
  0
CIRCLE
  5
4F8
  8
0
  6
CONTINUOUS
 62
     7
 10
-236.09967338918599
 20
41.130541718911928
 30
0.0
 40
4.5
  0
CIRCLE
  5
4F9
  8
0
  6
CONTINUOUS
 62
     7
 10
-338.63015666123363
 20
143.66102499096141
 30
0.0
 40
4.5
  0
CIRCLE
  5
4FA
  8
0
  6
CONTINUOUS
 62
     7
 10
-236.09967338918599
 20
143.66102499096141
 30
0.0
 40
4.5000000000008811
  0
CIRCLE
  5
4FB
  8
0
  6
CONTINUOUS
 62
     7
 10
-236.09967338918599
 20
143.66102499096141
 30
0.0
 40
4.5000000000008811
  0
CIRCLE
  5
4FC
  8
0
  6
CONTINUOUS
 62
     7
 10
-252.36491502520749
 20
150.89578335493709
 30
0.0
 40
3.8500000000003061
  0
CIRCLE
  5
4FD
  8
0
  6
CONTINUOUS
 62
     7
 10
-252.36491502520749
 20
150.89578335493709
 30
0.0
 40
4.25
  0
CIRCLE
  5
4FE
  8
0
  6
CONTINUOUS
 62
     7
 10
-345.86491502520749
 20
127.39578335493709
 30
0.0
 40
3.8500000000002932
  0
CIRCLE
  5
4FF
  8
0
  6
CONTINUOUS
 62
     7
 10
-345.86491502520749
 20
127.39578335493709
 30
0.0
 40
4.25
  0
CIRCLE
  5
500
  8
0
  6
CONTINUOUS
 62
     7
 10
-322.36491502520749
 20
33.895783354937109
 30
0.0
 40
3.850000000000366
  0
CIRCLE
  5
501
  8
0
  6
CONTINUOUS
 62
     7
 10
-322.36491502520749
 20
33.895783354937109
 30
0.0
 40
4.25
  0
CIRCLE
  5
502
  8
0
  6
CONTINUOUS
 62
     7
 10
-228.86491502520749
 20
57.395783354937102
 30
0.0
 40
3.8500000000003709
  0
CIRCLE
  5
503
  8
0
  6
CONTINUOUS
 62
     7
 10
-228.86491502520749
 20
57.395783354937102
 30
0.0
 40
4.25
  0
CIRCLE
  5
504
  8
0
  6
CONTINUOUS
 62
     7
 10
230.9349196114583
 20
60.895799999999383
 30
0.0
 40
5.25
  0
CIRCLE
  5
505
  8
0
  6
CONTINUOUS
 62
     7
 10
230.9349196114583
 20
60.895799999999383
 30
0.0
 40
4.25
  0
CIRCLE
  5
506
  8
0
  6
CONTINUOUS
 62
     7
 10
230.9349196114583
 20
60.895799999999383
 30
0.0
 40
5.0517499999996023
  0
CIRCLE
  5
507
  8
0
  6
CONTINUOUS
 62
     7
 10
257.934919611456
 20
150.8957999999983
 30
0.0
 40
5.25
  0
CIRCLE
  5
508
  8
0
  6
CONTINUOUS
 62
     7
 10
257.934919611456
 20
150.8957999999983
 30
0.0
 40
4.2499999999990914
  0
CIRCLE
  5
509
  8
0
  6
CONTINUOUS
 62
     7
 10
257.934919611456
 20
150.8957999999983
 30
0.0
 40
5.0517499999996858
  0
CIRCLE
  5
50A
  8
0
  6
CONTINUOUS
 62
     7
 10
340.70016124748099
 20
41.130558363974842
 30
0.0
 40
4.5000000000001599
  0
CIRCLE
  5
50B
  8
0
  6
CONTINUOUS
 62
     7
 10
347.93491961145918
 20
123.8957999999994
 30
0.0
 40
5.2500000000000133
  0
CIRCLE
  5
50C
  8
0
  6
CONTINUOUS
 62
     7
 10
347.93491961145918
 20
123.8957999999994
 30
0.0
 40
4.2499999999990914
  0
CIRCLE
  5
50D
  8
0
  6
CONTINUOUS
 62
     7
 10
347.93491961145918
 20
123.8957999999994
 30
0.0
 40
5.0517499999996138
  0
CIRCLE
  5
50E
  8
0
  6
CONTINUOUS
 62
     7
 10
289.4349196114577
 20
92.395799999999994
 30
0.0
 40
11.00000000000011
  0
CIRCLE
  5
50F
  8
0
  6
CONTINUOUS
 62
     7
 10
289.4349196114577
 20
92.395799999999994
 30
0.0
 40
12.00000000000011
  0
CIRCLE
  5
510
  8
0
  6
CONTINUOUS
 62
     7
 10
230.9349196114583
 20
60.895799999999383
 30
0.0
 40
5.25
  0
CIRCLE
  5
511
  8
0
  6
CONTINUOUS
 62
     7
 10
230.9349196114583
 20
60.895799999999383
 30
0.0
 40
4.25
  0
CIRCLE
  5
512
  8
0
  6
CONTINUOUS
 62
     7
 10
230.9349196114583
 20
60.895799999999383
 30
0.0
 40
5.0517499999996023
  0
CIRCLE
  5
513
  8
0
  6
CONTINUOUS
 62
     7
 10
289.4349196114577
 20
92.395799999999994
 30
0.0
 40
11.0
  0
CIRCLE
  5
514
  8
0
  6
CONTINUOUS
 62
     7
 10
289.4349196114577
 20
92.395799999999994
 30
0.0
 40
12.0
  0
CIRCLE
  5
515
  8
0
  6
CONTINUOUS
 62
     7
 10
340.70016124748292
 20
143.6610416360233
 30
0.0
 40
4.5000000000000746
  0
CIRCLE
  5
516
  8
0
  6
CONTINUOUS
 62
     7
 10
238.16967797543441
 20
143.66104163602509
 30
0.0
 40
4.5000000000000977
  0
CIRCLE
  5
517
  8
0
  6
CONTINUOUS
 62
     7
 10
238.16967797543251
 20
41.130558363976697
 30
0.0
 40
4.5000000000001972
  0
CIRCLE
  5
51A
  8
0
  6
CONTINUOUS
 62
     2
 10
120.8672515173708
 20
-67.246395281146349
 30
0.0
 40
1.5
  0
CIRCLE
  5
51B
  8
0
  6
CONTINUOUS
 62
     7
 10
120.8672515173708
 20
-67.246395281146349
 30
0.0
 40
1.25
  0
ARC
  5
51E
  8
0
  6
CONTINUOUS
 62
     7
 10
-96.017852296418823
 20
167.84568072314099
 30
0.0
 40
0.75
 50
180.0
 51
270.0
  0
ARC
  5
51F
  8
0
  6
CONTINUOUS
 62
     7
 10
-96.017852296418823
 20
168.08427640039599
 30
0.0
 40
0.7500000000007016
 50
111.422002502666
 51
180.0
  0
ARC
  5
520
  8
0
  6
CONTINUOUS
 62
     7
 10
-120.6328950483086
 20
51.294491441067677
 30
0.0
 40
0.5
 50
180.0
 51
270.0
  0
ARC
  5
521
  8
0
  6
CONTINUOUS
 62
     7
 10
-121.3328950483111
 20
53.53078586864779
 30
0.0
 40
0.200000000002504
 50
0.0
 51
90.0
  0
ARC
  5
522
  8
0
  6
CONTINUOUS
 62
     7
 10
-121.33293584221531
 20
55.731092929643097
 30
0.0
 40
2.0
 50
180.0
 51
268.89820391734838
  0
ARC
  5
523
  8
0
  6
CONTINUOUS
 62
     7
 10
-123.13293584221459
 20
95.845101191265087
 30
0.0
 40
0.2000000000007134
 50
180.0
 51
269.98061032070979
  0
ARC
  5
524
  8
0
  6
CONTINUOUS
 62
     7
 10
-123.13293584221459
 20
88.944738732599589
 30
0.0
 40
0.2000000000005852
 50
89.87690925270563
 51
180.0
  0
ARC
  5
525
  8
0
  6
CONTINUOUS
 62
     7
 10
-121.3328950483111
 20
89.341631639640056
 30
0.0
 40
0.1999999999988518
 50
270.0
 51
0.0
  0
ARC
  5
526
  8
0
  6
CONTINUOUS
 62
     7
 10
-121.3328950483111
 20
95.444492021242169
 30
0.0
 40
0.200000000002504
 50
0.0
 51
90.0
  0
ARC
  5
527
  8
0
  6
CONTINUOUS
 62
     7
 10
-123.13293584221459
 20
128.51620042407771
 30
0.0
 40
0.1999999999999886
 50
90.0
 51
180.0
  0
ARC
  5
528
  8
0
  6
CONTINUOUS
 62
     7
 10
-123.13293584221459
 20
131.63582595267641
 30
0.0
 40
0.2000000000005444
 50
90.012747576171094
 51
180.0
  0
ARC
  5
529
  8
0
  6
CONTINUOUS
 62
     7
 10
-121.3329047575818
 20
128.91620042407749
 30
0.0
 40
0.1999999999999034
 50
270.0
 51
0.0
  0
ARC
  5
52A
  8
0
  6
CONTINUOUS
 62
     7
 10
-121.3329047575818
 20
132.0362264345473
 30
0.0
 40
0.2000000000010118
 50
270.0
 51
0.0
  0
ARC
  5
52B
  8
0
  6
CONTINUOUS
 62
     7
 10
-279.1774150252071
 20
168.08422402237611
 30
0.0
 40
0.7499999999998341
 50
111.42200250268731
 51
180.0
  0
ARC
  5
52C
  8
0
  6
CONTINUOUS
 62
     7
 10
-279.1774150252071
 20
167.8456283451211
 30
0.0
 40
0.75
 50
180.0
 51
270.0
  0
ARC
  5
52D
  8
0
  6
CONTINUOUS
 62
     7
 10
-297.20070146283598
 20
132.8957833549899
 30
0.0
 40
1.0000000000008711
 50
225.0000000000357
 51
270.0
  0
ARC
  5
52E
  8
0
  6
CONTINUOUS
 62
     7
 10
-277.52912858758191
 20
132.8957833549899
 30
0.0
 40
1.0
 50
270.0
 51
315.0000000000357
  0
ARC
  5
52F
  8
0
  6
CONTINUOUS
 62
     7
 10
-329.36491502520943
 20
87.894510585582367
 30
0.0
 40
1.0
 50
180.0
 51
270.00000000005213
  0
ARC
  5
530
  8
0
  6
CONTINUOUS
 62
     7
 10
-245.36491502520849
 20
87.894510585582367
 30
0.0
 40
1.0
 50
269.99999999994787
 51
0.0
  0
ARC
  5
531
  8
0
  6
CONTINUOUS
 62
     7
 10
-245.36491502520849
 20
96.894510585582367
 30
0.0
 40
1.0
 50
0.0
 51
90.000000000052125
  0
ARC
  5
532
  8
0
  6
CONTINUOUS
 62
     7
 10
-246.54825176129171
 20
99.894510585582381
 30
0.0
 40
2.000000000000123
 50
190.41186901644781
 51
270.0
  0
ARC
  5
533
  8
0
  6
CONTINUOUS
 62
     7
 10
-279.86605138961647
 20
51.57784427750498
 30
0.0
 40
2.0000000000008491
 50
101.2054975416942
 51
180.0
  0
ARC
  5
534
  8
0
  6
CONTINUOUS
 62
     7
 10
-282.86605138961647
 20
50.39450754142176
 30
0.0
 40
1.0
 50
270.0
 51
0.0
  0
ARC
  5
535
  8
0
  6
CONTINUOUS
 62
     7
 10
-291.86605138961647
 20
50.39450754142176
 30
0.0
 40
1.0
 50
180.0
 51
270.0
  0
ARC
  5
536
  8
0
  6
CONTINUOUS
 62
     7
 10
-328.18157828912518
 20
84.894510585582367
 30
0.0
 40
1.9999999999992
 50
10.4118690164526
 51
90.0
  0
ARC
  5
537
  8
0
  6
CONTINUOUS
 62
     7
 10
-328.18157828912518
 20
99.894510585582381
 30
0.0
 40
2.0
 50
270.0
 51
349.58813098354739
  0
ARC
  5
538
  8
0
  6
CONTINUOUS
 62
     7
 10
-329.36491502520943
 20
96.894510585582367
 30
0.0
 40
1.0
 50
89.999999999947889
 51
180.0
  0
ARC
  5
539
  8
0
  6
CONTINUOUS
 62
     7
 10
-265.36491502520943
 20
127.5832872054085
 30
0.0
 40
2.0
 50
180.0
 51
237.9864043329305
  0
ARC
  5
53A
  8
0
  6
CONTINUOUS
 62
     7
 10
-309.36491502520943
 20
127.5832872054085
 30
0.0
 40
2.0000000000012061
 50
302.01359566707117
 51
0.0
  0
ARC
  5
53B
  8
0
  6
CONTINUOUS
 62
     7
 10
-267.66491502520859
 20
133.74121541196621
 30
0.0
 40
0.3000000000005233
 50
244.52412570552281
 51
0.0
  0
ARC
  5
53C
  8
0
  6
CONTINUOUS
 62
     7
 10
-272.93004444671431
 20
133.95933358992309
 30
0.0
 40
1.4999999999996281
 50
70.848614539794625
 51
135.0
  0
ARC
  5
53D
  8
0
  6
CONTINUOUS
 62
     7
 10
-307.06491502520839
 20
133.74121541196621
 30
0.0
 40
0.3000000000011482
 50
180.0
 51
295.47587429447719
  0
ARC
  5
53E
  8
0
  6
CONTINUOUS
 62
     7
 10
-301.79978560370171
 20
133.95933358992309
 30
0.0
 40
1.5000000000002529
 50
45.0
 51
109.151385460273
  0
ARC
  5
53F
  8
0
  6
CONTINUOUS
 62
     7
 10
-246.54825176129171
 20
84.894510585582367
 30
0.0
 40
2.0
 50
90.0
 51
169.58813098355219
  0
ARC
  5
540
  8
0
  6
CONTINUOUS
 62
     7
 10
-297.24419772609042
 20
132.89638639951909
 30
0.0
 40
1.5000000000002529
 50
225.0
 51
270.0
  0
ARC
  5
541
  8
0
  6
CONTINUOUS
 62
     7
 10
-277.48683841320951
 20
132.89638639951909
 30
0.0
 40
1.5
 50
270.0
 51
308.7295719057359
  0
ARC
  5
542
  8
0
  6
CONTINUOUS
 62
     7
 10
-291.11665443405661
 20
54.229009873301528
 30
0.0
 40
0.5000000000006769
 50
264.38674112331142
 51
0.0
  0
ARC
  5
543
  8
0
  6
CONTINUOUS
 62
     7
 10
-283.61665443405661
 20
54.228786567610349
 30
0.0
 40
0.5
 50
180.0
 51
275.60984701698101
  0
ARC
  5
544
  8
0
  6
CONTINUOUS
 62
     7
 10
-325.53173349638638
 20
96.145113630110757
 30
0.0
 40
0.4999999999987352
 50
174.38844705553589
 51
270.0
  0
ARC
  5
545
  8
0
  6
CONTINUOUS
 62
     7
 10
-325.53173349638638
 20
88.645113630108924
 30
0.0
 40
0.5
 50
90.0
 51
185.6115529444443
  0
ARC
  5
546
  8
0
  6
CONTINUOUS
 62
     7
 10
-249.19930264291349
 20
88.645113630108924
 30
0.0
 40
0.4999999999994988
 50
354.38844705554448
 51
90.0
  0
ARC
  5
547
  8
0
  6
CONTINUOUS
 62
     7
 10
-249.19930264291349
 20
96.145113630110757
 30
0.0
 40
0.5
 50
270.0
 51
5.6115529444554797
  0
ARC
  5
548
  8
0
  6
CONTINUOUS
 62
     7
 10
-247.01997928281421
 20
85.995113630112925
 30
0.0
 40
2.0
 50
89.999999999845286
 51
170.98629305001529
  0
ARC
  5
549
  8
0
  6
CONTINUOUS
 62
     7
 10
-247.01997928281421
 20
98.795113630108546
 30
0.0
 40
2.0000000000014651
 50
189.01370695001049
 51
269.99999999973937
  0
ARC
  5
54A
  8
0
  6
CONTINUOUS
 62
     7
 10
-246.7655180696473
 20
95.795113630105845
 30
0.0
 40
1.0
 50
0.0
 51
90.0
  0
ARC
  5
54B
  8
0
  6
CONTINUOUS
 62
     7
 10
-246.7655180696473
 20
88.995113630112016
 30
0.0
 40
1.0
 50
270.0
 51
0.0
  0
ARC
  5
54C
  8
0
  6
CONTINUOUS
 62
     7
 10
-280.96438170524641
 20
52.049755120805962
 30
0.0
 40
1.999999999999938
 50
99.015320735108801
 51
179.99999999973971
  0
ARC
  5
54D
  8
0
  6
CONTINUOUS
 62
     7
 10
-327.96551806965272
 20
88.995113630112016
 30
0.0
 40
1.0
 50
180.0
 51
270.0
  0
ARC
  5
54E
  8
0
  6
CONTINUOUS
 62
     7
 10
-327.96551806965272
 20
95.795113630105845
 30
0.0
 40
1.0
 50
90.0
 51
180.0
  0
ARC
  5
54F
  8
0
  6
CONTINUOUS
 62
     7
 10
-327.71105685648479
 20
98.795113630108546
 30
0.0
 40
2.0
 50
270.00000000023448
 51
350.98629304998491
  0
ARC
  5
550
  8
0
  6
CONTINUOUS
 62
     7
 10
-327.71105685648479
 20
85.995113630112925
 30
0.0
 40
2.0000000000003131
 50
9.0137069499893396
 51
90.000000000210051
  0
ARC
  5
551
  8
0
  6
CONTINUOUS
 62
     7
 10
-293.76665443405352
 20
52.049755120805962
 30
0.0
 40
2.0
 50
0.00000000026035
 51
80.984679264915329
  0
ARC
  5
552
  8
0
  6
CONTINUOUS
 62
     7
 10
-265.36551806964951
 20
126.8149117120288
 30
0.0
 40
2.0
 50
180.0
 51
237.4146274628751
  0
ARC
  5
553
  8
0
  6
CONTINUOUS
 62
     7
 10
-309.36551806965042
 20
126.8149117120288
 30
0.0
 40
1.9999999999991991
 50
302.5853725371469
 51
0.0
  0
ARC
  5
554
  8
0
  6
CONTINUOUS
 62
     7
 10
-306.36551806965042
 20
132.081383296079
 30
0.0
 40
1.0000000000025631
 50
115.5830019773141
 51
180.0
  0
ARC
  5
555
  8
0
  6
CONTINUOUS
 62
     7
 10
-301.83221527490139
 20
133.9488700423959
 30
0.0
 40
1.000000000000832
 50
45.000000000038
 51
109.1952632867106
  0
ARC
  5
556
  8
0
  6
CONTINUOUS
 62
     7
 10
-272.89882086439849
 20
133.9488700423959
 30
0.0
 40
1.0000000000002749
 50
70.804736713295597
 51
134.9999999999275
  0
ARC
  5
557
  8
0
  6
CONTINUOUS
 62
     7
 10
-268.36551806965042
 20
132.081383296079
 30
0.0
 40
1.0
 50
0.0
 51
64.416998022636008
  0
ARC
  5
558
  8
0
  6
CONTINUOUS
 62
     7
 10
-282.86364225585368
 20
50.395783354937102
 30
0.0
 40
1.0
 50
270.0
 51
0.00000000010422
  0
ARC
  5
559
  8
0
  6
CONTINUOUS
 62
     7
 10
-245.36491502521031
 20
87.894510585585124
 30
0.0
 40
1.000000000002728
 50
270.00000000005213
 51
0.0
  0
ARC
  5
55A
  8
0
  6
CONTINUOUS
 62
     7
 10
-245.36491502521031
 20
96.894510585580562
 30
0.0
 40
1.0
 50
0.0
 51
89.999999999947889
  0
ARC
  5
55B
  8
0
  6
CONTINUOUS
 62
     7
 10
-245.86491502521031
 20
98.895800051597291
 30
0.0
 40
1.0
 50
180.0
 51
270.00095664018681
  0
ARC
  5
55C
  8
0
  6
CONTINUOUS
 62
     7
 10
-245.36491502521031
 20
96.895808399578115
 30
0.0
 40
1.0
 50
0.0
 51
90.00095664013304
  0
ARC
  5
55D
  8
0
  6
CONTINUOUS
 62
     7
 10
-245.36491502521031
 20
87.895808399859163
 30
0.0
 40
0.9999999999984151
 50
270.00095664018681
 51
0.0
  0
ARC
  5
55E
  8
0
  6
CONTINUOUS
 62
     7
 10
-245.86491502521031
 20
85.895800051319881
 30
0.0
 40
0.9999999999984151
 50
90.00095664013304
 51
180.0
  0
ARC
  5
55F
  8
0
  6
CONTINUOUS
 62
     7
 10
-282.86491502521028
 20
50.395783354937102
 30
0.0
 40
1.0
 50
270.0
 51
0.0
  0
ARC
  5
560
  8
0
  6
CONTINUOUS
 62
     7
 10
-280.86491502521028
 20
50.895783354937102
 30
0.0
 40
1.0
 50
90.0
 51
180.0
  0
ARC
  5
561
  8
0
  6
CONTINUOUS
 62
     7
 10
-293.86491502520852
 20
50.895783354937102
 30
0.0
 40
1.0
 50
0.0
 51
90.0
  0
ARC
  5
562
  8
0
  6
CONTINUOUS
 62
     7
 10
-291.86491502520852
 20
50.395783354937102
 30
0.0
 40
1.0
 50
180.0
 51
270.0
  0
ARC
  5
563
  8
0
  6
CONTINUOUS
 62
     7
 10
-328.86491502520852
 20
85.895800051319881
 30
0.0
 40
1.0
 50
0.0
 51
89.999043359865325
  0
ARC
  5
564
  8
0
  6
CONTINUOUS
 62
     7
 10
-329.36491502520852
 20
87.895808399859163
 30
0.0
 40
1.0
 50
180.0
 51
269.99904335986531
  0
ARC
  5
565
  8
0
  6
CONTINUOUS
 62
     7
 10
-329.36491502520852
 20
96.895808399578115
 30
0.0
 40
1.000000000000234
 50
89.999043359865325
 51
180.0
  0
ARC
  5
566
  8
0
  6
CONTINUOUS
 62
     7
 10
-328.86491502520852
 20
98.895800051597291
 30
0.0
 40
0.9999999999975056
 50
269.99904335986531
 51
0.0
  0
ARC
  5
567
  8
0
  6
CONTINUOUS
 62
     7
 10
-329.36491502520943
 20
96.894510585582367
 30
0.0
 40
1.0
 50
89.999999999947889
 51
180.0
  0
ARC
  5
568
  8
0
  6
CONTINUOUS
 62
     7
 10
-329.36491502520943
 20
87.894510585582367
 30
0.0
 40
1.0
 50
180.0
 51
270.00000000005213
  0
ARC
  5
569
  8
0
  6
CONTINUOUS
 62
     7
 10
-291.86618779456501
 20
50.395783354937102
 30
0.0
 40
1.0
 50
179.99999999989581
 51
270.0
  0
ARC
  5
56A
  8
0
  6
CONTINUOUS
 62
     7
 10
-283.96438170524641
 20
51.795110585948848
 30
0.0
 40
1.0
 50
270.0
 51
0.0
  0
ARC
  5
56B
  8
0
  6
CONTINUOUS
 62
     7
 10
-290.76665443405352
 20
51.795110585948848
 30
0.0
 40
1.0
 50
180.0
 51
270.0
  0
ARC
  5
56C
  8
0
  6
CONTINUOUS
 62
     7
 10
-294.86605138961829
 20
51.5780561432544
 30
0.0
 40
2.0000000000018181
 50
0.0
 51
79.586535824903052
  0
ARC
  5
56D
  8
0
  6
CONTINUOUS
 62
     7
 10
-306.26202071008532
 20
128.21614519162591
 30
0.0
 40
0.4999999999989364
 50
22.50000000001754
 51
117.81539124173111
  0
ARC
  5
56E
  8
0
  6
CONTINUOUS
 62
     7
 10
-299.33305528650442
 20
131.0865873659464
 30
0.0
 40
0.4999999999998866
 50
107.1898418199371
 51
202.4999999999711
  0
ARC
  5
56F
  8
0
  6
CONTINUOUS
 62
     7
 10
-275.394422156426
 20
131.0865873659464
 30
0.0
 40
0.499999999999744
 50
337.50000000003138
 51
72.810158180062956
  0
ARC
  5
570
  8
0
  6
CONTINUOUS
 62
     7
 10
-268.46545673284419
 20
128.21614519162591
 30
0.0
 40
0.4999999999991475
 50
62.18460875845328
 51
157.50000000006219
  0
ARC
  5
571
  8
0
  6
CONTINUOUS
 62
     7
 10
299.18718349695462
 20
199.7558000000042
 30
0.0
 40
0.75
 50
180.0
 51
270.0
  0
ARC
  5
572
  8
0
  6
CONTINUOUS
 62
     7
 10
299.18718349695462
 20
199.99439567725921
 30
0.0
 40
0.7499999999989023
 50
111.42200250271991
 51
180.0
  0
ARC
  5
573
  8
0
  6
CONTINUOUS
 62
     7
 10
-31.880584597132131
 20
199.9945400858841
 30
0.0
 40
0.7499999999989023
 50
111.42200250271981
 51
180.0
  0
ARC
  5
574
  8
0
  6
CONTINUOUS
 62
     7
 10
-31.880584597132131
 20
199.7559444086292
 30
0.0
 40
0.75
 50
180.0
 51
270.0
  0
ARC
  5
575
  8
0
  6
CONTINUOUS
 62
     7
 10
-277.61265113971149
 20
199.7559444086281
 30
0.0
 40
0.75
 50
180.0
 51
270.0
  0
ARC
  5
576
  8
0
  6
CONTINUOUS
 62
     7
 10
-277.61265113971149
 20
199.9945400858831
 30
0.0
 40
0.7499999999989079
 50
111.4220025027151
 51
180.0
  0
ARC
  5
577
  8
0
  6
CONTINUOUS
 62
     7
 10
-66.754731399579398
 20
191.39594440863229
 30
0.0
 40
1.5
 50
90.0
 51
178.32516200947029
  0
ARC
  5
578
  8
0
  6
CONTINUOUS
 62
     7
 10
-13.732848482628629
 20
191.39594440863229
 30
0.0
 40
1.5
 50
0.0
 51
89.999999999999602
  0
ARC
  5
579
  8
0
  6
CONTINUOUS
 62
     7
 10
-352.1649150252095
 20
108.89578335493709
 30
0.0
 40
0.5
 50
90.0
 51
180.0
  0
ARC
  5
57A
  8
0
  6
CONTINUOUS
 62
     7
 10
-352.1649150252095
 20
75.895783354937109
 30
0.0
 40
0.5
 50
180.0
 51
270.0
  0
ARC
  5
57B
  8
0
  6
CONTINUOUS
 62
     7
 10
-303.8649150252084
 20
27.59578335493693
 30
0.0
 40
0.5
 50
180.0
 51
270.0
  0
ARC
  5
57C
  8
0
  6
CONTINUOUS
 62
     7
 10
-270.8649150252084
 20
27.59578335493693
 30
0.0
 40
0.5
 50
270.0
 51
0.0
  0
ARC
  5
57D
  8
0
  6
CONTINUOUS
 62
     7
 10
-254.27623989061601
 20
27.895783354937109
 30
0.0
 40
0.5000000000005827
 50
209.9999999999614
 51
270.0
  0
ARC
  5
57E
  8
0
  6
CONTINUOUS
 62
     7
 10
-244.8649150252084
 20
27.895783354937109
 30
0.0
 40
0.5
 50
270.0
 51
0.0
  0
ARC
  5
57F
  8
0
  6
CONTINUOUS
 62
     7
 10
-320.4535901598037
 20
27.895783354937109
 30
0.0
 40
0.5
 50
270.0
 51
329.99999999999301
  0
ARC
  5
580
  8
0
  6
CONTINUOUS
 62
     7
 10
-329.86491502520829
 20
27.895783354937109
 30
0.0
 40
0.5
 50
180.0
 51
270.0
  0
ARC
  5
581
  8
0
  6
CONTINUOUS
 62
     7
 10
-347.13373360574752
 20
120.39021718537479
 30
0.0
 40
0.4999999999996189
 50
273.49999999993378
 51
334.90261522010059
  0
ARC
  5
582
  8
0
  6
CONTINUOUS
 62
     7
 10
-348.80444886128572
 20
116.5035348470543
 30
0.0
 40
0.4999999999997281
 50
338.57586398145997
 51
86.499999999962199
  0
ARC
  5
583
  8
0
  6
CONTINUOUS
 62
     7
 10
-349.27833143442939
 20
115.2590479630031
 30
0.0
 40
0.4999999999987252
 50
273.49999999994009
 51
339.73191946145153
  0
ARC
  5
584
  8
0
  6
CONTINUOUS
 62
     7
 10
-350.50684933194941
 20
111.6076581203866
 30
0.0
 40
0.5000000000019886
 50
343.07683519429031
 51
86.500000000053362
  0
ARC
  5
585
  8
0
  6
CONTINUOUS
 62
     7
 10
-350.50684933194941
 20
73.183908589490372
 30
0.0
 40
0.5000000000014663
 50
273.49999999992741
 51
16.92316480550873
  0
ARC
  5
586
  8
0
  6
CONTINUOUS
 62
     7
 10
-349.27328550218118
 20
69.532210124434229
 30
0.0
 40
0.4999999999992006
 50
20.269849444312442
 51
86.500000000072816
  0
ARC
  5
587
  8
0
  6
CONTINUOUS
 62
     7
 10
-348.40759200565742
 20
67.31230466793528
 30
0.0
 40
0.4999999999987984
 50
273.50000000005059
 51
22.338597907632259
  0
ARC
  5
588
  8
0
  6
CONTINUOUS
 62
     7
 10
-346.64030474739582
 20
63.371170122665312
 30
0.0
 40
0.5000000000022675
 50
26.08900729325806
 51
86.499999999955776
  0
ARC
  5
589
  8
0
  6
CONTINUOUS
 62
     7
 10
-345.41666542664723
 20
60.995237574187328
 30
0.0
 40
0.5000000000023777
 50
273.49999999992758
 51
28.409225847312719
  0
ARC
  5
58A
  8
0
  6
CONTINUOUS
 62
     7
 10
-342.83951522378158
 20
56.638703876760289
 30
0.0
 40
0.5000000000007122
 50
32.8044798860155
 51
86.499999999962114
  0
ARC
  5
58B
  8
0
  6
CONTINUOUS
 62
     7
 10
-341.2260085466549
 20
54.251549129118352
 30
0.0
 40
0.5000000000006
 50
273.5000000000249
 51
35.305989880752207
  0
ARC
  5
58C
  8
0
  6
CONTINUOUS
 62
     7
 10
-337.35526964923139
 20
49.303273047872203
 30
0.0
 40
0.4999999999999157
 50
40.761880530016953
 51
86.500000000079154
  0
ARC
  5
58D
  8
0
  6
CONTINUOUS
 62
     7
 10
-315.35934885564689
 20
32.6269647743989
 30
0.0
 40
0.4999999999997015
 50
3.500000000142109
 51
64.902615220025567
  0
ARC
  5
58E
  8
0
  6
CONTINUOUS
 62
     7
 10
-311.47266651732548
 20
30.956249518862521
 30
0.0
 40
0.4999999999997248
 50
68.575863981459889
 51
176.50000000007989
  0
ARC
  5
58F
  8
0
  6
CONTINUOUS
 62
     7
 10
-310.22817963327623
 20
30.482366945716919
 30
0.0
 40
0.5000000000006687
 50
3.49999999992691
 51
69.731919461180667
  0
ARC
  5
590
  8
0
  6
CONTINUOUS
 62
     7
 10
-306.57678979065781
 20
29.253849048197068
 30
0.0
 40
0.4999999999999451
 50
73.076835194322868
 51
176.50000000006551
  0
ARC
  5
591
  8
0
  6
CONTINUOUS
 62
     7
 10
-268.15304025976172
 20
29.253849048197068
 30
0.0
 40
0.4999999999996474
 50
3.4999999999340701
 51
106.9231648056584
  0
ARC
  5
592
  8
0
  6
CONTINUOUS
 62
     7
 10
-264.50165041714342
 20
30.482366945716919
 30
0.0
 40
0.5000000000000191
 50
110.2680805386055
 51
176.50000000007819
  0
ARC
  5
593
  8
0
  6
CONTINUOUS
 62
     7
 10
-263.25716353309218
 20
30.956249518862521
 30
0.0
 40
0.4999999999995905
 50
3.499999999934059
 51
111.42413601883121
  0
ARC
  5
594
  8
0
  6
CONTINUOUS
 62
     7
 10
-259.3704811947735
 20
32.6269647743989
 30
0.0
 40
0.4999999999989094
 50
115.0973847795084
 51
176.4999999998391
  0
ARC
  5
595
  8
0
  6
CONTINUOUS
 62
     7
 10
-227.59609644467201
 20
64.40134952450039
 30
0.0
 40
0.4999999999996437
 50
93.499999999927155
 51
154.90261522002561
  0
ARC
  5
596
  8
0
  6
CONTINUOUS
 62
     7
 10
-225.92538118913379
 20
68.288031862819977
 30
0.0
 40
0.5000000000007776
 50
158.57586398117141
 51
266.49999999995248
  0
ARC
  5
597
  8
0
  6
CONTINUOUS
 62
     7
 10
-225.4514986159864
 20
69.532518746871162
 30
0.0
 40
0.5000000000007789
 50
93.500000000346674
 51
159.7319194614534
  0
ARC
  5
598
  8
0
  6
CONTINUOUS
 62
     7
 10
-224.22298071846839
 20
73.183908589490372
 30
0.0
 40
0.4999999999996332
 50
163.07683519442779
 51
266.49999999987432
  0
ARC
  5
599
  8
0
  6
CONTINUOUS
 62
     7
 10
-224.22298071846839
 20
111.6076581203866
 30
0.0
 40
0.4999999999988346
 50
93.500000000144937
 51
196.92316480577321
  0
ARC
  5
59A
  8
0
  6
CONTINUOUS
 62
     7
 10
-225.45654454823841
 20
115.2593565854409
 30
0.0
 40
0.5000000000000657
 50
200.26984944427059
 51
266.50000000007577
  0
ARC
  5
59B
  8
0
  6
CONTINUOUS
 62
     7
 10
-226.3222380447622
 20
117.47926204193899
 30
0.0
 40
0.5000000000014883
 50
93.500000000021913
 51
202.3385979075191
  0
ARC
  5
59C
  8
0
  6
CONTINUOUS
 62
     7
 10
-228.08952530302381
 20
121.4203965872089
 30
0.0
 40
0.4999999999989205
 50
206.08900729344501
 51
266.49999999996868
  0
ARC
  5
59D
  8
0
  6
CONTINUOUS
 62
     7
 10
-229.31316462377049
 20
123.7963291356906
 30
0.0
 40
0.4999999999987447
 50
93.499999999949793
 51
208.4092258476831
  0
ARC
  5
59E
  8
0
  6
CONTINUOUS
 62
     7
 10
-231.89031482663799
 20
128.15286283311389
 30
0.0
 40
0.5000000000001608
 50
212.80447988592351
 51
266.49999999996538
  0
ARC
  5
59F
  8
0
  6
CONTINUOUS
 62
     7
 10
-233.50382150376561
 20
130.54001758075771
 30
0.0
 40
0.4999999999995616
 50
93.499999999826585
 51
215.30598988098669
  0
ARC
  5
5A0
  8
0
  6
CONTINUOUS
 62
     7
 10
-237.3745604011863
 20
135.48829366200209
 30
0.0
 40
0.5000000000007873
 50
220.76188052979859
 51
266.49999999984601
  0
ARC
  5
5A1
  8
0
  6
CONTINUOUS
 62
     7
 10
-223.72726893423521
 20
109.89578335493709
 30
0.0
 40
0.5000000000007298
 50
195.37595604433531
 51
270.0
  0
ARC
  5
5A2
  8
0
  6
CONTINUOUS
 62
     7
 10
-223.72726893423521
 20
74.895783354937095
 30
0.0
 40
0.5
 50
90.0
 51
164.62404395565531
  0
ARC
  5
5A3
  8
0
  6
CONTINUOUS
 62
     7
 10
-351.00256111618347
 20
109.89578335493709
 30
0.0
 40
0.5
 50
270.0
 51
344.6240439556405
  0
ARC
  5
5A4
  8
0
  6
CONTINUOUS
 62
     7
 10
-351.00256111618347
 20
74.895783354937095
 30
0.0
 40
0.4999999999999849
 50
15.375956044368889
 51
90.0
  0
ARC
  5
5A5
  8
0
  6
CONTINUOUS
 62
     7
 10
-304.86491502520829
 20
28.75813726396386
 30
0.0
 40
0.5
 50
0.0
 51
74.624043955723593
  0
ARC
  5
5A6
  8
0
  6
CONTINUOUS
 62
     7
 10
-269.8649150252084
 20
28.75813726396386
 30
0.0
 40
0.4999999999999301
 50
105.3759560443706
 51
180.0
  0
ARC
  5
5A7
  8
0
  6
CONTINUOUS
 62
     7
 10
-351.8649150252084
 20
134.89578335493709
 30
0.0
 40
0.5
 50
90.0
 51
180.0
  0
ARC
  5
5A8
  8
0
  6
CONTINUOUS
 62
     7
 10
-351.8649150252084
 20
125.4844584895323
 30
0.0
 40
0.5
 50
180.0
 51
240.00000000003931
  0
ARC
  5
5A9
  8
0
  6
CONTINUOUS
 62
     7
 10
-314.3649150252084
 20
157.1957833549373
 30
0.0
 40
0.5
 50
90.0
 51
180.0
  0
ARC
  5
5AA
  8
0
  6
CONTINUOUS
 62
     7
 10
-260.3649150252084
 20
157.1957833549373
 30
0.0
 40
0.5
 50
0.0
 51
90.0
  0
ARC
  5
5AB
  8
0
  6
CONTINUOUS
 62
     7
 10
-315.8649150252084
 20
152.46758012466179
 30
0.0
 40
1.000000000000475
 50
209.99999999998411
 51
0.0
  0
ARC
  5
5AC
  8
0
  6
CONTINUOUS
 62
     7
 10
-329.86491502520829
 20
156.89578335493709
 30
0.0
 40
0.5
 50
90.0
 51
180.0
  0
ARC
  5
5AD
  8
0
  6
CONTINUOUS
 62
     7
 10
-320.1535901598034
 20
156.89578335493709
 30
0.0
 40
0.499999999999795
 50
30.000000000013571
 51
90.0
  0
ARC
  5
5AE
  8
0
  6
CONTINUOUS
 62
     7
 10
-258.8649150252084
 20
152.46758012466179
 30
0.0
 40
1.0
 50
180.0
 51
329.99999999998971
  0
ARC
  5
5AF
  8
0
  6
CONTINUOUS
 62
     7
 10
-254.57623989061341
 20
156.89578335493709
 30
0.0
 40
0.5
 50
90.0
 51
150.00000000004511
  0
ARC
  5
5B0
  8
0
  6
CONTINUOUS
 62
     7
 10
-244.8649150252084
 20
156.89578335493709
 30
0.0
 40
0.5
 50
0.0
 51
90.0
  0
ARC
  5
5B1
  8
0
  6
CONTINUOUS
 62
     7
 10
-222.56491502521001
 20
108.89578335493709
 30
0.0
 40
0.5
 50
0.0
 51
90.0
  0
ARC
  5
5B2
  8
0
  6
CONTINUOUS
 62
     7
 10
-222.56491502521001
 20
75.895783354937109
 30
0.0
 40
0.5
 50
270.0
 51
0.0
  0
ARC
  5
5B3
  8
0
  6
CONTINUOUS
 62
     7
 10
-222.8649150252084
 20
49.895783354937102
 30
0.0
 40
0.5
 50
270.0
 51
0.0
  0
ARC
  5
5B4
  8
0
  6
CONTINUOUS
 62
     7
 10
-222.8649150252084
 20
59.30710822034375
 30
0.0
 40
0.5
 50
0.0
 51
59.999999999989697
  0
ARC
  5
5B5
  8
0
  6
CONTINUOUS
 62
     7
 10
327.96293386052599
 20
121.0243193124559
 30
0.0
 40
2.99999999999894
 50
36.614461352924359
 51
135.0
  0
ARC
  5
5B6
  8
0
  6
CONTINUOUS
 62
     7
 10
318.06343892391362
 20
130.9238142490683
 30
0.0
 40
2.999999999999782
 50
314.99999999998619
 51
53.385538647078683
  0
ARC
  5
5B7
  8
0
  6
CONTINUOUS
 62
     7
 10
327.96293386052599
 20
63.76728068754506
 30
0.0
 40
3.0000000000005058
 50
225.0
 51
323.38553864706171
  0
ARC
  5
5B8
  8
0
  6
CONTINUOUS
 62
     7
 10
318.06343892391362
 20
53.867785750932633
 30
0.0
 40
2.9999999999996532
 50
306.61446135291152
 51
45.000000000013721
  0
ARC
  5
5B9
  8
0
  6
CONTINUOUS
 62
     7
 10
311.72320796416312
 20
80.007006583906104
 30
0.0
 40
3.0000000000000111
 50
150.9328038152953
 51
224.9999999999992
  0
ARC
  5
5BA
  8
0
  6
CONTINUOUS
 62
     7
 10
301.82371302755161
 20
70.107511647294601
 30
0.0
 40
2.9999999999992211
 50
45.0
 51
119.06719618472179
  0
ARC
  5
5BB
  8
0
  6
CONTINUOUS
 62
     7
 10
301.82371302755161
 20
114.6840883527054
 30
0.0
 40
2.9999999999995861
 50
240.9328038152691
 51
314.99999999998772
  0
ARC
  5
5BC
  8
0
  6
CONTINUOUS
 62
     7
 10
311.72320796416312
 20
104.7845934160939
 30
0.0
 40
2.9999999999999041
 50
134.99999999998849
 51
209.06719618471959
  0
ARC
  5
5BD
  8
0
  6
CONTINUOUS
 62
     7
 10
250.90690536238941
 20
121.0243193124559
 30
0.0
 40
3.0000000000005058
 50
45.0
 51
143.38553864707589
  0
ARC
  5
5BE
  8
0
  6
CONTINUOUS
 62
     7
 10
260.80640029900269
 20
130.9238142490683
 30
0.0
 40
2.9999999999995728
 50
126.614461352937
 51
225.0
  0
ARC
  5
5BF
  8
0
  6
CONTINUOUS
 62
     7
 10
250.90690536238941
 20
63.76728068754506
 30
0.0
 40
2.999999999999504
 50
216.61446135293801
 51
315.0
  0
ARC
  5
5C0
  8
0
  6
CONTINUOUS
 62
     7
 10
260.80640029900269
 20
53.867785750932633
 30
0.0
 40
3.0000000000005009
 50
135.00000000000011
 51
233.38553864707279
  0
ARC
  5
5C1
  8
0
  6
CONTINUOUS
 62
     7
 10
267.14663125875228
 20
80.007006583906104
 30
0.0
 40
2.999999999999261
 50
315.00000000000068
 51
29.067196184705729
  0
ARC
  5
5C2
  8
0
  6
CONTINUOUS
 62
     7
 10
277.04612619536471
 20
70.107511647294601
 30
0.0
 40
2.9999999999999472
 50
60.93280381529528
 51
135.00000000001231
  0
ARC
  5
5C3
  8
0
  6
CONTINUOUS
 62
     7
 10
277.04612619536471
 20
114.6840883527054
 30
0.0
 40
3.0000000000005058
 50
225.0
 51
299.06719618471379
  0
ARC
  5
5C4
  8
0
  6
CONTINUOUS
 62
     7
 10
267.14663125875228
 20
104.7845934160939
 30
0.0
 40
3.0000000000003459
 50
330.93280381527933
 51
45.000000000011511
  0
ARC
  5
5C5
  8
0
  6
CONTINUOUS
 62
     7
 10
-312.38748823365842
 20
191.39594440863121
 30
0.0
 40
1.5
 50
90.0
 51
179.1768414166321
  0
ARC
  5
5C6
  8
0
  6
CONTINUOUS
 62
     7
 10
-262.3446944206114
 20
191.39594440863121
 30
0.0
 40
1.4999999999995901
 50
0.8231585833678599
 51
90.0
  0
ARC
  5
5C7
  8
0
  6
CONTINUOUS
 62
     7
 10
264.41352270493331
 20
191.39580000000731
 30
0.0
 40
1.5
 50
90.0
 51
179.17684141663219
  0
ARC
  5
5C8
  8
0
  6
CONTINUOUS
 62
     7
 10
314.4563165179822
 20
191.39580000000731
 30
0.0
 40
1.4999999999995339
 50
0.8231585833678899
 51
90.0
  0
ENDSEC
  0
EOF
