  0
SECTION
  2
HEADER
  9
$ACADVER
  1
AC1009
  9
$INSBASE
 10
0.0
 20
0.0
 30
0.0
  9
$EXTMIN
 10
-355.1649150252095
 20
-162.408535700291
 30
0.0
  9
$EXTMAX
 10
357.43491961145759
 20
212.9259444086255
 30
0.0
  9
$LIMMIN
 10
0.0
 20
0.0
  9
$LIMMAX
 10
12.0
 20
9.0
  9
$ORTHOMODE
 70
     0
  9
$REGENMODE
 70
     1
  9
$FILLMODE
 70
     1
  9
$QTEXTMODE
 70
     0
  9
$MIRRTEXT
 70
     1
  9
$DRAGMODE
 70
     2
  9
$LTSCALE
 40
1.0
  9
$OSMODE
 70
   175
  9
$ATTMODE
 70
     1
  9
$TEXTSIZE
 40
0.2
  9
$TRACEWID
 40
0.05
  9
$TEXTSTYLE
  7
STANDARD
  9
$CLAYER
  8
0
  9
$CELTYPE
  6
BYLAYER
  9
$CECOLOR
 62
   256
  9
$DIMSCALE
 40
1.0
  9
$DIMASZ
 40
0.18
  9
$DIMEXO
 40
0.0625
  9
$DIMDLI
 40
0.38
  9
$DIMRND
 40
0.0
  9
$DIMDLE
 40
0.0
  9
$DIMEXE
 40
0.18
  9
$DIMTP
 40
0.0
  9
$DIMTM
 40
0.0
  9
$DIMTXT
 40
0.18
  9
$DIMCEN
 40
0.09
  9
$DIMTSZ
 40
0.0
  9
$DIMTOL
 70
     0
  9
$DIMLIM
 70
     0
  9
$DIMTIH
 70
     1
  9
$DIMTOH
 70
     1
  9
$DIMSE1
 70
     0
  9
$DIMSE2
 70
     0
  9
$DIMTAD
 70
     0
  9
$DIMZIN
 70
     0
  9
$DIMBLK
  1

  9
$DIMASO
 70
     1
  9
$DIMSHO
 70
     1
  9
$DIMPOST
  1

  9
$DIMAPOST
  1

  9
$DIMALT
 70
     0
  9
$DIMALTD
 70
     2
  9
$DIMALTF
 40
25.399999999999999
  9
$DIMLFAC
 40
1.0
  9
$DIMTOFL
 70
     0
  9
$DIMTVP
 40
0.0
  9
$DIMTIX
 70
     0
  9
$DIMSOXD
 70
     0
  9
$DIMSAH
 70
     0
  9
$DIMBLK1
  1

  9
$DIMBLK2
  1

  9
$DIMSTYLE
  2
STANDARD
  9
$DIMCLRD
 70
     0
  9
$DIMCLRE
 70
     0
  9
$DIMCLRT
 70
     0
  9
$DIMTFAC
 40
1.0
  9
$DIMGAP
 40
0.09
  9
$LUNITS
 70
     2
  9
$LUPREC
 70
     4
  9
$SKETCHINC
 40
0.1
  9
$FILLETRAD
 40
0.5
  9
$AUNITS
 70
     0
  9
$AUPREC
 70
     0
  9
$MENU
  1
.
  9
$ELEVATION
 40
0.0
  9
$PELEVATION
 40
0.0
  9
$THICKNESS
 40
0.0
  9
$LIMCHECK
 70
     0
  9
$BLIPMODE
 70
     0
  9
$CHAMFERA
 40
0.5
  9
$CHAMFERB
 40
0.5
  9
$SKPOLY
 70
     0
  9
$TDCREATE
 40
2457042.3735632412
  9
$TDUPDATE
 40
2457100.4390550121
  9
$TDINDWG
 40
0.0090818519
  9
$TDUSRTIMER
 40
0.0090813079
  9
$USRTIMER
 70
     1
  9
$ANGBASE
 50
0.0
  9
$ANGDIR
 70
     0
  9
$PDMODE
 70
     0
  9
$PDSIZE
 40
0.0
  9
$PLINEWID
 40
0.0
  9
$COORDS
 70
     1
  9
$SPLFRAME
 70
     0
  9
$SPLINETYPE
 70
     6
  9
$SPLINESEGS
 70
     8
  9
$ATTDIA
 70
     0
  9
$ATTREQ
 70
     1
  9
$HANDLING
 70
     1
  9
$HANDSEED
  5
92E
  9
$SURFTAB1
 70
     6
  9
$SURFTAB2
 70
     6
  9
$SURFTYPE
 70
     6
  9
$SURFU
 70
     6
  9
$SURFV
 70
     6
  9
$UCSNAME
  2

  9
$UCSORG
 10
0.0
 20
0.0
 30
0.0
  9
$UCSXDIR
 10
1.0
 20
0.0
 30
0.0
  9
$UCSYDIR
 10
0.0
 20
1.0
 30
0.0
  9
$PUCSNAME
  2

  9
$PUCSORG
 10
0.0
 20
0.0
 30
0.0
  9
$PUCSXDIR
 10
1.0
 20
0.0
 30
0.0
  9
$PUCSYDIR
 10
0.0
 20
1.0
 30
0.0
  9
$USERI1
 70
     0
  9
$USERI2
 70
     0
  9
$USERI3
 70
     0
  9
$USERI4
 70
     0
  9
$USERI5
 70
     0
  9
$USERR1
 40
18.100000000000001
  9
$USERR2
 40
0.0
  9
$USERR3
 40
0.0
  9
$USERR4
 40
0.0
  9
$USERR5
 40
0.0
  9
$WORLDVIEW
 70
     1
  9
$SHADEDGE
 70
     3
  9
$SHADEDIF
 70
    70
  9
$TILEMODE
 70
     1
  9
$MAXACTVP
 70
    64
  9
$PLIMCHECK
 70
     0
  9
$PEXTMIN
 10
1.0000000000000000E+020
 20
1.0000000000000000E+020
 30
1.0000000000000000E+020
  9
$PEXTMAX
 10
-1.0000000000000000E+020
 20
-1.0000000000000000E+020
 30
-1.0000000000000000E+020
  9
$PLIMMIN
 10
0.0
 20
0.0
  9
$PLIMMAX
 10
12.0
 20
9.0
  9
$UNITMODE
 70
     0
  9
$VISRETAIN
 70
     1
  9
$PLINEGEN
 70
     0
  9
$PSLTSCALE
 70
     1
  0
ENDSEC
  0
SECTION
  2
TABLES
  0
TABLE
  2
VPORT
 70
     1
  0
VPORT
  2
*ACTIVE
 70
     0
 10
0.0
 20
0.0
 11
1.0
 21
1.0
 12
1.151443442821289
 22
25.267440521363032
 13
0.0
 23
0.0
 14
0.5
 24
0.5
 15
0.5
 25
0.5
 16
0.0
 26
0.0
 36
1.0
 17
0.0
 27
0.0
 37
0.0
 40
378.2184968985224
 41
2.0238693467336679
 42
50.0
 43
0.0
 44
0.0
 50
0.0
 51
0.0
 71
     0
 72
   100
 73
     1
 74
     2
 75
     0
 76
     0
 77
     0
 78
     0
  0
ENDTAB
  0
TABLE
  2
LTYPE
 70
     3
  0
LTYPE
  2
CONTINUOUS
 70
     0
  3
Solid line
 72
    65
 73
     0
 40
0.0
  0
LTYPE
  2
DASHED
 70
     0
  3
Dashed
 72
    65
 73
     2
 40
15.0
 49
7.0
 49
-8.0
  0
LTYPE
  2
DASH_CENTER
 70
     0
  3
Dash_Center
 72
    65
 73
     4
 40
14.0
 49
11.0
 49
-1.0
 49
1.0
 49
-1.0
  0
ENDTAB
  0
TABLE
  2
LAYER
 70
     1
  0
LAYER
  2
0
 70
     0
 62
     7
  6
CONTINUOUS
  0
ENDTAB
  0
TABLE
  2
STYLE
 70
     1
  0
STYLE
  2
STANDARD
 70
     0
 40
0.0
 41
1.0
 50
0.0
 71
     0
 42
0.2
  3
txt
  4

  0
ENDTAB
  0
TABLE
  2
VIEW
 70
     0
  0
ENDTAB
  0
TABLE
  2
UCS
 70
     0
  0
ENDTAB
  0
TABLE
  2
APPID
 70
     3
  0
APPID
  2
ACAD
 70
     0
  0
APPID
  2
ACAD_EXEMPT_FROM_CAD_STANDARDS
 70
     0
  0
APPID
  2
ACAD_MLEADERVER
 70
     0
  0
ENDTAB
  0
TABLE
  2
DIMSTYLE
 70
     1
  0
DIMSTYLE
  2
STANDARD
 70
     0
  3

  4

  5

  6

  7

 40
1.0
 41
0.18
 42
0.0625
 43
0.38
 44
0.18
 45
0.0
 46
0.0
 47
0.0
 48
0.0
140
0.18
141
0.09
142
0.0
143
25.399999999999999
144
1.0
145
0.0
146
1.0
147
0.09
 71
     0
 72
     0
 73
     1
 74
     1
 75
     0
 76
     0
 77
     0
 78
     0
170
     0
171
     2
172
     0
173
     0
174
     0
175
     0
176
     0
177
     0
178
     0
  0
ENDTAB
  0
ENDSEC
  0
SECTION
  2
BLOCKS
  0
BLOCK
  8
0
  2
$MODEL_SPACE
 70
     0
 10
0.0
 20
0.0
 30
0.0
  3
$MODEL_SPACE
  1

  0
ENDBLK
  5
21
  8
0
  0
BLOCK
 67
     1
  8
0
  2
$PAPER_SPACE
 70
     0
 10
0.0
 20
0.0
 30
0.0
  3
$PAPER_SPACE
  1

  0
ENDBLK
  5
1D
 67
     1
  8
0
  0
ENDSEC
  0
SECTION
  2
ENTITIES
  0
LINE
  5
99
  8
0
  6
CONTINUOUS
 62
     7
 10
-79.124131253891491
 20
135.50061570460201
 30
0.0
 11
-84.632857457109935
 21
135.40446053105299
 31
0.0
  0
LINE
  5
9A
  8
0
  6
CONTINUOUS
 62
     7
 10
-88.338093179035354
 20
63.475195774646892
 30
0.0
 11
-79.124131253886972
 21
63.314365470997792
 31
0.0
  0
LINE
  5
9B
  8
0
  6
CONTINUOUS
 62
     7
 10
-84.632857457106311
 20
135.40450754465951
 30
0.0
 11
-84.632857457106311
 21
57.895919137221682
 31
0.0
  0
LINE
  5
9C
  8
0
  6
CONTINUOUS
 62
     7
 10
-115.1328446659446
 20
120.0028425361628
 30
0.0
 11
-93.132857457106283
 21
120.0028425361628
 31
0.0
  0
LINE
  5
9D
  8
0
  6
CONTINUOUS
 62
     7
 10
-121.6328574571063
 20
120.0028425361628
 30
0.0
 11
-115.8328446659453
 21
120.0028425361628
 31
0.0
  0
LINE
  5
9E
  8
0
  6
CONTINUOUS
 62
     7
 10
-115.8328446659453
 20
124.1470815425231
 30
0.0
 11
-121.6328574571063
 21
124.1470815425231
 31
0.0
  0
LINE
  5
9F
  8
0
  6
CONTINUOUS
 62
     7
 10
-88.632857457106297
 20
124.1470815425231
 30
0.0
 11
-115.1328446659446
 21
124.1470815425231
 31
0.0
  0
LINE
  5
A0
  8
0
  6
CONTINUOUS
 62
     7
 10
-115.1328446659446
 20
132.52309169870679
 30
0.0
 11
-88.632857457106297
 21
132.52309169870679
 31
0.0
  0
LINE
  5
A1
  8
0
  6
CONTINUOUS
 62
     7
 10
-115.8328446659453
 20
132.52309169870679
 30
0.0
 11
-121.6328574571063
 21
132.52309169870679
 31
0.0
  0
LINE
  5
A2
  8
0
  6
CONTINUOUS
 62
     7
 10
-88.632857457106297
 20
97.895749484293674
 30
0.0
 11
-115.1328446659446
 21
96.395749484293702
 31
0.0
  0
LINE
  5
A3
  8
0
  6
CONTINUOUS
 62
     7
 10
-115.8328446659453
 20
96.395749484293702
 30
0.0
 11
-121.6328574571063
 21
96.395749484293702
 31
0.0
  0
LINE
  5
A4
  8
0
  6
CONTINUOUS
 62
     7
 10
-94.678811169560646
 20
146.44299836716729
 30
0.0
 11
-94.752935841998024
 21
145.59574948429079
 31
0.0
  0
LINE
  5
A5
  8
0
  6
CONTINUOUS
 62
     7
 10
-94.752935841998024
 20
145.59574948429079
 30
0.0
 11
-89.252935841998024
 21
145.59574948429079
 31
0.0
  0
LINE
  5
A6
  8
0
  6
CONTINUOUS
 62
     7
 10
-89.252935841998024
 20
145.59574948429079
 30
0.0
 11
-89.327060514432674
 21
146.44299836716729
 31
0.0
  0
LINE
  5
A7
  8
0
  6
CONTINUOUS
 62
     7
 10
-106.51293584199639
 20
145.59574948429079
 30
0.0
 11
-106.587060514432
 21
146.44299836716729
 31
0.0
  0
LINE
  5
A8
  8
0
  6
CONTINUOUS
 62
     7
 10
-88.632857457106297
 20
49.467391519297287
 30
0.0
 11
-88.632857457106297
 21
133.39571614172129
 31
0.0
  0
LINE
  5
A9
  8
0
  6
CONTINUOUS
 62
     7
 10
-86.632857457106283
 20
132.93065961414621
 30
0.0
 11
-84.632857457106311
 21
132.8957494842937
 31
0.0
  0
LINE
  5
AA
  8
0
  6
CONTINUOUS
 62
     7
 10
-86.632857457106283
 20
135.43065961414621
 30
0.0
 11
-84.632857457106311
 21
135.3957494842937
 31
0.0
  0
LINE
  5
AB
  8
0
  6
CONTINUOUS
 62
     7
 10
-88.338093179037173
 20
132.90089461390139
 30
0.0
 11
-86.632857457106283
 21
132.93065961414621
 31
0.0
  0
LINE
  5
AC
  8
0
  6
CONTINUOUS
 62
     7
 10
-113.1329358419963
 20
143.09574948429079
 30
0.0
 11
-88.132935841996286
 21
143.09574948429079
 31
0.0
  0
LINE
  5
AD
  8
0
  6
CONTINUOUS
 62
     7
 10
-113.1329358419963
 20
143.09574948429079
 30
0.0
 11
-113.1329358419963
 21
142.3957494842937
 31
0.0
  0
LINE
  5
AF
  8
0
  6
CONTINUOUS
 62
     7
 10
-115.8328446659453
 20
142.3957494842937
 30
0.0
 11
-115.832844665949
 21
49.995749484241401
 31
0.0
  0
LINE
  5
B0
  8
0
  6
DASH_CENTER
 62
     1
 10
-92.002935841996205
 20
139.6957494842911
 30
0.0
 11
-92.002935841996205
 21
148.19574948428931
 31
0.0
  0
LINE
  5
B1
  8
0
  6
DASH_CENTER
 62
     1
 10
-109.26293584199639
 20
148.1957494842911
 30
0.0
 11
-109.2629358419991
 21
139.6957494842911
 31
0.0
  0
LINE
  5
B2
  8
0
  6
CONTINUOUS
 62
     7
 10
-112.01293584199639
 20
145.59574948429079
 30
0.0
 11
-106.51293584199639
 21
145.59574948429079
 31
0.0
  0
LINE
  5
B3
  8
0
  6
CONTINUOUS
 62
     7
 10
-111.9388111695599
 20
146.44299836716729
 30
0.0
 11
-112.01293584199639
 21
145.59574948429079
 31
0.0
  0
LINE
  5
B4
  8
0
  6
CONTINUOUS
 62
     7
 10
-115.1328446659446
 20
49.995749484241401
 30
0.0
 11
-115.1328446659446
 21
142.3957494842937
 31
0.0
  0
LINE
  5
B5
  8
0
  6
CONTINUOUS
 62
     7
 10
-115.8328446659453
 20
142.3957494842937
 30
0.0
 11
-120.91570072514889
 21
141.66962573474049
 31
0.0
  0
LINE
  5
B6
  8
0
  6
CONTINUOUS
 62
     7
 10
-93.232935841998483
 20
152.14574948428739
 30
0.0
 11
-93.232935841999392
 21
147.48683793242461
 31
0.0
  0
LINE
  5
B7
  8
0
  6
CONTINUOUS
 62
     7
 10
-108.03293584199599
 20
147.48683793242461
 30
0.0
 11
-108.0329358419978
 21
152.14574948428739
 31
0.0
  0
LINE
  5
B8
  8
0
  6
CONTINUOUS
 62
     7
 10
-112.3329358419961
 20
145.59574948429079
 30
0.0
 11
-112.3329358419961
 21
143.09574948429079
 31
0.0
  0
LINE
  5
B9
  8
0
  6
CONTINUOUS
 62
     7
 10
-88.932935841998287
 20
145.59574948429079
 30
0.0
 11
-112.3329358419961
 21
145.59574948429079
 31
0.0
  0
LINE
  5
BA
  8
0
  6
CONTINUOUS
 62
     7
 10
-88.932935841998287
 20
143.09574948429079
 30
0.0
 11
-88.932935841998287
 21
145.59574948429079
 31
0.0
  0
LINE
  5
BB
  8
0
  6
CONTINUOUS
 62
     7
 10
-87.632857457106297
 20
142.3957494842937
 30
0.0
 11
-115.1328446659446
 21
142.3957494842937
 31
0.0
  0
LINE
  5
BC
  8
0
  6
CONTINUOUS
 62
     7
 10
-88.132935841996286
 20
142.3957494842937
 30
0.0
 11
-88.132935841996286
 21
143.09574948429079
 31
0.0
  0
LINE
  5
BD
  8
0
  6
CONTINUOUS
 62
     7
 10
-115.1328446659446
 20
142.19574948428931
 30
0.0
 11
-115.8328446659453
 21
142.19574948428931
 31
0.0
  0
LINE
  5
BE
  8
0
  6
CONTINUOUS
 62
     7
 10
-88.632857457106297
 20
133.39571614172129
 30
0.0
 11
-86.832857457106115
 21
133.39571614172129
 31
0.0
  0
LINE
  5
BF
  8
0
  6
CONTINUOUS
 62
     7
 10
-86.632857457106283
 20
141.3957494842937
 30
0.0
 11
-86.632857457106283
 21
133.59571614172299
 31
0.0
  0
LINE
  5
C0
  8
0
  6
CONTINUOUS
 62
     7
 10
-92.782857457105919
 20
120.3957494842937
 30
0.0
 11
-93.132857457106283
 21
120.0457494842925
 31
0.0
  0
LINE
  5
C1
  8
0
  6
CONTINUOUS
 62
     7
 10
-93.132857457106283
 20
113.7457494842913
 30
0.0
 11
-92.782857457105919
 21
113.3957494842937
 31
0.0
  0
LINE
  5
C2
  8
0
  6
CONTINUOUS
 62
     7
 10
-92.782857457105919
 20
120.3957494842937
 30
0.0
 11
-92.782857457105919
 21
113.3957494842937
 31
0.0
  0
LINE
  5
C3
  8
0
  6
CONTINUOUS
 62
     7
 10
-93.132857457106283
 20
113.7457494842913
 30
0.0
 11
-93.132857457106283
 21
120.0457494842925
 31
0.0
  0
LINE
  5
C4
  8
0
  6
CONTINUOUS
 62
     7
 10
-89.132857457106283
 20
113.3957494842937
 30
0.0
 11
-92.782857457105919
 21
113.3957494842937
 31
0.0
  0
LINE
  5
C5
  8
0
  6
CONTINUOUS
 62
     7
 10
-92.782857457105919
 20
120.3957494842937
 30
0.0
 11
-89.132857457106283
 21
120.3957494842937
 31
0.0
  0
LINE
  5
C6
  8
0
  6
CONTINUOUS
 62
     7
 10
-89.132857457106283
 20
112.8957494842937
 30
0.0
 11
-89.132857457106283
 21
120.8957494842937
 31
0.0
  0
LINE
  5
C7
  8
0
  6
DASH_CENTER
 62
     1
 10
-94.132857457106283
 20
116.8957494842937
 30
0.0
 11
-85.632857457106311
 21
116.8957494842937
 31
0.0
  0
LINE
  5
C8
  8
0
  6
CONTINUOUS
 62
     7
 10
-89.132857457106283
 20
120.8957494842937
 30
0.0
 11
-88.632857457106297
 21
120.8957494842937
 31
0.0
  0
LINE
  5
C9
  8
0
  6
CONTINUOUS
 62
     7
 10
-89.132857457106283
 20
112.8957494842937
 30
0.0
 11
-88.632857457106297
 21
112.8957494842937
 31
0.0
  0
LINE
  5
CA
  8
0
  6
CONTINUOUS
 62
     7
 10
-115.1328446659446
 20
88.395749484291898
 30
0.0
 11
-88.632857457106297
 21
86.895749484291883
 31
0.0
  0
LINE
  5
CB
  8
0
  6
CONTINUOUS
 62
     7
 10
-121.6328574571063
 20
88.395749484291898
 30
0.0
 11
-115.8328446659453
 21
88.395749484291898
 31
0.0
  0
LINE
  5
CC
  8
0
  6
CONTINUOUS
 62
     7
 10
-121.6328574571063
 20
49.995749484241401
 30
0.0
 11
-115.8328446659453
 21
49.995749484241401
 31
0.0
  0
LINE
  5
CD
  8
0
  6
CONTINUOUS
 62
     7
 10
-115.832844665949
 20
50.19574948424119
 30
0.0
 11
-115.1328446659446
 21
50.19574948424119
 31
0.0
  0
LINE
  5
CE
  8
0
  6
CONTINUOUS
 62
     7
 10
-79.124131253886972
 20
121.491904657841
 30
0.0
 11
-88.338093179035354
 21
121.33107435419269
 31
0.0
  0
LINE
  5
CF
  8
0
  6
CONTINUOUS
 62
     7
 10
-79.124131253886972
 20
97.991904657841019
 30
0.0
 11
-88.338093179035354
 21
97.831074354192708
 31
0.0
  0
LINE
  5
D0
  8
0
  6
CONTINUOUS
 62
     7
 10
-88.338093179035354
 20
86.960424614392878
 30
0.0
 11
-79.124131253886972
 21
86.799594310742918
 31
0.0
  0
LINE
  5
D1
  8
0
  6
CONTINUOUS
 62
     7
 10
-84.632857457109935
 20
49.387050338056973
 30
0.0
 11
-79.124131253891491
 21
49.29089516450798
 31
0.0
  0
LINE
  5
D2
  8
0
  6
CONTINUOUS
 62
     7
 10
-84.632857457109935
 20
49.395777870521087
 30
0.0
 11
-86.632857457109907
 21
49.360867740663913
 31
0.0
  0
LINE
  5
D3
  8
0
  6
CONTINUOUS
 62
     7
 10
-86.632857457109907
 20
49.360867740663913
 30
0.0
 11
-88.338093179041707
 21
49.390632740907989
 31
0.0
  0
LINE
  5
D4
  8
0
  6
CONTINUOUS
 62
     7
 10
-115.13285745710991
 20
49.995750964533983
 30
0.0
 11
-88.632857457109921
 21
49.467391519299177
 31
0.0
  0
LINE
  5
D5
  8
0
  6
CONTINUOUS
 62
     7
 10
-122.6328574571063
 20
50.995749484241401
 30
0.0
 11
-122.6328574571063
 21
139.68972682678691
 31
0.0
  0
LINE
  5
D6
  8
0
  6
CONTINUOUS
 62
     7
 10
-108.03285745710591
 20
152.14577894135641
 30
0.0
 11
-93.232857457104828
 21
152.14577894135641
 31
0.0
  0
LINE
  5
D7
  8
0
  6
DASH_CENTER
 62
     1
 10
-100.6329358419963
 20
131.94539165234639
 30
0.0
 11
-100.6329358419963
 21
154.34201703752049
 31
0.0
  0
LINE
  5
D8
  8
0
  6
CONTINUOUS
 62
     7
 10
-84.632857457106311
 20
126.895638745494
 30
0.0
 11
-84.632857457106311
 21
49.387050338056973
 31
0.0
  0
LINE
  5
D9
  8
0
  6
CONTINUOUS
 62
     7
 10
-89.132857457106283
 20
63.89574957563979
 30
0.0
 11
-88.632857457106297
 21
63.89574957563979
 31
0.0
  0
LINE
  5
DA
  8
0
  6
CONTINUOUS
 62
     7
 10
-89.132857457106283
 20
71.895749575639798
 30
0.0
 11
-88.632857457106297
 21
71.895749575639798
 31
0.0
  0
LINE
  5
DB
  8
0
  6
CONTINUOUS
 62
     7
 10
-89.132857457106283
 20
63.89574957563979
 30
0.0
 11
-89.132857457106283
 21
71.895749575639798
 31
0.0
  0
LINE
  5
DC
  8
0
  6
CONTINUOUS
 62
     7
 10
-92.782857457105919
 20
71.395749575639783
 30
0.0
 11
-89.132857457106283
 21
71.395749575639783
 31
0.0
  0
LINE
  5
DD
  8
0
  6
CONTINUOUS
 62
     7
 10
-89.132857457106283
 20
64.395749575639798
 30
0.0
 11
-92.782857457105919
 21
64.395749575639798
 31
0.0
  0
LINE
  5
DE
  8
0
  6
CONTINUOUS
 62
     7
 10
-93.132857457106283
 20
64.745749575637291
 30
0.0
 11
-93.132857457106283
 21
71.045749575637601
 31
0.0
  0
LINE
  5
DF
  8
0
  6
CONTINUOUS
 62
     7
 10
-92.782857457105919
 20
71.395749575639783
 30
0.0
 11
-92.782857457105919
 21
64.395749575639798
 31
0.0
  0
LINE
  5
E0
  8
0
  6
CONTINUOUS
 62
     7
 10
-93.132857457106283
 20
64.745749575637291
 30
0.0
 11
-92.782857457105919
 21
64.395749575639798
 31
0.0
  0
LINE
  5
E1
  8
0
  6
CONTINUOUS
 62
     7
 10
-92.782857457105919
 20
71.395749575639783
 30
0.0
 11
-93.132857457106283
 21
71.045749575637601
 31
0.0
  0
LINE
  5
E2
  8
0
  6
DASH_CENTER
 62
     1
 10
-94.132857457106283
 20
67.895749575639798
 30
0.0
 11
-85.632857457106311
 21
67.895749575639798
 31
0.0
  0
LINE
  5
E3
  8
0
  6
CONTINUOUS
 62
     7
 10
-79.12413125388332
 20
133.00850220116749
 30
0.0
 11
-84.632857457106311
 21
132.9123470276175
 31
0.0
  0
LINE
  5
E4
  8
0
  6
CONTINUOUS
 62
     7
 10
-84.632857457106311
 20
51.894891962692178
 30
0.0
 11
-79.12413125388332
 21
51.79873678914219
 31
0.0
  0
LINE
  5
E5
  8
0
  6
CONTINUOUS
 62
     7
 10
-86.632857457106283
 20
51.876579376162482
 30
0.0
 11
-88.338093179037173
 21
51.906344376405599
 31
0.0
  0
LINE
  5
E6
  8
0
  6
CONTINUOUS
 62
     7
 10
-84.632857457106311
 20
51.911489506014988
 30
0.0
 11
-86.632857457106283
 21
51.876579376162482
 31
0.0
  0
LINE
  5
E7
  8
0
  6
CONTINUOUS
 62
     7
 10
-88.338093179035354
 20
63.460483528522992
 30
0.0
 11
-83.132857457039904
 21
63.369625801030722
 31
0.0
  0
LINE
  5
E8
  8
0
  6
DASH_CENTER
 62
     1
 10
-278.73491502520949
 20
139.69578335498639
 30
0.0
 11
-278.73491502520949
 21
148.19578335498639
 31
0.0
  0
LINE
  5
E9
  8
0
  6
DASH_CENTER
 62
     1
 10
-295.99491502520971
 20
148.19578335498639
 30
0.0
 11
-295.99491502521238
 21
139.69578335498639
 31
0.0
  0
LINE
  5
EA
  8
0
  6
CONTINUOUS
 62
     7
 10
-274.86491502520869
 20
142.3957833549899
 30
0.0
 11
-274.86491502520869
 21
143.0957833549879
 31
0.0
  0
LINE
  5
EB
  8
0
  6
CONTINUOUS
 62
     7
 10
-275.66491502521069
 20
143.0957833549879
 30
0.0
 11
-275.66491502521069
 21
145.5957833549879
 31
0.0
  0
LINE
  5
EC
  8
0
  6
CONTINUOUS
 62
     7
 10
-275.66491502521069
 20
145.5957833549879
 30
0.0
 11
-299.06491502520851
 21
145.5957833549879
 31
0.0
  0
LINE
  5
ED
  8
0
  6
CONTINUOUS
 62
     7
 10
-299.06491502520851
 20
145.5957833549879
 30
0.0
 11
-299.06491502520851
 21
143.0957833549879
 31
0.0
  0
LINE
  5
EE
  8
0
  6
CONTINUOUS
 62
     7
 10
-294.76491502521009
 20
147.48687180312081
 30
0.0
 11
-294.76491502521009
 21
152.14578335498439
 31
0.0
  0
LINE
  5
EF
  8
0
  6
CONTINUOUS
 62
     7
 10
-294.76491502521009
 20
152.14578335498439
 30
0.0
 11
-279.96491502521178
 21
152.14578335498439
 31
0.0
  0
LINE
  5
F0
  8
0
  6
CONTINUOUS
 62
     7
 10
-279.96491502521178
 20
152.14578335498439
 30
0.0
 11
-279.96491502521269
 21
147.48687180312081
 31
0.0
  0
LINE
  5
F1
  8
0
  6
CONTINUOUS
 62
     7
 10
-298.67079035277419
 20
146.4430322378644
 30
0.0
 11
-298.74491502520971
 21
145.5957833549879
 31
0.0
  0
LINE
  5
F2
  8
0
  6
CONTINUOUS
 62
     7
 10
-298.74491502520971
 20
145.5957833549879
 30
0.0
 11
-293.24491502520971
 21
145.5957833549879
 31
0.0
  0
LINE
  5
F4
  8
0
  6
CONTINUOUS
 62
     7
 10
-299.86491502520869
 20
143.0957833549879
 30
0.0
 11
-299.86491502520869
 21
142.39578335493709
 31
0.0
  0
LINE
  5
F5
  8
0
  6
CONTINUOUS
 62
     7
 10
-299.86491502520869
 20
143.0957833549879
 30
0.0
 11
-274.86491502520869
 21
143.0957833549879
 31
0.0
  0
LINE
  5
F6
  8
0
  6
CONTINUOUS
 62
     7
 10
-293.24491502520971
 20
145.5957833549879
 30
0.0
 11
-293.31903969764528
 21
146.4430322378644
 31
0.0
  0
LINE
  5
F7
  8
0
  6
CONTINUOUS
 62
     7
 10
-275.98491502520949
 20
145.5957833549879
 30
0.0
 11
-276.05903969764512
 21
146.4430322378644
 31
0.0
  0
LINE
  5
F8
  8
0
  6
CONTINUOUS
 62
     7
 10
-281.48491502521131
 20
145.5957833549879
 30
0.0
 11
-275.98491502520949
 21
145.5957833549879
 31
0.0
  0
LINE
  5
F9
  8
0
  6
CONTINUOUS
 62
     7
 10
-281.41079035277482
 20
146.4430322378644
 30
0.0
 11
-281.48491502521131
 21
145.5957833549879
 31
0.0
  0
LINE
  5
FA
  8
0
  6
CONTINUOUS
 62
     7
 10
-244.96491502520809
 20
95.795783354937683
 30
0.0
 11
-244.96491502520809
 21
88.995783354937487
 31
0.0
  0
LINE
  5
FB
  8
0
  6
CONTINUOUS
 62
     7
 10
-290.76491502520832
 20
49.995783354937487
 30
0.0
 11
-283.9649150252082
 21
49.995783354937487
 31
0.0
  0
LINE
  5
FC
  8
0
  6
CONTINUOUS
 62
     7
 10
-329.76491502520832
 20
95.795783354937683
 30
0.0
 11
-329.76491502520832
 21
88.995783354937487
 31
0.0
  0
LINE
  5
FD
  8
0
  6
CONTINUOUS
 62
     7
 10
-283.61491502520869
 20
141.3957835407451
 30
0.0
 11
-283.61491502520869
 21
141.73864100240331
 31
0.0
  0
LINE
  5
FE
  8
0
  6
CONTINUOUS
 62
     7
 10
-291.11491502520869
 20
141.3957835407451
 30
0.0
 11
-291.11491502520869
 21
141.73864100240331
 31
0.0
  0
LINE
  5
FF
  8
0
  6
CONTINUOUS
 62
     7
 10
-283.61491502520869
 20
141.3957835407451
 30
0.0
 11
-274.36491502520869
 21
141.3957835407451
 31
0.0
  0
LINE
  5
100
  8
0
  6
CONTINUOUS
 62
     7
 10
-325.61491502520869
 20
89.145783354937123
 30
0.0
 11
-326.33490347786312
 21
89.145783354937123
 31
0.0
  0
LINE
  5
101
  8
0
  6
CONTINUOUS
 62
     7
 10
-325.61491502520869
 20
95.645783354937123
 30
0.0
 11
-326.33490347786312
 21
95.645783354937123
 31
0.0
  0
LINE
  5
102
  8
0
  6
CONTINUOUS
 62
     7
 10
-249.11491502520869
 20
89.145783354937123
 30
0.0
 11
-248.39492657255431
 21
89.145783354937123
 31
0.0
  0
LINE
  5
103
  8
0
  6
CONTINUOUS
 62
     7
 10
-249.11491502520869
 20
95.645783354937123
 30
0.0
 11
-248.39492657255431
 21
95.645783354937123
 31
0.0
  0
LINE
  5
104
  8
0
  6
CONTINUOUS
 62
     7
 10
-291.11491502520869
 20
141.73864100240331
 30
0.0
 11
-283.61491502520869
 21
141.73864100240331
 31
0.0
  0
LINE
  5
105
  8
0
  6
CONTINUOUS
 62
     7
 10
-284.11491502520869
 20
135.89578335493709
 30
0.0
 11
-284.11491502520869
 21
140.8957835407451
 31
0.0
  0
LINE
  5
106
  8
0
  6
CONTINUOUS
 62
     7
 10
-290.61491502520869
 20
135.89578335493709
 30
0.0
 11
-290.61491502520869
 21
140.8957835407451
 31
0.0
  0
LINE
  5
107
  8
0
  6
CONTINUOUS
 62
     7
 10
-300.36491502520869
 20
141.3957835407451
 30
0.0
 11
-291.11491502520869
 21
141.3957835407451
 31
0.0
  0
LINE
  5
108
  8
0
  6
CONTINUOUS
 62
     7
 10
-315.76491502521009
 20
120.86616269908841
 30
0.0
 11
-315.76491502521009
 21
123.30633980415089
 31
0.0
  0
LINE
  5
109
  8
0
  6
CONTINUOUS
 62
     7
 10
-258.96491502520809
 20
123.30633980415089
 30
0.0
 11
-258.96491502520809
 21
120.86616269908841
 31
0.0
  0
LINE
  5
10A
  8
0
  6
DASH_CENTER
 62
     1
 10
-325.61491502520869
 20
97.010971387924272
 30
0.0
 11
-325.61491502520869
 21
92.395783354937137
 31
0.0
  0
LINE
  5
10B
  8
0
  6
CONTINUOUS
 62
     7
 10
-300.36491502520869
 20
142.39578335493709
 30
0.0
 11
-274.36491502520869
 21
142.39578335493709
 31
0.0
  0
LINE
  5
10C
  8
0
  6
DASH_CENTER
 62
     1
 10
-292.10992579286369
 20
135.89578335493709
 30
0.0
 11
-283.05729791960232
 21
135.89578335493709
 31
0.0
  0
LINE
  5
10D
  8
0
  6
CONTINUOUS
 62
     7
 10
-273.36491502520869
 20
141.39578335493709
 30
0.0
 11
-273.36491502520869
 21
134.08058274272531
 31
0.0
  0
LINE
  5
10E
  8
0
  6
CONTINUOUS
 62
     7
 10
-301.36491502520869
 20
141.39578335493709
 30
0.0
 11
-301.36491502520869
 21
134.08058274272531
 31
0.0
  0
LINE
  5
10F
  8
0
  6
CONTINUOUS
 62
     7
 10
-328.52026097199831
 20
96.795783354937683
 30
0.0
 11
-328.76491502520832
 21
96.795783354937683
 31
0.0
  0
LINE
  5
110
  8
0
  6
CONTINUOUS
 62
     7
 10
-328.76491502520832
 20
87.995783354937458
 30
0.0
 11
-328.52026097200007
 21
87.995783354937458
 31
0.0
  0
LINE
  5
111
  8
0
  6
CONTINUOUS
 62
     7
 10
-291.76491502520832
 20
51.24043740814848
 30
0.0
 11
-291.76491502520832
 21
50.995783354937487
 31
0.0
  0
LINE
  5
112
  8
0
  6
CONTINUOUS
 62
     7
 10
-282.96491502520809
 20
50.995783354937487
 30
0.0
 11
-282.96491502520809
 21
51.240437408146647
 31
0.0
  0
LINE
  5
113
  8
0
  6
DASH_CENTER
 62
     1
 10
-249.11491502520869
 20
87.780595321951807
 30
0.0
 11
-249.11491502520869
 21
96.788782272965875
 31
0.0
  0
LINE
  5
114
  8
0
  6
CONTINUOUS
 62
     7
 10
-246.20956907841909
 20
87.995783354937458
 30
0.0
 11
-245.96491502520809
 21
87.995783354937458
 31
0.0
  0
LINE
  5
115
  8
0
  6
CONTINUOUS
 62
     7
 10
-245.96491502520809
 20
96.795783354937683
 30
0.0
 11
-246.20956907841909
 21
96.795783354937683
 31
0.0
  0
LINE
  5
116
  8
0
  6
CONTINUOUS
 62
     7
 10
-284.11491502520869
 20
54.145783354937137
 30
0.0
 11
-284.11491502520869
 21
53.425794902285418
 31
0.0
  0
LINE
  5
117
  8
0
  6
CONTINUOUS
 62
     7
 10
-290.61491502520869
 20
54.145783354937137
 30
0.0
 11
-290.61491502520869
 21
53.425794902285418
 31
0.0
  0
LINE
  5
118
  8
0
  6
CONTINUOUS
 62
     7
 10
-330.36491502520869
 20
87.853823246539434
 30
0.0
 11
-330.36491502520869
 21
96.937743463439404
 31
0.0
  0
LINE
  5
119
  8
0
  6
CONTINUOUS
 62
     7
 10
-327.86491502520852
 20
98.895800051597291
 30
0.0
 11
-327.86491502520852
 21
118.39578335493709
 31
0.0
  0
LINE
  5
11A
  8
0
  6
CONTINUOUS
 62
     7
 10
-327.86491502520869
 20
66.395783354937109
 30
0.0
 11
-327.86491502520869
 21
84.895783354937123
 31
0.0
  0
LINE
  5
11B
  8
0
  6
CONTINUOUS
 62
     7
 10
-324.86491502520852
 20
121.39578335493709
 30
0.0
 11
-320.67031999190851
 21
121.39578335493709
 31
0.0
  0
LINE
  5
11C
  8
0
  6
CONTINUOUS
 62
     7
 10
-320.67031999190851
 20
63.395783354937137
 30
0.0
 11
-324.86491502520852
 21
63.395783354937102
 31
0.0
  0
LINE
  5
11D
  8
0
  6
CONTINUOUS
 62
     7
 10
-316.36491502520869
 20
125.7011883217388
 30
0.0
 11
-316.36491502520852
 21
129.89578335493709
 31
0.0
  0
LINE
  5
11E
  8
0
  6
CONTINUOUS
 62
     7
 10
-316.36491502520852
 20
54.895783354937102
 30
0.0
 11
-316.36491502520852
 21
59.090378388240012
 31
0.0
  0
LINE
  5
11F
  8
0
  6
CONTINUOUS
 62
     7
 10
-313.36491502520852
 20
132.89578335493709
 30
0.0
 11
-301.75362659333138
 21
132.89578335493709
 31
0.0
  0
LINE
  5
120
  8
0
  6
CONTINUOUS
 62
     7
 10
-293.86491502520852
 20
51.895783354937102
 30
0.0
 11
-313.36491502520852
 21
51.895783354937102
 31
0.0
  0
LINE
  5
121
  8
0
  6
CONTINUOUS
 62
     7
 10
-282.82295491670908
 20
49.39578335493713
 30
0.0
 11
-291.90687513361092
 21
49.39578335493713
 31
0.0
  0
LINE
  5
122
  8
0
  6
CONTINUOUS
 62
     7
 10
-272.97620345708589
 20
132.89578335493709
 30
0.0
 11
-261.36491502520869
 21
132.89578335493709
 31
0.0
  0
LINE
  5
123
  8
0
  6
CONTINUOUS
 62
     7
 10
-261.36491502520869
 20
51.89578335493713
 30
0.0
 11
-280.86491502520869
 21
51.89578335493713
 31
0.0
  0
LINE
  5
124
  8
0
  6
CONTINUOUS
 62
     7
 10
-258.36491502520869
 20
59.090378388240943
 30
0.0
 11
-258.36491502520869
 21
54.895783354937137
 31
0.0
  0
LINE
  5
125
  8
0
  6
CONTINUOUS
 62
     7
 10
-258.36491502520869
 20
129.89578335493709
 30
0.0
 11
-258.36491502520869
 21
125.7011883217388
 31
0.0
  0
LINE
  5
126
  8
0
  6
CONTINUOUS
 62
     7
 10
-249.86491502520869
 20
63.395783354937137
 30
0.0
 11
-254.0595100584097
 21
63.395783354937137
 31
0.0
  0
LINE
  5
127
  8
0
  6
CONTINUOUS
 62
     7
 10
-254.05951005841041
 20
121.39578335493709
 30
0.0
 11
-249.86491502520869
 21
121.39578335493709
 31
0.0
  0
LINE
  5
128
  8
0
  6
CONTINUOUS
 62
     7
 10
-246.86491502520869
 20
118.39578335493709
 30
0.0
 11
-246.86491502520869
 21
98.895800051598215
 31
0.0
  0
LINE
  5
129
  8
0
  6
CONTINUOUS
 62
     7
 10
-246.86491502520869
 20
84.895783354937123
 30
0.0
 11
-246.86491502520869
 21
66.395783354937109
 31
0.0
  0
LINE
  5
12A
  8
0
  6
CONTINUOUS
 62
     7
 10
-244.36491502520869
 20
96.937743463439404
 30
0.0
 11
-244.36491502520869
 21
87.853823246539434
 31
0.0
  0
LINE
  5
12C
  8
0
  6
CONTINUOUS
 62
     7
 10
-294.1326464073037
 20
51.89578335493713
 30
0.0
 11
-294.86491502520869
 21
51.89578335493713
 31
0.0
  0
LINE
  5
12F
  8
0
  6
CONTINUOUS
 62
     7
 10
-282.86491502520869
 20
49.39578335493713
 30
0.0
 11
-291.86491502520852
 21
49.395783354937102
 31
0.0
  0
LINE
  5
130
  8
0
  6
CONTINUOUS
 62
     7
 10
-327.86491502520869
 20
84.895825096238283
 30
0.0
 11
-327.86491502520869
 21
85.895800051319895
 31
0.0
  0
LINE
  5
131
  8
0
  6
CONTINUOUS
 62
     7
 10
-330.36491502520852
 20
87.895808399859163
 30
0.0
 11
-330.36491502520852
 21
96.895808399578115
 31
0.0
  0
LINE
  5
132
  8
0
  6
CONTINUOUS
 62
     7
 10
-244.36491502520869
 20
97.050670841560134
 30
0.0
 11
-244.36491502520869
 21
87.740979351016506
 31
0.0
  0
LINE
  5
133
  8
0
  6
CONTINUOUS
 62
     7
 10
-246.86491502520869
 20
85.895800051319895
 30
0.0
 11
-246.86491502520869
 21
84.895825096238283
 31
0.0
  0
LINE
  5
134
  8
0
  6
CONTINUOUS
 62
     7
 10
-244.36491502520869
 20
96.895808399578115
 30
0.0
 11
-244.36491502520869
 21
87.895808399858225
 31
0.0
  0
LINE
  5
135
  8
0
  6
CONTINUOUS
 62
     7
 10
-329.36489832869131
 20
97.895808399439872
 30
0.0
 11
-328.8649317217297
 21
97.895800051737368
 31
0.0
  0
LINE
  5
136
  8
0
  6
CONTINUOUS
 62
     7
 10
-329.3649317217297
 20
86.895808399996497
 30
0.0
 11
-328.86489832869131
 21
86.895800051179833
 31
0.0
  0
LINE
  5
137
  8
0
  6
CONTINUOUS
 62
     7
 10
-281.86491502520869
 20
50.895783354937137
 30
0.0
 11
-281.86491502520869
 21
50.395783354937137
 31
0.0
  0
LINE
  5
138
  8
0
  6
CONTINUOUS
 62
     7
 10
-292.86491502520852
 20
50.895783354937102
 30
0.0
 11
-292.86491502520852
 21
50.395783354937102
 31
0.0
  0
LINE
  5
139
  8
0
  6
CONTINUOUS
 62
     7
 10
-245.86489832868949
 20
97.895800051737368
 30
0.0
 11
-245.36493172173039
 21
97.895808399438934
 31
0.0
  0
LINE
  5
13A
  8
0
  6
CONTINUOUS
 62
     7
 10
-245.36489832868949
 20
86.895808399996497
 30
0.0
 11
-245.86493172173039
 21
86.895800051178909
 31
0.0
  0
LINE
  5
13B
  8
0
  6
CONTINUOUS
 62
     7
 10
-252.3649150708205
 20
117.7618087130991
 30
0.0
 11
-252.3649150708205
 21
116.029757905531
 31
0.0
  0
LINE
  5
13C
  8
0
  6
CONTINUOUS
 62
     7
 10
-252.3649150708205
 20
116.029757905531
 30
0.0
 11
-250.8649150708199
 21
115.1637325017478
 31
0.0
  0
LINE
  5
13D
  8
0
  6
CONTINUOUS
 62
     7
 10
-250.8649150708199
 20
115.1637325017478
 30
0.0
 11
-249.3649150708205
 21
116.029757905531
 31
0.0
  0
LINE
  5
13E
  8
0
  6
CONTINUOUS
 62
     7
 10
-249.3649150708205
 20
116.029757905531
 30
0.0
 11
-249.3649150708205
 21
117.7618087130991
 31
0.0
  0
LINE
  5
13F
  8
0
  6
CONTINUOUS
 62
     7
 10
-249.3649150708205
 20
117.7618087130991
 30
0.0
 11
-250.8649150708205
 21
118.6278341168841
 31
0.0
  0
LINE
  5
140
  8
0
  6
CONTINUOUS
 62
     7
 10
-250.8649150708205
 20
118.6278341168841
 30
0.0
 11
-252.3649150708205
 21
117.7618087130991
 31
0.0
  0
LINE
  5
141
  8
0
  6
CONTINUOUS
 62
     7
 10
-330.36491502520943
 20
87.894510585582367
 30
0.0
 11
-330.36491502520943
 21
96.894510585582367
 31
0.0
  0
LINE
  5
142
  8
0
  6
CONTINUOUS
 62
     7
 10
-329.36491502520852
 20
86.894510585582367
 30
0.0
 11
-328.18157828912518
 21
86.894510585582367
 31
0.0
  0
LINE
  5
143
  8
0
  6
CONTINUOUS
 62
     7
 10
-328.18157828912518
 20
97.894510585582367
 30
0.0
 11
-329.36491502520852
 21
97.894510585582367
 31
0.0
  0
LINE
  5
144
  8
0
  6
CONTINUOUS
 62
     7
 10
-245.3649150252094
 20
97.894510585582367
 30
0.0
 11
-246.54825176129279
 21
97.8945105855815
 31
0.0
  0
LINE
  5
145
  8
0
  6
CONTINUOUS
 62
     7
 10
-244.36491502520849
 20
96.894510585582367
 30
0.0
 11
-244.36491502520849
 21
87.894510585582367
 31
0.0
  0
LINE
  5
146
  8
0
  6
CONTINUOUS
 62
     7
 10
-246.54825176129279
 20
86.8945105855815
 30
0.0
 11
-245.3649150252094
 21
86.894510585582367
 31
0.0
  0
LINE
  5
147
  8
0
  6
CONTINUOUS
 62
     7
 10
-281.8636422558522
 20
50.395783354939852
 30
0.0
 11
-281.8636422558522
 21
51.579120091020357
 31
0.0
  0
LINE
  5
148
  8
0
  6
CONTINUOUS
 62
     7
 10
-282.86364225585208
 20
49.39578335493713
 30
0.0
 11
-291.86364225585208
 21
49.39578335493713
 31
0.0
  0
LINE
  5
149
  8
0
  6
CONTINUOUS
 62
     7
 10
-292.8636422558522
 20
51.579120091020357
 30
0.0
 11
-292.8636422558522
 21
50.395783354939852
 31
0.0
  0
LINE
  5
14A
  8
0
  6
CONTINUOUS
 62
     7
 10
-324.37747815813259
 20
91.158346487861806
 30
0.0
 11
-326.85235189228581
 21
93.633220222012426
 31
0.0
  0
LINE
  5
14B
  8
0
  6
CONTINUOUS
 62
     7
 10
-326.85235189228581
 20
91.158346487861806
 30
0.0
 11
-324.37747815813259
 21
93.633220222012426
 31
0.0
  0
LINE
  5
14C
  8
0
  6
CONTINUOUS
 62
     7
 10
-288.60235189228581
 20
134.65834648786179
 30
0.0
 11
-286.12747815813248
 21
137.1332202220124
 31
0.0
  0
LINE
  5
14D
  8
0
  6
CONTINUOUS
 62
     7
 10
-286.12747815813248
 20
134.65834648786179
 30
0.0
 11
-288.60235189228581
 21
137.1332202220124
 31
0.0
  0
LINE
  5
14E
  8
0
  6
CONTINUOUS
 62
     7
 10
-250.35235189228581
 20
91.158346487861806
 30
0.0
 11
-247.8774781581325
 21
93.633220222012426
 31
0.0
  0
LINE
  5
14F
  8
0
  6
CONTINUOUS
 62
     7
 10
-247.8774781581325
 20
91.158346487861806
 30
0.0
 11
-250.35235189228581
 21
93.633220222012426
 31
0.0
  0
LINE
  5
150
  8
0
  6
CONTINUOUS
 62
     7
 10
-288.60235189228581
 20
52.908346487861827
 30
0.0
 11
-286.12747815813248
 21
55.383220222013342
 31
0.0
  0
LINE
  5
151
  8
0
  6
CONTINUOUS
 62
     7
 10
-286.12747815813248
 20
52.908346487861827
 30
0.0
 11
-288.60235189228581
 21
55.383220222013342
 31
0.0
  0
LINE
  5
152
  8
0
  6
DASH_CENTER
 62
     1
 10
-291.98010305819582
 20
54.145783354937137
 30
0.0
 11
-282.97191610718272
 21
54.145783354937137
 31
0.0
  0
LINE
  5
153
  8
0
  6
CONTINUOUS
 62
     7
 10
-322.36491497959838
 20
117.7618087130991
 30
0.0
 11
-323.86491497959838
 21
118.62783411688319
 31
0.0
  0
LINE
  5
154
  8
0
  6
CONTINUOUS
 62
     7
 10
-323.86491497959838
 20
118.62783411688319
 30
0.0
 11
-325.36491497959838
 21
117.7618087130991
 31
0.0
  0
LINE
  5
155
  8
0
  6
CONTINUOUS
 62
     7
 10
-325.36491497959838
 20
117.7618087130991
 30
0.0
 11
-325.36491497959838
 21
116.02975790553189
 31
0.0
  0
LINE
  5
156
  8
0
  6
CONTINUOUS
 62
     7
 10
-325.36491497959838
 20
116.02975790553189
 30
0.0
 11
-323.86491497959838
 21
115.1637325017478
 31
0.0
  0
LINE
  5
157
  8
0
  6
CONTINUOUS
 62
     7
 10
-323.86491497959838
 20
115.1637325017478
 30
0.0
 11
-322.36491497959838
 21
116.02975790553189
 31
0.0
  0
LINE
  5
158
  8
0
  6
CONTINUOUS
 62
     7
 10
-322.36491497959838
 20
116.02975790553189
 30
0.0
 11
-322.36491497959838
 21
117.7618087130991
 31
0.0
  0
LINE
  5
159
  8
0
  6
CONTINUOUS
 62
     7
 10
-252.3649150708205
 20
67.029757996876967
 30
0.0
 11
-250.8649150708205
 21
66.163732593092874
 31
0.0
  0
LINE
  5
15A
  8
0
  6
CONTINUOUS
 62
     7
 10
-250.8649150708205
 20
66.163732593092874
 30
0.0
 11
-249.3649150708199
 21
67.02975799687789
 31
0.0
  0
LINE
  5
15B
  8
0
  6
CONTINUOUS
 62
     7
 10
-249.3649150708199
 20
67.02975799687789
 30
0.0
 11
-249.3649150708199
 21
68.761808804447867
 31
0.0
  0
LINE
  5
15C
  8
0
  6
CONTINUOUS
 62
     7
 10
-249.3649150708199
 20
68.761808804447867
 30
0.0
 11
-250.8649150708199
 21
69.62783420823196
 31
0.0
  0
LINE
  5
15D
  8
0
  6
CONTINUOUS
 62
     7
 10
-250.8649150708199
 20
69.62783420823196
 30
0.0
 11
-252.3649150708205
 21
68.761808804447838
 31
0.0
  0
LINE
  5
15E
  8
0
  6
CONTINUOUS
 62
     7
 10
-252.3649150708205
 20
68.761808804447838
 30
0.0
 11
-252.3649150708205
 21
67.029757996876967
 31
0.0
  0
LINE
  5
15F
  8
0
  6
CONTINUOUS
 62
     7
 10
-322.36491497959838
 20
67.0297579968788
 30
0.0
 11
-322.36491497959838
 21
68.761808804447867
 31
0.0
  0
LINE
  5
160
  8
0
  6
CONTINUOUS
 62
     7
 10
-322.36491497959838
 20
68.761808804447867
 30
0.0
 11
-323.86491497959838
 21
69.62783420823196
 31
0.0
  0
LINE
  5
161
  8
0
  6
CONTINUOUS
 62
     7
 10
-323.86491497959838
 20
69.62783420823196
 30
0.0
 11
-325.36491497959838
 21
68.761808804447867
 31
0.0
  0
LINE
  5
162
  8
0
  6
CONTINUOUS
 62
     7
 10
-325.36491497959838
 20
68.761808804447867
 30
0.0
 11
-325.36491497959838
 21
67.0297579968788
 31
0.0
  0
LINE
  5
163
  8
0
  6
CONTINUOUS
 62
     7
 10
-325.36491497959838
 20
67.0297579968788
 30
0.0
 11
-323.86491497959838
 21
66.163732593093812
 31
0.0
  0
LINE
  5
164
  8
0
  6
CONTINUOUS
 62
     7
 10
-323.86491497959838
 20
66.163732593093812
 30
0.0
 11
-322.36491497959838
 21
67.0297579968788
 31
0.0
  0
LINE
  5
165
  8
0
  6
DASH_CENTER
 62
     1
 10
-325.61491502520869
 20
92.395783354937137
 30
0.0
 11
-325.61491502520869
 21
88.002784436912918
 31
0.0
  0
LINE
  5
167
  8
0
  6
DASH_CENTER
 62
     1
 10
-246.0649150708204
 20
116.895783309316
 30
0.0
 11
-255.66491507081909
 21
116.8957833093169
 31
0.0
  0
LINE
  5
168
  8
0
  6
DASH_CENTER
 62
     1
 10
-250.8649150708199
 20
121.6957833093134
 30
0.0
 11
-250.8649150708199
 21
112.0957833093149
 31
0.0
  0
LINE
  5
169
  8
0
  6
DASH_CENTER
 62
     1
 10
-319.06491497959831
 20
116.8957833093169
 30
0.0
 11
-328.66491497959839
 21
116.895783309316
 31
0.0
  0
LINE
  5
16A
  8
0
  6
DASH_CENTER
 62
     1
 10
-323.86491497959838
 20
112.0957833093149
 30
0.0
 11
-323.86491497959838
 21
121.6957833093134
 31
0.0
  0
LINE
  5
16B
  8
0
  6
DASH_CENTER
 62
     1
 10
-255.66491507081909
 20
67.895783400662879
 30
0.0
 11
-246.06491507081969
 21
67.895783400662879
 31
0.0
  0
LINE
  5
16C
  8
0
  6
DASH_CENTER
 62
     1
 10
-250.8649150708205
 20
72.695783400662137
 30
0.0
 11
-250.8649150708205
 21
63.095783400660871
 31
0.0
  0
LINE
  5
16D
  8
0
  6
DASH_CENTER
 62
     1
 10
-328.66491497959839
 20
67.895783400662879
 30
0.0
 11
-319.06491497959831
 21
67.895783400662879
 31
0.0
  0
LINE
  5
16E
  8
0
  6
DASH_CENTER
 62
     1
 10
-323.86491497959838
 20
63.095783400661787
 30
0.0
 11
-323.86491497959838
 21
72.695783400664865
 31
0.0
  0
LINE
  5
16F
  8
0
  6
CONTINUOUS
 62
     7
 10
305.4949196114577
 20
208.4458000000073
 30
0.0
 11
273.37491961145759
 21
208.4458000000073
 31
0.0
  0
LINE
  5
170
  8
0
  6
CONTINUOUS
 62
     7
 10
299.18718349695462
 20
199.0058000000042
 30
0.0
 11
305.87468349695098
 21
199.0058000000042
 31
0.0
  0
LINE
  5
171
  8
0
  6
CONTINUOUS
 62
     7
 10
298.43718349695462
 20
199.99439567725921
 30
0.0
 11
298.43718349695462
 21
199.7558000000042
 31
0.0
  0
LINE
  5
172
  8
0
  6
CONTINUOUS
 62
     7
 10
305.87468349695098
 20
199.0058000000042
 30
0.0
 11
306.87468349695462
 21
198.0058000000042
 31
0.0
  0
LINE
  5
173
  8
0
  6
CONTINUOUS
 62
     7
 10
306.87468349695462
 20
198.0058000000042
 30
0.0
 11
271.87930075090418
 21
198.0058000000042
 31
0.0
  0
LINE
  5
174
  8
0
  6
CONTINUOUS
 62
     7
 10
272.87930075090418
 20
199.0058000000042
 30
0.0
 11
299.18718349695462
 21
199.0058000000042
 31
0.0
  0
LINE
  5
175
  8
0
  6
CONTINUOUS
 62
     7
 10
305.87468349695098
 20
199.0058000000042
 30
0.0
 11
306.87468349695462
 21
198.0058000000042
 31
0.0
  0
LINE
  5
176
  8
0
  6
CONTINUOUS
 62
     7
 10
271.87930075090418
 20
198.0058000000042
 30
0.0
 11
272.87930075090418
 21
199.0058000000042
 31
0.0
  0
LINE
  5
177
  8
0
  6
CONTINUOUS
 62
     7
 10
305.87468349695189
 20
203.4238196429867
 30
0.0
 11
298.91325777355758
 21
200.69258239874549
 31
0.0
  0
LINE
  5
178
  8
0
  6
CONTINUOUS
 62
     7
 10
289.31906463640308
 20
207.5866425164283
 30
0.0
 11
276.3167776619697
 21
203.0992587126527
 31
0.0
  0
LINE
  5
179
  8
0
  6
CONTINUOUS
 62
     7
 10
289.31906463640308
 20
208.05998183459789
 30
0.0
 11
289.31906463640308
 21
207.5866425164283
 31
0.0
  0
LINE
  5
17A
  8
0
  6
CONTINUOUS
 62
     7
 10
301.70642117916162
 20
208.44580000000559
 30
0.0
 11
274.4001997170875
 21
199.0058000000042
 31
0.0
  0
LINE
  5
17B
  8
0
  6
CONTINUOUS
 62
     7
 10
272.87930075090418
 20
201.60275021093699
 30
0.0
 11
274.13502048274529
 21
203.0992587126527
 31
0.0
  0
LINE
  5
17C
  8
0
  6
CONTINUOUS
 62
     7
 10
276.3167776619697
 20
203.0992587126527
 30
0.0
 11
274.13502048274529
 21
203.0992587126527
 31
0.0
  0
LINE
  5
17D
  8
0
  6
CONTINUOUS
 62
     7
 10
275.90625433311499
 20
208.44580000000559
 30
0.0
 11
289.31906463640308
 21
208.05998183459789
 31
0.0
  0
LINE
  5
17E
  8
0
  6
CONTINUOUS
 62
     7
 10
305.87468349695462
 20
207.94580000000559
 30
0.0
 11
305.37468349695462
 21
208.44580000000559
 31
0.0
  0
LINE
  5
17F
  8
0
  6
CONTINUOUS
 62
     7
 10
272.87930075090418
 20
207.94580000000559
 30
0.0
 11
273.37930075090418
 21
208.44580000000559
 31
0.0
  0
LINE
  5
180
  8
0
  6
CONTINUOUS
 62
     7
 10
305.37468349695462
 20
208.44580000000559
 30
0.0
 11
273.37930075090418
 21
208.44580000000559
 31
0.0
  0
LINE
  5
181
  8
0
  6
CONTINUOUS
 62
     7
 10
305.87468349695462
 20
207.94580000000559
 30
0.0
 11
305.87468349695098
 21
199.0058000000042
 31
0.0
  0
LINE
  5
182
  8
0
  6
CONTINUOUS
 62
     7
 10
272.87930075090418
 20
199.0058000000042
 30
0.0
 11
272.87930075090418
 21
207.94580000000559
 31
0.0
  0
LINE
  5
183
  8
0
  6
CONTINUOUS
 62
     7
 10
271.84825579343158
 20
192.89580000000731
 30
0.0
 11
271.87930075090418
 21
198.0058000000042
 31
0.0
  0
LINE
  5
184
  8
0
  6
CONTINUOUS
 62
     7
 10
306.87468349695462
 20
198.0058000000042
 30
0.0
 11
306.90572845442728
 21
192.89580000000731
 31
0.0
  0
LINE
  5
185
  8
0
  6
CONTINUOUS
 62
     7
 10
305.37468349695462
 20
208.44580000000559
 30
0.0
 11
273.3892610600555
 21
208.44580000000639
 31
0.0
  0
LINE
  5
186
  8
0
  6
CONTINUOUS
 62
     7
 10
-25.693084597132131
 20
208.4459444086306
 30
0.0
 11
-57.678507034031291
 21
208.4459444086315
 31
0.0
  0
LINE
  5
187
  8
0
  6
CONTINUOUS
 62
     7
 10
-24.193084597132131
 20
198.00594440862909
 30
0.0
 11
-24.162039639659469
 21
192.89594440863229
 31
0.0
  0
LINE
  5
188
  8
0
  6
CONTINUOUS
 62
     7
 10
-59.219512300655168
 20
192.89594440863229
 30
0.0
 11
-59.188467343182502
 21
198.00594440862909
 31
0.0
  0
LINE
  5
189
  8
0
  6
CONTINUOUS
 62
     7
 10
-58.188467343182502
 20
199.00594440862909
 30
0.0
 11
-58.188467343182502
 21
207.9459444086306
 31
0.0
  0
LINE
  5
18A
  8
0
  6
CONTINUOUS
 62
     7
 10
-25.193084597132131
 20
207.9459444086306
 30
0.0
 11
-25.193084597135769
 21
199.00594440862909
 31
0.0
  0
LINE
  5
18B
  8
0
  6
CONTINUOUS
 62
     7
 10
-25.693084597132131
 20
208.4459444086306
 30
0.0
 11
-57.688467343182502
 21
208.4459444086306
 31
0.0
  0
LINE
  5
18C
  8
0
  6
CONTINUOUS
 62
     7
 10
-58.188467343182502
 20
207.9459444086306
 30
0.0
 11
-57.688467343182502
 21
208.4459444086306
 31
0.0
  0
LINE
  5
18D
  8
0
  6
CONTINUOUS
 62
     7
 10
-25.193084597132131
 20
207.9459444086306
 30
0.0
 11
-25.693084597132131
 21
208.4459444086306
 31
0.0
  0
LINE
  5
18E
  8
0
  6
CONTINUOUS
 62
     7
 10
-55.161513760971701
 20
208.4459444086306
 30
0.0
 11
-41.748703457683597
 21
208.0601262432229
 31
0.0
  0
LINE
  5
18F
  8
0
  6
CONTINUOUS
 62
     7
 10
-54.75099043211705
 20
203.0994031212777
 30
0.0
 11
-56.932747611341462
 21
203.0994031212777
 31
0.0
  0
LINE
  5
190
  8
0
  6
CONTINUOUS
 62
     7
 10
-58.188467343182502
 20
201.60289461956199
 30
0.0
 11
-56.932747611341462
 21
203.0994031212777
 31
0.0
  0
LINE
  5
191
  8
0
  6
CONTINUOUS
 62
     7
 10
-29.361346914925178
 20
208.4459444086306
 30
0.0
 11
-56.667568376999242
 21
199.00594440862909
 31
0.0
  0
LINE
  5
192
  8
0
  6
CONTINUOUS
 62
     7
 10
-41.748703457683597
 20
208.0601262432229
 30
0.0
 11
-41.748703457683597
 21
207.5867869250533
 31
0.0
  0
LINE
  5
193
  8
0
  6
CONTINUOUS
 62
     7
 10
-41.748703457683597
 20
207.5867869250533
 30
0.0
 11
-54.75099043211705
 21
203.0994031212777
 31
0.0
  0
LINE
  5
194
  8
0
  6
CONTINUOUS
 62
     7
 10
-25.19308459713486
 20
203.4239640516117
 30
0.0
 11
-32.15451032052917
 21
200.69272680737049
 31
0.0
  0
LINE
  5
195
  8
0
  6
CONTINUOUS
 62
     7
 10
-59.188467343182502
 20
198.00594440862909
 30
0.0
 11
-58.188467343182502
 21
199.00594440862909
 31
0.0
  0
LINE
  5
196
  8
0
  6
CONTINUOUS
 62
     7
 10
-25.193084597135769
 20
199.00594440862909
 30
0.0
 11
-24.193084597132131
 21
198.00594440862909
 31
0.0
  0
LINE
  5
197
  8
0
  6
CONTINUOUS
 62
     7
 10
-58.188467343182502
 20
199.00594440862909
 30
0.0
 11
-31.880584597132131
 21
199.00594440862909
 31
0.0
  0
LINE
  5
198
  8
0
  6
CONTINUOUS
 62
     7
 10
-24.193084597132131
 20
198.00594440862909
 30
0.0
 11
-59.188467343182502
 21
198.00594440862909
 31
0.0
  0
LINE
  5
199
  8
0
  6
CONTINUOUS
 62
     7
 10
-25.193084597135769
 20
199.00594440862909
 30
0.0
 11
-24.193084597132131
 21
198.00594440862909
 31
0.0
  0
LINE
  5
19A
  8
0
  6
CONTINUOUS
 62
     7
 10
-32.630584597132128
 20
199.9945400858841
 30
0.0
 11
-32.630584597132128
 21
199.7559444086292
 31
0.0
  0
LINE
  5
19B
  8
0
  6
CONTINUOUS
 62
     7
 10
-31.880584597132131
 20
199.00594440862909
 30
0.0
 11
-25.193084597135769
 21
199.00594440862909
 31
0.0
  0
LINE
  5
19C
  8
0
  6
CONTINUOUS
 62
     7
 10
-277.61265113971149
 20
199.0059444086281
 30
0.0
 11
-270.92515113971513
 21
199.0059444086281
 31
0.0
  0
LINE
  5
19D
  8
0
  6
CONTINUOUS
 62
     7
 10
-278.36265113971149
 20
199.9945400858831
 30
0.0
 11
-278.36265113971149
 21
199.7559444086281
 31
0.0
  0
LINE
  5
19E
  8
0
  6
CONTINUOUS
 62
     7
 10
-270.92515113971513
 20
199.0059444086281
 30
0.0
 11
-269.92515113971149
 21
198.0059444086281
 31
0.0
  0
LINE
  5
19F
  8
0
  6
CONTINUOUS
 62
     7
 10
-269.92515113971149
 20
198.0059444086281
 30
0.0
 11
-304.92053388576193
 21
198.0059444086281
 31
0.0
  0
LINE
  5
1A0
  8
0
  6
CONTINUOUS
 62
     7
 10
-303.92053388576193
 20
199.0059444086281
 30
0.0
 11
-277.61265113971149
 21
199.0059444086281
 31
0.0
  0
LINE
  5
1A1
  8
0
  6
CONTINUOUS
 62
     7
 10
-270.92515113971513
 20
199.0059444086281
 30
0.0
 11
-269.92515113971149
 21
198.0059444086281
 31
0.0
  0
LINE
  5
1A2
  8
0
  6
CONTINUOUS
 62
     7
 10
-304.92053388576193
 20
198.0059444086281
 30
0.0
 11
-303.92053388576193
 21
199.0059444086281
 31
0.0
  0
LINE
  5
1A3
  8
0
  6
CONTINUOUS
 62
     7
 10
-270.92515113971422
 20
203.4239640516106
 30
0.0
 11
-277.88657686310847
 21
200.69272680736941
 31
0.0
  0
LINE
  5
1A4
  8
0
  6
CONTINUOUS
 62
     7
 10
-287.48077000026302
 20
207.58678692505219
 30
0.0
 11
-300.48305697469641
 21
203.09940312127659
 31
0.0
  0
LINE
  5
1A5
  8
0
  6
CONTINUOUS
 62
     7
 10
-287.48077000026302
 20
208.06012624322179
 30
0.0
 11
-287.48077000026302
 21
207.58678692505219
 31
0.0
  0
LINE
  5
1A6
  8
0
  6
CONTINUOUS
 62
     7
 10
-275.09341345750448
 20
208.44594440862949
 30
0.0
 11
-302.3996349195786
 21
199.0059444086281
 31
0.0
  0
LINE
  5
1A7
  8
0
  6
CONTINUOUS
 62
     7
 10
-303.92053388576193
 20
201.60289461956091
 30
0.0
 11
-302.66481415392082
 21
203.09940312127659
 31
0.0
  0
LINE
  5
1A8
  8
0
  6
CONTINUOUS
 62
     7
 10
-300.48305697469641
 20
203.09940312127659
 30
0.0
 11
-302.66481415392082
 21
203.09940312127659
 31
0.0
  0
LINE
  5
1A9
  8
0
  6
CONTINUOUS
 62
     7
 10
-300.89358030355112
 20
208.44594440862949
 30
0.0
 11
-287.48077000026302
 21
208.06012624322179
 31
0.0
  0
LINE
  5
1AA
  8
0
  6
CONTINUOUS
 62
     7
 10
-270.92515113971149
 20
207.94594440862949
 30
0.0
 11
-271.42515113971149
 21
208.44594440862949
 31
0.0
  0
LINE
  5
1AB
  8
0
  6
CONTINUOUS
 62
     7
 10
-303.92053388576193
 20
207.94594440862949
 30
0.0
 11
-303.42053388576193
 21
208.44594440862949
 31
0.0
  0
LINE
  5
1AC
  8
0
  6
CONTINUOUS
 62
     7
 10
-271.42515113971149
 20
208.44594440862949
 30
0.0
 11
-303.42053388576193
 21
208.44594440862949
 31
0.0
  0
LINE
  5
1AD
  8
0
  6
CONTINUOUS
 62
     7
 10
-270.92515113971149
 20
207.94594440862949
 30
0.0
 11
-270.92515113971513
 21
199.0059444086281
 31
0.0
  0
LINE
  5
1AE
  8
0
  6
CONTINUOUS
 62
     7
 10
-303.92053388576193
 20
199.0059444086281
 30
0.0
 11
-303.92053388576193
 21
207.94594440862949
 31
0.0
  0
LINE
  5
1AF
  8
0
  6
CONTINUOUS
 62
     7
 10
-304.95157884323447
 20
192.8959444086311
 30
0.0
 11
-304.92053388576193
 21
198.0059444086281
 31
0.0
  0
LINE
  5
1B0
  8
0
  6
CONTINUOUS
 62
     7
 10
-269.92515113971149
 20
198.0059444086281
 30
0.0
 11
-269.89410618223877
 21
192.8959444086311
 31
0.0
  0
LINE
  5
1B1
  8
0
  6
CONTINUOUS
 62
     7
 10
-271.42515113971149
 20
208.44594440862949
 30
0.0
 11
-303.4105735766106
 21
208.4459444086304
 31
0.0
  0
LINE
  5
1B2
  8
0
  6
CONTINUOUS
 62
     7
 10
115.8672515173709
 20
27.395834015597568
 30
0.0
 11
116.3672515173708
 21
27.895833314690329
 31
0.0
  0
LINE
  5
1B3
  8
0
  6
CONTINUOUS
 62
     7
 10
115.8671515173708
 20
157.39583366514381
 30
0.0
 11
116.3671515173708
 21
156.89583366514381
 31
0.0
  0
LINE
  5
1B4
  8
0
  6
CONTINUOUS
 62
     7
 10
-287.36491502520852
 20
157.6957833549373
 30
0.0
 11
-260.3649150252084
 21
157.6957833549373
 31
0.0
  0
LINE
  5
1B5
  8
0
  6
DASH_CENTER
 62
     1
 10
-85.632857457109964
 20
150.89594381685461
 30
0.0
 11
-75.632857457109964
 21
150.89594381685461
 31
0.0
  0
LINE
  5
1B6
  8
0
  6
DASH_CENTER
 62
     1
 10
-85.632857457109964
 20
33.895943816854633
 30
0.0
 11
-75.632857457109964
 21
33.895943816854633
 31
0.0
  0
LINE
  5
1B7
  8
0
  6
CONTINUOUS
 62
     7
 10
-82.632857457109964
 20
30.045943816854631
 30
0.0
 11
-82.232857457109944
 21
29.645943816854629
 31
0.0
  0
LINE
  5
1B8
  8
0
  6
CONTINUOUS
 62
     7
 10
-82.632857457109964
 20
37.745943816854613
 30
0.0
 11
-82.632857457109964
 21
30.045943816854631
 31
0.0
  0
LINE
  5
1B9
  8
0
  6
CONTINUOUS
 62
     7
 10
-82.632857457109964
 20
37.745943816854613
 30
0.0
 11
-82.232857457109944
 21
38.145943816854633
 31
0.0
  0
LINE
  5
1BA
  8
0
  6
CONTINUOUS
 62
     7
 10
-78.632857457109964
 20
38.145943816854633
 30
0.0
 11
-82.232857457109944
 21
38.145943816854633
 31
0.0
  0
LINE
  5
1BB
  8
0
  6
CONTINUOUS
 62
     7
 10
-79.132857457109964
 20
29.645943816854629
 30
0.0
 11
-79.132857457109964
 21
38.145943816854633
 31
0.0
  0
LINE
  5
1BC
  8
0
  6
CONTINUOUS
 62
     7
 10
-78.632857457109964
 20
29.645943816854629
 30
0.0
 11
-82.232857457109944
 21
29.645943816854629
 31
0.0
  0
LINE
  5
1BD
  8
0
  6
CONTINUOUS
 62
     7
 10
-79.132857457109964
 20
155.14594381685461
 30
0.0
 11
-79.132857457109964
 21
146.64594381685461
 31
0.0
  0
LINE
  5
1BE
  8
0
  6
CONTINUOUS
 62
     7
 10
-82.232857457109944
 20
146.64594381685461
 30
0.0
 11
-78.632857457109964
 21
146.64594381685461
 31
0.0
  0
LINE
  5
1BF
  8
0
  6
CONTINUOUS
 62
     7
 10
-82.232857457109944
 20
155.14594381685461
 30
0.0
 11
-78.632857457109964
 21
155.14594381685461
 31
0.0
  0
LINE
  5
1C0
  8
0
  6
CONTINUOUS
 62
     7
 10
-82.232857457109944
 20
146.64594381685461
 30
0.0
 11
-82.632857457109964
 21
147.0459438168543
 31
0.0
  0
LINE
  5
1C1
  8
0
  6
CONTINUOUS
 62
     7
 10
-82.632857457109964
 20
154.74594381685449
 30
0.0
 11
-82.632857457109964
 21
147.0459438168543
 31
0.0
  0
LINE
  5
1C6
  8
0
  6
CONTINUOUS
 62
     7
 10
-78.632857457109964
 20
109.3959438168546
 30
0.0
 11
104.3671515173708
 21
109.39583307337359
 31
0.0
  0
LINE
  5
1C7
  8
0
  6
CONTINUOUS
 62
     7
 10
-78.632857457109964
 20
112.1459438168546
 30
0.0
 11
104.3671515173708
 21
112.14583307337359
 31
0.0
  0
LINE
  5
1C8
  8
0
  6
CONTINUOUS
 62
     7
 10
-78.632857457109964
 20
114.78010571127309
 30
0.0
 11
104.3671515173708
 21
114.77999496779211
 31
0.0
  0
LINE
  5
1C9
  8
0
  6
CONTINUOUS
 62
     7
 10
-25.572848482629158
 20
208.4459444086323
 30
0.0
 11
-57.692848482629152
 21
208.4459444086323
 31
0.0
  0
LINE
  5
1CA
  8
0
  6
CONTINUOUS
 62
     7
 10
-8.2328484826331696
 20
158.39594440862481
 30
0.0
 11
-69.191106052123516
 21
158.39594440862481
 31
0.0
  0
LINE
  5
1CB
  8
0
  6
CONTINUOUS
 62
     7
 10
-8.2328484826331696
 20
158.39594440862481
 30
0.0
 11
-8.2328484826331696
 21
157.39594440862481
 31
0.0
  0
LINE
  5
1CC
  8
0
  6
CONTINUOUS
 62
     7
 10
-68.254090587513161
 20
191.43978532056019
 30
0.0
 11
-68.732848482628611
 21
158.09594440862551
 31
0.0
  0
LINE
  5
1CD
  8
0
  6
CONTINUOUS
 62
     7
 10
-8.7328484826331891
 20
163.195944408625
 30
0.0
 11
-8.7328484826331696
 21
158.39594440862481
 31
0.0
  0
LINE
  5
1CE
  8
0
  6
CONTINUOUS
 62
     7
 10
-12.232848482628629
 20
178.6959444086325
 30
0.0
 11
-8.7328484826331891
 21
163.195944408625
 31
0.0
  0
LINE
  5
1CF
  8
0
  6
CONTINUOUS
 62
     7
 10
-69.232848482628626
 20
157.39594440862481
 30
0.0
 11
-69.232848482628626
 21
158.39594440862481
 31
0.0
  0
LINE
  5
1D0
  8
0
  6
CONTINUOUS
 62
     7
 10
-12.232848482628629
 20
191.39594440863229
 30
0.0
 11
-12.232848482628629
 21
178.6959444086325
 31
0.0
  0
LINE
  5
1D1
  8
0
  6
CONTINUOUS
 62
     7
 10
-66.754731399579398
 20
192.89594440863229
 30
0.0
 11
-13.73284848262862
 21
192.89594440863229
 31
0.0
  0
LINE
  5
1D2
  8
0
  6
DASH_CENTER
 62
     1
 10
314.63491961145922
 20
33.895800000001429
 30
0.0
 11
327.2349196114597
 21
33.895800000001429
 31
0.0
  0
LINE
  5
1D3
  8
0
  6
DASH_CENTER
 62
     1
 10
320.93491961145941
 20
27.595800000000342
 30
0.0
 11
320.93491961145941
 21
40.195800000000723
 31
0.0
  0
LINE
  5
1D4
  8
0
  6
CONTINUOUS
 62
     7
 10
320.93491961145941
 20
31.395800000001429
 30
0.0
 11
318.7698561019983
 21
32.645800000001429
 31
0.0
  0
LINE
  5
1D5
  8
0
  6
CONTINUOUS
 62
     7
 10
318.7698561019983
 20
32.645800000001429
 30
0.0
 11
318.7698561019983
 21
35.145800000001429
 31
0.0
  0
LINE
  5
1D6
  8
0
  6
CONTINUOUS
 62
     7
 10
318.7698561019983
 20
35.145800000001429
 30
0.0
 11
320.93491961145941
 21
36.395800000001429
 31
0.0
  0
LINE
  5
1D7
  8
0
  6
CONTINUOUS
 62
     7
 10
320.93491961145941
 20
36.395800000001429
 30
0.0
 11
323.09998312092051
 21
35.145800000001429
 31
0.0
  0
LINE
  5
1D8
  8
0
  6
CONTINUOUS
 62
     7
 10
323.09998312092051
 20
35.145800000001429
 30
0.0
 11
323.09998312092051
 21
32.645800000001429
 31
0.0
  0
LINE
  5
1D9
  8
0
  6
CONTINUOUS
 62
     7
 10
323.09998312092051
 20
32.645800000001429
 30
0.0
 11
320.93491961145941
 21
31.395800000001429
 31
0.0
  0
LINE
  5
1DA
  8
0
  6
DASH_CENTER
 62
     1
 10
-252.36491502520749
 20
145.79578335493679
 30
0.0
 11
-252.36491502520749
 21
155.99578335493661
 31
0.0
  0
LINE
  5
1DB
  8
0
  6
DASH_CENTER
 62
     1
 10
-247.26491502520901
 20
150.89578335493709
 30
0.0
 11
-257.46491502520882
 21
150.89578335493709
 31
0.0
  0
LINE
  5
1DC
  8
0
  6
DASH_CENTER
 62
     1
 10
-345.86491502520749
 20
122.2957833549368
 30
0.0
 11
-345.86491502520749
 21
132.49578335493661
 31
0.0
  0
LINE
  5
1DD
  8
0
  6
DASH_CENTER
 62
     1
 10
-340.76491502520901
 20
127.39578335493709
 30
0.0
 11
-350.96491502520882
 21
127.39578335493709
 31
0.0
  0
LINE
  5
1DE
  8
0
  6
DASH_CENTER
 62
     1
 10
-322.36491502520749
 20
28.795783354936741
 30
0.0
 11
-322.36491502520749
 21
38.995783354936563
 31
0.0
  0
LINE
  5
1DF
  8
0
  6
DASH_CENTER
 62
     1
 10
-317.26491502520901
 20
33.895783354937109
 30
0.0
 11
-327.46491502520882
 21
33.895783354937109
 31
0.0
  0
LINE
  5
1E0
  8
0
  6
DASH_CENTER
 62
     1
 10
-228.86491502520749
 20
52.295783354936738
 30
0.0
 11
-228.86491502520749
 21
62.495783354936563
 31
0.0
  0
LINE
  5
1E1
  8
0
  6
DASH_CENTER
 62
     1
 10
-223.76491502520901
 20
57.395783354937102
 30
0.0
 11
-233.9649150252088
 21
57.395783354937102
 31
0.0
  0
LINE
  5
1E2
  8
0
  6
DASH_CENTER
 62
     1
 10
-287.3649150252084
 20
24.59578335493693
 30
0.0
 11
-287.36491502520852
 21
212.9259444086255
 31
0.0
  0
LINE
  5
1E3
  8
0
  6
DASH_CENTER
 62
     1
 10
-343.08492938270859
 20
36.675768997437032
 30
0.0
 11
-334.17538393975872
 21
45.585314440387748
 31
0.0
  0
LINE
  5
1E4
  8
0
  6
DASH_CENTER
 62
     1
 10
-240.48373543254081
 20
45.514603762270362
 30
0.0
 11
-231.71561134582751
 21
36.746479675556252
 31
0.0
  0
LINE
  5
1E5
  8
0
  6
DASH_CENTER
 62
     1
 10
-343.226350738946
 20
148.25721906867381
 30
0.0
 11
-334.03396258352109
 21
139.06483091324901
 31
0.0
  0
LINE
  5
1E6
  8
0
  6
DASH_CENTER
 62
     1
 10
-240.62515678877739
 20
139.1355415913682
 30
0.0
 11
-231.57418998959
 21
148.18650839055641
 31
0.0
  0
LINE
  5
1E7
  8
0
  6
CONTINUOUS
 62
     7
 10
-236.55891144295569
 20
157.39578335493709
 30
0.0
 11
-259.90665745571351
 21
157.39578335493709
 31
0.0
  0
LINE
  5
1E8
  8
0
  6
CONTINUOUS
 62
     7
 10
-352.36491502520829
 20
41.58977977268254
 30
0.0
 11
-352.36491502520829
 21
75.437525785441309
 31
0.0
  0
LINE
  5
1E9
  8
0
  6
CONTINUOUS
 62
     7
 10
-222.3649150252084
 20
143.2017869371908
 30
0.0
 11
-222.3649150252084
 21
109.354040924432
 31
0.0
  0
LINE
  5
1EA
  8
0
  6
CONTINUOUS
 62
     7
 10
-236.55891144295569
 20
27.395783354937109
 30
0.0
 11
-270.40665745571351
 21
27.395783354937109
 31
0.0
  0
LINE
  5
1EB
  8
0
  6
CONTINUOUS
 62
     7
 10
-251.2102144868293
 20
148.89578335493709
 30
0.0
 11
-250.05551394844929
 21
150.89578335493709
 31
0.0
  0
LINE
  5
1EC
  8
0
  6
CONTINUOUS
 62
     7
 10
-250.05551394844929
 20
150.89578335493709
 30
0.0
 11
-251.2102144868293
 21
152.89578335493709
 31
0.0
  0
LINE
  5
1ED
  8
0
  6
CONTINUOUS
 62
     7
 10
-251.2102144868293
 20
152.89578335493709
 30
0.0
 11
-253.51961556358751
 21
152.89578335493709
 31
0.0
  0
LINE
  5
1EE
  8
0
  6
CONTINUOUS
 62
     7
 10
-253.51961556358751
 20
152.89578335493709
 30
0.0
 11
-254.6743161019684
 21
150.89578335493709
 31
0.0
  0
LINE
  5
1EF
  8
0
  6
CONTINUOUS
 62
     7
 10
-254.6743161019684
 20
150.89578335493709
 30
0.0
 11
-253.51961556358751
 21
148.89578335493709
 31
0.0
  0
LINE
  5
1F0
  8
0
  6
CONTINUOUS
 62
     7
 10
-253.51961556358751
 20
148.89578335493709
 30
0.0
 11
-251.2102144868293
 21
148.89578335493709
 31
0.0
  0
LINE
  5
1F1
  8
0
  6
CONTINUOUS
 62
     7
 10
-344.71021448682927
 20
125.39578335493709
 30
0.0
 11
-343.5555139484494
 21
127.39578335493709
 31
0.0
  0
LINE
  5
1F2
  8
0
  6
CONTINUOUS
 62
     7
 10
-343.5555139484494
 20
127.39578335493709
 30
0.0
 11
-344.71021448682927
 21
129.39578335493709
 31
0.0
  0
LINE
  5
1F3
  8
0
  6
CONTINUOUS
 62
     7
 10
-344.71021448682927
 20
129.39578335493709
 30
0.0
 11
-347.01961556358748
 21
129.39578335493709
 31
0.0
  0
LINE
  5
1F4
  8
0
  6
CONTINUOUS
 62
     7
 10
-347.01961556358748
 20
129.39578335493709
 30
0.0
 11
-348.17431610196837
 21
127.39578335493709
 31
0.0
  0
LINE
  5
1F5
  8
0
  6
CONTINUOUS
 62
     7
 10
-348.17431610196837
 20
127.39578335493709
 30
0.0
 11
-347.01961556358748
 21
125.39578335493709
 31
0.0
  0
LINE
  5
1F6
  8
0
  6
CONTINUOUS
 62
     7
 10
-347.01961556358748
 20
125.39578335493709
 30
0.0
 11
-344.71021448682927
 21
125.39578335493709
 31
0.0
  0
LINE
  5
1F7
  8
0
  6
CONTINUOUS
 62
     7
 10
-321.21021448682927
 20
31.895783354937109
 30
0.0
 11
-320.05551394844929
 21
33.895783354937109
 31
0.0
  0
LINE
  5
1F8
  8
0
  6
CONTINUOUS
 62
     7
 10
-320.05551394844929
 20
33.895783354937109
 30
0.0
 11
-321.21021448682927
 21
35.895783354937109
 31
0.0
  0
LINE
  5
1F9
  8
0
  6
CONTINUOUS
 62
     7
 10
-321.21021448682927
 20
35.895783354937109
 30
0.0
 11
-323.51961556358748
 21
35.895783354937109
 31
0.0
  0
LINE
  5
1FA
  8
0
  6
CONTINUOUS
 62
     7
 10
-323.51961556358748
 20
35.895783354937109
 30
0.0
 11
-324.67431610196837
 21
33.895783354937109
 31
0.0
  0
LINE
  5
1FB
  8
0
  6
CONTINUOUS
 62
     7
 10
-324.67431610196837
 20
33.895783354937109
 30
0.0
 11
-323.51961556358748
 21
31.895783354937109
 31
0.0
  0
LINE
  5
1FC
  8
0
  6
CONTINUOUS
 62
     7
 10
-323.51961556358748
 20
31.895783354937109
 30
0.0
 11
-321.21021448682927
 21
31.895783354937109
 31
0.0
  0
LINE
  5
1FD
  8
0
  6
CONTINUOUS
 62
     7
 10
-227.7102144868293
 20
55.395783354937102
 30
0.0
 11
-226.55551394844929
 21
57.395783354937102
 31
0.0
  0
LINE
  5
1FE
  8
0
  6
CONTINUOUS
 62
     7
 10
-226.55551394844929
 20
57.395783354937102
 30
0.0
 11
-227.7102144868293
 21
59.395783354937102
 31
0.0
  0
LINE
  5
1FF
  8
0
  6
CONTINUOUS
 62
     7
 10
-227.7102144868293
 20
59.395783354937102
 30
0.0
 11
-230.01961556358751
 21
59.395783354937102
 31
0.0
  0
LINE
  5
200
  8
0
  6
CONTINUOUS
 62
     7
 10
-230.01961556358751
 20
59.395783354937102
 30
0.0
 11
-231.1743161019684
 21
57.395783354937102
 31
0.0
  0
LINE
  5
201
  8
0
  6
CONTINUOUS
 62
     7
 10
-231.1743161019684
 20
57.395783354937102
 30
0.0
 11
-230.01961556358751
 21
55.395783354937102
 31
0.0
  0
LINE
  5
202
  8
0
  6
CONTINUOUS
 62
     7
 10
-230.01961556358751
 20
55.395783354937102
 30
0.0
 11
-227.7102144868293
 21
55.395783354937102
 31
0.0
  0
LINE
  5
203
  8
0
  6
CONTINUOUS
 62
     7
 10
-352.6649150252095
 20
75.895783354937109
 30
0.0
 11
-352.6649150252095
 21
108.89578335493709
 31
0.0
  0
LINE
  5
204
  8
0
  6
CONTINUOUS
 62
     7
 10
-303.8649150252084
 20
27.09578335493693
 30
0.0
 11
-270.8649150252084
 21
27.09578335493693
 31
0.0
  0
LINE
  5
205
  8
0
  6
CONTINUOUS
 62
     7
 10
-254.27623989061601
 20
27.395783354937109
 30
0.0
 11
-244.8649150252084
 21
27.395783354937109
 31
0.0
  0
LINE
  5
206
  8
0
  6
CONTINUOUS
 62
     7
 10
-329.86491502520829
 20
27.395783354937109
 30
0.0
 11
-320.4535901598037
 21
27.395783354937109
 31
0.0
  0
LINE
  5
207
  8
0
  6
CONTINUOUS
 62
     7
 10
-349.24780716466267
 20
114.75998056379341
 30
0.0
 11
-351.1149150252084
 21
114.6457833549381
 31
0.0
  0
LINE
  5
208
  8
0
  6
CONTINUOUS
 62
     7
 10
-350.47632506218253
 20
112.1067255195963
 30
0.0
 11
-351.1149150252084
 21
112.14578335493709
 31
0.0
  0
LINE
  5
209
  8
0
  6
CONTINUOUS
 62
     7
 10
-347.10320933598069
 20
119.89114978616421
 30
0.0
 11
-351.1149150252084
 21
119.6457833549381
 31
0.0
  0
LINE
  5
20A
  8
0
  6
CONTINUOUS
 62
     7
 10
-348.7739245915181
 20
117.0026022462649
 30
0.0
 11
-351.1149150252084
 21
117.14578335493709
 31
0.0
  0
LINE
  5
20B
  8
0
  6
CONTINUOUS
 62
     7
 10
-341.19548427688721
 20
53.752481729906819
 30
0.0
 11
-351.1149150252084
 21
53.145783354938018
 31
0.0
  0
LINE
  5
20C
  8
0
  6
CONTINUOUS
 62
     7
 10
-337.32474537946462
 20
49.802340447083722
 30
0.0
 11
-351.1149150252084
 21
50.645783354937102
 31
0.0
  0
LINE
  5
20D
  8
0
  6
CONTINUOUS
 62
     7
 10
-345.38614115688029
 20
60.496170174973969
 30
0.0
 11
-351.1149150252084
 21
60.145783354938011
 31
0.0
  0
LINE
  5
20E
  8
0
  6
CONTINUOUS
 62
     7
 10
-342.80899095401378
 20
57.137771275971822
 30
0.0
 11
-351.1149150252084
 21
57.645783354937102
 31
0.0
  0
LINE
  5
20F
  8
0
  6
CONTINUOUS
 62
     7
 10
-348.37706773588963
 20
66.813237268725572
 30
0.0
 11
-351.1149150252084
 21
66.645783354938018
 31
0.0
  0
LINE
  5
210
  8
0
  6
CONTINUOUS
 62
     7
 10
-346.60978047762802
 20
63.870237521875922
 30
0.0
 11
-351.1149150252084
 21
64.145783354937109
 31
0.0
  0
LINE
  5
211
  8
0
  6
CONTINUOUS
 62
     7
 10
-350.47632506218253
 20
72.684841190277936
 30
0.0
 11
-351.1149150252084
 21
72.645783354938004
 31
0.0
  0
LINE
  5
212
  8
0
  6
CONTINUOUS
 62
     7
 10
-349.24276123241441
 20
70.031277523644846
 30
0.0
 11
-351.1149150252084
 21
70.145783354937109
 31
0.0
  0
LINE
  5
213
  8
0
  6
CONTINUOUS
 62
     7
 10
-265.1149150252084
 20
28.645783354936199
 30
0.0
 11
-265.0007178163558
 21
30.512891215483751
 31
0.0
  0
LINE
  5
214
  8
0
  6
CONTINUOUS
 62
     7
 10
-267.6149150252084
 20
28.645783354938018
 30
0.0
 11
-267.65397286055111
 21
29.284373317963901
 31
0.0
  0
LINE
  5
215
  8
0
  6
CONTINUOUS
 62
     7
 10
-260.1149150252084
 20
28.645783354936199
 30
0.0
 11
-259.86954859398139
 21
32.657489044167562
 31
0.0
  0
LINE
  5
216
  8
0
  6
CONTINUOUS
 62
     7
 10
-262.6149150252084
 20
28.645783354938018
 30
0.0
 11
-262.75809613388162
 21
30.98677378862935
 31
0.0
  0
LINE
  5
217
  8
0
  6
CONTINUOUS
 62
     7
 10
-309.72911223406459
 20
30.512891215483751
 30
0.0
 11
-309.6149150252084
 21
28.645783354936199
 31
0.0
  0
LINE
  5
218
  8
0
  6
CONTINUOUS
 62
     7
 10
-307.07585718986849
 20
29.284373317963901
 30
0.0
 11
-307.11491502520829
 21
28.645783354938018
 31
0.0
  0
LINE
  5
219
  8
0
  6
CONTINUOUS
 62
     7
 10
-314.86028145643633
 20
32.657489044167562
 30
0.0
 11
-314.61491502520829
 21
28.645783354936199
 31
0.0
  0
LINE
  5
21A
  8
0
  6
CONTINUOUS
 62
     7
 10
-311.97173391653803
 20
30.98677378862935
 30
0.0
 11
-312.1149150252084
 21
28.645783354938018
 31
0.0
  0
LINE
  5
21B
  8
0
  6
CONTINUOUS
 62
     7
 10
-233.5343457735315
 20
131.03908497996829
 30
0.0
 11
-223.61491502520749
 21
131.64578335493709
 31
0.0
  0
LINE
  5
21C
  8
0
  6
CONTINUOUS
 62
     7
 10
-237.40508467095501
 20
134.9892262627923
 30
0.0
 11
-223.6149150252084
 21
134.14578335493809
 31
0.0
  0
LINE
  5
21D
  8
0
  6
CONTINUOUS
 62
     7
 10
-229.3436888935374
 20
124.29539653490031
 30
0.0
 11
-223.61491502520749
 21
124.64578335493709
 31
0.0
  0
LINE
  5
21E
  8
0
  6
CONTINUOUS
 62
     7
 10
-231.9208390964057
 20
127.6537954339033
 30
0.0
 11
-223.6149150252084
 21
127.1457833549381
 31
0.0
  0
LINE
  5
21F
  8
0
  6
CONTINUOUS
 62
     7
 10
-226.35276231452991
 20
117.9783294411514
 30
0.0
 11
-223.61491502520749
 21
118.14578335493709
 31
0.0
  0
LINE
  5
220
  8
0
  6
CONTINUOUS
 62
     7
 10
-228.12004957279149
 20
120.9213291879983
 30
0.0
 11
-223.6149150252084
 21
120.6457833549381
 31
0.0
  0
LINE
  5
221
  8
0
  6
CONTINUOUS
 62
     7
 10
-224.25350498823701
 20
112.1067255195963
 30
0.0
 11
-223.61491502520749
 21
112.14578335493709
 31
0.0
  0
LINE
  5
222
  8
0
  6
CONTINUOUS
 62
     7
 10
-225.48706881800521
 20
114.7602891862294
 30
0.0
 11
-223.6149150252084
 21
114.6457833549381
 31
0.0
  0
LINE
  5
223
  8
0
  6
CONTINUOUS
 62
     7
 10
-225.48202288575689
 20
70.031586146082688
 30
0.0
 11
-223.61491502520749
 21
70.145783354937109
 31
0.0
  0
LINE
  5
224
  8
0
  6
CONTINUOUS
 62
     7
 10
-224.25350498823701
 20
72.684841190277936
 30
0.0
 11
-223.6149150252084
 21
72.645783354938004
 31
0.0
  0
LINE
  5
225
  8
0
  6
CONTINUOUS
 62
     7
 10
-227.62662071443879
 20
64.900416923711006
 30
0.0
 11
-223.61491502520749
 21
65.145783354937109
 31
0.0
  0
LINE
  5
226
  8
0
  6
CONTINUOUS
 62
     7
 10
-225.95590545890161
 20
67.788964463609361
 30
0.0
 11
-223.6149150252084
 21
67.645783354938004
 31
0.0
  0
LINE
  5
227
  8
0
  6
CONTINUOUS
 62
     7
 10
-270.3649150252084
 20
27.59578335493693
 30
0.0
 11
-270.3649150252084
 21
28.75813726396386
 31
0.0
  0
LINE
  5
228
  8
0
  6
CONTINUOUS
 62
     7
 10
-346.43112019047641
 20
121.7699053097891
 30
0.0
 11
-352.11491502520829
 21
125.05144578763939
 31
0.0
  0
LINE
  5
229
  8
0
  6
CONTINUOUS
 62
     7
 10
-223.72726893423521
 20
75.395783354937109
 30
0.0
 11
-222.56491502521001
 21
75.395783354937109
 31
0.0
  0
LINE
  5
22A
  8
0
  6
CONTINUOUS
 62
     7
 10
-304.36491502520829
 20
28.75813726396386
 30
0.0
 11
-304.36491502520829
 21
27.59578335493693
 31
0.0
  0
LINE
  5
22B
  8
0
  6
CONTINUOUS
 62
     7
 10
-352.1649150252095
 20
75.395783354937109
 30
0.0
 11
-351.00256111618347
 21
75.395783354937109
 31
0.0
  0
LINE
  5
22C
  8
0
  6
CONTINUOUS
 62
     7
 10
-337.00109134853369
 20
135.39578335493709
 30
0.0
 11
-351.8649150252084
 21
135.39578335493709
 31
0.0
  0
LINE
  5
22D
  8
0
  6
CONTINUOUS
 62
     7
 10
-351.00256111618347
 20
109.39578335493709
 30
0.0
 11
-352.1649150252095
 21
109.39578335493709
 31
0.0
  0
LINE
  5
22E
  8
0
  6
CONTINUOUS
 62
     7
 10
-352.36491502520829
 20
134.89578335493709
 30
0.0
 11
-352.36491502520829
 21
125.4844584895323
 31
0.0
  0
LINE
  5
22F
  8
0
  6
CONTINUOUS
 62
     7
 10
-244.3649150252084
 20
27.895783354937109
 30
0.0
 11
-244.3649150252084
 21
42.759607031615403
 31
0.0
  0
LINE
  5
230
  8
0
  6
CONTINUOUS
 62
     7
 10
-330.3649150252084
 20
42.759607031615403
 30
0.0
 11
-330.3649150252084
 21
27.895783354937109
 31
0.0
  0
LINE
  5
231
  8
0
  6
CONTINUOUS
 62
     7
 10
-222.56491502521001
 20
109.39578335493709
 30
0.0
 11
-223.72726893423521
 21
109.39578335493709
 31
0.0
  0
LINE
  5
232
  8
0
  6
CONTINUOUS
 62
     7
 10
-237.72873870188761
 20
49.395783354937102
 30
0.0
 11
-222.8649150252084
 21
49.395783354937102
 31
0.0
  0
LINE
  5
233
  8
0
  6
CONTINUOUS
 62
     7
 10
-244.3649150252084
 20
142.0319596782598
 30
0.0
 11
-244.3649150252084
 21
156.89578335493709
 31
0.0
  0
LINE
  5
234
  8
0
  6
CONTINUOUS
 62
     7
 10
-330.3649150252084
 20
142.03195967826159
 30
0.0
 11
-330.3649150252084
 21
156.89578335493709
 31
0.0
  0
LINE
  5
236
  8
0
  6
CONTINUOUS
 62
     7
 10
-316.73903698006029
 20
33.329578189668197
 30
0.0
 11
-320.02057745791149
 21
27.645783354937109
 31
0.0
  0
LINE
  5
237
  8
0
  6
CONTINUOUS
 62
     7
 10
-228.2987098599404
 20
63.021661400086067
 30
0.0
 11
-222.6149150252084
 21
59.740120922235782
 31
0.0
  0
LINE
  5
238
  8
0
  6
CONTINUOUS
 62
     7
 10
-254.7092525925089
 20
27.645783354937109
 30
0.0
 11
-257.99079307035743
 21
33.329578189669107
 31
0.0
  0
LINE
  5
239
  8
0
  6
CONTINUOUS
 62
     7
 10
-314.3649150252084
 20
157.6957833549373
 30
0.0
 11
-287.36491502520852
 21
157.6957833549373
 31
0.0
  0
LINE
  5
23A
  8
0
  6
CONTINUOUS
 62
     7
 10
-314.86491502520829
 20
152.46758012466179
 30
0.0
 11
-314.86491502520829
 21
157.1957833549373
 31
0.0
  0
LINE
  5
23B
  8
0
  6
CONTINUOUS
 62
     7
 10
-259.8649150252084
 20
152.46758012466179
 30
0.0
 11
-259.8649150252084
 21
157.1957833549373
 31
0.0
  0
LINE
  5
23C
  8
0
  6
CONTINUOUS
 62
     7
 10
-316.73094042899339
 20
151.96758012466179
 30
0.0
 11
-319.72057745791142
 21
157.14578335493709
 31
0.0
  0
LINE
  5
23D
  8
0
  6
CONTINUOUS
 62
     7
 10
-329.86491502520829
 20
157.39578335493709
 30
0.0
 11
-320.1535901598034
 21
157.39578335493709
 31
0.0
  0
LINE
  5
23E
  8
0
  6
CONTINUOUS
 62
     7
 10
-255.00925259250641
 20
157.14578335493709
 30
0.0
 11
-257.99888962142421
 21
151.96758012466179
 31
0.0
  0
LINE
  5
23F
  8
0
  6
CONTINUOUS
 62
     7
 10
-222.06491502521001
 20
75.895783354937109
 30
0.0
 11
-222.06491502521001
 21
108.89578335493709
 31
0.0
  0
LINE
  5
240
  8
0
  6
CONTINUOUS
 62
     7
 10
-222.3649150252084
 20
49.895783354937102
 30
0.0
 11
-222.3649150252084
 21
59.30710822034375
 31
0.0
  0
LINE
  5
241
  8
0
  6
CONTINUOUS
 62
     7
 10
-314.82317259470511
 20
157.39578335493709
 30
0.0
 11
-338.17091860746302
 21
157.39578335493709
 31
0.0
  0
LINE
  5
242
  8
0
  6
CONTINUOUS
 62
     7
 10
-222.3649150252084
 20
75.437525785441309
 30
0.0
 11
-222.3649150252084
 21
41.58977977268254
 31
0.0
  0
LINE
  5
243
  8
0
  6
CONTINUOUS
 62
     7
 10
-304.32317259470511
 20
27.395783354937109
 30
0.0
 11
-338.17091860746302
 21
27.395783354937109
 31
0.0
  0
LINE
  5
244
  8
0
  6
CONTINUOUS
 62
     7
 10
-352.36491502520829
 20
109.35404092443289
 30
0.0
 11
-352.36491502520829
 21
143.2017869371908
 31
0.0
  0
LINE
  5
245
  8
0
  6
CONTINUOUS
 62
     7
 10
-78.632857457109964
 20
127.67221431477689
 30
0.0
 11
104.3671515173708
 21
127.67210357129591
 31
0.0
  0
LINE
  5
246
  8
0
  6
CONTINUOUS
 62
     7
 10
-78.632857457109964
 20
124.2474099727106
 30
0.0
 11
104.3671515173708
 21
124.2472992292296
 31
0.0
  0
LINE
  5
247
  8
0
  6
CONTINUOUS
 62
     7
 10
-78.632857457109964
 20
117.93588182531531
 30
0.0
 11
104.3671515173708
 21
117.9357710818343
 31
0.0
  0
LINE
  5
248
  8
0
  6
CONTINUOUS
 62
     7
 10
-78.632857457109964
 20
120.9393044088139
 30
0.0
 11
104.3671515173708
 21
120.93919366533289
 31
0.0
  0
LINE
  5
249
  8
0
  6
CONTINUOUS
 62
     7
 10
-78.632857457109964
 20
130.9839509506493
 30
0.0
 11
104.3671515173708
 21
130.9838402071683
 31
0.0
  0
LINE
  5
24A
  8
0
  6
CONTINUOUS
 62
     7
 10
-78.632857457109964
 20
135.00229011114999
 30
0.0
 11
104.3671515173708
 21
135.00217936766899
 31
0.0
  0
LINE
  5
24D
  8
0
  6
CONTINUOUS
 62
     7
 10
180.36725151737079
 20
104.3958336651438
 30
0.0
 11
180.36725151737079
 21
80.395833665143812
 31
0.0
  0
LINE
  5
24E
  8
0
  6
CONTINUOUS
 62
     7
 10
181.36725151737079
 20
103.3958336651438
 30
0.0
 11
180.36725151737079
 21
104.3958336651438
 31
0.0
  0
LINE
  5
24F
  8
0
  6
CONTINUOUS
 62
     7
 10
181.36725151737079
 20
81.395833665143812
 30
0.0
 11
180.36725151737079
 21
80.395833665143812
 31
0.0
  0
LINE
  5
250
  8
0
  6
CONTINUOUS
 62
     7
 10
122.3672515173708
 20
146.89576633485609
 30
0.0
 11
121.8672515173709
 21
147.39576633485621
 31
0.0
  0
LINE
  5
251
  8
0
  6
CONTINUOUS
 62
     7
 10
115.8672515173709
 20
27.395834015597568
 30
0.0
 11
-76.632857457109836
 21
27.395944408624771
 31
0.0
  0
LINE
  5
252
  8
0
  6
CONTINUOUS
 62
     7
 10
116.3672515173708
 20
92.395833665143783
 30
0.0
 11
116.3672515173708
 21
27.895833314690329
 31
0.0
  0
LINE
  5
253
  8
0
  6
CONTINUOUS
 62
     7
 10
121.8672515173709
 20
37.395833665143783
 30
0.0
 11
122.3672515173708
 21
37.895833665143783
 31
0.0
  0
LINE
  5
254
  8
0
  6
CONTINUOUS
 62
     7
 10
122.3672515173708
 20
37.895833665143783
 30
0.0
 11
122.3672515173708
 21
92.395786745473785
 31
0.0
  0
LINE
  5
255
  8
0
  6
CONTINUOUS
 62
     7
 10
104.3671515173708
 20
141.80484034937351
 30
0.0
 11
-78.632857457109935
 21
141.80495109285451
 31
0.0
  0
LINE
  5
256
  8
0
  6
CONTINUOUS
 62
     7
 10
116.3671515173708
 20
123.7358336651438
 30
0.0
 11
116.3671515173708
 21
156.89583366514381
 31
0.0
  0
LINE
  5
257
  8
0
  6
CONTINUOUS
 62
     7
 10
104.3671515173708
 20
157.26653366514381
 30
0.0
 11
104.3671515173708
 21
27.64973366514381
 31
0.0
  0
LINE
  5
258
  8
0
  6
CONTINUOUS
 62
     7
 10
104.3671515173708
 20
157.39583366514381
 30
0.0
 11
115.8671515173708
 21
157.39583366514381
 31
0.0
  0
LINE
  5
259
  8
0
  6
CONTINUOUS
 62
     7
 10
-72.632857457109964
 20
157.39574440862481
 30
0.0
 11
-76.632857457109964
 21
157.39574440862481
 31
0.0
  0
LINE
  5
25A
  8
0
  6
CONTINUOUS
 62
     7
 10
-72.632857457109964
 20
27.395944408624771
 30
0.0
 11
-72.632857457109964
 21
157.39574440862481
 31
0.0
  0
LINE
  5
25B
  8
0
  6
CONTINUOUS
 62
     7
 10
-78.632857457109964
 20
155.39574440862481
 30
0.0
 11
-78.632857457109964
 21
29.395944408624771
 31
0.0
  0
LINE
  5
25C
  8
0
  6
CONTINUOUS
 62
     7
 10
-72.632357457109961
 20
157.39594440862481
 30
0.0
 11
104.3671515173708
 21
157.39583366514381
 31
0.0
  0
LINE
  5
25D
  8
0
  6
CONTINUOUS
 62
     7
 10
-72.632357457109961
 20
153.89594440862481
 30
0.0
 11
-72.632357457109961
 21
157.39594440862481
 31
0.0
  0
LINE
  5
25E
  8
0
  6
CONTINUOUS
 62
     7
 10
116.3672515173708
 20
41.589796417745447
 30
0.0
 11
104.3671515173708
 21
41.589796417745447
 31
0.0
  0
LINE
  5
25F
  8
0
  6
CONTINUOUS
 62
     7
 10
116.3671515173708
 20
143.2018035822546
 30
0.0
 11
104.3671515173708
 21
143.2018035822546
 31
0.0
  0
LINE
  5
260
  8
0
  6
CONTINUOUS
 62
     7
 10
104.3671515173708
 20
42.986825797373797
 30
0.0
 11
-78.632857457109935
 21
42.986936540854778
 31
0.0
  0
LINE
  5
261
  8
0
  6
CONTINUOUS
 62
     7
 10
181.36725151737079
 20
103.3958336651438
 30
0.0
 11
181.36725151737079
 21
81.395833665143812
 31
0.0
  0
LINE
  5
262
  8
0
  6
CONTINUOUS
 62
     7
 10
121.8672515173709
 20
37.395833665143783
 30
0.0
 11
116.3672515173708
 21
37.395833665143783
 31
0.0
  0
LINE
  5
263
  8
0
  6
CONTINUOUS
 62
     7
 10
121.8671515173708
 20
147.39583366514381
 30
0.0
 11
116.8671515173708
 21
147.39583366514381
 31
0.0
  0
LINE
  5
264
  8
0
  6
CONTINUOUS
 62
     7
 10
180.36725151737079
 20
80.395833665143812
 30
0.0
 11
122.3672515173708
 21
80.395833665143812
 31
0.0
  0
LINE
  5
265
  8
0
  6
CONTINUOUS
 62
     7
 10
122.3672515173708
 20
104.3958336651438
 30
0.0
 11
180.36725151737079
 21
104.3958336651438
 31
0.0
  0
LINE
  5
266
  8
0
  6
CONTINUOUS
 62
     7
 10
122.3672515173708
 20
92.395786745473785
 30
0.0
 11
122.3672515173708
 21
146.89576633485609
 31
0.0
  0
LINE
  5
267
  8
0
  6
CONTINUOUS
 62
     7
 10
122.3672515173708
 20
92.395786745473785
 30
0.0
 11
122.3672515173708
 21
104.8958336651438
 31
0.0
  0
LINE
  5
268
  8
0
  6
CONTINUOUS
 62
     7
 10
116.3672515173708
 20
92.395833665143783
 30
0.0
 11
116.3672515173708
 21
147.20001793717279
 31
0.0
  0
LINE
  5
269
  8
0
  6
CONTINUOUS
 62
     7
 10
-72.631746343509946
 20
157.39594440862481
 30
0.0
 11
-17.589503095619492
 21
157.39594440862481
 31
0.0
  0
LINE
  5
26A
  8
0
  6
CONTINUOUS
 62
     7
 10
-72.631746343508851
 20
157.39594440862481
 30
0.0
 11
-17.589503095619492
 21
157.39594440862481
 31
0.0
  0
LINE
  5
26B
  8
0
  6
DASH_CENTER
 62
     1
 10
186.36725151737079
 20
92.395800054017911
 30
0.0
 11
-128.33293584221531
 21
92.395743866220286
 31
0.0
  0
LINE
  5
26C
  8
0
  6
DASH_CENTER
 62
     1
 10
-41.63284848262915
 20
149.58427474806729
 30
0.0
 11
-41.63284848262915
 21
212.9259444086255
 31
0.0
  0
LINE
  5
26D
  8
0
  6
CONTINUOUS
 62
     7
 10
-78.632857457109935
 20
49.395943816854619
 30
0.0
 11
104.3671515173708
 21
49.395833073373652
 31
0.0
  0
LINE
  5
26E
  8
0
  6
CONTINUOUS
 62
     7
 10
-78.632857457109964
 20
59.595943816855957
 30
0.0
 11
104.3671515173708
 21
59.595833073374962
 31
0.0
  0
LINE
  5
26F
  8
0
  6
CONTINUOUS
 62
     7
 10
-78.632857457109964
 20
63.255816184405383
 30
0.0
 11
104.3671515173708
 21
63.255705440924388
 31
0.0
  0
LINE
  5
270
  8
0
  6
CONTINUOUS
 62
     7
 10
-78.632857457109935
 20
64.882405788050932
 30
0.0
 11
104.3671515173708
 21
64.882295044569943
 31
0.0
  0
LINE
  5
271
  8
0
  6
CONTINUOUS
 62
     7
 10
-78.632857457109964
 20
67.831311659107229
 30
0.0
 11
104.3671515173708
 21
67.831200915626226
 31
0.0
  0
LINE
  5
272
  8
0
  6
CONTINUOUS
 62
     7
 10
-78.632857457109964
 20
70.011781922436469
 30
0.0
 11
104.3671515173708
 21
70.011671178955496
 31
0.0
  0
LINE
  5
273
  8
0
  6
CONTINUOUS
 62
     7
 10
-78.632857457109836
 20
72.656732153591051
 30
0.0
 11
104.3671515173708
 21
72.656621410110048
 31
0.0
  0
LINE
  5
274
  8
0
  6
CONTINUOUS
 62
     7
 10
-78.632857457109964
 20
75.395910743480044
 30
0.0
 11
104.3671515173708
 21
75.39579999999907
 31
0.0
  0
LINE
  5
275
  8
0
  6
DASH_CENTER
 62
     1
 10
344.94280193460298
 20
36.887917676855572
 30
0.0
 11
336.45752056036451
 21
45.373199051094133
 31
0.0
  0
LINE
  5
276
  8
0
  6
CONTINUOUS
 62
     7
 10
228.4349196114583
 20
60.895799999999383
 30
0.0
 11
229.6849196114583
 21
63.060863509461413
 31
0.0
  0
LINE
  5
277
  8
0
  6
CONTINUOUS
 62
     7
 10
229.6849196114583
 20
63.060863509461413
 30
0.0
 11
232.1849196114583
 21
63.060863509461413
 31
0.0
  0
LINE
  5
278
  8
0
  6
CONTINUOUS
 62
     7
 10
232.1849196114583
 20
63.060863509461413
 30
0.0
 11
233.4349196114583
 21
60.895799999999383
 31
0.0
  0
LINE
  5
279
  8
0
  6
CONTINUOUS
 62
     7
 10
233.4349196114583
 20
60.895799999999383
 30
0.0
 11
232.1849196114583
 21
58.730736490538312
 31
0.0
  0
LINE
  5
27A
  8
0
  6
CONTINUOUS
 62
     7
 10
232.1849196114583
 20
58.730736490538312
 30
0.0
 11
229.6849196114583
 21
58.730736490538312
 31
0.0
  0
LINE
  5
27B
  8
0
  6
CONTINUOUS
 62
     7
 10
229.6849196114583
 20
58.730736490538312
 30
0.0
 11
228.4349196114583
 21
60.895799999999383
 31
0.0
  0
LINE
  5
27C
  8
0
  6
CONTINUOUS
 62
     7
 10
257.934919611456
 20
153.3957999999983
 30
0.0
 11
260.0999831209171
 21
152.1457999999983
 31
0.0
  0
LINE
  5
27D
  8
0
  6
CONTINUOUS
 62
     7
 10
260.0999831209171
 20
152.1457999999983
 30
0.0
 11
260.0999831209171
 21
149.6457999999983
 31
0.0
  0
LINE
  5
27E
  8
0
  6
CONTINUOUS
 62
     7
 10
260.0999831209171
 20
149.6457999999983
 30
0.0
 11
257.934919611456
 21
148.3957999999983
 31
0.0
  0
LINE
  5
27F
  8
0
  6
CONTINUOUS
 62
     7
 10
257.934919611456
 20
148.3957999999983
 30
0.0
 11
255.76985610199489
 21
149.6457999999983
 31
0.0
  0
LINE
  5
280
  8
0
  6
CONTINUOUS
 62
     7
 10
255.76985610199489
 20
149.6457999999983
 30
0.0
 11
255.76985610199489
 21
152.1457999999983
 31
0.0
  0
LINE
  5
281
  8
0
  6
CONTINUOUS
 62
     7
 10
255.76985610199489
 20
152.1457999999983
 30
0.0
 11
257.934919611456
 21
153.3957999999983
 31
0.0
  0
LINE
  5
282
  8
0
  6
CONTINUOUS
 62
     7
 10
340.2409231937113
 20
157.39580000000089
 30
0.0
 11
266.43491961145759
 21
157.39580000000089
 31
0.0
  0
LINE
  5
283
  8
0
  6
CONTINUOUS
 62
     7
 10
354.43491961145759
 20
143.2018035822546
 30
0.0
 11
354.43491961145759
 21
41.589796417745447
 31
0.0
  0
LINE
  5
284
  8
0
  6
CONTINUOUS
 62
     7
 10
309.60188762060397
 20
77.885686240347013
 30
0.0
 11
325.84161351696599
 21
61.645960343985038
 31
0.0
  0
LINE
  5
285
  8
0
  6
CONTINUOUS
 62
     7
 10
303.9450333711107
 20
72.228831990853692
 30
0.0
 11
320.1847592674726
 21
55.989106094492627
 31
0.0
  0
LINE
  5
286
  8
0
  6
CONTINUOUS
 62
     7
 10
320.1847592674726
 20
128.8024939055083
 30
0.0
 11
303.9450333711107
 21
112.5627680091454
 31
0.0
  0
LINE
  5
287
  8
0
  6
CONTINUOUS
 62
     7
 10
325.84161351696599
 20
123.1456396560159
 30
0.0
 11
309.60188762060397
 21
106.9059137596539
 31
0.0
  0
LINE
  5
288
  8
0
  6
CONTINUOUS
 62
     7
 10
350.43491961145833
 20
123.8957999999994
 30
0.0
 11
349.18491961145918
 21
121.73073649053831
 31
0.0
  0
LINE
  5
289
  8
0
  6
CONTINUOUS
 62
     7
 10
349.18491961145918
 20
121.73073649053831
 30
0.0
 11
346.68491961145918
 21
121.73073649053831
 31
0.0
  0
LINE
  5
28A
  8
0
  6
CONTINUOUS
 62
     7
 10
346.68491961145918
 20
121.73073649053831
 30
0.0
 11
345.43491961145833
 21
123.8957999999994
 31
0.0
  0
LINE
  5
28B
  8
0
  6
CONTINUOUS
 62
     7
 10
345.43491961145833
 20
123.8957999999994
 30
0.0
 11
346.68491961145918
 21
126.0608635094614
 31
0.0
  0
LINE
  5
28C
  8
0
  6
CONTINUOUS
 62
     7
 10
346.68491961145918
 20
126.0608635094614
 30
0.0
 11
349.18491961145918
 21
126.0608635094614
 31
0.0
  0
LINE
  5
28D
  8
0
  6
CONTINUOUS
 62
     7
 10
349.18491961145918
 20
126.0608635094614
 30
0.0
 11
350.43491961145833
 21
123.8957999999994
 31
0.0
  0
LINE
  5
28E
  8
0
  6
CONTINUOUS
 62
     7
 10
340.2409231937113
 20
27.395800000000019
 30
0.0
 11
289.4349196114577
 21
27.395800000000019
 31
0.0
  0
LINE
  5
28F
  8
0
  6
DASH_CENTER
 62
     1
 10
220.51410051164871
 20
92.395799999999994
 30
0.0
 11
357.43491961145759
 21
92.395799999999994
 31
0.0
  0
LINE
  5
290
  8
0
  6
CONTINUOUS
 62
     7
 10
224.4349196114577
 20
41.589796417745447
 30
0.0
 11
224.4349196114577
 21
143.2018035822546
 31
0.0
  0
LINE
  5
291
  8
0
  6
CONTINUOUS
 62
     7
 10
253.02822570594941
 20
61.645960343985038
 30
0.0
 11
269.26795160231143
 21
77.885686240347013
 31
0.0
  0
LINE
  5
292
  8
0
  6
CONTINUOUS
 62
     7
 10
258.68507995544269
 20
55.989106094492627
 30
0.0
 11
274.92480585180471
 21
72.228831990853692
 31
0.0
  0
LINE
  5
293
  8
0
  6
CONTINUOUS
 62
     7
 10
274.92480585180471
 20
112.5627680091454
 30
0.0
 11
258.68507995544269
 21
128.8024939055083
 31
0.0
  0
LINE
  5
294
  8
0
  6
CONTINUOUS
 62
     7
 10
269.26795160231143
 20
106.9059137596539
 30
0.0
 11
253.02822570594941
 21
123.1456396560159
 31
0.0
  0
LINE
  5
295
  8
0
  6
CONTINUOUS
 62
     7
 10
232.1849196114583
 20
63.060863509461413
 30
0.0
 11
233.4349196114583
 21
60.895799999999383
 31
0.0
  0
LINE
  5
296
  8
0
  6
CONTINUOUS
 62
     7
 10
229.6849196114583
 20
63.060863509461413
 30
0.0
 11
232.1849196114583
 21
63.060863509461413
 31
0.0
  0
LINE
  5
297
  8
0
  6
CONTINUOUS
 62
     7
 10
228.4349196114583
 20
60.895799999999383
 30
0.0
 11
229.6849196114583
 21
63.060863509461413
 31
0.0
  0
LINE
  5
298
  8
0
  6
CONTINUOUS
 62
     7
 10
229.6849196114583
 20
58.730736490538312
 30
0.0
 11
228.4349196114583
 21
60.895799999999383
 31
0.0
  0
LINE
  5
299
  8
0
  6
CONTINUOUS
 62
     7
 10
232.1849196114583
 20
58.730736490538312
 30
0.0
 11
229.6849196114583
 21
58.730736490538312
 31
0.0
  0
LINE
  5
29A
  8
0
  6
CONTINUOUS
 62
     7
 10
233.4349196114583
 20
60.895799999999383
 30
0.0
 11
232.1849196114583
 21
58.730736490538312
 31
0.0
  0
LINE
  5
29B
  8
0
  6
CONTINUOUS
 62
     7
 10
289.4349196114577
 20
27.395800000000019
 30
0.0
 11
238.62891602920399
 21
27.395800000000019
 31
0.0
  0
LINE
  5
29C
  8
0
  6
CONTINUOUS
 62
     7
 10
312.4349196114577
 20
157.39580000000089
 30
0.0
 11
238.62891602920399
 21
157.39580000000089
 31
0.0
  0
LINE
  5
29D
  8
0
  6
DASH_CENTER
 62
     1
 10
289.4349196114577
 20
24.395800000000019
 30
0.0
 11
289.4349196114577
 21
212.9259444086255
 31
0.0
  0
LINE
  5
29E
  8
0
  6
DASH_CENTER
 62
     1
 10
230.9349196114583
 20
54.595799999999201
 30
0.0
 11
230.9349196114583
 21
67.195799999999593
 31
0.0
  0
LINE
  5
29F
  8
0
  6
DASH_CENTER
 62
     1
 10
224.63491961145809
 20
60.895799999999383
 30
0.0
 11
237.23491961145851
 21
60.895799999999383
 31
0.0
  0
LINE
  5
2A0
  8
0
  6
DASH_CENTER
 62
     1
 10
257.934919611456
 20
157.19579999999939
 30
0.0
 11
257.934919611456
 21
144.595799999999
 31
0.0
  0
LINE
  5
2A1
  8
0
  6
DASH_CENTER
 62
     1
 10
264.23491961145618
 20
150.8957999999983
 30
0.0
 11
251.63491961145581
 21
150.8957999999983
 31
0.0
  0
LINE
  5
2A2
  8
0
  6
DASH_CENTER
 62
     1
 10
347.93491961145918
 20
117.5957999999992
 30
0.0
 11
347.93491961145918
 21
130.19579999999959
 31
0.0
  0
LINE
  5
2A3
  8
0
  6
DASH_CENTER
 62
     1
 10
341.63491961145911
 20
123.8957999999994
 30
0.0
 11
354.23491961145942
 21
123.8957999999994
 31
0.0
  0
LINE
  5
2A4
  8
0
  6
DASH_CENTER
 62
     1
 10
344.94280193460207
 20
147.90368232314529
 30
0.0
 11
336.45752056036349
 21
139.41840094890679
 31
0.0
  0
LINE
  5
2A5
  8
0
  6
DASH_CENTER
 62
     1
 10
233.92703728831231
 20
147.90368232314441
 30
0.0
 11
242.41231866255089
 21
139.4184009489058
 31
0.0
  0
LINE
  5
2A6
  8
0
  6
DASH_CENTER
 62
     1
 10
233.9270372883133
 20
36.887917676854663
 30
0.0
 11
242.4123186625518
 21
45.373199051093181
 31
0.0
  0
LINE
  5
2A7
  8
0
  6
DASH_CENTER
 62
     1
 10
101.3671515173708
 20
41.130558363976697
 30
0.0
 11
119.3672515173708
 21
41.130558363976697
 31
0.0
  0
LINE
  5
2A8
  8
0
  6
DASH_CENTER
 62
     1
 10
101.3671515173708
 20
143.66104163602509
 30
0.0
 11
119.3672515173708
 21
143.66104163602509
 31
0.0
  0
LINE
  5
2A9
  8
0
  6
DASH_CENTER
 62
     1
 10
-85.632857457109964
 20
57.395943816854633
 30
0.0
 11
-75.632857457109964
 21
57.395943816854633
 31
0.0
  0
LINE
  5
2AA
  8
0
  6
CONTINUOUS
 62
     7
 10
-79.132857457109964
 20
61.645943816854633
 30
0.0
 11
-79.132857457109964
 21
53.145943816854633
 31
0.0
  0
LINE
  5
2AB
  8
0
  6
CONTINUOUS
 62
     7
 10
-82.232857457109944
 20
61.645943816854633
 30
0.0
 11
-78.632857457109964
 21
61.645943816854633
 31
0.0
  0
LINE
  5
2AC
  8
0
  6
CONTINUOUS
 62
     7
 10
-82.632857457109964
 20
61.245943816854613
 30
0.0
 11
-82.232857457109944
 21
61.645943816854633
 31
0.0
  0
LINE
  5
2AD
  8
0
  6
CONTINUOUS
 62
     7
 10
-82.632857457109964
 20
53.545943816854262
 30
0.0
 11
-82.632857457109964
 21
61.245943816854613
 31
0.0
  0
LINE
  5
2AE
  8
0
  6
CONTINUOUS
 62
     7
 10
-82.232857457109944
 20
53.145943816854633
 30
0.0
 11
-82.632857457109964
 21
53.545943816854262
 31
0.0
  0
LINE
  5
2AF
  8
0
  6
CONTINUOUS
 62
     7
 10
-78.632857457109964
 20
53.145943816854633
 30
0.0
 11
-82.232857457109944
 21
53.145943816854633
 31
0.0
  0
LINE
  5
2B0
  8
0
  6
CONTINUOUS
 62
     7
 10
-78.632857457109964
 20
63.395783354937102
 30
0.0
 11
-78.632857457109964
 21
79.395783354937109
 31
0.0
  0
LINE
  5
2B1
  8
0
  6
CONTINUOUS
 62
     7
 10
-78.632857457109964
 20
105.39578335493709
 30
0.0
 11
-78.632857457109964
 21
121.39578335493709
 31
0.0
  0
LINE
  5
2B2
  8
0
  6
CONTINUOUS
 62
     7
 10
-78.632857457109964
 20
52.445783354936381
 30
0.0
 11
-78.632857457109964
 21
52.095783354936032
 31
0.0
  0
LINE
  5
2B3
  8
0
  6
CONTINUOUS
 62
     7
 10
-78.632857457109964
 20
54.895783354937102
 30
0.0
 11
-78.632857457109964
 21
52.445783354936381
 31
0.0
  0
LINE
  5
2B4
  8
0
  6
CONTINUOUS
 62
     7
 10
-78.632857457109964
 20
92.395783354937137
 30
0.0
 11
-78.632857457109964
 21
54.895783354937102
 31
0.0
  0
LINE
  5
2B5
  8
0
  6
CONTINUOUS
 62
     7
 10
-78.632857457109964
 20
132.345783354936
 30
0.0
 11
-78.632857457109964
 21
129.89578335493709
 31
0.0
  0
LINE
  5
2B6
  8
0
  6
CONTINUOUS
 62
     7
 10
-78.632857457109964
 20
129.89578335493709
 30
0.0
 11
-78.632857457109964
 21
92.395783354937137
 31
0.0
  0
LINE
  5
2B7
  8
0
  6
DASH_CENTER
 62
     1
 10
-16.732848482628629
 20
195.39594440863229
 30
0.0
 11
-16.732848482628629
 21
190.39594440863229
 31
0.0
  0
LINE
  5
2B8
  8
0
  6
DASH_CENTER
 62
     1
 10
-63.232848482628619
 20
190.39594440863229
 30
0.0
 11
-63.232848482628619
 21
195.39594440863229
 31
0.0
  0
LINE
  5
2B9
  8
0
  6
DASH_CENTER
 62
     1
 10
-265.86609132713488
 20
189.39594440863121
 30
0.0
 11
-265.86609132713488
 21
195.14064440863231
 31
0.0
  0
LINE
  5
2BA
  8
0
  6
DASH_CENTER
 62
     1
 10
-308.86609132713488
 20
189.39594440863121
 30
0.0
 11
-308.86609132713488
 21
195.14064440863231
 31
0.0
  0
LINE
  5
2BB
  8
0
  6
CONTINUOUS
 62
     7
 10
-312.38748823365842
 20
192.8959444086311
 30
0.0
 11
-262.3446944206114
 21
192.8959444086311
 31
0.0
  0
LINE
  5
2BC
  8
0
  6
CONTINUOUS
 62
     7
 10
-260.36609132713488
 20
158.0959444086246
 30
0.0
 11
-260.84484922224942
 21
191.41749390860869
 31
0.0
  0
LINE
  5
2BD
  8
0
  6
CONTINUOUS
 62
     7
 10
-313.88733343202028
 20
191.41749390860869
 30
0.0
 11
-314.36609132713488
 21
158.0959444086246
 31
0.0
  0
LINE
  5
2BE
  8
0
  6
CONTINUOUS
 62
     7
 10
-314.86609132713488
 20
158.09594440862921
 30
0.0
 11
-287.32990546942591
 21
158.09594440862921
 31
0.0
  0
LINE
  5
2BF
  8
0
  6
CONTINUOUS
 62
     7
 10
-314.86609132713488
 20
157.09594440862281
 30
0.0
 11
-314.86609132713488
 21
158.09594440862921
 31
0.0
  0
LINE
  5
2C0
  8
0
  6
CONTINUOUS
 62
     7
 10
-259.86609132713488
 20
158.09594440862921
 30
0.0
 11
-259.86609132713488
 21
157.09594440862281
 31
0.0
  0
LINE
  5
2C1
  8
0
  6
CONTINUOUS
 62
     7
 10
-287.39992458099039
 20
158.09594440862921
 30
0.0
 11
-259.86609132713488
 21
158.09594440862921
 31
0.0
  0
LINE
  5
2C2
  8
0
  6
CONTINUOUS
 62
     7
 10
262.91367750657128
 20
191.41734949998479
 30
0.0
 11
262.43491961145759
 21
158.09580000000059
 31
0.0
  0
LINE
  5
2C3
  8
0
  6
CONTINUOUS
 62
     7
 10
261.93491961145759
 20
157.39580000000089
 30
0.0
 11
261.93491961145861
 21
158.09580000000889
 31
0.0
  0
LINE
  5
2C4
  8
0
  6
CONTINUOUS
 62
     7
 10
261.93491961145861
 20
158.09580000000889
 30
0.0
 11
289.4349196114577
 21
158.09580000000889
 31
0.0
  0
LINE
  5
2C5
  8
0
  6
CONTINUOUS
 62
     7
 10
264.41352270493331
 20
192.89580000000731
 30
0.0
 11
289.4349196114577
 21
192.89580000000731
 31
0.0
  0
LINE
  5
2C6
  8
0
  6
CONTINUOUS
 62
     7
 10
262.50675869191627
 20
163.09580000000059
 30
0.0
 11
289.4349196114577
 21
163.09580000000059
 31
0.0
  0
LINE
  5
2C7
  8
0
  6
CONTINUOUS
 62
     7
 10
262.72227593329762
 20
178.09580000000071
 30
0.0
 11
289.4349196114577
 21
178.09580000000071
 31
0.0
  0
LINE
  5
2C8
  8
0
  6
CONTINUOUS
 62
     7
 10
289.4349196114577
 20
178.09580000000071
 30
0.0
 11
316.14756328961778
 21
178.09580000000071
 31
0.0
  0
LINE
  5
2C9
  8
0
  6
CONTINUOUS
 62
     7
 10
289.4349196114577
 20
163.09580000000059
 30
0.0
 11
316.36308053099913
 21
163.09580000000059
 31
0.0
  0
LINE
  5
2CA
  8
0
  6
CONTINUOUS
 62
     7
 10
289.4349196114577
 20
192.89580000000731
 30
0.0
 11
314.4563165179822
 21
192.89580000000731
 31
0.0
  0
LINE
  5
2CB
  8
0
  6
CONTINUOUS
 62
     7
 10
289.4349196114577
 20
158.09580000000889
 30
0.0
 11
316.93491961145691
 21
158.09580000000889
 31
0.0
  0
LINE
  5
2CC
  8
0
  6
CONTINUOUS
 62
     7
 10
316.93491961145691
 20
158.09580000000889
 30
0.0
 11
316.93491961145781
 21
157.39580000000089
 31
0.0
  0
LINE
  5
2CD
  8
0
  6
CONTINUOUS
 62
     7
 10
316.43491961145781
 20
158.09580000000059
 30
0.0
 11
315.95616171634413
 21
191.41734949998479
 31
0.0
  0
LINE
  5
2CE
  8
0
  6
DASH_CENTER
 62
     1
 10
267.93374330953128
 20
190.39594440863229
 30
0.0
 11
267.93374330953128
 21
195.39594440863229
 31
0.0
  0
LINE
  5
2CF
  8
0
  6
DASH_CENTER
 62
     1
 10
310.93374330953128
 20
190.39594440863229
 30
0.0
 11
310.93374330953128
 21
195.39594440863229
 31
0.0
  0
LINE
  5
2D0
  8
0
  6
DASH_CENTER
 62
     1
 10
-355.1649150252095
 20
92.395783354937137
 30
0.0
 11
-219.56491502521001
 21
92.395783354937137
 31
0.0
  0
LINE
  5
305
  8
0
  6
DASHED
 62
     7
 10
157.11725151737079
 20
-89.408535700290997
 30
0.0
 11
157.11725151737079
 21
-82.408535700290997
 31
0.0
  0
LINE
  5
306
  8
0
  6
DASHED
 62
     2
 10
157.41811839741001
 20
-89.408535700290997
 30
0.0
 11
157.41811839741001
 21
-82.408535700290997
 31
0.0
  0
LINE
  5
307
  8
0
  6
DASHED
 62
     7
 10
154.61725151737079
 20
-82.408535700290997
 30
0.0
 11
154.61725151737079
 21
-89.408535700290997
 31
0.0
  0
LINE
  5
308
  8
0
  6
DASHED
 62
     2
 10
154.31638463733151
 20
-82.408535700290997
 30
0.0
 11
154.31638463733151
 21
-89.408535700290997
 31
0.0
  0
LINE
  5
309
  8
0
  6
DASH_CENTER
 62
     1
 10
155.86725151737079
 20
-91.908535700290997
 30
0.0
 11
155.86725151737079
 21
-79.908535700290983
 31
0.0
  0
LINE
  5
30A
  8
0
  6
CONTINUOUS
 62
     7
 10
180.36725151737079
 20
-109.408535700291
 30
0.0
 11
181.36725151737079
 21
-108.408535700291
 31
0.0
  0
LINE
  5
30B
  8
0
  6
CONTINUOUS
 62
     7
 10
180.36725151737079
 20
-85.408535700290983
 30
0.0
 11
181.36725151737079
 21
-86.408535700290983
 31
0.0
  0
LINE
  5
30C
  8
0
  6
CONTINUOUS
 62
     7
 10
122.3672515173708
 20
-42.90853570029099
 30
0.0
 11
121.8672515173708
 21
-42.40853570029099
 31
0.0
  0
LINE
  5
30F
  8
0
  6
CONTINUOUS
 62
     7
 10
116.3672515173708
 20
-97.408535700290997
 30
0.0
 11
116.3672515173708
 21
-42.604351428261509
 31
0.0
  0
LINE
  5
310
  8
0
  6
CONTINUOUS
 62
     7
 10
122.3672515173708
 20
-97.408582619960384
 30
0.0
 11
122.3672515173708
 21
-84.908535700290997
 31
0.0
  0
LINE
  5
311
  8
0
  6
CONTINUOUS
 62
     7
 10
122.3672515173708
 20
-97.408582619960384
 30
0.0
 11
122.3672515173708
 21
-42.90853570029099
 31
0.0
  0
LINE
  5
312
  8
0
  6
CONTINUOUS
 62
     7
 10
122.3672515173708
 20
-85.408535700290983
 30
0.0
 11
126.3672515173708
 21
-85.408535700290983
 31
0.0
  0
LINE
  5
313
  8
0
  6
CONTINUOUS
 62
     7
 10
180.36725151737079
 20
-109.408535700291
 30
0.0
 11
122.3672515173708
 21
-109.408535700291
 31
0.0
  0
LINE
  5
314
  8
0
  6
CONTINUOUS
 62
     7
 10
121.8672515173708
 20
-42.40853570029099
 30
0.0
 11
116.8671515173706
 21
-42.40853570029099
 31
0.0
  0
LINE
  5
315
  8
0
  6
CONTINUOUS
 62
     7
 10
121.8672515173708
 20
-152.408535700291
 30
0.0
 11
116.3672515173708
 21
-152.408535700291
 31
0.0
  0
LINE
  5
316
  8
0
  6
CONTINUOUS
 62
     7
 10
181.36725151737079
 20
-86.408535700290983
 30
0.0
 11
181.36725151737079
 21
-89.408535700290997
 31
0.0
  0
LINE
  5
317
  8
0
  6
CONTINUOUS
 62
     7
 10
116.3671515173706
 20
-66.068535700290852
 30
0.0
 11
116.3671515173706
 21
-32.408535700290997
 31
0.0
  0
LINE
  5
318
  8
0
  6
DASH_CENTER
 62
     1
 10
183.86725151737079
 20
-97.408540855089583
 30
0.0
 11
113.8672515173708
 21
-97.408540855089555
 31
0.0
  0
LINE
  5
319
  8
0
  6
CONTINUOUS
 62
     7
 10
122.3672515173708
 20
-151.908535700291
 30
0.0
 11
122.3672515173708
 21
-97.408582619960384
 31
0.0
  0
LINE
  5
31A
  8
0
  6
CONTINUOUS
 62
     7
 10
121.8672515173708
 20
-152.408535700291
 30
0.0
 11
122.3672515173708
 21
-151.908535700291
 31
0.0
  0
LINE
  5
31B
  8
0
  6
CONTINUOUS
 62
     7
 10
116.3672515173708
 20
-97.408535700290997
 30
0.0
 11
116.3672515173708
 21
-162.408535700291
 31
0.0
  0
LINE
  5
31C
  8
0
  6
CONTINUOUS
 62
     7
 10
181.36725151737079
 20
-63.246395281146349
 30
0.0
 11
130.36725151737079
 21
-63.246395281146349
 31
0.0
  0
LINE
  5
31D
  8
0
  6
CONTINUOUS
 62
     7
 10
130.36725151737079
 20
-71.246395281146334
 30
0.0
 11
181.36725151737079
 21
-71.246395281146334
 31
0.0
  0
LINE
  5
31E
  8
0
  6
CONTINUOUS
 62
     7
 10
181.36725151737079
 20
-71.246395281146334
 30
0.0
 11
181.36725151737079
 21
-63.246395281146349
 31
0.0
  0
LINE
  5
31F
  8
0
  6
DASH_CENTER
 62
     1
 10
123.8212570666106
 20
-67.246395281146349
 30
0.0
 11
184.81151220805231
 21
-67.246395281146349
 31
0.0
  0
LINE
  5
320
  8
0
  6
CONTINUOUS
 62
     7
 10
130.36725151737079
 20
-63.246395281146349
 30
0.0
 11
130.36725151737079
 21
-71.246395281146334
 31
0.0
  0
LINE
  5
321
  8
0
  6
DASHED
 62
     2
 10
126.3672515173708
 20
-85.408535700290983
 30
0.0
 11
126.3672515173708
 21
-89.408535700290997
 31
0.0
  0
LINE
  5
322
  8
0
  6
CONTINUOUS
 62
     7
 10
126.3672515173708
 20
-85.408535700290983
 30
0.0
 11
130.36725151737079
 21
-85.408535700290983
 31
0.0
  0
LINE
  5
324
  8
0
  6
CONTINUOUS
 62
     7
 10
181.36725151737079
 20
-89.408535700290997
 30
0.0
 11
181.36725151737079
 21
-108.408535700291
 31
0.0
  0
LINE
  5
325
  8
0
  6
CONTINUOUS
 62
     7
 10
181.36725151737079
 20
-86.408535700290983
 30
0.0
 11
181.36725151737079
 21
-82.408535700290997
 31
0.0
  0
LINE
  5
326
  8
0
  6
CONTINUOUS
 62
     7
 10
181.36725151737079
 20
-82.408535700290997
 30
0.0
 11
130.36725151737079
 21
-82.408535700290997
 31
0.0
  0
LINE
  5
327
  8
0
  6
CONTINUOUS
 62
     7
 10
130.36725151737079
 20
-82.408535700290997
 30
0.0
 11
130.36725151737079
 21
-85.408535700290983
 31
0.0
  0
LINE
  5
328
  8
0
  6
CONTINUOUS
 62
     7
 10
130.36725151737079
 20
-85.408535700290983
 30
0.0
 11
180.36725151737079
 21
-85.408535700290983
 31
0.0
  0
LINE
  5
329
  8
0
  6
DASHED
 62
     7
 10
130.36725151737079
 20
-85.408535700290983
 30
0.0
 11
130.36725151737079
 21
-89.408535700290997
 31
0.0
  0
LINE
  5
32A
  8
0
  6
DASHED
 62
     2
 10
126.3672515173708
 20
-89.408535700290983
 30
0.0
 11
181.36725151737079
 21
-89.408535700290997
 31
0.0
  0
LINE
  5
32B
  8
0
  6
CONTINUOUS
 62
     7
 10
282.94321576050118
 20
-86.094834291930567
 30
0.0
 11
282.94321576050118
 21
-82.408542790915405
 31
0.0
  0
LINE
  5
32C
  8
0
  6
CONTINUOUS
 62
     7
 10
282.94321576050118
 20
-82.408542790915405
 30
0.0
 11
274.94321576050118
 21
-82.408542790915405
 31
0.0
  0
LINE
  5
32D
  8
0
  6
CONTINUOUS
 62
     7
 10
274.94321576050118
 20
-82.408542790915405
 30
0.0
 11
274.94321576050118
 21
-89.408542790915419
 31
0.0
  0
LINE
  5
32E
  8
0
  6
CONTINUOUS
 62
     7
 10
274.94321576050118
 20
-89.408542790915419
 30
0.0
 11
282.94321576050118
 21
-89.408542790915419
 31
0.0
  0
LINE
  5
32F
  8
0
  6
CONTINUOUS
 62
     7
 10
282.94321576050118
 20
-89.408542790915419
 30
0.0
 11
282.94321576050118
 21
-86.094834291930567
 31
0.0
  0
LINE
  5
330
  8
0
  6
DASH_CENTER
 62
     1
 10
265.05679595688127
 20
-97.408542790915362
 30
0.0
 11
293.2591251087822
 21
-97.408542790915362
 31
0.0
  0
LINE
  5
331
  8
0
  6
DASH_CENTER
 62
     1
 10
278.94321576050118
 20
-80.457939524337746
 30
0.0
 11
278.94321576050118
 21
-111.91251661630361
 31
0.0
  0
LINE
  5
332
  8
0
  6
DASH_CENTER
 62
     1
 10
155.86725151737079
 20
-73.746395281146334
 30
0.0
 11
155.86725151737079
 21
-60.746395281146349
 31
0.0
  0
ARC
  5
3A0
  8
0
  6
CONTINUOUS
 62
     7
 10
-92.002935841996205
 20
140.59574948429079
 30
0.0
 40
7.0
 50
90.0
 51
106.2570278966128
  0
ARC
  5
3A1
  8
0
  6
CONTINUOUS
 62
     7
 10
-93.682616471470425
 20
146.3558426244247
 30
0.0
 40
0.9999999999956715
 50
106.257027896568
 51
175.0000000002814
  0
ARC
  5
3A2
  8
0
  6
CONTINUOUS
 62
     7
 10
-92.002935841996205
 20
140.59574948429079
 30
0.0
 40
6.99999999999946
 50
73.742972103394422
 51
90.0
  0
ARC
  5
3A3
  8
0
  6
CONTINUOUS
 62
     7
 10
-90.323255212524714
 20
146.3558426244247
 30
0.0
 40
0.9999999999998523
 50
4.9999999997095594
 51
73.742972103331908
  0
ARC
  5
3A4
  8
0
  6
CONTINUOUS
 62
     7
 10
-107.5832552125231
 20
146.3558426244247
 30
0.0
 40
0.999999999998918
 50
4.999999999714249
 51
73.742972103380382
  0
ARC
  5
3A5
  8
0
  6
CONTINUOUS
 62
     7
 10
-109.26293584199639
 20
140.59574948429079
 30
0.0
 40
6.999999999999722
 50
73.742972103387061
 51
90.0
  0
ARC
  5
3A6
  8
0
  6
CONTINUOUS
 62
     7
 10
-110.94261647146971
 20
146.3558426244247
 30
0.0
 40
0.9999999999959343
 50
106.2570278966196
 51
175.00000000028109
  0
ARC
  5
3A7
  8
0
  6
CONTINUOUS
 62
     7
 10
-109.26293584199639
 20
140.59574948429079
 30
0.0
 40
7.0
 50
90.0
 51
106.2570278966131
  0
ARC
  5
3A8
  8
0
  6
CONTINUOUS
 62
     7
 10
-79.132857457096307
 20
133.50842604873861
 30
0.0
 40
0.4999999999928317
 50
270.9999999993646
 51
0.00000000031918
  0
ARC
  5
3A9
  8
0
  6
CONTINUOUS
 62
     7
 10
-79.132857457096307
 20
51.2988129415711
 30
0.0
 40
0.4999999999899813
 50
359.99999999947318
 51
89.000000000635325
  0
ARC
  5
3AA
  8
0
  6
CONTINUOUS
 62
     7
 10
-295.99491502520971
 20
140.5957833549879
 30
0.0
 40
7.0
 50
90.0
 51
106.2570278966127
  0
ARC
  5
3AB
  8
0
  6
CONTINUOUS
 62
     7
 10
-297.67459565468209
 20
146.3558764951209
 30
0.0
 40
0.999999999997054
 50
106.2570278966535
 51
175.00000000023829
  0
ARC
  5
3AC
  8
0
  6
CONTINUOUS
 62
     7
 10
-295.99491502520971
 20
140.5957833549879
 30
0.0
 40
6.9999999999997309
 50
73.742972103386847
 51
90.0
  0
ARC
  5
3AD
  8
0
  6
CONTINUOUS
 62
     7
 10
-294.3152343957355
 20
146.3558764951209
 30
0.0
 40
0.9999999999981195
 50
4.9999999997705586
 51
73.742972103443435
  0
ARC
  5
3AE
  8
0
  6
CONTINUOUS
 62
     7
 10
-277.0552343957371
 20
146.3558764951209
 30
0.0
 40
0.9999999999998749
 50
4.9999999997617586
 51
73.742972103393399
  0
ARC
  5
3AF
  8
0
  6
CONTINUOUS
 62
     7
 10
-278.73491502520949
 20
140.5957833549879
 30
0.0
 40
6.999999999999476
 50
73.742972103393981
 51
90.0
  0
ARC
  5
3B0
  8
0
  6
CONTINUOUS
 62
     7
 10
-280.41459565468369
 20
146.3558764951209
 30
0.0
 40
0.9999999999965608
 50
106.25702789655659
 51
175.000000000234
  0
ARC
  5
3B1
  8
0
  6
CONTINUOUS
 62
     7
 10
-278.73491502520949
 20
140.5957833549879
 30
0.0
 40
7.0
 50
90.0
 51
106.2570278966132
  0
ARC
  5
3B2
  8
0
  6
CONTINUOUS
 62
     7
 10
-287.36491502520869
 20
135.89578335493709
 30
0.0
 40
3.25
 50
180.0
 51
0.0
  0
ARC
  5
3B3
  8
0
  6
CONTINUOUS
 62
     7
 10
-249.11491502520869
 20
92.395783354937137
 30
0.0
 40
3.25
 50
90.0
 51
270.0
  0
ARC
  5
3B4
  8
0
  6
CONTINUOUS
 62
     7
 10
-325.61491502520869
 20
92.395783354937137
 30
0.0
 40
3.25
 50
270.0
 51
90.0
  0
ARC
  5
3B5
  8
0
  6
CONTINUOUS
 62
     7
 10
-287.3649150252084
 20
92.395783354937137
 30
0.0
 40
42.650000000000382
 50
110.998448253394
 51
130.4998829180148
  0
ARC
  5
3B6
  8
0
  6
CONTINUOUS
 62
     7
 10
-287.3649150252084
 20
92.395783354937137
 30
0.0
 40
42.649999999999331
 50
49.500117081985877
 51
69.001551746605571
  0
ARC
  5
3B7
  8
0
  6
CONTINUOUS
 62
     7
 10
-287.3649150252084
 20
92.395783354937137
 30
0.0
 40
39.65000000000073
 50
5.496528409831769
 51
43.122662824513277
  0
ARC
  5
3B8
  8
0
  6
CONTINUOUS
 62
     7
 10
-287.3649150252084
 20
92.395783354937137
 30
0.0
 40
39.650000000001178
 50
136.8773371754873
 51
174.50347159016829
  0
ARC
  5
3B9
  8
0
  6
CONTINUOUS
 62
     7
 10
-287.36491502520869
 20
54.145783354937137
 30
0.0
 40
3.25
 50
0.0
 51
180.0
  0
ARC
  5
3BA
  8
0
  6
CONTINUOUS
 62
     7
 10
-287.3649150252084
 20
92.395783354937137
 30
0.0
 40
39.650000000001043
 50
185.4965284098277
 51
264.50347159017173
  0
ARC
  5
3BB
  8
0
  6
CONTINUOUS
 62
     7
 10
-287.3649150252084
 20
92.395783354937137
 30
0.0
 40
39.649999999998933
 50
275.4965284098277
 51
354.5034715901719
  0
ARC
  5
3BC
  8
0
  6
CONTINUOUS
 62
     7
 10
-324.86491502520852
 20
66.395783354937109
 30
0.0
 40
3.000000000000171
 50
179.99999999999969
 51
270.0
  0
ARC
  5
3BD
  8
0
  6
CONTINUOUS
 62
     7
 10
-324.86491502520869
 20
118.39578335493709
 30
0.0
 40
3.0
 50
89.99999999999676
 51
180.0
  0
ARC
  5
3BE
  8
0
  6
CONTINUOUS
 62
     7
 10
-320.67031999190851
 20
123.39578335493709
 30
0.0
 40
2.0
 50
270.0
 51
317.05322441000749
  0
ARC
  5
3BF
  8
0
  6
CONTINUOUS
 62
     7
 10
-320.67031999190851
 20
61.39578335493713
 30
0.0
 40
2.0000000000469811
 50
42.946775591279433
 51
90.0
  0
ARC
  5
3C0
  8
0
  6
CONTINUOUS
 62
     7
 10
-318.36491502520852
 20
125.7011883217379
 30
0.0
 40
2.0000000000272431
 50
312.94677558998183
 51
0.00000000002565
  0
ARC
  5
3C1
  8
0
  6
CONTINUOUS
 62
     7
 10
-318.36491502520852
 20
59.090378388240012
 30
0.0
 40
2.0
 50
0.0
 51
47.053224408799167
  0
ARC
  5
3C2
  8
0
  6
CONTINUOUS
 62
     7
 10
-313.36491502520852
 20
54.895783354937102
 30
0.0
 40
3.0
 50
180.0
 51
270.0
  0
ARC
  5
3C3
  8
0
  6
CONTINUOUS
 62
     7
 10
-313.36491502520852
 20
129.89578335493709
 30
0.0
 40
3.0
 50
90.0
 51
180.0
  0
ARC
  5
3C4
  8
0
  6
CONTINUOUS
 62
     7
 10
-261.36491502520869
 20
129.89578335493709
 30
0.0
 40
3.0
 50
0.0
 51
90.0
  0
ARC
  5
3C5
  8
0
  6
CONTINUOUS
 62
     7
 10
-261.36491502520869
 20
54.895783354937137
 30
0.0
 40
3.0
 50
270.0
 51
0.0
  0
ARC
  5
3C6
  8
0
  6
CONTINUOUS
 62
     7
 10
-256.36491502520869
 20
59.090378388240943
 30
0.0
 40
1.9999999999801901
 50
132.94677558918309
 51
180.0
  0
ARC
  5
3C7
  8
0
  6
CONTINUOUS
 62
     7
 10
-254.05951005841041
 20
123.39578335493709
 30
0.0
 40
2.0000000000257021
 50
222.94677558996
 51
270.0
  0
ARC
  5
3C8
  8
0
  6
CONTINUOUS
 62
     7
 10
-254.05951005841041
 20
61.395783354937102
 30
0.0
 40
2.00000000000002
 50
89.999999999979664
 51
137.0532244087612
  0
ARC
  5
3C9
  8
0
  6
CONTINUOUS
 62
     7
 10
-249.86491502520869
 20
118.39578335493709
 30
0.0
 40
3.0
 50
0.0
 51
90.0
  0
ARC
  5
3CA
  8
0
  6
CONTINUOUS
 62
     7
 10
-249.86491502520869
 20
66.395783354937109
 30
0.0
 40
2.9999999999999929
 50
270.0
 51
0.0
  0
ARC
  5
3CB
  8
0
  6
CONTINUOUS
 62
     7
 10
-256.36491502520869
 20
125.7011883217388
 30
0.0
 40
2.0
 50
180.0
 51
227.05322440999589
  0
ARC
  5
3CC
  8
0
  6
CONTINUOUS
 62
     7
 10
-287.3649150252084
 20
92.395783354937137
 30
0.0
 40
43.500000000000803
 50
42.946775590004677
 51
47.053224410000922
  0
ARC
  5
3CD
  8
0
  6
CONTINUOUS
 62
     7
 10
-287.3649150252084
 20
92.395783354937137
 30
0.0
 40
43.500000000001393
 50
132.94677559000129
 51
137.05322440990901
  0
ARC
  5
3CE
  8
0
  6
CONTINUOUS
 62
     7
 10
-287.3649150252084
 20
92.395783354937137
 30
0.0
 40
43.49999999990785
 50
222.94677559003179
 51
227.0532244099617
  0
ARC
  5
3CF
  8
0
  6
CONTINUOUS
 62
     7
 10
-287.3649150252084
 20
92.395783354937137
 30
0.0
 40
43.499999999971593
 50
312.94677559013161
 51
317.05322441005421
  0
ARC
  5
3D0
  8
0
  6
CONTINUOUS
 62
     7
 10
-267.54459565468193
 20
192.5360088522728
 30
0.0
 40
0.999999999999728
 50
106.2570278966088
 51
158.9037616267519
  0
ARC
  5
3D1
  8
0
  6
CONTINUOUS
 62
     7
 10
-307.18523439573983
 20
192.5360088522728
 30
0.0
 40
1.000000000002307
 50
21.096238373191831
 51
73.742972103291123
  0
ARC
  5
3D2
  8
0
  6
DASH_CENTER
 62
     1
 10
-287.3649150252084
 20
92.395783354937137
 30
0.0
 40
72.499999999999915
 50
220.0196265408276
 51
229.98037345917339
  0
ARC
  5
3D3
  8
0
  6
DASH_CENTER
 62
     1
 10
-287.3649150252084
 20
92.395783354937137
 30
0.0
 40
72.499999999998764
 50
310.09872872022129
 51
319.90127127977809
  0
ARC
  5
3D4
  8
0
  6
DASH_CENTER
 62
     1
 10
-287.3649150252084
 20
92.395783354937137
 30
0.0
 40
72.499999999999517
 50
129.86141501983661
 51
140.13858498016401
  0
ARC
  5
3D5
  8
0
  6
DASH_CENTER
 62
     1
 10
-287.3649150252084
 20
92.395783354937137
 30
0.0
 40
72.499999999999872
 50
39.940521986670262
 51
50.059478013330377
  0
ARC
  5
3D6
  8
0
  6
CONTINUOUS
 62
     7
 10
-287.3649150252084
 20
92.395783354937137
 30
0.0
 40
82.499999999999844
 50
38.012279544351443
 51
51.987720455649097
  0
ARC
  5
3D7
  8
0
  6
CONTINUOUS
 62
     7
 10
-287.3649150252084
 20
92.395783354937137
 30
0.0
 40
82.500000000000398
 50
128.01227954435191
 51
141.9877204556486
  0
ARC
  5
3D8
  8
0
  6
CONTINUOUS
 62
     7
 10
-287.3649150252084
 20
92.395783354937137
 30
0.0
 40
82.500000000000369
 50
218.01227954435191
 51
231.98772045564809
  0
ARC
  5
3D9
  8
0
  6
CONTINUOUS
 62
     7
 10
-287.3649150252084
 20
92.395783354937137
 30
0.0
 40
82.499999999999247
 50
308.01227954435092
 51
321.98772045564812
  0
ARC
  5
3DA
  8
0
  6
CONTINUOUS
 62
     7
 10
-287.3649150252084
 20
92.395783354937137
 30
0.0
 40
65.499999999997982
 50
311.23057715486721
 51
318.76942284513109
  0
ARC
  5
3DB
  8
0
  6
CONTINUOUS
 62
     7
 10
-287.3649150252084
 20
92.395783354937137
 30
0.0
 40
65.500000000000242
 50
295.09738477997081
 51
296.0083198753585
  0
ARC
  5
3DC
  8
0
  6
CONTINUOUS
 62
     7
 10
-287.3649150252084
 20
92.395783354937137
 30
0.0
 40
65.500000000000625
 50
220.76188052993251
 51
228.76942284512981
  0
ARC
  5
3DD
  8
0
  6
CONTINUOUS
 62
     7
 10
-287.3649150252084
 20
92.395783354937137
 30
0.0
 40
65.500000000000583
 50
131.2305771548684
 51
138.7694228451326
  0
ARC
  5
3DE
  8
0
  6
CONTINUOUS
 62
     7
 10
-287.3649150252084
 20
92.395783354937137
 30
0.0
 40
65.499999999999133
 50
40.76188052993475
 51
48.76942284513342
  0
ARC
  5
3DF
  8
0
  6
CONTINUOUS
 62
     7
 10
-330.8649150252084
 20
42.759607031615403
 30
0.0
 40
0.5
 50
0.0
 51
48.769422845282278
  0
ARC
  5
3E0
  8
0
  6
CONTINUOUS
 62
     7
 10
-316.3060242781674
 20
33.079578189668197
 30
0.0
 40
0.4999999999995818
 50
63.991680124734138
 51
150.0000000000386
  0
ARC
  5
3E1
  8
0
  6
CONTINUOUS
 62
     7
 10
-258.42380577225032
 20
33.079578189668197
 30
0.0
 40
0.5000000000010373
 50
30.00000000005172
 51
116.00831987526
  0
ARC
  5
3E2
  8
0
  6
CONTINUOUS
 62
     7
 10
-243.8649150252084
 20
42.759607031615403
 30
0.0
 40
0.5000000000011287
 50
131.23057715511209
 51
180.0
  0
ARC
  5
3E3
  8
0
  6
CONTINUOUS
 62
     7
 10
-237.72873870188761
 20
48.895783354937102
 30
0.0
 40
0.5
 50
90.0
 51
138.76942284504659
  0
ARC
  5
3E4
  8
0
  6
CONTINUOUS
 62
     7
 10
-228.0487098599404
 20
63.454674101978107
 30
0.0
 40
0.5000000000000254
 50
153.99168012464301
 51
239.9999999999896
  0
ARC
  5
3E5
  8
0
  6
CONTINUOUS
 62
     7
 10
-243.8649150252084
 20
142.03195967826159
 30
0.0
 40
0.5
 50
180.0000000002052
 51
228.7694228450226
  0
ARC
  5
3E6
  8
0
  6
CONTINUOUS
 62
     7
 10
-346.68112019047641
 20
121.3368926078961
 30
0.0
 40
0.4999999999990933
 50
333.9916801245945
 51
0.0
  0
ARC
  5
3E7
  8
0
  6
CONTINUOUS
 62
     7
 10
-346.68112019047641
 20
121.3368926078961
 30
0.0
 40
0.5
 50
0.0
 51
60.000000000044238
  0
ARC
  5
3E8
  8
0
  6
CONTINUOUS
 62
     7
 10
-337.00109134853369
 20
135.89578335493709
 30
0.0
 40
0.5
 50
270.0
 51
318.76942284519862
  0
ARC
  5
3E9
  8
0
  6
CONTINUOUS
 62
     7
 10
-330.8649150252084
 20
142.0319596782598
 30
0.0
 40
0.4999999999992689
 50
311.2305771548701
 51
0.00000000020518
  0
ARC
  5
3EA
  8
0
  6
CONTINUOUS
 62
     7
 10
-351.1149150252084
 20
113.39578335493709
 30
0.0
 40
1.250000000001009
 50
90.0
 51
270.0
  0
ARC
  5
3EB
  8
0
  6
CONTINUOUS
 62
     7
 10
-287.3649150252084
 20
92.395783354937137
 30
0.0
 40
65.500000000001549
 50
158.57586398132489
 51
159.73191946136239
  0
ARC
  5
3EC
  8
0
  6
CONTINUOUS
 62
     7
 10
-351.1149150252084
 20
118.39578335493709
 30
0.0
 40
1.250000000001009
 50
90.0
 51
270.0
  0
ARC
  5
3ED
  8
0
  6
CONTINUOUS
 62
     7
 10
-351.1149150252084
 20
51.895783354937102
 30
0.0
 40
1.2500000000009091
 50
90.0
 51
270.0
  0
ARC
  5
3EE
  8
0
  6
CONTINUOUS
 62
     7
 10
-351.1149150252084
 20
58.895783354937102
 30
0.0
 40
1.2500000000009091
 50
90.0
 51
270.0
  0
ARC
  5
3EF
  8
0
  6
CONTINUOUS
 62
     7
 10
-351.1149150252084
 20
65.395783354937109
 30
0.0
 40
1.2500000000009091
 50
90.0
 51
270.0
  0
ARC
  5
3F0
  8
0
  6
CONTINUOUS
 62
     7
 10
-351.1149150252084
 20
71.395783354937109
 30
0.0
 40
1.2500000000009091
 50
90.0
 51
270.0
  0
ARC
  5
3F1
  8
0
  6
CONTINUOUS
 62
     7
 10
-287.3649150252084
 20
92.395783354937137
 30
0.0
 40
65.495373443755796
 50
200.26984944429739
 51
202.33859790769171
  0
ARC
  5
3F2
  8
0
  6
CONTINUOUS
 62
     7
 10
-287.3649150252084
 20
92.395783354937137
 30
0.0
 40
65.499999999999005
 50
206.08900729340081
 51
208.40922584757601
  0
ARC
  5
3F3
  8
0
  6
CONTINUOUS
 62
     7
 10
-287.3649150252084
 20
92.395783354937137
 30
0.0
 40
65.500000000000711
 50
212.80447988597211
 51
215.30598988094761
  0
ARC
  5
3F4
  8
0
  6
CONTINUOUS
 62
     7
 10
-266.3649150252084
 20
28.645783354937109
 30
0.0
 40
1.25
 50
179.99999999995831
 51
359.99999999995828
  0
ARC
  5
3F5
  8
0
  6
CONTINUOUS
 62
     7
 10
-287.3649150252084
 20
92.395783354937137
 30
0.0
 40
65.499999999999162
 50
290.2680805386367
 51
291.42413601867281
  0
ARC
  5
3F6
  8
0
  6
CONTINUOUS
 62
     7
 10
-261.3649150252084
 20
28.645783354937109
 30
0.0
 40
1.25
 50
179.99999999995831
 51
359.99999999995828
  0
ARC
  5
3F7
  8
0
  6
CONTINUOUS
 62
     7
 10
-308.36491502520829
 20
28.645783354937109
 30
0.0
 40
1.25
 50
180.00000000004169
 51
0.00000000004169
  0
ARC
  5
3F8
  8
0
  6
CONTINUOUS
 62
     7
 10
-287.3649150252084
 20
92.395783354937137
 30
0.0
 40
65.499999999998963
 50
248.57586398132409
 51
249.73191946136271
  0
ARC
  5
3F9
  8
0
  6
CONTINUOUS
 62
     7
 10
-313.36491502520829
 20
28.645783354937109
 30
0.0
 40
1.25
 50
180.00000000004169
 51
0.00000000004169
  0
ARC
  5
3FA
  8
0
  6
CONTINUOUS
 62
     7
 10
-223.6149150252084
 20
132.89578335493709
 30
0.0
 40
1.25
 50
270.00000000004172
 51
90.0
  0
ARC
  5
3FB
  8
0
  6
CONTINUOUS
 62
     7
 10
-223.6149150252084
 20
125.89578335493709
 30
0.0
 40
1.25
 50
270.00000000004172
 51
90.0
  0
ARC
  5
3FC
  8
0
  6
CONTINUOUS
 62
     7
 10
-223.6149150252084
 20
119.39578335493709
 30
0.0
 40
1.25
 50
270.00000000004172
 51
90.0
  0
ARC
  5
3FD
  8
0
  6
CONTINUOUS
 62
     7
 10
-223.6149150252084
 20
113.39578335493709
 30
0.0
 40
1.25
 50
270.00000000004172
 51
90.0
  0
ARC
  5
3FE
  8
0
  6
CONTINUOUS
 62
     7
 10
-223.6149150252084
 20
71.395783354937109
 30
0.0
 40
1.25
 50
270.00000000004172
 51
90.0
  0
ARC
  5
3FF
  8
0
  6
CONTINUOUS
 62
     7
 10
-287.3649150252084
 20
92.395783354937137
 30
0.0
 40
65.499999999999787
 50
285.37595604434199
 51
286.92316480563949
  0
ARC
  5
400
  8
0
  6
CONTINUOUS
 62
     7
 10
-287.3649150252084
 20
92.395783354937137
 30
0.0
 40
65.499999999999957
 50
153.9916801246415
 51
154.90261522003041
  0
ARC
  5
401
  8
0
  6
CONTINUOUS
 62
     7
 10
-287.3649150252084
 20
92.395783354937137
 30
0.0
 40
65.499999999998849
 50
163.07683519435869
 51
164.62404395565829
  0
ARC
  5
402
  8
0
  6
CONTINUOUS
 62
     7
 10
-287.3649150252084
 20
92.395783354937137
 30
0.0
 40
65.499999999998934
 50
15.375956044342329
 51
16.92316480564104
  0
ARC
  5
403
  8
0
  6
CONTINUOUS
 62
     7
 10
-287.3649150252084
 20
92.395783354937137
 30
0.0
 40
65.495373443752641
 50
20.26984944429929
 51
22.338597907693561
  0
ARC
  5
404
  8
0
  6
CONTINUOUS
 62
     7
 10
-287.3649150252084
 20
92.395783354937137
 30
0.0
 40
65.499999999999815
 50
26.089007293400449
 51
28.409225847576419
  0
ARC
  5
405
  8
0
  6
CONTINUOUS
 62
     7
 10
-287.3649150252084
 20
92.395783354937137
 30
0.0
 40
65.49999999999892
 50
32.804479885974089
 51
35.305989880948957
  0
ARC
  5
406
  8
0
  6
CONTINUOUS
 62
     7
 10
-287.3649150252084
 20
92.395783354937137
 30
0.0
 40
65.49999999999946
 50
343.07683519435977
 51
344.62404395565773
  0
ARC
  5
407
  8
0
  6
CONTINUOUS
 62
     7
 10
-287.3649150252084
 20
92.395783354937137
 30
0.0
 40
65.499999999997954
 50
338.57586398132628
 51
339.73191946136268
  0
ARC
  5
408
  8
0
  6
CONTINUOUS
 62
     7
 10
-223.6149150252084
 20
66.395783354937109
 30
0.0
 40
1.25
 50
270.00000000004172
 51
90.0
  0
ARC
  5
409
  8
0
  6
CONTINUOUS
 62
     7
 10
-287.3649150252084
 20
92.395783354937137
 30
0.0
 40
65.499999999999034
 50
333.99168012464111
 51
334.90261522003073
  0
ARC
  5
40A
  8
0
  6
CONTINUOUS
 62
     7
 10
-287.3649150252084
 20
92.395783354937137
 30
0.0
 40
65.500000000000298
 50
243.99168012464079
 51
244.90261522002999
  0
ARC
  5
40B
  8
0
  6
CONTINUOUS
 62
     7
 10
-287.3649150252084
 20
92.395783354937137
 30
0.0
 40
65.500000000001492
 50
195.37595604434159
 51
196.92316480564051
  0
ARC
  5
40C
  8
0
  6
CONTINUOUS
 62
     7
 10
-287.3649150252084
 20
92.395783354937137
 30
0.0
 40
65.499999999999986
 50
253.0768351943581
 51
254.62404395565721
  0
ARC
  5
40D
  8
0
  6
CONTINUOUS
 62
     7
 10
116.8671515173708
 20
147.89583366514381
 30
0.0
 40
0.5
 50
180.0
 51
270.0
  0
ARC
  5
40E
  8
0
  6
CONTINUOUS
 62
     7
 10
-76.632857457109964
 20
155.39574440862481
 30
0.0
 40
2.0
 50
90.0
 51
180.0
  0
ARC
  5
40F
  8
0
  6
CONTINUOUS
 62
     7
 10
-76.632857457109964
 20
29.395944408624771
 30
0.0
 40
2.0
 50
180.0
 51
270.00000000000318
  0
ARC
  5
410
  8
0
  6
DASH_CENTER
 62
     1
 10
289.4349196114577
 20
92.395799999999994
 30
0.0
 40
72.500000000000028
 50
310.25692610632512
 51
319.7430738936759
  0
ARC
  5
411
  8
0
  6
CONTINUOUS
 62
     7
 10
289.4349196114577
 20
92.395799999999994
 30
0.0
 40
82.500000000000398
 50
38.012279544351927
 51
51.987720455649011
  0
ARC
  5
412
  8
0
  6
CONTINUOUS
 62
     7
 10
289.4349196114577
 20
92.395799999999994
 30
0.0
 40
82.499999999999758
 50
308.01227954435137
 51
321.98772045564812
  0
ARC
  5
413
  8
0
  6
CONTINUOUS
 62
     7
 10
289.4349196114577
 20
92.395799999999994
 30
0.0
 40
55.0
 50
270.0
 51
90.0
  0
ARC
  5
414
  8
0
  6
CONTINUOUS
 62
     7
 10
289.4349196114577
 20
92.395799999999994
 30
0.0
 40
51.0
 50
270.0
 51
90.0
  0
ARC
  5
415
  8
0
  6
CONTINUOUS
 62
     7
 10
289.4349196114577
 20
92.395799999999994
 30
0.0
 40
22.5
 50
270.0
 51
90.0
  0
ARC
  5
416
  8
0
  6
CONTINUOUS
 62
     7
 10
289.4349196114577
 20
92.395799999999994
 30
0.0
 40
19.0
 50
270.0
 51
90.0
  0
ARC
  5
417
  8
0
  6
CONTINUOUS
 62
     7
 10
289.4349196114577
 20
92.395799999999994
 30
0.0
 40
17.0
 50
270.0
 51
90.0
  0
ARC
  5
418
  8
0
  6
CONTINUOUS
 62
     7
 10
289.4349196114577
 20
92.395799999999994
 30
0.0
 40
82.500000000000554
 50
128.01227954435109
 51
141.98772045564809
  0
ARC
  5
419
  8
0
  6
CONTINUOUS
 62
     7
 10
289.4349196114577
 20
92.395799999999994
 30
0.0
 40
82.500000000000369
 50
218.01227954435191
 51
231.98772045564851
  0
ARC
  5
41A
  8
0
  6
CONTINUOUS
 62
     7
 10
289.4349196114577
 20
92.395799999999994
 30
0.0
 40
55.0
 50
90.0
 51
270.0
  0
ARC
  5
41B
  8
0
  6
CONTINUOUS
 62
     7
 10
289.4349196114577
 20
92.395799999999994
 30
0.0
 40
51.0
 50
90.0
 51
270.0
  0
ARC
  5
41C
  8
0
  6
CONTINUOUS
 62
     7
 10
289.4349196114577
 20
92.395799999999994
 30
0.0
 40
22.499999999999989
 50
90.0
 51
270.0
  0
ARC
  5
41D
  8
0
  6
CONTINUOUS
 62
     7
 10
289.4349196114577
 20
92.395799999999994
 30
0.0
 40
18.999999999999989
 50
90.0
 51
270.0
  0
ARC
  5
41E
  8
0
  6
CONTINUOUS
 62
     7
 10
289.4349196114577
 20
92.395799999999994
 30
0.0
 40
16.999999999999989
 50
90.0
 51
270.0
  0
ARC
  5
41F
  8
0
  6
DASH_CENTER
 62
     1
 10
289.4349196114577
 20
92.395799999999994
 30
0.0
 40
72.499999999999915
 50
40.256926106325139
 51
49.74307389367592
  0
ARC
  5
420
  8
0
  6
DASH_CENTER
 62
     1
 10
289.4349196114577
 20
92.395799999999994
 30
0.0
 40
72.499999999999915
 50
130.25692610632521
 51
139.7430738936759
  0
ARC
  5
421
  8
0
  6
DASH_CENTER
 62
     1
 10
289.4349196114577
 20
92.395799999999994
 30
0.0
 40
72.500000000000043
 50
220.2569261063251
 51
229.74307389367581
  0
ARC
  5
426
  8
0
  6
CONTINUOUS
 62
     7
 10
-16.732848482628629
 20
186.77591571214541
 30
0.0
 40
7.0
 50
90.0
 51
106.25702789662191
  0
ARC
  5
427
  8
0
  6
CONTINUOUS
 62
     7
 10
-18.412529112101009
 20
192.53600885227669
 30
0.0
 40
0.9999999999980728
 50
106.2570278966907
 51
158.90376162692121
  0
ARC
  5
428
  8
0
  6
CONTINUOUS
 62
     7
 10
-16.732848482628629
 20
186.77591571214541
 30
0.0
 40
6.9999999999988427
 50
73.742972103385185
 51
90.0
  0
ARC
  5
429
  8
0
  6
CONTINUOUS
 62
     7
 10
-15.053167853156239
 20
192.53600885227669
 30
0.0
 40
0.9999999999979063
 50
21.096238373116339
 51
73.742972103359264
  0
ARC
  5
42A
  8
0
  6
CONTINUOUS
 62
     7
 10
-63.232848482628619
 20
186.77591571214541
 30
0.0
 40
6.9999999999985869
 50
73.742972103392361
 51
90.0
  0
ARC
  5
42B
  8
0
  6
CONTINUOUS
 62
     7
 10
-61.553167853156239
 20
192.53600885227669
 30
0.0
 40
0.9999999999979079
 50
21.0962383731163
 51
73.742972103409301
  0
ARC
  5
42C
  8
0
  6
CONTINUOUS
 62
     7
 10
-63.232848482628619
 20
186.77591571214541
 30
0.0
 40
7.0
 50
90.0
 51
106.25702789662191
  0
ARC
  5
42D
  8
0
  6
CONTINUOUS
 62
     7
 10
-64.912529112101012
 20
192.53600885227669
 30
0.0
 40
0.9999999999980728
 50
106.2570278966907
 51
158.9037616269211
  0
ARC
  5
42E
  8
0
  6
CONTINUOUS
 62
     7
 10
-264.18641069766431
 20
192.5360088522747
 30
0.0
 40
1.000000000001622
 50
21.096238373090038
 51
73.74297210326057
  0
ARC
  5
42F
  8
0
  6
CONTINUOUS
 62
     7
 10
-265.86609132713488
 20
186.77591571214259
 30
0.0
 40
6.999999999999714
 50
73.742972103387302
 51
90.0
  0
ARC
  5
430
  8
0
  6
CONTINUOUS
 62
     7
 10
-267.54577195660909
 20
192.5360088522747
 30
0.0
 40
0.9999999999971201
 50
106.25702789648621
 51
158.9037616267963
  0
ARC
  5
431
  8
0
  6
CONTINUOUS
 62
     7
 10
-265.86609132713488
 20
186.77591571214259
 30
0.0
 40
7.0
 50
90.0
 51
106.25702789660509
  0
ARC
  5
432
  8
0
  6
CONTINUOUS
 62
     7
 10
-310.54577195660909
 20
192.5360088522747
 30
0.0
 40
0.9999999999971201
 50
106.25702789648621
 51
158.9037616267963
  0
ARC
  5
433
  8
0
  6
CONTINUOUS
 62
     7
 10
-308.86609132713488
 20
186.77591571214259
 30
0.0
 40
7.0
 50
90.0
 51
106.25702789660509
  0
ARC
  5
434
  8
0
  6
CONTINUOUS
 62
     7
 10
-307.18641069766431
 20
192.5360088522747
 30
0.0
 40
1.000000000001622
 50
21.096238373090038
 51
73.74297210326057
  0
ARC
  5
435
  8
0
  6
CONTINUOUS
 62
     7
 10
-308.86609132713488
 20
186.77591571214259
 30
0.0
 40
6.999999999999714
 50
73.742972103387302
 51
90.0
  0
ARC
  5
436
  8
0
  6
CONTINUOUS
 62
     7
 10
267.93374330953128
 20
186.77591571214259
 30
0.0
 40
6.9999999999997309
 50
73.742972103386847
 51
90.0
  0
ARC
  5
437
  8
0
  6
CONTINUOUS
 62
     7
 10
269.6134239390019
 20
192.5360088522747
 30
0.0
 40
1.000000000001622
 50
21.096238373090038
 51
73.74297210326057
  0
ARC
  5
438
  8
0
  6
CONTINUOUS
 62
     7
 10
267.93374330953128
 20
186.77591571214259
 30
0.0
 40
7.0
 50
90.0
 51
106.25702789660509
  0
ARC
  5
439
  8
0
  6
CONTINUOUS
 62
     7
 10
266.25406268005707
 20
192.5360088522747
 30
0.0
 40
0.9999999999971201
 50
106.25702789648621
 51
158.9037616267963
  0
ARC
  5
43A
  8
0
  6
CONTINUOUS
 62
     7
 10
310.93374330953128
 20
186.77591571214259
 30
0.0
 40
7.0
 50
90.0
 51
106.25702789660509
  0
ARC
  5
43B
  8
0
  6
CONTINUOUS
 62
     7
 10
309.25406268005707
 20
192.5360088522747
 30
0.0
 40
0.9999999999971201
 50
106.25702789648621
 51
158.9037616267963
  0
ARC
  5
43C
  8
0
  6
CONTINUOUS
 62
     7
 10
310.93374330953128
 20
186.77591571214259
 30
0.0
 40
6.9999999999997309
 50
73.742972103386847
 51
90.0
  0
ARC
  5
43D
  8
0
  6
CONTINUOUS
 62
     7
 10
312.6134239390019
 20
192.5360088522747
 30
0.0
 40
1.000000000001622
 50
21.096238373090038
 51
73.74297210326057
  0
ARC
  5
43E
  8
0
  6
CONTINUOUS
 62
     7
 10
116.8671515173706
 20
-41.908535700290997
 30
0.0
 40
0.5
 50
180.0
 51
270.0
  0
ARC
  5
43F
  8
0
  6
CONTINUOUS
 62
     7
 10
130.36725151737079
 20
-67.246395281146349
 30
0.0
 40
4.0
 50
90.0
 51
180.0
  0
ARC
  5
440
  8
0
  6
CONTINUOUS
 62
     7
 10
130.36725151737079
 20
-67.246395281146349
 30
0.0
 40
3.9999999999999569
 50
180.0
 51
270.0
  0
ARC
  5
441
  8
0
  6
CONTINUOUS
 62
     7
 10
278.94321576050118
 20
-97.408542790915362
 30
0.0
 40
12.00000000000003
 50
109.47122063449039
 51
180.0
  0
ARC
  5
442
  8
0
  6
CONTINUOUS
 62
     7
 10
278.94321576050118
 20
-97.408542790915362
 30
0.0
 40
12.0
 50
180.0
 51
270.0
  0
ARC
  5
443
  8
0
  6
CONTINUOUS
 62
     7
 10
278.94321576050118
 20
-97.408542790915362
 30
0.0
 40
12.00000000000003
 50
270.0
 51
0.0
  0
ARC
  5
444
  8
0
  6
CONTINUOUS
 62
     7
 10
278.94321576050118
 20
-97.408542790915362
 30
0.0
 40
12.0
 50
0.0
 51
70.52877936550918
  0
CIRCLE
  5
45C
  8
0
  6
CONTINUOUS
 62
     7
 10
-250.8649150708205
 20
116.895783309316
 30
0.0
 40
3.5
  0
CIRCLE
  5
45D
  8
0
  6
CONTINUOUS
 62
     7
 10
-250.8649150708205
 20
116.895783309316
 30
0.0
 40
3.149999999997902
  0
CIRCLE
  5
45E
  8
0
  6
CONTINUOUS
 62
     7
 10
-250.8649150708205
 20
116.895783309316
 30
0.0
 40
4.0
  0
CIRCLE
  5
45F
  8
0
  6
CONTINUOUS
 62
     7
 10
-325.61491502520869
 20
92.395783354937137
 30
0.0
 40
2.75
  0
CIRCLE
  5
460
  8
0
  6
CONTINUOUS
 62
     7
 10
-287.36491502520869
 20
135.89578335493709
 30
0.0
 40
2.75
  0
CIRCLE
  5
461
  8
0
  6
CONTINUOUS
 62
     7
 10
-249.11491502520869
 20
92.395783354937137
 30
0.0
 40
2.75
  0
CIRCLE
  5
462
  8
0
  6
CONTINUOUS
 62
     7
 10
-287.36491502520869
 20
54.145783354937137
 30
0.0
 40
2.75
  0
CIRCLE
  5
463
  8
0
  6
CONTINUOUS
 62
     7
 10
-323.86491497959838
 20
116.8957833093169
 30
0.0
 40
4.0
  0
CIRCLE
  5
464
  8
0
  6
CONTINUOUS
 62
     7
 10
-323.86491497959838
 20
116.8957833093169
 30
0.0
 40
3.149999999999578
  0
CIRCLE
  5
465
  8
0
  6
CONTINUOUS
 62
     7
 10
-323.86491497959838
 20
116.8957833093169
 30
0.0
 40
3.5
  0
CIRCLE
  5
466
  8
0
  6
CONTINUOUS
 62
     7
 10
-250.8649150708205
 20
67.895783400662879
 30
0.0
 40
4.000000000000596
  0
CIRCLE
  5
467
  8
0
  6
CONTINUOUS
 62
     7
 10
-250.8649150708205
 20
67.895783400662879
 30
0.0
 40
3.149999999997191
  0
CIRCLE
  5
468
  8
0
  6
CONTINUOUS
 62
     7
 10
-250.8649150708205
 20
67.895783400662879
 30
0.0
 40
3.5
  0
CIRCLE
  5
469
  8
0
  6
CONTINUOUS
 62
     7
 10
-323.86491497959838
 20
67.895783400662879
 30
0.0
 40
3.5
  0
CIRCLE
  5
46A
  8
0
  6
CONTINUOUS
 62
     7
 10
-323.86491497959838
 20
67.895783400662879
 30
0.0
 40
3.149999999999578
  0
CIRCLE
  5
46B
  8
0
  6
CONTINUOUS
 62
     7
 10
-323.86491497959838
 20
67.895783400662879
 30
0.0
 40
4.0
  0
CIRCLE
  5
46C
  8
0
  6
CONTINUOUS
 62
     7
 10
320.93491961145941
 20
33.895800000001429
 30
0.0
 40
5.25
  0
CIRCLE
  5
46D
  8
0
  6
CONTINUOUS
 62
     7
 10
320.93491961145941
 20
33.895800000001429
 30
0.0
 40
4.2499999999990914
  0
CIRCLE
  5
46E
  8
0
  6
CONTINUOUS
 62
     7
 10
320.93491961145941
 20
33.895800000001429
 30
0.0
 40
5.0517499999996858
  0
CIRCLE
  5
46F
  8
0
  6
CONTINUOUS
 62
     7
 10
-338.63015666123363
 20
41.130541718911928
 30
0.0
 40
4.5
  0
CIRCLE
  5
470
  8
0
  6
CONTINUOUS
 62
     7
 10
-236.09967338918599
 20
41.130541718911928
 30
0.0
 40
4.5
  0
CIRCLE
  5
471
  8
0
  6
CONTINUOUS
 62
     7
 10
-338.63015666123363
 20
143.66102499096141
 30
0.0
 40
4.5
  0
CIRCLE
  5
472
  8
0
  6
CONTINUOUS
 62
     7
 10
-236.09967338918599
 20
143.66102499096141
 30
0.0
 40
4.5000000000008811
  0
CIRCLE
  5
473
  8
0
  6
CONTINUOUS
 62
     7
 10
-236.09967338918599
 20
143.66102499096141
 30
0.0
 40
4.5000000000008811
  0
CIRCLE
  5
474
  8
0
  6
CONTINUOUS
 62
     7
 10
-252.36491502520749
 20
150.89578335493709
 30
0.0
 40
3.8500000000003061
  0
CIRCLE
  5
475
  8
0
  6
CONTINUOUS
 62
     7
 10
-252.36491502520749
 20
150.89578335493709
 30
0.0
 40
4.25
  0
CIRCLE
  5
476
  8
0
  6
CONTINUOUS
 62
     7
 10
-345.86491502520749
 20
127.39578335493709
 30
0.0
 40
3.8500000000002932
  0
CIRCLE
  5
477
  8
0
  6
CONTINUOUS
 62
     7
 10
-345.86491502520749
 20
127.39578335493709
 30
0.0
 40
4.25
  0
CIRCLE
  5
478
  8
0
  6
CONTINUOUS
 62
     7
 10
-322.36491502520749
 20
33.895783354937109
 30
0.0
 40
3.850000000000366
  0
CIRCLE
  5
479
  8
0
  6
CONTINUOUS
 62
     7
 10
-322.36491502520749
 20
33.895783354937109
 30
0.0
 40
4.25
  0
CIRCLE
  5
47A
  8
0
  6
CONTINUOUS
 62
     7
 10
-228.86491502520749
 20
57.395783354937102
 30
0.0
 40
3.8500000000003709
  0
CIRCLE
  5
47B
  8
0
  6
CONTINUOUS
 62
     7
 10
-228.86491502520749
 20
57.395783354937102
 30
0.0
 40
4.25
  0
CIRCLE
  5
47C
  8
0
  6
CONTINUOUS
 62
     7
 10
230.9349196114583
 20
60.895799999999383
 30
0.0
 40
5.25
  0
CIRCLE
  5
47D
  8
0
  6
CONTINUOUS
 62
     7
 10
230.9349196114583
 20
60.895799999999383
 30
0.0
 40
4.25
  0
CIRCLE
  5
47E
  8
0
  6
CONTINUOUS
 62
     7
 10
230.9349196114583
 20
60.895799999999383
 30
0.0
 40
5.0517499999996023
  0
CIRCLE
  5
47F
  8
0
  6
CONTINUOUS
 62
     7
 10
257.934919611456
 20
150.8957999999983
 30
0.0
 40
5.25
  0
CIRCLE
  5
480
  8
0
  6
CONTINUOUS
 62
     7
 10
257.934919611456
 20
150.8957999999983
 30
0.0
 40
4.2499999999990914
  0
CIRCLE
  5
481
  8
0
  6
CONTINUOUS
 62
     7
 10
257.934919611456
 20
150.8957999999983
 30
0.0
 40
5.0517499999996858
  0
CIRCLE
  5
482
  8
0
  6
CONTINUOUS
 62
     7
 10
340.70016124748099
 20
41.130558363974842
 30
0.0
 40
4.5000000000001599
  0
CIRCLE
  5
483
  8
0
  6
CONTINUOUS
 62
     7
 10
347.93491961145918
 20
123.8957999999994
 30
0.0
 40
5.2500000000000133
  0
CIRCLE
  5
484
  8
0
  6
CONTINUOUS
 62
     7
 10
347.93491961145918
 20
123.8957999999994
 30
0.0
 40
4.2499999999990914
  0
CIRCLE
  5
485
  8
0
  6
CONTINUOUS
 62
     7
 10
347.93491961145918
 20
123.8957999999994
 30
0.0
 40
5.0517499999996138
  0
CIRCLE
  5
486
  8
0
  6
CONTINUOUS
 62
     7
 10
289.4349196114577
 20
92.395799999999994
 30
0.0
 40
11.00000000000011
  0
CIRCLE
  5
487
  8
0
  6
CONTINUOUS
 62
     7
 10
289.4349196114577
 20
92.395799999999994
 30
0.0
 40
12.00000000000011
  0
CIRCLE
  5
488
  8
0
  6
CONTINUOUS
 62
     7
 10
230.9349196114583
 20
60.895799999999383
 30
0.0
 40
5.25
  0
CIRCLE
  5
489
  8
0
  6
CONTINUOUS
 62
     7
 10
230.9349196114583
 20
60.895799999999383
 30
0.0
 40
4.25
  0
CIRCLE
  5
48A
  8
0
  6
CONTINUOUS
 62
     7
 10
230.9349196114583
 20
60.895799999999383
 30
0.0
 40
5.0517499999996023
  0
CIRCLE
  5
48B
  8
0
  6
CONTINUOUS
 62
     7
 10
289.4349196114577
 20
92.395799999999994
 30
0.0
 40
11.0
  0
CIRCLE
  5
48C
  8
0
  6
CONTINUOUS
 62
     7
 10
289.4349196114577
 20
92.395799999999994
 30
0.0
 40
12.0
  0
CIRCLE
  5
48D
  8
0
  6
CONTINUOUS
 62
     7
 10
340.70016124748292
 20
143.6610416360233
 30
0.0
 40
4.5000000000000746
  0
CIRCLE
  5
48E
  8
0
  6
CONTINUOUS
 62
     7
 10
238.16967797543441
 20
143.66104163602509
 30
0.0
 40
4.5000000000000977
  0
CIRCLE
  5
48F
  8
0
  6
CONTINUOUS
 62
     7
 10
238.16967797543251
 20
41.130558363976697
 30
0.0
 40
4.5000000000001972
  0
CIRCLE
  5
492
  8
0
  6
CONTINUOUS
 62
     2
 10
155.86725151737079
 20
-67.246395281146349
 30
0.0
 40
1.5
  0
CIRCLE
  5
493
  8
0
  6
CONTINUOUS
 62
     7
 10
155.86725151737079
 20
-67.246395281146349
 30
0.0
 40
1.25
  0
ARC
  5
496
  8
0
  6
CONTINUOUS
 62
     7
 10
-79.132857457109935
 20
136.0005395521805
 30
0.0
 40
0.5000000000002871
 50
270.99999999997522
 51
0.0
  0
ARC
  5
497
  8
0
  6
CONTINUOUS
 62
     7
 10
-79.132857457106311
 20
62.814441623419292
 30
0.0
 40
0.5
 50
0.0
 51
88.999999999920675
  0
ARC
  5
498
  8
0
  6
CONTINUOUS
 62
     7
 10
-121.6328574571063
 20
131.52309169870679
 30
0.0
 40
1.0
 50
90.0
 51
180.0
  0
ARC
  5
499
  8
0
  6
CONTINUOUS
 62
     7
 10
-121.6328574571063
 20
123.1470815425231
 30
0.0
 40
1.0
 50
90.0
 51
180.0
  0
ARC
  5
49A
  8
0
  6
CONTINUOUS
 62
     7
 10
-121.6328574571063
 20
119.0028425361628
 30
0.0
 40
1.0
 50
90.0
 51
180.0
  0
ARC
  5
49B
  8
0
  6
CONTINUOUS
 62
     7
 10
-121.6328574571063
 20
95.395749484293674
 30
0.0
 40
1.0
 50
90.0
 51
180.0
  0
ARC
  5
49C
  8
0
  6
CONTINUOUS
 62
     7
 10
-88.33285745710613
 20
121.0311200456448
 30
0.0
 40
0.3000000000009447
 50
90.999999999625132
 51
180.0
  0
ARC
  5
49D
  8
0
  6
CONTINUOUS
 62
     7
 10
-79.132857457106311
 20
121.99182850541931
 30
0.0
 40
0.5000000000001182
 50
271.00000000007981
 51
0.0
  0
ARC
  5
49E
  8
0
  6
CONTINUOUS
 62
     7
 10
-86.832857457106115
 20
133.59571614172299
 30
0.0
 40
0.2000000000016939
 50
270.0
 51
0.0
  0
ARC
  5
49F
  8
0
  6
CONTINUOUS
 62
     7
 10
-88.33285745710613
 20
132.60094030535521
 30
0.0
 40
0.2999999999992572
 50
90.999999999978201
 51
180.0
  0
ARC
  5
4A0
  8
0
  6
CONTINUOUS
 62
     7
 10
-120.6328574571063
 20
139.6897268267833
 30
0.0
 40
2.000000000001775
 50
98.130118431585643
 51
180.0
  0
ARC
  5
4A1
  8
0
  6
CONTINUOUS
 62
     7
 10
-87.632857457106297
 20
141.3957494842937
 30
0.0
 40
1.0
 50
0.0
 51
90.0
  0
ARC
  5
4A2
  8
0
  6
CONTINUOUS
 62
     7
 10
-121.6328574571063
 20
89.395749484291883
 30
0.0
 40
1.0
 50
180.0
 51
270.0
  0
ARC
  5
4A3
  8
0
  6
CONTINUOUS
 62
     7
 10
-121.6328574571063
 20
50.995749484241401
 30
0.0
 40
1.0
 50
180.0
 51
270.0
  0
ARC
  5
4A4
  8
0
  6
CONTINUOUS
 62
     7
 10
-88.33285745710613
 20
97.531120045644798
 30
0.0
 40
0.3000000000009589
 50
90.999999999625047
 51
180.0
  0
ARC
  5
4A5
  8
0
  6
CONTINUOUS
 62
     7
 10
-79.132857457106311
 20
98.491828505419292
 30
0.0
 40
0.5000000000000756
 50
271.00000000007981
 51
0.0
  0
ARC
  5
4A6
  8
0
  6
CONTINUOUS
 62
     7
 10
-79.132857457106311
 20
86.299670463165398
 30
0.0
 40
0.5
 50
0.0
 51
88.999999999918728
  0
ARC
  5
4A7
  8
0
  6
CONTINUOUS
 62
     7
 10
-88.33285745710613
 20
87.260378922940902
 30
0.0
 40
0.3000000000001961
 50
180.0
 51
269.00000000037528
  0
ARC
  5
4A8
  8
0
  6
CONTINUOUS
 62
     7
 10
-88.332857457110634
 20
49.69058704945499
 30
0.0
 40
0.2999999999992724
 50
180.0
 51
269.00000000002461
  0
ARC
  5
4A9
  8
0
  6
CONTINUOUS
 62
     7
 10
-79.132857457109935
 20
48.7909713169295
 30
0.0
 40
0.5
 50
0.0
 51
89.000000000024855
  0
ARC
  5
4AA
  8
0
  6
CONTINUOUS
 62
     7
 10
-88.33285745710613
 20
52.206298684953481
 30
0.0
 40
0.3000000000001961
 50
180.0
 51
269.00000000002751
  0
ARC
  5
4AB
  8
0
  6
CONTINUOUS
 62
     7
 10
-88.33285745710613
 20
63.760437837069979
 30
0.0
 40
0.3000000000001961
 50
180.0
 51
269.00000000037193
  0
ARC
  5
4AC
  8
0
  6
CONTINUOUS
 62
     7
 10
-274.36491502520869
 20
140.3957835407451
 30
0.0
 40
1.0
 50
0.0
 51
90.0
  0
ARC
  5
4AD
  8
0
  6
CONTINUOUS
 62
     7
 10
-300.36491502520869
 20
140.3957835407451
 30
0.0
 40
1.0
 50
90.0
 51
180.0
  0
ARC
  5
4AE
  8
0
  6
CONTINUOUS
 62
     7
 10
-313.76491502521009
 20
123.30633980415089
 30
0.0
 40
1.9999999999982541
 50
130.49988291805181
 51
180.0
  0
ARC
  5
4AF
  8
0
  6
CONTINUOUS
 62
     7
 10
-317.76491502521009
 20
120.86616269908841
 30
0.0
 40
1.9999999999985709
 50
316.87733717554511
 51
0.0
  0
ARC
  5
4B0
  8
0
  6
CONTINUOUS
 62
     7
 10
-303.36491502520869
 20
134.08058274272531
 30
0.0
 40
2.000000000001382
 50
290.99844825340278
 51
0.0
  0
ARC
  5
4B1
  8
0
  6
CONTINUOUS
 62
     7
 10
-271.36491502520869
 20
134.08058274272531
 30
0.0
 40
2.0
 50
180.0
 51
249.00155174662149
  0
ARC
  5
4B2
  8
0
  6
CONTINUOUS
 62
     7
 10
-260.96491502520809
 20
123.30633980415089
 30
0.0
 40
2.0
 50
0.0
 51
49.500117081932132
  0
ARC
  5
4B3
  8
0
  6
CONTINUOUS
 62
     7
 10
-256.96491502520809
 20
120.86616269908841
 30
0.0
 40
2.0
 50
180.0
 51
223.1226628244705
  0
ARC
  5
4B4
  8
0
  6
CONTINUOUS
 62
     7
 10
-300.36491502520869
 20
141.39578335493709
 30
0.0
 40
1.0
 50
90.0
 51
180.0
  0
ARC
  5
4B5
  8
0
  6
CONTINUOUS
 62
     7
 10
-274.36491502520869
 20
141.39578335493709
 30
0.0
 40
1.0
 50
0.0
 51
90.0
  0
ARC
  5
4B6
  8
0
  6
CONTINUOUS
 62
     7
 10
-328.52026097199831
 20
98.795783354937683
 30
0.0
 40
2.0
 50
270.0
 51
351.16082615850058
  0
ARC
  5
4B7
  8
0
  6
CONTINUOUS
 62
     7
 10
-328.52026097200007
 20
85.995783354937473
 30
0.0
 40
2.0000000000009601
 50
8.8391738414916698
 51
90.0
  0
ARC
  5
4B8
  8
0
  6
CONTINUOUS
 62
     7
 10
-293.76491502520832
 20
51.24043740814848
 30
0.0
 40
2.0
 50
0.0
 51
81.160826158527385
  0
ARC
  5
4B9
  8
0
  6
CONTINUOUS
 62
     7
 10
-280.96491502520809
 20
51.240437408146647
 30
0.0
 40
2.0000000000010441
 50
98.839173841517706
 51
180.0
  0
ARC
  5
4BA
  8
0
  6
CONTINUOUS
 62
     7
 10
-246.20956907841909
 20
85.995783354937473
 30
0.0
 40
2.0
 50
90.0
 51
171.16082615850399
  0
ARC
  5
4BB
  8
0
  6
CONTINUOUS
 62
     7
 10
-246.20956907841909
 20
98.795783354937683
 30
0.0
 40
1.999999999999976
 50
188.83917384149601
 51
270.0
  0
ARC
  5
4BC
  8
0
  6
CONTINUOUS
 62
     7
 10
-328.76491502520832
 20
95.795783354937683
 30
0.0
 40
1.0
 50
90.0
 51
180.0
  0
ARC
  5
4BD
  8
0
  6
CONTINUOUS
 62
     7
 10
-328.76491502520832
 20
88.995783354937487
 30
0.0
 40
1.0
 50
180.0
 51
270.0
  0
ARC
  5
4BE
  8
0
  6
CONTINUOUS
 62
     7
 10
-283.9649150252082
 20
50.995783354937487
 30
0.0
 40
1.0
 50
270.0
 51
0.0
  0
ARC
  5
4BF
  8
0
  6
CONTINUOUS
 62
     7
 10
-290.76491502520832
 20
50.995783354937487
 30
0.0
 40
1.0
 50
180.0
 51
270.0
  0
ARC
  5
4C0
  8
0
  6
CONTINUOUS
 62
     7
 10
-245.96491502520809
 20
88.995783354937487
 30
0.0
 40
1.0
 50
270.0
 51
0.0
  0
ARC
  5
4C1
  8
0
  6
CONTINUOUS
 62
     7
 10
-291.11491502520869
 20
140.8957835407451
 30
0.0
 40
0.5
 50
0.0
 51
90.0
  0
ARC
  5
4C2
  8
0
  6
CONTINUOUS
 62
     7
 10
-283.61491502520869
 20
140.8957835407451
 30
0.0
 40
0.5
 50
90.0
 51
180.0
  0
ARC
  5
4C3
  8
0
  6
CONTINUOUS
 62
     7
 10
-248.39492657255431
 20
96.145783354937137
 30
0.0
 40
0.5
 50
270.0
 51
5.4965284100468388
  0
ARC
  5
4C4
  8
0
  6
CONTINUOUS
 62
     7
 10
-248.39492657255431
 20
88.645783354937137
 30
0.0
 40
0.4999999999987262
 50
354.50347159024437
 51
90.0
  0
ARC
  5
4C5
  8
0
  6
CONTINUOUS
 62
     7
 10
-245.96491502520809
 20
95.795783354937683
 30
0.0
 40
1.0
 50
0.0
 51
90.0
  0
ARC
  5
4C6
  8
0
  6
CONTINUOUS
 62
     7
 10
-326.33490347786312
 20
96.145783354937137
 30
0.0
 40
0.5000000000007701
 50
174.5034715899528
 51
270.0
  0
ARC
  5
4C7
  8
0
  6
CONTINUOUS
 62
     7
 10
-326.33490347786312
 20
88.645783354937137
 30
0.0
 40
0.5
 50
90.0
 51
185.4965284097359
  0
ARC
  5
4C8
  8
0
  6
CONTINUOUS
 62
     7
 10
-291.11491502520869
 20
53.425794902285418
 30
0.0
 40
0.5000000000014085
 50
264.50347159028053
 51
0.0
  0
ARC
  5
4C9
  8
0
  6
CONTINUOUS
 62
     7
 10
-283.61491502520869
 20
53.425794902285418
 30
0.0
 40
0.5
 50
180.0
 51
275.49652840973238
  0
ARC
  5
4CA
  8
0
  6
CONTINUOUS
 62
     7
 10
-329.36491502520852
 20
87.895808399859163
 30
0.0
 40
1.0
 50
180.0
 51
269.99904335980341
  0
ARC
  5
4CB
  8
0
  6
CONTINUOUS
 62
     7
 10
-328.86491502520852
 20
85.895800051319881
 30
0.0
 40
0.9999999999998296
 50
0.00000000000081
 51
89.999043360031393
  0
ARC
  5
4CC
  8
0
  6
CONTINUOUS
 62
     7
 10
-329.36491502520852
 20
96.895808399578115
 30
0.0
 40
1.0000000000011571
 50
89.999043360031393
 51
180.0
  0
ARC
  5
4CD
  8
0
  6
CONTINUOUS
 62
     7
 10
-328.86491502520852
 20
98.895800051597291
 30
0.0
 40
0.9999999999993104
 50
269.99904335980341
 51
0.0
  0
ARC
  5
4CE
  8
0
  6
CONTINUOUS
 62
     7
 10
-293.86491502520852
 20
50.895783354937102
 30
0.0
 40
1.0
 50
0.0
 51
90.0
  0
ARC
  5
4CF
  8
0
  6
CONTINUOUS
 62
     7
 10
-291.86491502520852
 20
50.395783354937102
 30
0.0
 40
1.0
 50
180.0
 51
270.0
  0
ARC
  5
4D0
  8
0
  6
CONTINUOUS
 62
     7
 10
-280.86491502520869
 20
50.895783354937137
 30
0.0
 40
1.0
 50
90.0
 51
180.0
  0
ARC
  5
4D1
  8
0
  6
CONTINUOUS
 62
     7
 10
-282.86491502520869
 20
50.395783354937137
 30
0.0
 40
1.0
 50
270.0
 51
0.0
  0
ARC
  5
4D2
  8
0
  6
CONTINUOUS
 62
     7
 10
-245.86491502520869
 20
85.895800051319895
 30
0.0
 40
0.999999999998401
 50
90.000956640225866
 51
180.0
  0
ARC
  5
4D3
  8
0
  6
CONTINUOUS
 62
     7
 10
-245.36491502520869
 20
87.895808399858225
 30
0.0
 40
1.000000000001144
 50
270.00095664008262
 51
0.0
  0
ARC
  5
4D4
  8
0
  6
CONTINUOUS
 62
     7
 10
-245.36491502520869
 20
96.895808399578115
 30
0.0
 40
1.0
 50
0.0
 51
90.000956640225866
  0
ARC
  5
4D5
  8
0
  6
CONTINUOUS
 62
     7
 10
-245.86491502520869
 20
98.895800051598215
 30
0.0
 40
1.0
 50
180.0
 51
270.00095664008262
  0
ARC
  5
4D6
  8
0
  6
CONTINUOUS
 62
     7
 10
-329.36491502520943
 20
87.894510585582367
 30
0.0
 40
1.0
 50
180.0
 51
270.00000000005213
  0
ARC
  5
4D7
  8
0
  6
CONTINUOUS
 62
     7
 10
-328.18157828912518
 20
84.894510585582367
 30
0.0
 40
1.9999999999984079
 50
32.19770669750821
 51
90.0
  0
ARC
  5
4D8
  8
0
  6
CONTINUOUS
 62
     7
 10
-328.18157828912518
 20
99.894510585582381
 30
0.0
 40
2.0
 50
270.0
 51
327.771851392808
  0
ARC
  5
4D9
  8
0
  6
CONTINUOUS
 62
     7
 10
-329.36491502520943
 20
96.894510585582367
 30
0.0
 40
1.0
 50
89.999999999947889
 51
180.0
  0
ARC
  5
4DA
  8
0
  6
CONTINUOUS
 62
     7
 10
-246.54825176129279
 20
99.894510585581514
 30
0.0
 40
2.0000000000009028
 50
212.22814860715121
 51
270.0
  0
ARC
  5
4DB
  8
0
  6
CONTINUOUS
 62
     7
 10
-245.36491502520849
 20
96.894510585582367
 30
0.0
 40
1.0
 50
0.0
 51
90.000000000052125
  0
ARC
  5
4DC
  8
0
  6
CONTINUOUS
 62
     7
 10
-245.36491502520849
 20
87.894510585582367
 30
0.0
 40
1.0
 50
269.99999999994787
 51
0.0
  0
ARC
  5
4DD
  8
0
  6
CONTINUOUS
 62
     7
 10
-246.54825176129279
 20
84.894510585581486
 30
0.0
 40
2.0
 50
90.0
 51
147.80229330248829
  0
ARC
  5
4DE
  8
0
  6
CONTINUOUS
 62
     7
 10
-279.86364225585208
 20
51.579120091020357
 30
0.0
 40
2.000000000001664
 50
122.1977066975433
 51
180.0
  0
ARC
  5
4DF
  8
0
  6
CONTINUOUS
 62
     7
 10
-282.86364225585208
 20
50.395783354937137
 30
0.0
 40
1.0
 50
270.0
 51
0.00000000015592
  0
ARC
  5
4E0
  8
0
  6
CONTINUOUS
 62
     7
 10
-291.86364225585208
 20
50.395783354937137
 30
0.0
 40
1.0
 50
179.99999999984411
 51
270.0
  0
ARC
  5
4E1
  8
0
  6
CONTINUOUS
 62
     7
 10
-294.86364225585208
 20
51.579120091020357
 30
0.0
 40
2.0
 50
0.0
 51
57.771851392886639
  0
ARC
  5
4E2
  8
0
  6
CONTINUOUS
 62
     7
 10
-317.76491502521009
 20
120.86616269908841
 30
0.0
 40
1.9999999999985709
 50
316.87733717554511
 51
0.0
  0
ARC
  5
4E3
  8
0
  6
CONTINUOUS
 62
     7
 10
299.18718349695462
 20
199.7558000000042
 30
0.0
 40
0.75
 50
180.0
 51
270.0
  0
ARC
  5
4E4
  8
0
  6
CONTINUOUS
 62
     7
 10
299.18718349695462
 20
199.99439567725921
 30
0.0
 40
0.7499999999989023
 50
111.42200250271991
 51
180.0
  0
ARC
  5
4E5
  8
0
  6
CONTINUOUS
 62
     7
 10
-31.880584597132131
 20
199.9945400858841
 30
0.0
 40
0.7499999999989023
 50
111.42200250271981
 51
180.0
  0
ARC
  5
4E6
  8
0
  6
CONTINUOUS
 62
     7
 10
-31.880584597132131
 20
199.7559444086292
 30
0.0
 40
0.75
 50
180.0
 51
270.0
  0
ARC
  5
4E7
  8
0
  6
CONTINUOUS
 62
     7
 10
-277.61265113971149
 20
199.7559444086281
 30
0.0
 40
0.75
 50
180.0
 51
270.0
  0
ARC
  5
4E8
  8
0
  6
CONTINUOUS
 62
     7
 10
-277.61265113971149
 20
199.9945400858831
 30
0.0
 40
0.7499999999989079
 50
111.4220025027151
 51
180.0
  0
ARC
  5
4E9
  8
0
  6
CONTINUOUS
 62
     7
 10
-66.754731399579398
 20
191.39594440863229
 30
0.0
 40
1.5
 50
90.0
 51
178.32516200947029
  0
ARC
  5
4EA
  8
0
  6
CONTINUOUS
 62
     7
 10
-13.732848482628629
 20
191.39594440863229
 30
0.0
 40
1.5
 50
0.0
 51
89.999999999999602
  0
ARC
  5
4EB
  8
0
  6
CONTINUOUS
 62
     7
 10
-352.1649150252095
 20
108.89578335493709
 30
0.0
 40
0.5
 50
90.0
 51
180.0
  0
ARC
  5
4EC
  8
0
  6
CONTINUOUS
 62
     7
 10
-352.1649150252095
 20
75.895783354937109
 30
0.0
 40
0.5
 50
180.0
 51
270.0
  0
ARC
  5
4ED
  8
0
  6
CONTINUOUS
 62
     7
 10
-303.8649150252084
 20
27.59578335493693
 30
0.0
 40
0.5
 50
180.0
 51
270.0
  0
ARC
  5
4EE
  8
0
  6
CONTINUOUS
 62
     7
 10
-270.8649150252084
 20
27.59578335493693
 30
0.0
 40
0.5
 50
270.0
 51
0.0
  0
ARC
  5
4EF
  8
0
  6
CONTINUOUS
 62
     7
 10
-254.27623989061601
 20
27.895783354937109
 30
0.0
 40
0.5000000000005827
 50
209.9999999999614
 51
270.0
  0
ARC
  5
4F0
  8
0
  6
CONTINUOUS
 62
     7
 10
-244.8649150252084
 20
27.895783354937109
 30
0.0
 40
0.5
 50
270.0
 51
0.0
  0
ARC
  5
4F1
  8
0
  6
CONTINUOUS
 62
     7
 10
-320.4535901598037
 20
27.895783354937109
 30
0.0
 40
0.5
 50
270.0
 51
329.99999999999301
  0
ARC
  5
4F2
  8
0
  6
CONTINUOUS
 62
     7
 10
-329.86491502520829
 20
27.895783354937109
 30
0.0
 40
0.5
 50
180.0
 51
270.0
  0
ARC
  5
4F3
  8
0
  6
CONTINUOUS
 62
     7
 10
-347.13373360574752
 20
120.39021718537479
 30
0.0
 40
0.4999999999996189
 50
273.49999999993378
 51
334.90261522010059
  0
ARC
  5
4F4
  8
0
  6
CONTINUOUS
 62
     7
 10
-348.80444886128572
 20
116.5035348470543
 30
0.0
 40
0.4999999999997281
 50
338.57586398145997
 51
86.499999999962199
  0
ARC
  5
4F5
  8
0
  6
CONTINUOUS
 62
     7
 10
-349.27833143442939
 20
115.2590479630031
 30
0.0
 40
0.4999999999987252
 50
273.49999999994009
 51
339.73191946145153
  0
ARC
  5
4F6
  8
0
  6
CONTINUOUS
 62
     7
 10
-350.50684933194941
 20
111.6076581203866
 30
0.0
 40
0.5000000000019886
 50
343.07683519429031
 51
86.500000000053362
  0
ARC
  5
4F7
  8
0
  6
CONTINUOUS
 62
     7
 10
-350.50684933194941
 20
73.183908589490372
 30
0.0
 40
0.5000000000014663
 50
273.49999999992741
 51
16.92316480550873
  0
ARC
  5
4F8
  8
0
  6
CONTINUOUS
 62
     7
 10
-349.27328550218118
 20
69.532210124434229
 30
0.0
 40
0.4999999999992006
 50
20.269849444312442
 51
86.500000000072816
  0
ARC
  5
4F9
  8
0
  6
CONTINUOUS
 62
     7
 10
-348.40759200565742
 20
67.31230466793528
 30
0.0
 40
0.4999999999987984
 50
273.50000000005059
 51
22.338597907632259
  0
ARC
  5
4FA
  8
0
  6
CONTINUOUS
 62
     7
 10
-346.64030474739582
 20
63.371170122665312
 30
0.0
 40
0.5000000000022675
 50
26.08900729325806
 51
86.499999999955776
  0
ARC
  5
4FB
  8
0
  6
CONTINUOUS
 62
     7
 10
-345.41666542664723
 20
60.995237574187328
 30
0.0
 40
0.5000000000023777
 50
273.49999999992758
 51
28.409225847312719
  0
ARC
  5
4FC
  8
0
  6
CONTINUOUS
 62
     7
 10
-342.83951522378158
 20
56.638703876760289
 30
0.0
 40
0.5000000000007122
 50
32.8044798860155
 51
86.499999999962114
  0
ARC
  5
4FD
  8
0
  6
CONTINUOUS
 62
     7
 10
-341.2260085466549
 20
54.251549129118352
 30
0.0
 40
0.5000000000006
 50
273.5000000000249
 51
35.305989880752207
  0
ARC
  5
4FE
  8
0
  6
CONTINUOUS
 62
     7
 10
-337.35526964923139
 20
49.303273047872203
 30
0.0
 40
0.4999999999999157
 50
40.761880530016953
 51
86.500000000079154
  0
ARC
  5
4FF
  8
0
  6
CONTINUOUS
 62
     7
 10
-315.35934885564689
 20
32.6269647743989
 30
0.0
 40
0.4999999999997015
 50
3.500000000142109
 51
64.902615220025567
  0
ARC
  5
500
  8
0
  6
CONTINUOUS
 62
     7
 10
-311.47266651732548
 20
30.956249518862521
 30
0.0
 40
0.4999999999997248
 50
68.575863981459889
 51
176.50000000007989
  0
ARC
  5
501
  8
0
  6
CONTINUOUS
 62
     7
 10
-310.22817963327623
 20
30.482366945716919
 30
0.0
 40
0.5000000000006687
 50
3.49999999992691
 51
69.731919461180667
  0
ARC
  5
502
  8
0
  6
CONTINUOUS
 62
     7
 10
-306.57678979065781
 20
29.253849048197068
 30
0.0
 40
0.4999999999999451
 50
73.076835194322868
 51
176.50000000006551
  0
ARC
  5
503
  8
0
  6
CONTINUOUS
 62
     7
 10
-268.15304025976172
 20
29.253849048197068
 30
0.0
 40
0.4999999999996474
 50
3.4999999999340701
 51
106.9231648056584
  0
ARC
  5
504
  8
0
  6
CONTINUOUS
 62
     7
 10
-264.50165041714342
 20
30.482366945716919
 30
0.0
 40
0.5000000000000191
 50
110.2680805386055
 51
176.50000000007819
  0
ARC
  5
505
  8
0
  6
CONTINUOUS
 62
     7
 10
-263.25716353309218
 20
30.956249518862521
 30
0.0
 40
0.4999999999995905
 50
3.499999999934059
 51
111.42413601883121
  0
ARC
  5
506
  8
0
  6
CONTINUOUS
 62
     7
 10
-259.3704811947735
 20
32.6269647743989
 30
0.0
 40
0.4999999999989094
 50
115.0973847795084
 51
176.4999999998391
  0
ARC
  5
507
  8
0
  6
CONTINUOUS
 62
     7
 10
-227.59609644467201
 20
64.40134952450039
 30
0.0
 40
0.4999999999996437
 50
93.499999999927155
 51
154.90261522002561
  0
ARC
  5
508
  8
0
  6
CONTINUOUS
 62
     7
 10
-225.92538118913379
 20
68.288031862819977
 30
0.0
 40
0.5000000000007776
 50
158.57586398117141
 51
266.49999999995248
  0
ARC
  5
509
  8
0
  6
CONTINUOUS
 62
     7
 10
-225.4514986159864
 20
69.532518746871162
 30
0.0
 40
0.5000000000007789
 50
93.500000000346674
 51
159.7319194614534
  0
ARC
  5
50A
  8
0
  6
CONTINUOUS
 62
     7
 10
-224.22298071846839
 20
73.183908589490372
 30
0.0
 40
0.4999999999996332
 50
163.07683519442779
 51
266.49999999987432
  0
ARC
  5
50B
  8
0
  6
CONTINUOUS
 62
     7
 10
-224.22298071846839
 20
111.6076581203866
 30
0.0
 40
0.4999999999988346
 50
93.500000000144937
 51
196.92316480577321
  0
ARC
  5
50C
  8
0
  6
CONTINUOUS
 62
     7
 10
-225.45654454823841
 20
115.2593565854409
 30
0.0
 40
0.5000000000000657
 50
200.26984944427059
 51
266.50000000007577
  0
ARC
  5
50D
  8
0
  6
CONTINUOUS
 62
     7
 10
-226.3222380447622
 20
117.47926204193899
 30
0.0
 40
0.5000000000014883
 50
93.500000000021913
 51
202.3385979075191
  0
ARC
  5
50E
  8
0
  6
CONTINUOUS
 62
     7
 10
-228.08952530302381
 20
121.4203965872089
 30
0.0
 40
0.4999999999989205
 50
206.08900729344501
 51
266.49999999996868
  0
ARC
  5
50F
  8
0
  6
CONTINUOUS
 62
     7
 10
-229.31316462377049
 20
123.7963291356906
 30
0.0
 40
0.4999999999987447
 50
93.499999999949793
 51
208.4092258476831
  0
ARC
  5
510
  8
0
  6
CONTINUOUS
 62
     7
 10
-231.89031482663799
 20
128.15286283311389
 30
0.0
 40
0.5000000000001608
 50
212.80447988592351
 51
266.49999999996538
  0
ARC
  5
511
  8
0
  6
CONTINUOUS
 62
     7
 10
-233.50382150376561
 20
130.54001758075771
 30
0.0
 40
0.4999999999995616
 50
93.499999999826585
 51
215.30598988098669
  0
ARC
  5
512
  8
0
  6
CONTINUOUS
 62
     7
 10
-237.3745604011863
 20
135.48829366200209
 30
0.0
 40
0.5000000000007873
 50
220.76188052979859
 51
266.49999999984601
  0
ARC
  5
513
  8
0
  6
CONTINUOUS
 62
     7
 10
-223.72726893423521
 20
109.89578335493709
 30
0.0
 40
0.5000000000007298
 50
195.37595604433531
 51
270.0
  0
ARC
  5
514
  8
0
  6
CONTINUOUS
 62
     7
 10
-223.72726893423521
 20
74.895783354937095
 30
0.0
 40
0.5
 50
90.0
 51
164.62404395565531
  0
ARC
  5
515
  8
0
  6
CONTINUOUS
 62
     7
 10
-351.00256111618347
 20
109.89578335493709
 30
0.0
 40
0.5
 50
270.0
 51
344.6240439556405
  0
ARC
  5
516
  8
0
  6
CONTINUOUS
 62
     7
 10
-351.00256111618347
 20
74.895783354937095
 30
0.0
 40
0.4999999999999849
 50
15.375956044368889
 51
90.0
  0
ARC
  5
517
  8
0
  6
CONTINUOUS
 62
     7
 10
-304.86491502520829
 20
28.75813726396386
 30
0.0
 40
0.5
 50
0.0
 51
74.624043955723593
  0
ARC
  5
518
  8
0
  6
CONTINUOUS
 62
     7
 10
-269.8649150252084
 20
28.75813726396386
 30
0.0
 40
0.4999999999999301
 50
105.3759560443706
 51
180.0
  0
ARC
  5
519
  8
0
  6
CONTINUOUS
 62
     7
 10
-351.8649150252084
 20
134.89578335493709
 30
0.0
 40
0.5
 50
90.0
 51
180.0
  0
ARC
  5
51A
  8
0
  6
CONTINUOUS
 62
     7
 10
-351.8649150252084
 20
125.4844584895323
 30
0.0
 40
0.5
 50
180.0
 51
240.00000000003931
  0
ARC
  5
51B
  8
0
  6
CONTINUOUS
 62
     7
 10
-314.3649150252084
 20
157.1957833549373
 30
0.0
 40
0.5
 50
90.0
 51
180.0
  0
ARC
  5
51C
  8
0
  6
CONTINUOUS
 62
     7
 10
-260.3649150252084
 20
157.1957833549373
 30
0.0
 40
0.5
 50
0.0
 51
90.0
  0
ARC
  5
51D
  8
0
  6
CONTINUOUS
 62
     7
 10
-315.8649150252084
 20
152.46758012466179
 30
0.0
 40
1.000000000000475
 50
209.99999999998411
 51
0.0
  0
ARC
  5
51E
  8
0
  6
CONTINUOUS
 62
     7
 10
-329.86491502520829
 20
156.89578335493709
 30
0.0
 40
0.5
 50
90.0
 51
180.0
  0
ARC
  5
51F
  8
0
  6
CONTINUOUS
 62
     7
 10
-320.1535901598034
 20
156.89578335493709
 30
0.0
 40
0.499999999999795
 50
30.000000000013571
 51
90.0
  0
ARC
  5
520
  8
0
  6
CONTINUOUS
 62
     7
 10
-258.8649150252084
 20
152.46758012466179
 30
0.0
 40
1.0
 50
180.0
 51
329.99999999998971
  0
ARC
  5
521
  8
0
  6
CONTINUOUS
 62
     7
 10
-254.57623989061341
 20
156.89578335493709
 30
0.0
 40
0.5
 50
90.0
 51
150.00000000004511
  0
ARC
  5
522
  8
0
  6
CONTINUOUS
 62
     7
 10
-244.8649150252084
 20
156.89578335493709
 30
0.0
 40
0.5
 50
0.0
 51
90.0
  0
ARC
  5
523
  8
0
  6
CONTINUOUS
 62
     7
 10
-222.56491502521001
 20
108.89578335493709
 30
0.0
 40
0.5
 50
0.0
 51
90.0
  0
ARC
  5
524
  8
0
  6
CONTINUOUS
 62
     7
 10
-222.56491502521001
 20
75.895783354937109
 30
0.0
 40
0.5
 50
270.0
 51
0.0
  0
ARC
  5
525
  8
0
  6
CONTINUOUS
 62
     7
 10
-222.8649150252084
 20
49.895783354937102
 30
0.0
 40
0.5
 50
270.0
 51
0.0
  0
ARC
  5
526
  8
0
  6
CONTINUOUS
 62
     7
 10
-222.8649150252084
 20
59.30710822034375
 30
0.0
 40
0.5
 50
0.0
 51
59.999999999989697
  0
ARC
  5
527
  8
0
  6
CONTINUOUS
 62
     7
 10
327.96293386052599
 20
121.0243193124559
 30
0.0
 40
2.99999999999894
 50
36.614461352924359
 51
135.0
  0
ARC
  5
528
  8
0
  6
CONTINUOUS
 62
     7
 10
318.06343892391362
 20
130.9238142490683
 30
0.0
 40
2.999999999999782
 50
314.99999999998619
 51
53.385538647078683
  0
ARC
  5
529
  8
0
  6
CONTINUOUS
 62
     7
 10
327.96293386052599
 20
63.76728068754506
 30
0.0
 40
3.0000000000005058
 50
225.0
 51
323.38553864706171
  0
ARC
  5
52A
  8
0
  6
CONTINUOUS
 62
     7
 10
318.06343892391362
 20
53.867785750932633
 30
0.0
 40
2.9999999999996532
 50
306.61446135291152
 51
45.000000000013721
  0
ARC
  5
52B
  8
0
  6
CONTINUOUS
 62
     7
 10
311.72320796416312
 20
80.007006583906104
 30
0.0
 40
3.0000000000000111
 50
150.9328038152953
 51
224.9999999999992
  0
ARC
  5
52C
  8
0
  6
CONTINUOUS
 62
     7
 10
301.82371302755161
 20
70.107511647294601
 30
0.0
 40
2.9999999999992211
 50
45.0
 51
119.06719618472179
  0
ARC
  5
52D
  8
0
  6
CONTINUOUS
 62
     7
 10
301.82371302755161
 20
114.6840883527054
 30
0.0
 40
2.9999999999995861
 50
240.9328038152691
 51
314.99999999998772
  0
ARC
  5
52E
  8
0
  6
CONTINUOUS
 62
     7
 10
311.72320796416312
 20
104.7845934160939
 30
0.0
 40
2.9999999999999041
 50
134.99999999998849
 51
209.06719618471959
  0
ARC
  5
52F
  8
0
  6
CONTINUOUS
 62
     7
 10
250.90690536238941
 20
121.0243193124559
 30
0.0
 40
3.0000000000005058
 50
45.0
 51
143.38553864707589
  0
ARC
  5
530
  8
0
  6
CONTINUOUS
 62
     7
 10
260.80640029900269
 20
130.9238142490683
 30
0.0
 40
2.9999999999995728
 50
126.614461352937
 51
225.0
  0
ARC
  5
531
  8
0
  6
CONTINUOUS
 62
     7
 10
250.90690536238941
 20
63.76728068754506
 30
0.0
 40
2.999999999999504
 50
216.61446135293801
 51
315.0
  0
ARC
  5
532
  8
0
  6
CONTINUOUS
 62
     7
 10
260.80640029900269
 20
53.867785750932633
 30
0.0
 40
3.0000000000005009
 50
135.00000000000011
 51
233.38553864707279
  0
ARC
  5
533
  8
0
  6
CONTINUOUS
 62
     7
 10
267.14663125875228
 20
80.007006583906104
 30
0.0
 40
2.999999999999261
 50
315.00000000000068
 51
29.067196184705729
  0
ARC
  5
534
  8
0
  6
CONTINUOUS
 62
     7
 10
277.04612619536471
 20
70.107511647294601
 30
0.0
 40
2.9999999999999472
 50
60.93280381529528
 51
135.00000000001231
  0
ARC
  5
535
  8
0
  6
CONTINUOUS
 62
     7
 10
277.04612619536471
 20
114.6840883527054
 30
0.0
 40
3.0000000000005058
 50
225.0
 51
299.06719618471379
  0
ARC
  5
536
  8
0
  6
CONTINUOUS
 62
     7
 10
267.14663125875228
 20
104.7845934160939
 30
0.0
 40
3.0000000000003459
 50
330.93280381527933
 51
45.000000000011511
  0
ARC
  5
537
  8
0
  6
CONTINUOUS
 62
     7
 10
-312.38748823365842
 20
191.39594440863121
 30
0.0
 40
1.5
 50
90.0
 51
179.1768414166321
  0
ARC
  5
538
  8
0
  6
CONTINUOUS
 62
     7
 10
-262.3446944206114
 20
191.39594440863121
 30
0.0
 40
1.4999999999995901
 50
0.8231585833678599
 51
90.0
  0
ARC
  5
539
  8
0
  6
CONTINUOUS
 62
     7
 10
264.41352270493331
 20
191.39580000000731
 30
0.0
 40
1.5
 50
90.0
 51
179.17684141663219
  0
ARC
  5
53A
  8
0
  6
CONTINUOUS
 62
     7
 10
314.4563165179822
 20
191.39580000000731
 30
0.0
 40
1.4999999999995339
 50
0.8231585833678899
 51
90.0
  0
ENDSEC
  0
EOF
