  0
SECTION
  2
HEADER
  9
$ACADVER
  1
AC1009
  9
$INSBASE
 10
0.0
 20
0.0
 30
0.0
  9
$EXTMIN
 10
-212.95162129047461
 20
-140.00882176889741
 30
-0.0015258207003583
  9
$EXTMAX
 10
246.77423440599711
 20
209.49861584963779
 30
0.0000000349246037
  9
$LIMMIN
 10
0.0
 20
0.0
  9
$LIMMAX
 10
12.0
 20
9.0
  9
$ORTHOMODE
 70
     0
  9
$REGENMODE
 70
     1
  9
$FILLMODE
 70
     1
  9
$QTEXTMODE
 70
     0
  9
$MIRRTEXT
 70
     1
  9
$DRAGMODE
 70
     2
  9
$LTSCALE
 40
1.0
  9
$OSMODE
 70
    37
  9
$ATTMODE
 70
     1
  9
$TEXTSIZE
 40
0.2
  9
$TRACEWID
 40
0.05
  9
$TEXTSTYLE
  7
STANDARD
  9
$CLAYER
  8
0
  9
$CELTYPE
  6
BYLAYER
  9
$CECOLOR
 62
   256
  9
$DIMSCALE
 40
1.0
  9
$DIMASZ
 40
0.18
  9
$DIMEXO
 40
0.0625
  9
$DIMDLI
 40
0.38
  9
$DIMRND
 40
0.0
  9
$DIMDLE
 40
0.0
  9
$DIMEXE
 40
0.18
  9
$DIMTP
 40
0.0
  9
$DIMTM
 40
0.0
  9
$DIMTXT
 40
0.18
  9
$DIMCEN
 40
0.09
  9
$DIMTSZ
 40
0.0
  9
$DIMTOL
 70
     0
  9
$DIMLIM
 70
     0
  9
$DIMTIH
 70
     1
  9
$DIMTOH
 70
     1
  9
$DIMSE1
 70
     0
  9
$DIMSE2
 70
     0
  9
$DIMTAD
 70
     0
  9
$DIMZIN
 70
     0
  9
$DIMBLK
  1

  9
$DIMASO
 70
     1
  9
$DIMSHO
 70
     1
  9
$DIMPOST
  1

  9
$DIMAPOST
  1

  9
$DIMALT
 70
     0
  9
$DIMALTD
 70
     2
  9
$DIMALTF
 40
25.399999999999999
  9
$DIMLFAC
 40
1.0
  9
$DIMTOFL
 70
     0
  9
$DIMTVP
 40
0.0
  9
$DIMTIX
 70
     0
  9
$DIMSOXD
 70
     0
  9
$DIMSAH
 70
     0
  9
$DIMBLK1
  1

  9
$DIMBLK2
  1

  9
$DIMSTYLE
  2
STANDARD
  9
$DIMCLRD
 70
     0
  9
$DIMCLRE
 70
     0
  9
$DIMCLRT
 70
     0
  9
$DIMTFAC
 40
1.0
  9
$DIMGAP
 40
0.09
  9
$LUNITS
 70
     2
  9
$LUPREC
 70
     4
  9
$SKETCHINC
 40
0.1
  9
$FILLETRAD
 40
0.5
  9
$AUNITS
 70
     0
  9
$AUPREC
 70
     0
  9
$MENU
  1
.
  9
$ELEVATION
 40
0.0
  9
$PELEVATION
 40
0.0
  9
$THICKNESS
 40
0.0
  9
$LIMCHECK
 70
     0
  9
$BLIPMODE
 70
     0
  9
$CHAMFERA
 40
0.5
  9
$CHAMFERB
 40
0.5
  9
$SKPOLY
 70
     0
  9
$TDCREATE
 40
2457042.4714881019
  9
$TDUPDATE
 40
2457291.4124146071
  9
$TDINDWG
 40
0.0280301736
  9
$TDUSRTIMER
 40
0.0280301157
  9
$USRTIMER
 70
     1
  9
$ANGBASE
 50
0.0
  9
$ANGDIR
 70
     0
  9
$PDMODE
 70
     0
  9
$PDSIZE
 40
0.0
  9
$PLINEWID
 40
0.0
  9
$COORDS
 70
     1
  9
$SPLFRAME
 70
     0
  9
$SPLINETYPE
 70
     6
  9
$SPLINESEGS
 70
     8
  9
$ATTDIA
 70
     1
  9
$ATTREQ
 70
     1
  9
$HANDLING
 70
     1
  9
$HANDSEED
  5
2AE0
  9
$SURFTAB1
 70
     6
  9
$SURFTAB2
 70
     6
  9
$SURFTYPE
 70
     6
  9
$SURFU
 70
     6
  9
$SURFV
 70
     6
  9
$UCSNAME
  2

  9
$UCSORG
 10
0.0
 20
0.0
 30
0.0
  9
$UCSXDIR
 10
1.0
 20
0.0
 30
0.0
  9
$UCSYDIR
 10
0.0
 20
1.0
 30
0.0
  9
$PUCSNAME
  2

  9
$PUCSORG
 10
0.0
 20
0.0
 30
0.0
  9
$PUCSXDIR
 10
1.0
 20
0.0
 30
0.0
  9
$PUCSYDIR
 10
0.0
 20
1.0
 30
0.0
  9
$USERI1
 70
     0
  9
$USERI2
 70
     0
  9
$USERI3
 70
     0
  9
$USERI4
 70
     0
  9
$USERI5
 70
     0
  9
$USERR1
 40
18.100000000000001
  9
$USERR2
 40
0.0
  9
$USERR3
 40
0.0
  9
$USERR4
 40
0.0
  9
$USERR5
 40
0.0
  9
$WORLDVIEW
 70
     1
  9
$SHADEDGE
 70
     3
  9
$SHADEDIF
 70
    70
  9
$TILEMODE
 70
     1
  9
$MAXACTVP
 70
    64
  9
$PLIMCHECK
 70
     0
  9
$PEXTMIN
 10
1.0000000000000000E+020
 20
1.0000000000000000E+020
 30
1.0000000000000000E+020
  9
$PEXTMAX
 10
-1.0000000000000000E+020
 20
-1.0000000000000000E+020
 30
-1.0000000000000000E+020
  9
$PLIMMIN
 10
0.0
 20
0.0
  9
$PLIMMAX
 10
12.0
 20
9.0
  9
$UNITMODE
 70
     0
  9
$VISRETAIN
 70
     1
  9
$PLINEGEN
 70
     0
  9
$PSLTSCALE
 70
     1
  0
ENDSEC
  0
SECTION
  2
TABLES
  0
TABLE
  2
VPORT
 70
     1
  0
VPORT
  2
*ACTIVE
 70
     0
 10
0.0
 20
0.0
 11
1.0
 21
1.0
 12
16.911306557761201
 22
34.744897040370176
 13
0.0
 23
0.0
 14
0.5
 24
0.5
 15
0.5
 25
0.5
 16
0.0
 26
0.0
 36
1.0
 17
0.0
 27
0.0
 37
0.0
 40
351.91783374004228
 41
2.0195627157652472
 42
50.0
 43
0.0
 44
0.0
 50
0.0
 51
0.0
 71
     0
 72
   100
 73
     1
 74
     2
 75
     0
 76
     0
 77
     0
 78
     0
  0
ENDTAB
  0
TABLE
  2
LTYPE
 70
     2
  0
LTYPE
  2
CONTINUOUS
 70
     0
  3
Solid line
 72
    65
 73
     0
 40
0.0
  0
LTYPE
  2
DASH_CENTER
 70
     0
  3
Dash_Center
 72
    65
 73
     4
 40
14.0
 49
11.0
 49
-1.0
 49
1.0
 49
-1.0
  0
ENDTAB
  0
TABLE
  2
LAYER
 70
     1
  0
LAYER
  2
0
 70
     0
 62
     7
  6
CONTINUOUS
  0
ENDTAB
  0
TABLE
  2
STYLE
 70
     2
  0
STYLE
  2
STANDARD
 70
     0
 40
0.0
 41
1.0
 50
0.0
 71
     0
 42
0.2
  3
txt
  4

  0
ENDTAB
  0
TABLE
  2
VIEW
 70
     0
  0
ENDTAB
  0
TABLE
  2
UCS
 70
     0
  0
ENDTAB
  0
TABLE
  2
APPID
 70
     5
  0
APPID
  2
ACAD
 70
     0
  0
APPID
  2
ACADANNOTATIVE
 70
     0
  0
APPID
  2
ACAD_EXEMPT_FROM_CAD_STANDARDS
 70
     0
  0
APPID
  2
ACAD_MLEADERVER
 70
     0
  0
APPID
  2
ACAD_NAV_VCDISPLAY
 70
     0
  0
ENDTAB
  0
TABLE
  2
DIMSTYLE
 70
     2
  0
DIMSTYLE
  2
STANDARD
 70
     0
  3

  4

  5

  6

  7

 40
1.0
 41
0.18
 42
0.0625
 43
0.38
 44
0.18
 45
0.0
 46
0.0
 47
0.0
 48
0.0
140
0.18
141
0.09
142
0.0
143
25.399999999999999
144
1.0
145
0.0
146
1.0
147
0.09
 71
     0
 72
     0
 73
     1
 74
     1
 75
     0
 76
     0
 77
     0
 78
     0
170
     0
171
     2
172
     0
173
     0
174
     0
175
     0
176
     0
177
     0
178
     0
  0
ENDTAB
  0
ENDSEC
  0
SECTION
  2
BLOCKS
  0
BLOCK
  8
0
  2
$MODEL_SPACE
 70
     0
 10
0.0
 20
0.0
 30
0.0
  3
$MODEL_SPACE
  1

  0
ENDBLK
  5
2A20
  8
0
  0
BLOCK
 67
     1
  8
0
  2
$PAPER_SPACE
 70
     0
 10
0.0
 20
0.0
 30
0.0
  3
$PAPER_SPACE
  1

  0
ENDBLK
  5
2A1C
 67
     1
  8
0
  0
ENDSEC
  0
SECTION
  2
ENTITIES
  0
LINE
  5
22AA
  8
0
  6
CONTINUOUS
 62
     7
 10
-127.93780535293079
 20
37.000199999998173
 30
0.0
 11
-127.93780535293079
 21
-6.9998000000018079
 31
0.0
  0
LINE
  5
22AB
  8
0
  6
CONTINUOUS
 62
     7
 10
-127.93780535293079
 20
37.000199999998173
 30
0.0
 11
-127.93780535293079
 21
-6.9998000000018079
 31
0.0
  0
LINE
  5
22AC
  8
0
  6
CONTINUOUS
 62
     7
 10
-207.93780535293081
 20
-6.9998000000018079
 30
0.0
 11
-207.93780535293081
 21
37.000199999998173
 31
0.0
  0
LINE
  5
22AD
  8
0
  6
CONTINUOUS
 62
     7
 10
-207.93780535293081
 20
-6.9998000000018079
 30
0.0
 11
-207.93780535293081
 21
37.000199999998173
 31
0.0
  0
LINE
  5
22AE
  8
0
  6
CONTINUOUS
 62
     7
 10
-156.10105203647711
 20
60.700199999999832
 30
0.0
 11
-149.95909739046871
 21
60.700199999999832
 31
0.0
  0
LINE
  5
22AF
  8
0
  6
CONTINUOUS
 62
     7
 10
-153.43780535294809
 20
55.700199999997999
 30
0.0
 11
-149.93780535293081
 21
55.700199999997999
 31
0.0
  0
LINE
  5
22B0
  8
0
  6
CONTINUOUS
 62
     7
 10
-185.93780535293081
 20
55.700199999997999
 30
0.0
 11
-182.43780535294809
 21
55.700199999997999
 31
0.0
  0
LINE
  5
22B2
  8
0
  6
CONTINUOUS
 62
     7
 10
-149.93780535293081
 20
60.494942298044002
 30
0.0
 11
-149.93780535293081
 21
55.700199999997999
 31
0.0
  0
LINE
  5
22B3
  8
0
  6
CONTINUOUS
 62
     7
 10
-152.67805648089319
 20
67.09411929857697
 30
0.0
 11
-150.01866032291221
 21
60.88886159662303
 31
0.0
  0
LINE
  5
22B4
  8
0
  6
CONTINUOUS
 62
     7
 10
-182.2784091949506
 20
67.700199999997935
 30
0.0
 11
-170.48780535293079
 21
67.700199999997935
 31
0.0
  0
LINE
  5
22B5
  8
0
  6
CONTINUOUS
 62
     7
 10
-185.85695038294941
 20
60.88886159662303
 30
0.0
 11
-183.1975542249684
 21
67.09411929857697
 31
0.0
  0
LINE
  5
22B6
  8
0
  6
CONTINUOUS
 62
     7
 10
-185.93780535293081
 20
55.700199999997999
 30
0.0
 11
-185.93780535293081
 21
60.494942298044002
 31
0.0
  0
LINE
  5
22B7
  8
0
  6
CONTINUOUS
 62
     7
 10
-185.9165133153937
 20
60.700199999999832
 30
0.0
 11
-179.77455866942
 21
60.700199999999832
 31
0.0
  0
LINE
  5
22B8
  8
0
  6
DASH_CENTER
 62
     1
 10
-194.21105300186721
 20
41.273447648932731
 30
0.0
 11
-205.30416801078721
 21
52.36656265785092
 31
0.0
  0
LINE
  5
22B9
  8
0
  6
DASH_CENTER
 62
     1
 10
-141.6645577039981
 20
-11.273047648937251
 30
0.0
 11
-130.57144269507901
 21
-22.366162657857249
 31
0.0
  0
LINE
  5
22BA
  8
0
  6
DASH_CENTER
 62
     1
 10
-194.21105300186539
 20
-11.273047648938149
 30
0.0
 11
-205.3041680107826
 21
-22.366162657858141
 31
0.0
  0
LINE
  5
22BB
  8
0
  6
DASH_CENTER
 62
     1
 10
-141.66455770399531
 20
41.273447648930933
 30
0.0
 11
-130.57144269507529
 21
52.366562657850011
 31
0.0
  0
LINE
  5
22BC
  8
0
  6
CONTINUOUS
 62
     7
 10
-127.93780535293079
 20
45.000199999998173
 30
0.0
 11
-127.93780535293079
 21
-14.999800000001841
 31
0.0
  0
LINE
  5
22BD
  8
0
  6
CONTINUOUS
 62
     7
 10
-207.93780535293081
 20
49.000199999998181
 30
0.0
 11
-207.93780535293081
 21
-18.999800000001841
 31
0.0
  0
LINE
  5
22BE
  8
0
  6
CONTINUOUS
 62
     7
 10
-201.93780535293081
 20
-24.999800000001841
 30
0.0
 11
-133.93780535293081
 21
-24.999800000001841
 31
0.0
  0
LINE
  5
22BF
  8
0
  6
CONTINUOUS
 62
     7
 10
-127.93780535293079
 20
-18.999800000001841
 30
0.0
 11
-127.93780535293079
 21
49.000199999998181
 31
0.0
  0
LINE
  5
22C0
  8
0
  6
CONTINUOUS
 62
     7
 10
-165.3878053529308
 20
75.360923314919546
 30
0.0
 11
-165.3878053529308
 21
65.980987482142538
 31
0.0
  0
LINE
  5
22C1
  8
0
  6
CONTINUOUS
 62
     7
 10
-170.48780535293079
 20
75.31664992508513
 30
0.0
 11
-170.48780535293079
 21
65.980987482141614
 31
0.0
  0
LINE
  5
22C2
  8
0
  6
CONTINUOUS
 62
     7
 10
-178.521959320371
 20
63.86090105380822
 30
0.0
 11
-157.3654658578879
 21
63.86090105380822
 31
0.0
  0
LINE
  5
22C3
  8
0
  6
CONTINUOUS
 62
     7
 10
-176.5393289679096
 20
65.980987482142538
 30
0.0
 11
-159.33628173795299
 21
65.980987482142538
 31
0.0
  0
LINE
  5
22C4
  8
0
  6
CONTINUOUS
 62
     7
 10
-178.74991163460621
 20
63.86090105380822
 30
0.0
 11
-157.1256990712582
 21
63.86090105380822
 31
0.0
  0
LINE
  5
22C5
  8
0
  6
CONTINUOUS
 62
     7
 10
-177.34487830179111
 20
65.573516190884604
 30
0.0
 11
-178.74991163460621
 21
63.86090105380822
 31
0.0
  0
LINE
  5
22C6
  8
0
  6
CONTINUOUS
 62
     7
 10
-157.12569907125541
 20
63.86090105380822
 30
0.0
 11
-158.53073240407139
 21
65.573516190884604
 31
0.0
  0
LINE
  5
22C7
  8
0
  6
CONTINUOUS
 62
     7
 10
-178.2548401567374
 20
63.86090105380822
 30
0.0
 11
-157.62077054915881
 21
63.86090105380822
 31
0.0
  0
LINE
  5
22C8
  8
0
  6
CONTINUOUS
 62
     7
 10
-203.43780535293081
 20
36.500199999998173
 30
0.0
 11
-203.43780535293081
 21
35.200199999998922
 31
0.0
  0
LINE
  5
22C9
  8
0
  6
CONTINUOUS
 62
     7
 10
-203.43780535293081
 20
36.500199999998173
 30
0.0
 11
-203.43780535293081
 21
37.800199999998391
 31
0.0
  0
LINE
  5
22CA
  8
0
  6
CONTINUOUS
 62
     7
 10
-203.43780535293081
 20
36.500199999998173
 30
0.0
 11
-202.13780535292969
 21
36.500199999998173
 31
0.0
  0
LINE
  5
22CB
  8
0
  6
CONTINUOUS
 62
     7
 10
-203.43780535293081
 20
36.500199999998173
 30
0.0
 11
-204.73780535293099
 21
36.500199999998173
 31
0.0
  0
LINE
  5
22CC
  8
0
  6
CONTINUOUS
 62
     7
 10
-189.43780535293061
 20
-20.499800000001841
 30
0.0
 11
-188.13780535292969
 21
-20.499800000001841
 31
0.0
  0
LINE
  5
22CD
  8
0
  6
CONTINUOUS
 62
     7
 10
-189.43780535293061
 20
-20.499800000001841
 30
0.0
 11
-190.73780535293099
 21
-20.499800000001841
 31
0.0
  0
LINE
  5
22CE
  8
0
  6
CONTINUOUS
 62
     7
 10
-189.43780535293061
 20
-20.499800000001841
 30
0.0
 11
-189.43780535293061
 21
-19.199800000001652
 31
0.0
  0
LINE
  5
22CF
  8
0
  6
CONTINUOUS
 62
     7
 10
-189.43780535293061
 20
-20.499800000001841
 30
0.0
 11
-189.43780535293061
 21
-21.799800000001039
 31
0.0
  0
LINE
  5
22D0
  8
0
  6
CONTINUOUS
 62
     7
 10
-193.93780535293081
 20
-20.999800000001841
 30
0.0
 11
-193.93780535293081
 21
-18.499800000001841
 31
0.0
  0
LINE
  5
22D1
  8
0
  6
CONTINUOUS
 62
     7
 10
-201.43780535293081
 20
41.000199999998173
 30
0.0
 11
-203.93780535293081
 21
41.000199999998173
 31
0.0
  0
LINE
  5
22D2
  8
0
  6
CONTINUOUS
 62
     7
 10
-201.43780535293081
 20
-10.999800000001841
 30
0.0
 11
-203.93780535293081
 21
-10.999800000001841
 31
0.0
  0
LINE
  5
22D3
  8
0
  6
CONTINUOUS
 62
     7
 10
-193.93780535293081
 20
48.500199999998181
 30
0.0
 11
-193.93780535293081
 21
51.000199999998181
 31
0.0
  0
LINE
  5
22D4
  8
0
  6
CONTINUOUS
 62
     7
 10
-207.93780535293081
 20
-6.9998000000018079
 30
0.0
 11
-207.93780535293081
 21
37.000199999998173
 31
0.0
  0
LINE
  5
22D5
  8
0
  6
CONTINUOUS
 62
     7
 10
-207.93780535293081
 20
-6.9998000000018079
 30
0.0
 11
-207.93780535293081
 21
37.000199999998173
 31
0.0
  0
LINE
  5
22D6
  8
0
  6
CONTINUOUS
 62
     7
 10
-193.93780535293081
 20
48.500199999998181
 30
0.0
 11
-193.93780535293081
 21
51.000199999998181
 31
0.0
  0
LINE
  5
22D7
  8
0
  6
CONTINUOUS
 62
     7
 10
-201.43780535293081
 20
-10.999800000001841
 30
0.0
 11
-203.93780535293081
 21
-10.999800000001841
 31
0.0
  0
LINE
  5
22D8
  8
0
  6
CONTINUOUS
 62
     7
 10
-201.43780535293081
 20
41.000199999998173
 30
0.0
 11
-203.93780535293081
 21
41.000199999998173
 31
0.0
  0
LINE
  5
22D9
  8
0
  6
CONTINUOUS
 62
     7
 10
-193.93780535293081
 20
-20.999800000001841
 30
0.0
 11
-193.93780535293081
 21
-18.499800000001841
 31
0.0
  0
LINE
  5
22DA
  8
0
  6
CONTINUOUS
 62
     7
 10
-132.43780535293081
 20
-6.4998000000018079
 30
0.0
 11
-132.43780535293081
 21
-5.1998000000016278
 31
0.0
  0
LINE
  5
22DB
  8
0
  6
CONTINUOUS
 62
     7
 10
-132.43780535293081
 20
-6.4998000000018079
 30
0.0
 11
-132.43780535293081
 21
-7.7998000000010803
 31
0.0
  0
LINE
  5
22DC
  8
0
  6
CONTINUOUS
 62
     7
 10
-132.43780535293081
 20
-6.4998000000018079
 30
0.0
 11
-133.73780535293099
 21
-6.4998000000018079
 31
0.0
  0
LINE
  5
22DD
  8
0
  6
CONTINUOUS
 62
     7
 10
-132.43780535293081
 20
-6.4998000000018079
 30
0.0
 11
-131.13780535292969
 21
-6.4998000000018079
 31
0.0
  0
LINE
  5
22DE
  8
0
  6
CONTINUOUS
 62
     7
 10
-131.93780535293081
 20
-10.999800000001841
 30
0.0
 11
-134.4378053529307
 21
-10.999800000001841
 31
0.0
  0
LINE
  5
22DF
  8
0
  6
CONTINUOUS
 62
     7
 10
-141.93780535293081
 20
-20.999800000001841
 30
0.0
 11
-141.93780535293081
 21
-18.499800000001841
 31
0.0
  0
LINE
  5
22E0
  8
0
  6
CONTINUOUS
 62
     7
 10
-141.93780535293081
 20
-20.999800000001841
 30
0.0
 11
-141.93780535293081
 21
-18.499800000001841
 31
0.0
  0
LINE
  5
22E1
  8
0
  6
CONTINUOUS
 62
     7
 10
-131.93780535293081
 20
-10.999800000001841
 30
0.0
 11
-134.4378053529307
 21
-10.999800000001841
 31
0.0
  0
LINE
  5
22E2
  8
0
  6
CONTINUOUS
 62
     7
 10
-146.43780535293081
 20
50.500199999998181
 30
0.0
 11
-147.73780535293099
 21
50.500199999998181
 31
0.0
  0
LINE
  5
22E3
  8
0
  6
CONTINUOUS
 62
     7
 10
-146.43780535293081
 20
50.500199999998181
 30
0.0
 11
-145.13780535292969
 21
50.500199999998181
 31
0.0
  0
LINE
  5
22E4
  8
0
  6
CONTINUOUS
 62
     7
 10
-146.43780535293081
 20
50.500199999998181
 30
0.0
 11
-146.43780535293081
 21
49.200199999998922
 31
0.0
  0
LINE
  5
22E5
  8
0
  6
CONTINUOUS
 62
     7
 10
-146.43780535293081
 20
50.500199999998181
 30
0.0
 11
-146.43780535293081
 21
51.800199999998377
 31
0.0
  0
LINE
  5
22E6
  8
0
  6
CONTINUOUS
 62
     7
 10
-131.93780535293081
 20
41.000199999998173
 30
0.0
 11
-134.4378053529307
 21
41.000199999998173
 31
0.0
  0
LINE
  5
22E7
  8
0
  6
CONTINUOUS
 62
     7
 10
-127.93780535293079
 20
37.000199999998173
 30
0.0
 11
-127.93780535293079
 21
-6.9998000000018079
 31
0.0
  0
LINE
  5
22E8
  8
0
  6
CONTINUOUS
 62
     7
 10
-127.93780535293079
 20
37.000199999998173
 30
0.0
 11
-127.93780535293079
 21
-6.9998000000018079
 31
0.0
  0
LINE
  5
22E9
  8
0
  6
CONTINUOUS
 62
     7
 10
-141.93780535293081
 20
48.500199999998181
 30
0.0
 11
-141.93780535293081
 21
51.000199999998181
 31
0.0
  0
LINE
  5
22EA
  8
0
  6
CONTINUOUS
 62
     7
 10
-131.93780535293081
 20
41.000199999998173
 30
0.0
 11
-134.4378053529307
 21
41.000199999998173
 31
0.0
  0
LINE
  5
22EB
  8
0
  6
CONTINUOUS
 62
     7
 10
-156.48780535293099
 20
55.000199999999097
 30
0.0
 11
-133.93780535293081
 21
55.000199999998181
 31
0.0
  0
LINE
  5
22EC
  8
0
  6
CONTINUOUS
 62
     7
 10
-156.48780535293099
 20
55.700199999997999
 30
0.0
 11
-149.93780535293081
 21
55.700199999997999
 31
0.0
  0
LINE
  5
22ED
  8
0
  6
CONTINUOUS
 62
     7
 10
-156.48780535293099
 20
60.700199999999832
 30
0.0
 11
-149.95909739046871
 21
60.700199999999832
 31
0.0
  0
LINE
  5
22EE
  8
0
  6
CONTINUOUS
 62
     7
 10
-165.3878053529308
 20
67.700199999997935
 30
0.0
 11
-153.5972015109119
 21
67.700199999997935
 31
0.0
  0
LINE
  5
22EF
  8
0
  6
DASH_CENTER
 62
     1
 10
-167.93780535293081
 20
-29.999800000001841
 30
0.0
 11
-167.93780535293081
 21
79.09411123859546
 31
0.0
  0
LINE
  5
22F0
  8
0
  6
DASH_CENTER
 62
     1
 10
-122.93780535293079
 20
15.00020000000001
 30
0.0
 11
-212.93780535293081
 21
15.00020000000001
 31
0.0
  0
LINE
  5
22F1
  8
0
  6
CONTINUOUS
 62
     7
 10
-131.93780535293081
 20
-10.999800000001841
 30
0.0
 11
-134.4378053529307
 21
-10.999800000001841
 31
0.0
  0
LINE
  5
22F2
  8
0
  6
CONTINUOUS
 62
     7
 10
-193.93780535293081
 20
-20.999800000001841
 30
0.0
 11
-193.93780535293081
 21
-18.499800000001841
 31
0.0
  0
LINE
  5
22F3
  8
0
  6
CONTINUOUS
 62
     7
 10
-201.43780535293081
 20
41.000199999998173
 30
0.0
 11
-203.93780535293081
 21
41.000199999998173
 31
0.0
  0
LINE
  5
22F4
  8
0
  6
CONTINUOUS
 62
     7
 10
-193.93780535293081
 20
48.500199999998181
 30
0.0
 11
-193.93780535293081
 21
51.000199999998181
 31
0.0
  0
LINE
  5
22F5
  8
0
  6
CONTINUOUS
 62
     7
 10
-127.93780535293079
 20
37.000199999998173
 30
0.0
 11
-127.93780535293079
 21
-6.9998000000018079
 31
0.0
  0
LINE
  5
22F6
  8
0
  6
CONTINUOUS
 62
     7
 10
-207.93780535293081
 20
-6.9998000000018079
 30
0.0
 11
-207.93780535293081
 21
37.000199999998173
 31
0.0
  0
LINE
  5
22F7
  8
0
  6
CONTINUOUS
 62
     7
 10
-185.9165133153937
 20
60.700199999999832
 30
0.0
 11
-179.3878053529306
 21
60.700199999999832
 31
0.0
  0
LINE
  5
22F8
  8
0
  6
CONTINUOUS
 62
     7
 10
-185.93780535293081
 20
55.700199999997999
 30
0.0
 11
-185.93780535293081
 21
60.494942298044002
 31
0.0
  0
LINE
  5
22F9
  8
0
  6
CONTINUOUS
 62
     7
 10
-185.85695038294941
 20
60.88886159662303
 30
0.0
 11
-183.1975542249684
 21
67.09411929857697
 31
0.0
  0
LINE
  5
22FA
  8
0
  6
CONTINUOUS
 62
     7
 10
-152.67805648089319
 20
67.09411929857697
 30
0.0
 11
-150.01866032291221
 21
60.88886159662303
 31
0.0
  0
LINE
  5
22FB
  8
0
  6
CONTINUOUS
 62
     7
 10
-201.93780535293169
 20
55.000199999996347
 30
0.0
 11
-179.3878053529306
 21
55.000199999999097
 31
0.0
  0
LINE
  5
22FC
  8
0
  6
CONTINUOUS
 62
     7
 10
-149.93780535293081
 20
60.494942298044002
 30
0.0
 11
-149.93780535293081
 21
55.700199999997999
 31
0.0
  0
LINE
  5
22FE
  8
0
  6
CONTINUOUS
 62
     7
 10
-185.93780535293081
 20
55.700199999997999
 30
0.0
 11
-179.3878053529306
 21
55.700199999997999
 31
0.0
  0
LINE
  5
22FF
  8
0
  6
CONTINUOUS
 62
     7
 10
-156.48780535293099
 20
62.86090105380822
 30
0.0
 11
-156.48780535293099
 21
35.522078568980362
 31
0.0
  0
LINE
  5
2300
  8
0
  6
CONTINUOUS
 62
     7
 10
-179.3878053529306
 20
58.769896921083351
 30
0.0
 11
-156.48780535293099
 21
58.769896921083351
 31
0.0
  0
LINE
  5
2301
  8
0
  6
CONTINUOUS
 62
     7
 10
-179.3878053529306
 20
62.86090105380822
 30
0.0
 11
-179.3878053529306
 21
35.522078568980362
 31
0.0
  0
ARC
  5
2302
  8
0
  6
CONTINUOUS
 62
     7
 10
-185.58780535293039
 20
55.350199999998551
 30
0.0
 40
0.3499999999994614
 50
90.0
 51
270.0
  0
ARC
  5
2303
  8
0
  6
CONTINUOUS
 62
     7
 10
-150.28780535293029
 20
55.350199999998551
 30
0.0
 40
0.3500000000003638
 50
270.0
 51
90.0
  0
ARC
  5
2304
  8
0
  6
DASH_CENTER
 62
     1
 10
-167.93780535293081
 20
15.000199999998189
 30
0.0
 40
45.000000000000448
 50
125.0000000000034
 51
145.00000000000139
  0
ARC
  5
2305
  8
0
  6
DASH_CENTER
 62
     1
 10
-167.93780535293081
 20
15.000199999998189
 30
0.0
 40
45.000000000000149
 50
304.9999999999967
 51
324.99999999999687
  0
ARC
  5
2306
  8
0
  6
DASH_CENTER
 62
     1
 10
-167.93780535293081
 20
15.000199999998189
 30
0.0
 40
45.000000000000448
 50
215.00000000000341
 51
235.00000000000239
  0
ARC
  5
2307
  8
0
  6
DASH_CENTER
 62
     1
 10
-167.93780535293081
 20
15.000199999998189
 30
0.0
 40
45.00000000000135
 50
34.99999999999693
 51
54.99999999999693
  0
ARC
  5
2308
  8
0
  6
CONTINUOUS
 62
     7
 10
-150.28780535293029
 20
55.350199999998551
 30
0.0
 40
0.3500000000003638
 50
270.0
 51
90.0
  0
ARC
  5
2309
  8
0
  6
CONTINUOUS
 62
     7
 10
-185.58780535293039
 20
55.350199999998551
 30
0.0
 40
0.3499999999994614
 50
90.0
 51
270.0
  0
ARC
  5
230A
  8
0
  6
CONTINUOUS
 62
     7
 10
-167.93780535293081
 20
15.000199999998189
 30
0.0
 40
37.000000000000007
 50
108.0266580364089
 51
71.973341963591082
  0
ARC
  5
230B
  8
0
  6
CONTINUOUS
 62
     7
 10
-167.93780535293081
 20
15.000199999998189
 30
0.0
 40
23.500000000000959
 50
119.1589447695286
 51
60.841055230471333
  0
ARC
  5
230C
  8
0
  6
CONTINUOUS
 62
     7
 10
-155.98780535293099
 20
55.500199999998181
 30
0.0
 40
0.5
 50
180.0
 51
270.0
  0
ARC
  5
230D
  8
0
  6
CONTINUOUS
 62
     7
 10
-179.8878053529306
 20
55.500199999998181
 30
0.0
 40
0.5
 50
270.0
 51
0.0
  0
CIRCLE
  5
230E
  8
0
  6
CONTINUOUS
 62
     7
 10
-199.75761050632721
 20
46.820005153392742
 30
0.0
 40
3.0
  0
CIRCLE
  5
230F
  8
0
  6
CONTINUOUS
 62
     7
 10
-136.11800019953901
 20
-16.819605153397251
 30
0.0
 40
3.0
  0
CIRCLE
  5
2310
  8
0
  6
CONTINUOUS
 62
     7
 10
-136.11800019953529
 20
46.820005153390007
 30
0.0
 40
3.0
  0
CIRCLE
  5
2311
  8
0
  6
CONTINUOUS
 62
     7
 10
-199.75761050632539
 20
-16.81960515339814
 30
0.0
 40
3.0
  0
CIRCLE
  5
2312
  8
0
  6
CONTINUOUS
 62
     7
 10
-203.43780535293081
 20
36.500199999998173
 30
0.0
 40
2.25
  0
CIRCLE
  5
2313
  8
0
  6
CONTINUOUS
 62
     7
 10
-203.43780535293081
 20
36.500199999998173
 30
0.0
 40
2.649999999999634
  0
CIRCLE
  5
2314
  8
0
  6
CONTINUOUS
 62
     7
 10
-189.43780535293061
 20
-20.499800000001841
 30
0.0
 40
2.25
  0
CIRCLE
  5
2315
  8
0
  6
CONTINUOUS
 62
     7
 10
-189.43780535293061
 20
-20.499800000001841
 30
0.0
 40
2.649999999999578
  0
CIRCLE
  5
2316
  8
0
  6
CONTINUOUS
 62
     7
 10
-132.43780535293081
 20
-6.4998000000018079
 30
0.0
 40
2.25
  0
CIRCLE
  5
2317
  8
0
  6
CONTINUOUS
 62
     7
 10
-132.43780535293081
 20
-6.4998000000018079
 30
0.0
 40
2.6500000000005461
  0
CIRCLE
  5
2318
  8
0
  6
CONTINUOUS
 62
     7
 10
-146.43780535293081
 20
50.500199999998181
 30
0.0
 40
2.25
  0
CIRCLE
  5
2319
  8
0
  6
CONTINUOUS
 62
     7
 10
-146.43780535293081
 20
50.500199999998181
 30
0.0
 40
2.649999999999606
  0
POLYLINE
  5
28CE
  8
0
 62
     2
 66
     1
 10
0.0
 20
0.0
 30
0.0
 70
     8
  0
VERTEX
  5
28CF
  8
0
 62
     2
 10
-165.38800000000001
 20
75.360900000000001
 30
0.0
 70
    32
  0
VERTEX
  5
28D0
  8
0
 62
     2
 10
-165.40899999999999
 20
75.376900000000006
 30
0.0
 70
    32
  0
VERTEX
  5
28D1
  8
0
 62
     2
 10
-165.43100000000001
 20
75.392799999999994
 30
0.0
 70
    32
  0
VERTEX
  5
28D2
  8
0
 62
     2
 10
-165.453
 20
75.408699999999996
 30
0.0
 70
    32
  0
VERTEX
  5
28D3
  8
0
 62
     2
 10
-165.47399999999999
 20
75.424599999999998
 30
0.0
 70
    32
  0
VERTEX
  5
28D4
  8
0
 62
     2
 10
-165.4959999999999
 20
75.440399999999997
 30
0.0
 70
    32
  0
VERTEX
  5
28D5
  8
0
 62
     2
 10
-165.518
 20
75.456100000000006
 30
0.0
 70
    32
  0
VERTEX
  5
28D6
  8
0
 62
     2
 10
-165.53999999999999
 20
75.471800000000002
 30
0.0
 70
    32
  0
VERTEX
  5
28D7
  8
0
 62
     2
 10
-165.56100000000001
 20
75.487300000000005
 30
0.0
 70
    32
  0
VERTEX
  5
28D8
  8
0
 62
     2
 10
-165.583
 20
75.502700000000004
 30
0.0
 70
    32
  0
VERTEX
  5
28D9
  8
0
 62
     2
 10
-165.60499999999999
 20
75.518000000000001
 30
0.0
 70
    32
  0
VERTEX
  5
28DA
  8
0
 62
     2
 10
-165.626
 20
75.533100000000005
 30
0.0
 70
    32
  0
VERTEX
  5
28DB
  8
0
 62
     2
 10
-165.648
 20
75.548100000000005
 30
0.0
 70
    32
  0
VERTEX
  5
28DC
  8
0
 62
     2
 10
-165.66999999999999
 20
75.562799999999996
 30
0.0
 70
    32
  0
VERTEX
  5
28DD
  8
0
 62
     2
 10
-165.69200000000001
 20
75.577399999999983
 30
0.0
 70
    32
  0
VERTEX
  5
28DE
  8
0
 62
     2
 10
-165.714
 20
75.591800000000006
 30
0.0
 70
    32
  0
VERTEX
  5
28DF
  8
0
 62
     2
 10
-165.73500000000001
 20
75.605900000000005
 30
0.0
 70
    32
  0
VERTEX
  5
28E0
  8
0
 62
     2
 10
-165.75700000000001
 20
75.619799999999998
 30
0.0
 70
    32
  0
VERTEX
  5
28E1
  8
0
 62
     2
 10
-165.779
 20
75.633399999999995
 30
0.0
 70
    32
  0
VERTEX
  5
28E2
  8
0
 62
     2
 10
-165.80099999999999
 20
75.646699999999996
 30
0.0
 70
    32
  0
VERTEX
  5
28E3
  8
0
 62
     2
 10
-165.82300000000001
 20
75.659800000000004
 30
0.0
 70
    32
  0
VERTEX
  5
28E4
  8
0
 62
     2
 10
-165.845
 20
75.672600000000003
 30
0.0
 70
    32
  0
VERTEX
  5
28E5
  8
0
 62
     2
 10
-165.86699999999999
 20
75.685000000000002
 30
0.0
 70
    32
  0
VERTEX
  5
28E6
  8
0
 62
     2
 10
-165.88900000000001
 20
75.697100000000006
 30
0.0
 70
    32
  0
VERTEX
  5
28E7
  8
0
 62
     2
 10
-165.911
 20
75.708799999999997
 30
0.0
 70
    32
  0
VERTEX
  5
28E8
  8
0
 62
     2
 10
-165.93299999999999
 20
75.720200000000006
 30
0.0
 70
    32
  0
VERTEX
  5
28E9
  8
0
 62
     2
 10
-165.95500000000001
 20
75.731200000000001
 30
0.0
 70
    32
  0
VERTEX
  5
28EA
  8
0
 62
     2
 10
-165.977
 20
75.741799999999998
 30
0.0
 70
    32
  0
VERTEX
  5
28EB
  8
0
 62
     2
 10
-165.999
 20
75.751999999999995
 30
0.0
 70
    32
  0
VERTEX
  5
28EC
  8
0
 62
     2
 10
-166.02099999999999
 20
75.761700000000005
 30
0.0
 70
    32
  0
VERTEX
  5
28ED
  8
0
 62
     2
 10
-166.04300000000001
 20
75.771100000000004
 30
0.0
 70
    32
  0
VERTEX
  5
28EE
  8
0
 62
     2
 10
-166.066
 20
75.779899999999984
 30
0.0
 70
    32
  0
VERTEX
  5
28EF
  8
0
 62
     2
 10
-166.08799999999999
 20
75.788300000000007
 30
0.0
 70
    32
  0
VERTEX
  5
28F0
  8
0
 62
     2
 10
-166.11000000000001
 20
75.796199999999999
 30
0.0
 70
    32
  0
VERTEX
  5
28F1
  8
0
 62
     2
 10
-166.1329999999999
 20
75.803600000000003
 30
0.0
 70
    32
  0
VERTEX
  5
28F2
  8
0
 62
     2
 10
-166.155
 20
75.810500000000005
 30
0.0
 70
    32
  0
VERTEX
  5
28F3
  8
0
 62
     2
 10
-166.178
 20
75.816800000000001
 30
0.0
 70
    32
  0
VERTEX
  5
28F4
  8
0
 62
     2
 10
-166.19999999999999
 20
75.822599999999994
 30
0.0
 70
    32
  0
VERTEX
  5
28F5
  8
0
 62
     2
 10
-166.22300000000001
 20
75.827799999999996
 30
0.0
 70
    32
  0
VERTEX
  5
28F6
  8
0
 62
     2
 10
-166.245
 20
75.832499999999996
 30
0.0
 70
    32
  0
VERTEX
  5
28F7
  8
0
 62
     2
 10
-166.268
 20
75.836500000000001
 30
0.0
 70
    32
  0
VERTEX
  5
28F8
  8
0
 62
     2
 10
-166.291
 20
75.8399
 30
0.0
 70
    32
  0
VERTEX
  5
28F9
  8
0
 62
     2
 10
-166.31299999999999
 20
75.842699999999994
 30
0.0
 70
    32
  0
VERTEX
  5
28FA
  8
0
 62
     2
 10
-166.33600000000001
 20
75.844899999999996
 30
0.0
 70
    32
  0
VERTEX
  5
28FB
  8
0
 62
     2
 10
-166.35900000000001
 20
75.846400000000003
 30
0.0
 70
    32
  0
VERTEX
  5
28FC
  8
0
 62
     2
 10
-166.38200000000001
 20
75.847300000000004
 30
0.0
 70
    32
  0
VERTEX
  5
28FD
  8
0
 62
     2
 10
-166.405
 20
75.847499999999997
 30
0.0
 70
    32
  0
VERTEX
  5
28FE
  8
0
 62
     2
 10
-166.428
 20
75.847200000000001
 30
0.0
 70
    32
  0
VERTEX
  5
28FF
  8
0
 62
     2
 10
-166.45099999999999
 20
75.846199999999996
 30
0.0
 70
    32
  0
VERTEX
  5
2900
  8
0
 62
     2
 10
-166.47399999999999
 20
75.844599999999986
 30
0.0
 70
    32
  0
VERTEX
  5
2901
  8
0
 62
     2
 10
-166.49700000000001
 20
75.842600000000004
 30
0.0
 70
    32
  0
VERTEX
  5
2902
  8
0
 62
     2
 10
-166.52099999999999
 20
75.8399
 30
0.0
 70
    32
  0
VERTEX
  5
2903
  8
0
 62
     2
 10
-166.54400000000001
 20
75.836799999999997
 30
0.0
 70
    32
  0
VERTEX
  5
2904
  8
0
 62
     2
 10
-166.56700000000001
 20
75.833200000000005
 30
0.0
 70
    32
  0
VERTEX
  5
2905
  8
0
 62
     2
 10
-166.59
 20
75.829099999999997
 30
0.0
 70
    32
  0
VERTEX
  5
2906
  8
0
 62
     2
 10
-166.614
 20
75.8245
 30
0.0
 70
    32
  0
VERTEX
  5
2907
  8
0
 62
     2
 10
-166.637
 20
75.819500000000005
 30
0.0
 70
    32
  0
VERTEX
  5
2908
  8
0
 62
     2
 10
-166.66099999999989
 20
75.8142
 30
0.0
 70
    32
  0
VERTEX
  5
2909
  8
0
 62
     2
 10
-166.684
 20
75.808400000000006
 30
0.0
 70
    32
  0
VERTEX
  5
290A
  8
0
 62
     2
 10
-166.708
 20
75.802199999999999
 30
0.0
 70
    32
  0
VERTEX
  5
290B
  8
0
 62
     2
 10
-166.732
 20
75.795699999999997
 30
0.0
 70
    32
  0
VERTEX
  5
290C
  8
0
 62
     2
 10
-166.755
 20
75.788799999999995
 30
0.0
 70
    32
  0
VERTEX
  5
290D
  8
0
 62
     2
 10
-166.779
 20
75.781700000000001
 30
0.0
 70
    32
  0
VERTEX
  5
290E
  8
0
 62
     2
 10
-166.803
 20
75.774199999999993
 30
0.0
 70
    32
  0
VERTEX
  5
290F
  8
0
 62
     2
 10
-166.82599999999999
 20
75.766499999999994
 30
0.0
 70
    32
  0
VERTEX
  5
2910
  8
0
 62
     2
 10
-166.84999999999999
 20
75.758499999999984
 30
0.0
 70
    32
  0
VERTEX
  5
2911
  8
0
 62
     2
 10
-166.874
 20
75.750299999999996
 30
0.0
 70
    32
  0
VERTEX
  5
2912
  8
0
 62
     2
 10
-166.898
 20
75.741799999999998
 30
0.0
 70
    32
  0
VERTEX
  5
2913
  8
0
 62
     2
 10
-166.922
 20
75.733199999999997
 30
0.0
 70
    32
  0
VERTEX
  5
2914
  8
0
 62
     2
 10
-166.946
 20
75.724400000000003
 30
0.0
 70
    32
  0
VERTEX
  5
2915
  8
0
 62
     2
 10
-166.97
 20
75.715400000000002
 30
0.0
 70
    32
  0
VERTEX
  5
2916
  8
0
 62
     2
 10
-166.994
 20
75.706299999999999
 30
0.0
 70
    32
  0
VERTEX
  5
2917
  8
0
 62
     2
 10
-167.018
 20
75.697100000000006
 30
0.0
 70
    32
  0
VERTEX
  5
2918
  8
0
 62
     2
 10
-167.042
 20
75.687799999999996
 30
0.0
 70
    32
  0
VERTEX
  5
2919
  8
0
 62
     2
 10
-167.06599999999989
 20
75.678399999999996
 30
0.0
 70
    32
  0
VERTEX
  5
291A
  8
0
 62
     2
 10
-167.09
 20
75.668899999999994
 30
0.0
 70
    32
  0
VERTEX
  5
291B
  8
0
 62
     2
 10
-167.114
 20
75.659400000000005
 30
0.0
 70
    32
  0
VERTEX
  5
291C
  8
0
 62
     2
 10
-167.13800000000001
 20
75.649900000000002
 30
0.0
 70
    32
  0
VERTEX
  5
291D
  8
0
 62
     2
 10
-167.16300000000001
 20
75.6404
 30
0.0
 70
    32
  0
VERTEX
  5
291E
  8
0
 62
     2
 10
-167.18700000000001
 20
75.631
 30
0.0
 70
    32
  0
VERTEX
  5
291F
  8
0
 62
     2
 10
-167.21100000000001
 20
75.621499999999983
 30
0.0
 70
    32
  0
VERTEX
  5
2920
  8
0
 62
     2
 10
-167.23500000000001
 20
75.612099999999984
 30
0.0
 70
    32
  0
VERTEX
  5
2921
  8
0
 62
     2
 10
-167.25999999999999
 20
75.602800000000002
 30
0.0
 70
    32
  0
VERTEX
  5
2922
  8
0
 62
     2
 10
-167.28399999999999
 20
75.593599999999995
 30
0.0
 70
    32
  0
VERTEX
  5
2923
  8
0
 62
     2
 10
-167.30799999999999
 20
75.584599999999995
 30
0.0
 70
    32
  0
VERTEX
  5
2924
  8
0
 62
     2
 10
-167.333
 20
75.575599999999994
 30
0.0
 70
    32
  0
VERTEX
  5
2925
  8
0
 62
     2
 10
-167.357
 20
75.566800000000001
 30
0.0
 70
    32
  0
VERTEX
  5
2926
  8
0
 62
     2
 10
-167.381
 20
75.558199999999999
 30
0.0
 70
    32
  0
VERTEX
  5
2927
  8
0
 62
     2
 10
-167.40600000000001
 20
75.549800000000005
 30
0.0
 70
    32
  0
VERTEX
  5
2928
  8
0
 62
     2
 10
-167.43000000000001
 20
75.541700000000006
 30
0.0
 70
    32
  0
VERTEX
  5
2929
  8
0
 62
     2
 10
-167.45500000000001
 20
75.533699999999996
 30
0.0
 70
    32
  0
VERTEX
  5
292A
  8
0
 62
     2
 10
-167.47900000000001
 20
75.525999999999996
 30
0.0
 70
    32
  0
VERTEX
  5
292B
  8
0
 62
     2
 10
-167.50399999999999
 20
75.518600000000006
 30
0.0
 70
    32
  0
VERTEX
  5
292C
  8
0
 62
     2
 10
-167.52799999999999
 20
75.511499999999984
 30
0.0
 70
    32
  0
VERTEX
  5
292D
  8
0
 62
     2
 10
-167.553
 20
75.5047
 30
0.0
 70
    32
  0
VERTEX
  5
292E
  8
0
 62
     2
 10
-167.577
 20
75.4983
 30
0.0
 70
    32
  0
VERTEX
  5
292F
  8
0
 62
     2
 10
-167.602
 20
75.492199999999997
 30
0.0
 70
    32
  0
VERTEX
  5
2930
  8
0
 62
     2
 10
-167.626
 20
75.486500000000007
 30
0.0
 70
    32
  0
VERTEX
  5
2931
  8
0
 62
     2
 10
-167.65100000000001
 20
75.481200000000001
 30
0.0
 70
    32
  0
VERTEX
  5
2932
  8
0
 62
     2
 10
-167.67500000000001
 20
75.476299999999995
 30
0.0
 70
    32
  0
VERTEX
  5
2933
  8
0
 62
     2
 10
-167.69999999999999
 20
75.471800000000002
 30
0.0
 70
    32
  0
VERTEX
  5
2934
  8
0
 62
     2
 10
-167.72399999999999
 20
75.467799999999997
 30
0.0
 70
    32
  0
VERTEX
  5
2935
  8
0
 62
     2
 10
-167.749
 20
75.464200000000005
 30
0.0
 70
    32
  0
VERTEX
  5
2936
  8
0
 62
     2
 10
-167.773
 20
75.461200000000005
 30
0.0
 70
    32
  0
VERTEX
  5
2937
  8
0
 62
     2
 10
-167.798
 20
75.458699999999993
 30
0.0
 70
    32
  0
VERTEX
  5
2938
  8
0
 62
     2
 10
-167.822
 20
75.456699999999998
 30
0.0
 70
    32
  0
VERTEX
  5
2939
  8
0
 62
     2
 10
-167.84700000000001
 20
75.455299999999994
 30
0.0
 70
    32
  0
VERTEX
  5
293A
  8
0
 62
     2
 10
-167.87100000000001
 20
75.454400000000007
 30
0.0
 70
    32
  0
VERTEX
  5
293B
  8
0
 62
     2
 10
-167.89599999999999
 20
75.454099999999997
 30
0.0
 70
    32
  0
VERTEX
  5
293C
  8
0
 62
     2
 10
-167.9199999999999
 20
75.454499999999996
 30
0.0
 70
    32
  0
VERTEX
  5
293D
  8
0
 62
     2
 10
-167.94499999999999
 20
75.455500000000001
 30
0.0
 70
    32
  0
VERTEX
  5
293E
  8
0
 62
     2
 10
-167.97
 20
75.457099999999997
 30
0.0
 70
    32
  0
VERTEX
  5
293F
  8
0
 62
     2
 10
-167.994
 20
75.459299999999999
 30
0.0
 70
    32
  0
VERTEX
  5
2940
  8
0
 62
     2
 10
-168.01900000000001
 20
75.462199999999996
 30
0.0
 70
    32
  0
VERTEX
  5
2941
  8
0
 62
     2
 10
-168.04300000000001
 20
75.465599999999995
 30
0.0
 70
    32
  0
VERTEX
  5
2942
  8
0
 62
     2
 10
-168.06800000000001
 20
75.469499999999996
 30
0.0
 70
    32
  0
VERTEX
  5
2943
  8
0
 62
     2
 10
-168.09200000000001
 20
75.474000000000004
 30
0.0
 70
    32
  0
VERTEX
  5
2944
  8
0
 62
     2
 10
-168.11600000000001
 20
75.478999999999999
 30
0.0
 70
    32
  0
VERTEX
  5
2945
  8
0
 62
     2
 10
-168.14099999999999
 20
75.484499999999997
 30
0.0
 70
    32
  0
VERTEX
  5
2946
  8
0
 62
     2
 10
-168.16499999999999
 20
75.490499999999997
 30
0.0
 70
    32
  0
VERTEX
  5
2947
  8
0
 62
     2
 10
-168.19
 20
75.496899999999997
 30
0.0
 70
    32
  0
VERTEX
  5
2948
  8
0
 62
     2
 10
-168.214
 20
75.503799999999998
 30
0.0
 70
    32
  0
VERTEX
  5
2949
  8
0
 62
     2
 10
-168.239
 20
75.510999999999996
 30
0.0
 70
    32
  0
VERTEX
  5
294A
  8
0
 62
     2
 10
-168.26300000000001
 20
75.518699999999995
 30
0.0
 70
    32
  0
VERTEX
  5
294B
  8
0
 62
     2
 10
-168.28700000000001
 20
75.526700000000005
 30
0.0
 70
    32
  0
VERTEX
  5
294C
  8
0
 62
     2
 10
-168.31200000000001
 20
75.534999999999997
 30
0.0
 70
    32
  0
VERTEX
  5
294D
  8
0
 62
     2
 10
-168.33600000000001
 20
75.543700000000001
 30
0.0
 70
    32
  0
VERTEX
  5
294E
  8
0
 62
     2
 10
-168.36000000000001
 20
75.552700000000002
 30
0.0
 70
    32
  0
VERTEX
  5
294F
  8
0
 62
     2
 10
-168.38499999999999
 20
75.561999999999998
 30
0.0
 70
    32
  0
VERTEX
  5
2950
  8
0
 62
     2
 10
-168.40899999999999
 20
75.5715
 30
0.0
 70
    32
  0
VERTEX
  5
2951
  8
0
 62
     2
 10
-168.43299999999999
 20
75.581299999999999
 30
0.0
 70
    32
  0
VERTEX
  5
2952
  8
0
 62
     2
 10
-168.45699999999999
 20
75.591300000000004
 30
0.0
 70
    32
  0
VERTEX
  5
2953
  8
0
 62
     2
 10
-168.482
 20
75.601500000000001
 30
0.0
 70
    32
  0
VERTEX
  5
2954
  8
0
 62
     2
 10
-168.506
 20
75.611900000000006
 30
0.0
 70
    32
  0
VERTEX
  5
2955
  8
0
 62
     2
 10
-168.53
 20
75.622500000000002
 30
0.0
 70
    32
  0
VERTEX
  5
2956
  8
0
 62
     2
 10
-168.554
 20
75.633200000000002
 30
0.0
 70
    32
  0
VERTEX
  5
2957
  8
0
 62
     2
 10
-168.578
 20
75.644000000000005
 30
0.0
 70
    32
  0
VERTEX
  5
2958
  8
0
 62
     2
 10
-168.602
 20
75.654899999999998
 30
0.0
 70
    32
  0
VERTEX
  5
2959
  8
0
 62
     2
 10
-168.626
 20
75.665899999999993
 30
0.0
 70
    32
  0
VERTEX
  5
295A
  8
0
 62
     2
 10
-168.65000000000001
 20
75.676900000000003
 30
0.0
 70
    32
  0
VERTEX
  5
295B
  8
0
 62
     2
 10
-168.67400000000001
 20
75.688000000000002
 30
0.0
 70
    32
  0
VERTEX
  5
295C
  8
0
 62
     2
 10
-168.69800000000001
 20
75.699100000000001
 30
0.0
 70
    32
  0
VERTEX
  5
295D
  8
0
 62
     2
 10
-168.72200000000001
 20
75.7102
 30
0.0
 70
    32
  0
VERTEX
  5
295E
  8
0
 62
     2
 10
-168.7459999999999
 20
75.721299999999999
 30
0.0
 70
    32
  0
VERTEX
  5
295F
  8
0
 62
     2
 10
-168.77000000000001
 20
75.732299999999995
 30
0.0
 70
    32
  0
VERTEX
  5
2960
  8
0
 62
     2
 10
-168.79300000000001
 20
75.743300000000005
 30
0.0
 70
    32
  0
VERTEX
  5
2961
  8
0
 62
     2
 10
-168.81700000000001
 20
75.754099999999994
 30
0.0
 70
    32
  0
VERTEX
  5
2962
  8
0
 62
     2
 10
-168.84100000000001
 20
75.764899999999983
 30
0.0
 70
    32
  0
VERTEX
  5
2963
  8
0
 62
     2
 10
-168.864
 20
75.775499999999994
 30
0.0
 70
    32
  0
VERTEX
  5
2964
  8
0
 62
     2
 10
-168.88800000000001
 20
75.786000000000001
 30
0.0
 70
    32
  0
VERTEX
  5
2965
  8
0
 62
     2
 10
-168.91200000000001
 20
75.796300000000002
 30
0.0
 70
    32
  0
VERTEX
  5
2966
  8
0
 62
     2
 10
-168.935
 20
75.806399999999996
 30
0.0
 70
    32
  0
VERTEX
  5
2967
  8
0
 62
     2
 10
-168.959
 20
75.816299999999998
 30
0.0
 70
    32
  0
VERTEX
  5
2968
  8
0
 62
     2
 10
-168.982
 20
75.825999999999993
 30
0.0
 70
    32
  0
VERTEX
  5
2969
  8
0
 62
     2
 10
-169.005
 20
75.835400000000007
 30
0.0
 70
    32
  0
VERTEX
  5
296A
  8
0
 62
     2
 10
-169.029
 20
75.844599999999986
 30
0.0
 70
    32
  0
VERTEX
  5
296B
  8
0
 62
     2
 10
-169.05199999999999
 20
75.853499999999997
 30
0.0
 70
    32
  0
VERTEX
  5
296C
  8
0
 62
     2
 10
-169.07499999999999
 20
75.861999999999995
 30
0.0
 70
    32
  0
VERTEX
  5
296D
  8
0
 62
     2
 10
-169.09800000000001
 20
75.870199999999997
 30
0.0
 70
    32
  0
VERTEX
  5
296E
  8
0
 62
     2
 10
-169.12100000000001
 20
75.878
 30
0.0
 70
    32
  0
VERTEX
  5
296F
  8
0
 62
     2
 10
-169.14400000000001
 20
75.885499999999993
 30
0.0
 70
    32
  0
VERTEX
  5
2970
  8
0
 62
     2
 10
-169.167
 20
75.892600000000002
 30
0.0
 70
    32
  0
VERTEX
  5
2971
  8
0
 62
     2
 10
-169.19
 20
75.899199999999993
 30
0.0
 70
    32
  0
VERTEX
  5
2972
  8
0
 62
     2
 10
-169.21299999999999
 20
75.905500000000004
 30
0.0
 70
    32
  0
VERTEX
  5
2973
  8
0
 62
     2
 10
-169.23599999999999
 20
75.911199999999994
 30
0.0
 70
    32
  0
VERTEX
  5
2974
  8
0
 62
     2
 10
-169.25899999999999
 20
75.916499999999999
 30
0.0
 70
    32
  0
VERTEX
  5
2975
  8
0
 62
     2
 10
-169.28200000000001
 20
75.921300000000002
 30
0.0
 70
    32
  0
VERTEX
  5
2976
  8
0
 62
     2
 10
-169.304
 20
75.9255
 30
0.0
 70
    32
  0
VERTEX
  5
2977
  8
0
 62
     2
 10
-169.327
 20
75.929199999999994
 30
0.0
 70
    32
  0
VERTEX
  5
2978
  8
0
 62
     2
 10
-169.34899999999999
 20
75.932400000000001
 30
0.0
 70
    32
  0
VERTEX
  5
2979
  8
0
 62
     2
 10
-169.37200000000001
 20
75.934899999999999
 30
0.0
 70
    32
  0
VERTEX
  5
297A
  8
0
 62
     2
 10
-169.39400000000001
 20
75.936899999999994
 30
0.0
 70
    32
  0
VERTEX
  5
297B
  8
0
 62
     2
 10
-169.417
 20
75.938199999999995
 30
0.0
 70
    32
  0
VERTEX
  5
297C
  8
0
 62
     2
 10
-169.43899999999999
 20
75.938900000000004
 30
0.0
 70
    32
  0
VERTEX
  5
297D
  8
0
 62
     2
 10
-169.46100000000001
 20
75.938900000000004
 30
0.0
 70
    32
  0
VERTEX
  5
297E
  8
0
 62
     2
 10
-169.483
 20
75.938299999999998
 30
0.0
 70
    32
  0
VERTEX
  5
297F
  8
0
 62
     2
 10
-169.505
 20
75.936899999999994
 30
0.0
 70
    32
  0
VERTEX
  5
2980
  8
0
 62
     2
 10
-169.52699999999999
 20
75.934799999999996
 30
0.0
 70
    32
  0
VERTEX
  5
2981
  8
0
 62
     2
 10
-169.54900000000001
 20
75.932000000000002
 30
0.0
 70
    32
  0
VERTEX
  5
2982
  8
0
 62
     2
 10
-169.571
 20
75.928399999999996
 30
0.0
 70
    32
  0
VERTEX
  5
2983
  8
0
 62
     2
 10
-169.59299999999999
 20
75.924199999999999
 30
0.0
 70
    32
  0
VERTEX
  5
2984
  8
0
 62
     2
 10
-169.61500000000001
 20
75.919399999999996
 30
0.0
 70
    32
  0
VERTEX
  5
2985
  8
0
 62
     2
 10
-169.636
 20
75.913899999999998
 30
0.0
 70
    32
  0
VERTEX
  5
2986
  8
0
 62
     2
 10
-169.65799999999999
 20
75.907700000000006
 30
0.0
 70
    32
  0
VERTEX
  5
2987
  8
0
 62
     2
 10
-169.679
 20
75.900899999999993
 30
0.0
 70
    32
  0
VERTEX
  5
2988
  8
0
 62
     2
 10
-169.70099999999999
 20
75.893500000000003
 30
0.0
 70
    32
  0
VERTEX
  5
2989
  8
0
 62
     2
 10
-169.72200000000001
 20
75.885499999999993
 30
0.0
 70
    32
  0
VERTEX
  5
298A
  8
0
 62
     2
 10
-169.744
 20
75.876999999999995
 30
0.0
 70
    32
  0
VERTEX
  5
298B
  8
0
 62
     2
 10
-169.76499999999999
 20
75.867900000000006
 30
0.0
 70
    32
  0
VERTEX
  5
298C
  8
0
 62
     2
 10
-169.78599999999989
 20
75.858199999999997
 30
0.0
 70
    32
  0
VERTEX
  5
298D
  8
0
 62
     2
 10
-169.80699999999999
 20
75.847999999999999
 30
0.0
 70
    32
  0
VERTEX
  5
298E
  8
0
 62
     2
 10
-169.828
 20
75.837299999999999
 30
0.0
 70
    32
  0
VERTEX
  5
298F
  8
0
 62
     2
 10
-169.84999999999999
 20
75.826099999999997
 30
0.0
 70
    32
  0
VERTEX
  5
2990
  8
0
 62
     2
 10
-169.87100000000001
 20
75.814400000000006
 30
0.0
 70
    32
  0
VERTEX
  5
2991
  8
0
 62
     2
 10
-169.892
 20
75.802199999999999
 30
0.0
 70
    32
  0
VERTEX
  5
2992
  8
0
 62
     2
 10
-169.91300000000001
 20
75.789599999999993
 30
0.0
 70
    32
  0
VERTEX
  5
2993
  8
0
 62
     2
 10
-169.93299999999999
 20
75.776600000000002
 30
0.0
 70
    32
  0
VERTEX
  5
2994
  8
0
 62
     2
 10
-169.95400000000001
 20
75.763099999999994
 30
0.0
 70
    32
  0
VERTEX
  5
2995
  8
0
 62
     2
 10
-169.97499999999999
 20
75.749300000000005
 30
0.0
 70
    32
  0
VERTEX
  5
2996
  8
0
 62
     2
 10
-169.99600000000001
 20
75.734999999999999
 30
0.0
 70
    32
  0
VERTEX
  5
2997
  8
0
 62
     2
 10
-170.017
 20
75.720399999999998
 30
0.0
 70
    32
  0
VERTEX
  5
2998
  8
0
 62
     2
 10
-170.03700000000001
 20
75.705399999999997
 30
0.0
 70
    32
  0
VERTEX
  5
2999
  8
0
 62
     2
 10
-170.05799999999999
 20
75.690100000000001
 30
0.0
 70
    32
  0
VERTEX
  5
299A
  8
0
 62
     2
 10
-170.07900000000001
 20
75.674400000000006
 30
0.0
 70
    32
  0
VERTEX
  5
299B
  8
0
 62
     2
 10
-170.09899999999999
 20
75.658500000000004
 30
0.0
 70
    32
  0
VERTEX
  5
299C
  8
0
 62
     2
 10
-170.12
 20
75.642200000000003
 30
0.0
 70
    32
  0
VERTEX
  5
299D
  8
0
 62
     2
 10
-170.14099999999999
 20
75.625600000000006
 30
0.0
 70
    32
  0
VERTEX
  5
299E
  8
0
 62
     2
 10
-170.161
 20
75.608800000000002
 30
0.0
 70
    32
  0
VERTEX
  5
299F
  8
0
 62
     2
 10
-170.18199999999999
 20
75.591800000000006
 30
0.0
 70
    32
  0
VERTEX
  5
29A0
  8
0
 62
     2
 10
-170.202
 20
75.5745
 30
0.0
 70
    32
  0
VERTEX
  5
29A1
  8
0
 62
     2
 10
-170.22300000000001
 20
75.557000000000002
 30
0.0
 70
    32
  0
VERTEX
  5
29A2
  8
0
 62
     2
 10
-170.24299999999999
 20
75.539299999999997
 30
0.0
 70
    32
  0
VERTEX
  5
29A3
  8
0
 62
     2
 10
-170.26400000000001
 20
75.5214
 30
0.0
 70
    32
  0
VERTEX
  5
29A4
  8
0
 62
     2
 10
-170.28399999999999
 20
75.503299999999996
 30
0.0
 70
    32
  0
VERTEX
  5
29A5
  8
0
 62
     2
 10
-170.30500000000001
 20
75.485100000000003
 30
0.0
 70
    32
  0
VERTEX
  5
29A6
  8
0
 62
     2
 10
-170.32499999999999
 20
75.466700000000003
 30
0.0
 70
    32
  0
VERTEX
  5
29A7
  8
0
 62
     2
 10
-170.345
 20
75.4482
 30
0.0
 70
    32
  0
VERTEX
  5
29A8
  8
0
 62
     2
 10
-170.36600000000001
 20
75.429599999999994
 30
0.0
 70
    32
  0
VERTEX
  5
29A9
  8
0
 62
     2
 10
-170.386
 20
75.411000000000001
 30
0.0
 70
    32
  0
VERTEX
  5
29AA
  8
0
 62
     2
 10
-170.40600000000001
 20
75.392200000000003
 30
0.0
 70
    32
  0
VERTEX
  5
29AB
  8
0
 62
     2
 10
-170.42699999999999
 20
75.373400000000004
 30
0.0
 70
    32
  0
VERTEX
  5
29AC
  8
0
 62
     2
 10
-170.447
 20
75.354500000000002
 30
0.0
 70
    32
  0
VERTEX
  5
29AD
  8
0
 62
     2
 10
-170.46700000000001
 20
75.335599999999999
 30
0.0
 70
    32
  0
VERTEX
  5
29AE
  8
0
 62
     2
 10
-170.488
 20
75.316599999999994
 30
0.0
 70
    32
  0
SEQEND
  5
29AF
  8
0
 62
     2
  0
ARC
  5
231B
  8
0
  6
CONTINUOUS
 62
     7
 10
-131.93780535293081
 20
37.000199999998173
 30
0.0
 40
4.0000000000000124
 50
0.0
 51
90.0
  0
ARC
  5
231C
  8
0
  6
CONTINUOUS
 62
     7
 10
-131.93780535293081
 20
37.000199999998173
 30
0.0
 40
4.0000000000000124
 50
0.0
 51
90.0
  0
ARC
  5
231D
  8
0
  6
CONTINUOUS
 62
     7
 10
-150.93780535293081
 20
60.494942298044002
 30
0.0
 40
1.0
 50
0.0
 51
23.198590513628311
  0
ARC
  5
231E
  8
0
  6
CONTINUOUS
 62
     7
 10
-184.93780535293081
 20
60.494942298044002
 30
0.0
 40
1.000000000000439
 50
156.80140948637171
 51
180.0
  0
ARC
  5
231F
  8
0
  6
CONTINUOUS
 62
     7
 10
-153.5972015109119
 20
66.700199999997935
 30
0.0
 40
1.000000000000542
 50
23.198590513625732
 51
90.0
  0
ARC
  5
2320
  8
0
  6
CONTINUOUS
 62
     7
 10
-182.2784091949506
 20
66.700199999997935
 30
0.0
 40
1.0
 50
90.0
 51
156.80140948635369
  0
ARC
  5
2321
  8
0
  6
CONTINUOUS
 62
     7
 10
-201.93780535293081
 20
49.000199999998181
 30
0.0
 40
6.0000000000000071
 50
90.0
 51
180.0
  0
ARC
  5
2322
  8
0
  6
CONTINUOUS
 62
     7
 10
-133.93780535293081
 20
49.000199999998181
 30
0.0
 40
6.0000000000000124
 50
0.0
 51
90.0
  0
ARC
  5
2323
  8
0
  6
CONTINUOUS
 62
     7
 10
-133.93780535293081
 20
-18.999800000001841
 30
0.0
 40
6.0
 50
270.0
 51
0.0
  0
ARC
  5
2324
  8
0
  6
CONTINUOUS
 62
     7
 10
-201.93780535293081
 20
-18.999800000001841
 30
0.0
 40
6.0
 50
180.0
 51
270.0
  0
ARC
  5
2325
  8
0
  6
CONTINUOUS
 62
     7
 10
-176.5393289679096
 20
64.980987482142524
 30
0.0
 40
1.0
 50
90.0
 51
143.66334086353359
  0
ARC
  5
2326
  8
0
  6
CONTINUOUS
 62
     7
 10
-159.33628173795299
 20
64.980987482142524
 30
0.0
 40
1.0000000000003051
 50
36.336659136463531
 51
90.0
  0
ARC
  5
2327
  8
0
  6
CONTINUOUS
 62
     7
 10
-201.43780535293081
 20
-18.499800000001841
 30
0.0
 40
7.5
 50
0.0
 51
90.0
  0
ARC
  5
2328
  8
0
  6
CONTINUOUS
 62
     7
 10
-201.43780535293081
 20
48.500199999998181
 30
0.0
 40
7.5
 50
270.0
 51
0.0
  0
ARC
  5
2329
  8
0
  6
CONTINUOUS
 62
     7
 10
-189.93780535293081
 20
-20.999800000001841
 30
0.0
 40
4.0
 50
180.0
 51
270.0
  0
ARC
  5
232A
  8
0
  6
CONTINUOUS
 62
     7
 10
-203.93780535293081
 20
-6.9998000000018079
 30
0.0
 40
4.0
 50
180.0
 51
270.0
  0
ARC
  5
232B
  8
0
  6
CONTINUOUS
 62
     7
 10
-203.93780535293081
 20
37.000199999998173
 30
0.0
 40
4.0
 50
90.0
 51
180.0
  0
ARC
  5
232C
  8
0
  6
CONTINUOUS
 62
     7
 10
-189.93780535293081
 20
51.000199999998181
 30
0.0
 40
4.0000000000000062
 50
90.0
 51
180.0
  0
ARC
  5
232D
  8
0
  6
CONTINUOUS
 62
     7
 10
-201.43780535293081
 20
48.500199999998181
 30
0.0
 40
7.5
 50
270.0
 51
0.0
  0
ARC
  5
232E
  8
0
  6
CONTINUOUS
 62
     7
 10
-201.43780535293081
 20
-18.499800000001841
 30
0.0
 40
7.5
 50
0.0
 51
90.0
  0
ARC
  5
232F
  8
0
  6
CONTINUOUS
 62
     7
 10
-189.93780535293081
 20
51.000199999998181
 30
0.0
 40
4.0000000000000062
 50
90.0
 51
180.0
  0
ARC
  5
2330
  8
0
  6
CONTINUOUS
 62
     7
 10
-203.93780535293081
 20
37.000199999998173
 30
0.0
 40
4.0
 50
90.0
 51
180.0
  0
ARC
  5
2331
  8
0
  6
CONTINUOUS
 62
     7
 10
-203.93780535293081
 20
-6.9998000000018079
 30
0.0
 40
4.0
 50
180.0
 51
270.0
  0
ARC
  5
2332
  8
0
  6
CONTINUOUS
 62
     7
 10
-189.93780535293081
 20
-20.999800000001841
 30
0.0
 40
4.0
 50
180.0
 51
270.0
  0
ARC
  5
2333
  8
0
  6
CONTINUOUS
 62
     7
 10
-134.4378053529307
 20
-18.499800000001841
 30
0.0
 40
7.5
 50
90.0
 51
180.0
  0
ARC
  5
2334
  8
0
  6
CONTINUOUS
 62
     7
 10
-131.93780535293081
 20
-6.9998000000018079
 30
0.0
 40
4.0000000000000284
 50
270.0
 51
0.0
  0
ARC
  5
2335
  8
0
  6
CONTINUOUS
 62
     7
 10
-145.93780535293081
 20
-20.999800000001841
 30
0.0
 40
4.0
 50
270.0
 51
0.0
  0
ARC
  5
2336
  8
0
  6
CONTINUOUS
 62
     7
 10
-134.4378053529307
 20
-18.499800000001841
 30
0.0
 40
7.5
 50
90.0
 51
180.0
  0
ARC
  5
2337
  8
0
  6
CONTINUOUS
 62
     7
 10
-145.93780535293081
 20
-20.999800000001841
 30
0.0
 40
4.0
 50
270.0
 51
0.0
  0
ARC
  5
2338
  8
0
  6
CONTINUOUS
 62
     7
 10
-131.93780535293081
 20
-6.9998000000018079
 30
0.0
 40
4.0000000000000284
 50
270.0
 51
0.0
  0
ARC
  5
2339
  8
0
  6
CONTINUOUS
 62
     7
 10
-134.4378053529307
 20
48.500199999998181
 30
0.0
 40
7.5
 50
180.0
 51
270.0
  0
ARC
  5
233A
  8
0
  6
CONTINUOUS
 62
     7
 10
-145.93780535293081
 20
51.000199999998181
 30
0.0
 40
4.0
 50
0.0
 51
90.0
  0
ARC
  5
233B
  8
0
  6
CONTINUOUS
 62
     7
 10
-134.4378053529307
 20
48.500199999998181
 30
0.0
 40
7.5
 50
180.0
 51
270.0
  0
ARC
  5
233C
  8
0
  6
CONTINUOUS
 62
     7
 10
-134.4378053529307
 20
-18.499800000001841
 30
0.0
 40
7.5
 50
90.0
 51
180.0
  0
ARC
  5
233D
  8
0
  6
CONTINUOUS
 62
     7
 10
-201.43780535293081
 20
-18.499800000001841
 30
0.0
 40
7.5
 50
0.0
 51
90.0
  0
ARC
  5
233E
  8
0
  6
CONTINUOUS
 62
     7
 10
-201.43780535293081
 20
48.500199999998181
 30
0.0
 40
7.5
 50
270.0
 51
0.0
  0
ARC
  5
233F
  8
0
  6
CONTINUOUS
 62
     7
 10
-134.4378053529307
 20
48.500199999998181
 30
0.0
 40
7.5
 50
180.0
 51
270.0
  0
ARC
  5
2340
  8
0
  6
CONTINUOUS
 62
     7
 10
-131.93780535293081
 20
-6.9998000000018079
 30
0.0
 40
4.0000000000000284
 50
270.0
 51
0.0
  0
ARC
  5
2341
  8
0
  6
CONTINUOUS
 62
     7
 10
-189.93780535293081
 20
-20.999800000001841
 30
0.0
 40
4.0
 50
180.0
 51
270.0
  0
ARC
  5
2342
  8
0
  6
CONTINUOUS
 62
     7
 10
-203.93780535293081
 20
37.000199999998173
 30
0.0
 40
4.0
 50
90.0
 51
180.0
  0
ARC
  5
2343
  8
0
  6
CONTINUOUS
 62
     7
 10
-189.93780535293081
 20
51.000199999998181
 30
0.0
 40
4.0000000000000062
 50
90.0
 51
180.0
  0
ARC
  5
2344
  8
0
  6
CONTINUOUS
 62
     7
 10
-182.2784091949506
 20
66.700199999997935
 30
0.0
 40
1.0
 50
90.0
 51
156.80140948635369
  0
ARC
  5
2345
  8
0
  6
CONTINUOUS
 62
     7
 10
-153.5972015109119
 20
66.700199999997935
 30
0.0
 40
1.000000000000542
 50
23.198590513625732
 51
90.0
  0
ARC
  5
2346
  8
0
  6
CONTINUOUS
 62
     7
 10
-184.93780535293081
 20
60.494942298044002
 30
0.0
 40
1.000000000000439
 50
156.80140948637171
 51
180.0
  0
ARC
  5
2347
  8
0
  6
CONTINUOUS
 62
     7
 10
-150.93780535293081
 20
60.494942298044002
 30
0.0
 40
1.0
 50
0.0
 51
23.198590513628311
  0
ARC
  5
2348
  8
0
  6
CONTINUOUS
 62
     7
 10
-157.48780535293099
 20
62.86090105380822
 30
0.0
 40
1.0
 50
0.0
 51
90.0
  0
ARC
  5
2349
  8
0
  6
CONTINUOUS
 62
     7
 10
-178.3878053529306
 20
62.86090105380822
 30
0.0
 40
1.0
 50
90.0
 51
180.0
  0
LINE
  5
237F
  8
0
  6
CONTINUOUS
 62
     7
 10
27.580818288428361
 20
32.500200000000042
 30
0.0
 11
26.94081828842894
 21
32.500200000000042
 31
0.0
  0
LINE
  5
2380
  8
0
  6
CONTINUOUS
 62
     7
 10
27.580818288428361
 20
40.500200000000021
 30
0.0
 11
27.580818288428361
 21
32.500200000000042
 31
0.0
  0
LINE
  5
2381
  8
0
  6
CONTINUOUS
 62
     7
 10
26.94081828842894
 20
40.500200000000021
 30
0.0
 11
27.580818288428361
 21
40.500200000000021
 31
0.0
  0
LINE
  5
2382
  8
0
  6
CONTINUOUS
 62
     7
 10
26.94081828842894
 20
32.250199999999133
 30
0.0
 11
32.04081828842925
 21
32.250199999999133
 31
0.0
  0
LINE
  5
2383
  8
0
  6
CONTINUOUS
 62
     7
 10
26.94081828842894
 20
40.750199999999133
 30
0.0
 11
26.94081828842894
 21
32.250199999999133
 31
0.0
  0
LINE
  5
2384
  8
0
  6
CONTINUOUS
 62
     7
 10
32.04081828842925
 20
40.750199999999133
 30
0.0
 11
26.94081828842894
 21
40.750199999999133
 31
0.0
  0
LINE
  5
2385
  8
0
  6
CONTINUOUS
 62
     7
 10
31.23081828842794
 20
33.000200000000028
 30
0.0
 11
27.580818288428361
 21
33.000200000000028
 31
0.0
  0
LINE
  5
2386
  8
0
  6
CONTINUOUS
 62
     7
 10
31.23081828842794
 20
33.000200000000028
 30
0.0
 11
31.23081828842794
 21
40.000200000000007
 31
0.0
  0
LINE
  5
2387
  8
0
  6
CONTINUOUS
 62
     7
 10
31.580818288428361
 20
39.650199999999671
 30
0.0
 11
31.580818288428361
 21
33.350199999999489
 31
0.0
  0
LINE
  5
2388
  8
0
  6
CONTINUOUS
 62
     7
 10
31.23081828842794
 20
33.000200000000028
 30
0.0
 11
31.580818288428361
 21
33.350199999999489
 31
0.0
  0
LINE
  5
2389
  8
0
  6
CONTINUOUS
 62
     7
 10
27.580818288428361
 20
40.000200000000007
 30
0.0
 11
31.23081828842794
 21
40.000200000000007
 31
0.0
  0
LINE
  5
238A
  8
0
  6
CONTINUOUS
 62
     7
 10
31.580818288428361
 20
39.650199999999671
 30
0.0
 11
31.23081828842794
 21
40.000200000000007
 31
0.0
  0
LINE
  5
238B
  8
0
  6
DASH_CENTER
 62
     1
 10
24.440818288432549
 20
36.500200000000042
 30
0.0
 11
34.080818288428361
 21
36.500200000000042
 31
0.0
  0
LINE
  5
238C
  8
0
  6
CONTINUOUS
 62
     7
 10
-51.995207929345611
 20
131.89548455382521
 30
0.0
 11
-52.745207929345611
 21
131.89548455382521
 31
0.0
  0
LINE
  5
238D
  8
0
  6
CONTINUOUS
 62
     7
 10
-57.793951820393332
 20
117.3954845538252
 30
0.0
 11
-56.495242419119108
 21
117.3954845538252
 31
0.0
  0
LINE
  5
238E
  8
0
  6
CONTINUOUS
 62
     7
 10
-42.49524241341112
 20
117.3954845538252
 30
0.0
 11
-56.495207928752613
 21
117.3954845538252
 31
0.0
  0
LINE
  5
238F
  8
0
  6
CONTINUOUS
 62
     7
 10
-57.495207929345611
 20
118.3954845538252
 30
0.0
 11
-58.49524241341112
 21
118.3954845538252
 31
0.0
  0
LINE
  5
2390
  8
0
  6
CONTINUOUS
 62
     7
 10
-58.49524241341112
 20
118.3954845538252
 30
0.0
 11
-58.49524241341112
 21
117.3954845538252
 31
0.0
  0
LINE
  5
2391
  8
0
  6
CONTINUOUS
 62
     7
 10
-56.495207928752613
 20
117.3954845538252
 30
0.0
 11
-56.495207928752613
 21
118.3954845538252
 31
0.0
  0
LINE
  5
2392
  8
0
  6
CONTINUOUS
 62
     7
 10
-58.49524241341112
 20
117.3954845538252
 30
0.0
 11
-57.793951820393332
 21
117.3954845538252
 31
0.0
  0
LINE
  5
2393
  8
0
  6
CONTINUOUS
 62
     7
 10
-42.49524241341112
 20
117.3954845538252
 30
0.0
 11
-42.49524241341112
 21
118.3954845538252
 31
0.0
  0
LINE
  5
2394
  8
0
  6
CONTINUOUS
 62
     7
 10
-55.995242411924103
 20
117.3954845538252
 30
0.0
 11
-55.994742419420042
 21
131.89496731208749
 31
0.0
  0
LINE
  5
2395
  8
0
  6
CONTINUOUS
 62
     7
 10
-58.579784282757252
 20
136.89548455382521
 30
0.0
 11
-57.829784282757252
 21
135.64548455382521
 31
0.0
  0
LINE
  5
2396
  8
0
  6
CONTINUOUS
 62
     7
 10
-60.829784282757252
 20
124.8954845538252
 30
0.0
 11
-59.738875191845523
 21
130.89548455382521
 31
0.0
  0
LINE
  5
2397
  8
0
  6
CONTINUOUS
 62
     7
 10
-60.579784282757252
 20
126.2704845538252
 30
0.0
 11
-60.579784282757252
 21
136.39548455382521
 31
0.0
  0
LINE
  5
2398
  8
0
  6
CONTINUOUS
 62
     7
 10
-57.829784282757252
 20
135.64548455382521
 30
0.0
 11
-57.829784282757252
 21
134.89548455382521
 31
0.0
  0
LINE
  5
2399
  8
0
  6
CONTINUOUS
 62
     7
 10
-58.829784282758169
 20
134.89548455382521
 30
0.0
 11
-57.829784282757252
 21
134.89548455382521
 31
0.0
  0
LINE
  5
239A
  8
0
  6
CONTINUOUS
 62
     7
 10
-59.579784282758169
 20
136.89548455382521
 30
0.0
 11
-60.579784282757252
 21
136.39548455382521
 31
0.0
  0
LINE
  5
239B
  8
0
  6
CONTINUOUS
 62
     7
 10
-61.245207929345611
 20
124.8954845538252
 30
0.0
 11
-61.245207929345611
 21
123.8954845538252
 31
0.0
  0
LINE
  5
239C
  8
0
  6
CONTINUOUS
 62
     7
 10
-61.245207929345611
 20
123.8954845538252
 30
0.0
 11
-59.995207929345611
 21
123.8954845538252
 31
0.0
  0
LINE
  5
239D
  8
0
  6
CONTINUOUS
 62
     7
 10
-56.244742401731287
 20
141.09548455382321
 30
0.0
 11
-56.244742401731287
 21
131.89548455382521
 31
0.0
  0
LINE
  5
239E
  8
0
  6
CONTINUOUS
 62
     7
 10
-57.495207929345611
 20
131.89548455382521
 30
0.0
 11
-53.994597119756122
 21
131.89548455382521
 31
0.0
  0
LINE
  5
239F
  8
0
  6
CONTINUOUS
 62
     7
 10
-44.245207929345597
 20
141.09548455382321
 30
0.0
 11
-47.745207929345611
 21
141.09548455382321
 31
0.0
  0
LINE
  5
23A0
  8
0
  6
CONTINUOUS
 62
     7
 10
-47.745207929345611
 20
141.09548455382321
 30
0.0
 11
-47.745207929345611
 21
131.89548455382521
 31
0.0
  0
LINE
  5
23A1
  8
0
  6
CONTINUOUS
 62
     7
 10
-44.245207929345597
 20
131.89548455382521
 30
0.0
 11
-44.245207929345597
 21
141.09548455382321
 31
0.0
  0
LINE
  5
23A2
  8
0
  6
CONTINUOUS
 62
     7
 10
-51.995207929345611
 20
141.09548455382321
 30
0.0
 11
-48.495207929345611
 21
141.09548455382321
 31
0.0
  0
LINE
  5
23A3
  8
0
  6
CONTINUOUS
 62
     7
 10
-48.495207929345611
 20
141.09548455382321
 30
0.0
 11
-48.495207929345611
 21
131.89548455382521
 31
0.0
  0
LINE
  5
23A4
  8
0
  6
CONTINUOUS
 62
     7
 10
-52.745207929345611
 20
141.09548455382321
 30
0.0
 11
-56.244742401731287
 21
141.09548455382321
 31
0.0
  0
LINE
  5
23A5
  8
0
  6
CONTINUOUS
 62
     7
 10
-53.994597119756122
 20
131.89548455382521
 30
0.0
 11
-52.745207929345611
 21
131.89548455382521
 31
0.0
  0
LINE
  5
23A6
  8
0
  6
CONTINUOUS
 62
     7
 10
-56.495242419119108
 20
117.3954845538252
 30
0.0
 11
-56.495207928752613
 21
117.3954845538252
 31
0.0
  0
LINE
  5
23A7
  8
0
  6
CONTINUOUS
 62
     7
 10
-42.49524241341112
 20
118.3954845538252
 30
0.0
 11
-43.495276897482093
 21
118.3954845538252
 31
0.0
  0
LINE
  5
23A8
  8
0
  6
CONTINUOUS
 62
     7
 10
-58.829784282757252
 20
130.89892860451951
 30
0.0
 11
-58.829784282758169
 21
134.89548455382521
 31
0.0
  0
LINE
  5
23A9
  8
0
  6
CONTINUOUS
 62
     7
 10
-59.579784282758169
 20
136.89548455382521
 30
0.0
 11
-58.579784282757252
 21
136.89548455382521
 31
0.0
  0
LINE
  5
23AA
  8
0
  6
CONTINUOUS
 62
     7
 10
-60.829784282757252
 20
124.8954845538252
 30
0.0
 11
-61.245207929345611
 21
124.8954845538252
 31
0.0
  0
LINE
  5
23AB
  8
0
  6
CONTINUOUS
 62
     7
 10
-58.995207929345611
 20
130.89548455382521
 30
0.0
 11
-59.738875191845523
 21
130.89548455382521
 31
0.0
  0
LINE
  5
23AC
  8
0
  6
CONTINUOUS
 62
     7
 10
-58.369275664287102
 20
129.39548455382521
 30
0.0
 11
-58.245207929345611
 21
129.39548455382521
 31
0.0
  0
LINE
  5
23AD
  8
0
  6
CONTINUOUS
 62
     7
 10
-59.107178096866278
 20
128.77964863247391
 30
0.0
 11
-59.995207929345611
 21
123.8954845538252
 31
0.0
  0
LINE
  5
23AE
  8
0
  6
CONTINUOUS
 62
     7
 10
-57.495207929345611
 20
118.3954845538252
 30
0.0
 11
-57.495207929345611
 21
128.64548455382521
 31
0.0
  0
LINE
  5
23AF
  8
0
  6
CONTINUOUS
 62
     7
 10
-56.494742419118097
 20
131.8949845538242
 30
0.0
 11
-56.495242419119108
 21
117.395284553823
 31
0.0
  0
LINE
  5
23B0
  8
0
  6
CONTINUOUS
 62
     7
 10
-43.495276897482093
 20
131.89548455382521
 30
0.0
 11
-48.495207929345611
 21
131.89548455382521
 31
0.0
  0
LINE
  5
23B1
  8
0
  6
CONTINUOUS
 62
     7
 10
-48.495207929345611
 20
131.89548455382521
 30
0.0
 11
-51.995207929345611
 21
131.89548455382521
 31
0.0
  0
LINE
  5
23B2
  8
0
  6
CONTINUOUS
 62
     7
 10
-51.995207929345611
 20
131.89548455382521
 30
0.0
 11
-51.995207929345611
 21
141.09548455382321
 31
0.0
  0
LINE
  5
23B3
  8
0
  6
CONTINUOUS
 62
     7
 10
-52.745207929345611
 20
131.89548455382521
 30
0.0
 11
-52.745207929345611
 21
141.09548455382321
 31
0.0
  0
LINE
  5
23B4
  8
0
  6
CONTINUOUS
 62
     7
 10
-43.495276897482093
 20
131.89548455382521
 30
0.0
 11
-43.495276897482093
 21
118.3954845538252
 31
0.0
  0
LINE
  5
23B5
  8
0
  6
DASH_CENTER
 62
     1
 10
72.038828733805403
 20
15.00020000000001
 30
0.0
 11
-85.159181711571648
 21
15.00020000000001
 31
0.0
  0
LINE
  5
23B6
  8
0
  6
CONTINUOUS
 62
     7
 10
-71.039673894646796
 20
63.575116952854827
 30
0.0
 11
-54.659181711571648
 21
55.936768003540529
 31
0.0
  0
LINE
  5
23B7
  8
0
  6
CONTINUOUS
 62
     7
 10
-71.969836525582934
 20
63.530434788288382
 30
0.0
 11
-79.174270449964126
 21
59.350063239203827
 31
0.0
  0
LINE
  5
23BC
  8
0
  6
CONTINUOUS
 62
     7
 10
-53.119787188168019
 20
109.32247611400599
 30
0.0
 11
-53.119787188168019
 21
106.82247611400599
 31
0.0
  0
LINE
  5
23BD
  8
0
  6
CONTINUOUS
 62
     7
 10
-48.619787188168019
 20
106.82247611400599
 30
0.0
 11
-47.369787188168019
 21
105.32247611400599
 31
0.0
  0
LINE
  5
23BE
  8
0
  6
CONTINUOUS
 62
     7
 10
-48.619787188168019
 20
106.82247611400599
 30
0.0
 11
-48.619787188168019
 21
109.32247611400599
 31
0.0
  0
LINE
  5
23BF
  8
0
  6
CONTINUOUS
 62
     7
 10
-53.119787188168019
 20
106.82247611400599
 30
0.0
 11
-54.369787188168033
 21
105.32247611400599
 31
0.0
  0
LINE
  5
23C0
  8
0
  6
CONTINUOUS
 62
     7
 10
-53.119787188168019
 20
109.32247611400599
 30
0.0
 11
-48.619787188168019
 21
109.32247611400599
 31
0.0
  0
LINE
  5
23C1
  8
0
  6
CONTINUOUS
 62
     7
 10
-49.119787188168019
 20
109.32247611400599
 30
0.0
 11
-49.119787188168019
 21
117.3954845538252
 31
0.0
  0
LINE
  5
23C2
  8
0
  6
CONTINUOUS
 62
     7
 10
-49.869787188168019
 20
109.32247611400599
 30
0.0
 11
-49.869787188168019
 21
117.3954845538252
 31
0.0
  0
LINE
  5
23C3
  8
0
  6
CONTINUOUS
 62
     7
 10
-50.619787188168019
 20
109.32247611400599
 30
0.0
 11
-50.619787188168019
 21
117.3954845538252
 31
0.0
  0
LINE
  5
23C4
  8
0
  6
CONTINUOUS
 62
     7
 10
-51.119787188168019
 20
109.32247611400599
 30
0.0
 11
-51.119787188168019
 21
117.3954845538252
 31
0.0
  0
LINE
  5
23C5
  8
0
  6
CONTINUOUS
 62
     7
 10
-51.869787188168019
 20
109.32247611400599
 30
0.0
 11
-51.869787188168019
 21
117.3954845538252
 31
0.0
  0
LINE
  5
23C6
  8
0
  6
CONTINUOUS
 62
     7
 10
-52.619787188168019
 20
109.32247611400599
 30
0.0
 11
-52.619787188168019
 21
117.3954845538252
 31
0.0
  0
LINE
  5
23C7
  8
0
  6
CONTINUOUS
 62
     7
 10
-48.319787188168021
 20
94.962261001210805
 30
0.0
 11
-48.319787188168021
 21
102.07247611400599
 31
0.0
  0
LINE
  5
23C8
  8
0
  6
CONTINUOUS
 62
     7
 10
-47.369787188168019
 20
105.32247611400599
 30
0.0
 11
-47.369787188168019
 21
102.07247611400599
 31
0.0
  0
LINE
  5
23C9
  8
0
  6
CONTINUOUS
 62
     7
 10
-54.369787188168033
 20
105.32247611400599
 30
0.0
 11
-54.369787188168019
 21
102.07247611400599
 31
0.0
  0
LINE
  5
23CA
  8
0
  6
CONTINUOUS
 62
     7
 10
-54.369787188168019
 20
102.07247611400599
 30
0.0
 11
-47.369787188168019
 21
102.07247611400599
 31
0.0
  0
LINE
  5
23CB
  8
0
  6
CONTINUOUS
 62
     7
 10
-53.419787188168023
 20
102.07247611400599
 30
0.0
 11
-53.419787188168023
 21
94.962261001210805
 31
0.0
  0
LINE
  5
23CC
  8
0
  6
DASH_CENTER
 62
     1
 10
-50.869787188168011
 20
86.844243549954484
 30
0.0
 11
-50.869787188168011
 21
143.59548455382321
 31
0.0
  0
LINE
  5
23CD
  8
0
  6
CONTINUOUS
 62
     7
 10
-59.339856771955461
 20
61.98122534590528
 30
0.0
 11
-49.316928810644143
 21
83.371204388790289
 31
0.0
  0
LINE
  5
23CE
  8
0
  6
CONTINUOUS
 62
     7
 10
-48.319787188168021
 20
93.684932825746401
 30
0.0
 11
-48.319787188168021
 21
87.848414908951455
 31
0.0
  0
LINE
  5
23CF
  8
0
  6
CONTINUOUS
 62
     7
 10
-53.419787188168023
 20
87.849685115216445
 30
0.0
 11
-53.419787188168023
 21
93.684932825746401
 31
0.0
  0
LINE
  5
23D0
  8
0
  6
CONTINUOUS
 62
     7
 10
-53.934309876595378
 20
85.538071810123057
 30
0.0
 11
-63.96202648584363
 21
64.136578480780173
 31
0.0
  0
LINE
  5
23D1
  8
0
  6
DASH_CENTER
 62
     1
 10
-51.150863884435971
 20
85.576388641685085
 30
0.0
 11
-64.186651445439608
 21
57.621055305875998
 31
0.0
  0
LINE
  5
23D2
  8
0
  6
CONTINUOUS
 62
     7
 10
-63.297646063754037
 20
64.689602783000424
 30
0.0
 11
-63.690134412764863
 21
64.009792812990469
 31
0.0
  0
LINE
  5
23D3
  8
0
  6
CONTINUOUS
 62
     7
 10
-59.611749118955537
 20
62.10801117588349
 30
0.0
 11
-59.343271312335062
 21
62.845648191485132
 31
0.0
  0
LINE
  5
23D4
  8
0
  6
CONTINUOUS
 62
     7
 10
-71.386729681507248
 20
63.73695172407465
 30
0.0
 11
-54.873481695585113
 21
56.03669772723665
 31
0.0
  0
LINE
  5
23D5
  8
0
  6
CONTINUOUS
 62
     7
 10
-71.39531341233608
 20
63.913691325398453
 30
0.0
 11
-68.358091463609824
 21
65.707110826756121
 31
0.0
  0
LINE
  5
23D6
  8
0
  6
CONTINUOUS
 62
     7
 10
-71.39531341233608
 20
63.913691325398453
 30
0.0
 11
-68.358091463609824
 21
65.707110826756121
 31
0.0
  0
LINE
  5
23D7
  8
0
  6
CONTINUOUS
 62
     7
 10
-55.311023383608102
 20
59.62316306458947
 30
0.0
 11
-54.732573790292307
 21
56.143728233805319
 31
0.0
  0
LINE
  5
23D8
  8
0
  6
CONTINUOUS
 62
     7
 10
-55.856508092881377
 20
60.356913180831413
 30
0.0
 11
-67.427017631835341
 21
65.75233038759292
 31
0.0
  0
LINE
  5
23D9
  8
0
  6
CONTINUOUS
 62
     7
 10
-18.16001209041708
 20
56.050199999997417
 30
0.0
 11
-20.159181711571652
 21
56.050199999997417
 31
0.0
  0
LINE
  5
23DA
  8
0
  6
DASH_CENTER
 62
     1
 10
-22.659181711571652
 20
59.450199999997082
 30
0.0
 11
-17.83391884572741
 21
59.450199999997082
 31
0.0
  0
LINE
  5
23DC
  8
0
  6
CONTINUOUS
 62
     7
 10
35.03882873380541
 20
-19.499800000000018
 30
0.0
 11
35.03882873380541
 21
-0.92087134167596
 31
0.0
  0
LINE
  5
23DD
  8
0
  6
CONTINUOUS
 62
     7
 10
-30.409181711553469
 20
58.340200000001147
 30
0.0
 11
-30.477596954420122
 21
59.122189804268288
 31
0.0
  0
LINE
  5
23DE
  8
0
  6
CONTINUOUS
 62
     7
 10
-33.959181711553661
 20
58.340200000001147
 30
0.0
 11
-31.35918171155237
 21
58.340200000001147
 31
0.0
  0
LINE
  5
23DF
  8
0
  6
CONTINUOUS
 62
     7
 10
-31.35918171155237
 20
58.340200000001147
 30
0.0
 11
-30.409181711553469
 21
58.340200000001147
 31
0.0
  0
LINE
  5
23E0
  8
0
  6
CONTINUOUS
 62
     7
 10
-34.909181711553451
 20
58.340200000001147
 30
0.0
 11
-33.959181711553661
 21
58.340200000001147
 31
0.0
  0
LINE
  5
23E1
  8
0
  6
CONTINUOUS
 62
     7
 10
-34.84076646868774
 20
59.122189804268288
 30
0.0
 11
-34.909181711553451
 21
58.340200000001147
 31
0.0
  0
LINE
  5
23E2
  8
0
  6
CONTINUOUS
 62
     7
 10
-35.159181711571662
 20
58.340200000001147
 30
0.0
 11
-35.159181711571662
 21
57.700199999997182
 31
0.0
  0
LINE
  5
23E3
  8
0
  6
CONTINUOUS
 62
     7
 10
-30.159181711553469
 20
58.340200000001147
 30
0.0
 11
-35.159181711571662
 21
58.340200000001147
 31
0.0
  0
LINE
  5
23E4
  8
0
  6
CONTINUOUS
 62
     7
 10
-30.159181711553469
 20
57.700199999997182
 30
0.0
 11
-30.159181711553469
 21
58.340200000001147
 31
0.0
  0
LINE
  5
23E5
  8
0
  6
CONTINUOUS
 62
     7
 10
-21.159181711571652
 20
67.700199999997182
 30
0.0
 11
-43.783446595466863
 21
67.700199999997182
 31
0.0
  0
LINE
  5
23E6
  8
0
  6
CONTINUOUS
 62
     7
 10
-52.159181711571662
 20
55.700199999997167
 30
0.0
 11
-52.159181711571662
 21
60.246431773404453
 31
0.0
  0
LINE
  5
23E7
  8
0
  6
CONTINUOUS
 62
     7
 10
-51.817686319440632
 20
60.999008468111839
 30
0.0
 11
-44.441951203334888
 21
67.452776694704568
 31
0.0
  0
LINE
  5
23E8
  8
0
  6
CONTINUOUS
 62
     7
 10
-35.659181711571669
 20
67.700199999997182
 30
0.0
 11
-35.659181711571861
 21
57.900199999996993
 31
0.0
  0
LINE
  5
23E9
  8
0
  6
CONTINUOUS
 62
     7
 10
-35.459181711571851
 20
57.700199999997182
 30
0.0
 11
-29.85918171157147
 21
57.700199999997182
 31
0.0
  0
LINE
  5
23EA
  8
0
  6
CONTINUOUS
 62
     7
 10
-29.659181711571659
 20
57.900199999996993
 30
0.0
 11
-29.659181711571659
 21
67.700199999997182
 31
0.0
  0
LINE
  5
23EB
  8
0
  6
CONTINUOUS
 62
     7
 10
-20.159181711571652
 20
55.700199999997167
 30
0.0
 11
-52.159181711571662
 21
55.700199999997167
 31
0.0
  0
LINE
  5
23EC
  8
0
  6
DASH_CENTER
 62
     1
 10
-32.659181711571662
 20
68.9693911806568
 30
0.0
 11
-32.659181711571662
 21
53.569391180656247
 31
0.0
  0
LINE
  5
23ED
  8
0
  6
CONTINUOUS
 62
     7
 10
-20.159181711571652
 20
60.700199999998091
 30
0.0
 11
-29.659181711571659
 21
60.700199999998091
 31
0.0
  0
LINE
  5
23EE
  8
0
  6
CONTINUOUS
 62
     7
 10
-35.659181711571669
 20
60.700199999998091
 30
0.0
 11
-52.050301454666922
 21
60.700199999998091
 31
0.0
  0
LINE
  5
23EF
  8
0
  6
CONTINUOUS
 62
     7
 10
-52.159181711571662
 20
55.700199999997167
 30
0.0
 11
-52.159181711571662
 21
55.000199999997363
 31
0.0
  0
LINE
  5
23F0
  8
0
  6
CONTINUOUS
 62
     7
 10
-54.299181711571059
 20
33.587081039375867
 30
0.0
 11
-54.299181711571059
 21
40.500200000000021
 31
0.0
  0
LINE
  5
23F1
  8
0
  6
CONTINUOUS
 62
     7
 10
-54.299181711571059
 20
40.500200000000021
 30
0.0
 11
-53.659181711570739
 21
40.500200000000021
 31
0.0
  0
LINE
  5
23F2
  8
0
  6
CONTINUOUS
 62
     7
 10
-57.89918171157143
 20
40.000200000000007
 30
0.0
 11
-57.89918171157143
 21
33.587081039375867
 31
0.0
  0
LINE
  5
23F3
  8
0
  6
CONTINUOUS
 62
     7
 10
-58.299181711571073
 20
39.600199999999496
 30
0.0
 11
-58.299181711571073
 21
33.40020000000024
 31
0.0
  0
LINE
  5
23F4
  8
0
  6
CONTINUOUS
 62
     7
 10
-57.89918171157143
 20
40.000200000000007
 30
0.0
 11
-58.299181711571073
 21
39.600199999999496
 31
0.0
  0
LINE
  5
23F5
  8
0
  6
CONTINUOUS
 62
     7
 10
-57.89918171157143
 20
40.000200000000007
 30
0.0
 11
-54.299181711571059
 21
40.000200000000007
 31
0.0
  0
LINE
  5
23F6
  8
0
  6
CONTINUOUS
 62
     7
 10
-54.299181711566533
 20
-24.499800000000018
 30
0.0
 11
-54.299181711566533
 21
-17.756198753318522
 31
0.0
  0
LINE
  5
23F7
  8
0
  6
CONTINUOUS
 62
     7
 10
-54.299181711566533
 20
-24.499800000000018
 30
0.0
 11
-53.659181711567093
 21
-24.499800000000018
 31
0.0
  0
LINE
  5
23F8
  8
0
  6
CONTINUOUS
 62
     7
 10
-57.899181711566882
 20
-17.756198753318522
 30
0.0
 11
-57.899181711566882
 21
-23.999800000000018
 31
0.0
  0
LINE
  5
23F9
  8
0
  6
CONTINUOUS
 62
     7
 10
-58.299181711566519
 20
-17.756198753318522
 30
0.0
 11
-58.299181711566519
 21
-23.599800000000322
 31
0.0
  0
LINE
  5
23FA
  8
0
  6
CONTINUOUS
 62
     7
 10
-58.299181711566519
 20
-23.599800000000322
 30
0.0
 11
-57.899181711566882
 21
-23.999800000000018
 31
0.0
  0
LINE
  5
23FB
  8
0
  6
CONTINUOUS
 62
     7
 10
-57.899181711566882
 20
-23.999800000000018
 30
0.0
 11
-54.299181711566533
 21
-23.999800000000018
 31
0.0
  0
LINE
  5
23FC
  8
0
  6
CONTINUOUS
 62
     7
 10
-77.456422298247446
 20
47.500200000000007
 30
0.0
 11
-80.159181711571648
 21
33.493442008907181
 31
0.0
  0
LINE
  5
23FD
  8
0
  6
CONTINUOUS
 62
     7
 10
-77.15918171157162
 20
55.000200000000021
 30
0.0
 11
-77.15918171157162
 21
-22.22757604275041
 31
0.0
  0
LINE
  5
23FE
  8
0
  6
CONTINUOUS
 62
     7
 10
-53.559181711571277
 20
55.000200000000021
 30
0.0
 11
-77.15918171157162
 21
55.000200000000021
 31
0.0
  0
LINE
  5
23FF
  8
0
  6
CONTINUOUS
 62
     7
 10
-75.15918171157162
 20
-24.999800000000018
 30
0.0
 11
31.540818288428358
 21
-24.999800000000018
 31
0.0
  0
LINE
  5
2400
  8
0
  6
CONTINUOUS
 62
     7
 10
-80.159181711571648
 20
-6.7914796793687904
 30
0.0
 11
-80.159181711571648
 21
57.626811994263811
 31
0.0
  0
LINE
  5
2401
  8
0
  6
CONTINUOUS
 62
     7
 10
-54.659181711571648
 20
55.500200000000021
 30
0.0
 11
-54.659181711571648
 21
40.000200000000007
 31
0.0
  0
LINE
  5
2402
  8
0
  6
CONTINUOUS
 62
     7
 10
-79.775049646991064
 20
-10.164372279850211
 30
0.0
 11
-77.210399320182034
 21
-21.77785702935341
 31
0.0
  0
LINE
  5
2403
  8
0
  6
CONTINUOUS
 62
     7
 10
-77.15918171157162
 20
-22.22757604275041
 30
0.0
 11
-77.15918171157162
 21
-22.999800000000011
 31
0.0
  0
LINE
  5
2404
  8
0
  6
CONTINUOUS
 62
     7
 10
-48.659066399265441
 20
41.000200000000021
 30
0.0
 11
24.040818288428341
 21
41.000200000000021
 31
0.0
  0
LINE
  5
2405
  8
0
  6
CONTINUOUS
 62
     7
 10
31.54081828842833
 20
55.000200000000021
 30
0.0
 11
32.040818288428341
 21
54.500200000000021
 31
0.0
  0
LINE
  5
2406
  8
0
  6
CONTINUOUS
 62
     7
 10
34.540818288428341
 20
50.000200000000021
 30
0.0
 11
35.040818288428341
 21
49.500200000000021
 31
0.0
  0
LINE
  5
2407
  8
0
  6
CONTINUOUS
 62
     7
 10
35.040818288428341
 20
49.500200000000021
 30
0.0
 11
35.040818288428341
 21
15.00020000000004
 31
0.0
  0
LINE
  5
2408
  8
0
  6
CONTINUOUS
 62
     7
 10
32.340818288428522
 20
50.000200000000021
 30
0.0
 11
34.540818288428341
 21
50.000200000000021
 31
0.0
  0
LINE
  5
2409
  8
0
  6
CONTINUOUS
 62
     7
 10
32.040818288428341
 20
54.500200000000021
 30
0.0
 11
32.040818288428341
 21
15.00020000000004
 31
0.0
  0
LINE
  5
240A
  8
0
  6
CONTINUOUS
 62
     7
 10
24.540818288428341
 20
55.000200000000021
 30
0.0
 11
31.54081828842833
 21
55.000200000000021
 31
0.0
  0
LINE
  5
240B
  8
0
  6
CONTINUOUS
 62
     7
 10
35.03882873380541
 20
5.5002000000000404
 30
0.0
 11
39.03882873380541
 21
5.5002000000000404
 31
0.0
  0
LINE
  5
240C
  8
0
  6
CONTINUOUS
 62
     7
 10
66.538828733805403
 20
24.500200000000039
 30
0.0
 11
35.03882873380541
 21
24.500200000000039
 31
0.0
  0
LINE
  5
240D
  8
0
  6
CONTINUOUS
 62
     7
 10
67.038828733805403
 20
6.0002000000000404
 30
0.0
 11
67.038828733805403
 21
24.000200000000039
 31
0.0
  0
LINE
  5
240E
  8
0
  6
CONTINUOUS
 62
     7
 10
39.03882873380541
 20
5.5002000000000404
 30
0.0
 11
66.538828733805403
 21
5.5002000000000404
 31
0.0
  0
LINE
  5
240F
  8
0
  6
CONTINUOUS
 62
     7
 10
67.038828733805403
 20
24.000200000000039
 30
0.0
 11
66.538828733805403
 21
24.500200000000039
 31
0.0
  0
LINE
  5
2410
  8
0
  6
CONTINUOUS
 62
     7
 10
66.538828733805403
 20
5.5002000000000404
 30
0.0
 11
67.038828733805403
 21
6.0002000000000404
 31
0.0
  0
LINE
  5
2411
  8
0
  6
CONTINUOUS
 62
     7
 10
22.240818288429079
 20
55.000200000000021
 30
0.0
 11
22.240818288429079
 21
15.00020000000004
 31
0.0
  0
LINE
  5
2412
  8
0
  6
CONTINUOUS
 62
     7
 10
-53.559181711571277
 20
55.000200000000021
 30
0.0
 11
-53.659181711571648
 21
54.900200000001433
 31
0.0
  0
LINE
  5
2413
  8
0
  6
CONTINUOUS
 62
     7
 10
-53.659181711571648
 20
54.900200000001433
 30
0.0
 11
-53.659181711571648
 21
15.00020000000004
 31
0.0
  0
LINE
  5
2414
  8
0
  6
CONTINUOUS
 62
     7
 10
-49.659181711573353
 20
55.000200000000021
 30
0.0
 11
-49.659181711558773
 21
15.00020000000004
 31
0.0
  0
LINE
  5
2415
  8
0
  6
CONTINUOUS
 62
     7
 10
-53.659181711571648
 20
15.00020000000004
 30
0.0
 11
-53.659181711571648
 21
-24.999800000000018
 31
0.0
  0
LINE
  5
2416
  8
0
  6
CONTINUOUS
 62
     7
 10
66.538828733805403
 20
5.5002000000000404
 30
0.0
 11
67.038828733805403
 21
6.0002000000000404
 31
0.0
  0
LINE
  5
2417
  8
0
  6
CONTINUOUS
 62
     7
 10
67.038828733805403
 20
24.000200000000039
 30
0.0
 11
66.538828733805403
 21
24.500200000000039
 31
0.0
  0
LINE
  5
2418
  8
0
  6
CONTINUOUS
 62
     7
 10
39.03882873380541
 20
5.5002000000000404
 30
0.0
 11
66.538828733805403
 21
5.5002000000000404
 31
0.0
  0
LINE
  5
2419
  8
0
  6
CONTINUOUS
 62
     7
 10
67.038828733805403
 20
6.0002000000000404
 30
0.0
 11
67.038828733805403
 21
24.000200000000039
 31
0.0
  0
LINE
  5
241A
  8
0
  6
CONTINUOUS
 62
     7
 10
66.538828733805403
 20
24.500200000000039
 30
0.0
 11
35.03882873380541
 21
24.500200000000039
 31
0.0
  0
LINE
  5
241B
  8
0
  6
CONTINUOUS
 62
     7
 10
35.03882873380541
 20
5.5002000000000404
 30
0.0
 11
39.03882873380541
 21
5.5002000000000404
 31
0.0
  0
LINE
  5
241C
  8
0
  6
CONTINUOUS
 62
     7
 10
24.040818288428341
 20
55.000200000000021
 30
0.0
 11
24.040818288428341
 21
41.000200000000021
 31
0.0
  0
LINE
  5
241D
  8
0
  6
CONTINUOUS
 62
     7
 10
-53.559181711571277
 20
55.000200000000021
 30
0.0
 11
31.54081828842833
 21
55.000200000000021
 31
0.0
  0
LINE
  5
241E
  8
0
  6
CONTINUOUS
 62
     7
 10
22.240818288429079
 20
55.000200000000021
 30
0.0
 11
24.540818288428341
 21
55.000200000000021
 31
0.0
  0
LINE
  5
241F
  8
0
  6
CONTINUOUS
 62
     7
 10
32.040818288428341
 20
-24.499800000000018
 30
0.0
 11
31.540818288428358
 21
-24.999800000000018
 31
0.0
  0
LINE
  5
2420
  8
0
  6
CONTINUOUS
 62
     7
 10
35.040818288428341
 20
-19.499800000000018
 30
0.0
 11
34.540818288428341
 21
-19.999800000000018
 31
0.0
  0
LINE
  5
2421
  8
0
  6
CONTINUOUS
 62
     7
 10
35.040818288428341
 20
15.00020000000004
 30
0.0
 11
35.040818288428341
 21
-19.499800000000018
 31
0.0
  0
LINE
  5
2422
  8
0
  6
CONTINUOUS
 62
     7
 10
34.540818288428341
 20
-19.999800000000018
 30
0.0
 11
32.340818288428522
 21
-19.999800000000018
 31
0.0
  0
LINE
  5
2423
  8
0
  6
CONTINUOUS
 62
     7
 10
32.040818288428341
 20
15.00020000000004
 30
0.0
 11
32.040818288428341
 21
-24.499800000000018
 31
0.0
  0
LINE
  5
2424
  8
0
  6
CONTINUOUS
 62
     7
 10
22.240818288429079
 20
15.00020000000004
 30
0.0
 11
22.240818288429079
 21
-24.999800000000018
 31
0.0
  0
LINE
  5
2425
  8
0
  6
CONTINUOUS
 62
     7
 10
-77.539181711571786
 20
47.500200000000007
 30
0.0
 11
-77.539181711571786
 21
53.500200000000042
 31
0.0
  0
LINE
  5
2426
  8
0
  6
CONTINUOUS
 62
     7
 10
-77.15918171157162
 20
53.500200000000042
 30
0.0
 11
-77.15918171157162
 21
47.500200000000007
 31
0.0
  0
LINE
  5
2427
  8
0
  6
CONTINUOUS
 62
     7
 10
-77.539181711571786
 20
47.500200000000007
 30
0.0
 11
-77.15918171157162
 21
47.500200000000007
 31
0.0
  0
LINE
  5
2428
  8
0
  6
CONTINUOUS
 62
     7
 10
-77.539181711571786
 20
53.500200000000042
 30
0.0
 11
-77.15918171157162
 21
53.500200000000042
 31
0.0
  0
LINE
  5
2429
  8
0
  6
CONTINUOUS
 62
     7
 10
-77.539181711571786
 20
53.250200000000021
 30
0.0
 11
-78.38643059445009
 21
53.176075327563552
 31
0.0
  0
LINE
  5
242A
  8
0
  6
CONTINUOUS
 62
     7
 10
-77.539181711571786
 20
50.500200000000021
 30
0.0
 11
-77.539181711571786
 21
53.250200000000021
 31
0.0
  0
LINE
  5
242B
  8
0
  6
CONTINUOUS
 62
     7
 10
-77.539181711571786
 20
47.750200000000042
 30
0.0
 11
-77.539181711571786
 21
50.500200000000021
 31
0.0
  0
LINE
  5
242C
  8
0
  6
CONTINUOUS
 62
     7
 10
-78.38643059445009
 20
47.824324672436582
 30
0.0
 11
-77.539181711571786
 21
47.750200000000042
 31
0.0
  0
LINE
  5
242D
  8
0
  6
CONTINUOUS
 62
     7
 10
-77.539181711571786
 20
-9.4998000000000182
 30
0.0
 11
-77.539181711571786
 21
-3.4997999999999601
 31
0.0
  0
LINE
  5
242E
  8
0
  6
CONTINUOUS
 62
     7
 10
-77.15918171157162
 20
-3.4997999999999601
 30
0.0
 11
-77.15918171157162
 21
-9.4998000000000182
 31
0.0
  0
LINE
  5
242F
  8
0
  6
CONTINUOUS
 62
     7
 10
-77.539181711571786
 20
-9.4998000000000182
 30
0.0
 11
-77.15918171157162
 21
-9.4998000000000182
 31
0.0
  0
LINE
  5
2430
  8
0
  6
CONTINUOUS
 62
     7
 10
-77.539181711571786
 20
-3.4997999999999601
 30
0.0
 11
-77.15918171157162
 21
-3.4997999999999601
 31
0.0
  0
LINE
  5
2431
  8
0
  6
CONTINUOUS
 62
     7
 10
-77.539181711571786
 20
-3.7497999999999601
 30
0.0
 11
-78.38643059445009
 21
-3.8239246724364482
 31
0.0
  0
LINE
  5
2432
  8
0
  6
CONTINUOUS
 62
     7
 10
-77.539181711571786
 20
-6.4997999999999587
 30
0.0
 11
-77.539181711571786
 21
-3.7497999999999601
 31
0.0
  0
LINE
  5
2433
  8
0
  6
CONTINUOUS
 62
     7
 10
-77.539181711571786
 20
-9.2498000000000182
 30
0.0
 11
-77.539181711571786
 21
-6.4997999999999587
 31
0.0
  0
LINE
  5
2434
  8
0
  6
CONTINUOUS
 62
     7
 10
-78.38643059445009
 20
-9.1756753275634075
 30
0.0
 11
-77.539181711571786
 21
-9.2498000000000182
 31
0.0
  0
LINE
  5
2435
  8
0
  6
CONTINUOUS
 62
     7
 10
-77.15918171157162
 20
-17.499800000000018
 30
0.0
 11
-77.15918171157162
 21
-23.499800000000018
 31
0.0
  0
LINE
  5
2436
  8
0
  6
CONTINUOUS
 62
     7
 10
-77.539181711571786
 20
-23.499800000000018
 30
0.0
 11
-77.15918171157162
 21
-23.499800000000018
 31
0.0
  0
LINE
  5
2437
  8
0
  6
CONTINUOUS
 62
     7
 10
-78.089302009468454
 20
-17.797929289641019
 30
0.0
 11
-78.38643059445009
 21
-17.823924672436419
 31
0.0
  0
LINE
  5
2438
  8
0
  6
CONTINUOUS
 62
     7
 10
-77.539181711571786
 20
-23.499800000000018
 30
0.0
 11
-77.539181711571786
 21
-20.28903446028961
 31
0.0
  0
LINE
  5
2439
  8
0
  6
CONTINUOUS
 62
     7
 10
-78.38643059445009
 20
-23.175675327563411
 30
0.0
 11
-77.539181711571786
 21
-23.249800000000011
 31
0.0
  0
LINE
  5
243A
  8
0
  6
CONTINUOUS
 62
     7
 10
-77.15918171157162
 20
41.000200000000021
 30
0.0
 11
-54.659181711571648
 21
41.000200000000021
 31
0.0
  0
LINE
  5
243B
  8
0
  6
CONTINUOUS
 62
     7
 10
-77.15918171157162
 20
-10.99980000000002
 30
0.0
 11
-54.659181711571648
 21
-10.99980000000002
 31
0.0
  0
LINE
  5
243C
  8
0
  6
CONTINUOUS
 62
     7
 10
24.040818288428341
 20
-10.99980000000002
 30
0.0
 11
-54.659181711571648
 21
-10.99980000000002
 31
0.0
  0
LINE
  5
243D
  8
0
  6
CONTINUOUS
 62
     7
 10
-49.659181711558773
 20
15.00020000000004
 30
0.0
 11
-49.659181711573353
 21
-24.999800000000018
 31
0.0
  0
LINE
  5
243E
  8
0
  6
CONTINUOUS
 62
     7
 10
-48.659066399269392
 20
41.000200000000021
 30
0.0
 11
-60.157076844658889
 21
41.000200000000021
 31
0.0
  0
LINE
  5
243F
  8
0
  6
CONTINUOUS
 62
     7
 10
-54.659181711572558
 20
55.936768003549624
 30
0.0
 11
-54.659181711571648
 21
55.936768003540529
 31
0.0
  0
LINE
  5
2441
  8
0
  6
CONTINUOUS
 62
     7
 10
-20.159181711571652
 20
62.850199999996761
 30
0.0
 11
-18.159181711571652
 21
62.850199999996761
 31
0.0
  0
LINE
  5
2442
  8
0
  6
CONTINUOUS
 62
     7
 10
-20.159181711571652
 20
55.000200000000021
 30
0.0
 11
-20.159181711571652
 21
66.700199999997054
 31
0.0
  0
LINE
  5
2443
  8
0
  6
CONTINUOUS
 62
     7
 10
-13.359181711571489
 20
103.39935261532401
 30
0.0
 11
-13.359181711571489
 21
86.775940570287872
 31
0.0
  0
LINE
  5
2444
  8
0
  6
CONTINUOUS
 62
     7
 10
-13.85984549064081
 20
103.39935261532401
 30
0.0
 11
-6.059845490587878
 21
103.39935261532401
 31
0.0
  0
LINE
  5
2445
  8
0
  6
CONTINUOUS
 62
     7
 10
-13.85984549064081
 20
106.64935261532401
 30
0.0
 11
-13.85984549064081
 21
103.39935261532401
 31
0.0
  0
LINE
  5
2446
  8
0
  6
CONTINUOUS
 62
     7
 10
-6.059845490587878
 20
106.64935261532401
 30
0.0
 11
-6.059845490587878
 21
103.39935261532401
 31
0.0
  0
LINE
  5
2447
  8
0
  6
CONTINUOUS
 62
     7
 10
-12.35986577734578
 20
110.64935261532401
 30
0.0
 11
-7.559851933235529
 21
110.64935261532401
 31
0.0
  0
LINE
  5
2448
  8
0
  6
CONTINUOUS
 62
     7
 10
-12.35986577734578
 20
108.14935261532401
 30
0.0
 11
-13.85984549064081
 21
106.64935261532401
 31
0.0
  0
LINE
  5
2449
  8
0
  6
CONTINUOUS
 62
     7
 10
-7.559851933235529
 20
108.14935261532401
 30
0.0
 11
-7.559851933235529
 21
110.64935261532401
 31
0.0
  0
LINE
  5
244A
  8
0
  6
CONTINUOUS
 62
     7
 10
-7.559851933235529
 20
108.14935261532401
 30
0.0
 11
-6.059845490587878
 21
106.64935261532401
 31
0.0
  0
LINE
  5
244B
  8
0
  6
CONTINUOUS
 62
     7
 10
-12.35986577734578
 20
110.64935261532401
 30
0.0
 11
-12.35986577734578
 21
108.14935261532401
 31
0.0
  0
LINE
  5
244C
  8
0
  6
CONTINUOUS
 62
     7
 10
-13.85937460630643
 20
117.3951519434809
 30
0.0
 11
-13.85887461320211
 21
131.8946519434817
 31
0.0
  0
LINE
  5
244D
  8
0
  6
CONTINUOUS
 62
     7
 10
-17.943916476839441
 20
126.2701519434809
 30
0.0
 11
-18.193916476839451
 21
124.8951519434809
 31
0.0
  0
LINE
  5
244E
  8
0
  6
CONTINUOUS
 62
     7
 10
-18.609340123428709
 20
124.8951519434809
 30
0.0
 11
-18.609340123428709
 21
123.8951519434809
 31
0.0
  0
LINE
  5
244F
  8
0
  6
CONTINUOUS
 62
     7
 10
-18.193916476839451
 20
124.8951519434809
 30
0.0
 11
-18.609340123428709
 21
124.8951519434809
 31
0.0
  0
LINE
  5
2450
  8
0
  6
CONTINUOUS
 62
     7
 10
-18.609340123428709
 20
123.8951519434809
 30
0.0
 11
-17.359340123428709
 21
123.8951519434809
 31
0.0
  0
LINE
  5
2451
  8
0
  6
CONTINUOUS
 62
     7
 10
-16.47131029094755
 20
128.7793160221313
 30
0.0
 11
-17.359340123428709
 21
123.8951519434809
 31
0.0
  0
LINE
  5
2452
  8
0
  6
CONTINUOUS
 62
     7
 10
-14.85934012342871
 20
118.3951519434809
 30
0.0
 11
-14.85934012342871
 21
128.6451519434809
 31
0.0
  0
LINE
  5
2453
  8
0
  6
CONTINUOUS
 62
     7
 10
-14.85934012342871
 20
118.3951519434809
 30
0.0
 11
-15.859374607495139
 21
118.3951519434809
 31
0.0
  0
LINE
  5
2454
  8
0
  6
CONTINUOUS
 62
     7
 10
-15.859374607495139
 20
118.3951519434809
 30
0.0
 11
-15.859374607495139
 21
117.3951519434809
 31
0.0
  0
LINE
  5
2455
  8
0
  6
CONTINUOUS
 62
     7
 10
-4.0589286115731076
 20
118.3951519434809
 30
0.0
 11
-5.058963095640439
 21
118.3951519434809
 31
0.0
  0
LINE
  5
2456
  8
0
  6
CONTINUOUS
 62
     7
 10
-4.0589286115731076
 20
117.3951519434809
 30
0.0
 11
-4.0589286115731076
 21
118.3951519434809
 31
0.0
  0
LINE
  5
2457
  8
0
  6
CONTINUOUS
 62
     7
 10
-5.058963095640439
 20
131.8951519434809
 30
0.0
 11
-5.058963095640439
 21
118.3951519434809
 31
0.0
  0
LINE
  5
2458
  8
0
  6
CONTINUOUS
 62
     7
 10
-13.35855734772243
 20
131.8951519434809
 30
0.0
 11
-13.3593746060081
 21
117.3951519434809
 31
0.0
  0
LINE
  5
2459
  8
0
  6
CONTINUOUS
 62
     7
 10
-4.0589286115731076
 20
117.3951519434809
 30
0.0
 11
-15.859374607495139
 21
117.3951519434809
 31
0.0
  0
LINE
  5
245A
  8
0
  6
CONTINUOUS
 62
     7
 10
-6.5600120904167181
 20
86.775940570287872
 30
0.0
 11
-6.5600120904167181
 21
103.39935261532401
 31
0.0
  0
LINE
  5
245B
  8
0
  6
CONTINUOUS
 62
     7
 10
-7.9598711488445879
 20
117.3950810214962
 30
0.0
 11
-7.9598711488445879
 21
110.64935261532401
 31
0.0
  0
LINE
  5
245C
  8
0
  6
CONTINUOUS
 62
     7
 10
-9.2099211488451385
 20
117.39510318550271
 30
0.0
 11
-9.2099211488451385
 21
110.64935261532401
 31
0.0
  0
LINE
  5
245D
  8
0
  6
CONTINUOUS
 62
     7
 10
-10.70987114884459
 20
117.395129780361
 30
0.0
 11
-10.70987114884459
 21
110.64935261532401
 31
0.0
  0
LINE
  5
245E
  8
0
  6
CONTINUOUS
 62
     7
 10
-11.95987114884459
 20
117.3951519434809
 30
0.0
 11
-11.95987114884459
 21
110.64935261532401
 31
0.0
  0
LINE
  5
245F
  8
0
  6
CONTINUOUS
 62
     7
 10
-5.058963095640439
 20
131.8951519434809
 30
0.0
 11
-14.85934012342871
 21
131.8951519434809
 31
0.0
  0
LINE
  5
2460
  8
0
  6
CONTINUOUS
 62
     7
 10
-15.943916476839449
 20
136.8951519434809
 30
0.0
 11
-15.193916476839449
 21
135.6451519434809
 31
0.0
  0
LINE
  5
2461
  8
0
  6
CONTINUOUS
 62
     7
 10
-17.943916476839441
 20
126.2701519434809
 30
0.0
 11
-17.943916476839441
 21
136.3951519434809
 31
0.0
  0
LINE
  5
2462
  8
0
  6
CONTINUOUS
 62
     7
 10
-15.193916476839449
 20
135.6451519434809
 30
0.0
 11
-15.193916476839449
 21
134.8951519434809
 31
0.0
  0
LINE
  5
2463
  8
0
  6
CONTINUOUS
 62
     7
 10
-16.193916476839451
 20
134.8951519434809
 30
0.0
 11
-15.193916476839449
 21
134.8951519434809
 31
0.0
  0
LINE
  5
2464
  8
0
  6
CONTINUOUS
 62
     7
 10
-16.193916476839451
 20
130.89859599417699
 30
0.0
 11
-16.193916476839451
 21
134.8951519434809
 31
0.0
  0
LINE
  5
2465
  8
0
  6
CONTINUOUS
 62
     7
 10
-15.94391647685765
 20
136.8951519434809
 30
0.0
 11
-15.943916476839449
 21
136.8951519434809
 31
0.0
  0
LINE
  5
2466
  8
0
  6
CONTINUOUS
 62
     7
 10
-16.943916476839451
 20
136.8951519434809
 30
0.0
 11
-17.943916476839441
 21
136.3951519434809
 31
0.0
  0
LINE
  5
2467
  8
0
  6
CONTINUOUS
 62
     7
 10
-16.359340123428709
 20
130.8951519434809
 30
0.0
 11
-17.103007385930439
 21
130.8951519434809
 31
0.0
  0
LINE
  5
2468
  8
0
  6
CONTINUOUS
 62
     7
 10
-17.103007385930439
 20
130.8951519434809
 30
0.0
 11
-17.943916476839441
 21
126.2701519434809
 31
0.0
  0
LINE
  5
2469
  8
0
  6
CONTINUOUS
 62
     7
 10
-15.733407858371111
 20
129.3951519434809
 30
0.0
 11
-15.60934012342871
 21
129.3951519434809
 31
0.0
  0
LINE
  5
246A
  8
0
  6
CONTINUOUS
 62
     7
 10
-6.058963095640439
 20
141.0951519434808
 30
0.0
 11
-9.5592803456641597
 21
141.0951519434808
 31
0.0
  0
LINE
  5
246B
  8
0
  6
CONTINUOUS
 62
     7
 10
-9.5592803456641597
 20
141.0951519434808
 30
0.0
 11
-9.5592803456641597
 21
131.8951519434809
 31
0.0
  0
LINE
  5
246C
  8
0
  6
CONTINUOUS
 62
     7
 10
-6.058963095640439
 20
131.8951519434809
 30
0.0
 11
-6.058963095640439
 21
141.0951519434808
 31
0.0
  0
LINE
  5
246D
  8
0
  6
CONTINUOUS
 62
     7
 10
-10.108557345790659
 20
141.0951519434808
 30
0.0
 11
-13.60887459581256
 21
141.0951519434808
 31
0.0
  0
LINE
  5
246E
  8
0
  6
CONTINUOUS
 62
     7
 10
-13.60887459581256
 20
141.0951519434808
 30
0.0
 11
-13.60887459581256
 21
131.8951519434809
 31
0.0
  0
LINE
  5
246F
  8
0
  6
CONTINUOUS
 62
     7
 10
-10.108557345790659
 20
131.8951519434809
 30
0.0
 11
-10.108557345790659
 21
141.0951519434808
 31
0.0
  0
LINE
  5
2470
  8
0
  6
CONTINUOUS
 62
     7
 10
-13.60887459581256
 20
131.8951519434809
 30
0.0
 11
-14.85934012342871
 21
131.8951519434809
 31
0.0
  0
LINE
  5
2471
  8
0
  6
CONTINUOUS
 62
     7
 10
-15.943916476839449
 20
136.8951519434809
 30
0.0
 11
-16.943916476839451
 21
136.8951519434809
 31
0.0
  0
LINE
  5
2472
  8
0
  6
DASH_CENTER
 62
     1
 10
-9.8339188457274105
 20
143.59548455382321
 30
0.0
 11
-9.8339188457274105
 21
67.450199999997068
 31
0.0
  0
LINE
  5
2473
  8
0
  6
CONTINUOUS
 62
     7
 10
-13.359181711571489
 20
67.722953767747896
 30
0.0
 11
-13.359181711571489
 21
85.262312314850092
 31
0.0
  0
LINE
  5
2474
  8
0
  6
CONTINUOUS
 62
     7
 10
-6.5600120904167181
 20
69.650199999996886
 30
0.0
 11
-6.5600120904167181
 21
85.262312314850092
 31
0.0
  0
LINE
  5
2476
  8
0
  6
CONTINUOUS
 62
     7
 10
-57.899181711566882
 20
-16.999800000000519
 30
0.0
 11
-57.899181711566882
 21
-23.243401246682009
 31
0.0
  0
LINE
  5
2477
  8
0
  6
CONTINUOUS
 62
     7
 10
-58.299181711566519
 20
-17.399800000000209
 30
0.0
 11
-58.299181711566519
 21
-23.243401246682009
 31
0.0
  0
LINE
  5
2478
  8
0
  6
CONTINUOUS
 62
     7
 10
-57.899181711566882
 20
-16.999800000000519
 30
0.0
 11
-58.299181711566519
 21
-17.399800000000209
 31
0.0
  0
LINE
  5
2479
  8
0
  6
CONTINUOUS
 62
     7
 10
-53.659181711567093
 20
-16.499800000000519
 30
0.0
 11
-54.299181711566533
 21
-16.499800000000519
 31
0.0
  0
LINE
  5
247A
  8
0
  6
CONTINUOUS
 62
     7
 10
-57.899181711566882
 20
-16.999800000000519
 30
0.0
 11
-58.299181711566519
 21
-17.399800000000209
 31
0.0
  0
LINE
  5
247B
  8
0
  6
CONTINUOUS
 62
     7
 10
-54.299181711566533
 20
-16.999800000000519
 30
0.0
 11
-57.899181711566882
 21
-16.999800000000519
 31
0.0
  0
LINE
  5
247C
  8
0
  6
CONTINUOUS
 62
     7
 10
-54.299181711566533
 20
-23.243401246682009
 30
0.0
 11
-54.299181711566533
 21
-16.499800000000519
 31
0.0
  0
LINE
  5
247D
  8
0
  6
CONTINUOUS
 62
     7
 10
-60.157076844658889
 20
-24.999800000000018
 30
0.0
 11
-60.159181711571641
 21
-16.163740653626721
 31
0.0
  0
LINE
  5
247E
  8
0
  6
CONTINUOUS
 62
     7
 10
-60.159181711571641
 20
-16.163740653626721
 30
0.0
 11
-54.659181711571648
 21
-16.163740653626721
 31
0.0
  0
LINE
  5
247F
  8
0
  6
CONTINUOUS
 62
     7
 10
-57.89918171157143
 20
39.243801246682068
 30
0.0
 11
-57.89918171157143
 21
33.000200000000547
 31
0.0
  0
LINE
  5
2480
  8
0
  6
CONTINUOUS
 62
     7
 10
-54.299181711571059
 20
32.500200000000561
 30
0.0
 11
-53.659181711571648
 21
32.500200000000561
 31
0.0
  0
LINE
  5
2481
  8
0
  6
CONTINUOUS
 62
     7
 10
-58.299181711571073
 20
33.40020000000024
 30
0.0
 11
-57.89918171157143
 21
33.000200000000547
 31
0.0
  0
LINE
  5
2482
  8
0
  6
CONTINUOUS
 62
     7
 10
-57.89918171157143
 20
33.000200000000547
 30
0.0
 11
-54.299181711571059
 21
33.000200000000547
 31
0.0
  0
LINE
  5
2483
  8
0
  6
CONTINUOUS
 62
     7
 10
-54.299181711571059
 20
32.500200000000561
 30
0.0
 11
-54.299181711571059
 21
39.243801246682068
 31
0.0
  0
LINE
  5
2484
  8
0
  6
CONTINUOUS
 62
     7
 10
-60.154971977746143
 20
32.164140653626731
 30
0.0
 11
-60.157076844658889
 21
41.000200000000021
 31
0.0
  0
LINE
  5
2485
  8
0
  6
CONTINUOUS
 62
     7
 10
-60.154971977746143
 20
32.164140653626731
 30
0.0
 11
-54.657076844664353
 21
32.164140653626731
 31
0.0
  0
LINE
  5
2486
  8
0
  6
CONTINUOUS
 62
     7
 10
-20.159181711571652
 20
64.200199999996272
 30
0.0
 11
-20.159181711571652
 21
66.700199999997054
 31
0.0
  0
LINE
  5
2487
  8
0
  6
CONTINUOUS
 62
     7
 10
24.040818288428341
 20
-10.99980000000002
 30
0.0
 11
24.040818288428341
 21
-24.999800000000018
 31
0.0
  0
LINE
  5
2488
  8
0
  6
CONTINUOUS
 62
     7
 10
-54.659181711571648
 20
-23.999800000000018
 30
0.0
 11
-54.659181711571648
 21
-24.999800000000018
 31
0.0
  0
LINE
  5
2489
  8
0
  6
CONTINUOUS
 62
     7
 10
-54.659181711567683
 20
33.000200000000547
 30
0.0
 11
-54.659181711571648
 21
-16.999800000000519
 31
0.0
  0
ARC
  5
248B
  8
0
  6
CONTINUOUS
 62
     7
 10
-58.944715214647083
 20
132.4447454817761
 30
0.0
 40
1.550083525850416
 50
268.13330619648991
 51
339.24682885551431
  0
ARC
  5
248C
  8
0
  6
CONTINUOUS
 62
     2
 10
-52.144787188168017
 20
92.753896221559089
 30
0.0
 40
2.5500000000012082
 50
60.00000000001576
 51
119.9999999999844
  0
ARC
  5
248D
  8
0
  6
CONTINUOUS
 62
     2
 10
-49.59478718816802
 20
97.170625780860206
 30
0.0
 40
2.5499999999991911
 50
239.99999999998951
 51
300.00000000001052
  0
ARC
  5
248E
  8
0
  6
CONTINUOUS
 62
     2
 10
-52.144787188168017
 20
91.476568046096205
 30
0.0
 40
2.5499999999998679
 50
59.999999999998337
 51
120.0000000000018
  0
ARC
  5
248F
  8
0
  6
CONTINUOUS
 62
     2
 10
-49.59478718816802
 20
95.893297605397365
 30
0.0
 40
2.5500000000005461
 50
240.00000000000719
 51
299.99999999999289
  0
ARC
  5
2490
  8
0
  6
CONTINUOUS
 62
     7
 10
-60.09502544524122
 20
63.11926420647584
 30
0.0
 40
0.8000000000005541
 50
340.00000759646281
 51
49.557291768810501
  0
ARC
  5
2491
  8
0
  6
CONTINUOUS
 62
     7
 10
-63.468199774651389
 20
59.161778269239811
 30
0.0
 40
6.0000000000012799
 50
49.557291768867742
 51
80.442723424029879
  0
ARC
  5
2492
  8
0
  6
CONTINUOUS
 62
     7
 10
-62.604825687693243
 20
64.289602874857934
 30
0.0
 40
0.800000000000382
 50
80.442723424066941
 51
150.00000759652929
  0
ARC
  5
2493
  8
0
  6
CONTINUOUS
 62
     7
 10
-71.344467855332667
 20
63.827582502776437
 30
0.0
 40
0.1000000000016858
 50
120.5610106906651
 51
244.999999999278
  0
ARC
  5
2494
  8
0
  6
CONTINUOUS
 62
     7
 10
-67.849635893575709
 20
64.846022600556935
 30
0.0
 40
0.9999999999992507
 50
65.000000000001833
 51
120.56101069127649
  0
ARC
  5
2495
  8
0
  6
CONTINUOUS
 62
     7
 10
-56.297484174816717
 20
59.459165785937913
 30
0.0
 40
0.9999999999985336
 50
9.4389893088012702
 51
65.000000000071111
  0
ARC
  5
2496
  8
0
  6
CONTINUOUS
 62
     7
 10
-54.83121986941326
 20
56.127328505940241
 30
0.0
 40
0.0999999999990091
 50
245.00000000113701
 51
9.4389893087373107
  0
ARC
  5
2497
  8
0
  6
CONTINUOUS
 62
     7
 10
-34.043810710213933
 20
59.052465210070892
 30
0.0
 40
0.7999999999994479
 50
105.4427158275502
 51
175.00000000005471
  0
ARC
  5
2498
  8
0
  6
CONTINUOUS
 62
     7
 10
-32.659181711553472
 20
54.040200000001882
 30
0.0
 40
6.0
 50
90.0
 51
105.4427158275769
  0
ARC
  5
2499
  8
0
  6
CONTINUOUS
 62
     7
 10
-31.274552712892131
 20
59.052465210070892
 30
0.0
 40
0.7999999999985438
 50
4.999999999956608
 51
74.557284172512595
  0
ARC
  5
249A
  8
0
  6
CONTINUOUS
 62
     7
 10
-32.659181711553472
 20
54.040200000001882
 30
0.0
 40
5.9999999999994049
 50
74.557284172423152
 51
90.0
  0
ARC
  5
249B
  8
0
  6
CONTINUOUS
 62
     7
 10
-78.299274851701085
 20
48.820519370528572
 30
0.0
 40
1.0000000000005611
 50
196.25702789659829
 51
264.99999999992349
  0
ARC
  5
249C
  8
0
  6
CONTINUOUS
 62
     7
 10
-72.539181711571786
 20
50.500200000000021
 30
0.0
 40
7.0
 50
180.0
 51
196.25702789660599
  0
ARC
  5
249D
  8
0
  6
CONTINUOUS
 62
     7
 10
-78.299274851701085
 20
52.179880629471562
 30
0.0
 40
1.000000000000355
 50
95.000000000076426
 51
163.74297210341069
  0
ARC
  5
249E
  8
0
  6
CONTINUOUS
 62
     7
 10
-72.539181711571786
 20
50.500200000000021
 30
0.0
 40
6.999999999999444
 50
163.74297210339481
 51
180.0
  0
ARC
  5
249F
  8
0
  6
CONTINUOUS
 62
     7
 10
-78.299274851701085
 20
-8.1794806294714402
 30
0.0
 40
1.0000000000005611
 50
196.25702789659829
 51
264.99999999992349
  0
ARC
  5
24A0
  8
0
  6
CONTINUOUS
 62
     7
 10
-72.539181711571786
 20
-6.4997999999999587
 30
0.0
 40
7.0
 50
180.0
 51
196.25702789660599
  0
ARC
  5
24A1
  8
0
  6
CONTINUOUS
 62
     7
 10
-78.299274851701085
 20
-4.8201193705284879
 30
0.0
 40
1.000000000000411
 50
95.000000000076156
 51
163.74297210340799
  0
ARC
  5
24A2
  8
0
  6
CONTINUOUS
 62
     7
 10
-72.539181711571786
 20
-6.4997999999999587
 30
0.0
 40
6.999999999999444
 50
163.74297210339481
 51
180.0
  0
ARC
  5
24A3
  8
0
  6
CONTINUOUS
 62
     7
 10
-78.299274851701085
 20
-22.17948062947141
 30
0.0
 40
1.000000000000554
 50
196.2570278965969
 51
264.99999999992372
  0
ARC
  5
24A4
  8
0
  6
CONTINUOUS
 62
     7
 10
-72.539181711571786
 20
-20.499800000000018
 30
0.0
 40
7.0
 50
180.0
 51
196.25702789660511
  0
ARC
  5
24A5
  8
0
  6
CONTINUOUS
 62
     7
 10
-78.299274851701085
 20
-18.82011937052842
 30
0.0
 40
1.000000000000373
 50
95.000000000076412
 51
163.74297210341459
  0
ARC
  5
24A6
  8
0
  6
CONTINUOUS
 62
     7
 10
-72.539181711571786
 20
-20.499800000000018
 30
0.0
 40
6.999999999999444
 50
163.74297210339481
 51
180.0
  0
ARC
  5
24A7
  8
0
  6
CONTINUOUS
 62
     2
 10
-8.2598044957060903
 20
88.206439123130224
 30
0.0
 40
3.399584810577128
 50
240.0000000000197
 51
300.00000000000682
  0
ARC
  5
24A8
  8
0
  6
CONTINUOUS
 62
     2
 10
-11.65938930628211
 20
82.318185506570899
 30
0.0
 40
3.3995848105768021
 50
59.999999999998643
 51
120.00000000001459
  0
ARC
  5
24A9
  8
0
  6
CONTINUOUS
 62
     2
 10
-8.2598044957060903
 20
89.720067378567066
 30
0.0
 40
3.399584810576342
 50
240.00000000001211
 51
300.0000000000145
  0
ARC
  5
24AA
  8
0
  6
CONTINUOUS
 62
     2
 10
-11.65938930628211
 20
83.831813762009489
 30
0.0
 40
3.3995848105761119
 50
59.999999999991971
 51
120.0000000000213
  0
ARC
  5
24AB
  8
0
  6
CONTINUOUS
 62
     7
 10
-16.308847408730198
 20
132.4444128714328
 30
0.0
 40
1.550083525851438
 50
268.13330619649139
 51
274.25209721598861
  0
ARC
  5
24AC
  8
0
  6
CONTINUOUS
 62
     7
 10
-16.308847408730198
 20
132.4444128714328
 30
0.0
 40
1.550083525850849
 50
274.25209721598861
 51
339.24682885547901
  0
ARC
  5
24AD
  8
0
  6
CONTINUOUS
 62
     7
 10
-19.159181711571652
 20
68.635812404043151
 30
0.0
 40
5.8713976947448758
 50
279.80626208769348
 51
351.0556238509829
  0
ARC
  5
24AE
  8
0
  6
CONTINUOUS
 62
     7
 10
-19.16001209041708
 20
68.650199999996886
 30
0.0
 40
12.639620247459421
 50
274.53777250790699
 51
4.5377725079065181
  0
ARC
  5
24B2
  8
0
  6
DASH_CENTER
 62
     1
 10
-53.869787188168019
 20
86.844243549954484
 30
0.0
 40
3.0
 50
334.9999974070281
 51
0.0
  0
ARC
  5
24B3
  8
0
  6
CONTINUOUS
 62
     7
 10
-58.369275664287102
 20
128.64548455382521
 30
0.0
 40
0.75
 50
90.0
 51
169.69515353138911
  0
ARC
  5
24B4
  8
0
  6
CONTINUOUS
 62
     7
 10
-58.245207929345611
 20
128.64548455382521
 30
0.0
 40
0.75
 50
0.0
 51
90.0
  0
ARC
  5
24B5
  8
0
  6
CONTINUOUS
 62
     7
 10
-78.159181711571662
 20
57.626811994263811
 30
0.0
 40
1.999999999999625
 50
120.5003993976466
 51
180.0
  0
ARC
  5
24B6
  8
0
  6
CONTINUOUS
 62
     7
 10
-71.462292156387178
 20
62.668809165817017
 30
0.0
 40
1.0000000000009051
 50
65.000000000046057
 51
120.5003993975845
  0
ARC
  5
24B8
  8
0
  6
CONTINUOUS
 62
     7
 10
-58.867925398014393
 20
87.849272366277177
 30
0.0
 40
5.4481382254815971
 50
334.89879842107689
 51
0.00434070709311
  0
ARC
  5
24B9
  8
0
  6
CONTINUOUS
 62
     7
 10
-58.871672374709121
 20
87.848832844746454
 30
0.0
 40
10.55188519481848
 50
334.89085647295383
 51
359.9977306465409
  0
ARC
  5
24BA
  8
0
  6
DASH_CENTER
 62
     1
 10
-17.83391884572741
 20
67.450199999997068
 30
0.0
 40
8.0
 50
270.0
 51
0.0
  0
ARC
  5
24BB
  8
0
  6
CONTINUOUS
 62
     7
 10
-21.159181711571652
 20
66.700199999997054
 30
0.0
 40
1.0
 50
0.0
 51
90.0
  0
ARC
  5
24BC
  8
0
  6
CONTINUOUS
 62
     7
 10
-43.783446595466863
 20
66.700199999997182
 30
0.0
 40
1.0
 50
90.0
 51
131.18592516567011
  0
ARC
  5
24BD
  8
0
  6
CONTINUOUS
 62
     7
 10
-51.159181711571648
 20
60.246431773404453
 30
0.0
 40
1.000000000000679
 50
131.18592516570999
 51
180.0
  0
ARC
  5
24BE
  8
0
  6
CONTINUOUS
 62
     7
 10
-35.459181711571851
 20
57.900199999996993
 30
0.0
 40
0.1999999999999957
 50
180.0
 51
270.0
  0
ARC
  5
24BF
  8
0
  6
CONTINUOUS
 62
     7
 10
-29.859181711571669
 20
57.900199999996993
 30
0.0
 40
0.1999999999998181
 50
270.00000000005701
 51
0.0
  0
ARC
  5
24C0
  8
0
  6
CONTINUOUS
 62
     7
 10
-65.159181711571634
 20
-6.7914796793687904
 30
0.0
 40
15.00000000000003
 50
180.0
 51
192.9946167919164
  0
ARC
  5
24C1
  8
0
  6
CONTINUOUS
 62
     7
 10
-75.15918171157162
 20
-22.999800000000011
 30
0.0
 40
2.0
 50
180.0
 51
270.0
  0
ARC
  5
24C2
  8
0
  6
CONTINUOUS
 62
     7
 10
-79.159181711571662
 20
-22.22757604275041
 30
0.0
 40
2.0000000000000431
 50
0.0
 51
12.994616791899601
  0
ARC
  5
24C3
  8
0
  6
CONTINUOUS
 62
     7
 10
32.340818288428522
 20
50.300199999999357
 30
0.0
 40
0.3000000000001819
 50
180.0
 51
270.0
  0
ARC
  5
24C4
  8
0
  6
CONTINUOUS
 62
     7
 10
32.340818288428522
 20
-20.29979999999831
 30
0.0
 40
0.2999999999982919
 50
90.0
 51
180.0
  0
ARC
  5
24C5
  8
0
  6
CONTINUOUS
 62
     7
 10
-15.60934012342871
 20
128.6451519434809
 30
0.0
 40
0.75
 50
0.0
 51
90.0
  0
ARC
  5
24C6
  8
0
  6
CONTINUOUS
 62
     7
 10
-15.733407858371111
 20
128.6451519434809
 30
0.0
 40
0.75
 50
90.0
 51
169.69515353122361
  0
LINE
  5
25E7
  8
0
  6
DASH_CENTER
 62
     1
 10
72.038828733809055
 20
-99.999799999999993
 30
0.0
 11
-84.659181711572373
 21
-99.999799999999993
 31
0.0
  0
LINE
  5
25E8
  8
0
  6
CONTINUOUS
 62
     7
 10
35.038828733809069
 20
-134.49979999999999
 30
0.0
 11
35.038828733809069
 21
-115.9208713416796
 31
0.0
  0
LINE
  5
25E9
  8
0
  6
CONTINUOUS
 62
     7
 10
-54.157076844660992
 20
-73.999799999999979
 30
0.0
 11
-54.157076844660992
 21
-81.412918960630506
 31
0.0
  0
LINE
  5
25EA
  8
0
  6
CONTINUOUS
 62
     7
 10
-54.797076844662229
 20
-81.412918960630506
 30
0.0
 11
-54.797076844662229
 21
-74.499799999999979
 31
0.0
  0
LINE
  5
25EB
  8
0
  6
CONTINUOUS
 62
     7
 10
-54.797076844662229
 20
-74.499799999999979
 30
0.0
 11
-54.157076844660992
 21
-74.499799999999979
 31
0.0
  0
LINE
  5
25EC
  8
0
  6
CONTINUOUS
 62
     7
 10
-58.397076844662593
 20
-74.999799999999979
 30
0.0
 11
-58.397076844662593
 21
-81.412918960630506
 31
0.0
  0
LINE
  5
25ED
  8
0
  6
CONTINUOUS
 62
     7
 10
-58.797076844662229
 20
-75.39979999999963
 30
0.0
 11
-58.797076844662229
 21
-81.599800000000343
 31
0.0
  0
LINE
  5
25EE
  8
0
  6
CONTINUOUS
 62
     7
 10
-58.397076844662593
 20
-74.999799999999979
 30
0.0
 11
-58.797076844662229
 21
-75.39979999999963
 31
0.0
  0
LINE
  5
25EF
  8
0
  6
CONTINUOUS
 62
     7
 10
-58.397076844662593
 20
-74.999799999999979
 30
0.0
 11
-54.797076844662229
 21
-74.999799999999979
 31
0.0
  0
LINE
  5
25F0
  8
0
  6
CONTINUOUS
 62
     7
 10
-54.797076844651322
 20
-139.49979999999999
 30
0.0
 11
-54.797076844651322
 21
-132.75619875331941
 31
0.0
  0
LINE
  5
25F1
  8
0
  6
CONTINUOUS
 62
     7
 10
-54.797076844651322
 20
-139.49979999999999
 30
0.0
 11
-54.157076844660992
 21
-139.49979999999999
 31
0.0
  0
LINE
  5
25F2
  8
0
  6
CONTINUOUS
 62
     7
 10
-58.397076844651671
 20
-132.75619875331941
 30
0.0
 11
-58.397076844651671
 21
-138.99979999999999
 31
0.0
  0
LINE
  5
25F3
  8
0
  6
CONTINUOUS
 62
     7
 10
-58.797076844651301
 20
-132.75619875331941
 30
0.0
 11
-58.797076844651301
 21
-138.59980000000041
 31
0.0
  0
LINE
  5
25F4
  8
0
  6
CONTINUOUS
 62
     7
 10
-58.797076844651301
 20
-138.59980000000041
 30
0.0
 11
-58.397076844651671
 21
-138.99979999999999
 31
0.0
  0
LINE
  5
25F5
  8
0
  6
CONTINUOUS
 62
     7
 10
-58.397076844651671
 20
-138.99979999999999
 30
0.0
 11
-54.797076844651322
 21
-138.99979999999999
 31
0.0
  0
LINE
  5
25F6
  8
0
  6
CONTINUOUS
 62
     7
 10
-76.659181711572373
 20
-60.025153885350342
 30
0.0
 11
-76.659181711572373
 21
-137.2275760427496
 31
0.0
  0
LINE
  5
25F7
  8
0
  6
CONTINUOUS
 62
     7
 10
-53.05918171157203
 20
-59.999799999999993
 30
0.0
 11
-76.659181711572373
 21
-59.999799999999993
 31
0.0
  0
LINE
  5
25F8
  8
0
  6
CONTINUOUS
 62
     7
 10
-74.659181711572373
 20
-139.99979999999999
 30
0.0
 11
31.540818288428341
 21
-139.99979999999999
 31
0.0
  0
LINE
  5
25F9
  8
0
  6
CONTINUOUS
 62
     7
 10
-54.159181711572387
 20
-59.999799999999993
 30
0.0
 11
-54.159181711572387
 21
-139.99979999999999
 31
0.0
  0
LINE
  5
25FA
  8
0
  6
CONTINUOUS
 62
     7
 10
-79.275049646991775
 20
-125.1643722798494
 30
0.0
 11
-76.71039932018094
 21
-136.77785702935981
 31
0.0
  0
LINE
  5
25FB
  8
0
  6
CONTINUOUS
 62
     7
 10
-76.659181711572373
 20
-137.2275760427496
 30
0.0
 11
-76.659181711572373
 21
-137.99979999999999
 31
0.0
  0
LINE
  5
25FC
  8
0
  6
CONTINUOUS
 62
     7
 10
-48.659066399271182
 20
-73.999799999999979
 30
0.0
 11
24.040818288428341
 21
-73.999799999999979
 31
0.0
  0
LINE
  5
25FD
  8
0
  6
CONTINUOUS
 62
     7
 10
31.540818288428341
 20
-59.999799999999993
 30
0.0
 11
32.040818288428341
 21
-60.499799999999993
 31
0.0
  0
LINE
  5
25FE
  8
0
  6
CONTINUOUS
 62
     7
 10
34.540818288428341
 20
-64.999799999999993
 30
0.0
 11
35.040818288428341
 21
-65.499799999999993
 31
0.0
  0
LINE
  5
25FF
  8
0
  6
CONTINUOUS
 62
     7
 10
35.040818288428341
 20
-65.499799999999993
 30
0.0
 11
35.040818288428341
 21
-99.999799999999993
 31
0.0
  0
LINE
  5
2600
  8
0
  6
CONTINUOUS
 62
     7
 10
32.340818288427613
 20
-64.999799999999993
 30
0.0
 11
34.540818288428341
 21
-64.999799999999993
 31
0.0
  0
LINE
  5
2601
  8
0
  6
CONTINUOUS
 62
     7
 10
32.040818288428341
 20
-60.499799999999993
 30
0.0
 11
32.040818288428341
 21
-99.999799999999993
 31
0.0
  0
LINE
  5
2602
  8
0
  6
CONTINUOUS
 62
     7
 10
22.240818288429079
 20
-59.999799999999993
 30
0.0
 11
22.240818288429079
 21
-62.64979999999963
 31
0.0
  0
LINE
  5
2603
  8
0
  6
CONTINUOUS
 62
     7
 10
24.540818288428341
 20
-59.999799999999993
 30
0.0
 11
31.540818288428341
 21
-59.999799999999993
 31
0.0
  0
LINE
  5
2604
  8
0
  6
CONTINUOUS
 62
     7
 10
35.038828733809069
 20
-109.49979999999999
 30
0.0
 11
39.038828733809062
 21
-109.49979999999999
 31
0.0
  0
LINE
  5
2605
  8
0
  6
CONTINUOUS
 62
     7
 10
66.538828733809055
 20
-90.499799999999993
 30
0.0
 11
35.038828733809069
 21
-90.499799999999993
 31
0.0
  0
LINE
  5
2606
  8
0
  6
CONTINUOUS
 62
     7
 10
67.038828733809055
 20
-108.99979999999999
 30
0.0
 11
67.038828733809055
 21
-90.999799999999993
 31
0.0
  0
LINE
  5
2607
  8
0
  6
CONTINUOUS
 62
     7
 10
39.038828733809062
 20
-109.49979999999999
 30
0.0
 11
66.538828733809055
 21
-109.49979999999999
 31
0.0
  0
LINE
  5
2608
  8
0
  6
CONTINUOUS
 62
     7
 10
67.038828733809055
 20
-90.999799999999993
 30
0.0
 11
66.538828733809055
 21
-90.499799999999993
 31
0.0
  0
LINE
  5
2609
  8
0
  6
CONTINUOUS
 62
     7
 10
66.538828733809055
 20
-109.49979999999999
 30
0.0
 11
67.038828733809055
 21
-108.99979999999999
 31
0.0
  0
LINE
  5
260A
  8
0
  6
CONTINUOUS
 62
     7
 10
22.240818288429079
 20
-59.999799999999993
 30
0.0
 11
22.240818288429079
 21
-99.999799999999993
 31
0.0
  0
LINE
  5
260B
  8
0
  6
CONTINUOUS
 62
     7
 10
-53.05918171157203
 20
-59.999799999999993
 30
0.0
 11
-53.159181711572387
 21
-60.099800000000357
 31
0.0
  0
LINE
  5
260C
  8
0
  6
CONTINUOUS
 62
     7
 10
-53.159181711572387
 20
-60.099800000000357
 30
0.0
 11
-53.159181711572387
 21
-99.999799999999993
 31
0.0
  0
LINE
  5
260D
  8
0
  6
CONTINUOUS
 62
     7
 10
-49.659181711581461
 20
-59.999799999999993
 30
0.0
 11
-49.659181711572373
 21
-99.999799999999993
 31
0.0
  0
LINE
  5
260E
  8
0
  6
CONTINUOUS
 62
     7
 10
-53.159181711572387
 20
-99.999799999999993
 30
0.0
 11
-53.159181711572387
 21
-139.99979999999999
 31
0.0
  0
LINE
  5
260F
  8
0
  6
CONTINUOUS
 62
     7
 10
66.538828733809055
 20
-109.49979999999999
 30
0.0
 11
67.038828733809055
 21
-108.99979999999999
 31
0.0
  0
LINE
  5
2610
  8
0
  6
CONTINUOUS
 62
     7
 10
67.038828733809055
 20
-90.999799999999993
 30
0.0
 11
66.538828733809055
 21
-90.499799999999993
 31
0.0
  0
LINE
  5
2611
  8
0
  6
CONTINUOUS
 62
     7
 10
39.038828733809062
 20
-109.49979999999999
 30
0.0
 11
66.538828733809055
 21
-109.49979999999999
 31
0.0
  0
LINE
  5
2612
  8
0
  6
CONTINUOUS
 62
     7
 10
67.038828733809055
 20
-108.99979999999999
 30
0.0
 11
67.038828733809055
 21
-90.999799999999993
 31
0.0
  0
LINE
  5
2613
  8
0
  6
CONTINUOUS
 62
     7
 10
66.538828733809055
 20
-90.499799999999993
 30
0.0
 11
35.038828733809069
 21
-90.499799999999993
 31
0.0
  0
LINE
  5
2614
  8
0
  6
CONTINUOUS
 62
     7
 10
35.038828733809069
 20
-109.49979999999999
 30
0.0
 11
39.038828733809062
 21
-109.49979999999999
 31
0.0
  0
LINE
  5
2615
  8
0
  6
CONTINUOUS
 62
     7
 10
24.040818288428341
 20
-60.499799999999993
 30
0.0
 11
24.040818288428341
 21
-73.999799999999979
 31
0.0
  0
LINE
  5
2616
  8
0
  6
CONTINUOUS
 62
     7
 10
-53.05918171157203
 20
-59.999799999999993
 30
0.0
 11
31.540818288428341
 21
-59.999799999999993
 31
0.0
  0
LINE
  5
2617
  8
0
  6
CONTINUOUS
 62
     7
 10
24.540818288428341
 20
-59.999799999999993
 30
0.0
 11
24.040818288428341
 21
-60.499799999999993
 31
0.0
  0
LINE
  5
2618
  8
0
  6
CONTINUOUS
 62
     7
 10
22.240818288429079
 20
-59.999799999999993
 30
0.0
 11
24.540818288428341
 21
-59.999799999999993
 31
0.0
  0
LINE
  5
2619
  8
0
  6
CONTINUOUS
 62
     7
 10
32.040818288428341
 20
-139.49979999999999
 30
0.0
 11
31.540818288428341
 21
-139.99979999999999
 31
0.0
  0
LINE
  5
261A
  8
0
  6
CONTINUOUS
 62
     7
 10
35.040818288428341
 20
-134.49979999999999
 30
0.0
 11
34.540818288428341
 21
-134.99979999999999
 31
0.0
  0
LINE
  5
261B
  8
0
  6
CONTINUOUS
 62
     7
 10
35.040818288428341
 20
-99.999799999999993
 30
0.0
 11
35.040818288428341
 21
-134.49979999999999
 31
0.0
  0
LINE
  5
261C
  8
0
  6
CONTINUOUS
 62
     7
 10
34.540818288428341
 20
-134.99979999999999
 30
0.0
 11
32.340818288427613
 21
-134.99979999999999
 31
0.0
  0
LINE
  5
261D
  8
0
  6
CONTINUOUS
 62
     7
 10
32.040818288428341
 20
-99.999799999999993
 30
0.0
 11
32.040818288428341
 21
-139.49979999999999
 31
0.0
  0
LINE
  5
261E
  8
0
  6
CONTINUOUS
 62
     7
 10
22.240818288429079
 20
-99.999799999999993
 30
0.0
 11
22.240818288429079
 21
-139.99979999999999
 31
0.0
  0
LINE
  5
261F
  8
0
  6
CONTINUOUS
 62
     7
 10
24.040818288428341
 20
-125.99979999999999
 30
0.0
 11
24.040818288428341
 21
-139.49979999999999
 31
0.0
  0
LINE
  5
2620
  8
0
  6
CONTINUOUS
 62
     7
 10
24.040818288428341
 20
-139.49979999999999
 30
0.0
 11
24.540818288428341
 21
-139.99979999999999
 31
0.0
  0
LINE
  5
2621
  8
0
  6
CONTINUOUS
 62
     7
 10
-76.659181711572373
 20
-61.499799999999993
 30
0.0
 11
-76.659181711572373
 21
-67.499799999999993
 31
0.0
  0
LINE
  5
2622
  8
0
  6
CONTINUOUS
 62
     7
 10
-77.039181711571601
 20
-61.499799999999993
 30
0.0
 11
-76.659181711572373
 21
-61.499799999999993
 31
0.0
  0
LINE
  5
2623
  8
0
  6
CONTINUOUS
 62
     7
 10
-77.039181711571601
 20
-61.749799999999993
 30
0.0
 11
-77.886430594441791
 21
-61.823924672439212
 31
0.0
  0
LINE
  5
2624
  8
0
  6
CONTINUOUS
 62
     7
 10
-77.039181711571601
 20
-64.499799999999993
 30
0.0
 11
-77.039181711571601
 21
-61.749799999999993
 31
0.0
  0
LINE
  5
2625
  8
0
  6
CONTINUOUS
 62
     7
 10
-77.886430594441791
 20
-67.175675327569891
 30
0.0
 11
-77.589302009461903
 21
-67.201670710359792
 31
0.0
  0
LINE
  5
2626
  8
0
  6
CONTINUOUS
 62
     7
 10
-77.039181711571601
 20
-124.49979999999999
 30
0.0
 11
-77.039181711571601
 21
-118.49979999999999
 31
0.0
  0
LINE
  5
2627
  8
0
  6
CONTINUOUS
 62
     7
 10
-76.659181711572373
 20
-118.49979999999999
 30
0.0
 11
-76.659181711572373
 21
-124.49979999999999
 31
0.0
  0
LINE
  5
2628
  8
0
  6
CONTINUOUS
 62
     7
 10
-77.039181711571601
 20
-124.49979999999999
 30
0.0
 11
-76.659181711572373
 21
-124.49979999999999
 31
0.0
  0
LINE
  5
2629
  8
0
  6
CONTINUOUS
 62
     7
 10
-77.039181711571601
 20
-118.49979999999999
 30
0.0
 11
-76.659181711572373
 21
-118.49979999999999
 31
0.0
  0
LINE
  5
262A
  8
0
  6
CONTINUOUS
 62
     7
 10
-77.039181711571601
 20
-118.74979999999999
 30
0.0
 11
-77.886430594441791
 21
-118.8239246724392
 31
0.0
  0
LINE
  5
262B
  8
0
  6
CONTINUOUS
 62
     7
 10
-77.039181711571601
 20
-121.49979999999999
 30
0.0
 11
-77.039181711571601
 21
-118.74979999999999
 31
0.0
  0
LINE
  5
262C
  8
0
  6
CONTINUOUS
 62
     7
 10
-77.039181711571601
 20
-124.24979999999999
 30
0.0
 11
-77.039181711571601
 21
-121.49979999999999
 31
0.0
  0
LINE
  5
262D
  8
0
  6
CONTINUOUS
 62
     7
 10
-77.886430594441791
 20
-124.17567532756991
 30
0.0
 11
-77.039181711571601
 21
-124.24979999999999
 31
0.0
  0
LINE
  5
262E
  8
0
  6
CONTINUOUS
 62
     7
 10
-76.659181711572373
 20
-132.49979999999999
 30
0.0
 11
-76.659181711572373
 21
-138.49979999999999
 31
0.0
  0
LINE
  5
262F
  8
0
  6
CONTINUOUS
 62
     7
 10
-77.039181711571601
 20
-138.49979999999999
 30
0.0
 11
-76.659181711572373
 21
-138.49979999999999
 31
0.0
  0
LINE
  5
2630
  8
0
  6
CONTINUOUS
 62
     7
 10
-77.589302009461903
 20
-132.79792928964019
 30
0.0
 11
-77.886430594441791
 21
-132.8239246724392
 31
0.0
  0
LINE
  5
2631
  8
0
  6
CONTINUOUS
 62
     7
 10
-77.039181711571601
 20
-138.49979999999999
 30
0.0
 11
-77.039181711571601
 21
-135.28903446028971
 31
0.0
  0
LINE
  5
2632
  8
0
  6
CONTINUOUS
 62
     7
 10
-77.886430594441791
 20
-138.17567532756991
 30
0.0
 11
-77.039181711571601
 21
-138.24979999999999
 31
0.0
  0
LINE
  5
2633
  8
0
  6
CONTINUOUS
 62
     7
 10
-76.659181711572373
 20
-73.999799999999979
 30
0.0
 11
-54.159181711572387
 21
-73.999799999999979
 31
0.0
  0
LINE
  5
2634
  8
0
  6
CONTINUOUS
 62
     7
 10
-76.659181711572373
 20
-125.99979999999999
 30
0.0
 11
-54.159181711572387
 21
-125.99979999999999
 31
0.0
  0
LINE
  5
2635
  8
0
  6
CONTINUOUS
 62
     7
 10
24.040818288428341
 20
-125.99979999999999
 30
0.0
 11
-54.159181711572387
 21
-125.99979999999999
 31
0.0
  0
LINE
  5
2636
  8
0
  6
CONTINUOUS
 62
     7
 10
-49.659181711572373
 20
-99.999799999999993
 30
0.0
 11
-49.659181711581461
 21
-139.99979999999999
 31
0.0
  0
LINE
  5
2637
  8
0
  6
CONTINUOUS
 62
     7
 10
-48.659066399282104
 20
-73.999799999999979
 30
0.0
 11
-59.657076844651897
 21
-73.999799999999979
 31
0.0
  0
LINE
  5
2638
  8
0
  6
CONTINUOUS
 62
     7
 10
-58.397076844651671
 20
-131.99979999999999
 30
0.0
 11
-58.397076844651671
 21
-138.24340124668061
 31
0.0
  0
LINE
  5
2639
  8
0
  6
CONTINUOUS
 62
     7
 10
-58.797076844651301
 20
-132.3997999999996
 30
0.0
 11
-58.797076844651301
 21
-138.24340124668061
 31
0.0
  0
LINE
  5
263A
  8
0
  6
CONTINUOUS
 62
     7
 10
-58.397076844651671
 20
-131.99979999999999
 30
0.0
 11
-58.797076844651301
 21
-132.3997999999996
 31
0.0
  0
LINE
  5
263B
  8
0
  6
CONTINUOUS
 62
     7
 10
-54.157076844660992
 20
-131.49979999999999
 30
0.0
 11
-54.797076844651322
 21
-131.49979999999999
 31
0.0
  0
LINE
  5
263C
  8
0
  6
CONTINUOUS
 62
     7
 10
-58.397076844651671
 20
-131.99979999999999
 30
0.0
 11
-58.797076844651301
 21
-132.3997999999996
 31
0.0
  0
LINE
  5
263D
  8
0
  6
CONTINUOUS
 62
     7
 10
-54.797076844651322
 20
-131.99979999999999
 30
0.0
 11
-58.397076844651671
 21
-131.99979999999999
 31
0.0
  0
LINE
  5
263E
  8
0
  6
CONTINUOUS
 62
     7
 10
-54.797076844651322
 20
-138.24340124668061
 30
0.0
 11
-54.797076844651322
 21
-131.49979999999999
 31
0.0
  0
LINE
  5
263F
  8
0
  6
CONTINUOUS
 62
     7
 10
-59.657076844651897
 20
-139.99979999999999
 30
0.0
 11
-59.659181711572373
 21
-131.16374065363061
 31
0.0
  0
LINE
  5
2640
  8
0
  6
CONTINUOUS
 62
     7
 10
-59.659181711572373
 20
-131.16374065363061
 30
0.0
 11
-54.159181711572387
 21
-131.16374065363061
 31
0.0
  0
LINE
  5
2641
  8
0
  6
CONTINUOUS
 62
     7
 10
-58.397076844662593
 20
-75.756198753319424
 30
0.0
 11
-58.397076844662593
 21
-81.999799999999979
 31
0.0
  0
LINE
  5
2642
  8
0
  6
CONTINUOUS
 62
     7
 10
-54.797076844662229
 20
-82.499799999999979
 30
0.0
 11
-54.157076844660992
 21
-82.499799999999979
 31
0.0
  0
LINE
  5
2643
  8
0
  6
CONTINUOUS
 62
     7
 10
-58.797076844662229
 20
-81.599800000000343
 30
0.0
 11
-58.397076844662593
 21
-81.999799999999979
 31
0.0
  0
LINE
  5
2644
  8
0
  6
CONTINUOUS
 62
     7
 10
-58.397076844662593
 20
-81.999799999999979
 30
0.0
 11
-54.797076844662229
 21
-81.999799999999979
 31
0.0
  0
LINE
  5
2645
  8
0
  6
CONTINUOUS
 62
     7
 10
-54.157076844660992
 20
-82.999799999999965
 30
0.0
 11
-53.159181711572387
 21
-82.999799999999965
 31
0.0
  0
LINE
  5
2646
  8
0
  6
CONTINUOUS
 62
     7
 10
-54.797076844662229
 20
-82.499799999999979
 30
0.0
 11
-54.797076844662229
 21
-75.756198753319424
 31
0.0
  0
LINE
  5
2647
  8
0
  6
CONTINUOUS
 62
     7
 10
-59.654971977742321
 20
-82.835859346380346
 30
0.0
 11
-59.657076844651897
 21
-73.999799999999979
 31
0.0
  0
LINE
  5
2648
  8
0
  6
CONTINUOUS
 62
     7
 10
-59.654971977742321
 20
-82.835859346380346
 30
0.0
 11
-54.157076844660992
 21
-82.835859346380346
 31
0.0
  0
LINE
  5
2649
  8
0
  6
CONTINUOUS
 62
     7
 10
-79.659181711572373
 20
-121.7914796793706
 30
0.0
 11
-79.659181711572373
 21
-99.999799999999993
 31
0.0
  0
LINE
  5
264A
  8
0
  6
CONTINUOUS
 62
     7
 10
-79.659181711572373
 20
-99.999799999999993
 30
0.0
 11
-79.659181711572373
 21
-78.208120320629334
 31
0.0
  0
LINE
  5
264B
  8
0
  6
CONTINUOUS
 62
     7
 10
-76.659181711572373
 20
-62.98981469946051
 30
0.0
 11
-79.275049646991775
 21
-74.835227720150613
 31
0.0
  0
LINE
  5
264C
  8
0
  6
CONTINUOUS
 62
     7
 10
-77.039181711571601
 20
-64.710565539710331
 30
0.0
 11
-77.039181711571601
 21
-61.499799999999993
 31
0.0
  0
ARC
  5
264D
  8
0
  6
CONTINUOUS
 62
     7
 10
-77.79927485170181
 20
-66.179480629469651
 30
0.0
 40
0.9999999999946893
 50
196.25702789674739
 51
265.00000000048368
  0
ARC
  5
264E
  8
0
  6
CONTINUOUS
 62
     7
 10
-72.039181711571601
 20
-64.499799999999993
 30
0.0
 40
7.0
 50
180.0
 51
196.25702789661091
  0
ARC
  5
264F
  8
0
  6
CONTINUOUS
 62
     7
 10
-77.79927485170181
 20
-62.820119370530342
 30
0.0
 40
0.9999999999987133
 50
94.999999999561552
 51
163.74297210315231
  0
ARC
  5
2650
  8
0
  6
CONTINUOUS
 62
     7
 10
-72.039181711571601
 20
-64.499799999999993
 30
0.0
 40
6.9999999999944764
 50
163.7429721033748
 51
180.0
  0
ARC
  5
2651
  8
0
  6
CONTINUOUS
 62
     7
 10
-77.79927485170181
 20
-123.17948062946969
 30
0.0
 40
0.9999999999946654
 50
196.25702789674261
 51
265.00000000048368
  0
ARC
  5
2652
  8
0
  6
CONTINUOUS
 62
     7
 10
-72.039181711571601
 20
-121.49979999999999
 30
0.0
 40
7.0
 50
180.0
 51
196.25702789661051
  0
ARC
  5
2653
  8
0
  6
CONTINUOUS
 62
     7
 10
-77.79927485170181
 20
-119.82011937053031
 30
0.0
 40
0.9999999999986851
 50
94.999999999561794
 51
163.74297210315271
  0
ARC
  5
2654
  8
0
  6
CONTINUOUS
 62
     7
 10
-72.039181711571601
 20
-121.49979999999999
 30
0.0
 40
6.9999999999944809
 50
163.7429721033746
 51
180.0
  0
ARC
  5
2655
  8
0
  6
CONTINUOUS
 62
     7
 10
-77.79927485170181
 20
-137.17948062946971
 30
0.0
 40
0.9999999999946654
 50
196.25702789674261
 51
265.00000000048368
  0
ARC
  5
2656
  8
0
  6
CONTINUOUS
 62
     7
 10
-72.039181711571601
 20
-135.49979999999999
 30
0.0
 40
7.0
 50
180.0
 51
196.25702789661051
  0
ARC
  5
2657
  8
0
  6
CONTINUOUS
 62
     7
 10
-77.79927485170181
 20
-133.82011937053031
 30
0.0
 40
0.9999999999986851
 50
94.999999999561794
 51
163.74297210315271
  0
ARC
  5
2658
  8
0
  6
CONTINUOUS
 62
     7
 10
-72.039181711571601
 20
-135.49979999999999
 30
0.0
 40
6.9999999999944809
 50
163.7429721033746
 51
180.0
  0
ARC
  5
2661
  8
0
  6
CONTINUOUS
 62
     7
 10
-64.659181711572387
 20
-121.7914796793706
 30
0.0
 40
15.0
 50
180.0
 51
192.99461679190691
  0
ARC
  5
2662
  8
0
  6
CONTINUOUS
 62
     7
 10
-74.659181711572373
 20
-137.99979999999999
 30
0.0
 40
2.0
 50
180.0
 51
270.0
  0
ARC
  5
2663
  8
0
  6
CONTINUOUS
 62
     7
 10
-78.659181711572373
 20
-137.2275760427496
 30
0.0
 40
2.0
 50
0.0
 51
12.99461679168685
  0
ARC
  5
2664
  8
0
  6
CONTINUOUS
 62
     7
 10
32.340818288427613
 20
-64.699799999998888
 30
0.0
 40
0.2999999999992724
 50
180.0
 51
270.0
  0
ARC
  5
2665
  8
0
  6
CONTINUOUS
 62
     7
 10
32.340818288427613
 20
-135.29979999999921
 30
0.0
 40
0.2999999999993008
 50
90.0
 51
180.0
  0
ARC
  5
2666
  8
0
  6
CONTINUOUS
 62
     7
 10
-64.659181711572387
 20
-78.208120320629334
 30
0.0
 40
14.99999999999948
 50
167.00538320809341
 51
180.0
  0
LINE
  5
2721
  8
0
  6
DASH_CENTER
 62
     1
 10
148.3553197156248
 20
36.500200000000007
 30
0.0
 11
153.67531971562181
 21
36.500199999999111
 31
0.0
  0
LINE
  5
2722
  8
0
  6
DASH_CENTER
 62
     1
 10
148.3553197156248
 20
36.500200000000007
 30
0.0
 11
148.3553197156248
 21
41.820199999999723
 31
0.0
  0
LINE
  5
2723
  8
0
  6
CONTINUOUS
 62
     7
 10
148.3553197156248
 20
34.768149192430933
 30
0.0
 11
149.8553197156248
 21
35.634174596215011
 31
0.0
  0
LINE
  5
2724
  8
0
  6
CONTINUOUS
 62
     7
 10
146.8553197156248
 20
35.634174596215011
 30
0.0
 11
148.3553197156248
 21
34.768149192430933
 31
0.0
  0
LINE
  5
2725
  8
0
  6
CONTINUOUS
 62
     7
 10
146.8553197156248
 20
37.366225403784092
 30
0.0
 11
146.8553197156248
 21
35.634174596215011
 31
0.0
  0
LINE
  5
2726
  8
0
  6
CONTINUOUS
 62
     7
 10
148.3553197156248
 20
38.232250807569073
 30
0.0
 11
146.8553197156248
 21
37.366225403784092
 31
0.0
  0
LINE
  5
2727
  8
0
  6
CONTINUOUS
 62
     7
 10
149.8553197156248
 20
37.366225403784092
 30
0.0
 11
148.3553197156248
 21
38.232250807569073
 31
0.0
  0
LINE
  5
2728
  8
0
  6
CONTINUOUS
 62
     7
 10
149.8553197156248
 20
35.634174596215011
 30
0.0
 11
149.8553197156248
 21
37.366225403784092
 31
0.0
  0
LINE
  5
2729
  8
0
  6
DASH_CENTER
 62
     1
 10
143.03531971561961
 20
36.500200000000007
 30
0.0
 11
148.3553197156248
 21
36.500200000000007
 31
0.0
  0
LINE
  5
272A
  8
0
  6
DASH_CENTER
 62
     1
 10
148.3553197156248
 20
31.180199999999381
 30
0.0
 11
148.3553197156248
 21
36.500200000000007
 31
0.0
  0
LINE
  5
272B
  8
0
  6
DASH_CENTER
 62
     1
 10
229.3553197156248
 20
15.00020000000001
 30
0.0
 11
138.3553197156248
 21
15.00020000000001
 31
0.0
  0
LINE
  5
272C
  8
0
  6
DASH_CENTER
 62
     1
 10
219.3553197156248
 20
-6.4997999999999889
 30
0.0
 11
219.3553197156248
 21
-1.1798000000002791
 31
0.0
  0
LINE
  5
272D
  8
0
  6
DASH_CENTER
 62
     1
 10
219.3553197156248
 20
-6.4997999999999889
 30
0.0
 11
214.03531971561961
 21
-6.4998000000009002
 31
0.0
  0
LINE
  5
272E
  8
0
  6
CONTINUOUS
 62
     7
 10
221.08737052319481
 20
-6.4998000000009002
 30
0.0
 11
220.22134511940891
 21
-4.9997999999999889
 31
0.0
  0
LINE
  5
272F
  8
0
  6
CONTINUOUS
 62
     7
 10
220.22134511940891
 20
-7.9997999999999898
 30
0.0
 11
221.08737052319481
 21
-6.4998000000009002
 31
0.0
  0
LINE
  5
2730
  8
0
  6
CONTINUOUS
 62
     7
 10
218.4892943118362
 20
-7.9998000000008993
 30
0.0
 11
220.22134511940891
 21
-7.9997999999999898
 31
0.0
  0
LINE
  5
2731
  8
0
  6
CONTINUOUS
 62
     7
 10
217.62326890805571
 20
-6.4997999999999889
 30
0.0
 11
218.4892943118362
 21
-7.9998000000008993
 31
0.0
  0
LINE
  5
2732
  8
0
  6
CONTINUOUS
 62
     7
 10
218.4892943118362
 20
-4.9998000000009002
 30
0.0
 11
217.62326890805571
 21
-6.4997999999999889
 31
0.0
  0
LINE
  5
2733
  8
0
  6
CONTINUOUS
 62
     7
 10
220.22134511940891
 20
-4.9997999999999889
 30
0.0
 11
218.4892943118362
 21
-4.9998000000009002
 31
0.0
  0
LINE
  5
2734
  8
0
  6
DASH_CENTER
 62
     1
 10
219.3553197156248
 20
-11.81980000000064
 30
0.0
 11
219.3553197156248
 21
-6.4997999999999889
 31
0.0
  0
LINE
  5
2735
  8
0
  6
DASH_CENTER
 62
     1
 10
224.67531971562181
 20
-6.4998000000009002
 30
0.0
 11
219.3553197156248
 21
-6.4997999999999889
 31
0.0
  0
LINE
  5
2736
  8
0
  6
DASH_CENTER
 62
     1
 10
162.3553197156248
 20
-20.49980000000005
 30
0.0
 11
167.67531971562181
 21
-20.499800000000949
 31
0.0
  0
LINE
  5
2737
  8
0
  6
DASH_CENTER
 62
     1
 10
162.3553197156248
 20
-20.49980000000005
 30
0.0
 11
162.3553197156248
 21
-15.17980000000024
 31
0.0
  0
LINE
  5
2738
  8
0
  6
CONTINUOUS
 62
     7
 10
162.3553197156248
 20
-22.23185080756905
 30
0.0
 11
163.8553197156248
 21
-21.36582540378495
 31
0.0
  0
LINE
  5
2739
  8
0
  6
CONTINUOUS
 62
     7
 10
160.8553197156248
 20
-21.36582540378495
 30
0.0
 11
162.3553197156248
 21
-22.23185080756905
 31
0.0
  0
LINE
  5
273A
  8
0
  6
CONTINUOUS
 62
     7
 10
160.8553197156248
 20
-19.63377459621594
 30
0.0
 11
160.8553197156248
 21
-21.36582540378495
 31
0.0
  0
LINE
  5
273B
  8
0
  6
CONTINUOUS
 62
     7
 10
162.3553197156248
 20
-18.767749192430941
 30
0.0
 11
160.8553197156248
 21
-19.63377459621594
 31
0.0
  0
LINE
  5
273C
  8
0
  6
CONTINUOUS
 62
     7
 10
163.8553197156248
 20
-19.63377459621594
 30
0.0
 11
162.3553197156248
 21
-18.767749192430941
 31
0.0
  0
LINE
  5
273D
  8
0
  6
CONTINUOUS
 62
     7
 10
163.8553197156248
 20
-21.36582540378495
 30
0.0
 11
163.8553197156248
 21
-19.63377459621594
 31
0.0
  0
LINE
  5
273E
  8
0
  6
DASH_CENTER
 62
     1
 10
157.03531971561961
 20
-20.499800000000949
 30
0.0
 11
162.3553197156248
 21
-20.49980000000005
 31
0.0
  0
LINE
  5
273F
  8
0
  6
DASH_CENTER
 62
     1
 10
162.3553197156248
 20
-25.81980000000064
 30
0.0
 11
162.3553197156248
 21
-20.49980000000005
 31
0.0
  0
LINE
  5
2740
  8
0
  6
DASH_CENTER
 62
     1
 10
205.3553197156248
 20
55.820199999999723
 30
0.0
 11
205.3553197156248
 21
50.500199999999992
 31
0.0
  0
LINE
  5
2741
  8
0
  6
DASH_CENTER
 62
     1
 10
210.67531971562181
 20
50.500199999999992
 30
0.0
 11
205.3553197156248
 21
50.500199999999992
 31
0.0
  0
LINE
  5
2742
  8
0
  6
CONTINUOUS
 62
     7
 10
203.8553197156248
 20
51.366225403784092
 30
0.0
 11
203.8553197156248
 21
49.634174596215011
 31
0.0
  0
LINE
  5
2743
  8
0
  6
CONTINUOUS
 62
     7
 10
203.8553197156248
 20
49.634174596215011
 30
0.0
 11
205.3553197156248
 21
48.768149192430947
 31
0.0
  0
LINE
  5
2744
  8
0
  6
CONTINUOUS
 62
     7
 10
205.3553197156248
 20
48.768149192430947
 30
0.0
 11
206.8553197156248
 21
49.634174596215011
 31
0.0
  0
LINE
  5
2745
  8
0
  6
CONTINUOUS
 62
     7
 10
206.8553197156248
 20
49.634174596215011
 30
0.0
 11
206.8553197156248
 21
51.366225403784092
 31
0.0
  0
LINE
  5
2746
  8
0
  6
CONTINUOUS
 62
     7
 10
206.8553197156248
 20
51.366225403784092
 30
0.0
 11
205.3553197156248
 21
52.232250807569081
 31
0.0
  0
LINE
  5
2747
  8
0
  6
CONTINUOUS
 62
     7
 10
205.3553197156248
 20
52.232250807569081
 30
0.0
 11
203.8553197156248
 21
51.366225403784092
 31
0.0
  0
LINE
  5
2748
  8
0
  6
DASH_CENTER
 62
     1
 10
205.3553197156248
 20
50.500199999999992
 30
0.0
 11
205.3553197156248
 21
45.180199999999381
 31
0.0
  0
LINE
  5
2749
  8
0
  6
DASH_CENTER
 62
     1
 10
205.3553197156248
 20
50.500199999999992
 30
0.0
 11
200.03531971562151
 21
50.500199999999992
 31
0.0
  0
LINE
  5
274A
  8
0
  6
DASH_CENTER
 62
     1
 10
183.8553197156248
 20
70.700199999998915
 30
0.0
 11
183.8553197156248
 21
-30.499800000000949
 31
0.0
  0
LINE
  5
274B
  8
0
  6
CONTINUOUS
 62
     7
 10
223.8553197156248
 20
49.000200000000007
 30
0.0
 11
223.8553197156248
 21
-18.99980000000005
 31
0.0
  0
LINE
  5
274C
  8
0
  6
CONTINUOUS
 62
     7
 10
143.8553197156248
 20
49.000200000000007
 30
0.0
 11
143.8553197156248
 21
-18.99980000000005
 31
0.0
  0
LINE
  5
274D
  8
0
  6
CONTINUOUS
 62
     7
 10
217.8553197156248
 20
55.000200000000007
 30
0.0
 11
149.8553197156248
 21
55.000200000000007
 31
0.0
  0
LINE
  5
274E
  8
0
  6
CONTINUOUS
 62
     7
 10
217.8553197156248
 20
-24.999800000000061
 30
0.0
 11
149.8553197156248
 21
-24.999800000000061
 31
0.0
  0
LINE
  5
274F
  8
0
  6
DASH_CENTER
 62
     1
 10
210.12856736455569
 20
41.273447648934557
 30
0.0
 11
221.22168237347569
 21
52.366562657852711
 31
0.0
  0
LINE
  5
2750
  8
0
  6
CONTINUOUS
 62
     7
 10
209.6053197156248
 20
50.500199999999992
 30
0.0
 11
209.6053197156248
 21
54.500200000000007
 31
0.0
  0
LINE
  5
2751
  8
0
  6
CONTINUOUS
 62
     7
 10
201.1053197156248
 20
50.500199999999992
 30
0.0
 11
201.1053197156248
 21
54.500200000000007
 31
0.0
  0
LINE
  5
2752
  8
0
  6
DASH_CENTER
 62
     1
 10
157.58207206668641
 20
41.273447648934557
 30
0.0
 11
146.48895705776661
 21
52.366562657852711
 31
0.0
  0
LINE
  5
2753
  8
0
  6
CONTINUOUS
 62
     7
 10
148.3553197156248
 20
40.750200000000007
 30
0.0
 11
144.3553197156248
 21
40.750200000000007
 31
0.0
  0
LINE
  5
2754
  8
0
  6
CONTINUOUS
 62
     7
 10
148.3553197156248
 20
32.250200000000007
 30
0.0
 11
144.3553197156248
 21
32.250200000000007
 31
0.0
  0
LINE
  5
2755
  8
0
  6
DASH_CENTER
 62
     1
 10
157.5820720666857
 20
-11.273047648935441
 30
0.0
 11
146.48895705776661
 21
-22.36616265785544
 31
0.0
  0
LINE
  5
2756
  8
0
  6
CONTINUOUS
 62
     7
 10
158.1053197156248
 20
-20.499800000000949
 30
0.0
 11
158.1053197156248
 21
-24.49980000000005
 31
0.0
  0
LINE
  5
2757
  8
0
  6
CONTINUOUS
 62
     7
 10
166.6053197156248
 20
-20.49980000000005
 30
0.0
 11
166.6053197156248
 21
-24.49980000000005
 31
0.0
  0
LINE
  5
2758
  8
0
  6
DASH_CENTER
 62
     1
 10
210.12856736455569
 20
-11.273047648935441
 30
0.0
 11
221.22168237347481
 21
-22.36616265785544
 31
0.0
  0
LINE
  5
2759
  8
0
  6
CONTINUOUS
 62
     7
 10
219.3553197156248
 20
-10.74980000000005
 30
0.0
 11
223.3553197156248
 21
-10.74980000000005
 31
0.0
  0
LINE
  5
275A
  8
0
  6
CONTINUOUS
 62
     7
 10
219.3553197156248
 20
-2.2497999999999889
 30
0.0
 11
223.3553197156248
 21
-2.2497999999999889
 31
0.0
  0
LINE
  5
275C
  8
0
  6
CONTINUOUS
 62
     7
 10
201.8553197156248
 20
55.700200000000727
 30
0.0
 11
183.8553197156248
 21
55.700200000000727
 31
0.0
  0
LINE
  5
275D
  8
0
  6
DASH_CENTER
 62
     1
 10
195.5177718457667
 20
59.700199999998922
 30
0.0
 11
172.74641903394379
 21
59.700199999998922
 31
0.0
  0
LINE
  5
275E
  8
0
  6
CONTINUOUS
 62
     7
 10
165.8553197156248
 20
55.700200000000727
 30
0.0
 11
176.28924172212879
 21
55.700200000000727
 31
0.0
  0
LINE
  5
275F
  8
0
  6
CONTINUOUS
 62
     7
 10
176.28924172212879
 20
55.700200000000727
 30
0.0
 11
183.8553197156248
 21
55.700200000000727
 31
0.0
  0
LINE
  5
2760
  8
0
  6
CONTINUOUS
 62
     7
 10
165.8553197156248
 20
55.700200000000727
 30
0.0
 11
165.8553197156248
 21
60.494942298044919
 31
0.0
  0
LINE
  5
2761
  8
0
  6
CONTINUOUS
 62
     7
 10
165.9361746856035
 20
60.888861596623933
 30
0.0
 11
168.59557084358451
 21
67.094119298577937
 31
0.0
  0
LINE
  5
2762
  8
0
  6
CONTINUOUS
 62
     7
 10
169.51471587360129
 20
67.700199999998915
 30
0.0
 11
198.8553197156248
 21
67.700199999998915
 31
0.0
  0
LINE
  5
2763
  8
0
  6
CONTINUOUS
 62
     7
 10
199.1150685876587
 20
67.094119298577937
 30
0.0
 11
201.77446474563979
 21
60.888861596623933
 31
0.0
  0
LINE
  5
2764
  8
0
  6
CONTINUOUS
 62
     7
 10
187.45531971561971
 20
59.600199999998551
 30
0.0
 11
187.4553197156205
 21
55.900200000000552
 31
0.0
  0
LINE
  5
2765
  8
0
  6
CONTINUOUS
 62
     7
 10
180.2553197156208
 20
59.600199999998551
 30
0.0
 11
180.2553197156208
 21
55.900200000000552
 31
0.0
  0
LINE
  5
2767
  8
0
  6
CONTINUOUS
 62
     7
 10
201.8553197156248
 20
60.494942298044919
 30
0.0
 11
201.8553197156248
 21
55.700200000000727
 31
0.0
  0
LINE
  5
2768
  8
0
  6
CONTINUOUS
 62
     7
 10
201.8553197156248
 20
55.000199999998181
 30
0.0
 11
165.8553197156248
 21
55.000199999998181
 31
0.0
  0
ARC
  5
276B
  8
0
  6
CONTINUOUS
 62
     7
 10
205.3553197156248
 20
50.500199999999992
 30
0.0
 40
4.25
 50
180.0
 51
0.0
  0
ARC
  5
276C
  8
0
  6
CONTINUOUS
 62
     7
 10
148.3553197156248
 20
36.500200000000007
 30
0.0
 40
4.25
 50
270.0
 51
90.0
  0
ARC
  5
276D
  8
0
  6
CONTINUOUS
 62
     7
 10
162.3553197156248
 20
-20.49980000000005
 30
0.0
 40
4.25
 50
0.0
 51
180.00000000001211
  0
ARC
  5
276E
  8
0
  6
CONTINUOUS
 62
     7
 10
219.3553197156248
 20
-6.4997999999999889
 30
0.0
 40
4.25
 50
90.0
 51
270.0
  0
ARC
  5
276F
  8
0
  6
DASH_CENTER
 62
     1
 10
183.8553197156248
 20
15.000199999999101
 30
0.0
 40
44.999999999996149
 50
15.61144245088094
 51
55.000000000002032
  0
ARC
  5
2770
  8
0
  6
CONTINUOUS
 62
     7
 10
205.3553197156248
 20
50.500199999999992
 30
0.0
 40
4.25
 50
180.0
 51
0.0
  0
ARC
  5
2771
  8
0
  6
CONTINUOUS
 62
     7
 10
210.1053197156248
 20
54.500200000000007
 30
0.0
 40
0.5
 50
90.0
 51
180.0
  0
ARC
  5
2772
  8
0
  6
CONTINUOUS
 62
     7
 10
200.6053197156248
 20
54.500200000000007
 30
0.0
 40
0.5
 50
0.0
 51
90.0
  0
ARC
  5
2773
  8
0
  6
DASH_CENTER
 62
     1
 10
183.8553197156248
 20
15.000199999999101
 30
0.0
 40
45.000000000002252
 50
125.0000000000046
 51
145.00000000000179
  0
ARC
  5
2774
  8
0
  6
CONTINUOUS
 62
     7
 10
148.3553197156248
 20
36.500200000000007
 30
0.0
 40
4.25
 50
270.0
 51
90.0
  0
ARC
  5
2775
  8
0
  6
CONTINUOUS
 62
     7
 10
144.3553197156248
 20
41.250200000000007
 30
0.0
 40
0.5
 50
180.0
 51
270.0
  0
ARC
  5
2776
  8
0
  6
CONTINUOUS
 62
     7
 10
144.3553197156248
 20
31.75020000000001
 30
0.0
 40
0.4999999999999964
 50
90.0
 51
180.0
  0
ARC
  5
2777
  8
0
  6
DASH_CENTER
 62
     1
 10
183.8553197156248
 20
15.000199999999101
 30
0.0
 40
45.000000000002949
 50
195.61144245087721
 51
234.9999999999971
  0
ARC
  5
2778
  8
0
  6
CONTINUOUS
 62
     7
 10
162.3553197156248
 20
-20.49980000000005
 30
0.0
 40
4.25
 50
0.0
 51
180.00000000001211
  0
ARC
  5
2779
  8
0
  6
CONTINUOUS
 62
     7
 10
157.6053197156248
 20
-24.49980000000005
 30
0.0
 40
0.5
 50
270.0
 51
0.0
  0
ARC
  5
277A
  8
0
  6
CONTINUOUS
 62
     7
 10
167.1053197156248
 20
-24.49980000000005
 30
0.0
 40
0.5
 50
180.0
 51
270.0
  0
ARC
  5
277B
  8
0
  6
DASH_CENTER
 62
     1
 10
183.8553197156248
 20
15.000199999999101
 30
0.0
 40
44.999999999999382
 50
304.99999999999733
 51
324.99999999999648
  0
ARC
  5
277C
  8
0
  6
CONTINUOUS
 62
     7
 10
219.3553197156248
 20
-6.4997999999999889
 30
0.0
 40
4.25
 50
90.0
 51
270.0
  0
ARC
  5
277D
  8
0
  6
CONTINUOUS
 62
     7
 10
223.3553197156248
 20
-11.24980000000005
 30
0.0
 40
0.5
 50
0.0
 51
90.0
  0
ARC
  5
277E
  8
0
  6
CONTINUOUS
 62
     7
 10
223.3553197156248
 20
-1.749799999999988
 30
0.0
 40
0.5
 50
270.0
 51
0.0
  0
ARC
  5
277F
  8
0
  6
CONTINUOUS
 62
     7
 10
183.8553197156248
 20
59.700199999998922
 30
0.0
 40
3.20000000000074
 50
270.64740571525329
 51
270.0
  0
ARC
  5
2780
  8
0
  6
CONTINUOUS
 62
     7
 10
183.8553197156248
 20
59.600199999999447
 30
0.0
 40
3.5999999999949051
 50
359.9999999999855
 51
180.0000000000145
  0
ARC
  5
2781
  8
0
  6
CONTINUOUS
 62
     7
 10
166.20531971561971
 20
55.350199999998551
 30
0.0
 40
0.3500000000021757
 50
90.0
 51
270.00000000014421
  0
ARC
  5
2782
  8
0
  6
CONTINUOUS
 62
     7
 10
201.50531971562171
 20
55.350199999998551
 30
0.0
 40
0.3500000000003638
 50
270.0
 51
90.0
  0
ARC
  5
2783
  8
0
  6
CONTINUOUS
 62
     7
 10
183.8553197156248
 20
15.000199999999101
 30
0.0
 40
9.899999999997787
 50
90.0
 51
0.00000000000526
  0
ARC
  5
2784
  8
0
  6
CONTINUOUS
 62
     7
 10
183.8553197156248
 20
15.000199999999101
 30
0.0
 40
9.899999999997787
 50
0.00000000000526
 51
90.0
  0
ARC
  5
2785
  8
0
  6
CONTINUOUS
 62
     7
 10
183.8553197156248
 20
15.000199999999101
 30
0.0
 40
10.25
 50
0.00000000000508
 51
90.0
  0
ARC
  5
2786
  8
0
  6
CONTINUOUS
 62
     7
 10
183.8553197156248
 20
15.000199999999101
 30
0.0
 40
10.25
 50
90.0
 51
0.00000000000508
  0
CIRCLE
  5
2787
  8
0
  6
CONTINUOUS
 62
     7
 10
148.3553197156248
 20
36.500200000000007
 30
0.0
 40
3.7999999999992791
  0
CIRCLE
  5
2788
  8
0
  6
CONTINUOUS
 62
     7
 10
148.3553197156248
 20
36.500200000000007
 30
0.0
 40
3.5
  0
CIRCLE
  5
2789
  8
0
  6
CONTINUOUS
 62
     7
 10
219.3553197156248
 20
-6.4997999999999889
 30
0.0
 40
3.7999999999965999
  0
CIRCLE
  5
278A
  8
0
  6
CONTINUOUS
 62
     7
 10
219.3553197156248
 20
-6.4997999999999889
 30
0.0
 40
3.5
  0
CIRCLE
  5
278B
  8
0
  6
CONTINUOUS
 62
     7
 10
162.3553197156248
 20
-20.49980000000005
 30
0.0
 40
3.8000000000001002
  0
CIRCLE
  5
278C
  8
0
  6
CONTINUOUS
 62
     7
 10
162.3553197156248
 20
-20.49980000000005
 30
0.0
 40
3.5
  0
CIRCLE
  5
278D
  8
0
  6
CONTINUOUS
 62
     7
 10
205.3553197156248
 20
50.500199999999992
 30
0.0
 40
3.5
  0
CIRCLE
  5
278E
  8
0
  6
CONTINUOUS
 62
     7
 10
205.3553197156248
 20
50.500199999999992
 30
0.0
 40
3.800000000000181
  0
CIRCLE
  5
278F
  8
0
  6
CONTINUOUS
 62
     7
 10
183.8553197156248
 20
15.000199999999101
 30
0.0
 40
14.699999999998001
  0
CIRCLE
  5
2790
  8
0
  6
CONTINUOUS
 62
     7
 10
183.8553197156248
 20
15.000199999999101
 30
0.0
 40
15.566025403782991
  0
CIRCLE
  5
2791
  8
0
  6
CONTINUOUS
 62
     7
 10
183.8553197156248
 20
15.000199999999101
 30
0.0
 40
14.699999999998001
  0
CIRCLE
  5
2792
  8
0
  6
CONTINUOUS
 62
     7
 10
183.8553197156248
 20
15.000199999999101
 30
0.0
 40
15.566025403782991
  0
CIRCLE
  5
2793
  8
0
  6
CONTINUOUS
 62
     7
 10
183.8553197156248
 20
15.000199999999101
 30
0.0
 40
35.0
  0
CIRCLE
  5
2794
  8
0
  6
CONTINUOUS
 62
     7
 10
215.67512486901751
 20
46.820005153394561
 30
0.0
 40
3.0
  0
CIRCLE
  5
2795
  8
0
  6
CONTINUOUS
 62
     7
 10
152.03551456222661
 20
46.820005153394561
 30
0.0
 40
3.0
  0
CIRCLE
  5
2796
  8
0
  6
CONTINUOUS
 62
     7
 10
215.67512486901569
 20
-16.81960515339544
 30
0.0
 40
3.0
  0
CIRCLE
  5
2797
  8
0
  6
CONTINUOUS
 62
     7
 10
152.03551456222559
 20
-16.81960515339544
 30
0.0
 40
3.0
  0
ARC
  5
2799
  8
0
  6
CONTINUOUS
 62
     7
 10
217.8553197156248
 20
49.000200000000007
 30
0.0
 40
6.0
 50
0.0
 51
90.0
  0
ARC
  5
279A
  8
0
  6
CONTINUOUS
 62
     7
 10
149.8553197156248
 20
49.000200000000007
 30
0.0
 40
6.0
 50
90.0
 51
180.0
  0
ARC
  5
279B
  8
0
  6
CONTINUOUS
 62
     7
 10
149.8553197156248
 20
-18.99980000000005
 30
0.0
 40
6.0
 50
180.0
 51
270.0
  0
ARC
  5
279C
  8
0
  6
CONTINUOUS
 62
     7
 10
217.8553197156248
 20
-18.99980000000005
 30
0.0
 40
6.0
 50
270.0
 51
0.0
  0
ARC
  5
279D
  8
0
  6
CONTINUOUS
 62
     7
 10
187.6553197156195
 20
55.900200000000552
 30
0.0
 40
0.1999999999989086
 50
180.0
 51
270.00000000026063
  0
ARC
  5
279E
  8
0
  6
CONTINUOUS
 62
     7
 10
180.0553197156228
 20
55.900200000000552
 30
0.0
 40
0.1999999999998252
 50
270.0
 51
0.0
  0
ARC
  5
279F
  8
0
  6
CONTINUOUS
 62
     7
 10
169.51471587360129
 20
66.700199999998915
 30
0.0
 40
1.0
 50
90.0
 51
156.80140948633061
  0
ARC
  5
27A0
  8
0
  6
CONTINUOUS
 62
     7
 10
198.19592355764371
 20
66.700199999998915
 30
0.0
 40
0.9999999999971208
 50
23.198590513709771
 51
90.0
  0
ARC
  5
27A1
  8
0
  6
CONTINUOUS
 62
     7
 10
166.8553197156248
 20
60.494942298044919
 30
0.0
 40
1.0000000000029201
 50
156.80140948643259
 51
180.0
  0
ARC
  5
27A2
  8
0
  6
CONTINUOUS
 62
     7
 10
200.8553197156248
 20
60.494942298044919
 30
0.0
 40
1.0
 50
0.0
 51
23.198590513709771
  0
LINE
  5
2A62
  8
0
  6
CONTINUOUS
 62
     7
 10
147.04657912626101
 20
117.4384960778563
 30
0.0
 11
147.04657912626101
 21
136.01742473618029
 31
0.0
  0
LINE
  5
2A63
  8
0
  6
CONTINUOUS
 62
     7
 10
143.5485686808839
 20
111.9384960778563
 30
0.0
 11
136.28188522776821
 21
111.9384960778563
 31
0.0
  0
LINE
  5
2A64
  8
0
  6
CONTINUOUS
 62
     7
 10
144.0485686808839
 20
151.93849607785631
 30
0.0
 11
144.0485686808839
 21
112.4384960778563
 31
0.0
  0
LINE
  5
2A65
  8
0
  6
CONTINUOUS
 62
     7
 10
146.5485686808839
 20
116.9384960778563
 30
0.0
 11
144.34856868088411
 21
116.9384960778563
 31
0.0
  0
LINE
  5
2A66
  8
0
  6
CONTINUOUS
 62
     7
 10
147.0485686808839
 20
151.93849607785631
 30
0.0
 11
147.0485686808839
 21
117.4384960778563
 31
0.0
  0
LINE
  5
2A67
  8
0
  6
CONTINUOUS
 62
     7
 10
147.0485686808839
 20
117.4384960778563
 30
0.0
 11
146.5485686808839
 21
116.9384960778563
 31
0.0
  0
LINE
  5
2A68
  8
0
  6
CONTINUOUS
 62
     7
 10
144.0485686808839
 20
112.4384960778563
 30
0.0
 11
143.5485686808839
 21
111.9384960778563
 31
0.0
  0
LINE
  5
2A69
  8
0
  6
DASH_CENTER
 62
     1
 10
184.04657912626109
 20
151.93849607785631
 30
0.0
 11
138.38327793372989
 21
151.93849607785631
 31
0.0
  0
LINE
  5
2A6A
  8
0
  6
CONTINUOUS
 62
     7
 10
138.85025377861589
 20
191.9384960778564
 30
0.0
 11
143.5485686808839
 21
191.9384960778564
 31
0.0
  0
LINE
  5
2A6B
  8
0
  6
CONTINUOUS
 62
     7
 10
147.04657912626101
 20
142.43849607785631
 30
0.0
 11
151.04657912626101
 21
142.43849607785631
 31
0.0
  0
LINE
  5
2A6C
  8
0
  6
CONTINUOUS
 62
     7
 10
178.54657912626101
 20
161.43849607785631
 30
0.0
 11
147.04657912626101
 21
161.43849607785631
 31
0.0
  0
LINE
  5
2A6D
  8
0
  6
CONTINUOUS
 62
     7
 10
179.04657912626109
 20
142.9384960778564
 30
0.0
 11
179.04657912626109
 21
160.93849607785631
 31
0.0
  0
LINE
  5
2A6E
  8
0
  6
CONTINUOUS
 62
     7
 10
151.04657912626101
 20
142.43849607785631
 30
0.0
 11
178.54657912626101
 21
142.43849607785631
 31
0.0
  0
LINE
  5
2A6F
  8
0
  6
CONTINUOUS
 62
     7
 10
179.04657912626109
 20
160.93849607785631
 30
0.0
 11
178.54657912626101
 21
161.43849607785631
 31
0.0
  0
LINE
  5
2A70
  8
0
  6
CONTINUOUS
 62
     7
 10
178.54657912626101
 20
142.43849607785631
 30
0.0
 11
179.04657912626109
 21
142.9384960778564
 31
0.0
  0
LINE
  5
2A71
  8
0
  6
CONTINUOUS
 62
     7
 10
178.54657912626101
 20
142.43849607785631
 30
0.0
 11
179.04657912626109
 21
142.9384960778564
 31
0.0
  0
LINE
  5
2A72
  8
0
  6
CONTINUOUS
 62
     7
 10
179.04657912626109
 20
160.93849607785631
 30
0.0
 11
178.54657912626101
 21
161.43849607785631
 31
0.0
  0
LINE
  5
2A73
  8
0
  6
CONTINUOUS
 62
     7
 10
151.04657912626101
 20
142.43849607785631
 30
0.0
 11
178.54657912626101
 21
142.43849607785631
 31
0.0
  0
LINE
  5
2A74
  8
0
  6
CONTINUOUS
 62
     7
 10
179.04657912626109
 20
142.9384960778564
 30
0.0
 11
179.04657912626109
 21
163.93849607785631
 31
0.0
  0
LINE
  5
2A75
  8
0
  6
CONTINUOUS
 62
     7
 10
178.54657912626101
 20
161.43849607785631
 30
0.0
 11
147.04657912626101
 21
161.43849607785631
 31
0.0
  0
LINE
  5
2A76
  8
0
  6
CONTINUOUS
 62
     7
 10
147.04657912626101
 20
142.43849607785631
 30
0.0
 11
151.04657912626101
 21
142.43849607785631
 31
0.0
  0
LINE
  5
2A77
  8
0
  6
CONTINUOUS
 62
     7
 10
136.5485686808839
 20
191.9384960778564
 30
0.0
 11
143.5485686808839
 21
191.9384960778564
 31
0.0
  0
LINE
  5
2A78
  8
0
  6
CONTINUOUS
 62
     7
 10
144.0485686808839
 20
191.43849607785631
 30
0.0
 11
144.0485686808839
 21
151.93849607785631
 31
0.0
  0
LINE
  5
2A79
  8
0
  6
CONTINUOUS
 62
     7
 10
144.34856868088411
 20
186.9384960778564
 30
0.0
 11
146.5485686808839
 21
186.9384960778564
 31
0.0
  0
LINE
  5
2A7A
  8
0
  6
CONTINUOUS
 62
     7
 10
147.0485686808839
 20
186.43849607785631
 30
0.0
 11
147.0485686808839
 21
151.93849607785631
 31
0.0
  0
LINE
  5
2A7B
  8
0
  6
CONTINUOUS
 62
     7
 10
146.5485686808839
 20
186.9384960778564
 30
0.0
 11
147.0485686808839
 21
186.43849607785631
 31
0.0
  0
LINE
  5
2A7C
  8
0
  6
CONTINUOUS
 62
     7
 10
143.5485686808839
 20
191.9384960778564
 30
0.0
 11
144.0485686808839
 21
191.43849607785631
 31
0.0
  0
ARC
  5
2A7D
  8
0
  6
CONTINUOUS
 62
     7
 10
144.34856868088411
 20
116.63849607785799
 30
0.0
 40
0.2999999999982919
 50
90.0
 51
180.0
  0
ARC
  5
2A7E
  8
0
  6
CONTINUOUS
 62
     7
 10
144.34856868088411
 20
187.2384960778557
 30
0.0
 40
0.3000000000001819
 50
180.0
 51
270.0
  0
LINE
  5
2A7F
  8
0
  6
DASH_CENTER
 62
     1
 10
227.55978957116301
 20
173.32026752161661
 30
0.0
 11
227.55978957116301
 21
130.32813533151241
 31
0.0
  0
LINE
  5
2A80
  8
0
 10
224.55978957116301
 20
163.93849607785631
 30
0.0
 11
224.55978957116301
 21
157.9384960778564
 31
0.0
  0
LINE
  5
2A81
  8
0
 10
230.55978957116301
 20
163.9384960778564
 30
0.0
 11
230.55978957116309
 21
157.9384960778564
 31
0.0
  0
LINE
  5
2A82
  8
0
  6
DASH_CENTER
 62
     1
 10
246.75558975105309
 20
151.93849607785631
 30
0.0
 11
206.2825162706736
 21
151.93849607785631
 31
0.0
  0
ARC
  5
2A83
  8
0
 10
227.55978957116301
 20
151.93849607785631
 30
0.0
 40
9.5
 50
108.4084801705864
 51
71.591519829413585
  0
LINE
  5
2A84
  8
0
  6
CONTINUOUS
 62
     7
 10
157.04657912626109
 20
161.43849607785631
 30
0.0
 11
157.04657912626101
 21
163.93849607785631
 31
0.0
  0
LINE
  5
2A85
  8
0
  6
DASH_CENTER
 62
     1
 10
184.04657912626109
 20
206.48765340566419
 30
0.0
 11
150.52465130474249
 21
206.48765340566419
 31
0.0
  0
LINE
  5
2A86
  8
0
  6
CONTINUOUS
 62
     7
 10
179.04657912626101
 20
209.48765340566419
 30
0.0
 11
157.04657912626101
 21
209.4876534056643
 31
0.0
  0
LINE
  5
2A87
  8
0
  6
CONTINUOUS
 62
     7
 10
179.04657912626109
 20
203.48765340566419
 30
0.0
 11
157.04657912626109
 21
203.48765340566419
 31
0.0
  0
LINE
  5
2A88
  8
0
  6
CONTINUOUS
 62
     7
 10
157.04657912626109
 20
203.48765340566419
 30
0.0
 11
157.04657912626101
 21
209.48765340566419
 31
0.0
  0
CIRCLE
  5
2A89
  8
0
  6
CONTINUOUS
 62
     2
 10
227.55978957116301
 20
151.93849607785631
 30
0.0
 40
2.5
  0
CIRCLE
  5
2A8A
  8
0
  6
CONTINUOUS
 62
     7
 10
227.55978957116301
 20
151.93849607785631
 30
0.0
 40
2.0
  0
LINE
  5
2A8B
  8
0
  6
CONTINUOUS
 62
     7
 10
224.55978957116301
 20
157.93849607785631
 30
0.0
 11
230.55978957116321
 21
157.9384960778564
 31
0.0
  0
LINE
  5
2A8C
  8
0
  6
CONTINUOUS
 62
     7
 10
157.04657912626109
 20
163.93849607785631
 30
0.0
 11
179.04657912626109
 21
163.93849607785631
 31
0.0
  0
LINE
  5
2A8D
  8
0
  6
CONTINUOUS
 62
     7
 10
224.55978957116301
 20
163.93849607785631
 30
0.0
 11
230.55978957116309
 21
163.9384960778564
 31
0.0
  0
LINE
  5
2A8E
  8
0
  6
CONTINUOUS
 62
     7
 10
179.04657912626109
 20
203.48765340566419
 30
0.0
 11
179.04657912626109
 21
209.4876534056643
 31
0.0
  0
ARC
  5
2A8F
  8
0
 10
157.04657912626101
 20
206.48765340566419
 30
0.0
 40
3.0
 50
90.0
 51
270.0
  0
ENDSEC
  0
EOF
