ISO-10303-21;
HEADER;
FILE_DESCRIPTION (( 'STEP AP203' ),
    '1' );
FILE_NAME ('blenderaugerlong.STEP',
    '2026-02-25T03:25:43',
    ( '' ),
    ( '' ),
    'SwSTEP 2.0',
    'SolidWorks 2024',
    '' );
FILE_SCHEMA (( 'CONFIG_CONTROL_DESIGN' ));
ENDSEC;

DATA;
#1 = DIRECTION ( 'NONE',  ( -0.4999817255759315682, -0.8660359542710187597, -0.000000000000000000 ) ) ;
#2 = APPROVAL_ROLE ( '' ) ;
#3 = CLOSED_SHELL ( 'NONE', ( #677, #352, #63, #559, #299, #572, #762, #796, #521, #425, #442, #356, #687, #29, #671, #681, #476, #286, #69, #36, #679, #562, #111, #249, #146 ) ) ;
#4 = EDGE_LOOP ( 'NONE', ( #258, #295, #428, #80 ) ) ;
#5 = DIRECTION ( 'NONE',  ( -1.000000000000000000, 0.000000000000000000, 1.220597363587109034E-16 ) ) ;
#6 = ORIENTED_EDGE ( 'NONE', *, *, #704, .F. ) ;
#7 = DIRECTION ( 'NONE',  ( 0.000000000000000000, 0.000000000000000000, 1.000000000000000000 ) ) ;
#8 = EDGE_CURVE ( 'NONE', #593, #635, #686, .T. ) ;
#9 = ORIENTED_EDGE ( 'NONE', *, *, #336, .F. ) ;
#10 = ORIENTED_EDGE ( 'NONE', *, *, #78, .T. ) ;
#11 = DIRECTION ( 'NONE',  ( -0.4999817255759314572, -0.8660359542710186487, 0.000000000000000000 ) ) ;
#12 = CARTESIAN_POINT ( 'NONE',  ( 3.000000000000000888, 35.00000000000006395, 2.499999999999991562 ) ) ;
#13 = AXIS2_PLACEMENT_3D ( 'NONE', #755, #426, #107 ) ;
#14 = ORIENTED_EDGE ( 'NONE', *, *, #735, .F. ) ;
#15 = DIRECTION ( 'NONE',  ( 1.000000000000000000, -0.000000000000000000, -1.220597363587109281E-16 ) ) ;
#16 = ORIENTED_EDGE ( 'NONE', *, *, #845, .T. ) ;
#17 = CIRCLE ( 'NONE', #547, 3.999999999999994227 ) ;
#18 = VECTOR ( 'NONE', #266, 1000.000000000000000 ) ;
#19 = EDGE_CURVE ( 'NONE', #102, #106, #381, .T. ) ;
#20 = ORIENTED_EDGE ( 'NONE', *, *, #97, .F. ) ;
#21 = DIRECTION ( 'NONE',  ( 1.000000000000000000, 0.000000000000000000, 0.000000000000000000 ) ) ;
#22 = EDGE_LOOP ( 'NONE', ( #164, #606, #794, #505 ) ) ;
#23 = CARTESIAN_POINT ( 'NONE',  ( -3.000000000000000444, 10.00000000000007105, -2.645751311064589828 ) ) ;
#24 = AXIS2_PLACEMENT_3D ( 'NONE', #765, #360, #560 ) ;
#25 = CARTESIAN_POINT ( 'NONE',  ( 9.999999999999998224, 9.999999999999998224, -4.898587196589412829E-16 ) ) ;
#26 = CIRCLE ( 'NONE', #354, 4.000000000000000000 ) ;
#27 = DIRECTION ( 'NONE',  ( 0.000000000000000000, 0.000000000000000000, 1.000000000000000000 ) ) ;
#28 = AXIS2_PLACEMENT_3D ( 'NONE', #343, #27, #543 ) ;
#29 = ADVANCED_FACE ( 'NONE', ( #206 ), #129, .T. ) ;
#30 = CARTESIAN_POINT ( 'NONE',  ( 10.00000000000007105, 0.000000000000000000, 0.000000000000000000 ) ) ;
#31 = DIRECTION ( 'NONE',  ( 0.4999817255759302914, 0.8660359542710194258, 0.000000000000000000 ) ) ;
#32 = VECTOR ( 'NONE', #693, 1000.000000000000227 ) ;
#33 = LINE ( 'NONE', #233, #568 ) ;
#34 = VERTEX_POINT ( 'NONE', #73 ) ;
#35 =( NAMED_UNIT ( * ) SI_UNIT ( $, .STERADIAN. ) SOLID_ANGLE_UNIT ( ) );
#36 = ADVANCED_FACE ( 'NONE', ( #730 ), #672, .T. ) ;
#37 = DIRECTION ( 'NONE',  ( 1.734723475976811778E-16, 0.000000000000000000, 1.000000000000000000 ) ) ;
#38 = VECTOR ( 'NONE', #128, 1000.000000000000000 ) ;
#39 = ORIENTED_EDGE ( 'NONE', *, *, #375, .T. ) ;
#40 = PERSON_AND_ORGANIZATION ( #544, #485 ) ;
#41 = LINE ( 'NONE', #818, #795 ) ;
#42 = ORIENTED_EDGE ( 'NONE', *, *, #175, .F. ) ;
#43 = APPLICATION_PROTOCOL_DEFINITION ( 'international standard', 'config_control_design', 1994, #296 ) ;
#44 = LINE ( 'NONE', #222, #32 ) ;
#45 = AXIS2_PLACEMENT_3D ( 'NONE', #779, #452, #714 ) ;
#46 = VERTEX_POINT ( 'NONE', #136 ) ;
#47 = EDGE_CURVE ( 'NONE', #734, #59, #803, .T. ) ;
#48 = ORIENTED_EDGE ( 'NONE', *, *, #819, .F. ) ;
#49 = CARTESIAN_POINT ( 'NONE',  ( 0.000000000000000000, 40.00000000000000000, -4.000000000000000000 ) ) ;
#50 = LOCAL_TIME ( 19, 25, 43.00000000000000000, #311 ) ;
#51 = CARTESIAN_POINT ( 'NONE',  ( -25.48520666082313824, -252.0000498771981938, 0.000000000000000000 ) ) ;
#52 = AXIS2_PLACEMENT_3D ( 'NONE', #196, #717, #256 ) ;
#53 = APPROVAL_STATUS ( 'not_yet_approved' ) ;
#54 = ORIENTED_EDGE ( 'NONE', *, *, #161, .T. ) ;
#55 = FACE_BOUND ( 'NONE', #564, .T. ) ;
#56 = DIRECTION ( 'NONE',  ( 0.000000000000000000, 0.000000000000000000, 1.000000000000000000 ) ) ;
#57 = CARTESIAN_POINT ( 'NONE',  ( 102.6799139437746078, -10.00000000000000000, 4.898587196589412829E-16 ) ) ;
#58 = COORDINATED_UNIVERSAL_TIME_OFFSET ( 8, 0, .BEHIND. ) ;
#59 = VERTEX_POINT ( 'NONE', #788 ) ;
#60 = FACE_BOUND ( 'NONE', #179, .T. ) ;
#61 = FACE_OUTER_BOUND ( 'NONE', #66, .T. ) ;
#62 = DIRECTION ( 'NONE',  ( -0.8660359542710185377, 0.4999817255759316792, 5.329070518200750605E-15 ) ) ;
#63 = ADVANCED_FACE ( 'NONE', ( #652 ), #522, .F. ) ;
#64 = CIRCLE ( 'NONE', #24, 4.000000000000000000 ) ;
#65 = DIRECTION ( 'NONE',  ( 0.000000000000000000, 0.000000000000000000, 1.000000000000000000 ) ) ;
#66 = EDGE_LOOP ( 'NONE', ( #663, #408, #643, #42, #338, #95, #841, #167 ) ) ;
#67 = LINE ( 'NONE', #592, #182 ) ;
#68 = DIRECTION ( 'NONE',  ( 0.8660359542710182046, -0.4999817255759322898, 0.000000000000000000 ) ) ;
#69 = ADVANCED_FACE ( 'NONE', ( #407 ), #820, .T. ) ;
#70 = DIRECTION ( 'NONE',  ( 1.000000000000000000, -0.000000000000000000, -1.220597363587109281E-16 ) ) ;
#71 = AXIS2_PLACEMENT_3D ( 'NONE', #830, #162, #822 ) ;
#72 = VECTOR ( 'NONE', #187, 1000.000000000000000 ) ;
#73 = CARTESIAN_POINT ( 'NONE',  ( 3.150000000000002132, -202.4000000000000625, 1.999999999998713252 ) ) ;
#74 = APPROVAL_STATUS ( 'not_yet_approved' ) ;
#75 = AXIS2_PLACEMENT_3D ( 'NONE', #456, #79, #782 ) ;
#76 = EDGE_LOOP ( 'NONE', ( #659, #790 ) ) ;
#77 = LINE ( 'NONE', #787, #38 ) ;
#78 = EDGE_CURVE ( 'NONE', #757, #500, #616, .T. ) ;
#79 = DIRECTION ( 'NONE',  ( 0.4999817255759314572, 0.8660359542710186487, -0.000000000000000000 ) ) ;
#80 = ORIENTED_EDGE ( 'NONE', *, *, #175, .T. ) ;
#81 = CARTESIAN_POINT ( 'NONE',  ( 10.00000000000007105, 0.000000000000000000, -4.000000000000000000 ) ) ;
#82 = CARTESIAN_POINT ( 'NONE',  ( 2.999999999999998224, 40.00000000000000000, -17.76510755847015588 ) ) ;
#83 = TOROIDAL_SURFACE ( 'NONE', #165, 10.00000000000000888, 4.000000000000000000 ) ;
#84 = EDGE_CURVE ( 'NONE', #203, #46, #599, .T. ) ;
#85 = VERTEX_POINT ( 'NONE', #799 ) ;
#86 = CARTESIAN_POINT ( 'NONE',  ( -3.000000000000002220, 40.00000000000000000, -17.76510755847015588 ) ) ;
#87 = CIRCLE ( 'NONE', #223, 3.999999999999994227 ) ;
#88 = APPLICATION_CONTEXT ( 'configuration controlled 3d designs of mechanical parts and assemblies' ) ;
#89 = AXIS2_PLACEMENT_3D ( 'NONE', #316, #15, #149 ) ;
#90 = EDGE_LOOP ( 'NONE', ( #804, #748, #240, #358 ) ) ;
#91 = DIRECTION ( 'NONE',  ( 1.220597363587109034E-16, 0.000000000000000000, 1.000000000000000000 ) ) ;
#92 = ORIENTED_EDGE ( 'NONE', *, *, #553, .T. ) ;
#93 = CARTESIAN_POINT ( 'NONE',  ( 111.3402734864848185, -14.99981725575931435, 0.000000000000000000 ) ) ;
#94 = CIRCLE ( 'NONE', #751, 4.000000000000000000 ) ;
#95 = ORIENTED_EDGE ( 'NONE', *, *, #345, .T. ) ;
#96 = DIRECTION ( 'NONE',  ( 1.000000000000000000, 0.000000000000000000, 0.000000000000000000 ) ) ;
#97 = EDGE_CURVE ( 'NONE', #305, #458, #473, .T. ) ;
#98 = CIRCLE ( 'NONE', #629, 4.000000000000000000 ) ;
#99 = TOROIDAL_SURFACE ( 'NONE', #168, 10.00000000000028955, 4.000000000000000000 ) ;
#100 = CARTESIAN_POINT ( 'NONE',  ( 102.6799139437745936, 0.000000000000000000, 0.000000000000000000 ) ) ;
#101 = CARTESIAN_POINT ( 'NONE',  ( 111.3402734864848185, -14.99981725575930902, 0.000000000000000000 ) ) ;
#102 = VERTEX_POINT ( 'NONE', #667 ) ;
#103 = EDGE_CURVE ( 'NONE', #500, #34, #344, .T. ) ;
#104 = DIRECTION ( 'NONE',  ( 0.000000000000000000, 0.000000000000000000, 1.000000000000000000 ) ) ;
#105 = DIRECTION ( 'NONE',  ( 0.000000000000000000, 0.000000000000000000, 1.000000000000000000 ) ) ;
#106 = VERTEX_POINT ( 'NONE', #335 ) ;
#107 = DIRECTION ( 'NONE',  ( 0.000000000000000000, 0.000000000000000000, 1.000000000000000000 ) ) ;
#108 = FACE_OUTER_BOUND ( 'NONE', #22, .T. ) ;
#109 = ORIENTED_EDGE ( 'NONE', *, *, #117, .T. ) ;
#110 = CARTESIAN_POINT ( 'NONE',  ( 56.33995697188731100, 10.00000000000000888, -3.469446951953614189E-15 ) ) ;
#111 = ADVANCED_FACE ( 'NONE', ( #261, #211, #598 ), #850, .T. ) ;
#112 = EDGE_LOOP ( 'NONE', ( #516, #92, #674, #39 ) ) ;
#113 = ORIENTED_EDGE ( 'NONE', *, *, #78, .F. ) ;
#114 = CARTESIAN_POINT ( 'NONE',  ( 2.999999999999999112, 40.00000000000000000, -2.645751311064590716 ) ) ;
#115 = DIRECTION ( 'NONE',  ( -1.734723475976815230E-16, 0.000000000000000000, -1.000000000000000000 ) ) ;
#116 = CONICAL_SURFACE ( 'NONE', #71, 3.999999999999994227, 0.03490658503988851996 ) ;
#117 = EDGE_CURVE ( 'NONE', #648, #371, #736, .T. ) ;
#118 = EDGE_LOOP ( 'NONE', ( #609, #307, #628, #374, #251, #637, #413 ) ) ;
#119 = PERSON_AND_ORGANIZATION_ROLE ( 'creator' ) ;
#120 = ORIENTED_EDGE ( 'NONE', *, *, #190, .T. ) ;
#121 = DIRECTION ( 'NONE',  ( 0.000000000000000000, 0.000000000000000000, -1.000000000000000000 ) ) ;
#122 = CARTESIAN_POINT ( 'NONE',  ( -2.999999999999999556, 15.00000000000006928, 3.661792090761327595E-16 ) ) ;
#123 = AXIS2_PLACEMENT_3D ( 'NONE', #139, #400, #802 ) ;
#124 = CC_DESIGN_DATE_AND_TIME_ASSIGNMENT ( #596, #583, ( #708 ) ) ;
#125 = ORIENTED_EDGE ( 'NONE', *, *, #19, .F. ) ;
#126 = DIRECTION ( 'NONE',  ( -0.000000000000000000, -0.000000000000000000, -1.000000000000000000 ) ) ;
#127 = DIRECTION ( 'NONE',  ( -1.000000000000000000, 0.000000000000000000, 1.220597363587109281E-16 ) ) ;
#128 = DIRECTION ( 'NONE',  ( 1.000000000000000000, -0.000000000000000000, -1.220597363587109034E-16 ) ) ;
#129 = CYLINDRICAL_SURFACE ( 'NONE', #732, 3.999999999999996447 ) ;
#130 = ORIENTED_EDGE ( 'NONE', *, *, #430, .F. ) ;
#131 = DIRECTION ( 'NONE',  ( 0.000000000000000000, 0.000000000000000000, -1.000000000000000000 ) ) ;
#132 = EDGE_CURVE ( 'NONE', #312, #106, #453, .T. ) ;
#133 = DIRECTION ( 'NONE',  ( 0.000000000000000000, -0.000000000000000000, 1.000000000000000000 ) ) ;
#134 = DIRECTION ( 'NONE',  ( -1.220597363587109034E-16, -0.000000000000000000, -1.000000000000000000 ) ) ;
#135 = CIRCLE ( 'NONE', #611, 4.000000000000000000 ) ;
#136 = CARTESIAN_POINT ( 'NONE',  ( 3.000000000000002220, 35.00000000000006395, 2.499999999999988010 ) ) ;
#137 = ORIENTED_EDGE ( 'NONE', *, *, #365, .F. ) ;
#138 = ORIENTED_EDGE ( 'NONE', *, *, #406, .T. ) ;
#139 = CARTESIAN_POINT ( 'NONE',  ( 31.78520666085998769, -152.7999501227380676, 0.000000000000000000 ) ) ;
#140 =( GEOMETRIC_REPRESENTATION_CONTEXT ( 3 ) GLOBAL_UNCERTAINTY_ASSIGNED_CONTEXT ( ( #244 ) ) GLOBAL_UNIT_ASSIGNED_CONTEXT ( ( #769, #502, #35 ) ) REPRESENTATION_CONTEXT ( 'NONE', 'WORKASPACE' ) );
#141 = CIRCLE ( 'NONE', #351, 4.000000000000000000 ) ;
#142 = CARTESIAN_POINT ( 'NONE',  ( 56.33995697188731100, 10.00000000000000888, -3.469446951953614189E-15 ) ) ;
#143 = AXIS2_PLACEMENT_3D ( 'NONE', #122, #459, #194 ) ;
#144 = ORIENTED_EDGE ( 'NONE', *, *, #117, .F. ) ;
#145 = CARTESIAN_POINT ( 'NONE',  ( 3.149999999999995470, -202.4000000000000625, 0.000000000000000000 ) ) ;
#146 = ADVANCED_FACE ( 'NONE', ( #455 ), #588, .F. ) ;
#147 = DIRECTION ( 'NONE',  ( -0.8660359542710185377, 0.4999817255759316792, 0.000000000000000000 ) ) ;
#148 = VERTEX_POINT ( 'NONE', #582 ) ;
#149 = DIRECTION ( 'NONE',  ( -1.734723475976812764E-16, 0.000000000000000000, -1.000000000000000000 ) ) ;
#150 = CC_DESIGN_PERSON_AND_ORGANIZATION_ASSIGNMENT ( #183, #789, ( #708 ) ) ;
#151 = ORIENTED_EDGE ( 'NONE', *, *, #155, .T. ) ;
#152 = CARTESIAN_POINT ( 'NONE',  ( 3.000000000000000888, 40.00000000000000000, 2.645751311064582278 ) ) ;
#153 = EDGE_LOOP ( 'NONE', ( #750, #234, #389, #584, #260, #761 ) ) ;
#154 = CYLINDRICAL_SURFACE ( 'NONE', #434, 4.000000000000000000 ) ;
#155 = EDGE_CURVE ( 'NONE', #458, #734, #98, .T. ) ;
#156 = PLANE ( 'NONE',  #747 ) ;
#157 = AXIS2_PLACEMENT_3D ( 'NONE', #570, #427, #105 ) ;
#158 = DIRECTION ( 'NONE',  ( 0.000000000000000000, 1.000000000000000000, 0.000000000000000000 ) ) ;
#159 = CIRCLE ( 'NONE', #123, 3.999999999999994227 ) ;
#160 = CARTESIAN_POINT ( 'NONE',  ( 28.32106284377591976, -150.8000232204343547, 0.000000000000000000 ) ) ;
#161 = EDGE_CURVE ( 'NONE', #263, #631, #470, .T. ) ;
#162 = DIRECTION ( 'NONE',  ( 0.4999817255759314572, 0.8660359542710186487, -0.000000000000000000 ) ) ;
#163 = DIRECTION ( 'NONE',  ( 0.4694529312874343163, 0.8829574991502339154, 0.000000000000000000 ) ) ;
#164 = ORIENTED_EDGE ( 'NONE', *, *, #430, .T. ) ;
#165 = AXIS2_PLACEMENT_3D ( 'NONE', #720, #379, #837 ) ;
#166 = DIRECTION ( 'NONE',  ( 0.000000000000000000, 0.000000000000000000, 1.000000000000000000 ) ) ;
#167 = ORIENTED_EDGE ( 'NONE', *, *, #710, .T. ) ;
#168 = AXIS2_PLACEMENT_3D ( 'NONE', #576, #56, #639 ) ;
#169 = CARTESIAN_POINT ( 'NONE',  ( 0.000000000000000000, 0.000000000000000000, 0.000000000000000000 ) ) ;
#170 = CIRCLE ( 'NONE', #664, 14.00000000000028955 ) ;
#171 = CARTESIAN_POINT ( 'NONE',  ( -2.999999999999999556, 10.00000000000000178, 2.645751311064914457 ) ) ;
#172 = VECTOR ( 'NONE', #163, 1000.000000000000114 ) ;
#173 = EDGE_LOOP ( 'NONE', ( #655, #109, #120, #797 ) ) ;
#174 = CARTESIAN_POINT ( 'NONE',  ( 31.78520666085998769, -152.7999501227380676, 0.000000000000000000 ) ) ;
#175 = EDGE_CURVE ( 'NONE', #631, #59, #293, .T. ) ;
#176 = CARTESIAN_POINT ( 'NONE',  ( -3.000000000000000000, 35.00000000000006395, -2.499999999999991562 ) ) ;
#177 = ORIENTED_EDGE ( 'NONE', *, *, #813, .F. ) ;
#178 = COORDINATED_UNIVERSAL_TIME_OFFSET ( 8, 0, .BEHIND. ) ;
#179 = EDGE_LOOP ( 'NONE', ( #571, #341 ) ) ;
#180 = CARTESIAN_POINT ( 'NONE',  ( -2.999999999999999556, 40.00000000000000000, 2.645751311064585387 ) ) ;
#181 = CARTESIAN_POINT ( 'NONE',  ( 111.3402734864848185, -14.99981725575931435, -3.999999999999999112 ) ) ;
#182 = VECTOR ( 'NONE', #575, 1000.000000000000000 ) ;
#183 = PERSON_AND_ORGANIZATION ( #544, #485 ) ;
#184 = VERTEX_POINT ( 'NONE', #793 ) ;
#185 = CYLINDRICAL_SURFACE ( 'NONE', #447, 4.000000000000000000 ) ;
#186 = PRODUCT_DEFINITION_FORMATION_WITH_SPECIFIED_SOURCE ( 'ANY', '', #380, .NOT_KNOWN. ) ;
#187 = DIRECTION ( 'NONE',  ( -0.000000000000000000, 1.000000000000000000, -0.000000000000000000 ) ) ;
#188 = DIRECTION ( 'NONE',  ( -0.8660359542710195369, 0.4999817255759299583, 0.000000000000000000 ) ) ;
#189 = PRODUCT_DEFINITION_SHAPE ( 'NONE', 'NONE',  #579 ) ;
#190 = EDGE_CURVE ( 'NONE', #371, #184, #489, .T. ) ;
#191 = EDGE_LOOP ( 'NONE', ( #113, #209, #177, #469 ) ) ;
#192 = EDGE_LOOP ( 'NONE', ( #821, #398, #125, #641, #719, #443 ) ) ;
#193 = CYLINDRICAL_SURFACE ( 'NONE', #465, 4.000000000000000000 ) ;
#194 = DIRECTION ( 'NONE',  ( 1.734723475976811778E-16, 0.000000000000000000, 1.000000000000000000 ) ) ;
#195 = CARTESIAN_POINT ( 'NONE',  ( 111.3402734864848185, -14.99981725575931435, 3.999999999999999112 ) ) ;
#196 = CARTESIAN_POINT ( 'NONE',  ( 102.6799139437745936, 0.000000000000000000, 0.000000000000000000 ) ) ;
#197 = DATE_AND_TIME ( #394, #50 ) ;
#198 = ORIENTED_EDGE ( 'NONE', *, *, #84, .F. ) ;
#199 = CARTESIAN_POINT ( 'NONE',  ( 102.6799139437746078, -10.00000000000000000, 0.000000000000000000 ) ) ;
#200 = EDGE_LOOP ( 'NONE', ( #362, #766 ) ) ;
#201 = CARTESIAN_POINT ( 'NONE',  ( 2.999999999999998224, 10.00000000000000178, -17.76510755847015588 ) ) ;
#202 = AXIS2_PLACEMENT_3D ( 'NONE', #446, #580, #247 ) ;
#203 = VERTEX_POINT ( 'NONE', #205 ) ;
#204 = VERTEX_POINT ( 'NONE', #716 ) ;
#205 = CARTESIAN_POINT ( 'NONE',  ( -2.999999999999999112, 35.00000000000006395, 2.499999999999992450 ) ) ;
#206 = FACE_OUTER_BOUND ( 'NONE', #300, .T. ) ;
#207 = AXIS2_PLACEMENT_3D ( 'NONE', #145, #739, #475 ) ;
#208 = CIRCLE ( 'NONE', #501, 2.499999999999992006 ) ;
#209 = ORIENTED_EDGE ( 'NONE', *, *, #514, .T. ) ;
#210 = EDGE_CURVE ( 'NONE', #597, #85, #159, .T. ) ;
#211 = FACE_BOUND ( 'NONE', #200, .T. ) ;
#212 = ORIENTED_EDGE ( 'NONE', *, *, #399, .T. ) ;
#213 = ORIENTED_EDGE ( 'NONE', *, *, #491, .T. ) ;
#214 = DIRECTION ( 'NONE',  ( 0.000000000000000000, 1.000000000000000000, 0.000000000000000000 ) ) ;
#215 = CARTESIAN_POINT ( 'NONE',  ( 3.149999999999999911, -202.4000000000000625, 0.000000000000000000 ) ) ;
#216 = EDGE_CURVE ( 'NONE', #384, #334, #77, .T. ) ;
#217 = AXIS2_PLACEMENT_3D ( 'NONE', #601, #214, #416 ) ;
#218 = DIRECTION ( 'NONE',  ( -1.000000000000000000, 0.000000000000000000, 1.220597363587109281E-16 ) ) ;
#219 = VECTOR ( 'NONE', #498, 1000.000000000000000 ) ;
#220 = DIRECTION ( 'NONE',  ( -0.8660359542710195369, 0.4999817255759299583, 0.000000000000000000 ) ) ;
#221 = EDGE_CURVE ( 'NONE', #34, #757, #422, .T. ) ;
#222 = CARTESIAN_POINT ( 'NONE',  ( -25.48520666082313824, -252.0000498771981938, 0.000000000000000000 ) ) ;
#223 = AXIS2_PLACEMENT_3D ( 'NONE', #763, #814, #220 ) ;
#224 = CARTESIAN_POINT ( 'NONE',  ( 0.000000000000000000, 40.00000000000000000, 0.000000000000000000 ) ) ;
#225 = AXIS2_PLACEMENT_3D ( 'NONE', #387, #532, #62 ) ;
#226 = CARTESIAN_POINT ( 'NONE',  ( 3.000000000000000000, 10.00000000000000178, -2.645751311064266531 ) ) ;
#227 = ORIENTED_EDGE ( 'NONE', *, *, #411, .T. ) ;
#228 = CYLINDRICAL_SURFACE ( 'NONE', #265, 4.000000000000000000 ) ;
#229 = DIRECTION ( 'NONE',  ( -0.8660359542710195369, 0.4999817255759299583, 0.000000000000000000 ) ) ;
#230 = VERTEX_POINT ( 'NONE', #321 ) ;
#231 = CARTESIAN_POINT ( 'NONE',  ( 3.000000000000001776, 35.00000000000006395, -3.661792090761330060E-16 ) ) ;
#232 = CIRCLE ( 'NONE', #725, 2.499999999999988454 ) ;
#233 = CARTESIAN_POINT ( 'NONE',  ( 3.000000000000000888, 15.00000000000006928, 2.499999999999992895 ) ) ;
#234 = ORIENTED_EDGE ( 'NONE', *, *, #741, .F. ) ;
#235 = EDGE_CURVE ( 'NONE', #439, #85, #254, .T. ) ;
#236 = VECTOR ( 'NONE', #329, 1000.000000000000000 ) ;
#237 = DIRECTION ( 'NONE',  ( 1.220597363587109034E-16, 0.000000000000000000, 1.000000000000000000 ) ) ;
#238 = AXIS2_PLACEMENT_3D ( 'NONE', #540, #468, #65 ) ;
#239 = DIRECTION ( 'NONE',  ( -1.000000000000000000, 0.000000000000000000, 1.220597363587109281E-16 ) ) ;
#240 = ORIENTED_EDGE ( 'NONE', *, *, #634, .T. ) ;
#241 = EDGE_LOOP ( 'NONE', ( #198, #792, #492, #700 ) ) ;
#242 = CC_DESIGN_DATE_AND_TIME_ASSIGNMENT ( #777, #377, ( #579 ) ) ;
#243 = FACE_OUTER_BOUND ( 'NONE', #324, .T. ) ;
#244 = UNCERTAINTY_MEASURE_WITH_UNIT (LENGTH_MEASURE( 1.000000000000000082E-05 ), #769, 'distance_accuracy_value', 'NONE');
#245 = DIRECTION ( 'NONE',  ( 0.000000000000000000, 0.000000000000000000, 1.000000000000000000 ) ) ;
#246 = VERTEX_POINT ( 'NONE', #460 ) ;
#247 = DIRECTION ( 'NONE',  ( 0.000000000000000000, 0.000000000000000000, 1.000000000000000000 ) ) ;
#248 = CARTESIAN_POINT ( 'NONE',  ( 3.150000000000002132, -202.4000000000000625, -1.999999999998713252 ) ) ;
#249 = ADVANCED_FACE ( 'NONE', ( #658 ), #405, .F. ) ;
#250 = CARTESIAN_POINT ( 'NONE',  ( 0.000000000000000000, 40.00000000000000000, 0.000000000000000000 ) ) ;
#251 = ORIENTED_EDGE ( 'NONE', *, *, #345, .F. ) ;
#252 = CARTESIAN_POINT ( 'NONE',  ( 10.00000000000007105, 0.000000000000000000, 0.000000000000000000 ) ) ;
#253 = CARTESIAN_POINT ( 'NONE',  ( 111.3402734864848185, -14.99981725575931435, 0.000000000000000000 ) ) ;
#254 = LINE ( 'NONE', #195, #608 ) ;
#255 = CIRCLE ( 'NONE', #217, 4.000000000000000000 ) ;
#256 = DIRECTION ( 'NONE',  ( 0.000000000000000000, 0.000000000000000000, 1.000000000000000000 ) ) ;
#257 = APPROVAL_DATE_TIME ( #197, #496 ) ;
#258 = ORIENTED_EDGE ( 'NONE', *, *, #47, .F. ) ;
#259 = DIRECTION ( 'NONE',  ( 1.000000000000000000, 0.000000000000000000, 0.000000000000000000 ) ) ;
#260 = ORIENTED_EDGE ( 'NONE', *, *, #536, .T. ) ;
#261 = FACE_BOUND ( 'NONE', #76, .T. ) ;
#262 = ORIENTED_EDGE ( 'NONE', *, *, #514, .F. ) ;
#263 = VERTEX_POINT ( 'NONE', #594 ) ;
#264 = DIRECTION ( 'NONE',  ( -1.220597363587109034E-16, -0.000000000000000000, -1.000000000000000000 ) ) ;
#265 = AXIS2_PLACEMENT_3D ( 'NONE', #224, #297, #363 ) ;
#266 = DIRECTION ( 'NONE',  ( 1.000000000000000000, -0.000000000000000000, -1.220597363587109034E-16 ) ) ;
#267 = EDGE_CURVE ( 'NONE', #783, #635, #670, .T. ) ;
#268 = EDGE_LOOP ( 'NONE', ( #669, #54, #378, #20 ) ) ;
#269 = DIRECTION ( 'NONE',  ( 0.4999817255759314572, 0.8660359542710186487, -0.000000000000000000 ) ) ;
#270 = EDGE_LOOP ( 'NONE', ( #292, #212, #14, #6 ) ) ;
#271 = AXIS2_PLACEMENT_3D ( 'NONE', #142, #388, #461 ) ;
#272 = APPROVAL ( #53, 'UNSPECIFIED' ) ;
#273 = ORIENTED_EDGE ( 'NONE', *, *, #539, .F. ) ;
#274 = DIRECTION ( 'NONE',  ( 1.734723475976812764E-16, 0.000000000000000000, 1.000000000000000000 ) ) ;
#275 = ORIENTED_EDGE ( 'NONE', *, *, #529, .T. ) ;
#276 = CARTESIAN_POINT ( 'NONE',  ( 0.000000000000000000, 10.00000000000007105, 0.000000000000000000 ) ) ;
#277 = EDGE_CURVE ( 'NONE', #395, #318, #255, .T. ) ;
#278 = CIRCLE ( 'NONE', #289, 4.000000000000000000 ) ;
#279 = FACE_OUTER_BOUND ( 'NONE', #118, .T. ) ;
#280 = VECTOR ( 'NONE', #823, 1000.000000000000000 ) ;
#281 = AXIS2_PLACEMENT_3D ( 'NONE', #350, #550, #348 ) ;
#282 = AXIS2_PLACEMENT_3D ( 'NONE', #253, #849, #68 ) ;
#283 = EDGE_CURVE ( 'NONE', #318, #246, #170, .T. ) ;
#284 = ORIENTED_EDGE ( 'NONE', *, *, #508, .T. ) ;
#285 = FACE_OUTER_BOUND ( 'NONE', #4, .T. ) ;
#286 = ADVANCED_FACE ( 'NONE', ( #482 ), #156, .F. ) ;
#287 = FACE_OUTER_BOUND ( 'NONE', #191, .T. ) ;
#288 = CARTESIAN_POINT ( 'NONE',  ( 10.00000000000007105, 0.000000000000000000, 0.000000000000000000 ) ) ;
#289 = AXIS2_PLACEMENT_3D ( 'NONE', #100, #633, #166 ) ;
#290 = CC_DESIGN_PERSON_AND_ORGANIZATION_ASSIGNMENT ( #523, #317, ( #186 ) ) ;
#291 = DIRECTION ( 'NONE',  ( 1.000000000000000000, -0.000000000000000000, -1.220597363587109034E-16 ) ) ;
#292 = ORIENTED_EDGE ( 'NONE', *, *, #411, .F. ) ;
#293 = CIRCLE ( 'NONE', #767, 4.000000000000000000 ) ;
#294 = CYLINDRICAL_SURFACE ( 'NONE', #557, 4.000000000000000000 ) ;
#295 = ORIENTED_EDGE ( 'NONE', *, *, #155, .F. ) ;
#296 = APPLICATION_CONTEXT ( 'configuration controlled 3d designs of mechanical parts and assemblies' ) ;
#297 = DIRECTION ( 'NONE',  ( 0.000000000000000000, -1.000000000000000000, 0.000000000000000000 ) ) ;
#298 = DIRECTION ( 'NONE',  ( 1.000000000000000000, -0.000000000000000000, -1.220597363587109281E-16 ) ) ;
#299 = ADVANCED_FACE ( 'NONE', ( #683 ), #615, .T. ) ;
#300 = EDGE_LOOP ( 'NONE', ( #144, #771, #433, #370 ) ) ;
#301 = APPROVAL_STATUS ( 'not_yet_approved' ) ;
#302 = CIRCLE ( 'NONE', #45, 4.000000000000000000 ) ;
#303 = DESIGN_CONTEXT ( 'detailed design', #296, 'design' ) ;
#304 = CARTESIAN_POINT ( 'NONE',  ( 0.000000000000000000, 10.00000000000007105, 0.000000000000000000 ) ) ;
#305 = VERTEX_POINT ( 'NONE', #152 ) ;
#306 = APPROVAL_PERSON_ORGANIZATION ( #323, #272, #383 ) ;
#307 = ORIENTED_EDGE ( 'NONE', *, *, #283, .T. ) ;
#308 = CARTESIAN_POINT ( 'NONE',  ( 0.000000000000000000, 40.00000000000000000, 0.000000000000000000 ) ) ;
#309 = AXIS2_PLACEMENT_3D ( 'NONE', #201, #527, #844 ) ;
#310 = CYLINDRICAL_SURFACE ( 'NONE', #282, 3.999999999999996447 ) ;
#311 = COORDINATED_UNIVERSAL_TIME_OFFSET ( 8, 0, .BEHIND. ) ;
#312 = VERTEX_POINT ( 'NONE', #480 ) ;
#313 = CARTESIAN_POINT ( 'NONE',  ( 10.00000000000007105, 0.000000000000000000, 0.000000000000000000 ) ) ;
#314 = EDGE_CURVE ( 'NONE', #463, #203, #364, .T. ) ;
#315 = DIRECTION ( 'NONE',  ( 0.000000000000000000, 1.000000000000000000, 0.000000000000000000 ) ) ;
#316 = CARTESIAN_POINT ( 'NONE',  ( 3.000000000000000444, 35.00000000000006395, -3.661792090761328581E-16 ) ) ;
#317 = PERSON_AND_ORGANIZATION_ROLE ( 'creator' ) ;
#318 = VERTEX_POINT ( 'NONE', #746 ) ;
#319 = FACE_OUTER_BOUND ( 'NONE', #346, .T. ) ;
#320 = FACE_OUTER_BOUND ( 'NONE', #332, .T. ) ;
#321 = CARTESIAN_POINT ( 'NONE',  ( 10.00000000000007105, 4.898587196589412829E-16, 4.000000000000000000 ) ) ;
#322 = DIRECTION ( 'NONE',  ( -0.4999817255759314572, -0.8660359542710186487, 0.000000000000000000 ) ) ;
#323 = PERSON_AND_ORGANIZATION ( #544, #485 ) ;
#324 = EDGE_LOOP ( 'NONE', ( #530, #602, #138, #694, #367, #578 ) ) ;
#325 = PLANE ( 'NONE',  #807 ) ;
#326 = CIRCLE ( 'NONE', #660, 4.000000000000000000 ) ;
#327 = VECTOR ( 'NONE', #839, 1000.000000000000227 ) ;
#328 = ORIENTED_EDGE ( 'NONE', *, *, #745, .T. ) ;
#329 = DIRECTION ( 'NONE',  ( 0.000000000000000000, -1.000000000000000000, 0.000000000000000000 ) ) ;
#330 = DIRECTION ( 'NONE',  ( -1.734723475976811778E-16, 0.000000000000000000, -1.000000000000000000 ) ) ;
#331 = AXIS2_PLACEMENT_3D ( 'NONE', #612, #218, #274 ) ;
#332 = EDGE_LOOP ( 'NONE', ( #151, #213, #528, #726, #506 ) ) ;
#333 = PERSON_AND_ORGANIZATION ( #544, #485 ) ;
#334 = VERTEX_POINT ( 'NONE', #684 ) ;
#335 = CARTESIAN_POINT ( 'NONE',  ( 107.8761296694007257, -12.99989035345558719, 4.898587196589412829E-16 ) ) ;
#336 = EDGE_CURVE ( 'NONE', #593, #648, #437, .T. ) ;
#337 = CARTESIAN_POINT ( 'NONE',  ( 3.149999999999995470, -202.4000000000000625, 0.000000000000000000 ) ) ;
#338 = ORIENTED_EDGE ( 'NONE', *, *, #745, .F. ) ;
#339 = DIRECTION ( 'NONE',  ( 1.000000000000000000, 0.000000000000000000, 0.000000000000000000 ) ) ;
#340 = CIRCLE ( 'NONE', #815, 4.000000000000000000 ) ;
#341 = ORIENTED_EDGE ( 'NONE', *, *, #417, .F. ) ;
#342 = ORIENTED_EDGE ( 'NONE', *, *, #784, .T. ) ;
#343 = CARTESIAN_POINT ( 'NONE',  ( 9.999999999999998224, 9.999999999999998224, 0.000000000000000000 ) ) ;
#344 = CIRCLE ( 'NONE', #207, 1.999999999998713474 ) ;
#345 = EDGE_CURVE ( 'NONE', #148, #541, #401, .T. ) ;
#346 = EDGE_LOOP ( 'NONE', ( #682, #16, #227, #137 ) ) ;
#347 = DIRECTION ( 'NONE',  ( -1.734723475976815230E-16, 0.000000000000000000, -1.000000000000000000 ) ) ;
#348 = DIRECTION ( 'NONE',  ( -1.000000000000000000, 0.000000000000000000, 0.000000000000000000 ) ) ;
#349 = AXIS2_PLACEMENT_3D ( 'NONE', #313, #706, #785 ) ;
#350 = CARTESIAN_POINT ( 'NONE',  ( 102.6799139437746078, -10.00000000000000000, 0.000000000000000000 ) ) ;
#351 = AXIS2_PLACEMENT_3D ( 'NONE', #759, #158, #563 ) ;
#352 = ADVANCED_FACE ( 'NONE', ( #279 ), #688, .T. ) ;
#353 = VECTOR ( 'NONE', #134, 1000.000000000000000 ) ;
#354 = AXIS2_PLACEMENT_3D ( 'NONE', #519, #504, #245 ) ;
#355 = PLANE ( 'NONE',  #429 ) ;
#356 = ADVANCED_FACE ( 'NONE', ( #285 ), #154, .T. ) ;
#357 = CARTESIAN_POINT ( 'NONE',  ( 10.00000000000004441, 4.000000000000000000, -4.898587196589590322E-16 ) ) ;
#358 = ORIENTED_EDGE ( 'NONE', *, *, #457, .F. ) ;
#359 = DIRECTION ( 'NONE',  ( -0.8660359542710195369, 0.4999817255759299583, 0.000000000000000000 ) ) ;
#360 = DIRECTION ( 'NONE',  ( 0.4999817255759302914, 0.8660359542710194258, 0.000000000000000000 ) ) ;
#361 = LOCAL_TIME ( 19, 25, 43.00000000000000000, #58 ) ;
#362 = ORIENTED_EDGE ( 'NONE', *, *, #375, .F. ) ;
#363 = DIRECTION ( 'NONE',  ( 0.000000000000000000, 0.000000000000000000, -1.000000000000000000 ) ) ;
#364 = CIRCLE ( 'NONE', #331, 2.499999999999992006 ) ;
#365 = EDGE_CURVE ( 'NONE', #829, #727, #675, .T. ) ;
#366 = DIRECTION ( 'NONE',  ( -1.734723475976811778E-16, 0.000000000000000000, -1.000000000000000000 ) ) ;
#367 = ORIENTED_EDGE ( 'NONE', *, *, #132, .F. ) ;
#368 = FACE_OUTER_BOUND ( 'NONE', #90, .T. ) ;
#369 = CARTESIAN_POINT ( 'NONE',  ( 3.000000000000002220, 15.00000000000006928, 2.499999999999988010 ) ) ;
#370 = ORIENTED_EDGE ( 'NONE', *, *, #824, .T. ) ;
#371 = VERTEX_POINT ( 'NONE', #805 ) ;
#372 = DIRECTION ( 'NONE',  ( 0.000000000000000000, -1.000000000000000000, 0.000000000000000000 ) ) ;
#373 = CARTESIAN_POINT ( 'NONE',  ( 3.000000000000001332, 35.00000000000006395, -2.499999999999988898 ) ) ;
#374 = ORIENTED_EDGE ( 'NONE', *, *, #819, .T. ) ;
#375 = EDGE_CURVE ( 'NONE', #334, #595, #835, .T. ) ;
#376 = APPROVAL_PERSON_ORGANIZATION ( #515, #617, #2 ) ;
#377 = DATE_TIME_ROLE ( 'creation_date' ) ;
#378 = ORIENTED_EDGE ( 'NONE', *, *, #775, .T. ) ;
#379 = DIRECTION ( 'NONE',  ( -0.000000000000000000, -0.000000000000000000, -1.000000000000000000 ) ) ;
#380 = PRODUCT ( 'blenderaugerlong', 'blenderaugerlong', '', ( #431 ) ) ;
#381 = CIRCLE ( 'NONE', #238, 4.000000000000000000 ) ;
#382 = DIRECTION ( 'NONE',  ( 1.000000000000000000, -0.000000000000000000, -1.220597363587109281E-16 ) ) ;
#383 = APPROVAL_ROLE ( '' ) ;
#384 = VERTEX_POINT ( 'NONE', #610 ) ;
#385 = CARTESIAN_POINT ( 'NONE',  ( 1.417928091459070616, -201.4000365488488455, 0.000000000000000000 ) ) ;
#386 = CARTESIAN_POINT ( 'NONE',  ( 0.000000000000000000, 40.00000000000000000, 0.000000000000000000 ) ) ;
#387 = CARTESIAN_POINT ( 'NONE',  ( 3.149999999999995470, -202.4000000000000625, 0.000000000000000000 ) ) ;
#388 = DIRECTION ( 'NONE',  ( -0.000000000000000000, 1.000000000000000000, 0.000000000000000000 ) ) ;
#389 = ORIENTED_EDGE ( 'NONE', *, *, #710, .F. ) ;
#390 = CARTESIAN_POINT ( 'NONE',  ( -2.999999999999999112, 15.00000000000006928, 2.499999999999993783 ) ) ;
#391 = LINE ( 'NONE', #770, #236 ) ;
#392 = CARTESIAN_POINT ( 'NONE',  ( 114.8044173035688829, -16.99974415806304151, 0.000000000000000000 ) ) ;
#393 = DIRECTION ( 'NONE',  ( 0.000000000000000000, -1.000000000000000000, 0.000000000000000000 ) ) ;
#394 = CALENDAR_DATE ( 2026, 24, 2 ) ;
#395 = VERTEX_POINT ( 'NONE', #23 ) ;
#396 = VECTOR ( 'NONE', #237, 1000.000000000000000 ) ;
#397 = AXIS2_PLACEMENT_3D ( 'NONE', #479, #744, #347 ) ;
#398 = ORIENTED_EDGE ( 'NONE', *, *, #542, .F. ) ;
#399 = EDGE_CURVE ( 'NONE', #624, #263, #733, .T. ) ;
#400 = DIRECTION ( 'NONE',  ( 0.4999817255759314572, 0.8660359542710186487, -0.000000000000000000 ) ) ;
#401 = CIRCLE ( 'NONE', #618, 6.000000000000289546 ) ;
#402 = AXIS2_PLACEMENT_3D ( 'NONE', #276, #546, #533 ) ;
#403 = CARTESIAN_POINT ( 'NONE',  ( 0.000000000000000000, 40.00000000000000000, -4.000000000000000000 ) ) ;
#404 = EDGE_LOOP ( 'NONE', ( #262, #801, #678, #451 ) ) ;
#405 = CYLINDRICAL_SURFACE ( 'NONE', #518, 2.499999999999993339 ) ;
#406 = EDGE_CURVE ( 'NONE', #648, #102, #26, .T. ) ;
#407 = FACE_OUTER_BOUND ( 'NONE', #484, .T. ) ;
#408 = ORIENTED_EDGE ( 'NONE', *, *, #277, .F. ) ;
#409 = DIRECTION ( 'NONE',  ( 0.000000000000000000, 0.000000000000000000, -1.000000000000000000 ) ) ;
#410 = CIRCLE ( 'NONE', #703, 2.499999999999993339 ) ;
#411 = EDGE_CURVE ( 'NONE', #624, #727, #509, .T. ) ;
#412 = APPROVAL_PERSON_ORGANIZATION ( #40, #496, #569 ) ;
#413 = ORIENTED_EDGE ( 'NONE', *, *, #399, .F. ) ;
#414 = DIRECTION ( 'NONE',  ( 0.000000000000000000, 0.000000000000000000, 1.000000000000000000 ) ) ;
#415 = AXIS2_PLACEMENT_3D ( 'NONE', #781, #269, #188 ) ;
#416 = DIRECTION ( 'NONE',  ( 0.000000000000000000, 0.000000000000000000, 1.000000000000000000 ) ) ;
#417 = EDGE_CURVE ( 'NONE', #203, #463, #208, .T. ) ;
#418 = DIRECTION ( 'NONE',  ( -0.4999817255759314572, -0.8660359542710186487, 0.000000000000000000 ) ) ;
#419 = LOCAL_TIME ( 19, 25, 43.00000000000000000, #178 ) ;
#420 = EDGE_CURVE ( 'NONE', #184, #102, #786, .T. ) ;
#421 = DIRECTION ( 'NONE',  ( 0.000000000000000000, 0.000000000000000000, 1.000000000000000000 ) ) ;
#422 = CIRCLE ( 'NONE', #225, 1.999999999998713474 ) ;
#423 = DIRECTION ( 'NONE',  ( -1.000000000000000000, -6.938893903907229167E-15, 0.000000000000000000 ) ) ;
#424 = DIRECTION ( 'NONE',  ( -1.000000000000000000, 0.000000000000000000, 0.000000000000000000 ) ) ;
#425 = ADVANCED_FACE ( 'NONE', ( #707 ), #310, .T. ) ;
#426 = DIRECTION ( 'NONE',  ( -1.000000000000000000, 0.000000000000000000, 0.000000000000000000 ) ) ;
#427 = DIRECTION ( 'NONE',  ( 0.000000000000000000, 1.000000000000000000, 0.000000000000000000 ) ) ;
#428 = ORIENTED_EDGE ( 'NONE', *, *, #775, .F. ) ;
#429 = AXIS2_PLACEMENT_3D ( 'NONE', #110, #620, #627 ) ;
#430 = EDGE_CURVE ( 'NONE', #384, #691, #503, .T. ) ;
#431 = MECHANICAL_CONTEXT ( 'NONE', #88, 'mechanical' ) ;
#432 = CARTESIAN_POINT ( 'NONE',  ( 102.6799139437745936, 0.000000000000000000, 0.000000000000000000 ) ) ;
#433 = ORIENTED_EDGE ( 'NONE', *, *, #235, .T. ) ;
#434 = AXIS2_PLACEMENT_3D ( 'NONE', #680, #554, #409 ) ;
#435 = VECTOR ( 'NONE', #393, 1000.000000000000000 ) ;
#436 = CARTESIAN_POINT ( 'NONE',  ( 10.00000000000007105, 0.000000000000000000, -4.000000000000000000 ) ) ;
#437 = CIRCLE ( 'NONE', #281, 14.00000000000001243 ) ;
#438 = DIRECTION ( 'NONE',  ( 0.000000000000000000, 0.000000000000000000, 1.000000000000000000 ) ) ;
#439 = VERTEX_POINT ( 'NONE', #657 ) ;
#440 = APPLICATION_PROTOCOL_DEFINITION ( 'international standard', 'config_control_design', 1994, #88 ) ;
#441 = CARTESIAN_POINT ( 'NONE',  ( 3.000000000000001776, 15.00000000000006928, -3.661792090761330060E-16 ) ) ;
#442 = ADVANCED_FACE ( 'NONE', ( #320 ), #512, .T. ) ;
#443 = ORIENTED_EDGE ( 'NONE', *, *, #210, .T. ) ;
#444 = CALENDAR_DATE ( 2026, 24, 2 ) ;
#445 = ORIENTED_EDGE ( 'NONE', *, *, #621, .T. ) ;
#446 = CARTESIAN_POINT ( 'NONE',  ( 10.00000000000007105, 0.000000000000000000, 0.000000000000000000 ) ) ;
#447 = AXIS2_PLACEMENT_3D ( 'NONE', #252, #259, #121 ) ;
#448 = DIRECTION ( 'NONE',  ( 0.4999817255759314572, 0.8660359542710186487, -0.000000000000000000 ) ) ;
#449 = COORDINATED_UNIVERSAL_TIME_OFFSET ( 8, 0, .BEHIND. ) ;
#450 = CIRCLE ( 'NONE', #709, 2.499999999999988454 ) ;
#451 = ORIENTED_EDGE ( 'NONE', *, *, #210, .F. ) ;
#452 = DIRECTION ( 'NONE',  ( 0.000000000000000000, 1.000000000000000000, 0.000000000000000000 ) ) ;
#453 = CIRCLE ( 'NONE', #551, 6.000000000000005329 ) ;
#454 = LINE ( 'NONE', #715, #280 ) ;
#455 = FACE_OUTER_BOUND ( 'NONE', #241, .T. ) ;
#456 = CARTESIAN_POINT ( 'NONE',  ( 31.78520666085998769, -152.7999501227380676, 0.000000000000000000 ) ) ;
#457 = EDGE_CURVE ( 'NONE', #829, #395, #391, .T. ) ;
#458 = VERTEX_POINT ( 'NONE', #650 ) ;
#459 = DIRECTION ( 'NONE',  ( -1.000000000000000000, 0.000000000000000000, 1.220597363587109281E-16 ) ) ;
#460 = CARTESIAN_POINT ( 'NONE',  ( 10.00000000000009948, -4.000000000000145661, 0.000000000000000000 ) ) ;
#461 = DIRECTION ( 'NONE',  ( 0.000000000000000000, -0.000000000000000000, 1.000000000000000000 ) ) ;
#462 = DATE_AND_TIME ( #661, #361 ) ;
#463 = VERTEX_POINT ( 'NONE', #176 ) ;
#464 = EDGE_CURVE ( 'NONE', #595, #334, #549, .T. ) ;
#465 = AXIS2_PLACEMENT_3D ( 'NONE', #644, #372, #131 ) ;
#466 = ORIENTED_EDGE ( 'NONE', *, *, #531, .F. ) ;
#467 = DIRECTION ( 'NONE',  ( -0.000000000000000000, -0.000000000000000000, -1.000000000000000000 ) ) ;
#468 = DIRECTION ( 'NONE',  ( 0.4999817255759302914, 0.8660359542710194258, 0.000000000000000000 ) ) ;
#469 = ORIENTED_EDGE ( 'NONE', *, *, #587, .T. ) ;
#470 = LINE ( 'NONE', #513, #573 ) ;
#471 = AXIS2_PLACEMENT_3D ( 'NONE', #477, #589, #668 ) ;
#472 = AXIS2_PLACEMENT_3D ( 'NONE', #441, #382, #115 ) ;
#473 = LINE ( 'NONE', #82, #353 ) ;
#474 = ORIENTED_EDGE ( 'NONE', *, *, #277, .T. ) ;
#475 = DIRECTION ( 'NONE',  ( -0.8660359542710185377, 0.4999817255759316792, -2.664535259100375303E-15 ) ) ;
#476 = ADVANCED_FACE ( 'NONE', ( #61 ), #99, .T. ) ;
#477 = CARTESIAN_POINT ( 'NONE',  ( 3.000000000000000444, 35.00000000000006395, -3.661792090761328581E-16 ) ) ;
#478 = VERTEX_POINT ( 'NONE', #373 ) ;
#479 = CARTESIAN_POINT ( 'NONE',  ( 3.000000000000001776, 15.00000000000006928, -3.661792090761330060E-16 ) ) ;
#480 = CARTESIAN_POINT ( 'NONE',  ( 102.6799139437745936, -4.000000000000000000, 4.898587196589418745E-16 ) ) ;
#481 = VECTOR ( 'NONE', #339, 1000.000000000000000 ) ;
#482 = FACE_OUTER_BOUND ( 'NONE', #561, .T. ) ;
#483 = EDGE_CURVE ( 'NONE', #34, #85, #586, .T. ) ;
#484 = EDGE_LOOP ( 'NONE', ( #778, #713, #548, #696, #836 ) ) ;
#485 = ORGANIZATION ( 'UNSPECIFIED', 'UNSPECIFIED', '' ) ;
#486 = LINE ( 'NONE', #689, #396 ) ;
#487 = LOCAL_TIME ( 19, 25, 43.00000000000000000, #590 ) ;
#488 = CARTESIAN_POINT ( 'NONE',  ( 31.78520666085998769, -152.7999501227380676, 0.000000000000000000 ) ) ;
#489 = CIRCLE ( 'NONE', #415, 3.999999999999994227 ) ;
#490 = DIRECTION ( 'NONE',  ( 0.000000000000000000, 1.000000000000000000, 0.000000000000000000 ) ) ;
#491 = EDGE_CURVE ( 'NONE', #734, #829, #662, .T. ) ;
#492 = ORIENTED_EDGE ( 'NONE', *, *, #539, .T. ) ;
#493 = DIRECTION ( 'NONE',  ( 1.000000000000000000, 0.000000000000000000, 0.000000000000000000 ) ) ;
#494 = DIRECTION ( 'NONE',  ( 0.4999817255759314572, 0.8660359542710186487, -0.000000000000000000 ) ) ;
#495 = EDGE_LOOP ( 'NONE', ( #474, #833, #738 ) ) ;
#496 = APPROVAL ( #301, 'UNSPECIFIED' ) ;
#497 = AXIS2_PLACEMENT_3D ( 'NONE', #199, #126, #585 ) ;
#498 = DIRECTION ( 'NONE',  ( -0.000000000000000000, 1.000000000000000000, -0.000000000000000000 ) ) ;
#499 = DIRECTION ( 'NONE',  ( 1.000000000000000000, -0.000000000000000000, -1.220597363587109034E-16 ) ) ;
#500 = VERTEX_POINT ( 'NONE', #248 ) ;
#501 = AXIS2_PLACEMENT_3D ( 'NONE', #774, #127, #645 ) ;
#502 =( NAMED_UNIT ( * ) PLANE_ANGLE_UNIT ( ) SI_UNIT ( $, .RADIAN. ) );
#503 = CIRCLE ( 'NONE', #143, 2.499999999999993339 ) ;
#504 = DIRECTION ( 'NONE',  ( 0.4999817255759302914, 0.8660359542710194258, 0.000000000000000000 ) ) ;
#505 = ORIENTED_EDGE ( 'NONE', *, *, #216, .F. ) ;
#506 = ORIENTED_EDGE ( 'NONE', *, *, #97, .T. ) ;
#507 = DIRECTION ( 'NONE',  ( 1.000000000000000000, -0.000000000000000000, -1.220597363587109281E-16 ) ) ;
#508 = EDGE_CURVE ( 'NONE', #230, #204, #454, .T. ) ;
#509 = LINE ( 'NONE', #721, #72 ) ;
#510 = ORIENTED_EDGE ( 'NONE', *, *, #267, .F. ) ;
#511 = FACE_OUTER_BOUND ( 'NONE', #524, .T. ) ;
#512 = PLANE ( 'NONE',  #809 ) ;
#513 = CARTESIAN_POINT ( 'NONE',  ( 2.999999999999998224, 10.00000000000000178, -17.76510755847015588 ) ) ;
#514 = EDGE_CURVE ( 'NONE', #757, #597, #566, .T. ) ;
#515 = PERSON_AND_ORGANIZATION ( #544, #485 ) ;
#516 = ORIENTED_EDGE ( 'NONE', *, *, #613, .F. ) ;
#517 = DIRECTION ( 'NONE',  ( 0.000000000000000000, 1.000000000000000000, 0.000000000000000000 ) ) ;
#518 = AXIS2_PLACEMENT_3D ( 'NONE', #538, #70, #330 ) ;
#519 = CARTESIAN_POINT ( 'NONE',  ( 111.3402734864848185, -14.99981725575930902, 0.000000000000000000 ) ) ;
#520 = DIRECTION ( 'NONE',  ( 0.000000000000000000, 0.000000000000000000, 1.000000000000000000 ) ) ;
#521 = ADVANCED_FACE ( 'NONE', ( #752 ), #614, .T. ) ;
#522 = CYLINDRICAL_SURFACE ( 'NONE', #471, 2.499999999999992006 ) ;
#523 = PERSON_AND_ORGANIZATION ( #544, #485 ) ;
#524 = EDGE_LOOP ( 'NONE', ( #9, #526, #466, #537, #567, #445 ) ) ;
#525 = CARTESIAN_POINT ( 'NONE',  ( -3.000000000000002220, 10.00000000000000178, -17.76510755847015588 ) ) ;
#526 = ORIENTED_EDGE ( 'NONE', *, *, #784, .F. ) ;
#527 = DIRECTION ( 'NONE',  ( 1.000000000000000000, 0.000000000000000000, -1.220597363587109034E-16 ) ) ;
#528 = ORIENTED_EDGE ( 'NONE', *, *, #365, .T. ) ;
#529 = EDGE_CURVE ( 'NONE', #263, #148, #141, .T. ) ;
#530 = ORIENTED_EDGE ( 'NONE', *, *, #8, .F. ) ;
#531 = EDGE_CURVE ( 'NONE', #312, #204, #831, .T. ) ;
#532 = DIRECTION ( 'NONE',  ( -0.4999817255759315682, -0.8660359542710187597, -0.000000000000000000 ) ) ;
#533 = DIRECTION ( 'NONE',  ( 0.000000000000000000, 0.000000000000000000, 1.000000000000000000 ) ) ;
#534 = CC_DESIGN_SECURITY_CLASSIFICATION ( #708, ( #186 ) ) ;
#535 = AXIS2_PLACEMENT_3D ( 'NONE', #30, #555, #701 ) ;
#536 = EDGE_CURVE ( 'NONE', #635, #312, #278, .T. ) ;
#537 = ORIENTED_EDGE ( 'NONE', *, *, #132, .T. ) ;
#538 = CARTESIAN_POINT ( 'NONE',  ( 3.000000000000000444, 15.00000000000006928, -3.661792090761328581E-16 ) ) ;
#539 = EDGE_CURVE ( 'NONE', #463, #478, #41, .T. ) ;
#540 = CARTESIAN_POINT ( 'NONE',  ( 111.3402734864848185, -14.99981725575930902, 0.000000000000000000 ) ) ;
#541 = VERTEX_POINT ( 'NONE', #357 ) ;
#542 = EDGE_CURVE ( 'NONE', #106, #439, #340, .T. ) ;
#543 = DIRECTION ( 'NONE',  ( 1.000000000000000000, 0.000000000000000000, 0.000000000000000000 ) ) ;
#544 = PERSON ( 'UNSPECIFIED', 'UNSPECIFIED', 'UNSPECIFIED', ('UNSPECIFIED'), ('UNSPECIFIED'), ('UNSPECIFIED') ) ;
#545 = CIRCLE ( 'NONE', #157, 4.000000000000000000 ) ;
#546 = DIRECTION ( 'NONE',  ( 0.000000000000000000, 1.000000000000000000, 0.000000000000000000 ) ) ;
#547 = AXIS2_PLACEMENT_3D ( 'NONE', #174, #565, #359 ) ;
#548 = ORIENTED_EDGE ( 'NONE', *, *, #824, .F. ) ;
#549 = CIRCLE ( 'NONE', #472, 2.499999999999988454 ) ;
#550 = DIRECTION ( 'NONE',  ( -0.000000000000000000, -0.000000000000000000, -1.000000000000000000 ) ) ;
#551 = AXIS2_PLACEMENT_3D ( 'NONE', #57, #467, #646 ) ;
#552 = AXIS2_PLACEMENT_3D ( 'NONE', #780, #315, #843 ) ;
#553 = EDGE_CURVE ( 'NONE', #691, #384, #410, .T. ) ;
#554 = DIRECTION ( 'NONE',  ( 0.000000000000000000, -1.000000000000000000, 0.000000000000000000 ) ) ;
#555 = DIRECTION ( 'NONE',  ( -1.000000000000000000, -6.938893903907229167E-15, 0.000000000000000000 ) ) ;
#556 = CARTESIAN_POINT ( 'NONE',  ( 28.32106284377591621, -150.8000232204343547, 0.000000000000000000 ) ) ;
#557 = AXIS2_PLACEMENT_3D ( 'NONE', #288, #623, #827 ) ;
#558 = DIRECTION ( 'NONE',  ( 1.000000000000000000, -0.000000000000000000, -1.220597363587109281E-16 ) ) ;
#559 = ADVANCED_FACE ( 'NONE', ( #108 ), #685, .F. ) ;
#560 = DIRECTION ( 'NONE',  ( 0.000000000000000000, 0.000000000000000000, 1.000000000000000000 ) ) ;
#561 = EDGE_LOOP ( 'NONE', ( #591, #699, #10 ) ) ;
#562 = ADVANCED_FACE ( 'NONE', ( #690 ), #355, .T. ) ;
#563 = DIRECTION ( 'NONE',  ( 0.000000000000000000, 0.000000000000000000, 1.000000000000000000 ) ) ;
#564 = EDGE_LOOP ( 'NONE', ( #130, #743 ) ) ;
#565 = DIRECTION ( 'NONE',  ( 0.4999817255759314572, 0.8660359542710186487, -0.000000000000000000 ) ) ;
#566 = LINE ( 'NONE', #556, #172 ) ;
#567 = ORIENTED_EDGE ( 'NONE', *, *, #542, .T. ) ;
#568 = VECTOR ( 'NONE', #291, 1000.000000000000000 ) ;
#569 = APPROVAL_ROLE ( '' ) ;
#570 = CARTESIAN_POINT ( 'NONE',  ( 0.000000000000000000, 10.00000000000007105, 0.000000000000000000 ) ) ;
#571 = ORIENTED_EDGE ( 'NONE', *, *, #314, .F. ) ;
#572 = ADVANCED_FACE ( 'NONE', ( #630 ), #294, .T. ) ;
#573 = VECTOR ( 'NONE', #264, 1000.000000000000000 ) ;
#574 = EDGE_LOOP ( 'NONE', ( #48, #284, #342, #772, #510, #702 ) ) ;
#575 = DIRECTION ( 'NONE',  ( 0.000000000000000000, -1.000000000000000000, 0.000000000000000000 ) ) ;
#576 = CARTESIAN_POINT ( 'NONE',  ( 9.999999999999998224, 9.999999999999998224, 0.000000000000000000 ) ) ;
#577 = DATE_AND_TIME ( #444, #419 ) ;
#578 = ORIENTED_EDGE ( 'NONE', *, *, #536, .F. ) ;
#579 = PRODUCT_DEFINITION ( 'UNKNOWN', '', #186, #303 ) ;
#580 = DIRECTION ( 'NONE',  ( -1.000000000000000000, -6.938893903907229167E-15, 0.000000000000000000 ) ) ;
#581 = DIRECTION ( 'NONE',  ( 0.000000000000000000, 1.000000000000000000, 0.000000000000000000 ) ) ;
#582 = CARTESIAN_POINT ( 'NONE',  ( 4.000000000000000000, 10.00000000000007105, -4.898587196589590322E-16 ) ) ;
#583 = DATE_TIME_ROLE ( 'classification_date' ) ;
#584 = ORIENTED_EDGE ( 'NONE', *, *, #267, .T. ) ;
#585 = DIRECTION ( 'NONE',  ( -1.000000000000000000, 0.000000000000000000, 0.000000000000000000 ) ) ;
#586 = LINE ( 'NONE', #51, #327 ) ;
#587 = EDGE_CURVE ( 'NONE', #184, #500, #44, .T. ) ;
#588 = CYLINDRICAL_SURFACE ( 'NONE', #89, 2.499999999999992006 ) ;
#589 = DIRECTION ( 'NONE',  ( 1.000000000000000000, -0.000000000000000000, -1.220597363587109281E-16 ) ) ;
#590 = COORDINATED_UNIVERSAL_TIME_OFFSET ( 8, 0, .BEHIND. ) ;
#591 = ORIENTED_EDGE ( 'NONE', *, *, #103, .T. ) ;
#592 = CARTESIAN_POINT ( 'NONE',  ( 3.000000000000000000, 40.00000000000000000, 2.645751311064589828 ) ) ;
#593 = VERTEX_POINT ( 'NONE', #754 ) ;
#594 = CARTESIAN_POINT ( 'NONE',  ( 3.000000000000000888, 10.00000000000007105, 2.645751311064589384 ) ) ;
#595 = VERTEX_POINT ( 'NONE', #369 ) ;
#596 = DATE_AND_TIME ( #718, #626 ) ;
#597 = VERTEX_POINT ( 'NONE', #160 ) ;
#598 = FACE_OUTER_BOUND ( 'NONE', #268, .T. ) ;
#599 = LINE ( 'NONE', #12, #18 ) ;
#600 = ORIENTED_EDGE ( 'NONE', *, *, #314, .T. ) ;
#601 = CARTESIAN_POINT ( 'NONE',  ( 0.000000000000000000, 10.00000000000007105, 0.000000000000000000 ) ) ;
#602 = ORIENTED_EDGE ( 'NONE', *, *, #336, .T. ) ;
#603 = CC_DESIGN_APPROVAL ( #496, ( #579 ) ) ;
#604 = PRODUCT_RELATED_PRODUCT_CATEGORY ( 'detail', '', ( #380 ) ) ;
#605 = MANIFOLD_SOLID_BREP ( 'Split Line1', #3 ) ;
#606 = ORIENTED_EDGE ( 'NONE', *, *, #613, .T. ) ;
#607 = CARTESIAN_POINT ( 'NONE',  ( 9.999999999999998224, 9.999999999999998224, 0.000000000000000000 ) ) ;
#608 = VECTOR ( 'NONE', #798, 1000.000000000000000 ) ;
#609 = ORIENTED_EDGE ( 'NONE', *, *, #649, .F. ) ;
#610 = CARTESIAN_POINT ( 'NONE',  ( -3.000000000000000000, 15.00000000000006928, -2.499999999999992895 ) ) ;
#611 = AXIS2_PLACEMENT_3D ( 'NONE', #304, #490, #438 ) ;
#612 = CARTESIAN_POINT ( 'NONE',  ( -2.999999999999999556, 35.00000000000006395, 3.661792090761327595E-16 ) ) ;
#613 = EDGE_CURVE ( 'NONE', #691, #595, #33, .T. ) ;
#614 = CONICAL_SURFACE ( 'NONE', #731, 3.999999999999994227, 0.03490658503988851996 ) ;
#615 = CYLINDRICAL_SURFACE ( 'NONE', #712, 3.999999999999996447 ) ;
#616 = CIRCLE ( 'NONE', #811, 1.999999999998713474 ) ;
#617 = APPROVAL ( #74, 'UNSPECIFIED' ) ;
#618 = AXIS2_PLACEMENT_3D ( 'NONE', #25, #810, #21 ) ;
#619 = CARTESIAN_POINT ( 'NONE',  ( 10.00000000000007105, 0.000000000000000000, 0.000000000000000000 ) ) ;
#620 = DIRECTION ( 'NONE',  ( -0.000000000000000000, 1.000000000000000000, 0.000000000000000000 ) ) ;
#621 = EDGE_CURVE ( 'NONE', #439, #648, #64, .T. ) ;
#622 = LINE ( 'NONE', #114, #219 ) ;
#623 = DIRECTION ( 'NONE',  ( 1.000000000000000000, 0.000000000000000000, 0.000000000000000000 ) ) ;
#624 = VERTEX_POINT ( 'NONE', #171 ) ;
#625 = CC_DESIGN_PERSON_AND_ORGANIZATION_ASSIGNMENT ( #333, #119, ( #579 ) ) ;
#626 = LOCAL_TIME ( 19, 25, 43.00000000000000000, #449 ) ;
#627 = DIRECTION ( 'NONE',  ( 0.000000000000000000, -0.000000000000000000, 1.000000000000000000 ) ) ;
#628 = ORIENTED_EDGE ( 'NONE', *, *, #741, .T. ) ;
#629 = AXIS2_PLACEMENT_3D ( 'NONE', #250, #651, #520 ) ;
#630 = FACE_OUTER_BOUND ( 'NONE', #574, .T. ) ;
#631 = VERTEX_POINT ( 'NONE', #226 ) ;
#632 = PERSON_AND_ORGANIZATION_ROLE ( 'design_owner' ) ;
#633 = DIRECTION ( 'NONE',  ( -1.000000000000000000, 0.000000000000000000, 0.000000000000000000 ) ) ;
#634 = EDGE_CURVE ( 'NONE', #59, #395, #135, .T. ) ;
#635 = VERTEX_POINT ( 'NONE', #698 ) ;
#636 = CIRCLE ( 'NONE', #13, 4.000000000000000000 ) ;
#637 = ORIENTED_EDGE ( 'NONE', *, *, #529, .F. ) ;
#638 = DIRECTION ( 'NONE',  ( -1.734723475976815230E-16, 0.000000000000000000, -1.000000000000000000 ) ) ;
#639 = DIRECTION ( 'NONE',  ( 1.000000000000000000, 0.000000000000000000, 0.000000000000000000 ) ) ;
#640 = CC_DESIGN_APPROVAL ( #272, ( #186 ) ) ;
#641 = ORIENTED_EDGE ( 'NONE', *, *, #420, .F. ) ;
#642 = PERSON_AND_ORGANIZATION ( #544, #485 ) ;
#643 = ORIENTED_EDGE ( 'NONE', *, *, #634, .F. ) ;
#644 = CARTESIAN_POINT ( 'NONE',  ( 0.000000000000000000, 40.00000000000000000, 0.000000000000000000 ) ) ;
#645 = DIRECTION ( 'NONE',  ( 1.734723475976812764E-16, 0.000000000000000000, 1.000000000000000000 ) ) ;
#646 = DIRECTION ( 'NONE',  ( -1.000000000000000000, 0.000000000000000000, 0.000000000000000000 ) ) ;
#647 = CALENDAR_DATE ( 2026, 24, 2 ) ;
#648 = VERTEX_POINT ( 'NONE', #756 ) ;
#649 = EDGE_CURVE ( 'NONE', #318, #624, #545, .T. ) ;
#650 = CARTESIAN_POINT ( 'NONE',  ( 3.000000000000000000, 40.00000000000000000, -2.645751311064594269 ) ) ;
#651 = DIRECTION ( 'NONE',  ( 0.000000000000000000, 1.000000000000000000, 0.000000000000000000 ) ) ;
#652 = FACE_OUTER_BOUND ( 'NONE', #740, .T. ) ;
#653 = APPROVAL_DATE_TIME ( #462, #272 ) ;
#654 = AXIS2_PLACEMENT_3D ( 'NONE', #832, #298, #366 ) ;
#655 = ORIENTED_EDGE ( 'NONE', *, *, #406, .F. ) ;
#656 = DIRECTION ( 'NONE',  ( 0.000000000000000000, 0.000000000000000000, 1.000000000000000000 ) ) ;
#657 = CARTESIAN_POINT ( 'NONE',  ( 111.3402734864848185, -14.99981725575931080, 3.999999999999999112 ) ) ;
#658 = FACE_OUTER_BOUND ( 'NONE', #112, .T. ) ;
#659 = ORIENTED_EDGE ( 'NONE', *, *, #697, .F. ) ;
#660 = AXIS2_PLACEMENT_3D ( 'NONE', #619, #423, #692 ) ;
#661 = CALENDAR_DATE ( 2026, 24, 2 ) ;
#662 = CIRCLE ( 'NONE', #552, 4.000000000000000000 ) ;
#663 = ORIENTED_EDGE ( 'NONE', *, *, #283, .F. ) ;
#664 = AXIS2_PLACEMENT_3D ( 'NONE', #607, #808, #96 ) ;
#665 = VECTOR ( 'NONE', #91, 1000.000000000000000 ) ;
#666 = ORIENTED_EDGE ( 'NONE', *, *, #161, .F. ) ;
#667 = CARTESIAN_POINT ( 'NONE',  ( 111.3402734864848185, -14.99981725575931080, -3.999999999999999112 ) ) ;
#668 = DIRECTION ( 'NONE',  ( -1.734723475976812764E-16, 0.000000000000000000, -1.000000000000000000 ) ) ;
#669 = ORIENTED_EDGE ( 'NONE', *, *, #735, .T. ) ;
#670 = LINE ( 'NONE', #81, #481 ) ;
#671 = ADVANCED_FACE ( 'NONE', ( #511 ), #83, .T. ) ;
#672 = PLANE ( 'NONE',  #271 ) ;
#673 = CIRCLE ( 'NONE', #349, 4.000000000000000000 ) ;
#674 = ORIENTED_EDGE ( 'NONE', *, *, #216, .T. ) ;
#675 = LINE ( 'NONE', #86, #665 ) ;
#676 = CC_DESIGN_PERSON_AND_ORGANIZATION_ASSIGNMENT ( #642, #840, ( #186 ) ) ;
#677 = ADVANCED_FACE ( 'NONE', ( #243 ), #760, .T. ) ;
#678 = ORIENTED_EDGE ( 'NONE', *, *, #483, .T. ) ;
#679 = ADVANCED_FACE ( 'NONE', ( #60, #55, #319 ), #325, .T. ) ;
#680 = CARTESIAN_POINT ( 'NONE',  ( 0.000000000000000000, 40.00000000000000000, 0.000000000000000000 ) ) ;
#681 = ADVANCED_FACE ( 'NONE', ( #773 ), #185, .T. ) ;
#682 = ORIENTED_EDGE ( 'NONE', *, *, #457, .T. ) ;
#683 = FACE_OUTER_BOUND ( 'NONE', #173, .T. ) ;
#684 = CARTESIAN_POINT ( 'NONE',  ( 3.000000000000001332, 15.00000000000006928, -2.499999999999988898 ) ) ;
#685 = CYLINDRICAL_SURFACE ( 'NONE', #654, 2.499999999999993339 ) ;
#686 = CIRCLE ( 'NONE', #52, 4.000000000000000000 ) ;
#687 = ADVANCED_FACE ( 'NONE', ( #791 ), #193, .T. ) ;
#688 = TOROIDAL_SURFACE ( 'NONE', #28, 10.00000000000028955, 4.000000000000000000 ) ;
#689 = CARTESIAN_POINT ( 'NONE',  ( -3.000000000000002220, 10.00000000000000178, -17.76510755847015588 ) ) ;
#690 = FACE_OUTER_BOUND ( 'NONE', #705, .T. ) ;
#691 = VERTEX_POINT ( 'NONE', #390 ) ;
#692 = DIRECTION ( 'NONE',  ( 0.000000000000000000, 0.000000000000000000, 1.000000000000000000 ) ) ;
#693 = DIRECTION ( 'NONE',  ( -0.4996771502177645985, -0.8655083885671851496, 0.03489949670250289820 ) ) ;
#694 = ORIENTED_EDGE ( 'NONE', *, *, #19, .T. ) ;
#695 = DIRECTION ( 'NONE',  ( 0.000000000000000000, 0.000000000000000000, 1.000000000000000000 ) ) ;
#696 = ORIENTED_EDGE ( 'NONE', *, *, #483, .F. ) ;
#697 = EDGE_CURVE ( 'NONE', #478, #46, #232, .T. ) ;
#698 = CARTESIAN_POINT ( 'NONE',  ( 102.6799139437745936, 0.000000000000000000, -4.000000000000000000 ) ) ;
#699 = ORIENTED_EDGE ( 'NONE', *, *, #221, .T. ) ;
#700 = ORIENTED_EDGE ( 'NONE', *, *, #697, .T. ) ;
#701 = DIRECTION ( 'NONE',  ( 0.000000000000000000, 0.000000000000000000, 1.000000000000000000 ) ) ;
#702 = ORIENTED_EDGE ( 'NONE', *, *, #806, .F. ) ;
#703 = AXIS2_PLACEMENT_3D ( 'NONE', #816, #239, #37 ) ;
#704 = EDGE_CURVE ( 'NONE', #727, #305, #94, .T. ) ;
#705 = EDGE_LOOP ( 'NONE', ( #275, #328, #666 ) ) ;
#706 = DIRECTION ( 'NONE',  ( -1.000000000000000000, -6.938893903907229167E-15, 0.000000000000000000 ) ) ;
#707 = FACE_OUTER_BOUND ( 'NONE', #192, .T. ) ;
#708 = SECURITY_CLASSIFICATION ( '', '', #711 ) ;
#709 = AXIS2_PLACEMENT_3D ( 'NONE', #231, #558, #753 ) ;
#710 = EDGE_CURVE ( 'NONE', #783, #246, #673, .T. ) ;
#711 = SECURITY_CLASSIFICATION_LEVEL ( 'unclassified' ) ;
#712 = AXIS2_PLACEMENT_3D ( 'NONE', #93, #418, #812 ) ;
#713 = ORIENTED_EDGE ( 'NONE', *, *, #190, .F. ) ;
#714 = DIRECTION ( 'NONE',  ( 0.000000000000000000, 0.000000000000000000, 1.000000000000000000 ) ) ;
#715 = CARTESIAN_POINT ( 'NONE',  ( 10.00000000000007105, 4.898587196589412829E-16, 4.000000000000000000 ) ) ;
#716 = CARTESIAN_POINT ( 'NONE',  ( 102.6799139437745936, 4.898587196589412829E-16, 4.000000000000000000 ) ) ;
#717 = DIRECTION ( 'NONE',  ( -1.000000000000000000, 0.000000000000000000, 0.000000000000000000 ) ) ;
#718 = CALENDAR_DATE ( 2026, 24, 2 ) ;
#719 = ORIENTED_EDGE ( 'NONE', *, *, #813, .T. ) ;
#720 = CARTESIAN_POINT ( 'NONE',  ( 102.6799139437746078, -10.00000000000000000, 0.000000000000000000 ) ) ;
#721 = CARTESIAN_POINT ( 'NONE',  ( -2.999999999999998668, 40.00000000000000000, 2.645751311064591160 ) ) ;
#722 = DIRECTION ( 'NONE',  ( 0.000000000000000000, 1.000000000000000000, 0.000000000000000000 ) ) ;
#723 = CARTESIAN_POINT ( 'NONE',  ( 111.3402734864848185, -14.99981725575931435, 0.000000000000000000 ) ) ;
#724 = APPROVAL_DATE_TIME ( #577, #617 ) ;
#725 = AXIS2_PLACEMENT_3D ( 'NONE', #842, #507, #638 ) ;
#726 = ORIENTED_EDGE ( 'NONE', *, *, #704, .T. ) ;
#727 = VERTEX_POINT ( 'NONE', #180 ) ;
#728 = AXIS2_PLACEMENT_3D ( 'NONE', #169, #104, #493 ) ;
#729 = CARTESIAN_POINT ( 'NONE',  ( 0.000000000000000000, 10.00000000000007105, 0.000000000000000000 ) ) ;
#730 = FACE_OUTER_BOUND ( 'NONE', #495, .T. ) ;
#731 = AXIS2_PLACEMENT_3D ( 'NONE', #488, #494, #229 ) ;
#732 = AXIS2_PLACEMENT_3D ( 'NONE', #723, #322, #737 ) ;
#733 = CIRCLE ( 'NONE', #402, 4.000000000000000000 ) ;
#734 = VERTEX_POINT ( 'NONE', #49 ) ;
#735 = EDGE_CURVE ( 'NONE', #305, #263, #67, .T. ) ;
#736 = LINE ( 'NONE', #392, #834 ) ;
#737 = DIRECTION ( 'NONE',  ( 0.8660359542710182046, -0.4999817255759322898, 0.000000000000000000 ) ) ;
#738 = ORIENTED_EDGE ( 'NONE', *, *, #845, .F. ) ;
#739 = DIRECTION ( 'NONE',  ( -0.4999817255759315682, -0.8660359542710187597, -0.000000000000000000 ) ) ;
#740 = EDGE_LOOP ( 'NONE', ( #600, #847, #825, #273 ) ) ;
#741 = EDGE_CURVE ( 'NONE', #246, #230, #828, .T. ) ;
#742 = ADVANCED_BREP_SHAPE_REPRESENTATION ( 'blenderaugerlong', ( #605, #728 ), #140 ) ;
#743 = ORIENTED_EDGE ( 'NONE', *, *, #553, .F. ) ;
#744 = DIRECTION ( 'NONE',  ( 1.000000000000000000, -0.000000000000000000, -1.220597363587109281E-16 ) ) ;
#745 = EDGE_CURVE ( 'NONE', #148, #631, #302, .T. ) ;
#746 = CARTESIAN_POINT ( 'NONE',  ( -4.000000000000145661, 10.00000000000007105, 0.000000000000000000 ) ) ;
#747 = AXIS2_PLACEMENT_3D ( 'NONE', #215, #749, #414 ) ;
#748 = ORIENTED_EDGE ( 'NONE', *, *, #47, .T. ) ;
#749 = DIRECTION ( 'NONE',  ( 0.4999817255759314572, 0.8660359542710186487, -0.000000000000000000 ) ) ;
#750 = ORIENTED_EDGE ( 'NONE', *, *, #508, .F. ) ;
#751 = AXIS2_PLACEMENT_3D ( 'NONE', #308, #517, #656 ) ;
#752 = FACE_OUTER_BOUND ( 'NONE', #404, .T. ) ;
#753 = DIRECTION ( 'NONE',  ( -1.734723475976815230E-16, 0.000000000000000000, -1.000000000000000000 ) ) ;
#754 = CARTESIAN_POINT ( 'NONE',  ( 102.6799139437745936, 4.000000000000004441, 0.000000000000000000 ) ) ;
#755 = CARTESIAN_POINT ( 'NONE',  ( 102.6799139437745936, 0.000000000000000000, 0.000000000000000000 ) ) ;
#756 = CARTESIAN_POINT ( 'NONE',  ( 114.8044173035688971, -16.99974415806302730, 0.000000000000000000 ) ) ;
#757 = VERTEX_POINT ( 'NONE', #385 ) ;
#758 = PERSON_AND_ORGANIZATION ( #544, #485 ) ;
#759 = CARTESIAN_POINT ( 'NONE',  ( 0.000000000000000000, 10.00000000000007105, 0.000000000000000000 ) ) ;
#760 = TOROIDAL_SURFACE ( 'NONE', #497, 10.00000000000000888, 4.000000000000000000 ) ;
#761 = ORIENTED_EDGE ( 'NONE', *, *, #531, .T. ) ;
#762 = ADVANCED_FACE ( 'NONE', ( #368 ), #228, .T. ) ;
#763 = CARTESIAN_POINT ( 'NONE',  ( 31.78520666085998769, -152.7999501227380676, 0.000000000000000000 ) ) ;
#764 = CIRCLE ( 'NONE', #535, 4.000000000000000000 ) ;
#765 = CARTESIAN_POINT ( 'NONE',  ( 111.3402734864848185, -14.99981725575930902, 0.000000000000000000 ) ) ;
#766 = ORIENTED_EDGE ( 'NONE', *, *, #464, .F. ) ;
#767 = AXIS2_PLACEMENT_3D ( 'NONE', #729, #722, #7 ) ;
#768 = VECTOR ( 'NONE', #448, 1000.000000000000000 ) ;
#769 =( LENGTH_UNIT ( ) NAMED_UNIT ( * ) SI_UNIT ( .MILLI., .METRE. ) );
#770 = CARTESIAN_POINT ( 'NONE',  ( -2.999999999999999556, 40.00000000000000000, -2.645751311064590272 ) ) ;
#771 = ORIENTED_EDGE ( 'NONE', *, *, #621, .F. ) ;
#772 = ORIENTED_EDGE ( 'NONE', *, *, #8, .T. ) ;
#773 = FACE_OUTER_BOUND ( 'NONE', #153, .T. ) ;
#774 = CARTESIAN_POINT ( 'NONE',  ( -2.999999999999999556, 35.00000000000006395, 3.661792090761327595E-16 ) ) ;
#775 = EDGE_CURVE ( 'NONE', #631, #458, #622, .T. ) ;
#776 = AXIS2_PLACEMENT_3D ( 'NONE', #432, #424, #421 ) ;
#777 = DATE_AND_TIME ( #647, #487 ) ;
#778 = ORIENTED_EDGE ( 'NONE', *, *, #587, .F. ) ;
#779 = CARTESIAN_POINT ( 'NONE',  ( 0.000000000000000000, 10.00000000000007105, 0.000000000000000000 ) ) ;
#780 = CARTESIAN_POINT ( 'NONE',  ( 0.000000000000000000, 40.00000000000000000, 0.000000000000000000 ) ) ;
#781 = CARTESIAN_POINT ( 'NONE',  ( 31.78520666085998769, -152.7999501227380676, 0.000000000000000000 ) ) ;
#782 = DIRECTION ( 'NONE',  ( -0.8660359542710195369, 0.4999817255759299583, 0.000000000000000000 ) ) ;
#783 = VERTEX_POINT ( 'NONE', #436 ) ;
#784 = EDGE_CURVE ( 'NONE', #204, #593, #636, .T. ) ;
#785 = DIRECTION ( 'NONE',  ( 0.000000000000000000, 0.000000000000000000, 1.000000000000000000 ) ) ;
#786 = LINE ( 'NONE', #181, #768 ) ;
#787 = CARTESIAN_POINT ( 'NONE',  ( 3.000000000000000000, 15.00000000000006928, -2.499999999999993783 ) ) ;
#788 = CARTESIAN_POINT ( 'NONE',  ( 0.000000000000000000, 10.00000000000007105, -4.000000000000000000 ) ) ;
#789 = PERSON_AND_ORGANIZATION_ROLE ( 'classification_officer' ) ;
#790 = ORIENTED_EDGE ( 'NONE', *, *, #838, .F. ) ;
#791 = FACE_OUTER_BOUND ( 'NONE', #270, .T. ) ;
#792 = ORIENTED_EDGE ( 'NONE', *, *, #417, .T. ) ;
#793 = CARTESIAN_POINT ( 'NONE',  ( 31.78520666085998769, -152.7999501227380676, -3.999999999999999112 ) ) ;
#794 = ORIENTED_EDGE ( 'NONE', *, *, #464, .T. ) ;
#795 = VECTOR ( 'NONE', #499, 1000.000000000000000 ) ;
#796 = ADVANCED_FACE ( 'NONE', ( #287 ), #116, .T. ) ;
#797 = ORIENTED_EDGE ( 'NONE', *, *, #420, .T. ) ;
#798 = DIRECTION ( 'NONE',  ( -0.4999817255759314572, -0.8660359542710186487, 0.000000000000000000 ) ) ;
#799 = CARTESIAN_POINT ( 'NONE',  ( 31.78520666085998769, -152.7999501227380676, 3.999999999999999112 ) ) ;
#800 = CC_DESIGN_PERSON_AND_ORGANIZATION_ASSIGNMENT ( #758, #632, ( #380 ) ) ;
#801 = ORIENTED_EDGE ( 'NONE', *, *, #221, .F. ) ;
#802 = DIRECTION ( 'NONE',  ( -0.8660359542710195369, 0.4999817255759299583, 0.000000000000000000 ) ) ;
#803 = LINE ( 'NONE', #403, #435 ) ;
#804 = ORIENTED_EDGE ( 'NONE', *, *, #491, .F. ) ;
#805 = CARTESIAN_POINT ( 'NONE',  ( 35.24935047794405563, -154.7998770250417806, 0.000000000000000000 ) ) ;
#806 = EDGE_CURVE ( 'NONE', #541, #783, #326, .T. ) ;
#807 = AXIS2_PLACEMENT_3D ( 'NONE', #525, #5, #848 ) ;
#808 = DIRECTION ( 'NONE',  ( 0.000000000000000000, 0.000000000000000000, 1.000000000000000000 ) ) ;
#809 = AXIS2_PLACEMENT_3D ( 'NONE', #386, #581, #133 ) ;
#810 = DIRECTION ( 'NONE',  ( 0.000000000000000000, 0.000000000000000000, 1.000000000000000000 ) ) ;
#811 = AXIS2_PLACEMENT_3D ( 'NONE', #337, #1, #147 ) ;
#812 = DIRECTION ( 'NONE',  ( 0.8660359542710182046, -0.4999817255759322898, 0.000000000000000000 ) ) ;
#813 = EDGE_CURVE ( 'NONE', #184, #597, #17, .T. ) ;
#814 = DIRECTION ( 'NONE',  ( 0.4999817255759314572, 0.8660359542710186487, -0.000000000000000000 ) ) ;
#815 = AXIS2_PLACEMENT_3D ( 'NONE', #101, #31, #695 ) ;
#816 = CARTESIAN_POINT ( 'NONE',  ( -2.999999999999999556, 15.00000000000006928, 3.661792090761327595E-16 ) ) ;
#817 = CC_DESIGN_APPROVAL ( #617, ( #708 ) ) ;
#818 = CARTESIAN_POINT ( 'NONE',  ( 3.000000000000000000, 35.00000000000006395, -2.499999999999992450 ) ) ;
#819 = EDGE_CURVE ( 'NONE', #230, #541, #764, .T. ) ;
#820 = CONICAL_SURFACE ( 'NONE', #75, 3.999999999999994227, 0.03490658503988851996 ) ;
#821 = ORIENTED_EDGE ( 'NONE', *, *, #235, .F. ) ;
#822 = DIRECTION ( 'NONE',  ( -0.8660359542710195369, 0.4999817255759299583, 0.000000000000000000 ) ) ;
#823 = DIRECTION ( 'NONE',  ( 1.000000000000000000, 0.000000000000000000, 0.000000000000000000 ) ) ;
#824 = EDGE_CURVE ( 'NONE', #85, #371, #87, .T. ) ;
#825 = ORIENTED_EDGE ( 'NONE', *, *, #838, .T. ) ;
#826 = CARTESIAN_POINT ( 'NONE',  ( -3.000000000000000444, 40.00000000000000000, -2.645751311064594269 ) ) ;
#827 = DIRECTION ( 'NONE',  ( 0.000000000000000000, 0.000000000000000000, -1.000000000000000000 ) ) ;
#828 = CIRCLE ( 'NONE', #202, 4.000000000000000000 ) ;
#829 = VERTEX_POINT ( 'NONE', #826 ) ;
#830 = CARTESIAN_POINT ( 'NONE',  ( 31.78520666085998769, -152.7999501227380676, 0.000000000000000000 ) ) ;
#831 = CIRCLE ( 'NONE', #776, 4.000000000000000000 ) ;
#832 = CARTESIAN_POINT ( 'NONE',  ( 3.000000000000000444, 15.00000000000006928, -3.661792090761328581E-16 ) ) ;
#833 = ORIENTED_EDGE ( 'NONE', *, *, #649, .T. ) ;
#834 = VECTOR ( 'NONE', #11, 1000.000000000000000 ) ;
#835 = CIRCLE ( 'NONE', #397, 2.499999999999988454 ) ;
#836 = ORIENTED_EDGE ( 'NONE', *, *, #103, .F. ) ;
#837 = DIRECTION ( 'NONE',  ( -1.000000000000000000, 0.000000000000000000, 0.000000000000000000 ) ) ;
#838 = EDGE_CURVE ( 'NONE', #46, #478, #450, .T. ) ;
#839 = DIRECTION ( 'NONE',  ( 0.4996771502177645985, 0.8655083885671851496, 0.03489949670250289820 ) ) ;
#840 = PERSON_AND_ORGANIZATION_ROLE ( 'design_supplier' ) ;
#841 = ORIENTED_EDGE ( 'NONE', *, *, #806, .T. ) ;
#842 = CARTESIAN_POINT ( 'NONE',  ( 3.000000000000001776, 35.00000000000006395, -3.661792090761330060E-16 ) ) ;
#843 = DIRECTION ( 'NONE',  ( 0.000000000000000000, 0.000000000000000000, 1.000000000000000000 ) ) ;
#844 = DIRECTION ( 'NONE',  ( -1.220597363587109034E-16, 0.000000000000000000, -1.000000000000000000 ) ) ;
#845 = EDGE_CURVE ( 'NONE', #395, #624, #486, .T. ) ;
#846 = SHAPE_DEFINITION_REPRESENTATION ( #189, #742 ) ;
#847 = ORIENTED_EDGE ( 'NONE', *, *, #84, .T. ) ;
#848 = DIRECTION ( 'NONE',  ( 1.220597363587109034E-16, 0.000000000000000000, 1.000000000000000000 ) ) ;
#849 = DIRECTION ( 'NONE',  ( -0.4999817255759314572, -0.8660359542710186487, 0.000000000000000000 ) ) ;
#850 = PLANE ( 'NONE',  #309 ) ;
ENDSEC;
END-ISO-10303-21;
